<?xml version="1.0" encoding="UTF-8"?>

<!--
  - Copyright (c) 2023. Compose Cupertino project and open source contributors.
  -
  -  Licensed under the Apache License, Version 2.0 (the "License");
  -  you may not use this file except in compliance with the License.
  -  You may obtain a copy of the License at
  -
  -      http://www.apache.org/licenses/LICENSE-2.0
  -
  -  Unless required by applicable law or agreed to in writing, software
  -  distributed under the License is distributed on an "AS IS" BASIS,
  -  WITHOUT WARRANTIES OR CONDITIONS OF ANY KIND, either express or implied.
  -  See the License for the specific language governing permissions and
  -  limitations under the License.
  -
  -->

<svg version="1.1" xmlns="http://www.w3.org/2000/svg" xmlns:xlink="http://www.w3.org/1999/xlink" width="29.2969" height="24.2227">
 <g>
  <path d="M3.01172 20.25L26.2852 20.25C28.2891 20.25 29.2969 19.3008 29.2969 17.2383L29.2969 3.80859C29.2969 1.75781 28.2891 0.808594 26.2852 0.808594L3.01172 0.808594C1.00781 0.808594 0 1.75781 0 3.80859L0 17.2383C0 19.3008 1.00781 20.25 3.01172 20.25ZM8.75391 24.2227L20.543 24.2227C21.0586 24.2227 21.4922 23.8008 21.4922 23.2734C21.4922 22.7461 21.0586 22.3242 20.543 22.3242L8.75391 22.3242C8.23828 22.3242 7.80469 22.7461 7.80469 23.2734C7.80469 23.8008 8.23828 24.2227 8.75391 24.2227Z" fill="#000000"/>
  <path d="M11.1445 15.8438C10.6289 15.8438 10.3242 15.4922 10.3242 14.8945L10.3242 13.6758L6.24609 13.6758C5.51953 13.6758 5.0625 13.2305 5.0625 12.5625C5.0625 12.2344 5.13281 11.9414 5.36719 11.5781C6.30469 10.0312 7.72266 7.95703 8.90625 6.17578C9.35156 5.48438 9.84375 5.20312 10.6406 5.20312C11.4375 5.20312 12 5.69531 12 6.39844L12 12.1992L12.8672 12.1992C13.3125 12.1992 13.6055 12.5039 13.6055 12.9375C13.6055 13.3945 13.3008 13.6758 12.8672 13.6758L12 13.6758L12 14.8945C12 15.5039 11.6836 15.8438 11.1445 15.8438ZM10.3242 12.1992L10.3242 6.67969L10.2422 6.67969C9.04688 8.47266 7.59375 10.6289 6.72656 12.1289L6.72656 12.1992ZM15.9727 15.7734C15.457 15.7734 15.1406 15.4219 15.1406 14.8359L15.1406 6.24609C15.1406 5.64844 15.457 5.29688 15.9727 5.29688C16.5352 5.29688 16.8281 5.63672 16.8281 6.24609L16.8281 10.2305L16.9805 10.2305L21.4922 5.64844C21.7617 5.39062 21.9141 5.29688 22.1836 5.29688C22.6055 5.29688 22.9336 5.58984 22.9336 6C22.9336 6.23438 22.8633 6.42188 22.6641 6.58594L19.5117 9.85547L22.957 14.332C23.1094 14.543 23.1914 14.7656 23.1914 14.9883C23.1914 15.4453 22.8516 15.7734 22.3828 15.7734C22.1016 15.7734 21.8672 15.6562 21.6445 15.3633L18.2812 10.9102L16.8281 12.4336L16.8281 14.8359C16.8281 15.4336 16.5352 15.7734 15.9727 15.7734Z" fill="#ffffff"/>
 </g>
</svg>
