<?xml version="1.0" encoding="UTF-8"?>

<!--
  - Copyright (c) 2023. Compose Cupertino project and open source contributors.
  -
  -  Licensed under the Apache License, Version 2.0 (the "License");
  -  you may not use this file except in compliance with the License.
  -  You may obtain a copy of the License at
  -
  -      http://www.apache.org/licenses/LICENSE-2.0
  -
  -  Unless required by applicable law or agreed to in writing, software
  -  distributed under the License is distributed on an "AS IS" BASIS,
  -  WITHOUT WARRANTIES OR CONDITIONS OF ANY KIND, either express or implied.
  -  See the License for the specific language governing permissions and
  -  limitations under the License.
  -
  -->

<svg version="1.1" xmlns="http://www.w3.org/2000/svg" xmlns:xlink="http://www.w3.org/1999/xlink" width="23.9062" height="23.918">
  <path d="M11.9531 23.918C18.4922 23.918 23.9062 18.5039 23.9062 11.9648C23.9062 5.4375 18.4805 0.0117188 11.9414 0.0117188C5.41406 0.0117188 0 5.4375 0 11.9648C0 18.5039 5.42578 23.918 11.9531 23.918ZM11.9531 21.5742C6.62109 21.5742 2.34375 17.2969 2.34375 11.9531C2.34375 6.59766 6.60938 2.33203 11.9414 2.33203C17.2852 2.33203 21.5625 6.59766 21.5742 11.9531C21.5859 17.2852 17.2969 21.5742 11.9531 21.5742ZM11.9531 20.5078C16.7109 20.5078 20.5195 16.6875 20.5078 11.9531C20.4961 7.18359 16.6875 3.39844 11.9414 3.39844C7.19531 3.39844 3.41016 7.19531 3.41016 11.9531C3.41016 16.6992 7.20703 20.5078 11.9531 20.5078ZM12.0586 15.2109C11.3906 15.2109 11.1562 15.5742 10.6172 15.5742C10.0547 15.5742 9.69141 15.082 9.24609 14.4727C8.75391 13.7461 8.33203 12.6328 8.33203 11.5664C8.33203 9.87891 9.44531 8.96484 10.5352 8.96484C11.1094 8.96484 11.5898 9.35156 11.9414 9.35156C12.293 9.35156 12.832 8.95312 13.4883 8.95312C13.7461 8.95312 14.6367 8.96484 15.2227 9.80859C15.1758 9.86719 14.2852 10.3594 14.2852 11.4844C14.2852 12.7852 15.4219 13.2422 15.457 13.2539C15.457 13.2773 15.2812 13.8867 14.8594 14.4961C14.4844 15.0234 14.0742 15.5625 13.4883 15.5625C12.8906 15.5625 12.75 15.2109 12.0586 15.2109ZM13.1836 8.22656C12.8906 8.58984 12.3984 8.85938 12 8.85938C11.9414 8.85938 11.9062 8.84766 11.8711 8.84766C11.8711 8.82422 11.8594 8.75391 11.8594 8.69531C11.8594 8.22656 12.1055 7.79297 12.3398 7.5C12.668 7.125 13.1836 6.85547 13.6289 6.84375C13.6406 6.89062 13.6406 6.94922 13.6406 7.00781C13.6406 7.46484 13.4531 7.89844 13.1836 8.22656Z" fill="#000000"/>
</svg>
