<?xml version="1.0" encoding="UTF-8"?>

<!--
  - Copyright (c) 2023. Compose Cupertino project and open source contributors.
  -
  -  Licensed under the Apache License, Version 2.0 (the "License");
  -  you may not use this file except in compliance with the License.
  -  You may obtain a copy of the License at
  -
  -      http://www.apache.org/licenses/LICENSE-2.0
  -
  -  Unless required by applicable law or agreed to in writing, software
  -  distributed under the License is distributed on an "AS IS" BASIS,
  -  WITHOUT WARRANTIES OR CONDITIONS OF ANY KIND, either express or implied.
  -  See the License for the specific language governing permissions and
  -  limitations under the License.
  -
  -->

<svg version="1.1" xmlns="http://www.w3.org/2000/svg" xmlns:xlink="http://www.w3.org/1999/xlink" width="23.4023" height="23.332">
 <g>
  <path d="M6.24609 23.332L17.1445 23.332C19.1484 23.332 20.8359 23.1445 22.0312 21.9492C23.2266 20.7539 23.4023 19.0781 23.4023 17.0742L23.4023 6.26953C23.4023 4.26562 23.2266 2.60156 22.0312 1.40625C20.8359 0.210938 19.1484 0.0234375 17.1445 0.0234375L6.22266 0.0234375C4.25391 0.0234375 2.56641 0.210938 1.37109 1.40625C0.175781 2.60156 0 4.27734 0 6.24609L0 17.0742C0 19.0781 0.175781 20.7539 1.37109 21.9492C2.56641 23.1445 4.25391 23.332 6.24609 23.332Z M6.26953 9.03516C6.24609 8.12109 6.97266 7.25391 7.94531 7.20703C8.01562 8.07422 7.25391 9.14062 6.26953 9.03516ZM9.60938 13.2188C9.43359 13.8398 9.01172 14.5664 8.49609 15.0938C8.33203 15.2344 8.09766 15.3516 7.79297 15.3516C7.51172 15.3516 7.34766 15.2461 7.10156 15.1641C6.94922 15.1172 6.72656 15.0117 6.46875 15.0117C5.87109 15.0117 5.60156 15.375 5.10938 15.375C4.78125 15.375 4.51172 15.1641 4.13672 14.7656C3.44531 13.9922 2.98828 12.7617 2.98828 11.707C2.98828 11.0625 3.15234 10.4531 3.5625 9.94922C3.90234 9.50391 4.41797 9.24609 5.0625 9.24609C5.64844 9.24609 6 9.62109 6.31641 9.62109C6.69141 9.62109 7.11328 9.23438 7.85156 9.23438C8.50781 9.23438 9.05859 9.49219 9.41016 10.0195C8.94141 10.2891 8.76562 10.6289 8.67188 10.9102C8.51953 11.3203 8.49609 11.8008 8.67188 12.2812C8.84766 12.7148 9.14062 13.0078 9.60938 13.2188ZM12.9141 7.80469L12.9141 9.23438L14.0742 9.23438L14.0742 10.1953L12.9141 10.1953L12.9141 13.5586C12.9141 14.1094 13.1484 14.3203 13.6406 14.3203C13.7695 14.3203 13.9922 14.3203 14.0508 14.2852L14.0508 15.3047C13.9453 15.3164 13.6406 15.3516 13.3711 15.3516C12.1406 15.3516 11.6602 14.918 11.6602 13.6992L11.6602 10.1953L10.793 10.1953L10.793 9.23438L11.6602 9.23438L11.6602 7.80469ZM18.1758 15.3047L16.8633 15.3047L14.6367 9.23438L15.9609 9.23438L17.5312 14.1094L19.0078 9.23438L20.3672 9.23438Z"/>
 </g>
</svg>
