<?xml version="1.0" encoding="UTF-8"?>
<!--
  - Copyright (c) 2023. Compose Cupertino project and open source contributors.
  -
  -  Licensed under the Apache License, Version 2.0 (the "License");
  -  you may not use this file except in compliance with the License.
  -  You may obtain a copy of the License at
  -
  -      http://www.apache.org/licenses/LICENSE-2.0
  -
  -  Unless required by applicable law or agreed to in writing, software
  -  distributed under the License is distributed on an "AS IS" BASIS,
  -  WITHOUT WARRANTIES OR CONDITIONS OF ANY KIND, either express or implied.
  -  See the License for the specific language governing permissions and
  -  limitations under the License.
  -
  -->

<!--Generator: Apple Native CoreSVG 175.5-->
<!DOCTYPE svg
    PUBLIC "-//W3C//DTD SVG 1.1//EN"
    "http://www.w3.org/Graphics/SVG/1.1/DTD/svg11.dtd">
<svg version="1.1" xmlns="http://www.w3.org/2000/svg" xmlns:xlink="http://www.w3.org/1999/xlink" width="31.0898" height="21.5273">
  <path d="M17.2734 21.4922C18.0703 21.4922 18.6445 20.9062 18.6445 20.1211L18.6445 15.6445L18.9844 15.6445C23.5312 15.6445 26.3906 16.793 28.4414 20.625C28.8516 21.375 29.3906 21.4922 29.8828 21.4922C30.5039 21.4922 31.0898 20.9297 31.0898 19.9219C31.0898 11.2617 27.4102 5.85938 18.9844 5.85938L18.6445 5.85938L18.6445 1.42969C18.6445 0.644531 18.0703 0 17.25 0C16.6758 0 16.2891 0.246094 15.668 0.832031L6.42188 9.48047C5.98828 9.87891 5.82422 10.3242 5.82422 10.7461C5.82422 11.1445 5.98828 11.6016 6.42188 12L15.668 20.7305C16.2305 21.2578 16.6992 21.4922 17.2734 21.4922ZM11.4492 21.5039C12.2461 21.5039 12.8203 21.0234 12.8203 20.4844L12.8203 20.0859L5.29688 13.1367C4.58203 12.4805 4.16016 11.6484 4.16016 10.7578C4.16016 9.86719 4.55859 9.03516 5.29688 8.36719L12.8203 1.47656L12.8203 1.07812C12.8203 0.515625 12.2461 0.0117188 11.4258 0.0117188C10.8516 0.0117188 10.4648 0.257812 9.84375 0.84375L0.585938 9.49219C0.140625 9.92578 0 10.3594 0 10.7578C0 11.1445 0.140625 11.5898 0.585938 12.0117L9.84375 20.7422C10.3945 21.2695 10.875 21.5039 11.4492 21.5039Z" fill="#000000"/>
</svg>
