<?xml version="1.0" encoding="UTF-8"?>

<!--
  - Copyright (c) 2023. Compose Cupertino project and open source contributors.
  -
  -  Licensed under the Apache License, Version 2.0 (the "License");
  -  you may not use this file except in compliance with the License.
  -  You may obtain a copy of the License at
  -
  -      http://www.apache.org/licenses/LICENSE-2.0
  -
  -  Unless required by applicable law or agreed to in writing, software
  -  distributed under the License is distributed on an "AS IS" BASIS,
  -  WITHOUT WARRANTIES OR CONDITIONS OF ANY KIND, either express or implied.
  -  See the License for the specific language governing permissions and
  -  limitations under the License.
  -
  -->

<svg version="1.1" xmlns="http://www.w3.org/2000/svg" xmlns:xlink="http://www.w3.org/1999/xlink" width="23.9062" height="23.918">
 <g>
  <path d="M11.9531 23.9062C18.4922 23.9062 23.9062 18.4922 23.9062 11.9531C23.9062 5.42578 18.4805 0 11.9414 0C5.41406 0 0 5.42578 0 11.9531C0 18.4922 5.42578 23.9062 11.9531 23.9062Z M12.0117 18.7031C8.56641 18.7031 5.83594 16.3945 5.25 13.0312L3.97266 13.0312C3.39844 13.0312 3.29297 12.4922 3.59766 12.0586L5.53125 9.32812C5.88281 8.85938 6.44531 8.88281 6.76172 9.32812L8.73047 12.0586C9.03516 12.4922 8.91797 13.0312 8.34375 13.0312L7.07812 13.0312C7.61719 15.1641 9.60938 16.7812 12.0117 16.7812C13.1836 16.7812 14.0508 16.418 14.918 15.75C15.3984 15.3867 15.9492 15.3164 16.3711 15.7734C16.8047 16.2188 16.6641 16.8516 16.0781 17.3086C15.0352 18.1758 13.5234 18.7031 12.0117 18.7031ZM11.9883 5.15625C15.4336 5.15625 18.1523 7.46484 18.75 10.8281L19.957 10.8281C20.5312 10.8281 20.6367 11.3672 20.332 11.8008L18.3984 14.5195C18.0469 15 17.4844 14.9648 17.1562 14.5195L15.1992 11.8008C14.8945 11.3672 15.0117 10.8281 15.5742 10.8281L16.9219 10.8281C16.3828 8.68359 14.3906 7.06641 11.9883 7.06641C10.8164 7.06641 9.94922 7.44141 9.08203 8.10938C8.60156 8.46094 8.03906 8.54297 7.62891 8.08594C7.20703 7.64062 7.33594 7.00781 7.92188 6.53906C8.96484 5.68359 10.4766 5.15625 11.9883 5.15625Z"/>
 </g>
</svg>
