<?xml version="1.0" encoding="UTF-8"?>

<!--
  - Copyright (c) 2023. Compose Cupertino project and open source contributors.
  -
  -  Licensed under the Apache License, Version 2.0 (the "License");
  -  you may not use this file except in compliance with the License.
  -  You may obtain a copy of the License at
  -
  -      http://www.apache.org/licenses/LICENSE-2.0
  -
  -  Unless required by applicable law or agreed to in writing, software
  -  distributed under the License is distributed on an "AS IS" BASIS,
  -  WITHOUT WARRANTIES OR CONDITIONS OF ANY KIND, either express or implied.
  -  See the License for the specific language governing permissions and
  -  limitations under the License.
  -
  -->

<svg version="1.1" xmlns="http://www.w3.org/2000/svg" xmlns:xlink="http://www.w3.org/1999/xlink" width="19.7109" height="25.1367">
  <path d="M3.63281 25.125L16.0781 25.125C18.5039 25.125 19.7109 23.8945 19.7109 21.457L19.7109 10.8164L11.2266 10.8164C9.72656 10.8164 9.01172 10.1016 9.01172 8.60156L9.01172 0L3.63281 0C1.21875 0 0 1.24219 0 3.67969L0 21.457C0 23.9062 1.20703 25.125 3.63281 25.125ZM11.2617 9.21094L19.5703 9.21094C19.5 8.73047 19.1602 8.26172 18.5977 7.6875L12.1406 1.11328C11.5898 0.550781 11.1094 0.210938 10.6172 0.128906L10.6172 8.57812C10.6172 9 10.8281 9.21094 11.2617 9.21094Z M9.85547 22.0781C9.38672 22.0781 9 21.7031 9 21.2461L9 17.0977L9.07031 15.2461L8.08594 16.2539L7.06641 17.2969C6.90234 17.4609 6.66797 17.5547 6.45703 17.5547C5.98828 17.5547 5.66016 17.2266 5.66016 16.7812C5.66016 16.5234 5.76562 16.3242 5.94141 16.1719L9.22266 13.1484C9.45703 12.9375 9.64453 12.8555 9.85547 12.8555C10.0664 12.8555 10.2539 12.9375 10.4883 13.1484L13.7695 16.1719C13.9453 16.3242 14.0508 16.5234 14.0508 16.7812C14.0508 17.2266 13.7109 17.5547 13.2539 17.5547C13.0312 17.5547 12.8086 17.4609 12.6445 17.2969L11.625 16.2539L10.6406 15.2461L10.7227 17.0977L10.7227 21.2461C10.7227 21.7031 10.3242 22.0781 9.85547 22.0781Z"/>
</svg>
