<?xml version="1.0" encoding="UTF-8"?>

<!--
  - Copyright (c) 2023. Compose Cupertino project and open source contributors.
  -
  -  Licensed under the Apache License, Version 2.0 (the "License");
  -  you may not use this file except in compliance with the License.
  -  You may obtain a copy of the License at
  -
  -      http://www.apache.org/licenses/LICENSE-2.0
  -
  -  Unless required by applicable law or agreed to in writing, software
  -  distributed under the License is distributed on an "AS IS" BASIS,
  -  WITHOUT WARRANTIES OR CONDITIONS OF ANY KIND, either express or implied.
  -  See the License for the specific language governing permissions and
  -  limitations under the License.
  -
  -->

<svg version="1.1" xmlns="http://www.w3.org/2000/svg" xmlns:xlink="http://www.w3.org/1999/xlink" width="23.9062" height="23.918">
  <path d="M11.9531 23.918C18.4922 23.918 23.9062 18.5039 23.9062 11.9648C23.9062 5.4375 18.4805 0.0117188 11.9414 0.0117188C5.41406 0.0117188 0 5.4375 0 11.9648C0 18.5039 5.42578 23.918 11.9531 23.918Z M6.5625 12.5156C6.5625 9.55078 9 7.23047 11.7188 7.23047C11.8242 7.23047 11.9531 7.24219 12.0469 7.25391L11.2031 6.38672C11.0742 6.24609 10.9805 6.03516 10.9805 5.82422C10.9805 5.39062 11.3086 5.05078 11.7539 5.05078C11.9648 5.05078 12.1758 5.14453 12.3047 5.29688L14.625 7.65234C14.9062 7.95703 14.9297 8.48438 14.625 8.77734L12.2812 11.1211C12.1523 11.25 11.9531 11.3555 11.7539 11.3555C11.3203 11.3555 10.9805 11.0156 10.9805 10.582C10.9805 10.3711 11.0742 10.1719 11.2148 10.0312L12.3867 8.87109C12.2695 8.84766 12.1055 8.83594 11.9531 8.83594C9.89062 8.83594 8.23828 10.5 8.23828 12.5625C8.23828 14.6367 9.89062 16.3008 11.9531 16.3008C14.0156 16.3008 15.668 14.6367 15.668 12.5625C15.668 12.1055 16.0547 11.7305 16.5117 11.7305C16.957 11.7305 17.3438 12.1055 17.3438 12.5625C17.3438 15.5391 14.9414 17.9648 11.9531 17.9648C8.96484 17.9648 6.5625 15.5391 6.5625 12.5156Z"/>
</svg>
