<?xml version="1.0" encoding="UTF-8"?>

<!--
  - Copyright (c) 2023. Compose Cupertino project and open source contributors.
  -
  -  Licensed under the Apache License, Version 2.0 (the "License");
  -  you may not use this file except in compliance with the License.
  -  You may obtain a copy of the License at
  -
  -      http://www.apache.org/licenses/LICENSE-2.0
  -
  -  Unless required by applicable law or agreed to in writing, software
  -  distributed under the License is distributed on an "AS IS" BASIS,
  -  WITHOUT WARRANTIES OR CONDITIONS OF ANY KIND, either express or implied.
  -  See the License for the specific language governing permissions and
  -  limitations under the License.
  -
  -->

<svg version="1.1" xmlns="http://www.w3.org/2000/svg" xmlns:xlink="http://www.w3.org/1999/xlink" width="23.9062" height="23.918">
  <path d="M11.9531 23.9062C18.4922 23.9062 23.9062 18.4805 23.9062 11.9531C23.9062 5.41406 18.4805 0 11.9414 0C5.41406 0 0 5.41406 0 11.9531C0 18.4805 5.42578 23.9062 11.9531 23.9062Z M11.9648 5.80078C12.5039 5.80078 12.8789 6.17578 12.8789 6.71484L12.8789 12.7266L12.7734 15.3047L14.0039 13.8398L15.4219 12.3984C15.5859 12.2109 15.8086 12.1289 16.0664 12.1289C16.5703 12.1289 16.957 12.5039 16.957 13.0078C16.957 13.2656 16.8633 13.4766 16.6992 13.6406L12.6797 17.6484C12.4453 17.8828 12.2344 18 11.9648 18C11.707 18 11.5078 17.8945 11.2617 17.6484L7.23047 13.6406C7.06641 13.4766 6.99609 13.2656 6.99609 13.0078C6.99609 12.5039 7.37109 12.1289 7.875 12.1289C8.12109 12.1289 8.35547 12.2227 8.51953 12.3984L9.94922 13.8398L11.1562 15.293L11.0508 12.7266L11.0508 6.71484C11.0508 6.17578 11.4375 5.80078 11.9648 5.80078Z"/>
</svg>
