<?xml version="1.0" encoding="UTF-8"?>

<!--
  - Copyright (c) 2023. Compose Cupertino project and open source contributors.
  -
  -  Licensed under the Apache License, Version 2.0 (the "License");
  -  you may not use this file except in compliance with the License.
  -  You may obtain a copy of the License at
  -
  -      http://www.apache.org/licenses/LICENSE-2.0
  -
  -  Unless required by applicable law or agreed to in writing, software
  -  distributed under the License is distributed on an "AS IS" BASIS,
  -  WITHOUT WARRANTIES OR CONDITIONS OF ANY KIND, either express or implied.
  -  See the License for the specific language governing permissions and
  -  limitations under the License.
  -
  -->

<svg version="1.1" xmlns="http://www.w3.org/2000/svg" xmlns:xlink="http://www.w3.org/1999/xlink" width="31.793" height="24.832">
 <g>
  <path d="M19.9219 24.8086L28.6055 24.8086C30.5156 24.8086 31.793 23.5898 31.793 21.7617L31.793 3.04688C31.793 1.21875 30.5156 0 28.6055 0L19.9219 0C18.0117 0 16.7227 1.21875 16.7227 3.04688L16.7227 21.7617C16.7227 23.5898 18.0117 24.8086 19.9219 24.8086Z" fill="#000000"/>
  <path d="M1.04297 22.0195C1.65234 22.0195 2.08594 21.5977 2.08594 20.9883L2.08594 19.207C2.08594 14.8477 4.74609 13.4414 8.15625 13.4414L8.92969 13.4414L12.1758 13.3359L12.1758 12.6797L8.98828 15.5859L7.69922 16.6875C7.42969 16.9102 7.35938 17.2031 7.35938 17.4844C7.35938 18.0586 7.80469 18.4922 8.37891 18.4922C8.66016 18.4922 8.90625 18.3867 9.16406 18.1406L14.1211 13.1953C14.3555 12.9727 14.4844 12.7031 14.4844 12.4102C14.4844 12.1172 14.3555 11.8477 14.1211 11.625L9.14062 6.65625C8.90625 6.42188 8.66016 6.32812 8.37891 6.32812C7.80469 6.32812 7.35938 6.75 7.35938 7.33594C7.35938 7.61719 7.42969 7.91016 7.69922 8.13281L8.98828 9.23438L12.1758 12.1406L12.1758 11.4844L8.92969 11.3789L8.15625 11.3789C3.99609 11.3789 0 13.2891 0 19.207L0 20.9883C0 21.5977 0.433594 22.0195 1.04297 22.0195Z" fill="#000000"/>
 </g>
</svg>
