<?xml version="1.0" encoding="UTF-8"?>

<!--
  - Copyright (c) 2023. Compose Cupertino project and open source contributors.
  -
  -  Licensed under the Apache License, Version 2.0 (the "License");
  -  you may not use this file except in compliance with the License.
  -  You may obtain a copy of the License at
  -
  -      http://www.apache.org/licenses/LICENSE-2.0
  -
  -  Unless required by applicable law or agreed to in writing, software
  -  distributed under the License is distributed on an "AS IS" BASIS,
  -  WITHOUT WARRANTIES OR CONDITIONS OF ANY KIND, either express or implied.
  -  See the License for the specific language governing permissions and
  -  limitations under the License.
  -
  -->

<svg version="1.1" xmlns="http://www.w3.org/2000/svg" xmlns:xlink="http://www.w3.org/1999/xlink" width="25.2656" height="21.5039">
  <path d="M11.4492 21.4922C12.2461 21.4922 12.8203 20.9062 12.8203 20.1211L12.8203 15.6445L13.1602 15.6445C17.707 15.6445 20.5664 16.793 22.6172 20.625C23.0273 21.375 23.5664 21.4922 24.0586 21.4922C24.6797 21.4922 25.2656 20.9297 25.2656 19.9219C25.2656 11.2617 21.5977 5.85938 13.1602 5.85938L12.8203 5.85938L12.8203 1.42969C12.8203 0.644531 12.2461 0 11.4258 0C10.8516 0 10.4648 0.246094 9.84375 0.832031L0.597656 9.48047C0.140625 9.91406 0 10.3477 0 10.7461C0 11.1328 0.152344 11.5781 0.597656 12L9.84375 20.7305C10.4062 21.2578 10.875 21.4922 11.4492 21.4922Z" fill="#000000"/>
</svg>
