<?xml version="1.0" encoding="UTF-8"?>

<!--
  - Copyright (c) 2023. Compose Cupertino project and open source contributors.
  -
  -  Licensed under the Apache License, Version 2.0 (the "License");
  -  you may not use this file except in compliance with the License.
  -  You may obtain a copy of the License at
  -
  -      http://www.apache.org/licenses/LICENSE-2.0
  -
  -  Unless required by applicable law or agreed to in writing, software
  -  distributed under the License is distributed on an "AS IS" BASIS,
  -  WITHOUT WARRANTIES OR CONDITIONS OF ANY KIND, either express or implied.
  -  See the License for the specific language governing permissions and
  -  limitations under the License.
  -
  -->

<svg version="1.1" xmlns="http://www.w3.org/2000/svg" xmlns:xlink="http://www.w3.org/1999/xlink" width="28.7812" height="23.0977">
 <g>
  <path d="M3.67969 22.3477L25.1016 22.3477C27.5391 22.3477 28.7812 21.1289 28.7812 18.7148L28.7812 6.44531C28.7812 4.03125 27.5391 2.82422 25.1016 2.82422L21.75 2.82422C20.8242 2.82422 20.543 2.63672 20.0156 2.05078L19.0781 0.996094C18.4922 0.351562 17.8945 0 16.6875 0L12.0117 0C10.8047 0 10.207 0.351562 9.62109 0.996094L8.68359 2.05078C8.15625 2.625 7.86328 2.82422 6.94922 2.82422L3.67969 2.82422C1.23047 2.82422 0 4.03125 0 6.44531L0 18.7148C0 21.1289 1.23047 22.3477 3.67969 22.3477Z M6.25781 12.0117L8.13281 9.375C8.47266 8.90625 9.01172 8.94141 9.31641 9.375L11.2266 12.0117C11.5312 12.4336 11.4023 12.9492 10.8516 12.9492L9.62109 12.9492C10.1484 15.0352 12.082 16.6055 14.4141 16.6055C15.5508 16.6055 16.3945 16.2422 17.2383 15.5742C17.707 15.2344 18.2344 15.1641 18.6445 15.6094C19.0664 16.043 18.9258 16.6641 18.3633 17.0977C17.3438 17.9414 15.8789 18.4453 14.4141 18.4453C11.0742 18.4453 8.4375 16.207 7.86328 12.9492L6.62109 12.9492C6.07031 12.9492 5.96484 12.4336 6.25781 12.0117ZM10.1602 8.15625C9.73828 7.72266 9.87891 7.11328 10.4414 6.67969C11.4609 5.83594 12.9258 5.32031 14.3906 5.32031C17.7305 5.32031 20.3672 7.55859 20.9414 10.8164L22.1133 10.8164C22.6641 10.8164 22.7695 11.332 22.4766 11.7539L20.6016 14.4023C20.2617 14.8711 19.7227 14.8359 19.4062 14.4023L17.5078 11.7539C17.2031 11.3438 17.332 10.8164 17.8711 10.8164L19.1836 10.8164C18.6562 8.74219 16.7227 7.17188 14.3906 7.17188C13.2539 7.17188 12.3984 7.51172 11.5664 8.19141C11.0977 8.54297 10.582 8.60156 10.1602 8.15625Z"/>
 </g>
</svg>
