<?xml version="1.0" encoding="UTF-8"?>

<!--
  - Copyright (c) 2023. Compose Cupertino project and open source contributors.
  -
  -  Licensed under the Apache License, Version 2.0 (the "License");
  -  you may not use this file except in compliance with the License.
  -  You may obtain a copy of the License at
  -
  -      http://www.apache.org/licenses/LICENSE-2.0
  -
  -  Unless required by applicable law or agreed to in writing, software
  -  distributed under the License is distributed on an "AS IS" BASIS,
  -  WITHOUT WARRANTIES OR CONDITIONS OF ANY KIND, either express or implied.
  -  See the License for the specific language governing permissions and
  -  limitations under the License.
  -
  -->

<svg version="1.1" xmlns="http://www.w3.org/2000/svg" xmlns:xlink="http://www.w3.org/1999/xlink" width="23.9062" height="23.918">
  <path d="M11.9531 23.918C18.4922 23.918 23.9062 18.5039 23.9062 11.9648C23.9062 5.4375 18.4805 0.0117188 11.9414 0.0117188C5.41406 0.0117188 0 5.4375 0 11.9648C0 18.5039 5.42578 23.918 11.9531 23.918Z M17.3438 12.5273C17.3438 15.5508 14.9414 17.9766 11.9531 17.9766C8.96484 17.9766 6.5625 15.5508 6.5625 12.5742C6.5625 12.1172 6.94922 11.7422 7.39453 11.7422C7.86328 11.7422 8.23828 12.1172 8.23828 12.5742C8.23828 14.6367 9.89062 16.3008 11.9531 16.3008C14.0273 16.3008 15.668 14.6367 15.668 12.5742C15.668 10.5 14.0273 8.84766 11.9531 8.84766C11.8008 8.84766 11.6484 8.85938 11.5312 8.88281L12.6914 10.0312C12.832 10.1836 12.9258 10.3711 12.9258 10.582C12.9258 11.0156 12.5977 11.3555 12.1523 11.3555C11.9648 11.3555 11.7539 11.25 11.625 11.1211L9.28125 8.78906C8.98828 8.49609 9 7.95703 9.28125 7.66406L11.6016 5.30859C11.7422 5.15625 11.9414 5.05078 12.1523 5.05078C12.5977 5.05078 12.9258 5.40234 12.9258 5.83594C12.9258 6.04688 12.832 6.25781 12.7148 6.38672L11.8711 7.25391C11.9531 7.24219 12.082 7.23047 12.1875 7.23047C14.9062 7.23047 17.3438 9.5625 17.3438 12.5273Z"/>
</svg>
