<?xml version="1.0" encoding="UTF-8"?>

<!--
  - Copyright (c) 2023. Compose Cupertino project and open source contributors.
  -
  -  Licensed under the Apache License, Version 2.0 (the "License");
  -  you may not use this file except in compliance with the License.
  -  You may obtain a copy of the License at
  -
  -      http://www.apache.org/licenses/LICENSE-2.0
  -
  -  Unless required by applicable law or agreed to in writing, software
  -  distributed under the License is distributed on an "AS IS" BASIS,
  -  WITHOUT WARRANTIES OR CONDITIONS OF ANY KIND, either express or implied.
  -  See the License for the specific language governing permissions and
  -  limitations under the License.
  -
  -->

<svg version="1.1" xmlns="http://www.w3.org/2000/svg" xmlns:xlink="http://www.w3.org/1999/xlink" width="24.0715" height="24.0914">
  <path d="M1.76921 22.3055C4.18327 24.7547 7.51139 24.6609 10.2653 22.1062L12.2926 20.2078C11.2731 20.5008 10.2419 20.3015 9.09343 19.1648L4.8278 14.8875C3.67936 13.7508 3.57389 12.8015 3.86686 11.782L1.96843 13.8094C-0.597981 16.575-0.644856 19.868 1.76921 22.3055ZM10.195 17.9695C11.3669 19.1414 12.5036 19.1765 13.6989 17.9695L17.9645 13.6922C19.1833 12.4851 19.1598 11.3719 17.988 10.2L13.8747 6.0867C12.7028 4.91483 11.5895 4.89139 10.3825 6.11014L6.10514 10.3758C4.90983 11.5828 4.93327 12.7078 6.10514 13.8797ZM8.78874 12.825C8.34343 12.3797 8.34343 11.7 8.78874 11.2547C9.23405 10.8094 9.91374 10.8211 10.3591 11.2664C10.7692 11.6883 10.7809 12.3797 10.3591 12.8015C9.8903 13.2703 9.21061 13.2469 8.78874 12.825ZM11.2731 10.3523C10.8278 9.90702 10.8278 9.21561 11.2497 8.78202C11.695 8.3367 12.3747 8.3367 12.82 8.78202C13.2536 9.21561 13.2653 9.8953 12.8083 10.3523C12.3864 10.7625 11.6833 10.7625 11.2731 10.3523ZM15.2926 12.825C14.8591 13.2469 14.1676 13.2469 13.7223 12.8015C13.3122 12.3914 13.3122 11.6883 13.7223 11.2664C14.1794 10.8094 14.8591 10.8211 15.2926 11.2547C15.738 11.7 15.738 12.3797 15.2926 12.825ZM11.2497 15.2859C10.8278 14.864 10.8044 14.1844 11.2731 13.7273C11.695 13.2937 12.3864 13.3055 12.8083 13.7273C13.2536 14.1609 13.2653 14.864 12.82 15.2859C12.363 15.7312 11.695 15.7312 11.2497 15.2859ZM20.2145 12.3211L22.1012 10.2703C24.6559 7.49295 24.7262 4.2117 22.3122 1.7742C19.8864-0.675015 16.57-0.569546 13.8044 1.97342L11.7653 3.86014C12.7731 3.56717 13.863 3.80155 15.0114 4.94999L19.277 9.21561C20.4255 10.3523 20.5075 11.3015 20.2145 12.3211Z" fill="#000000"/>
</svg>
