<?xml version="1.0" encoding="UTF-8"?>

<!--
  - Copyright (c) 2023. Compose Cupertino project and open source contributors.
  -
  -  Licensed under the Apache License, Version 2.0 (the "License");
  -  you may not use this file except in compliance with the License.
  -  You may obtain a copy of the License at
  -
  -      http://www.apache.org/licenses/LICENSE-2.0
  -
  -  Unless required by applicable law or agreed to in writing, software
  -  distributed under the License is distributed on an "AS IS" BASIS,
  -  WITHOUT WARRANTIES OR CONDITIONS OF ANY KIND, either express or implied.
  -  See the License for the specific language governing permissions and
  -  limitations under the License.
  -
  -->

<svg version="1.1" xmlns="http://www.w3.org/2000/svg" xmlns:xlink="http://www.w3.org/1999/xlink" width="23.9062" height="23.918">
  <path d="M0 11.9531C0 17.4844 3.87891 22.2188 9.03516 23.5312C9.39844 22.5469 9.63281 21.4805 9.70312 20.4141L9.21094 20.3906C8.90625 20.3789 8.66016 20.1328 8.66016 19.8281C8.67188 19.5234 8.91797 19.2773 9.23438 19.2891L9.72656 19.3125C9.71484 18.6797 9.64453 18.0586 9.52734 17.4258L9.03516 17.5547C8.73047 17.625 8.4375 17.4375 8.35547 17.1445C8.28516 16.8516 8.46094 16.5469 8.75391 16.4766L9.24609 16.3477C9.05859 15.7383 8.82422 15.1289 8.51953 14.543L8.13281 14.7539C7.85156 14.8945 7.54688 14.8008 7.39453 14.5312C7.21875 14.2734 7.3125 13.9219 7.58203 13.7695L7.95703 13.5703C7.58203 12.9961 7.16016 12.457 6.69141 11.9766L6.42188 12.2695C6.1875 12.4922 5.87109 12.4805 5.63672 12.2578C5.42578 12.0586 5.40234 11.707 5.625 11.4844L5.89453 11.2031C5.44922 10.8047 4.96875 10.4766 4.46484 10.1602L4.20703 10.6641C4.05469 10.9453 3.73828 11.0273 3.46875 10.875C3.1875 10.7344 3.09375 10.3945 3.24609 10.1133L3.50391 9.62109C2.55469 9.15234 1.51172 8.82422 0.480469 8.64844C0.164062 9.70312 0 10.8047 0 11.9531ZM11.9531 23.9062C16.9219 23.9062 21.2578 20.7656 23.0273 16.3945C21.9023 16.1953 20.8008 15.8203 19.7695 15.3281L19.5 15.8203C19.3711 16.1016 19.0078 16.1836 18.75 16.043C18.4922 15.8906 18.3867 15.5508 18.5508 15.2812L18.8086 14.8125C18.1641 14.4258 17.5547 14.0039 16.9805 13.5117L16.6055 13.8867C16.3945 14.1094 16.0547 14.0977 15.8438 13.8867C15.6094 13.6758 15.5977 13.3242 15.8203 13.125L16.1953 12.7383C15.668 12.1992 15.1992 11.5898 14.7656 10.9219L14.2266 11.2266C13.957 11.4023 13.6172 11.2734 13.5 11.0273C13.3477 10.7578 13.418 10.418 13.6875 10.2773L14.2148 9.97266C13.8398 9.25781 13.5469 8.51953 13.3359 7.76953L12.6914 7.92188C12.3867 8.00391 12.0938 7.83984 12.0469 7.53516C11.9531 7.24219 12.0938 6.9375 12.4102 6.85547L13.0781 6.69141C12.9375 6 12.8672 5.28516 12.8555 4.58203L12.3281 4.55859C12.0117 4.55859 11.7773 4.32422 11.8008 4.01953C11.8008 3.70312 12.0352 3.45703 12.3516 3.44531L12.8789 3.46875C12.9844 2.32031 13.1953 1.18359 13.6055 0.117188C13.0547 0.046875 12.5039 0 11.9414 0C6.97266 0 2.67188 3.12891 0.878906 7.48828C1.99219 7.69922 3.08203 8.02734 4.10156 8.54297L4.35938 8.08594C4.5 7.80469 4.83984 7.73438 5.12109 7.89844C5.39062 8.02734 5.47266 8.35547 5.32031 8.625L5.07422 9.07031C5.67188 9.43359 6.24609 9.83203 6.78516 10.3008L7.25391 9.82031C7.47656 9.59766 7.81641 9.62109 8.03906 9.85547C8.23828 10.0664 8.27344 10.3828 8.03906 10.6172L7.58203 11.0742C8.13281 11.6484 8.63672 12.2578 9.07031 12.9375L9.60938 12.6445C9.87891 12.4805 10.207 12.5977 10.3594 12.8555C10.5117 13.1133 10.4414 13.4531 10.1484 13.6055L9.62109 13.8984C9.98438 14.5898 10.2656 15.3047 10.4883 16.0195L10.9922 15.8906C11.3086 15.8086 11.5898 15.9844 11.6719 16.2891C11.7539 16.582 11.5781 16.8867 11.2852 16.9688L10.7578 17.1094C10.8984 17.8477 10.9688 18.5859 10.9805 19.3242L11.543 19.3477C11.8477 19.3594 12.0938 19.6055 12.082 19.8984C12.082 20.2031 11.8359 20.4609 11.5195 20.4492L10.9453 20.4258C10.8633 21.5742 10.6289 22.6992 10.2305 23.7773C10.7812 23.8594 11.3672 23.9062 11.9531 23.9062ZM23.9062 11.9531C23.9062 6.39844 19.9805 1.65234 14.7891 0.351562C14.4375 1.34766 14.1914 2.42578 14.1211 3.49219L14.6602 3.51562C14.9648 3.52734 15.2109 3.78516 15.1992 4.08984C15.1992 4.40625 14.9648 4.62891 14.6484 4.61719L14.1094 4.59375C14.1211 5.17969 14.1797 5.77734 14.2969 6.36328L14.6602 6.28125C14.9648 6.19922 15.2344 6.375 15.3164 6.67969C15.3867 6.97266 15.2461 7.26562 14.9414 7.34766L14.5664 7.42969C14.7656 8.07422 15.0117 8.70703 15.3281 9.32812L15.7148 9.11719C15.9844 8.95312 16.3125 9.07031 16.4531 9.32812C16.6055 9.62109 16.5234 9.92578 16.2539 10.0781L15.8672 10.2891C16.2422 10.8516 16.6406 11.3672 17.0742 11.8359L17.4492 11.4609C17.6719 11.2383 18.0234 11.25 18.2344 11.4492C18.457 11.6602 18.4688 12.0117 18.2461 12.2578L17.8828 12.6211C18.3633 13.043 18.8672 13.418 19.418 13.7344L19.6641 13.2539C19.793 12.9844 20.1328 12.8906 20.4023 13.0312C20.6719 13.1953 20.7773 13.5234 20.625 13.8047L20.3789 14.2734C21.3398 14.7422 22.3711 15.0586 23.4375 15.2227C23.7422 14.1797 23.9062 13.0898 23.9062 11.9531Z" fill="#000000"/>
</svg>
