<?xml version="1.0" encoding="UTF-8"?>

<!--
  - Copyright (c) 2023. Compose Cupertino project and open source contributors.
  -
  -  Licensed under the Apache License, Version 2.0 (the "License");
  -  you may not use this file except in compliance with the License.
  -  You may obtain a copy of the License at
  -
  -      http://www.apache.org/licenses/LICENSE-2.0
  -
  -  Unless required by applicable law or agreed to in writing, software
  -  distributed under the License is distributed on an "AS IS" BASIS,
  -  WITHOUT WARRANTIES OR CONDITIONS OF ANY KIND, either express or implied.
  -  See the License for the specific language governing permissions and
  -  limitations under the License.
  -
  -->

<svg version="1.1" xmlns="http://www.w3.org/2000/svg" xmlns:xlink="http://www.w3.org/1999/xlink" width="23.9062" height="23.8945">
  <path d="M0.0117188 11.8008C1.04297 10.3828 2.34375 9.07031 3.76172 7.99219C3.75 7.94531 3.75 7.88672 3.73828 7.82812C3.69141 6.97266 3.14062 5.30859 2.14453 5.16797C0.867188 6.99609 0.0820312 9.1875 0 11.543C0 11.6367 0 11.7188 0.0117188 11.8008ZM4.99219 7.125C5.36719 6.87891 5.75391 6.64453 6.14062 6.43359C5.89453 4.3125 5.98828 2.58984 6.35156 1.40625C5.05078 2.10938 3.90234 3.03516 2.92969 4.13672C4.10156 4.45312 4.75781 5.95312 4.99219 7.125ZM7.38281 5.8125C7.95703 5.54297 8.55469 5.30859 9.16406 5.10938C9.14062 4.86328 9.11719 4.62891 9.11719 4.38281C9.11719 2.50781 10.125 0.949219 11.6953 0C11.6133 0 11.5547 0 11.4727 0C10.1602 0.046875 8.88281 0.316406 7.71094 0.773438C7.39453 1.81641 7.16016 3.48047 7.38281 5.8125ZM10.4883 4.71094C11.9531 4.33594 13.4883 4.13672 15.082 4.13672C17.4609 4.13672 19.8281 4.60547 21.9492 5.47266C20.25 2.85938 17.5664 0.9375 14.4375 0.257812C11.9648 0.972656 10.4062 2.29688 10.4648 4.38281C10.4648 4.48828 10.4766 4.60547 10.4883 4.71094ZM3.73828 9.73828C2.39062 10.9336 1.13672 12.3633 0.164062 13.9219C0.621094 16.5938 2.00391 18.9961 3.96094 20.7773C2.54297 17.4492 3.5625 13.3008 3.73828 9.73828ZM5.12109 8.64844C5.15625 14.0039 2.74219 20.1445 7.92188 23.1211C9.16406 23.6133 10.5352 23.8945 11.9531 23.8945C12.6094 23.8945 13.2539 23.8477 13.875 23.7422C9.39844 18.2812 7.14844 12.3984 6.35156 7.85156C5.92969 8.09766 5.51953 8.35547 5.12109 8.64844ZM9.52734 6.38672C8.85938 6.62109 8.19141 6.89062 7.55859 7.20703C8.27344 11.625 10.5234 17.7305 15.3398 23.3906C17.8945 22.6289 20.1094 21.0117 21.6445 18.8672C21.4688 13.1016 11.6602 11.3789 9.52734 6.38672ZM22.6992 17.1211C23.4727 15.5391 23.9062 13.793 23.9062 11.9414C23.9062 10.3477 23.5898 8.8125 22.9922 7.42969C20.4961 6.12891 17.918 5.48438 15.082 5.48438C13.6172 5.48438 12.1992 5.66016 10.8516 6C12.7148 9.85547 20.9648 11.5898 22.6992 17.1211Z" fill="#000000"/>
</svg>
