<?xml version="1.0" encoding="UTF-8"?>

<!--
  - Copyright (c) 2023. Compose Cupertino project and open source contributors.
  -
  -  Licensed under the Apache License, Version 2.0 (the "License");
  -  you may not use this file except in compliance with the License.
  -  You may obtain a copy of the License at
  -
  -      http://www.apache.org/licenses/LICENSE-2.0
  -
  -  Unless required by applicable law or agreed to in writing, software
  -  distributed under the License is distributed on an "AS IS" BASIS,
  -  WITHOUT WARRANTIES OR CONDITIONS OF ANY KIND, either express or implied.
  -  See the License for the specific language governing permissions and
  -  limitations under the License.
  -
  -->

<svg version="1.1" xmlns="http://www.w3.org/2000/svg" xmlns:xlink="http://www.w3.org/1999/xlink" width="27.4453" height="26.1689">
  <path d="M0 10.4536C0 11.5669 0.679688 12.2466 1.79297 12.2466L25.6406 12.2466C26.7539 12.2466 27.4453 11.5669 27.4453 10.4536L27.4453 9.87939C27.4453 8.77783 26.7539 8.07471 25.6406 8.07471L1.79297 8.07471C0.679688 8.07471 0 8.77783 0 9.87939ZM7.45312 25.1138L19.9922 25.1138C22.6992 25.1138 23.543 23.5317 23.8828 21.8325L25.5117 13.852L1.94531 13.852L3.5625 21.8325C3.90234 23.5317 4.74609 25.1138 7.45312 25.1138ZM8.21484 23.0981C7.76953 23.1685 7.44141 22.9341 7.37109 22.5356L6.36328 16.6411C6.29297 16.2427 6.55078 15.9263 6.99609 15.8442C7.44141 15.7856 7.78125 16.0083 7.85156 16.4067L8.84766 22.3013C8.90625 22.6997 8.67188 23.0161 8.21484 23.0981ZM11.9297 23.0864C11.4844 23.1099 11.1562 22.8403 11.1328 22.4302L10.7461 16.606C10.7227 16.1958 11.0156 15.9028 11.4492 15.8677C11.9062 15.8325 12.2109 16.1138 12.2461 16.5239L12.6328 22.3481C12.6562 22.7583 12.3633 23.063 11.9297 23.0864ZM15.5391 23.0864C15.0938 23.063 14.8008 22.7583 14.8242 22.3481L15.2109 16.5239C15.2461 16.1138 15.5508 15.8325 16.0078 15.8677C16.4414 15.9028 16.7344 16.1958 16.7109 16.606L16.3242 22.4302C16.3008 22.8403 15.9727 23.1099 15.5391 23.0864ZM19.2305 23.0981C18.7734 23.0161 18.5391 22.6997 18.5977 22.3013L19.5938 16.4067C19.6641 16.0083 20.0039 15.7856 20.4492 15.8442C20.8945 15.9263 21.1523 16.2661 21.082 16.6645L20.0742 22.5356C20.0039 22.9341 19.6641 23.1685 19.2305 23.0981ZM3.77344 8.57861L6.11719 8.57861L10.2422 1.41846C10.5586 0.855956 10.3008 0.363768 9.86719 0.129393C9.44531-0.0932631 8.88281-0.0581069 8.56641 0.469237ZM21.3281 8.57861L23.6719 8.57861L18.8789 0.469237C18.5742-0.0463881 18.0117-0.0815444 17.5781 0.129393C17.1562 0.363768 16.8867 0.855956 17.2031 1.41846Z" fill="#000000"/>
</svg>
