<?xml version="1.0" encoding="UTF-8"?>

<!--
  - Copyright (c) 2023. Compose Cupertino project and open source contributors.
  -
  -  Licensed under the Apache License, Version 2.0 (the "License");
  -  you may not use this file except in compliance with the License.
  -  You may obtain a copy of the License at
  -
  -      http://www.apache.org/licenses/LICENSE-2.0
  -
  -  Unless required by applicable law or agreed to in writing, software
  -  distributed under the License is distributed on an "AS IS" BASIS,
  -  WITHOUT WARRANTIES OR CONDITIONS OF ANY KIND, either express or implied.
  -  See the License for the specific language governing permissions and
  -  limitations under the License.
  -
  -->

<svg version="1.1" xmlns="http://www.w3.org/2000/svg" xmlns:xlink="http://www.w3.org/1999/xlink" width="22.1133" height="24.668">
  <path d="M1.76953 19.9688L20.3438 19.9688C21.4453 19.9688 22.1133 19.4062 22.1133 18.5508C22.1133 17.3789 20.918 16.3242 19.9102 15.2812C19.1367 14.4727 18.9258 12.8086 18.832 11.4609C18.75 6.96094 17.5547 3.86719 14.4375 2.74219C13.9922 1.20703 12.7852 0 11.0508 0C9.32812 0 8.10938 1.20703 7.67578 2.74219C4.55859 3.86719 3.36328 6.96094 3.28125 11.4609C3.1875 12.8086 2.97656 14.4727 2.20312 15.2812C1.18359 16.3242 0 17.3789 0 18.5508C0 19.4062 0.65625 19.9688 1.76953 19.9688ZM11.0508 24.668C13.043 24.668 14.4961 23.2148 14.6484 21.5742L7.46484 21.5742C7.61719 23.2148 9.07031 24.668 11.0508 24.668Z" fill="#000000"/>
</svg>
