<?xml version="1.0" encoding="UTF-8"?>

<!--
  - Copyright (c) 2023. Compose Cupertino project and open source contributors.
  -
  -  Licensed under the Apache License, Version 2.0 (the "License");
  -  you may not use this file except in compliance with the License.
  -  You may obtain a copy of the License at
  -
  -      http://www.apache.org/licenses/LICENSE-2.0
  -
  -  Unless required by applicable law or agreed to in writing, software
  -  distributed under the License is distributed on an "AS IS" BASIS,
  -  WITHOUT WARRANTIES OR CONDITIONS OF ANY KIND, either express or implied.
  -  See the License for the specific language governing permissions and
  -  limitations under the License.
  -
  -->

<svg version="1.1" xmlns="http://www.w3.org/2000/svg" xmlns:xlink="http://www.w3.org/1999/xlink" width="41.8008" height="24.668">
 <g>
  <path d="M11.6133 19.9688L30.1875 19.9688C31.2891 19.9688 31.957 19.4062 31.957 18.5508C31.957 17.3789 30.7617 16.3242 29.7539 15.2812C28.9805 14.4727 28.7695 12.8086 28.6758 11.4609C28.5938 6.96094 27.3984 3.86719 24.2812 2.74219C23.8359 1.20703 22.6289 0 20.8945 0C19.1719 0 17.9531 1.20703 17.5195 2.74219C14.4023 3.86719 13.207 6.96094 13.125 11.4609C13.0312 12.8086 12.8203 14.4727 12.0469 15.2812C11.0273 16.3242 9.84375 17.3789 9.84375 18.5508C9.84375 19.4062 10.5 19.9688 11.6133 19.9688ZM20.8945 24.668C22.8867 24.668 24.3398 23.2148 24.4922 21.5742L17.3086 21.5742C17.4609 23.2148 18.9141 24.668 20.8945 24.668Z" fill="#000000"/>
  <path d="M7.80469 17.0039C8.17969 16.582 8.02734 16.0547 7.65234 15.5508C6.94922 14.6719 6.60938 13.5469 6.60938 12.3281C6.60938 11.1094 6.94922 9.97266 7.65234 9.10547C8.02734 8.60156 8.17969 8.07422 7.80469 7.65234C7.41797 7.20703 6.71484 7.20703 6.30469 7.73438C5.28516 9 4.69922 10.6055 4.69922 12.3281C4.69922 14.0508 5.28516 15.6562 6.30469 16.9219C6.71484 17.4492 7.41797 17.4375 7.80469 17.0039ZM33.9844 17.0039C34.3828 17.4375 35.0742 17.4492 35.4961 16.9219C36.5156 15.6562 37.1016 14.0508 37.1016 12.3281C37.1016 10.6055 36.5156 9 35.4961 7.73438C35.0742 7.20703 34.3828 7.20703 33.9844 7.65234C33.6211 8.07422 33.7734 8.60156 34.1484 9.10547C34.8398 9.97266 35.1914 11.1094 35.1914 12.3281C35.1914 13.5469 34.8398 14.6719 34.1484 15.5508C33.7734 16.0547 33.6211 16.582 33.9844 17.0039Z" fill="#000000"/>
  <path d="M4.52344 20.3438C4.89844 19.9219 4.78125 19.3711 4.35938 18.8906C2.78906 17.1445 1.91016 14.8477 1.91016 12.3281C1.91016 9.80859 2.78906 7.51172 4.35938 5.76562C4.78125 5.28516 4.89844 4.73438 4.52344 4.3125C4.14844 3.86719 3.49219 3.87891 3.04688 4.37109C1.10156 6.48047 0 9.29297 0 12.3281C0 15.3633 1.10156 18.1641 3.04688 20.2852C3.49219 20.7773 4.14844 20.7773 4.52344 20.3438ZM37.2773 20.3438C37.6523 20.7773 38.3086 20.7773 38.7539 20.2852C40.6992 18.1641 41.8008 15.3633 41.8008 12.3281C41.8008 9.29297 40.6992 6.48047 38.7539 4.37109C38.3086 3.87891 37.6523 3.86719 37.2773 4.3125C36.9023 4.73438 37.0195 5.28516 37.4414 5.76562C39.0117 7.51172 39.8906 9.80859 39.8906 12.3281C39.8906 14.8477 39.0117 17.1445 37.4414 18.8906C37.0195 19.3711 36.9023 19.9219 37.2773 20.3438Z" fill="#000000"/>
 </g>
</svg>
