<?xml version="1.0" encoding="UTF-8"?>

<!--
  - Copyright (c) 2023. Compose Cupertino project and open source contributors.
  -
  -  Licensed under the Apache License, Version 2.0 (the "License");
  -  you may not use this file except in compliance with the License.
  -  You may obtain a copy of the License at
  -
  -      http://www.apache.org/licenses/LICENSE-2.0
  -
  -  Unless required by applicable law or agreed to in writing, software
  -  distributed under the License is distributed on an "AS IS" BASIS,
  -  WITHOUT WARRANTIES OR CONDITIONS OF ANY KIND, either express or implied.
  -  See the License for the specific language governing permissions and
  -  limitations under the License.
  -
  -->

<svg version="1.1" xmlns="http://www.w3.org/2000/svg" xmlns:xlink="http://www.w3.org/1999/xlink" width="23.9062" height="23.918">
  <path d="M11.9531 23.918C18.4922 23.918 23.9062 18.5039 23.9062 11.9648C23.9062 5.4375 18.4805 0.0117188 11.9414 0.0117188C5.41406 0.0117188 0 5.4375 0 11.9648C0 18.5039 5.42578 23.918 11.9531 23.918Z M6.65625 16.3242C6.02344 16.3242 5.66016 15.9961 5.66016 15.5273C5.66016 14.8477 6.33984 14.2617 6.91406 13.6641C7.35938 13.1836 7.45312 12.2344 7.51172 11.4844C7.55859 8.89453 8.25 7.13672 10.0195 6.48047C10.3008 5.61328 10.9805 4.92188 11.9648 4.92188C12.9492 4.92188 13.6406 5.61328 13.9102 6.48047C15.6797 7.13672 16.3711 8.89453 16.4297 11.4844C16.4766 12.2344 16.5586 13.1836 17.0156 13.6641C17.6133 14.25 18.2695 14.8477 18.2695 15.5273C18.2695 15.9961 17.9062 16.3242 17.2852 16.3242ZM11.9648 19.125C10.8281 19.125 10.0078 18.3047 9.92578 17.3438L14.0039 17.3438C13.9336 18.3047 13.1016 19.125 11.9648 19.125Z"/>
</svg>
