<?xml version="1.0" encoding="UTF-8"?>

<!--
  - Copyright (c) 2023. Compose Cupertino project and open source contributors.
  -
  -  Licensed under the Apache License, Version 2.0 (the "License");
  -  you may not use this file except in compliance with the License.
  -  You may obtain a copy of the License at
  -
  -      http://www.apache.org/licenses/LICENSE-2.0
  -
  -  Unless required by applicable law or agreed to in writing, software
  -  distributed under the License is distributed on an "AS IS" BASIS,
  -  WITHOUT WARRANTIES OR CONDITIONS OF ANY KIND, either express or implied.
  -  See the License for the specific language governing permissions and
  -  limitations under the License.
  -
  -->

<svg version="1.1" xmlns="http://www.w3.org/2000/svg" xmlns:xlink="http://www.w3.org/1999/xlink" width="22.853" height="24.668">
 <g>
  <path d="M11.0625 24.668C13.043 24.668 14.4961 23.2148 14.6602 21.5742L7.46484 21.5742C7.61719 23.2148 9.07031 24.668 11.0625 24.668ZM1.76953 19.9688L15.9141 19.9688L3.69141 7.73438C3.43359 8.84766 3.30469 10.0781 3.28125 11.4609C3.1875 12.8086 2.98828 14.4727 2.21484 15.2812C1.19531 16.3242 0 17.3789 0 18.5508C0 19.4062 0.667969 19.9688 1.76953 19.9688ZM11.0625 0C9.32812 0 8.12109 1.20703 7.67578 2.74219C7.05469 2.95312 6.51562 3.24609 6.05859 3.62109L21.8203 19.4062C22.0195 19.1836 22.1133 18.8906 22.1133 18.5508C22.1133 17.3789 20.9297 16.3242 19.9102 15.2812C19.1367 14.4727 18.9258 12.8086 18.8438 11.4609C18.75 6.96094 17.5664 3.86719 14.4492 2.74219C14.0039 1.20703 12.7852 0 11.0625 0Z" fill="#000000"/>
  <path d="M0.257812 2.37891L21.3164 23.4023C21.668 23.7656 22.2422 23.7656 22.5938 23.4023C22.9336 23.0508 22.9453 22.4883 22.5938 22.125L1.54688 1.10156C1.19531 0.75 0.621094 0.75 0.257812 1.10156C-0.0820312 1.44141-0.0820312 2.03906 0.257812 2.37891Z" fill="#000000"/>
 </g>
</svg>
