<?xml version="1.0" encoding="UTF-8"?>

<!--
  - Copyright (c) 2023. Compose Cupertino project and open source contributors.
  -
  -  Licensed under the Apache License, Version 2.0 (the "License");
  -  you may not use this file except in compliance with the License.
  -  You may obtain a copy of the License at
  -
  -      http://www.apache.org/licenses/LICENSE-2.0
  -
  -  Unless required by applicable law or agreed to in writing, software
  -  distributed under the License is distributed on an "AS IS" BASIS,
  -  WITHOUT WARRANTIES OR CONDITIONS OF ANY KIND, either express or implied.
  -  See the License for the specific language governing permissions and
  -  limitations under the License.
  -
  -->

<svg version="1.1" xmlns="http://www.w3.org/2000/svg" xmlns:xlink="http://www.w3.org/1999/xlink" width="26.9883" height="26.6367">
  <path d="M13.5 4.52344C14.3555 4.52344 15.0352 3.76172 15.0352 2.77734C15.0352 1.76953 14.7188 1.11328 14.1562 0.457031C13.7812-0.0117188 13.2773-0.0234375 12.8906 0.386719C12.3281 1.06641 11.9648 1.73438 11.9648 2.77734C11.9648 3.76172 12.6562 4.52344 13.5 4.52344ZM12.832 9.92578L14.1328 9.92578L14.1328 3.26953L12.832 3.26953ZM5.84766 13.5469L21.1523 13.5469L21.1523 12.7266C21.1523 10.4062 19.957 9.22266 17.6016 9.22266L9.39844 9.22266C7.05469 9.22266 5.84766 10.4062 5.84766 12.7266ZM1.85156 25.8164L25.1367 25.8164L25.1367 18.6445C25.1367 16.3242 23.9414 15.1406 21.5977 15.1406L5.40234 15.1406C3.05859 15.1406 1.85156 16.3242 1.85156 18.6445ZM13.4883 20.8711C12.3281 20.8711 11.5078 22.2305 9.83203 22.2305C8.21484 22.2305 7.44141 20.8711 6.36328 20.8711C5.26172 20.8711 4.48828 22.2305 2.29688 22.2305L1.85156 22.2305L1.85156 20.6836L2.29688 20.6836C3.96094 20.6836 4.76953 19.3242 6.36328 19.3242C7.92188 19.3242 8.55469 20.6836 9.83203 20.6836C11.332 20.6836 11.8945 19.3242 13.4883 19.3242C15.082 19.3242 15.6445 20.6836 17.1562 20.6836C18.4336 20.6836 19.0547 19.3242 20.625 19.3242C22.1953 19.3242 23.0156 20.6836 24.668 20.6836L25.1367 20.6836L25.1367 22.2305L24.668 22.2305C22.4883 22.2305 21.7031 20.8711 20.625 20.8711C19.5234 20.8711 18.7617 22.2305 17.1562 22.2305C15.4688 22.2305 14.6367 20.8711 13.4883 20.8711ZM0.9375 26.6367L26.0508 26.6367C26.5664 26.6367 26.9883 26.2031 26.9883 25.6875C26.9883 25.1719 26.5664 24.75 26.0508 24.75L0.9375 24.75C0.421875 24.75 0 25.1719 0 25.6875C0 26.2031 0.421875 26.6367 0.9375 26.6367Z" fill="#000000"/>
</svg>
