<?xml version="1.0" encoding="UTF-8"?>

<!--
  - Copyright (c) 2023. Compose Cupertino project and open source contributors.
  -
  -  Licensed under the Apache License, Version 2.0 (the "License");
  -  you may not use this file except in compliance with the License.
  -  You may obtain a copy of the License at
  -
  -      http://www.apache.org/licenses/LICENSE-2.0
  -
  -  Unless required by applicable law or agreed to in writing, software
  -  distributed under the License is distributed on an "AS IS" BASIS,
  -  WITHOUT WARRANTIES OR CONDITIONS OF ANY KIND, either express or implied.
  -  See the License for the specific language governing permissions and
  -  limitations under the License.
  -
  -->

<svg version="1.1" xmlns="http://www.w3.org/2000/svg" xmlns:xlink="http://www.w3.org/1999/xlink" width="19.4912" height="26.3788">
 <g>
  <path d="M7.06348 25.6992L12.4189 18.9843L4.21582 10.7812L1.81348 13.7929C1.61426 14.0507 1.49707 14.2851 1.49707 14.5429C1.49707 15 1.84863 15.3398 2.34082 15.3398L8.77441 15.4336L5.46973 24.832C5.04785 26.039 6.2666 26.6836 7.06348 25.6992ZM15.2783 15.4101L17.7041 12.3867C17.9033 12.1406 18.0088 11.9062 18.0088 11.6367C18.0088 11.1914 17.6689 10.8515 17.1768 10.8398L10.7314 10.7461L14.0479 1.34762C14.4697 0.12887 13.251-0.503942 12.4541 0.492152L7.0752 7.21871Z" fill="#000000"/>
  <path d="M17.9502 22.5703C18.3018 22.9218 18.8877 22.9218 19.2275 22.5703C19.5791 22.2304 19.5791 21.6562 19.2275 21.2929L1.54395 3.60934C1.19238 3.25778 0.594727 3.25778 0.254883 3.60934C-0.0849609 3.94918-0.0849609 4.54684 0.254883 4.88668Z" fill="#000000"/>
 </g>
</svg>
