<?xml version="1.0" encoding="UTF-8"?>

<!--
  - Copyright (c) 2023. Compose Cupertino project and open source contributors.
  -
  -  Licensed under the Apache License, Version 2.0 (the "License");
  -  you may not use this file except in compliance with the License.
  -  You may obtain a copy of the License at
  -
  -      http://www.apache.org/licenses/LICENSE-2.0
  -
  -  Unless required by applicable law or agreed to in writing, software
  -  distributed under the License is distributed on an "AS IS" BASIS,
  -  WITHOUT WARRANTIES OR CONDITIONS OF ANY KIND, either express or implied.
  -  See the License for the specific language governing permissions and
  -  limitations under the License.
  -
  -->

<svg version="1.1" xmlns="http://www.w3.org/2000/svg" xmlns:xlink="http://www.w3.org/1999/xlink" width="26.9883" height="21.5273">
  <path d="M6.60938 0C4.03125 0 1.34766 1.19531 0.140625 3.26953C0.0117188 3.50391 0 3.65625 0 4.08984L0 20.625C0 21.1641 0.339844 21.4922 0.925781 21.4922C1.20703 21.4922 1.47656 21.4102 1.6875 21.2109C3.16406 19.9453 5.12109 19.2891 7.07812 19.2891C8.90625 19.2891 10.6055 19.9336 11.8477 21C11.9766 21.1055 12.1289 21.1641 12.2578 21.1641C12.5156 21.1641 12.7266 20.9766 12.7266 20.6719L12.7266 3.33984C12.7266 3.03516 12.7031 2.96484 12.4805 2.64844C11.332 0.996094 9.08203 0 6.60938 0ZM20.3789 0C17.9062 0 15.6562 0.996094 14.5078 2.64844C14.2852 2.96484 14.2617 3.03516 14.2617 3.33984L14.2617 20.6719C14.2617 20.9766 14.4727 21.1641 14.7305 21.1641C14.8594 21.1641 15.0234 21.1055 15.1406 21C16.3828 19.9336 18.082 19.2891 19.9102 19.2891C21.8672 19.2891 23.8242 19.9453 25.3008 21.2109C25.5117 21.4102 25.7812 21.4922 26.0625 21.4922C26.6484 21.4922 26.9883 21.1641 26.9883 20.625L26.9883 4.08984C26.9883 3.65625 26.9766 3.49219 26.8477 3.26953C25.6406 1.19531 22.957 0 20.3789 0Z" fill="#000000"/>
</svg>
