<?xml version="1.0" encoding="UTF-8"?>

<!--
  - Copyright (c) 2023. Compose Cupertino project and open source contributors.
  -
  -  Licensed under the Apache License, Version 2.0 (the "License");
  -  you may not use this file except in compliance with the License.
  -  You may obtain a copy of the License at
  -
  -      http://www.apache.org/licenses/LICENSE-2.0
  -
  -  Unless required by applicable law or agreed to in writing, software
  -  distributed under the License is distributed on an "AS IS" BASIS,
  -  WITHOUT WARRANTIES OR CONDITIONS OF ANY KIND, either express or implied.
  -  See the License for the specific language governing permissions and
  -  limitations under the License.
  -
  -->

<svg version="1.1" xmlns="http://www.w3.org/2000/svg" xmlns:xlink="http://www.w3.org/1999/xlink" width="22.522" height="25.1836">
 <g>
  <path d="M18.8525 16.582L18.8525 3.36328C18.8525 1.13672 17.7393 0 15.5361 0L6.37207 0C5.02441 0 4.09863 0.457031 3.60645 1.34766ZM3.05566 7.19531L3.05566 23.707C3.05566 24.6211 3.5127 25.1367 4.29785 25.1367C4.87207 25.1367 5.21191 24.8086 6.2666 23.7891L10.8486 19.2773C10.9072 19.2188 11.0127 19.2188 11.0596 19.2773L15.6416 23.7891C16.6963 24.8086 17.0361 25.1367 17.6104 25.1367C18.3955 25.1367 18.8525 24.6211 18.8525 23.707L18.8525 23.0156Z" fill="#000000"/>
  <path d="M20.9854 23.1211C21.3369 23.4727 21.9111 23.4727 22.2627 23.1211C22.6025 22.7695 22.6143 22.1953 22.2627 21.8438L1.54395 1.11328C1.19238 0.761719 0.606445 0.761719 0.254883 1.11328C-0.0849609 1.45312-0.0849609 2.05078 0.254883 2.39062Z" fill="#000000"/>
 </g>
</svg>
