<?xml version="1.0" encoding="UTF-8"?>

<!--
  - Copyright (c) 2023. Compose Cupertino project and open source contributors.
  -
  -  Licensed under the Apache License, Version 2.0 (the "License");
  -  you may not use this file except in compliance with the License.
  -  You may obtain a copy of the License at
  -
  -      http://www.apache.org/licenses/LICENSE-2.0
  -
  -  Unless required by applicable law or agreed to in writing, software
  -  distributed under the License is distributed on an "AS IS" BASIS,
  -  WITHOUT WARRANTIES OR CONDITIONS OF ANY KIND, either express or implied.
  -  See the License for the specific language governing permissions and
  -  limitations under the License.
  -
  -->

<svg version="1.1" xmlns="http://www.w3.org/2000/svg" xmlns:xlink="http://www.w3.org/1999/xlink" width="26.0977" height="25.0195">
  <path d="M13.0547 11.0859C17.6016 11.0859 21.7969 10.4648 26.0977 8.68359L26.0977 7.73438C26.0977 5.33203 24.9023 4.16016 22.4766 4.16016L18.9961 4.16016L18.9961 3.23438C18.9961 1.03125 17.8359 0 15.7148 0L10.3828 0C8.39062 0 7.11328 1.03125 7.11328 3.23438L7.11328 4.16016L3.62109 4.16016C1.20703 4.16016 0 5.33203 0 7.73438L0 8.68359C4.30078 10.4648 8.49609 11.0859 13.0547 11.0859ZM8.92969 4.16016L8.92969 3.10547C8.92969 2.21484 9.44531 1.71094 10.3594 1.71094L15.7383 1.71094C16.6523 1.71094 17.1797 2.21484 17.1797 3.10547L17.1797 4.16016ZM3.62109 22.7109L22.4766 22.7109C24.9023 22.7109 26.0977 21.5273 26.0977 19.1367L26.0977 10.6055C22.6758 11.8359 19.4297 12.4688 16.1719 12.6914L16.1719 13.6406C16.1719 14.4609 15.7031 14.918 14.8711 14.918L11.2266 14.918C10.4062 14.918 9.9375 14.4609 9.9375 13.6406L9.9375 12.6914C6.66797 12.4688 3.42188 11.8359 0 10.6055L0 19.1367C0 21.5273 1.20703 22.7109 3.62109 22.7109Z" fill="#000000"/>
</svg>
