<?xml version="1.0" encoding="UTF-8"?>

<!--
  - Copyright (c) 2023. Compose Cupertino project and open source contributors.
  -
  -  Licensed under the Apache License, Version 2.0 (the "License");
  -  you may not use this file except in compliance with the License.
  -  You may obtain a copy of the License at
  -
  -      http://www.apache.org/licenses/LICENSE-2.0
  -
  -  Unless required by applicable law or agreed to in writing, software
  -  distributed under the License is distributed on an "AS IS" BASIS,
  -  WITHOUT WARRANTIES OR CONDITIONS OF ANY KIND, either express or implied.
  -  See the License for the specific language governing permissions and
  -  limitations under the License.
  -
  -->

<svg version="1.1" xmlns="http://www.w3.org/2000/svg" xmlns:xlink="http://www.w3.org/1999/xlink" width="27.5859" height="24.9961">
 <g>
  <path d="M18.8906 24.9961L25.6523 24.9961C26.8359 24.9961 27.5859 24.1641 27.5859 22.8633L27.5859 7.91016C27.5859 6.60938 26.8359 5.77734 25.6523 5.77734L19.4648 5.77734L19.4648 22.8633C19.4648 23.6484 19.2773 24.3633 18.8906 24.9961ZM22.125 11.707L22.125 9.83203C22.125 9.58594 22.2773 9.42188 22.5352 9.42188L24.4805 9.42188C24.7266 9.42188 24.8906 9.58594 24.8906 9.83203L24.8906 11.707C24.8906 11.9531 24.7266 12.1289 24.4805 12.1289L22.5352 12.1289C22.2773 12.1289 22.125 11.9531 22.125 11.707ZM22.125 16.3242L22.125 14.4492C22.125 14.2031 22.2773 14.0391 22.5352 14.0391L24.4805 14.0391C24.7266 14.0391 24.8906 14.2031 24.8906 14.4492L24.8906 16.3242C24.8906 16.5703 24.7266 16.7344 24.4805 16.7344L22.5352 16.7344C22.2773 16.7344 22.125 16.5703 22.125 16.3242ZM22.125 20.9414L22.125 19.0664C22.125 18.8203 22.2773 18.6445 22.5352 18.6445L24.4805 18.6445C24.7266 18.6445 24.8906 18.8203 24.8906 19.0664L24.8906 20.9414C24.8906 21.1875 24.7266 21.3516 24.4805 21.3516L22.5352 21.3516C22.2773 21.3516 22.125 21.1875 22.125 20.9414Z" fill="#000000"/>
  <path d="M0 22.8633C0 24.1641 0.75 24.9961 1.94531 24.9961L15.9141 24.9961C17.1094 24.9961 17.8594 24.1641 17.8594 22.8633L17.8594 2.14453C17.8594 0.84375 17.1094 0.0117188 15.9141 0.0117188L1.94531 0.0117188C0.75 0.0117188 0 0.84375 0 2.14453ZM4.875 23.1094L4.875 19.3008C4.875 18.7617 5.22656 18.4102 5.76562 18.4102L12.1992 18.4102C12.7383 18.4102 13.0898 18.7617 13.0898 19.3008L13.0898 23.1094ZM4.48828 6.30469L4.48828 4.03125C4.48828 3.73828 4.67578 3.52734 4.96875 3.52734L7.3125 3.52734C7.60547 3.52734 7.81641 3.73828 7.81641 4.03125L7.81641 6.30469C7.81641 6.60938 7.60547 6.80859 7.3125 6.80859L4.96875 6.80859C4.67578 6.80859 4.48828 6.60938 4.48828 6.30469ZM10.1484 6.30469L10.1484 4.03125C10.1484 3.73828 10.3359 3.52734 10.6406 3.52734L12.9727 3.52734C13.2656 3.52734 13.4766 3.73828 13.4766 4.03125L13.4766 6.30469C13.4766 6.60938 13.2656 6.80859 12.9727 6.80859L10.6406 6.80859C10.3359 6.80859 10.1484 6.60938 10.1484 6.30469ZM4.48828 11.0859L4.48828 8.8125C4.48828 8.51953 4.67578 8.30859 4.96875 8.30859L7.3125 8.30859C7.60547 8.30859 7.81641 8.51953 7.81641 8.8125L7.81641 11.0859C7.81641 11.3906 7.60547 11.5898 7.3125 11.5898L4.96875 11.5898C4.67578 11.5898 4.48828 11.3906 4.48828 11.0859ZM10.1484 11.0859L10.1484 8.8125C10.1484 8.51953 10.3359 8.30859 10.6406 8.30859L12.9727 8.30859C13.2656 8.30859 13.4766 8.51953 13.4766 8.8125L13.4766 11.0859C13.4766 11.3906 13.2656 11.5898 12.9727 11.5898L10.6406 11.5898C10.3359 11.5898 10.1484 11.3906 10.1484 11.0859ZM4.48828 15.8672L4.48828 13.5938C4.48828 13.2891 4.67578 13.0898 4.96875 13.0898L7.3125 13.0898C7.60547 13.0898 7.81641 13.2891 7.81641 13.5938L7.81641 15.8672C7.81641 16.1602 7.60547 16.3711 7.3125 16.3711L4.96875 16.3711C4.67578 16.3711 4.48828 16.1602 4.48828 15.8672ZM10.1484 15.8672L10.1484 13.5938C10.1484 13.2891 10.3359 13.0898 10.6406 13.0898L12.9727 13.0898C13.2656 13.0898 13.4766 13.2891 13.4766 13.5938L13.4766 15.8672C13.4766 16.1602 13.2656 16.3711 12.9727 16.3711L10.6406 16.3711C10.3359 16.3711 10.1484 16.1602 10.1484 15.8672Z" fill="#000000"/>
 </g>
</svg>
