<?xml version="1.0" encoding="UTF-8"?>

<!--
  - Copyright (c) 2023. Compose Cupertino project and open source contributors.
  -
  -  Licensed under the Apache License, Version 2.0 (the "License");
  -  you may not use this file except in compliance with the License.
  -  You may obtain a copy of the License at
  -
  -      http://www.apache.org/licenses/LICENSE-2.0
  -
  -  Unless required by applicable law or agreed to in writing, software
  -  distributed under the License is distributed on an "AS IS" BASIS,
  -  WITHOUT WARRANTIES OR CONDITIONS OF ANY KIND, either express or implied.
  -  See the License for the specific language governing permissions and
  -  limitations under the License.
  -
  -->

<svg version="1.1" xmlns="http://www.w3.org/2000/svg" xmlns:xlink="http://www.w3.org/1999/xlink" width="29.4609" height="27.9258">
  <path d="M28.4531 14.9648C29.1328 14.6367 29.4609 14.168 29.4609 13.6992C29.4609 13.2305 29.1328 12.7969 28.4531 12.5625L22.9102 10.6523L25.2891 5.78906C25.4062 5.54297 25.4531 5.28516 25.4531 5.0625C25.4531 4.40625 24.9609 3.92578 24.3047 3.92578C24.082 3.92578 23.8359 3.96094 23.5898 4.08984L18.5625 6.55078L15.9375 0.9375C15.6562 0.316406 15.1992 0 14.7305 0C14.2617 0 13.8164 0.316406 13.5234 0.9375L10.9102 6.55078L5.87109 4.08984C5.625 3.96094 5.37891 3.92578 5.15625 3.92578C4.5 3.92578 4.00781 4.40625 4.00781 5.0625C4.00781 5.28516 4.05469 5.54297 4.18359 5.78906L6.55078 10.6523L1.00781 12.5625C0.339844 12.7852 0 13.2422 0 13.7109C0 14.168 0.339844 14.6367 1.00781 14.9648L6.32812 17.5078L3.45703 23.5898C3.31641 23.8594 3.25781 24.1172 3.25781 24.3633C3.25781 24.9492 3.65625 25.3711 4.21875 25.3711C4.45312 25.3711 4.71094 25.2891 4.98047 25.125L11.7773 21.1055L13.6406 26.8711C13.8516 27.5039 14.2852 27.832 14.7305 27.832C15.1875 27.832 15.6094 27.5039 15.8203 26.8711L17.6953 21.1055L24.4805 25.125C24.75 25.2891 25.0195 25.3594 25.2422 25.3594C25.793 25.3594 26.2148 24.9609 26.2148 24.375C26.2148 24.1289 26.1445 23.8594 26.0039 23.5898L23.1328 17.5078Z" fill="#000000"/>
</svg>
