<?xml version="1.0" encoding="UTF-8"?>

<!--
  - Copyright (c) 2023. Compose Cupertino project and open source contributors.
  -
  -  Licensed under the Apache License, Version 2.0 (the "License");
  -  you may not use this file except in compliance with the License.
  -  You may obtain a copy of the License at
  -
  -      http://www.apache.org/licenses/LICENSE-2.0
  -
  -  Unless required by applicable law or agreed to in writing, software
  -  distributed under the License is distributed on an "AS IS" BASIS,
  -  WITHOUT WARRANTIES OR CONDITIONS OF ANY KIND, either express or implied.
  -  See the License for the specific language governing permissions and
  -  limitations under the License.
  -
  -->

<svg version="1.1" xmlns="http://www.w3.org/2000/svg" xmlns:xlink="http://www.w3.org/1999/xlink" width="23.9062" height="23.918">
  <path d="M11.9531 23.918C18.4922 23.918 23.9062 18.5039 23.9062 11.9648C23.9062 5.4375 18.4805 0.0117188 11.9414 0.0117188C5.41406 0.0117188 0 5.4375 0 11.9648C0 18.5039 5.42578 23.918 11.9531 23.918Z M6.5625 17.4375C5.28516 17.4375 4.64062 16.8047 4.64062 15.5508L4.64062 9.16406C4.64062 7.88672 5.28516 7.26562 6.5625 7.26562L8.08594 7.26562C8.55469 7.26562 8.69531 7.14844 8.96484 6.86719L9.46875 6.31641C9.77344 5.97656 10.0898 5.80078 10.7109 5.80078L13.1484 5.80078C13.7812 5.80078 14.0977 5.97656 14.3906 6.31641L14.8828 6.86719C15.1523 7.17188 15.3164 7.26562 15.7852 7.26562L17.3438 7.26562C18.6094 7.26562 19.2656 7.88672 19.2656 9.16406L19.2656 15.5508C19.2656 16.8047 18.6094 17.4375 17.3438 17.4375ZM11.9648 15.9141C13.9688 15.9141 15.5742 14.3555 15.5742 12.293C15.5742 10.2891 13.9688 8.67188 11.9648 8.67188C9.96094 8.67188 8.34375 10.2891 8.34375 12.293C8.34375 14.3203 9.96094 15.9141 11.9648 15.9141ZM11.9531 14.8711C10.5352 14.8711 9.375 13.7227 9.375 12.293C9.375 10.8633 10.5352 9.71484 11.9531 9.71484C13.3711 9.71484 14.5312 10.875 14.5312 12.293C14.5312 13.7227 13.3711 14.8711 11.9531 14.8711ZM16.793 10.5586C17.2383 10.5586 17.6133 10.1953 17.6016 9.73828C17.6016 9.28125 17.2383 8.91797 16.793 8.91797C16.3359 8.91797 15.9609 9.28125 15.9609 9.73828C15.9609 10.1953 16.3359 10.5586 16.793 10.5586Z"/>
</svg>
