<?xml version="1.0" encoding="UTF-8"?>

<!--
  - Copyright (c) 2023. Compose Cupertino project and open source contributors.
  -
  -  Licensed under the Apache License, Version 2.0 (the "License");
  -  you may not use this file except in compliance with the License.
  -  You may obtain a copy of the License at
  -
  -      http://www.apache.org/licenses/LICENSE-2.0
  -
  -  Unless required by applicable law or agreed to in writing, software
  -  distributed under the License is distributed on an "AS IS" BASIS,
  -  WITHOUT WARRANTIES OR CONDITIONS OF ANY KIND, either express or implied.
  -  See the License for the specific language governing permissions and
  -  limitations under the License.
  -
  -->

<svg version="1.1" xmlns="http://www.w3.org/2000/svg" xmlns:xlink="http://www.w3.org/1999/xlink" width="28.7812" height="23.0977">
  <path d="M3.67969 22.3477L25.1016 22.3477C27.5391 22.3477 28.7812 21.1289 28.7812 18.7148L28.7812 6.44531C28.7812 4.03125 27.5391 2.82422 25.1016 2.82422L21.75 2.82422C20.8242 2.82422 20.543 2.63672 20.0156 2.05078L19.0781 0.996094C18.4922 0.351562 17.8945 0 16.6875 0L12.0117 0C10.8047 0 10.207 0.351562 9.62109 0.996094L8.68359 2.05078C8.15625 2.625 7.86328 2.82422 6.94922 2.82422L3.67969 2.82422C1.23047 2.82422 0 4.03125 0 6.44531L0 18.7148C0 21.1289 1.23047 22.3477 3.67969 22.3477ZM14.3906 18.8906C10.8398 18.8906 7.99219 16.0547 7.99219 12.4805C7.99219 8.91797 10.8398 6.08203 14.3906 6.08203C17.9414 6.08203 20.7773 8.91797 20.7773 12.4805C20.7773 16.0547 17.9297 18.8906 14.3906 18.8906ZM14.3906 17.1094C16.9453 17.1094 19.0078 15.0586 19.0078 12.4805C19.0078 9.91406 16.9453 7.85156 14.3906 7.85156C11.8359 7.85156 9.76172 9.91406 9.76172 12.4805C9.76172 15.0586 11.8477 17.1094 14.3906 17.1094ZM21.5625 8.16797C21.5625 7.37109 22.2656 6.66797 23.0859 6.66797C23.8945 6.66797 24.5859 7.37109 24.5859 8.16797C24.5859 9 23.8945 9.66797 23.0859 9.67969C22.2656 9.67969 21.5625 9.01172 21.5625 8.16797Z" fill="#000000"/>
</svg>
