<?xml version="1.0" encoding="UTF-8"?>

<!--
  - Copyright (c) 2023. Compose Cupertino project and open source contributors.
  -
  -  Licensed under the Apache License, Version 2.0 (the "License");
  -  you may not use this file except in compliance with the License.
  -  You may obtain a copy of the License at
  -
  -      http://www.apache.org/licenses/LICENSE-2.0
  -
  -  Unless required by applicable law or agreed to in writing, software
  -  distributed under the License is distributed on an "AS IS" BASIS,
  -  WITHOUT WARRANTIES OR CONDITIONS OF ANY KIND, either express or implied.
  -  See the License for the specific language governing permissions and
  -  limitations under the License.
  -
  -->

<svg version="1.1" xmlns="http://www.w3.org/2000/svg" xmlns:xlink="http://www.w3.org/1999/xlink" width="24.6328" height="24.8555">
  <path d="M8.16797 17.4023L16.4648 17.4023C17.8125 17.4023 18.4453 16.7695 18.4453 15.4219L18.4453 12.8203L22.8867 12.8203C23.8594 12.8203 24.6328 12.2461 24.6328 11.3438C24.6328 10.793 24.3516 10.3594 23.8242 9.90234L13.7695 1.03125C13.2773 0.609375 12.8438 0.328125 12.3164 0.328125C11.7891 0.328125 11.3555 0.609375 10.8633 1.03125L0.808594 9.91406C0.257812 10.3945 0 10.793 0 11.3438C0 12.2461 0.773438 12.8203 1.74609 12.8203L6.1875 12.8203L6.1875 15.4219C6.1875 16.7695 6.82031 17.4023 8.16797 17.4023ZM8.05078 24.8555L16.582 24.8555C17.7539 24.8555 18.4453 24.1641 18.4453 23.0039L18.4453 21.1992C18.4453 20.0391 17.7539 19.3477 16.582 19.3477L8.05078 19.3477C6.87891 19.3477 6.1875 20.0391 6.1875 21.1992L6.1875 23.0039C6.1875 24.1641 6.87891 24.8555 8.05078 24.8555Z" fill="#000000"/>
</svg>
