<?xml version="1.0" encoding="UTF-8"?>

<!--
  - Copyright (c) 2023. Compose Cupertino project and open source contributors.
  -
  -  Licensed under the Apache License, Version 2.0 (the "License");
  -  you may not use this file except in compliance with the License.
  -  You may obtain a copy of the License at
  -
  -      http://www.apache.org/licenses/LICENSE-2.0
  -
  -  Unless required by applicable law or agreed to in writing, software
  -  distributed under the License is distributed on an "AS IS" BASIS,
  -  WITHOUT WARRANTIES OR CONDITIONS OF ANY KIND, either express or implied.
  -  See the License for the specific language governing permissions and
  -  limitations under the License.
  -
  -->

<svg version="1.1" xmlns="http://www.w3.org/2000/svg" xmlns:xlink="http://www.w3.org/1999/xlink" width="27.7266" height="21.7852">
  <path d="M4.83984 6.69141C5.10938 5.41406 5.68359 3.73828 6.07031 3.05859C6.38672 2.50781 6.72656 2.26172 7.35938 2.17969C8.25 2.0625 10.2422 1.98047 13.8633 1.98047C17.4961 1.98047 19.4883 2.03906 20.3672 2.17969C21 2.27344 21.3281 2.50781 21.6562 3.05859C22.0547 3.72656 22.5938 5.41406 22.8984 6.69141C23.0039 7.125 22.8164 7.28906 22.3711 7.26562C20.4258 7.13672 18.1055 7.01953 13.8633 7.01953C9.63281 7.01953 7.3125 7.13672 5.36719 7.26562C4.91016 7.28906 4.73438 7.125 4.83984 6.69141ZM5.41406 15.3516C4.34766 15.3516 3.52734 14.5312 3.52734 13.4648C3.52734 12.3867 4.34766 11.5781 5.41406 11.5781C6.48047 11.5781 7.30078 12.3867 7.30078 13.4648C7.30078 14.5312 6.48047 15.3516 5.41406 15.3516ZM10.7695 14.8828C9.96094 14.8828 9.41016 14.332 9.41016 13.5234C9.41016 12.7266 9.96094 12.1758 10.7695 12.1758L16.9688 12.1758C17.7656 12.1758 18.3164 12.7266 18.3164 13.5234C18.3164 14.332 17.7656 14.8828 16.9688 14.8828ZM22.3125 15.3516C21.2461 15.3516 20.4375 14.5312 20.4375 13.4648C20.4375 12.3867 21.2461 11.5781 22.3125 11.5781C23.3906 11.5781 24.1992 12.3867 24.1992 13.4648C24.1992 14.5312 23.3906 15.3516 22.3125 15.3516ZM13.8633 18.5156C17.8008 18.5156 23.0391 18.3164 25.2539 18.0586C26.8477 17.8828 27.7266 17.0039 27.7266 15.5039L27.7266 13.4414C27.7266 11.4609 27.3281 10.3594 26.25 8.95312L25.2539 7.67578C24.832 5.56641 24.0469 3.35156 23.6484 2.48438C23.0156 1.16016 21.8086 0.375 20.25 0.164062C19.4648 0.0585938 16.8984 0 13.8633 0C10.8398 0 8.27344 0.0703125 7.48828 0.164062C5.92969 0.351562 4.71094 1.16016 4.08984 2.48438C3.67969 3.35156 2.90625 5.56641 2.47266 7.67578L1.48828 8.95312C0.398438 10.3594 0 11.4609 0 13.4414L0 15.5039C0 17.0039 0.890625 17.8828 2.47266 18.0586C4.69922 18.3164 9.92578 18.5156 13.8633 18.5156ZM1.55859 21.7383L2.92969 21.7383C3.80859 21.7383 4.48828 21.0586 4.48828 20.1914L4.48828 17.2734L0 15.1406L0 20.1914C0 21.0586 0.679688 21.7383 1.55859 21.7383ZM24.7969 21.7383L26.1797 21.7383C27.0586 21.7383 27.7266 21.0586 27.7266 20.1914L27.7266 15.1406L23.25 17.2734L23.25 20.1914C23.25 21.0586 23.918 21.7383 24.7969 21.7383Z" fill="#000000"/>
</svg>
