<?xml version="1.0" encoding="UTF-8"?>

<!--
  - Copyright (c) 2023. Compose Cupertino project and open source contributors.
  -
  -  Licensed under the Apache License, Version 2.0 (the "License");
  -  you may not use this file except in compliance with the License.
  -  You may obtain a copy of the License at
  -
  -      http://www.apache.org/licenses/LICENSE-2.0
  -
  -  Unless required by applicable law or agreed to in writing, software
  -  distributed under the License is distributed on an "AS IS" BASIS,
  -  WITHOUT WARRANTIES OR CONDITIONS OF ANY KIND, either express or implied.
  -  See the License for the specific language governing permissions and
  -  limitations under the License.
  -
  -->

<svg version="1.1" xmlns="http://www.w3.org/2000/svg" xmlns:xlink="http://www.w3.org/1999/xlink" width="29.4492" height="22.0898">
 <g>
  <path d="M2.4375 21.9141L5.91797 21.9141C7.53516 21.9141 8.36719 21.1406 8.36719 19.6055L8.36719 9.15234C8.36719 7.61719 7.53516 6.83203 5.91797 6.83203L2.4375 6.83203C0.832031 6.83203 0 7.61719 0 9.15234L0 19.6055C0 21.1406 0.832031 21.9141 2.4375 21.9141Z" fill="#000000"/>
  <path d="M12.9727 21.9141L16.4648 21.9141C18.082 21.9141 18.9023 21.1406 18.9023 19.6055L18.9023 5.74219C18.9023 4.20703 18.082 3.42188 16.4648 3.42188L12.9727 3.42188C11.3672 3.42188 10.5352 4.20703 10.5352 5.74219L10.5352 19.6055C10.5352 21.1406 11.3672 21.9141 12.9727 21.9141Z" fill="#000000"/>
  <path d="M23.5078 21.9141L27 21.9141C28.6172 21.9141 29.4492 21.1406 29.4492 19.6055L29.4492 2.32031C29.4492 0.785156 28.6172 0 27 0L23.5078 0C21.9141 0 21.082 0.785156 21.082 2.32031L21.082 19.6055C21.082 21.1406 21.9141 21.9141 23.5078 21.9141Z" fill="#000000"/>
 </g>
</svg>
