<?xml version="1.0" encoding="UTF-8"?>

<!--
  - Copyright (c) 2023. Compose Cupertino project and open source contributors.
  -
  -  Licensed under the Apache License, Version 2.0 (the "License");
  -  you may not use this file except in compliance with the License.
  -  You may obtain a copy of the License at
  -
  -      http://www.apache.org/licenses/LICENSE-2.0
  -
  -  Unless required by applicable law or agreed to in writing, software
  -  distributed under the License is distributed on an "AS IS" BASIS,
  -  WITHOUT WARRANTIES OR CONDITIONS OF ANY KIND, either express or implied.
  -  See the License for the specific language governing permissions and
  -  limitations under the License.
  -
  -->

<svg version="1.1" xmlns="http://www.w3.org/2000/svg" xmlns:xlink="http://www.w3.org/1999/xlink" width="29.4609" height="22.2773">
  <path d="M23.1562 20.3672C26.6953 20.3672 29.4609 17.7773 29.4609 14.5547C29.4609 12.0938 28.043 9.96094 25.7578 9C25.7812 3.77344 22.0195 0 17.2266 0C14.0508 0 11.7891 1.69922 10.3828 3.75C7.5 2.90625 4.35938 5.09766 4.30078 8.37891C1.65234 8.80078 0 11.168 0 14.0273C0 17.4727 3.01172 20.3672 7.01953 20.3672Z M13.8984 15.7617C13.5117 15.7617 13.1953 15.5977 12.9141 15.2344L10.2891 11.9297C10.1133 11.6953 10.0195 11.4609 10.0195 11.2148C10.0195 10.6641 10.4414 10.2422 10.9688 10.2422C11.3203 10.2422 11.6133 10.4062 11.8359 10.7109L13.8516 13.3477L17.8594 6.65625C18.0469 6.32812 18.3633 6.12891 18.6914 6.12891C19.2422 6.12891 19.6875 6.51562 19.6875 7.03125C19.6875 7.30078 19.5352 7.57031 19.418 7.75781L14.8359 15.2227C14.6133 15.5742 14.2852 15.7617 13.8984 15.7617Z"/>
</svg>
