<?xml version="1.0" encoding="UTF-8"?>

<!--
  - Copyright (c) 2023. Compose Cupertino project and open source contributors.
  -
  -  Licensed under the Apache License, Version 2.0 (the "License");
  -  you may not use this file except in compliance with the License.
  -  You may obtain a copy of the License at
  -
  -      http://www.apache.org/licenses/LICENSE-2.0
  -
  -  Unless required by applicable law or agreed to in writing, software
  -  distributed under the License is distributed on an "AS IS" BASIS,
  -  WITHOUT WARRANTIES OR CONDITIONS OF ANY KIND, either express or implied.
  -  See the License for the specific language governing permissions and
  -  limitations under the License.
  -
  -->

<svg version="1.1" xmlns="http://www.w3.org/2000/svg" xmlns:xlink="http://www.w3.org/1999/xlink" width="23.9062" height="23.918">
  <path d="M11.9531 23.9062C18.4922 23.9062 23.9062 18.4805 23.9062 11.9531C23.9062 5.41406 18.4805 0 11.9414 0C5.41406 0 0 5.41406 0 11.9531C0 18.4805 5.42578 23.9062 11.9531 23.9062Z M10.6406 17.6836C10.2422 17.6836 9.91406 17.5195 9.60938 17.1094L6.66797 13.5C6.49219 13.2656 6.38672 13.0078 6.38672 12.7383C6.38672 12.2109 6.79688 11.7773 7.32422 11.7773C7.66406 11.7773 7.92188 11.8828 8.21484 12.2695L10.5938 15.3398L15.5977 7.30078C15.8203 6.94922 16.125 6.76172 16.4297 6.76172C16.9453 6.76172 17.4258 7.11328 17.4258 7.66406C17.4258 7.92188 17.2734 8.19141 17.1328 8.4375L11.625 17.1094C11.3789 17.4961 11.0391 17.6836 10.6406 17.6836Z"/>
</svg>
