<?xml version="1.0" encoding="UTF-8"?>

<!--
  - Copyright (c) 2023. Compose Cupertino project and open source contributors.
  -
  -  Licensed under the Apache License, Version 2.0 (the "License");
  -  you may not use this file except in compliance with the License.
  -  You may obtain a copy of the License at
  -
  -      http://www.apache.org/licenses/LICENSE-2.0
  -
  -  Unless required by applicable law or agreed to in writing, software
  -  distributed under the License is distributed on an "AS IS" BASIS,
  -  WITHOUT WARRANTIES OR CONDITIONS OF ANY KIND, either express or implied.
  -  See the License for the specific language governing permissions and
  -  limitations under the License.
  -
  -->

<svg version="1.1" xmlns="http://www.w3.org/2000/svg" xmlns:xlink="http://www.w3.org/1999/xlink" width="21.5742" height="21.5977">
  <path d="M3.67969 21.5977L17.8945 21.5977C20.3555 21.5977 21.5742 20.3789 21.5742 17.9648L21.5742 3.65625C21.5742 1.24219 20.3555 0.0234375 17.8945 0.0234375L3.67969 0.0234375C1.23047 0.0234375 0 1.23047 0 3.65625L0 17.9648C0 20.3906 1.23047 21.5977 3.67969 21.5977Z M9.48047 16.5234C9.08203 16.5234 8.75391 16.3594 8.44922 15.9492L5.50781 12.3398C5.33203 12.1055 5.22656 11.8477 5.22656 11.5781C5.22656 11.0508 5.63672 10.6172 6.17578 10.6172C6.50391 10.6172 6.76172 10.7227 7.05469 11.1094L9.43359 14.1797L14.4375 6.14062C14.6602 5.78906 14.9648 5.60156 15.2812 5.60156C15.7852 5.60156 16.2656 5.95312 16.2656 6.50391C16.2656 6.76172 16.125 7.03125 15.9727 7.27734L10.4648 15.9492C10.2188 16.3359 9.87891 16.5234 9.48047 16.5234Z" fill="#ffffff"/>
</svg>
