<?xml version="1.0" encoding="UTF-8"?>

<!--
  - Copyright (c) 2023. Compose Cupertino project and open source contributors.
  -
  -  Licensed under the Apache License, Version 2.0 (the "License");
  -  you may not use this file except in compliance with the License.
  -  You may obtain a copy of the License at
  -
  -      http://www.apache.org/licenses/LICENSE-2.0
  -
  -  Unless required by applicable law or agreed to in writing, software
  -  distributed under the License is distributed on an "AS IS" BASIS,
  -  WITHOUT WARRANTIES OR CONDITIONS OF ANY KIND, either express or implied.
  -  See the License for the specific language governing permissions and
  -  limitations under the License.
  -
  -->

<svg version="1.1" xmlns="http://www.w3.org/2000/svg" xmlns:xlink="http://www.w3.org/1999/xlink" width="21.5742" height="21.5977">
 <g>
  <path d="M3.67969 21.5977L17.8945 21.5977C20.3555 21.5977 21.5742 20.3789 21.5742 17.9648L21.5742 3.65625C21.5742 1.24219 20.3555 0.0234375 17.8945 0.0234375L3.67969 0.0234375C1.23047 0.0234375 0 1.23047 0 3.65625L0 17.9648C0 20.3906 1.23047 21.5977 3.67969 21.5977Z M6.85547 15.7148C6.31641 15.7148 5.89453 15.2812 5.89453 14.7422C5.89453 14.4844 5.98828 14.2383 6.17578 14.0625L9.42188 10.8047L6.17578 7.55859C5.98828 7.37109 5.89453 7.13672 5.89453 6.87891C5.89453 6.32812 6.31641 5.91797 6.85547 5.91797C7.125 5.91797 7.33594 6.01172 7.52344 6.1875L10.793 9.44531L14.0859 6.17578C14.2852 5.97656 14.5078 5.89453 14.7539 5.89453C15.293 5.89453 15.7266 6.31641 15.7266 6.85547C15.7266 7.125 15.6445 7.33594 15.4453 7.54688L12.1758 10.8047L15.4336 14.0508C15.6211 14.2266 15.7148 14.4727 15.7148 14.7422C15.7148 15.2812 15.2812 15.7148 14.7305 15.7148C14.4727 15.7148 14.2148 15.6211 14.0391 15.4336L10.793 12.1758L7.55859 15.4336C7.37109 15.6211 7.125 15.7148 6.85547 15.7148Z"/>
 </g>
</svg>
