<?xml version="1.0" encoding="UTF-8"?>

<!--
  - Copyright (c) 2023. Compose Cupertino project and open source contributors.
  -
  -  Licensed under the Apache License, Version 2.0 (the "License");
  -  you may not use this file except in compliance with the License.
  -  You may obtain a copy of the License at
  -
  -      http://www.apache.org/licenses/LICENSE-2.0
  -
  -  Unless required by applicable law or agreed to in writing, software
  -  distributed under the License is distributed on an "AS IS" BASIS,
  -  WITHOUT WARRANTIES OR CONDITIONS OF ANY KIND, either express or implied.
  -  See the License for the specific language governing permissions and
  -  limitations under the License.
  -
  -->

<svg version="1.1" xmlns="http://www.w3.org/2000/svg" xmlns:xlink="http://www.w3.org/1999/xlink" width="23.543" height="23.4258">
  <path d="M7.34766 17.1328C6.72656 17.1328 6.42188 16.8398 6.42188 16.1953L6.42188 7.24219C6.42188 6.60938 6.72656 6.31641 7.34766 6.31641L16.3242 6.31641C16.9453 6.31641 17.25 6.60938 17.25 7.24219L17.25 16.1953C17.25 16.8398 16.9453 17.1328 16.3242 17.1328ZM8.30859 15.5391L15.3516 15.5391C15.5391 15.5391 15.6562 15.4219 15.6562 15.2461L15.6562 8.20312C15.6562 8.01562 15.5391 7.91016 15.3516 7.91016L8.30859 7.91016C8.13281 7.91016 8.01562 8.01562 8.01562 8.20312L8.01562 15.2461C8.01562 15.4219 8.13281 15.5391 8.30859 15.5391ZM3.12891 21.3633L20.543 21.3633C21.1055 21.3633 21.4805 21 21.4805 20.4375L21.4805 3.01172C21.4805 2.44922 21.1055 2.07422 20.543 2.07422L3.12891 2.07422C2.55469 2.07422 2.19141 2.44922 2.19141 3.01172L2.19141 20.4375C2.19141 21 2.55469 21.3633 3.12891 21.3633ZM8.89453 19.7109L7.00781 19.7109L7.00781 22.4883C7.00781 23.0508 7.38281 23.4258 7.94531 23.4258C8.50781 23.4258 8.89453 23.0508 8.89453 22.4883ZM12.7734 19.7109L10.8867 19.7109L10.8867 22.4883C10.8867 23.0508 11.2734 23.4258 11.8359 23.4258C12.3984 23.4258 12.7734 23.0508 12.7734 22.4883ZM16.6992 19.7109L14.8125 19.7109L14.8125 22.4883C14.8125 23.0508 15.1875 23.4258 15.75 23.4258C16.3125 23.4258 16.6992 23.0508 16.6992 22.4883ZM19.8281 14.6484L19.8281 16.5352L22.5938 16.5352C23.1562 16.5352 23.543 16.1484 23.543 15.5859C23.543 15.0234 23.1562 14.6484 22.5938 14.6484ZM19.8281 10.7578L19.8281 12.6445L22.5938 12.6445C23.1562 12.6445 23.543 12.2695 23.543 11.707C23.543 11.1445 23.1562 10.7578 22.5938 10.7578ZM19.8281 6.87891L19.8281 8.76562L22.5938 8.76562C23.1562 8.76562 23.543 8.37891 23.543 7.81641C23.543 7.25391 23.1562 6.87891 22.5938 6.87891ZM14.7773 3.72656L16.6641 3.72656L16.6641 0.960938C16.6641 0.398438 16.2773 0.0234375 15.7148 0.0234375C15.1523 0.0234375 14.7773 0.398438 14.7773 0.960938ZM10.8867 3.72656L12.7734 3.72656L12.7734 0.960938C12.7734 0.398438 12.3984 0.0234375 11.8359 0.0234375C11.2734 0.0234375 10.8867 0.398438 10.8867 0.960938ZM7.00781 3.72656L8.89453 3.72656L8.89453 0.960938C8.89453 0.398438 8.50781 0.0234375 7.94531 0.0234375C7.38281 0.0234375 7.00781 0.398438 7.00781 0.960938ZM3.84375 8.77734L3.84375 6.89062L0.9375 6.89062C0.375 6.89062 0 7.26562 0 7.82812C0 8.39062 0.375 8.77734 0.9375 8.77734ZM3.84375 12.6562L3.84375 10.7695L0.9375 10.7695C0.375 10.7695 0 11.1562 0 11.7188C0 12.2812 0.375 12.6562 0.9375 12.6562ZM3.84375 16.5469L3.84375 14.6602L0.9375 14.6602C0.375 14.6602 0 15.0352 0 15.5977C0 16.1602 0.375 16.5469 0.9375 16.5469Z" fill="#000000"/>
</svg>
