<?xml version="1.0" encoding="UTF-8"?>

<!--
  - Copyright (c) 2023. Compose Cupertino project and open source contributors.
  -
  -  Licensed under the Apache License, Version 2.0 (the "License");
  -  you may not use this file except in compliance with the License.
  -  You may obtain a copy of the License at
  -
  -      http://www.apache.org/licenses/LICENSE-2.0
  -
  -  Unless required by applicable law or agreed to in writing, software
  -  distributed under the License is distributed on an "AS IS" BASIS,
  -  WITHOUT WARRANTIES OR CONDITIONS OF ANY KIND, either express or implied.
  -  See the License for the specific language governing permissions and
  -  limitations under the License.
  -
  -->

<svg version="1.1" xmlns="http://www.w3.org/2000/svg" xmlns:xlink="http://www.w3.org/1999/xlink" width="27.5391" height="20.0273">
  <path d="M4.79297 16.3945C4.10156 16.3945 3.64453 15.9258 3.64453 15.2695L3.64453 13.1016C3.64453 12.4336 4.10156 11.9766 4.79297 11.9766L7.66406 11.9766C8.35547 11.9766 8.8125 12.4336 8.8125 13.1016L8.8125 15.2695C8.8125 15.9258 8.35547 16.3945 7.66406 16.3945ZM0 7.39453L0 4.73438L27.5391 4.73438L27.5391 7.39453ZM3.67969 20.0273L23.8594 20.0273C26.3203 20.0273 27.5391 18.8203 27.5391 16.4062L27.5391 3.64453C27.5391 1.23047 26.3203 0.0117188 23.8594 0.0117188L3.67969 0.0117188C1.23047 0.0117188 0 1.23047 0 3.64453L0 16.4062C0 18.8203 1.23047 20.0273 3.67969 20.0273Z" fill="#000000"/>
</svg>
