<?xml version="1.0" encoding="UTF-8"?>

<!--
  - Copyright (c) 2023. Compose Cupertino project and open source contributors.
  -
  -  Licensed under the Apache License, Version 2.0 (the "License");
  -  you may not use this file except in compliance with the License.
  -  You may obtain a copy of the License at
  -
  -      http://www.apache.org/licenses/LICENSE-2.0
  -
  -  Unless required by applicable law or agreed to in writing, software
  -  distributed under the License is distributed on an "AS IS" BASIS,
  -  WITHOUT WARRANTIES OR CONDITIONS OF ANY KIND, either express or implied.
  -  See the License for the specific language governing permissions and
  -  limitations under the License.
  -
  -->

<svg version="1.1" xmlns="http://www.w3.org/2000/svg" xmlns:xlink="http://www.w3.org/1999/xlink" width="24.3516" height="24.3633">
  <path d="M0 14.5078C0 15.8555 0.925781 16.7578 2.28516 16.7578L7.58203 16.7578L7.58203 22.0664C7.58203 23.4258 8.48438 24.3398 9.83203 24.3398L14.5195 24.3398C15.8672 24.3398 16.7695 23.4258 16.7695 22.0664L16.7695 16.7578L22.0781 16.7578C23.4375 16.7578 24.3516 15.8555 24.3516 14.5078L24.3516 9.82031C24.3516 8.47266 23.4375 7.57031 22.0781 7.57031L16.7695 7.57031L16.7695 2.27344C16.7695 0.914062 15.8672 0 14.5195 0L9.83203 0C8.48438 0 7.58203 0.914062 7.58203 2.27344L7.58203 7.57031L2.27344 7.57031C0.914062 7.57031 0 8.47266 0 9.82031Z" fill="#000000"/>
</svg>
