<?xml version="1.0" encoding="UTF-8"?>

<!--
  - Copyright (c) 2023. Compose Cupertino project and open source contributors.
  -
  -  Licensed under the Apache License, Version 2.0 (the "License");
  -  you may not use this file except in compliance with the License.
  -  You may obtain a copy of the License at
  -
  -      http://www.apache.org/licenses/LICENSE-2.0
  -
  -  Unless required by applicable law or agreed to in writing, software
  -  distributed under the License is distributed on an "AS IS" BASIS,
  -  WITHOUT WARRANTIES OR CONDITIONS OF ANY KIND, either express or implied.
  -  See the License for the specific language governing permissions and
  -  limitations under the License.
  -
  -->

<svg version="1.1" xmlns="http://www.w3.org/2000/svg" xmlns:xlink="http://www.w3.org/1999/xlink" width="23.9062" height="23.918">
  <path d="M11.9531 23.918C18.4922 23.918 23.9062 18.5039 23.9062 11.9648C23.9062 5.4375 18.4805 0.0117188 11.9414 0.0117188C5.41406 0.0117188 0 5.4375 0 11.9648C0 18.5039 5.42578 23.918 11.9531 23.918Z M5.27344 13.2305L5.27344 10.6758C5.27344 9.9375 5.77734 9.42188 6.51562 9.42188L9.42188 9.42188L9.42188 6.55078C9.42188 5.78906 9.92578 5.28516 10.6641 5.28516L13.2188 5.28516C13.9688 5.28516 14.4609 5.78906 14.4609 6.55078L14.4609 9.42188L17.3672 9.42188C18.1172 9.42188 18.6211 9.9375 18.6211 10.6758L18.6211 13.2305C18.6211 13.9688 18.1172 14.4727 17.3672 14.4727L14.4609 14.4727L14.4609 17.3672C14.4609 18.1289 13.9688 18.6211 13.2188 18.6211L10.6641 18.6211C9.92578 18.6211 9.42188 18.1289 9.42188 17.3672L9.42188 14.4727L6.51562 14.4727C5.78906 14.4727 5.27344 13.9688 5.27344 13.2305Z" />
</svg>
