<?xml version="1.0" encoding="UTF-8"?>

<!--
  - Copyright (c) 2023. Compose Cupertino project and open source contributors.
  -
  -  Licensed under the Apache License, Version 2.0 (the "License");
  -  you may not use this file except in compliance with the License.
  -  You may obtain a copy of the License at
  -
  -      http://www.apache.org/licenses/LICENSE-2.0
  -
  -  Unless required by applicable law or agreed to in writing, software
  -  distributed under the License is distributed on an "AS IS" BASIS,
  -  WITHOUT WARRANTIES OR CONDITIONS OF ANY KIND, either express or implied.
  -  See the License for the specific language governing permissions and
  -  limitations under the License.
  -
  -->

<svg version="1.1" xmlns="http://www.w3.org/2000/svg" xmlns:xlink="http://www.w3.org/1999/xlink" width="23.7773" height="25.7695">
  <path d="M11.8945 12.3398L22.9336 6.07031C22.7578 5.89453 22.5469 5.75391 22.2891 5.61328L14.0156 0.902344C13.3008 0.492188 12.5859 0.269531 11.8945 0.269531C11.1914 0.269531 10.4766 0.492188 9.76172 0.902344L1.5 5.61328C1.24219 5.75391 1.03125 5.89453 0.84375 6.07031ZM11.0859 25.7695L11.0859 13.7461L0.09375 7.46484C0.0234375 7.72266 0 8.00391 0 8.35547L0 17.4844C0 19.1836 0.597656 19.8164 1.67578 20.4375L10.8633 25.6641C10.9336 25.7109 11.0039 25.7461 11.0859 25.7695ZM12.6914 25.7695C12.7734 25.7461 12.8438 25.7109 12.9258 25.6641L22.1016 20.4375C23.1914 19.8164 23.7773 19.1836 23.7773 17.4844L23.7773 8.35547C23.7773 8.00391 23.7539 7.72266 23.6836 7.46484L12.6914 13.7461Z" fill="#000000"/>
</svg>
