<?xml version="1.0" encoding="UTF-8"?>

<!--
  - Copyright (c) 2023. Compose Cupertino project and open source contributors.
  -
  -  Licensed under the Apache License, Version 2.0 (the "License");
  -  you may not use this file except in compliance with the License.
  -  You may obtain a copy of the License at
  -
  -      http://www.apache.org/licenses/LICENSE-2.0
  -
  -  Unless required by applicable law or agreed to in writing, software
  -  distributed under the License is distributed on an "AS IS" BASIS,
  -  WITHOUT WARRANTIES OR CONDITIONS OF ANY KIND, either express or implied.
  -  See the License for the specific language governing permissions and
  -  limitations under the License.
  -
  -->

<svg version="1.1" xmlns="http://www.w3.org/2000/svg" xmlns:xlink="http://www.w3.org/1999/xlink" width="25.3945" height="21.5977">
  <path d="M3.67969 21.5977L13.8516 21.5859C15.2227 21.5859 16.4062 21.1641 17.3672 20.1562L24.2812 13.0195C25.0547 12.2344 25.3945 11.5195 25.3945 10.793C25.3945 10.0547 25.0547 9.35156 24.2812 8.56641L17.3789 1.39453C16.418 0.375 15.2344 0.0234375 13.8633 0.0234375L3.67969 0.0234375C1.24219 0.0234375 0 1.23047 0 3.65625L0 17.9648C0 20.3906 1.24219 21.5977 3.67969 21.5977Z M6.63281 15.7266C6.09375 15.7266 5.67188 15.293 5.67188 14.7422C5.67188 14.4844 5.76562 14.25 5.95312 14.0625L9.19922 10.8164L5.95312 7.55859C5.76562 7.37109 5.67188 7.13672 5.67188 6.87891C5.67188 6.33984 6.09375 5.91797 6.63281 5.91797C6.90234 5.91797 7.11328 6.02344 7.30078 6.19922L10.5703 9.45703L13.8633 6.1875C14.0625 5.98828 14.2852 5.89453 14.5312 5.89453C15.0703 5.89453 15.5039 6.32812 15.5039 6.85547C15.5039 7.125 15.4219 7.33594 15.2227 7.54688L11.9531 10.8164L15.2109 14.0508C15.3984 14.2383 15.4922 14.4727 15.4922 14.7422C15.4922 15.293 15.0586 15.7266 14.5078 15.7266C14.25 15.7266 13.9922 15.6211 13.8164 15.4453L10.5703 12.1758L7.33594 15.4453C7.14844 15.6211 6.90234 15.7266 6.63281 15.7266Z"/>
</svg>
