<?xml version="1.0" encoding="UTF-8"?>

<!--
  - Copyright (c) 2023. Compose Cupertino project and open source contributors.
  -
  -  Licensed under the Apache License, Version 2.0 (the "License");
  -  you may not use this file except in compliance with the License.
  -  You may obtain a copy of the License at
  -
  -      http://www.apache.org/licenses/LICENSE-2.0
  -
  -  Unless required by applicable law or agreed to in writing, software
  -  distributed under the License is distributed on an "AS IS" BASIS,
  -  WITHOUT WARRANTIES OR CONDITIONS OF ANY KIND, either express or implied.
  -  See the License for the specific language governing permissions and
  -  limitations under the License.
  -
  -->

<svg version="1.1" xmlns="http://www.w3.org/2000/svg" xmlns:xlink="http://www.w3.org/1999/xlink" width="24.7969" height="24.5742">
 <g>
  <path d="M0 15.5156C0 17.9297 1.21875 19.1484 3.67969 19.1484L4.07812 19.1484L4.07812 9.08203C4.07812 5.76562 6.02344 3.85547 9.36328 3.85547L19.1133 3.85547L19.1133 3.65625C19.1133 1.24219 17.8828 0.0234375 15.4453 0.0234375L3.67969 0.0234375C1.21875 0.0234375 0 1.24219 0 3.65625Z" fill="#000000"/>
  <path d="M9.36328 24.5742L21.1289 24.5742C23.5664 24.5742 24.7969 23.3555 24.7969 20.9414L24.7969 9.08203C24.7969 6.66797 23.5664 5.44922 21.1289 5.44922L9.36328 5.44922C6.90234 5.44922 5.68359 6.65625 5.68359 9.08203L5.68359 20.9414C5.68359 23.3555 6.90234 24.5742 9.36328 24.5742Z M10.5117 12C9.5625 11.9883 8.80078 11.2383 8.80078 10.2773C8.80078 9.33984 9.5625 8.57812 10.5117 8.57812C11.4492 8.57812 12.2227 9.33984 12.2227 10.2773C12.2227 11.2383 11.4492 12.0234 10.5117 12ZM19.9688 12C19.0312 11.9883 18.2578 11.2383 18.2578 10.2773C18.2578 9.33984 19.0312 8.57812 19.9688 8.57812C20.9062 8.57812 21.6797 9.33984 21.6797 10.2773C21.6797 11.2383 20.9062 12.0234 19.9688 12ZM15.2344 16.7461C14.2969 16.7461 13.5352 15.9727 13.5352 15.0117C13.5352 14.0742 14.2969 13.3242 15.2344 13.3242C16.1719 13.3242 16.9453 14.0742 16.9453 15.0117C16.9453 15.9727 16.1719 16.7461 15.2344 16.7461ZM10.5117 21.4805C9.5625 21.4805 8.8125 20.707 8.8125 19.7578C8.8125 18.8086 9.5625 18.0586 10.5117 18.0586C11.4492 18.0586 12.2109 18.8086 12.2109 19.7578C12.2109 20.707 11.4492 21.4805 10.5117 21.4805ZM19.9688 21.4805C19.0312 21.4805 18.2695 20.707 18.2695 19.7578C18.2695 18.8086 19.0312 18.0586 19.9688 18.0586C20.9062 18.0586 21.6797 18.8086 21.6797 19.7578C21.6797 20.707 20.9062 21.4805 19.9688 21.4805Z"/>
 </g>
</svg>
