<?xml version="1.0" encoding="UTF-8"?>

<!--
  - Copyright (c) 2023. Compose Cupertino project and open source contributors.
  -
  -  Licensed under the Apache License, Version 2.0 (the "License");
  -  you may not use this file except in compliance with the License.
  -  You may obtain a copy of the License at
  -
  -      http://www.apache.org/licenses/LICENSE-2.0
  -
  -  Unless required by applicable law or agreed to in writing, software
  -  distributed under the License is distributed on an "AS IS" BASIS,
  -  WITHOUT WARRANTIES OR CONDITIONS OF ANY KIND, either express or implied.
  -  See the License for the specific language governing permissions and
  -  limitations under the License.
  -
  -->

<svg version="1.1" xmlns="http://www.w3.org/2000/svg" xmlns:xlink="http://www.w3.org/1999/xlink" width="23.9648" height="29.5195">
 <g>
  <path d="M19.875 23.6367L20.332 23.6367C22.7344 23.6367 23.9648 22.3945 23.9648 19.957L23.9648 8.83594L17.4844 8.83594C16.2539 8.83594 15.5625 8.14453 15.5625 6.92578L15.5625 0L9.31641 0C6.9375 0 5.68359 1.24219 5.68359 3.58594L5.68359 4.25391L7.38281 4.25391C9.02344 4.25391 10.3477 4.62891 11.6602 5.94141L18.3164 12.5859C19.6289 13.9102 19.875 15.2695 19.875 16.8633ZM17.707 7.37109L23.8242 7.37109C23.7656 6.99609 23.5078 6.66797 23.0977 6.25781L18.1406 1.20703C17.7422 0.785156 17.4023 0.527344 17.0391 0.480469L17.0508 6.69141C17.0508 7.17188 17.2266 7.37109 17.707 7.37109Z" fill="#000000"/>
  <path d="M3.63281 29.4844L14.6484 29.4844C17.0742 29.4844 18.2812 28.2422 18.2812 25.8047L18.2812 16.5469L10.1016 16.5469C8.58984 16.5469 7.88672 15.832 7.88672 14.332L7.88672 5.84766L3.63281 5.84766C1.21875 5.84766 0 7.07812 0 9.52734L0 25.8047C0 28.2539 1.20703 29.4844 3.63281 29.4844ZM10.0898 14.9414L18.0703 14.9414C17.9531 14.4844 17.6836 14.0625 17.1562 13.5234L10.8984 7.14844C10.3828 6.62109 9.9375 6.26953 9.48047 6.14062L9.48047 14.3438C9.48047 14.7422 9.69141 14.9414 10.0898 14.9414Z" fill="#000000"/>
 </g>
</svg>
