<?xml version="1.0" encoding="UTF-8"?>

<!--
  - Copyright (c) 2023. Compose Cupertino project and open source contributors.
  -
  -  Licensed under the Apache License, Version 2.0 (the "License");
  -  you may not use this file except in compliance with the License.
  -  You may obtain a copy of the License at
  -
  -      http://www.apache.org/licenses/LICENSE-2.0
  -
  -  Unless required by applicable law or agreed to in writing, software
  -  distributed under the License is distributed on an "AS IS" BASIS,
  -  WITHOUT WARRANTIES OR CONDITIONS OF ANY KIND, either express or implied.
  -  See the License for the specific language governing permissions and
  -  limitations under the License.
  -
  -->

<svg version="1.1" xmlns="http://www.w3.org/2000/svg" xmlns:xlink="http://www.w3.org/1999/xlink" width="19.7109" height="25.1367">
  <path d="M5.27344 6.62109C4.83984 6.62109 4.52344 6.28125 4.52344 5.85938C4.52344 5.44922 4.83984 5.13281 5.27344 5.13281L14.4492 5.13281C14.8711 5.13281 15.1875 5.44922 15.1875 5.85938C15.1875 6.28125 14.8711 6.62109 14.4492 6.62109ZM5.27344 10.8398C4.83984 10.8398 4.52344 10.5 4.52344 10.0781C4.52344 9.66797 4.83984 9.35156 5.27344 9.35156L14.4492 9.35156C14.8711 9.35156 15.1875 9.66797 15.1875 10.0781C15.1875 10.5 14.8711 10.8398 14.4492 10.8398ZM5.27344 15.0586C4.83984 15.0586 4.52344 14.7305 4.52344 14.3203C4.52344 13.8984 4.83984 13.5703 5.27344 13.5703L9.60938 13.5703C10.0547 13.5703 10.3594 13.8984 10.3594 14.3203C10.3594 14.7305 10.0547 15.0586 9.60938 15.0586ZM0 21.457C0 23.9062 1.20703 25.125 3.63281 25.125L16.0781 25.125C18.5039 25.125 19.7109 23.9062 19.7109 21.457L19.7109 3.67969C19.7109 1.24219 18.5039 0 16.0781 0L3.63281 0C1.20703 0 0 1.24219 0 3.67969Z" fill="#000000"/>
</svg>
