<?xml version="1.0" encoding="UTF-8"?>

<!--
  - Copyright (c) 2023. Compose Cupertino project and open source contributors.
  -
  -  Licensed under the Apache License, Version 2.0 (the "License");
  -  you may not use this file except in compliance with the License.
  -  You may obtain a copy of the License at
  -
  -      http://www.apache.org/licenses/LICENSE-2.0
  -
  -  Unless required by applicable law or agreed to in writing, software
  -  distributed under the License is distributed on an "AS IS" BASIS,
  -  WITHOUT WARRANTIES OR CONDITIONS OF ANY KIND, either express or implied.
  -  See the License for the specific language governing permissions and
  -  limitations under the License.
  -
  -->

<svg version="1.1" xmlns="http://www.w3.org/2000/svg" xmlns:xlink="http://www.w3.org/1999/xlink" width="19.7109" height="25.1367">
 <g>
  <rect height="25.1367" opacity="0" width="19.7109" x="0" y="0"/>
  <path d="M5.26172 15.9141C4.80469 15.9141 4.46484 15.5859 4.46484 15.1523C4.46484 14.7188 4.80469 14.3789 5.26172 14.3789L14.4844 14.3789C14.9297 14.3789 15.2695 14.7188 15.2695 15.1523C15.2695 15.5859 14.9297 15.9141 14.4844 15.9141ZM5.26172 20.3555C4.80469 20.3555 4.46484 20.0273 4.46484 19.5938C4.46484 19.1602 4.80469 18.8203 5.26172 18.8203L14.4844 18.8203C14.9297 18.8203 15.2695 19.1602 15.2695 19.5938C15.2695 20.0273 14.9297 20.3555 14.4844 20.3555ZM3.63281 25.125L16.0781 25.125C18.5039 25.125 19.7109 23.8945 19.7109 21.457L19.7109 10.8164L11.2266 10.8164C9.72656 10.8164 9.01172 10.1016 9.01172 8.60156L9.01172 0L3.63281 0C1.21875 0 0 1.24219 0 3.67969L0 21.457C0 23.9062 1.20703 25.125 3.63281 25.125ZM11.2617 9.21094L19.5703 9.21094C19.5 8.73047 19.1602 8.26172 18.5977 7.6875L12.1406 1.11328C11.5898 0.550781 11.1094 0.210938 10.6172 0.128906L10.6172 8.57812C10.6172 9 10.8281 9.21094 11.2617 9.21094Z" fill="#000000"/>
 </g>
</svg>
