<?xml version="1.0" encoding="UTF-8"?>

<!--
  - Copyright (c) 2023. Compose Cupertino project and open source contributors.
  -
  -  Licensed under the Apache License, Version 2.0 (the "License");
  -  you may not use this file except in compliance with the License.
  -  You may obtain a copy of the License at
  -
  -      http://www.apache.org/licenses/LICENSE-2.0
  -
  -  Unless required by applicable law or agreed to in writing, software
  -  distributed under the License is distributed on an "AS IS" BASIS,
  -  WITHOUT WARRANTIES OR CONDITIONS OF ANY KIND, either express or implied.
  -  See the License for the specific language governing permissions and
  -  limitations under the License.
  -
  -->

<svg version="1.1" xmlns="http://www.w3.org/2000/svg" xmlns:xlink="http://www.w3.org/1999/xlink" width="18" height="27.2461">
  <path d="M0 19.6875C0 22.9219 2.01562 24.9844 5.16797 24.9844C7.52344 24.9844 9.28125 23.9531 10.3945 21.9609L11.4492 20.0742C13.9219 15.5508 18 14.9648 18 9.15234C18 3.66797 14.4492 0 9.12891 0C3.67969 0 0 3.69141 0 9.19922Z M3.15234 14.625L3.15234 8.77734C3.15234 5.48438 5.46094 3.26953 9.11719 3.26953C12.6562 3.26953 14.8594 5.48438 14.8594 8.77734C14.8594 9.25781 14.4492 9.66797 13.9688 9.66797C13.4883 9.66797 13.0898 9.25781 13.0898 8.77734C13.0898 6.51562 11.625 5.03906 9.11719 5.03906C6.49219 5.03906 4.92188 6.52734 4.92188 8.77734L4.92188 10.2656L8.46094 10.2656C10.3594 10.2656 11.6133 11.4258 11.6133 13.1484C11.6133 13.875 11.2969 14.7656 10.8164 15.375L9.29297 17.3086C9.09375 17.5547 8.83594 17.6953 8.56641 17.6953C8.08594 17.6953 7.67578 17.2969 7.67578 16.8164C7.67578 16.5938 7.75781 16.3828 7.91016 16.1836L9.31641 14.4141C9.59766 14.0742 9.78516 13.582 9.78516 13.2188C9.78516 12.5156 9.28125 12.0352 8.48438 12.0352L4.92188 12.0352L4.92188 14.625C4.92188 15.1055 4.51172 15.5156 4.03125 15.5156C3.55078 15.5156 3.15234 15.1055 3.15234 14.625Z"/>
</svg>
