<?xml version="1.0" encoding="UTF-8"?>
<!--
  - Copyright (c) 2023. Compose Cupertino project and open source contributors.
  -
  -  Licensed under the Apache License, Version 2.0 (the "License");
  -  you may not use this file except in compliance with the License.
  -  You may obtain a copy of the License at
  -
  -      http://www.apache.org/licenses/LICENSE-2.0
  -
  -  Unless required by applicable law or agreed to in writing, software
  -  distributed under the License is distributed on an "AS IS" BASIS,
  -  WITHOUT WARRANTIES OR CONDITIONS OF ANY KIND, either express or implied.
  -  See the License for the specific language governing permissions and
  -  limitations under the License.
  -
  -->

<!--Generator: Apple Native CoreSVG 175.5-->
<svg version="1.1" xmlns="http://www.w3.org/2000/svg" xmlns:xlink="http://www.w3.org/1999/xlink" width="23.9062" height="23.918">
  <path d="M11.9531 23.9062C18.4922 23.9062 23.9062 18.4805 23.9062 11.9531C23.9062 5.41406 18.4805 0 11.9414 0C5.41406 0 0 5.41406 0 11.9531C0 18.4805 5.42578 23.9062 11.9531 23.9062Z M6.31641 13.7109C5.34375 13.7109 4.54688 12.9258 4.54688 11.9414C4.54688 10.9688 5.34375 10.1836 6.31641 10.1836C7.27734 10.1836 8.07422 10.9688 8.07422 11.9414C8.07422 12.9258 7.28906 13.7109 6.31641 13.7109Z M11.9531 13.7109C10.9805 13.7109 10.1836 12.9258 10.1836 11.9414C10.1836 10.9688 10.9805 10.1836 11.9531 10.1836C12.9258 10.1836 13.7109 10.9688 13.7109 11.9414C13.7109 12.9258 12.9258 13.7109 11.9531 13.7109Z M17.6016 13.7109C16.6172 13.7109 15.832 12.9258 15.832 11.9414C15.832 10.9688 16.6172 10.1836 17.6016 10.1836C18.5625 10.1836 19.3594 10.9688 19.3594 11.9414C19.3594 12.9258 18.5625 13.7109 17.6016 13.7109Z"/>
</svg>
