<?xml version="1.0" encoding="UTF-8"?>

<!--
  - Copyright (c) 2023. Compose Cupertino project and open source contributors.
  -
  -  Licensed under the Apache License, Version 2.0 (the "License");
  -  you may not use this file except in compliance with the License.
  -  You may obtain a copy of the License at
  -
  -      http://www.apache.org/licenses/LICENSE-2.0
  -
  -  Unless required by applicable law or agreed to in writing, software
  -  distributed under the License is distributed on an "AS IS" BASIS,
  -  WITHOUT WARRANTIES OR CONDITIONS OF ANY KIND, either express or implied.
  -  See the License for the specific language governing permissions and
  -  limitations under the License.
  -
  -->

<svg version="1.1" xmlns="http://www.w3.org/2000/svg" xmlns:xlink="http://www.w3.org/1999/xlink" width="26.5781" height="24.4336">
  <path d="M4.64062 24.4336C6.04688 24.4336 9.55078 22.8984 11.543 21.4688C11.7422 21.3281 11.9062 21.2695 12.0703 21.2695C12.2227 21.2812 12.375 21.293 12.5273 21.293C20.9766 21.293 26.5781 16.4883 26.5781 10.6523C26.5781 4.75781 20.6719 0 13.2891 0C5.90625 0 0 4.75781 0 10.6523C0 14.4023 2.30859 17.6953 6.07031 19.7109C6.24609 19.8047 6.30469 19.9805 6.21094 20.1562C5.55469 21.2344 4.38281 22.5234 3.9375 23.1094C3.48047 23.6953 3.73828 24.4336 4.64062 24.4336Z M7.65234 12.5273C6.67969 12.5273 5.88281 11.7305 5.88281 10.7578C5.88281 9.78516 6.67969 9 7.65234 9C8.61328 9 9.41016 9.78516 9.41016 10.7578C9.41016 11.7305 8.625 12.5273 7.65234 12.5273Z M13.2891 12.5273C12.3164 12.5273 11.5195 11.7305 11.5195 10.7578C11.5195 9.78516 12.3164 9 13.2891 9C14.2617 9 15.0586 9.78516 15.0586 10.7578C15.0586 11.7305 14.2617 12.5273 13.2891 12.5273Z M18.9375 12.5273C17.9531 12.5273 17.168 11.7305 17.168 10.7578C17.168 9.78516 17.9531 9 18.9375 9C19.8984 9 20.6953 9.78516 20.6953 10.7578C20.6953 11.7305 19.8984 12.5273 18.9375 12.5273Z"/>
</svg>
