<?xml version="1.0" encoding="UTF-8"?>

<!--
  - Copyright (c) 2023. Compose Cupertino project and open source contributors.
  -
  -  Licensed under the Apache License, Version 2.0 (the "License");
  -  you may not use this file except in compliance with the License.
  -  You may obtain a copy of the License at
  -
  -      http://www.apache.org/licenses/LICENSE-2.0
  -
  -  Unless required by applicable law or agreed to in writing, software
  -  distributed under the License is distributed on an "AS IS" BASIS,
  -  WITHOUT WARRANTIES OR CONDITIONS OF ANY KIND, either express or implied.
  -  See the License for the specific language governing permissions and
  -  limitations under the License.
  -
  -->

<svg version="1.1" xmlns="http://www.w3.org/2000/svg" xmlns:xlink="http://www.w3.org/1999/xlink" width="23.9062" height="23.918">
  <path d="M11.9531 23.9062C18.4922 23.9062 23.9062 18.4805 23.9062 11.9531C23.9062 5.41406 18.4805 0 11.9414 0C5.41406 0 0 5.41406 0 11.9531C0 18.4805 5.42578 23.9062 11.9531 23.9062Z M11.9531 14.1328C11.3438 14.1328 11.0039 13.793 10.9922 13.1719L10.8398 6.78516C10.8281 6.16406 11.2852 5.71875 11.9414 5.71875C12.5859 5.71875 13.0664 6.17578 13.0547 6.79688L12.8906 13.1719C12.8789 13.8047 12.5391 14.1328 11.9531 14.1328ZM11.9531 18.0586C11.25 18.0586 10.6406 17.4961 10.6406 16.8047C10.6406 16.1133 11.2383 15.5391 11.9531 15.5391C12.668 15.5391 13.2656 16.1016 13.2656 16.8047C13.2656 17.5078 12.6562 18.0586 11.9531 18.0586Z" />
</svg>
