<?xml version="1.0" encoding="UTF-8"?>

<!--
  - Copyright (c) 2023. Compose Cupertino project and open source contributors.
  -
  -  Licensed under the Apache License, Version 2.0 (the "License");
  -  you may not use this file except in compliance with the License.
  -  You may obtain a copy of the License at
  -
  -      http://www.apache.org/licenses/LICENSE-2.0
  -
  -  Unless required by applicable law or agreed to in writing, software
  -  distributed under the License is distributed on an "AS IS" BASIS,
  -  WITHOUT WARRANTIES OR CONDITIONS OF ANY KIND, either express or implied.
  -  See the License for the specific language governing permissions and
  -  limitations under the License.
  -
  -->

<svg version="1.1" xmlns="http://www.w3.org/2000/svg" xmlns:xlink="http://www.w3.org/1999/xlink" width="21.5742" height="21.5977">
  <path d="M3.67969 21.5977L17.8945 21.5977C20.3555 21.5977 21.5742 20.3789 21.5742 17.9648L21.5742 3.65625C21.5742 1.24219 20.3555 0.0234375 17.8945 0.0234375L3.67969 0.0234375C1.23047 0.0234375 0 1.23047 0 3.65625L0 17.9648C0 20.3906 1.23047 21.5977 3.67969 21.5977Z M10.793 12.9727C10.1836 12.9727 9.85547 12.6328 9.84375 12.0117L9.67969 5.625C9.66797 5.00391 10.125 4.55859 10.7812 4.55859C11.4258 4.55859 11.9062 5.01562 11.8945 5.63672L11.7305 12.0117C11.7188 12.6445 11.3789 12.9727 10.793 12.9727ZM10.793 16.8984C10.0898 16.8984 9.48047 16.3359 9.48047 15.6445C9.48047 14.9531 10.0781 14.3789 10.793 14.3789C11.5078 14.3789 12.1055 14.9414 12.1055 15.6445C12.1055 16.3477 11.4961 16.8984 10.793 16.8984Z"/>
</svg>
