<?xml version="1.0" encoding="UTF-8"?>

<!--
  - Copyright (c) 2023. Compose Cupertino project and open source contributors.
  -
  -  Licensed under the Apache License, Version 2.0 (the "License");
  -  you may not use this file except in compliance with the License.
  -  You may obtain a copy of the License at
  -
  -      http://www.apache.org/licenses/LICENSE-2.0
  -
  -  Unless required by applicable law or agreed to in writing, software
  -  distributed under the License is distributed on an "AS IS" BASIS,
  -  WITHOUT WARRANTIES OR CONDITIONS OF ANY KIND, either express or implied.
  -  See the License for the specific language governing permissions and
  -  limitations under the License.
  -
  -->

<svg version="1.1" xmlns="http://www.w3.org/2000/svg" xmlns:xlink="http://www.w3.org/1999/xlink" width="31.7695" height="21.9375">
 <g>
  <path d="M15.8906 20.9355C18.0586 20.9355 20.0742 20.5371 21.8438 19.8809L18.7734 16.8105C17.9062 17.2559 16.9219 17.502 15.8906 17.502C12.2344 17.502 9.33984 14.5371 9.32812 10.9746C9.32812 9.91992 9.57422 8.92383 10.0078 8.04492L6 4.01367C2.30859 6.32227 0 9.56836 0 10.9746C0 13.3418 6.62109 20.9355 15.8906 20.9355ZM26.1094 17.7363C29.5312 15.4746 31.7695 12.3691 31.7695 10.9746C31.7695 8.5957 25.2656 1.01367 15.8906 1.01367C13.8984 1.01367 12.0234 1.35352 10.3242 1.91602L13.3711 4.96289C14.1445 4.63477 14.9883 4.44727 15.8906 4.44727C19.5117 4.44727 22.4414 7.31836 22.4414 10.9746C22.4414 11.8652 22.2422 12.7207 21.8906 13.4707ZM12.1523 10.7051C12.1523 12.7676 13.8516 14.4316 15.9023 14.4316C16.0664 14.4316 16.2188 14.4199 16.3828 14.4082L12.1758 10.2012C12.1641 10.3652 12.1523 10.541 12.1523 10.7051ZM19.6172 10.7285C19.6172 8.67773 17.9648 7.01367 15.8906 7.01367C15.7383 7.01367 15.5859 7.02539 15.4453 7.03711L19.5938 11.1855C19.6055 11.0449 19.6172 10.8809 19.6172 10.7285Z" fill="#000000"/>
  <path d="M25.0078 21.123C25.3594 21.4863 25.9219 21.5098 26.2852 21.123C26.6719 20.7363 26.6367 20.209 26.2852 19.8457L6.69141 0.263672C6.33984-0.0878906 5.76562-0.0878906 5.40234 0.263672C5.0625 0.603516 5.0625 1.20117 5.40234 1.54102Z" fill="#000000"/>
 </g>
</svg>
