<?xml version="1.0" encoding="UTF-8"?>

<!--
  - Copyright (c) 2023. Compose Cupertino project and open source contributors.
  -
  -  Licensed under the Apache License, Version 2.0 (the "License");
  -  you may not use this file except in compliance with the License.
  -  You may obtain a copy of the License at
  -
  -      http://www.apache.org/licenses/LICENSE-2.0
  -
  -  Unless required by applicable law or agreed to in writing, software
  -  distributed under the License is distributed on an "AS IS" BASIS,
  -  WITHOUT WARRANTIES OR CONDITIONS OF ANY KIND, either express or implied.
  -  See the License for the specific language governing permissions and
  -  limitations under the License.
  -
  -->

<svg version="1.1" xmlns="http://www.w3.org/2000/svg" xmlns:xlink="http://www.w3.org/1999/xlink" width="31.7695" height="19.9336">
  <path d="M15.8906 19.9336C25.2773 19.9336 31.7695 12.3398 31.7695 9.97266C31.7695 7.59375 25.2656 0.0117188 15.8906 0.0117188C6.62109 0.0117188 0 7.59375 0 9.97266C0 12.3398 6.62109 19.9336 15.8906 19.9336ZM15.8906 16.5C12.2344 16.5 9.33984 13.5352 9.32812 9.97266C9.31641 6.31641 12.2344 3.44531 15.8906 3.44531C19.5117 3.44531 22.4414 6.31641 22.4414 9.97266C22.4414 13.5352 19.5117 16.5 15.8906 16.5ZM15.8906 12.3281C17.1914 12.3281 18.2695 11.2617 18.2695 9.97266C18.2695 8.67188 17.1914 7.60547 15.8906 7.60547C14.5781 7.60547 13.5 8.67188 13.5 9.97266C13.5 11.2617 14.5781 12.3281 15.8906 12.3281Z" fill="#000000"/>
</svg>
