<?xml version="1.0" encoding="UTF-8"?>

<!--
  - Copyright (c) 2023. Compose Cupertino project and open source contributors.
  -
  -  Licensed under the Apache License, Version 2.0 (the "License");
  -  you may not use this file except in compliance with the License.
  -  You may obtain a copy of the License at
  -
  -      http://www.apache.org/licenses/LICENSE-2.0
  -
  -  Unless required by applicable law or agreed to in writing, software
  -  distributed under the License is distributed on an "AS IS" BASIS,
  -  WITHOUT WARRANTIES OR CONDITIONS OF ANY KIND, either express or implied.
  -  See the License for the specific language governing permissions and
  -  limitations under the License.
  -
  -->

<svg version="1.1" xmlns="http://www.w3.org/2000/svg" xmlns:xlink="http://www.w3.org/1999/xlink" width="25.043" height="25.0664">
  <path d="M0 16.6172C0 20.3906 3.41016 24.2109 6.63281 24.2109C9.55078 24.2109 10.9922 21.5625 12.7617 16.8867C12.8555 16.8867 12.9609 16.875 13.0547 16.8633C13.1953 16.8516 13.3242 16.8398 13.4531 16.8047L13.4531 21.7852C13.4531 23.9297 14.543 25.0547 16.6055 25.0547C20.3789 25.0547 24.2109 21.6445 24.2109 18.4219C24.2109 15.5039 21.5508 14.0625 16.875 12.293C16.875 12.1992 16.8633 12.0938 16.8516 12C16.8398 11.8594 16.8281 11.7305 16.793 11.5898L21.7852 11.5898C23.918 11.5898 25.043 10.5 25.043 8.4375C25.043 4.66406 21.6328 0.832031 18.4102 0.832031C15.4922 0.832031 14.0508 3.49219 12.2812 8.16797C12.1875 8.16797 12.082 8.17969 11.9883 8.19141C11.8477 8.20312 11.7188 8.21484 11.5898 8.25L11.5898 3.26953C11.5898 1.125 10.5 0 8.4375 0C4.66406 0 0.832031 3.41016 0.832031 6.63281C0.832031 9.55078 3.49219 10.9922 8.15625 12.7617C8.16797 12.8672 8.16797 12.9844 8.17969 13.0781C8.19141 13.207 8.22656 13.3359 8.23828 13.4648L3.25781 13.4648C1.125 13.4648 0 14.543 0 16.6172ZM9.80859 12.5273C9.80859 11.0273 11.0156 9.80859 12.5156 9.80859C14.0156 9.80859 15.2344 11.0273 15.2344 12.5273C15.2344 14.0273 14.0156 15.2461 12.5156 15.2461C11.0273 15.2461 9.80859 14.0273 9.80859 12.5273ZM10.9102 12.5273C10.9102 13.418 11.6133 14.1211 12.5156 14.1211C13.4062 14.1211 14.1094 13.418 14.1094 12.5273C14.1094 11.6367 13.3945 10.9219 12.5156 10.9219C11.6133 10.9219 10.9102 11.625 10.9102 12.5273Z" fill="#000000"/>
</svg>
