<?xml version="1.0" encoding="UTF-8"?>

<!--
  - Copyright (c) 2023. Compose Cupertino project and open source contributors.
  -
  -  Licensed under the Apache License, Version 2.0 (the "License");
  -  you may not use this file except in compliance with the License.
  -  You may obtain a copy of the License at
  -
  -      http://www.apache.org/licenses/LICENSE-2.0
  -
  -  Unless required by applicable law or agreed to in writing, software
  -  distributed under the License is distributed on an "AS IS" BASIS,
  -  WITHOUT WARRANTIES OR CONDITIONS OF ANY KIND, either express or implied.
  -  See the License for the specific language governing permissions and
  -  limitations under the License.
  -
  -->

<svg version="1.1" xmlns="http://www.w3.org/2000/svg" xmlns:xlink="http://www.w3.org/1999/xlink" width="25.207" height="25.2305">
 <g>
  <path d="M18.5039 0.832031C15.4219 0.832031 13.6758 3.77344 12.1523 8.95312L14.9648 11.7539L21.8789 11.7539C24.0352 11.7539 25.207 10.5938 25.207 8.50781C25.1953 4.75781 21.8086 0.832031 18.5039 0.832031ZM6.71484 24.3633C9.79688 24.3633 11.4961 21.4453 13.0664 16.3008L10.2188 13.4648L3.35156 13.4648C1.16016 13.4648 0 14.5898 0 16.6992C0.0117188 20.4609 3.39844 24.3633 6.71484 24.3633ZM8.53125 0C7.125 0 5.69531 0.492188 4.48828 1.27734L11.7656 8.55469L11.7656 3.35156C11.7656 1.19531 10.6055 0 8.53125 0ZM0.855469 6.71484C0.855469 10.0898 4.37109 11.8008 10.3594 13.5938L1.37109 4.59375C1.04297 5.27344 0.855469 5.98828 0.855469 6.71484ZM24.375 18.5039C24.375 15.1289 20.8477 13.418 14.8242 11.625L23.8594 20.6602C24.1875 19.9688 24.375 19.2305 24.375 18.5039ZM16.7109 25.2188C18.1172 25.207 19.5234 24.75 20.7305 23.9648L13.4648 16.6992L13.4648 21.8789C13.4648 24.0352 14.625 25.2188 16.7109 25.2188Z" fill="#000000"/>
  <path d="M22.7227 24.0117C23.0742 24.3633 23.6484 24.3516 24 24C24.3398 23.6484 24.3516 23.0742 24 22.7227L2.49609 1.23047C2.14453 0.878906 1.57031 0.867188 1.20703 1.23047C0.867188 1.57031 0.867188 2.15625 1.20703 2.50781Z" fill="#000000"/>
 </g>
</svg>
