<?xml version="1.0" encoding="UTF-8"?>

<!--
  - Copyright (c) 2023. Compose Cupertino project and open source contributors.
  -
  -  Licensed under the Apache License, Version 2.0 (the "License");
  -  you may not use this file except in compliance with the License.
  -  You may obtain a copy of the License at
  -
  -      http://www.apache.org/licenses/LICENSE-2.0
  -
  -  Unless required by applicable law or agreed to in writing, software
  -  distributed under the License is distributed on an "AS IS" BASIS,
  -  WITHOUT WARRANTIES OR CONDITIONS OF ANY KIND, either express or implied.
  -  See the License for the specific language governing permissions and
  -  limitations under the License.
  -
  -->

<svg version="1.1" xmlns="http://www.w3.org/2000/svg" xmlns:xlink="http://www.w3.org/1999/xlink" width="22.1675" height="27.5156">
 <g>
  <path d="M0.594727 24.3809C0.594727 24.8613 1.00488 25.2598 1.48535 25.2598C1.97754 25.2598 2.37598 24.873 2.37598 24.3809L2.37598 17.8652C2.66895 17.7363 3.77051 17.3145 5.49316 17.3145C9.65332 17.3145 12.2432 19.248 16.1689 19.4238L0.829102 4.10742C0.688477 4.33008 0.594727 4.58789 0.594727 4.9043ZM5.52832 2.26758L21.1143 17.8418C21.3135 17.5605 21.4072 17.209 21.4072 16.7871L21.4072 4.89258C21.4072 4.25977 20.8682 3.89648 20.1885 3.89648C19.6143 3.89648 18.5361 4.38867 16.5205 4.38867C12.4775 4.38867 9.78223 2.33789 5.52832 2.26758Z" fill="#000000"/>
  <path d="M20.6221 21.8965C20.9854 22.248 21.5596 22.248 21.8994 21.8965C22.251 21.5332 22.2627 20.9707 21.8994 20.6191L1.54395 0.263672C1.19238-0.0878906 0.606445-0.0878906 0.254883 0.263672C-0.0849609 0.603516-0.0849609 1.20117 0.254883 1.54102Z" fill="#000000"/>
 </g>
</svg>
