<?xml version="1.0" encoding="UTF-8"?>

<!--
  - Copyright (c) 2023. Compose Cupertino project and open source contributors.
  -
  -  Licensed under the Apache License, Version 2.0 (the "License");
  -  you may not use this file except in compliance with the License.
  -  You may obtain a copy of the License at
  -
  -      http://www.apache.org/licenses/LICENSE-2.0
  -
  -  Unless required by applicable law or agreed to in writing, software
  -  distributed under the License is distributed on an "AS IS" BASIS,
  -  WITHOUT WARRANTIES OR CONDITIONS OF ANY KIND, either express or implied.
  -  See the License for the specific language governing permissions and
  -  limitations under the License.
  -
  -->

<svg version="1.1" xmlns="http://www.w3.org/2000/svg" xmlns:xlink="http://www.w3.org/1999/xlink" width="19.5234" height="27.4805">
  <path d="M9.21094 25.3477C15.3984 25.3477 19.5234 21.1641 19.5234 14.8594C19.5234 4.37109 10.5938 0 4.39453 0C3.29297 0 2.58984 0.386719 2.58984 1.13672C2.58984 1.42969 2.71875 1.73438 2.96484 2.01562C4.35938 3.67969 5.75391 5.66016 5.77734 7.96875C5.77734 8.49609 5.71875 8.96484 5.34375 9.62109L5.92969 9.50391C5.40234 7.78125 3.98438 6.5625 2.74219 6.5625C2.26172 6.5625 1.93359 6.91406 1.93359 7.44141C1.93359 7.74609 2.01562 8.46094 2.01562 8.97656C2.01562 11.6016 0 13.1367 0 17.3672C0 22.1602 3.66797 25.3477 9.21094 25.3477ZM9.48047 22.0547C7.28906 22.0547 5.83594 20.7305 5.83594 18.7617C5.83594 16.6992 7.30078 15.9609 7.48828 14.6367C7.51172 14.5312 7.58203 14.4961 7.66406 14.5664C8.20312 15.0469 8.55469 15.6328 8.84766 16.3125C9.46875 15.4688 9.76172 13.6875 9.5625 11.7656C9.55078 11.6602 9.62109 11.6016 9.72656 11.6367C12.293 12.8438 13.6289 15.3984 13.6289 17.6836C13.6289 20.0039 12.2695 22.0547 9.48047 22.0547Z" fill="#000000"/>
</svg>
