<?xml version="1.0" encoding="UTF-8"?>

<!--
  - Copyright (c) 2023. Compose Cupertino project and open source contributors.
  -
  -  Licensed under the Apache License, Version 2.0 (the "License");
  -  you may not use this file except in compliance with the License.
  -  You may obtain a copy of the License at
  -
  -      http://www.apache.org/licenses/LICENSE-2.0
  -
  -  Unless required by applicable law or agreed to in writing, software
  -  distributed under the License is distributed on an "AS IS" BASIS,
  -  WITHOUT WARRANTIES OR CONDITIONS OF ANY KIND, either express or implied.
  -  See the License for the specific language governing permissions and
  -  limitations under the License.
  -
  -->

<svg version="1.1" xmlns="http://www.w3.org/2000/svg" xmlns:xlink="http://www.w3.org/1999/xlink" width="23.6909" height="23.6968">
  <path d="M2.62574 23.1511C4.77028 23.7839 7.17262 23.8542 9.58668 23.3738L0.31715 14.1042C-0.163319 16.5183-0.104725 18.9207 0.539806 21.0652C0.926525 22.3542 1.33668 22.7644 2.62574 23.1511ZM18.5164 18.5105C20.45 16.6003 21.8445 14.3386 22.6882 11.9949L11.6961 1.00269C9.35231 1.84644 7.10231 3.24097 5.16871 5.17456C3.23512 7.08472 1.85231 9.34644 0.996838 11.6902L11.989 22.6824C14.3445 21.8386 16.5945 20.4441 18.5164 18.5105ZM10.2078 16.6355C9.99684 16.8347 9.66871 16.8347 9.45778 16.6238L7.05543 14.2214C6.85621 14.0222 6.85621 13.6941 7.05543 13.4832C7.26637 13.2605 7.60621 13.2605 7.80543 13.4714L8.63746 14.3035L9.50465 13.4246L8.67262 12.6042C8.4734 12.405 8.4734 12.0652 8.67262 11.8542C8.88356 11.6433 9.2234 11.6433 9.43434 11.8425L10.2547 12.6863L11.1218 11.8074L10.2898 10.9871C10.0906 10.7878 10.0789 10.448 10.2898 10.2371C10.5007 10.0261 10.8523 10.0261 11.0398 10.2253L11.8718 11.0574L12.7507 10.1902L11.907 9.36987C11.7078 9.17065 11.6961 8.83081 11.907 8.61987C12.1179 8.40894 12.4578 8.40894 12.657 8.60815L13.489 9.44019L14.3679 8.573L13.5359 7.74097C13.325 7.54175 13.3132 7.21362 13.5359 7.00269C13.7351 6.80347 14.075 6.80347 14.2742 6.99097L16.6882 9.40503C16.8875 9.61597 16.8875 9.94409 16.6882 10.155C16.4773 10.366 16.1375 10.3542 15.9265 10.1433L15.1062 9.323L14.239 10.1902L15.0711 11.0222C15.282 11.2332 15.282 11.5613 15.0711 11.7839C14.8484 11.9832 14.5203 11.9714 14.3211 11.7722L13.489 10.9519L12.6218 11.8074L13.4539 12.6394C13.6648 12.8386 13.6648 13.1785 13.4539 13.4011C13.2312 13.6121 12.9031 13.6003 12.7039 13.3894L11.8718 12.5691L11.0047 13.4246L11.825 14.2566C12.0359 14.4558 12.0359 14.8074 11.825 15.0183C11.614 15.2175 11.2859 15.2175 11.0867 15.0066L10.2547 14.1863L9.38746 15.0535L10.2078 15.8738C10.4187 16.0847 10.4187 16.4246 10.2078 16.6355ZM23.157 2.61987C22.7586 1.33081 22.3601 0.932373 21.0711 0.533936C18.9265-0.098877 16.5242-0.169189 14.1101 0.322998L23.3679 9.58081C23.8601 7.16675 23.7898 4.7644 23.157 2.61987Z" fill="#000000"/>
</svg>
