<?xml version="1.0" encoding="UTF-8"?>

<!--
  - Copyright (c) 2023. Compose Cupertino project and open source contributors.
  -
  -  Licensed under the Apache License, Version 2.0 (the "License");
  -  you may not use this file except in compliance with the License.
  -  You may obtain a copy of the License at
  -
  -      http://www.apache.org/licenses/LICENSE-2.0
  -
  -  Unless required by applicable law or agreed to in writing, software
  -  distributed under the License is distributed on an "AS IS" BASIS,
  -  WITHOUT WARRANTIES OR CONDITIONS OF ANY KIND, either express or implied.
  -  See the License for the specific language governing permissions and
  -  limitations under the License.
  -
  -->

<svg version="1.1" xmlns="http://www.w3.org/2000/svg" xmlns:xlink="http://www.w3.org/1999/xlink" width="23.9062" height="23.918">
  <path d="M11.9531 23.9062C18.4922 23.9062 23.9062 18.4805 23.9062 11.9531C23.9062 5.41406 18.4805 0 11.9414 0C5.41406 0 0 5.41406 0 11.9531C0 18.4805 5.42578 23.9062 11.9531 23.9062Z M9.33984 19.8633C8.77734 19.8633 8.41406 19.5586 8.42578 18.9961L8.56641 11.332C8.56641 11.0977 8.46094 10.9102 8.25 10.8164C7.33594 10.4297 6.94922 10.0195 7.00781 8.8125L7.19531 4.62891C7.20703 4.32422 7.38281 4.14844 7.65234 4.14844C7.93359 4.14844 8.09766 4.33594 8.09766 4.64062L8.03906 8.73047C8.03906 8.95312 8.20312 9.11719 8.41406 9.11719C8.66016 9.11719 8.8125 8.95312 8.8125 8.74219L8.88281 4.53516C8.88281 4.23047 9.07031 4.06641 9.33984 4.06641C9.60938 4.06641 9.80859 4.23047 9.80859 4.53516L9.85547 8.74219C9.85547 8.95312 10.0195 9.11719 10.2539 9.11719C10.4883 9.11719 10.6523 8.95312 10.6523 8.73047L10.5938 4.64062C10.5938 4.33594 10.7578 4.14844 11.0273 4.14844C11.3086 4.14844 11.4609 4.32422 11.4844 4.62891L11.6836 8.8125C11.7422 10.0195 11.3438 10.4297 10.4414 10.8164C10.2305 10.9102 10.1367 11.0977 10.1367 11.332L10.2539 18.9961C10.2773 19.5586 9.91406 19.8633 9.33984 19.8633ZM14.2266 14.0625C14.2383 13.8047 14.1211 13.6172 13.875 13.4531L13.4883 13.1719C13.1484 12.9258 12.9609 12.5977 12.9609 12.1172L12.9609 11.6602C12.9609 8.94141 13.6875 6.05859 14.7891 4.52344C15 4.20703 15.1875 4.06641 15.4336 4.06641C15.6797 4.06641 15.9258 4.21875 15.9258 4.57031L15.9258 19.0312C15.9258 19.582 15.5742 19.8633 14.9883 19.8633C14.4375 19.8633 14.0625 19.5586 14.0742 18.9609Z" />
</svg>
