<?xml version="1.0" encoding="UTF-8"?>

<!--
  - Copyright (c) 2023. Compose Cupertino project and open source contributors.
  -
  -  Licensed under the Apache License, Version 2.0 (the "License");
  -  you may not use this file except in compliance with the License.
  -  You may obtain a copy of the License at
  -
  -      http://www.apache.org/licenses/LICENSE-2.0
  -
  -  Unless required by applicable law or agreed to in writing, software
  -  distributed under the License is distributed on an "AS IS" BASIS,
  -  WITHOUT WARRANTIES OR CONDITIONS OF ANY KIND, either express or implied.
  -  See the License for the specific language governing permissions and
  -  limitations under the License.
  -
  -->

<svg version="1.1" xmlns="http://www.w3.org/2000/svg" xmlns:xlink="http://www.w3.org/1999/xlink" width="32.2734" height="18.4336">
  <path d="M1.6875 18.4336C2.16797 18.4336 2.56641 18.2812 3.03516 18L14.9766 10.9688C15.8086 10.4766 16.1719 9.90234 16.1719 9.22266C16.1719 8.55469 15.8086 7.98047 14.9766 7.48828L3.03516 0.457031C2.55469 0.175781 2.16797 0.0234375 1.6875 0.0234375C0.773438 0.0234375 0 0.726562 0 2.02734L0 16.4297C0 17.7305 0.773438 18.4336 1.6875 18.4336ZM17.7891 18.4336C18.2695 18.4336 18.668 18.2812 19.1367 18L31.0898 10.9688C31.9102 10.4766 32.2734 9.90234 32.2734 9.22266C32.2734 8.55469 31.9102 7.98047 31.0898 7.48828L19.1367 0.457031C18.668 0.175781 18.2695 0.0234375 17.7891 0.0234375C16.875 0.0234375 16.1016 0.726562 16.1016 2.02734L16.1016 16.4297C16.1016 17.7305 16.875 18.4336 17.7891 18.4336Z" fill="#000000"/>
</svg>
