<?xml version="1.0" encoding="UTF-8"?>

<!--
  - Copyright (c) 2023. Compose Cupertino project and open source contributors.
  -
  -  Licensed under the Apache License, Version 2.0 (the "License");
  -  you may not use this file except in compliance with the License.
  -  You may obtain a copy of the License at
  -
  -      http://www.apache.org/licenses/LICENSE-2.0
  -
  -  Unless required by applicable law or agreed to in writing, software
  -  distributed under the License is distributed on an "AS IS" BASIS,
  -  WITHOUT WARRANTIES OR CONDITIONS OF ANY KIND, either express or implied.
  -  See the License for the specific language governing permissions and
  -  limitations under the License.
  -
  -->

<svg version="1.1" xmlns="http://www.w3.org/2000/svg" xmlns:xlink="http://www.w3.org/1999/xlink" width="21.8906" height="19.0898">
  <path d="M17.6602 19.0898L20.332 19.0898C21.3633 19.0898 21.8906 18.5508 21.8906 17.5195L21.8906 1.55859C21.8906 0.492188 21.3633 0 20.332 0L17.6602 0C16.6406 0 16.1016 0.539062 16.1016 1.55859L16.1016 17.5195C16.1016 18.5508 16.6406 19.0898 17.6602 19.0898ZM1.6875 18.7383C2.16797 18.7383 2.55469 18.5859 3.03516 18.3047L14.9766 11.2852C15.8086 10.793 16.1602 10.207 16.1602 9.53906C16.1602 8.85938 15.8086 8.28516 14.9766 7.79297L3.03516 0.761719C2.55469 0.480469 2.16797 0.328125 1.6875 0.328125C0.761719 0.328125 0 1.03125 0 2.34375L0 16.7344C0 18.0469 0.761719 18.7383 1.6875 18.7383Z" fill="#000000"/>
</svg>
