<?xml version="1.0" encoding="UTF-8"?>

<!--
  - Copyright (c) 2023. Compose Cupertino project and open source contributors.
  -
  -  Licensed under the Apache License, Version 2.0 (the "License");
  -  you may not use this file except in compliance with the License.
  -  You may obtain a copy of the License at
  -
  -      http://www.apache.org/licenses/LICENSE-2.0
  -
  -  Unless required by applicable law or agreed to in writing, software
  -  distributed under the License is distributed on an "AS IS" BASIS,
  -  WITHOUT WARRANTIES OR CONDITIONS OF ANY KIND, either express or implied.
  -  See the License for the specific language governing permissions and
  -  limitations under the License.
  -
  -->

<svg version="1.1" xmlns="http://www.w3.org/2000/svg" xmlns:xlink="http://www.w3.org/1999/xlink" width="23.5312" height="26.1445">
  <path d="M17.2148 25.2656L17.2148 2.97656C17.2148 1.05469 16.1602 0 14.25 0L4.80469 0C2.87109 0 1.85156 1.05469 1.85156 2.97656L1.85156 25.2656ZM5.19141 12.2344C4.33594 12.2344 3.82031 11.7656 3.82031 10.9805L3.82031 3.24609C3.82031 2.46094 4.33594 1.98047 5.19141 1.98047L13.8633 1.98047C14.7188 1.98047 15.2461 2.46094 15.2461 3.24609L15.2461 10.9805C15.2461 11.7656 14.7188 12.2344 13.8633 12.2344ZM0 25.1836C0 25.7109 0.410156 26.1445 0.925781 26.1445L18.1172 26.1445C18.6328 26.1445 19.0664 25.7109 19.0664 25.1836C19.0664 24.6797 18.6328 24.2578 18.1172 24.2578L0.925781 24.2578C0.421875 24.2578 0 24.668 0 25.1836ZM16.3125 15.4336L17.332 15.4336C17.8711 15.4336 18.2109 15.7383 18.2109 16.3242L18.2109 20.2031C18.2109 21.8672 19.2188 22.875 20.8828 22.875C22.5352 22.875 23.5312 21.8672 23.5312 20.2031L23.5312 5.84766C23.5312 5.14453 23.3438 4.60547 23.0039 4.06641L21.3984 1.46484C20.8008 0.515625 19.4062 1.37109 20.0039 2.33203L21.375 4.55859C21.5039 4.76953 21.4922 5.01562 21.3516 5.22656L19.8164 7.37109C19.3125 8.0625 19.3828 8.71875 19.9102 9.33984L21.8789 11.625L21.8789 20.2031C21.8789 20.8359 21.5039 21.2227 20.8828 21.2227C20.2383 21.2227 19.8633 20.8359 19.8633 20.2031L19.8633 16.3242C19.8633 14.707 18.9023 13.7812 17.332 13.7812L16.3125 13.7812Z" fill="#000000"/>
</svg>
