<?xml version="1.0" encoding="UTF-8"?>

<!--
  - Copyright (c) 2023. Compose Cupertino project and open source contributors.
  -
  -  Licensed under the Apache License, Version 2.0 (the "License");
  -  you may not use this file except in compliance with the License.
  -  You may obtain a copy of the License at
  -
  -      http://www.apache.org/licenses/LICENSE-2.0
  -
  -  Unless required by applicable law or agreed to in writing, software
  -  distributed under the License is distributed on an "AS IS" BASIS,
  -  WITHOUT WARRANTIES OR CONDITIONS OF ANY KIND, either express or implied.
  -  See the License for the specific language governing permissions and
  -  limitations under the License.
  -
  -->

<svg version="1.1" xmlns="http://www.w3.org/2000/svg" xmlns:xlink="http://www.w3.org/1999/xlink" width="33.832" height="21.2461">
  <path d="M7.42969 8.27344C7.42969 7.6875 7.79297 7.32422 8.40234 7.32422L10.5117 7.32422L10.5117 5.27344C10.5117 4.67578 10.8516 4.3125 11.4375 4.3125C12.0117 4.3125 12.3633 4.67578 12.3633 5.27344L12.3633 7.32422L14.3438 7.32422C15 7.32422 15.3867 7.6875 15.3867 8.27344C15.3867 8.88281 15 9.25781 14.3438 9.25781L12.3633 9.25781L12.3633 11.3086C12.3633 11.9062 12.0117 12.2812 11.4375 12.2812C10.8516 12.2812 10.5117 11.9062 10.5117 11.3086L10.5117 9.25781L8.40234 9.25781C7.79297 9.25781 7.42969 8.88281 7.42969 8.27344ZM18.9492 9.91406C18.9492 8.95312 19.6992 8.21484 20.6367 8.21484C21.5859 8.21484 22.3242 8.95312 22.3242 9.91406C22.3242 10.8633 21.5859 11.6016 20.6367 11.6016C19.6992 11.6016 18.9492 10.8633 18.9492 9.91406ZM22.4062 6.44531C22.4062 5.48438 23.1445 4.74609 24.082 4.74609C25.043 4.74609 25.7695 5.48438 25.7695 6.44531C25.7695 7.39453 25.043 8.12109 24.082 8.12109C23.1445 8.12109 22.4062 7.39453 22.4062 6.44531ZM4.46484 21.2461C6.07031 21.2461 7.17188 20.6602 8.15625 19.4414L10.2773 16.875C10.582 16.5117 10.9336 16.3359 11.2852 16.3359L22.5469 16.3359C22.8984 16.3359 23.25 16.5117 23.5547 16.875L25.6758 19.4414C26.6602 20.6602 27.7617 21.2461 29.3672 21.2461C32.0508 21.2461 33.832 19.4648 33.832 16.7227C33.832 15.5508 33.5625 14.2031 33.1055 12.6914C32.3906 10.2891 31.1367 7.01953 29.9414 4.48828C28.9336 2.37891 28.418 1.41797 25.9336 0.855469C23.7305 0.351562 20.6719 0.0117188 16.9219 0.0117188C13.1719 0.0117188 10.1016 0.351562 7.89844 0.855469C5.41406 1.41797 4.89844 2.37891 3.89062 4.48828C2.69531 7.01953 1.44141 10.2891 0.726562 12.6914C0.269531 14.2031 0 15.5508 0 16.7227C0 19.4648 1.78125 21.2461 4.46484 21.2461Z" fill="#000000"/>
</svg>
