<?xml version="1.0" encoding="UTF-8"?>

<!--
  - Copyright (c) 2023. Compose Cupertino project and open source contributors.
  -
  -  Licensed under the Apache License, Version 2.0 (the "License");
  -  you may not use this file except in compliance with the License.
  -  You may obtain a copy of the License at
  -
  -      http://www.apache.org/licenses/LICENSE-2.0
  -
  -  Unless required by applicable law or agreed to in writing, software
  -  distributed under the License is distributed on an "AS IS" BASIS,
  -  WITHOUT WARRANTIES OR CONDITIONS OF ANY KIND, either express or implied.
  -  See the License for the specific language governing permissions and
  -  limitations under the License.
  -
  -->

<svg version="1.1" xmlns="http://www.w3.org/2000/svg" xmlns:xlink="http://www.w3.org/1999/xlink" width="24.4922" height="24.5039">
  <path d="M11.168 24.4922L13.3242 24.4922C13.9336 24.4922 14.3789 24.1289 14.5078 23.5312L15.1172 20.9531C15.5742 20.8008 16.0195 20.625 16.4062 20.4375L18.668 21.8203C19.1719 22.1367 19.7461 22.0898 20.168 21.668L21.6797 20.168C22.1016 19.7461 22.1602 19.1367 21.8203 18.6328L20.4375 16.3945C20.6367 15.9844 20.8125 15.5625 20.9414 15.1406L23.543 14.5195C24.1406 14.3906 24.4922 13.9453 24.4922 13.3359L24.4922 11.2148C24.4922 10.6172 24.1406 10.1719 23.543 10.043L20.9648 9.42188C20.8125 8.94141 20.625 8.50781 20.4609 8.14453L21.8438 5.87109C22.1719 5.36719 22.1367 4.79297 21.7031 4.37109L20.168 2.85938C19.7344 2.46094 19.2188 2.39062 18.7031 2.68359L16.4062 4.10156C16.0312 3.90234 15.5977 3.72656 15.1172 3.57422L14.5078 0.960938C14.3789 0.363281 13.9336 0 13.3242 0L11.168 0C10.5586 0 10.1133 0.363281 9.97266 0.960938L9.36328 3.55078C8.90625 3.70312 8.46094 3.87891 8.0625 4.08984L5.78906 2.68359C5.27344 2.39062 4.74609 2.44922 4.3125 2.85938L2.78906 4.37109C2.35547 4.79297 2.30859 5.36719 2.64844 5.87109L4.01953 8.14453C3.86719 8.50781 3.67969 8.94141 3.52734 9.42188L0.949219 10.043C0.351562 10.1719 0 10.6172 0 11.2148L0 13.3359C0 13.9453 0.351562 14.3906 0.949219 14.5195L3.55078 15.1406C3.67969 15.5625 3.85547 15.9844 4.04297 16.3945L2.67188 18.6328C2.32031 19.1367 2.39062 19.7461 2.8125 20.168L4.3125 21.668C4.73438 22.0898 5.32031 22.1367 5.82422 21.8203L8.07422 20.4375C8.47266 20.625 8.90625 20.8008 9.36328 20.9531L9.97266 23.5312C10.1133 24.1289 10.5586 24.4922 11.168 24.4922ZM12.2461 16.3828C9.97266 16.3828 8.10938 14.5078 8.10938 12.2344C8.10938 9.97266 9.97266 8.10938 12.2461 8.10938C14.5195 8.10938 16.3828 9.97266 16.3828 12.2344C16.3828 14.5078 14.5195 16.3828 12.2461 16.3828Z" fill="#000000"/>
</svg>
