<?xml version="1.0" encoding="UTF-8"?>

<!--
  - Copyright (c) 2023. Compose Cupertino project and open source contributors.
  -
  -  Licensed under the Apache License, Version 2.0 (the "License");
  -  you may not use this file except in compliance with the License.
  -  You may obtain a copy of the License at
  -
  -      http://www.apache.org/licenses/LICENSE-2.0
  -
  -  Unless required by applicable law or agreed to in writing, software
  -  distributed under the License is distributed on an "AS IS" BASIS,
  -  WITHOUT WARRANTIES OR CONDITIONS OF ANY KIND, either express or implied.
  -  See the License for the specific language governing permissions and
  -  limitations under the License.
  -
  -->

<svg version="1.1" xmlns="http://www.w3.org/2000/svg" xmlns:xlink="http://www.w3.org/1999/xlink" width="32.3438" height="25.6992">
  <path d="M8.44922 18.4922L10.043 18.4922C10.5352 18.4922 10.8516 18.2109 10.9688 17.7656L11.4375 15.832C11.7656 15.7148 12.082 15.5977 12.3633 15.4336L14.0625 16.4883C14.4492 16.7227 14.9062 16.6875 15.2344 16.3594L16.3594 15.2227C16.6758 14.8945 16.7344 14.4258 16.4883 14.0273L15.4453 12.3633C15.5859 12.0703 15.7266 11.7656 15.8203 11.4492L17.7539 10.9805C18.2227 10.875 18.4922 10.5469 18.4922 10.0664L18.4922 8.48438C18.4922 8.01562 18.2227 7.67578 17.7539 7.57031L15.8438 7.08984C15.7266 6.73828 15.5859 6.43359 15.4688 6.17578L16.4883 4.47656C16.7227 4.06641 16.7227 3.63281 16.3828 3.30469L15.2344 2.17969C14.9062 1.875 14.4727 1.79297 14.0859 2.02734L12.3633 3.09375C12.0938 2.94141 11.7773 2.8125 11.4375 2.70703L10.9688 0.738281C10.8516 0.292969 10.5352 0.0117188 10.043 0.0117188L8.44922 0.0117188C7.95703 0.0117188 7.62891 0.292969 7.52344 0.738281L7.05469 2.68359C6.72656 2.80078 6.39844 2.91797 6.11719 3.08203L4.40625 2.02734C4.01953 1.79297 3.58594 1.86328 3.25781 2.17969L2.10938 3.30469C1.76953 3.63281 1.76953 4.06641 2.00391 4.47656L3.02344 6.17578C2.90625 6.43359 2.76562 6.73828 2.64844 7.08984L0.726562 7.57031C0.269531 7.67578 0 8.01562 0 8.48438L0 10.0664C0 10.5469 0.269531 10.875 0.726562 10.9805L2.67188 11.4492C2.76562 11.7656 2.90625 12.0703 3.04688 12.3633L2.00391 14.0273C1.75781 14.4258 1.81641 14.8945 2.13281 15.2227L3.25781 16.3594C3.58594 16.6875 4.04297 16.7227 4.42969 16.4883L6.12891 15.4336C6.41016 15.5977 6.72656 15.7148 7.05469 15.832L7.52344 17.7656C7.62891 18.2109 7.95703 18.4922 8.44922 18.4922ZM9.24609 12.1992C7.62891 12.1992 6.29297 10.8633 6.29297 9.23438C6.29297 7.62891 7.62891 6.30469 9.24609 6.30469C10.8633 6.30469 12.1992 7.62891 12.1992 9.23438C12.1992 10.8633 10.8633 12.1992 9.24609 12.1992ZM23.7422 25.6992L25.0781 25.6992C25.5117 25.6992 25.8047 25.4531 25.8867 25.0781L26.2734 23.4023C26.5781 23.2852 26.8477 23.1914 27.0938 23.0508L28.5586 23.9648C28.8867 24.1758 29.2734 24.1523 29.5664 23.8594L30.5039 22.9102C30.7969 22.6172 30.8438 22.207 30.6211 21.8789L29.7188 20.4258C29.8477 20.1797 29.9531 19.9102 30.0469 19.6406L31.7344 19.2422C32.1211 19.1602 32.3438 18.8672 32.3438 18.4453L32.3438 17.1211C32.3438 16.6992 32.1211 16.4062 31.7344 16.3125L30.0586 15.9141C29.9531 15.6094 29.8477 15.3398 29.7305 15.1172L30.6211 13.6406C30.8438 13.2891 30.832 12.9258 30.5273 12.6328L29.5664 11.6953C29.2734 11.4258 28.8984 11.3555 28.5703 11.5547L27.0938 12.4805C26.8594 12.3633 26.5781 12.2344 26.2734 12.1523L25.8867 10.4414C25.8047 10.0664 25.5117 9.80859 25.0781 9.80859L23.7422 9.80859C23.3203 9.80859 23.0273 10.0664 22.9336 10.4414L22.5352 12.1289C22.2539 12.2344 21.9609 12.3281 21.7148 12.4688L20.2383 11.5547C19.9219 11.3672 19.5469 11.4141 19.2539 11.6953L18.3047 12.6328C18 12.9258 17.9883 13.2891 18.1992 13.6406L19.0781 15.1172C18.9727 15.3398 18.8672 15.6094 18.7617 15.9141L17.0977 16.3125C16.6992 16.4062 16.4648 16.6992 16.4648 17.1211L16.4648 18.4453C16.4648 18.8672 16.6992 19.1602 17.0977 19.2422L18.7852 19.6406C18.8672 19.9102 18.9727 20.1797 19.1016 20.4258L18.1992 21.8789C17.9766 22.207 18.0352 22.6172 18.3164 22.9102L19.2539 23.8594C19.5469 24.1523 19.9336 24.1758 20.2617 23.9648L21.7266 23.0508C21.9727 23.1914 22.2539 23.2852 22.5352 23.4023L22.9336 25.0781C23.0273 25.4531 23.3203 25.6992 23.7422 25.6992ZM24.4102 20.0977C23.1211 20.0977 22.0664 19.043 22.0664 17.7422C22.0664 16.4648 23.1211 15.4102 24.4102 15.4102C25.6992 15.4102 26.7539 16.4648 26.7539 17.7422C26.7539 19.043 25.6992 20.0977 24.4102 20.0977Z" fill="#000000"/>
</svg>
