<?xml version="1.0" encoding="UTF-8"?>

<!--
  - Copyright (c) 2023. Compose Cupertino project and open source contributors.
  -
  -  Licensed under the Apache License, Version 2.0 (the "License");
  -  you may not use this file except in compliance with the License.
  -  You may obtain a copy of the License at
  -
  -      http://www.apache.org/licenses/LICENSE-2.0
  -
  -  Unless required by applicable law or agreed to in writing, software
  -  distributed under the License is distributed on an "AS IS" BASIS,
  -  WITHOUT WARRANTIES OR CONDITIONS OF ANY KIND, either express or implied.
  -  See the License for the specific language governing permissions and
  -  limitations under the License.
  -
  -->

<svg version="1.1" xmlns="http://www.w3.org/2000/svg" xmlns:xlink="http://www.w3.org/1999/xlink" width="22.5117" height="25.8867">
  <path d="M1.67578 21.5859C1.67578 23.543 2.82422 24.5625 4.78125 24.5625L10.2891 24.5625L10.2891 14.0391L1.67578 14.0391ZM12.2109 24.5625L17.7305 24.5625C19.6758 24.5625 20.8359 23.543 20.8359 21.5859L20.8359 14.0391L12.2109 14.0391ZM0 11.0391C0 12.293 0.703125 12.7852 1.96875 12.7852L10.2891 12.7852L10.2891 6.44531L8.46094 6.44531C6.62109 6.44531 5.54297 5.28516 5.54297 3.99609C5.54297 2.70703 6.48047 1.95703 7.76953 1.95703C9.16406 1.95703 10.2891 3.01172 10.2891 4.74609L10.2891 6.44531L12.2109 6.44531L12.2109 4.74609C12.2109 3.01172 13.3359 1.95703 14.7305 1.95703C16.0195 1.95703 16.957 2.70703 16.957 3.99609C16.957 5.28516 15.8906 6.44531 14.0391 6.44531L12.2109 6.44531L12.2109 12.7852L20.543 12.7852C21.8086 12.7852 22.5117 12.293 22.5117 11.0391L22.5117 8.19141C22.5117 6.9375 21.8086 6.44531 20.543 6.44531L17.8242 6.44531C18.5039 5.80078 18.9141 4.92188 18.9141 3.89062C18.9141 1.61719 17.1211 0 14.8477 0C13.207 0 11.8477 0.902344 11.25 2.47266C10.6523 0.902344 9.30469 0 7.65234 0C5.39062 0 3.58594 1.61719 3.58594 3.89062C3.58594 4.92188 3.99609 5.80078 4.6875 6.44531L1.96875 6.44531C0.761719 6.44531 0 6.9375 0 8.19141Z" fill="#000000"/>
</svg>
