<?xml version="1.0" encoding="UTF-8"?>

<!--
  - Copyright (c) 2023. Compose Cupertino project and open source contributors.
  -
  -  Licensed under the Apache License, Version 2.0 (the "License");
  -  you may not use this file except in compliance with the License.
  -  You may obtain a copy of the License at
  -
  -      http://www.apache.org/licenses/LICENSE-2.0
  -
  -  Unless required by applicable law or agreed to in writing, software
  -  distributed under the License is distributed on an "AS IS" BASIS,
  -  WITHOUT WARRANTIES OR CONDITIONS OF ANY KIND, either express or implied.
  -  See the License for the specific language governing permissions and
  -  limitations under the License.
  -
  -->

<svg version="1.1" xmlns="http://www.w3.org/2000/svg" xmlns:xlink="http://www.w3.org/1999/xlink" width="27.5391" height="20.0273">
  <path d="M0 9.86719L8.75391 9.86719C7.18359 9.16406 6.09375 7.86328 6.09375 6.29297C6.09375 4.47656 7.44141 3.12891 9.23438 3.12891C10.8047 3.12891 12.1992 4.10156 13.0078 5.69531L13.0078 0.0117188L14.543 0.0117188L14.543 5.69531C15.3633 4.10156 16.7578 3.12891 18.3164 3.12891C20.1211 3.12891 21.457 4.47656 21.457 6.29297C21.457 7.86328 20.3789 9.16406 18.7969 9.86719L27.5391 9.86719L27.5391 11.2617L15.7617 11.2617C16.4766 12.75 18.8672 15 20.5898 15.1758C21.2461 15.2344 21.6094 15.6328 21.6094 16.2539C21.6094 16.8047 21.1641 17.3203 20.4492 17.2266C18.5273 16.9453 15.4453 14.6836 14.6367 12.1289L14.543 12.1289L14.543 20.0273L13.0078 20.0273L13.0078 12.1289L12.9258 12.1289C12.1172 14.6836 9.03516 16.9453 7.11328 17.2266C6.39844 17.3203 5.95312 16.8047 5.95312 16.2539C5.95312 15.6328 6.31641 15.2461 6.96094 15.1758C8.69531 14.9766 11.0742 12.75 11.8008 11.2617L0 11.2617ZM12.4102 9.67969L12.7852 9.67969L12.7852 9.32812C12.7852 6.97266 11.1797 4.92188 9.32812 4.92188C8.4375 4.92188 7.86328 5.49609 7.86328 6.43359C7.86328 8.00391 9.96094 9.67969 12.4102 9.67969ZM15.1406 9.67969C17.6016 9.67969 19.6875 8.00391 19.6875 6.43359C19.6875 5.49609 19.125 4.92188 18.2227 4.92188C16.3711 4.92188 14.7656 6.97266 14.7656 9.32812L14.7656 9.67969ZM3.67969 20.0273L23.8594 20.0273C26.3203 20.0273 27.5391 18.8203 27.5391 16.4062L27.5391 3.64453C27.5391 1.23047 26.3203 0.0117188 23.8594 0.0117188L3.67969 0.0117188C1.23047 0.0117188 0 1.23047 0 3.64453L0 16.4062C0 18.8203 1.23047 20.0273 3.67969 20.0273Z" fill="#000000"/>
</svg>
