<?xml version="1.0" encoding="UTF-8"?>

<!--
  - Copyright (c) 2023. Compose Cupertino project and open source contributors.
  -
  -  Licensed under the Apache License, Version 2.0 (the "License");
  -  you may not use this file except in compliance with the License.
  -  You may obtain a copy of the License at
  -
  -      http://www.apache.org/licenses/LICENSE-2.0
  -
  -  Unless required by applicable law or agreed to in writing, software
  -  distributed under the License is distributed on an "AS IS" BASIS,
  -  WITHOUT WARRANTIES OR CONDITIONS OF ANY KIND, either express or implied.
  -  See the License for the specific language governing permissions and
  -  limitations under the License.
  -
  -->

<svg version="1.1" xmlns="http://www.w3.org/2000/svg" xmlns:xlink="http://www.w3.org/1999/xlink" width="31.4414" height="33.9492">
  <path d="M30.3281 11.6484L18.8555 6.39844C17.6602 5.85938 16.6875 5.60156 15.7148 5.625C14.7539 5.60156 13.7812 5.85938 12.5742 6.39844L1.11328 11.6484C0.363281 11.9883 0 12.5859 0 13.1836C0 13.7812 0.363281 14.3672 1.11328 14.7188L5.94141 16.9219L13.3594 13.4414C13.2891 13.3594 13.2656 13.2656 13.2656 13.1836C13.2656 12.4453 14.5078 11.8828 15.7617 11.8828C17.0273 11.8828 18.2461 12.4453 18.2461 13.1836C18.2461 13.9453 17.0273 14.5195 15.7617 14.5195C15.375 14.5195 14.9883 14.4609 14.6484 14.3672L7.57031 17.6836L12.5742 19.9805C13.7812 20.5312 14.7539 20.7656 15.7148 20.7539C16.6875 20.7656 17.6602 20.5312 18.8555 19.9805L30.3281 14.7188C31.0781 14.3672 31.4414 13.7812 31.4414 13.1836C31.4414 12.5859 31.0781 11.9883 30.3281 11.6484ZM7.52344 19.418L7.52344 26.543C9.49219 27.7383 12.3047 28.4648 15.7148 28.4648C22.6289 28.4648 27.082 25.5 27.082 21.9961L27.082 17.9648L19.5234 21.4219C18.1523 22.0547 16.9102 22.3711 15.7148 22.3594C14.5312 22.3711 13.2773 22.0547 11.9062 21.4219ZM4.35938 17.9648L4.35938 21.9961C4.35938 23.0156 4.94531 24.2812 6 25.3594L6 18.7266ZM6 29.2617L7.52344 29.2617L7.52344 26.543C6.9375 26.1914 6.42188 25.793 6 25.3594ZM5.07422 29.3438L5.07422 32.4258C5.07422 33.3516 5.67188 33.9492 6.59766 33.9492L6.91406 33.9492C7.83984 33.9492 8.4375 33.3516 8.4375 32.4258L8.4375 29.3438C8.4375 28.418 7.83984 27.8203 6.91406 27.8203L6.59766 27.8203C5.67188 27.8203 5.07422 28.418 5.07422 29.3438Z" fill="#000000"/>
</svg>
