<?xml version="1.0" encoding="UTF-8"?>

<!--
  - Copyright (c) 2023. Compose Cupertino project and open source contributors.
  -
  -  Licensed under the Apache License, Version 2.0 (the "License");
  -  you may not use this file except in compliance with the License.
  -  You may obtain a copy of the License at
  -
  -      http://www.apache.org/licenses/LICENSE-2.0
  -
  -  Unless required by applicable law or agreed to in writing, software
  -  distributed under the License is distributed on an "AS IS" BASIS,
  -  WITHOUT WARRANTIES OR CONDITIONS OF ANY KIND, either express or implied.
  -  See the License for the specific language governing permissions and
  -  limitations under the License.
  -
  -->

<svg version="1.1" xmlns="http://www.w3.org/2000/svg" xmlns:xlink="http://www.w3.org/1999/xlink" width="28.9301" height="27.1897">
  <path d="M2.68628 26.2687C3.72925 27.3116 4.948 27.2296 6.00269 26.0226L17.1472 13.3312L13.7019 9.88584L0.975343 20.9952C-0.243407 22.0616-0.31372 23.2687 0.729249 24.3233ZM23.5222 16.1788C24.0261 16.6593 24.6003 16.6944 25.0808 16.214L28.6082 12.7101C29.0652 12.253 29.03 11.6437 28.5378 11.1632L27.6941 10.3077C27.2371 9.8624 26.9441 9.79209 26.4519 9.82725L25.0808 9.99131L24.2019 9.1124L24.6003 7.46006C24.7996 6.65147 24.4949 5.796 23.6394 4.94053L21.2839 2.6085C18.0261-0.637596 12.0261-1.00088 8.66284 2.35069C8.10034 2.91319 8.20581 3.546 8.56909 3.94444C8.85034 4.21397 9.28394 4.35459 9.69409 4.22569C11.9675 3.546 13.948 3.41709 15.6589 4.43662L14.7566 6.80381C14.3699 7.7999 14.5808 8.50303 15.2136 9.14756L17.8269 11.7608C18.3074 12.2413 18.8113 12.3819 19.573 12.2296L21.4597 11.8429L22.3269 12.7218L22.198 14.0929C22.1628 14.6085 22.2097 14.9132 22.6785 15.3468Z" fill="#000000"/>
</svg>
