<?xml version="1.0" encoding="UTF-8"?>

<!--
  - Copyright (c) 2023. Compose Cupertino project and open source contributors.
  -
  -  Licensed under the Apache License, Version 2.0 (the "License");
  -  you may not use this file except in compliance with the License.
  -  You may obtain a copy of the License at
  -
  -      http://www.apache.org/licenses/LICENSE-2.0
  -
  -  Unless required by applicable law or agreed to in writing, software
  -  distributed under the License is distributed on an "AS IS" BASIS,
  -  WITHOUT WARRANTIES OR CONDITIONS OF ANY KIND, either express or implied.
  -  See the License for the specific language governing permissions and
  -  limitations under the License.
  -
  -->

<svg version="1.1" xmlns="http://www.w3.org/2000/svg" xmlns:xlink="http://www.w3.org/1999/xlink" width="18.6797" height="25.8867">
  <path d="M0 16.8281C0 21.9961 3.38672 25.0547 8.03906 25.0547C11.7656 25.0547 14.0742 23.4961 15.6094 20.3672C16.5117 18.6328 17.2031 16.5469 17.9414 14.1328C18.2461 13.1484 18.6797 11.8945 18.6797 11.332C18.6797 10.6992 18.2227 10.2773 17.5547 10.2773C16.8164 10.2773 16.3711 10.7461 15.832 11.8594L14.2031 15.2812C14.0391 15.6562 13.8516 15.7969 13.6641 15.7969C13.418 15.7969 13.2539 15.6562 13.2539 15.2461L13.2539 2.95312C13.2539 2.26172 12.6914 1.69922 12 1.69922C11.3086 1.69922 10.7461 2.26172 10.7461 2.95312L10.7461 11.7422C10.4297 11.625 10.0781 11.5312 9.70312 11.4609L9.70312 1.26562C9.70312 0.574219 9.14062 0 8.44922 0C7.75781 0 7.18359 0.574219 7.18359 1.26562L7.18359 11.332C6.82031 11.3555 6.44531 11.4141 6.08203 11.4727L6.08203 2.26172C6.08203 1.57031 5.51953 1.00781 4.82812 1.00781C4.13672 1.00781 3.57422 1.57031 3.57422 2.26172L3.57422 12.2695C3.1875 12.457 2.83594 12.6562 2.51953 12.8672L2.51953 5.90625C2.51953 5.21484 1.95703 4.65234 1.26562 4.65234C0.574219 4.65234 0 5.21484 0 5.90625Z" fill="#000000"/>
</svg>
