<?xml version="1.0" encoding="UTF-8"?>

<!--
  - Copyright (c) 2023. Compose Cupertino project and open source contributors.
  -
  -  Licensed under the Apache License, Version 2.0 (the "License");
  -  you may not use this file except in compliance with the License.
  -  You may obtain a copy of the License at
  -
  -      http://www.apache.org/licenses/LICENSE-2.0
  -
  -  Unless required by applicable law or agreed to in writing, software
  -  distributed under the License is distributed on an "AS IS" BASIS,
  -  WITHOUT WARRANTIES OR CONDITIONS OF ANY KIND, either express or implied.
  -  See the License for the specific language governing permissions and
  -  limitations under the License.
  -
  -->

<svg version="1.1" xmlns="http://www.w3.org/2000/svg" xmlns:xlink="http://www.w3.org/1999/xlink" width="23.0859" height="24.0133">
  <path d="M23.0859 7.48909C23.0859 4.02034 20.9062 1.11409 18.0117 1.11409L15.9492 1.11409C18.0586 2.64924 18.9961 4.96956 18.9492 7.60627C18.9141 10.536 17.7773 12.6336 16.7578 13.8992L18.4453 13.8992C21.0586 13.8992 23.0859 11.0867 23.0859 7.48909ZM17.3789 7.57112C17.4492 3.29377 13.9805 0.0593995 8.53125 0.0125245L6.94922 0.000805735C5.42578-0.010913 4.30078 0.106274 3.66797 0.282056C2.75391 0.504712 1.875 1.05549 1.875 2.16877C1.875 2.61409 1.99219 2.95393 2.13281 3.20002C2.22656 3.34065 2.21484 3.46956 2.0625 3.52815C1.34766 3.82112 0.738281 4.51252 0.738281 5.42659C0.738281 5.96565 0.890625 6.42268 1.16016 6.75081C1.28906 6.92659 1.26562 7.07893 1.05469 7.20784C0.527344 7.51252 0.152344 8.16877 0.152344 8.93049C0.152344 9.48127 0.328125 10.0555 0.632812 10.3367C0.832031 10.5008 0.796875 10.618 0.597656 10.7938C0.234375 11.0985 0 11.6258 0 12.2938C0 13.4188 0.878906 14.3446 2.03906 14.3446L6.16406 14.3446C7.20703 14.3446 7.89844 14.8836 7.89844 15.7508C7.89844 17.3094 5.95312 20.1805 5.95312 22.243C5.95312 23.3446 6.64453 23.9774 7.57031 23.9774C8.40234 23.9774 8.8125 23.4031 9.25781 22.5242C11.0039 19.1375 13.3242 16.3953 15.0938 14.0399C16.5938 12.0477 17.332 10.3367 17.3789 7.57112Z" fill="#000000"/>
</svg>
