<?xml version="1.0" encoding="UTF-8"?>

<!--
  - Copyright (c) 2023. Compose Cupertino project and open source contributors.
  -
  -  Licensed under the Apache License, Version 2.0 (the "License");
  -  you may not use this file except in compliance with the License.
  -  You may obtain a copy of the License at
  -
  -      http://www.apache.org/licenses/LICENSE-2.0
  -
  -  Unless required by applicable law or agreed to in writing, software
  -  distributed under the License is distributed on an "AS IS" BASIS,
  -  WITHOUT WARRANTIES OR CONDITIONS OF ANY KIND, either express or implied.
  -  See the License for the specific language governing permissions and
  -  limitations under the License.
  -
  -->

<svg version="1.1" xmlns="http://www.w3.org/2000/svg" xmlns:xlink="http://www.w3.org/1999/xlink" width="25.3211" height="21.85">
 <g>
  <path d="M20.0508 21.2785C24.832 19.5442 26.4258 15.5715 24.5625 10.4504L23.8008 8.34103C23.0859 6.40744 21.7383 5.56369 20.6836 5.93869C20.4375 6.03244 20.3555 6.20822 20.4375 6.43088L20.7773 7.36838C20.9414 7.81369 20.8008 8.10666 20.5312 8.21213C20.25 8.30588 19.9453 8.17697 19.7812 7.73166L19.5586 7.12228C19.1367 5.97384 18.1406 5.49338 17.1562 5.85666C16.7109 6.02072 16.5703 6.27853 16.7109 6.65353L17.1797 7.93088C17.3438 8.37619 17.1914 8.66916 16.9336 8.77463C16.6406 8.88009 16.3359 8.73947 16.1719 8.29416L15.75 7.12228C15.2812 5.83322 14.3203 5.50509 13.3594 5.85666C12.9375 6.009 12.7852 6.29025 12.9141 6.65353L13.8281 9.14963C13.9922 9.59494 13.8398 9.88791 13.582 9.99338C13.2891 10.0988 12.9844 9.95822 12.8203 9.51291L9.78516 1.15744C9.49219 0.337125 8.76562 0.00900005 8.07422 0.255094C7.33594 0.524625 7.01953 1.23947 7.3125 2.05978L11.7656 14.2942C11.8711 14.5988 11.7422 14.8215 11.5547 14.8918C11.3672 14.9621 11.168 14.9035 10.9336 14.6457L7.92188 11.4113C7.46484 10.9426 7.00781 10.8254 6.51562 11.0129C5.76562 11.2824 5.47266 11.9738 5.69531 12.6067C5.78906 12.8528 5.91797 13.0403 6.03516 13.1926L9.76172 17.8684C12.9023 21.8059 16.5352 22.5559 20.0508 21.2785Z" fill="#000000"/>
  <path d="M5.73047 2.42306C2.28516 4.509 0 8.41134 0 13.216C0 13.6379 0.363281 14.0012 0.761719 13.9895C1.17188 13.9778 1.46484 13.6613 1.47656 13.2395C1.58203 9.03244 3.38672 5.72775 6.25781 3.86447Z" fill="#000000"/>
 </g>
</svg>
