<?xml version="1.0" encoding="UTF-8"?>

<!--
  - Copyright (c) 2023. Compose Cupertino project and open source contributors.
  -
  -  Licensed under the Apache License, Version 2.0 (the "License");
  -  you may not use this file except in compliance with the License.
  -  You may obtain a copy of the License at
  -
  -      http://www.apache.org/licenses/LICENSE-2.0
  -
  -  Unless required by applicable law or agreed to in writing, software
  -  distributed under the License is distributed on an "AS IS" BASIS,
  -  WITHOUT WARRANTIES OR CONDITIONS OF ANY KIND, either express or implied.
  -  See the License for the specific language governing permissions and
  -  limitations under the License.
  -
  -->

<svg version="1.1" xmlns="http://www.w3.org/2000/svg" xmlns:xlink="http://www.w3.org/1999/xlink" width="23.0977" height="24.668">
  <path d="M0 16.4883C0 19.957 2.16797 22.8633 5.07422 22.8633L7.13672 22.8633C5.02734 21.3281 4.16016 19.0078 4.16016 16.3711C4.17188 13.4414 5.30859 11.3438 6.31641 10.0781L4.64062 10.0781C2.02734 10.0781 0 12.8906 0 16.4883ZM5.77734 16.3945C5.77734 20.6719 9.11719 23.9766 14.5664 23.9766L16.1602 23.9766C17.6719 23.9766 18.7969 23.8711 19.4297 23.6953C20.3438 23.4727 21.2227 22.9102 21.2227 21.8086C21.2227 21.3516 21.1055 21.0234 20.9648 20.7773C20.8711 20.625 20.8945 20.5078 21.0352 20.4492C21.7617 20.1445 22.3594 19.4648 22.3594 18.5391C22.3594 18.0117 22.207 17.543 21.9492 17.2266C21.8203 17.0508 21.832 16.8867 22.0547 16.7695C22.5703 16.4648 22.9453 15.8086 22.9453 15.0469C22.9453 14.4961 22.7695 13.9219 22.4648 13.6406C22.2773 13.4766 22.3125 13.3594 22.5 13.1836C22.8633 12.8789 23.0977 12.3516 23.0977 11.6836C23.0977 10.5586 22.2188 9.63281 21.0586 9.63281L16.9336 9.63281C15.8906 9.63281 15.1992 9.09375 15.1992 8.22656C15.1992 6.66797 17.1562 3.78516 17.1562 1.72266C17.1562 0.632812 16.4531 0 15.5391 0C14.6953 0 14.2852 0.574219 13.8398 1.45312C12.0938 4.83984 9.77344 7.58203 8.00391 9.92578C6.50391 11.918 5.77734 13.6406 5.77734 16.3945Z" fill="#000000"/>
</svg>
