<?xml version="1.0" encoding="UTF-8"?>

<!--
  - Copyright (c) 2023. Compose Cupertino project and open source contributors.
  -
  -  Licensed under the Apache License, Version 2.0 (the "License");
  -  you may not use this file except in compliance with the License.
  -  You may obtain a copy of the License at
  -
  -      http://www.apache.org/licenses/LICENSE-2.0
  -
  -  Unless required by applicable law or agreed to in writing, software
  -  distributed under the License is distributed on an "AS IS" BASIS,
  -  WITHOUT WARRANTIES OR CONDITIONS OF ANY KIND, either express or implied.
  -  See the License for the specific language governing permissions and
  -  limitations under the License.
  -
  -->

<svg version="1.1" xmlns="http://www.w3.org/2000/svg" xmlns:xlink="http://www.w3.org/1999/xlink" width="19.6983" height="21.85">
  <path d="M14.4281 21.2785C19.2093 19.5442 20.8031 15.5715 18.9398 10.4504L18.1781 8.34103C17.4749 6.40744 16.1156 5.56369 15.0609 5.93869C14.8265 6.03244 14.7445 6.20822 14.8265 6.43088L15.1663 7.36838C15.3304 7.81369 15.1781 8.10666 14.9085 8.21213C14.6273 8.30588 14.3226 8.17697 14.1585 7.73166L13.9359 7.12228C13.5257 5.97384 12.5179 5.49338 11.5335 5.85666C11.0882 6.02072 10.9593 6.27853 11.0999 6.65353L11.557 7.93088C11.721 8.37619 11.5804 8.66916 11.3109 8.77463C11.0179 8.88009 10.7132 8.73947 10.5609 8.29416L10.1273 7.12228C9.65853 5.83322 8.69759 5.50509 7.73665 5.85666C7.31478 6.009 7.16243 6.29025 7.30306 6.65353L8.2054 9.14963C8.36946 9.59494 8.22884 9.88791 7.95931 9.99338C7.67806 10.0988 7.37337 9.95822 7.20931 9.51291L4.16243 1.15744C3.86946 0.337125 3.1429 0.00900005 2.4515 0.255094C1.71321 0.524625 1.39681 1.23947 1.68978 2.05978L6.1429 14.2942C6.26009 14.5988 6.11946 14.8215 5.93196 14.8918C5.74446 14.9621 5.55696 14.9035 5.31087 14.6457L2.29915 11.4113C1.85384 10.9426 1.39681 10.8254 0.90462 11.0129C0.142902 11.2824-0.150067 11.9738 0.0725891 12.6067C0.166339 12.8528 0.295245 13.0403 0.424152 13.1926L4.139 17.8684C7.27962 21.8059 10.9124 22.5559 14.4281 21.2785Z" fill="#000000"/>
</svg>
