<?xml version="1.0" encoding="UTF-8"?>

<!--
  - Copyright (c) 2023. Compose Cupertino project and open source contributors.
  -
  -  Licensed under the Apache License, Version 2.0 (the "License");
  -  you may not use this file except in compliance with the License.
  -  You may obtain a copy of the License at
  -
  -      http://www.apache.org/licenses/LICENSE-2.0
  -
  -  Unless required by applicable law or agreed to in writing, software
  -  distributed under the License is distributed on an "AS IS" BASIS,
  -  WITHOUT WARRANTIES OR CONDITIONS OF ANY KIND, either express or implied.
  -  See the License for the specific language governing permissions and
  -  limitations under the License.
  -
  -->

<svg version="1.1" xmlns="http://www.w3.org/2000/svg" xmlns:xlink="http://www.w3.org/1999/xlink" width="27.7018" height="33.3164">
 <g>
  <path d="M9.44531 27.5508C13.1016 31.207 17.6484 30.9844 20.9414 27.6914C23.5781 25.0547 24.1055 22.3242 22.9805 19.0195C22.3945 17.1562 21.4102 15.1875 20.2148 12.9609C19.7344 12.0469 19.1602 10.8516 18.7617 10.4531C18.3164 10.0078 17.6953 10.043 17.2266 10.5117C16.6992 11.0391 16.7227 11.6719 17.1211 12.8438L18.3867 16.418C18.5391 16.793 18.5039 17.0273 18.375 17.168C18.1992 17.332 17.9883 17.3555 17.6953 17.0625L9 8.36719C8.51953 7.88672 7.71094 7.88672 7.23047 8.36719C6.73828 8.85938 6.73828 9.65625 7.23047 10.1484L13.4414 16.3594C13.1367 16.5 12.8203 16.6758 12.5039 16.8984L5.29688 9.69141C4.80469 9.19922 4.00781 9.19922 3.51562 9.69141C3.02344 10.1719 3.02344 10.9805 3.51562 11.4609L10.6406 18.5859C10.3945 18.8672 10.1719 19.1602 9.96094 19.4648L3.44531 12.9492C2.95312 12.4688 2.15625 12.4688 1.66406 12.9492C1.17188 13.4414 1.17188 14.2383 1.66406 14.7305L8.74219 21.8086C8.60156 22.207 8.50781 22.6055 8.42578 22.9805L3.50391 18.0586C3.01172 17.5664 2.21484 17.5664 1.72266 18.0586C1.24219 18.5391 1.24219 19.3477 1.72266 19.8281ZM15.4805 10.6758L13.1719 8.36719C12.6797 7.88672 11.8711 7.88672 11.3906 8.36719C11.3672 8.39062 11.3555 8.40234 11.3438 8.4375L15.5977 12.7031C15.457 11.9766 15.3984 11.3086 15.4805 10.6758ZM25.1016 27.7031C27.7383 25.0547 28.2656 22.3125 27.1523 19.0078C26.5547 17.1562 25.5703 15.1992 24.375 12.9609C23.9062 12.0469 23.3203 10.8516 22.9219 10.4648C22.4766 10.0195 21.8672 10.043 21.3867 10.5117C21.2227 10.6641 21.1172 10.8516 21.0469 11.0508C21.3047 11.5312 21.5508 12.0234 21.8086 12.4922C22.9453 14.6484 23.9414 16.6758 24.5156 18.5742C25.8047 22.5469 25.0312 25.875 22.0664 28.8164C21.5625 29.332 21.0234 29.7656 20.4609 30.1406C22.125 29.9062 23.7305 29.0625 25.1016 27.7031Z" fill="#000000"/>
  <path d="M17.5898 8.35547C17.7891 8.35547 17.9297 8.22656 17.9414 8.01562C18.2812 5.26172 18.4102 5.19141 21.2227 4.72266C21.4453 4.69922 21.5742 4.58203 21.5742 4.38281C21.5742 4.19531 21.4453 4.07812 21.2695 4.04297C18.4336 3.50391 18.2812 3.51562 17.9414 0.761719C17.9297 0.550781 17.7891 0.421875 17.5898 0.421875C17.4141 0.421875 17.2734 0.550781 17.2617 0.75C16.8984 3.55078 16.8047 3.63281 13.9336 4.04297C13.7578 4.06641 13.6289 4.19531 13.6289 4.38281C13.6289 4.57031 13.7578 4.69922 13.9336 4.72266C16.8047 5.28516 16.8867 5.27344 17.2617 8.03906C17.2734 8.22656 17.4141 8.35547 17.5898 8.35547ZM9.75 5.19141C9.89062 5.19141 9.98438 5.12109 10.0195 4.96875C10.3359 3.21094 10.3359 3.19922 12.1055 2.87109C12.2578 2.83594 12.3516 2.74219 12.3516 2.60156C12.3516 2.44922 12.2578 2.35547 12.1055 2.32031C10.3359 1.96875 10.3945 1.95703 10.0195 0.234375C9.98438 0.0820312 9.90234 0 9.75 0C9.60938 0 9.50391 0.09375 9.48047 0.234375C9.10547 1.95703 9.16406 1.96875 7.39453 2.32031C7.23047 2.35547 7.14844 2.46094 7.14844 2.60156C7.14844 2.73047 7.23047 2.83594 7.39453 2.87109C9.16406 3.22266 9.15234 3.21094 9.48047 4.96875C9.50391 5.10938 9.60938 5.19141 9.75 5.19141ZM3.375 31.2656C3.53906 31.2656 3.63281 31.1602 3.65625 30.9961C4.08984 28.6992 4.07812 28.6523 6.48047 28.1953C6.64453 28.1484 6.75 28.0664 6.75 27.8906C6.75 27.7148 6.64453 27.6328 6.48047 27.5977C4.07812 27.1172 4.13672 27.0703 3.65625 24.7852C3.63281 24.6211 3.53906 24.5156 3.375 24.5156C3.21094 24.5156 3.11719 24.6211 3.08203 24.7852C2.60156 27.0703 2.68359 27.1172 0.269531 27.5977C0.105469 27.6328 0 27.7148 0 27.8906C0 28.0664 0.105469 28.1484 0.269531 28.1953C2.68359 28.6641 2.64844 28.6992 3.08203 30.9961C3.11719 31.1602 3.21094 31.2656 3.375 31.2656Z" fill="#000000"/>
 </g>
</svg>
