<?xml version="1.0" encoding="UTF-8"?>

<!--
  - Copyright (c) 2023. Compose Cupertino project and open source contributors.
  -
  -  Licensed under the Apache License, Version 2.0 (the "License");
  -  you may not use this file except in compliance with the License.
  -  You may obtain a copy of the License at
  -
  -      http://www.apache.org/licenses/LICENSE-2.0
  -
  -  Unless required by applicable law or agreed to in writing, software
  -  distributed under the License is distributed on an "AS IS" BASIS,
  -  WITHOUT WARRANTIES OR CONDITIONS OF ANY KIND, either express or implied.
  -  See the License for the specific language governing permissions and
  -  limitations under the License.
  -
  -->

<svg version="1.1" xmlns="http://www.w3.org/2000/svg" xmlns:xlink="http://www.w3.org/1999/xlink" width="23.9062" height="23.918">
  <path d="M11.9531 23.918C18.4922 23.918 23.9062 18.5039 23.9062 11.9648C23.9062 5.4375 18.4805 0.0117188 11.9414 0.0117188C5.41406 0.0117188 0 5.4375 0 11.9648C0 18.5039 5.42578 23.918 11.9531 23.918Z M5.42578 11.9531C5.42578 7.75781 8.05078 4.93359 11.9648 4.93359C15.8906 4.93359 18.5273 7.76953 18.5273 11.9531C18.5273 14.1914 17.9883 15.9141 17.0508 17.5664C16.8164 17.9531 16.3945 18.1055 15.9844 17.9531C15.6562 18.3047 15.1758 18.4219 14.625 18.2578C13.8164 18.0469 13.4531 17.3672 13.6758 16.5703L14.5547 13.5586C14.7891 12.75 15.4805 12.3633 16.2656 12.5977C16.5 12.668 16.6992 12.7734 16.8516 12.9023C16.875 12.5977 16.8867 12.2812 16.8867 11.9531C16.8867 8.73047 14.918 6.57422 11.9648 6.57422C9.02344 6.57422 7.06641 8.71875 7.06641 11.9531C7.06641 12.2812 7.06641 12.5859 7.10156 12.8789C7.25391 12.7617 7.44141 12.668 7.65234 12.5977C8.46094 12.3633 9.15234 12.75 9.38672 13.5586L10.2539 16.5586C10.4883 17.3555 10.1133 18.0469 9.30469 18.2578C8.76562 18.4336 8.27344 18.3047 7.94531 17.9531C7.53516 18.1055 7.11328 17.9531 6.89062 17.5664C5.96484 15.9609 5.42578 14.2266 5.42578 11.9531Z"/>
</svg>
