<?xml version="1.0" encoding="UTF-8"?>

<!--
  - Copyright (c) 2023. Compose Cupertino project and open source contributors.
  -
  -  Licensed under the Apache License, Version 2.0 (the "License");
  -  you may not use this file except in compliance with the License.
  -  You may obtain a copy of the License at
  -
  -      http://www.apache.org/licenses/LICENSE-2.0
  -
  -  Unless required by applicable law or agreed to in writing, software
  -  distributed under the License is distributed on an "AS IS" BASIS,
  -  WITHOUT WARRANTIES OR CONDITIONS OF ANY KIND, either express or implied.
  -  See the License for the specific language governing permissions and
  -  limitations under the License.
  -
  -->

<svg version="1.1" xmlns="http://www.w3.org/2000/svg" xmlns:xlink="http://www.w3.org/1999/xlink" width="23.9062" height="23.918">
  <path d="M11.9531 23.9062C18.4922 23.9062 23.9062 18.4805 23.9062 11.9531C23.9062 5.41406 18.4805 0 11.9414 0C5.41406 0 0 5.41406 0 11.9531C0 18.4805 5.42578 23.9062 11.9531 23.9062Z M9.04688 6.60938C10.3477 6.60938 11.3438 7.34766 11.9531 8.44922C12.5508 7.34766 13.5703 6.60938 14.8594 6.60938C16.8984 6.60938 18.3867 8.15625 18.3867 10.3008C18.3867 13.4648 15.0117 16.3594 12.5508 17.9648C12.3633 18.1055 12.1289 18.2578 11.9766 18.2578C11.8242 18.2578 11.5547 18.0938 11.3438 17.9648C8.87109 16.3945 5.51953 13.4648 5.51953 10.3008C5.51953 8.15625 6.99609 6.60938 9.04688 6.60938Z"/>
</svg>
