<?xml version="1.0" encoding="UTF-8"?>

<!--
  - Copyright (c) 2023. Compose Cupertino project and open source contributors.
  -
  -  Licensed under the Apache License, Version 2.0 (the "License");
  -  you may not use this file except in compliance with the License.
  -  You may obtain a copy of the License at
  -
  -      http://www.apache.org/licenses/LICENSE-2.0
  -
  -  Unless required by applicable law or agreed to in writing, software
  -  distributed under the License is distributed on an "AS IS" BASIS,
  -  WITHOUT WARRANTIES OR CONDITIONS OF ANY KIND, either express or implied.
  -  See the License for the specific language governing permissions and
  -  limitations under the License.
  -
  -->

<svg version="1.1" xmlns="http://www.w3.org/2000/svg" xmlns:xlink="http://www.w3.org/1999/xlink" width="21.5742" height="21.5977">
  <path d="M3.67969 21.5977L17.8945 21.5977C20.3555 21.5977 21.5742 20.3789 21.5742 17.9648L21.5742 3.65625C21.5742 1.24219 20.3555 0.0234375 17.8945 0.0234375L3.67969 0.0234375C1.23047 0.0234375 0 1.23047 0 3.65625L0 17.9648C0 20.3906 1.23047 21.5977 3.67969 21.5977Z M5.27344 3.17578C5.90625 3.17578 6.38672 3.53906 6.67969 4.07812C6.97266 3.53906 7.47656 3.17578 8.0625 3.17578C9.05859 3.17578 9.77344 3.92578 9.77344 4.95703C9.77344 6.48047 8.16797 7.89844 6.98438 8.63672C6.87891 8.69531 6.77344 8.76562 6.69141 8.76562C6.62109 8.76562 6.50391 8.70703 6.39844 8.63672C5.23828 7.81641 3.59766 6.48047 3.59766 4.95703C3.59766 3.92578 4.3125 3.17578 5.27344 3.17578ZM4.33594 14.0039C3.90234 14.0039 3.59766 13.6875 3.59766 13.2773C3.59766 12.8789 3.90234 12.5625 4.33594 12.5625L16.1133 12.5625C16.5234 12.5625 16.8281 12.8789 16.8281 13.2773C16.8281 13.6875 16.5234 14.0039 16.1133 14.0039ZM4.33594 18.0117C3.90234 18.0117 3.59766 17.6953 3.59766 17.2969C3.59766 16.8867 3.90234 16.5703 4.33594 16.5703L13.0195 16.5703C13.4414 16.5703 13.7461 16.8867 13.7461 17.2969C13.7461 17.6953 13.4414 18.0117 13.0195 18.0117Z" />
</svg>
