<?xml version="1.0" encoding="UTF-8"?>

<!--
  - Copyright (c) 2023. Compose Cupertino project and open source contributors.
  -
  -  Licensed under the Apache License, Version 2.0 (the "License");
  -  you may not use this file except in compliance with the License.
  -  You may obtain a copy of the License at
  -
  -      http://www.apache.org/licenses/LICENSE-2.0
  -
  -  Unless required by applicable law or agreed to in writing, software
  -  distributed under the License is distributed on an "AS IS" BASIS,
  -  WITHOUT WARRANTIES OR CONDITIONS OF ANY KIND, either express or implied.
  -  See the License for the specific language governing permissions and
  -  limitations under the License.
  -
  -->

<svg version="1.1" xmlns="http://www.w3.org/2000/svg" xmlns:xlink="http://www.w3.org/1999/xlink" width="17.9648" height="24.2695">
  <path d="M0 3.32812L0 20.9297C0 23.1445 1.10156 24.2578 3.29297 24.2578L14.6836 24.2578C16.875 24.2578 17.9648 23.1445 17.9648 20.9297L17.9648 3.32812C17.9648 1.11328 16.875 0 14.6836 0L3.29297 0C1.10156 0 0 1.11328 0 3.32812ZM8.98828 20.8594C6.25781 20.8594 4.05469 18.6797 4.05469 15.9375C4.05469 13.1836 6.25781 10.9922 8.98828 11.0039C11.7188 11.0156 13.9219 13.1836 13.9219 15.9375C13.9219 18.6797 11.7188 20.8594 8.98828 20.8594ZM8.98828 8.87109C7.46484 8.87109 6.24609 7.65234 6.24609 6.12891C6.24609 4.59375 7.46484 3.38672 8.98828 3.39844C10.5 3.41016 11.7188 4.60547 11.7305 6.12891C11.7539 7.65234 10.5 8.87109 8.98828 8.87109ZM8.98828 18.0234C10.1602 18.0234 11.0742 17.0859 11.0742 15.9375C11.0742 14.7422 10.1602 13.8281 8.98828 13.8281C7.80469 13.8281 6.90234 14.7422 6.90234 15.9375C6.90234 17.0859 7.83984 18.0234 8.98828 18.0234ZM8.98828 7.52344C9.76172 7.52344 10.3828 6.89062 10.3828 6.12891C10.3828 5.35547 9.75 4.73438 8.98828 4.73438C8.20312 4.73438 7.59375 5.32031 7.59375 6.12891C7.59375 6.89062 8.20312 7.52344 8.98828 7.52344Z" fill="#000000"/>
</svg>
