<?xml version="1.0" encoding="UTF-8"?>

<!--
  - Copyright (c) 2023. Compose Cupertino project and open source contributors.
  -
  -  Licensed under the Apache License, Version 2.0 (the "License");
  -  you may not use this file except in compliance with the License.
  -  You may obtain a copy of the License at
  -
  -      http://www.apache.org/licenses/LICENSE-2.0
  -
  -  Unless required by applicable law or agreed to in writing, software
  -  distributed under the License is distributed on an "AS IS" BASIS,
  -  WITHOUT WARRANTIES OR CONDITIONS OF ANY KIND, either express or implied.
  -  See the License for the specific language governing permissions and
  -  limitations under the License.
  -
  -->

<svg version="1.1" xmlns="http://www.w3.org/2000/svg" xmlns:xlink="http://www.w3.org/1999/xlink" width="18.8555" height="24.082">
 <g>
  <path d="M9.42188 24.082C15.8789 24.082 18.8555 21.7852 18.8555 16.5586L18.8555 7.64062C18.8555 5.4375 18.3281 3.94922 17.4961 2.89453C17.2148 2.54297 16.7578 2.51953 16.418 2.80078C15.293 3.78516 12.3516 4.62891 9.42188 4.62891C6.49219 4.62891 3.55078 3.78516 2.4375 2.80078C2.08594 2.51953 1.64062 2.54297 1.35938 2.89453C0.527344 3.94922 0 5.4375 0 7.64062L0 16.5586C0 21.7852 2.96484 24.082 9.42188 24.082Z" fill="#000000"/>
  <path d="M9.42188 3.02344C12.5273 3.02344 14.8477 2.36719 14.8477 1.52344C14.8477 0.65625 12.5273 0.0117188 9.42188 0.0117188C6.31641 0.0117188 4.00781 0.65625 4.00781 1.52344C4.00781 2.36719 6.31641 3.02344 9.42188 3.02344Z" fill="#000000"/>
 </g>
</svg>
