<?xml version="1.0" encoding="UTF-8"?>

<!--
  - Copyright (c) 2023. Compose Cupertino project and open source contributors.
  -
  -  Licensed under the Apache License, Version 2.0 (the "License");
  -  you may not use this file except in compliance with the License.
  -  You may obtain a copy of the License at
  -
  -      http://www.apache.org/licenses/LICENSE-2.0
  -
  -  Unless required by applicable law or agreed to in writing, software
  -  distributed under the License is distributed on an "AS IS" BASIS,
  -  WITHOUT WARRANTIES OR CONDITIONS OF ANY KIND, either express or implied.
  -  See the License for the specific language governing permissions and
  -  limitations under the License.
  -
  -->

<svg version="1.1" xmlns="http://www.w3.org/2000/svg" xmlns:xlink="http://www.w3.org/1999/xlink" width="29.4609" height="28.0898">
  <path d="M6.36328 21.1289L13.6406 21.1289L13.6406 13.9453C13.6406 13.3242 14.1797 12.7969 14.8125 12.7969C15.4453 12.7969 15.9727 13.3242 15.9727 13.9453L15.9727 21.1289L23.8242 21.1289C27.1992 21.1289 29.4609 19.0195 29.4609 16.2422C29.4609 13.9453 28.043 11.8359 25.7578 10.8867C25.7812 5.66016 22.0195 1.88672 17.2266 1.88672C14.0508 1.88672 11.7891 3.58594 10.3828 5.63672C7.72266 4.92188 4.35938 6.98438 4.30078 10.2773C1.65234 10.6992 0 13.0312 0 15.7383C0 18.7266 2.51953 21.1289 6.36328 21.1289ZM14.8125 28.0898C15.0469 28.0898 15.2461 28.0078 15.4805 27.7734L19.4414 23.9531C19.6172 23.7773 19.7227 23.5898 19.7227 23.332C19.7227 22.8633 19.3477 22.5117 18.8672 22.5117C18.6445 22.5117 18.3984 22.6055 18.2344 22.793L16.4531 24.6914L15.668 25.5117L15.7383 23.7656L15.7383 21.1172C15.7383 20.625 15.3164 20.2031 14.8125 20.2031C14.3086 20.2031 13.875 20.625 13.875 21.1172L13.875 23.7656L13.9453 25.5234L13.1602 24.6914L11.3789 22.793C11.2148 22.6055 10.957 22.5117 10.7344 22.5117C10.2422 22.5117 9.89062 22.8633 9.89062 23.332C9.89062 23.5898 9.99609 23.7773 10.1719 23.9531L14.1328 27.7734C14.3672 28.0078 14.5664 28.0898 14.8125 28.0898Z" fill="#000000"/>
</svg>
