<?xml version="1.0" encoding="UTF-8"?>

<!--
  - Copyright (c) 2023. Compose Cupertino project and open source contributors.
  -
  -  Licensed under the Apache License, Version 2.0 (the "License");
  -  you may not use this file except in compliance with the License.
  -  You may obtain a copy of the License at
  -
  -      http://www.apache.org/licenses/LICENSE-2.0
  -
  -  Unless required by applicable law or agreed to in writing, software
  -  distributed under the License is distributed on an "AS IS" BASIS,
  -  WITHOUT WARRANTIES OR CONDITIONS OF ANY KIND, either express or implied.
  -  See the License for the specific language governing permissions and
  -  limitations under the License.
  -
  -->

<svg version="1.1" xmlns="http://www.w3.org/2000/svg" xmlns:xlink="http://www.w3.org/1999/xlink" width="25.8281" height="25.8867">
  <path d="M6.96094 25.8867C7.41797 25.8867 7.75781 25.6523 8.30859 25.1367L12.5391 21.2695L20.4609 21.2695C23.9531 21.2695 25.8281 19.3477 25.8281 15.9141L25.8281 6.9375C25.8281 3.50391 23.9531 1.57031 20.4609 1.57031L5.36719 1.57031C1.875 1.57031 0 3.49219 0 6.9375L0 15.9141C0 19.3594 1.875 21.2695 5.36719 21.2695L5.91797 21.2695L5.91797 24.6797C5.91797 25.4062 6.29297 25.8867 6.96094 25.8867Z M10.9688 17.707C10.5 17.707 10.1484 17.3672 10.1484 16.8984C10.1484 16.4648 10.5 16.1133 10.9688 16.1133L12.3516 16.1133L12.3516 11.0039L11.1562 11.0039C10.6992 11.0039 10.3359 10.6758 10.3359 10.207C10.3359 9.77344 10.6992 9.42188 11.1562 9.42188L13.2656 9.42188C13.8281 9.42188 14.1328 9.83203 14.1328 10.4297L14.1328 16.1133L15.5156 16.1133C15.9844 16.1133 16.3359 16.4648 16.3359 16.8984C16.3359 17.3672 15.9844 17.707 15.5156 17.707ZM12.8203 7.57031C12.0117 7.57031 11.3555 6.91406 11.3555 6.09375C11.3555 5.27344 12.0117 4.61719 12.8203 4.61719C13.6406 4.61719 14.2852 5.27344 14.2852 6.09375C14.2852 6.91406 13.6406 7.57031 12.8203 7.57031Z"/>
</svg>
