<?xml version="1.0" encoding="UTF-8"?>

<!--
  - Copyright (c) 2023. Compose Cupertino project and open source contributors.
  -
  -  Licensed under the Apache License, Version 2.0 (the "License");
  -  you may not use this file except in compliance with the License.
  -  You may obtain a copy of the License at
  -
  -      http://www.apache.org/licenses/LICENSE-2.0
  -
  -  Unless required by applicable law or agreed to in writing, software
  -  distributed under the License is distributed on an "AS IS" BASIS,
  -  WITHOUT WARRANTIES OR CONDITIONS OF ANY KIND, either express or implied.
  -  See the License for the specific language governing permissions and
  -  limitations under the License.
  -
  -->

<svg version="1.1" xmlns="http://www.w3.org/2000/svg" xmlns:xlink="http://www.w3.org/1999/xlink" width="23.9062" height="23.918">
  <path d="M11.9531 23.9062C18.4922 23.9062 23.9062 18.4805 23.9062 11.9531C23.9062 5.41406 18.4805 0 11.9414 0C5.41406 0 0 5.41406 0 11.9531C0 18.4805 5.42578 23.9062 11.9531 23.9062Z M9.84375 18.7383C9.33984 18.7383 8.95312 18.375 8.95312 17.8711C8.95312 17.4023 9.33984 17.0156 9.84375 17.0156L11.332 17.0156L11.332 11.5078L10.043 11.5078C9.55078 11.5078 9.16406 11.1445 9.16406 10.6406C9.16406 10.1719 9.55078 9.78516 10.043 9.78516L12.3164 9.78516C12.9375 9.78516 13.2656 10.2305 13.2656 10.8867L13.2656 17.0156L14.7539 17.0156C15.2578 17.0156 15.6445 17.4023 15.6445 17.8711C15.6445 18.375 15.2578 18.7383 14.7539 18.7383ZM11.8477 7.79297C10.9688 7.79297 10.2656 7.08984 10.2656 6.19922C10.2656 5.30859 10.9688 4.60547 11.8477 4.60547C12.7266 4.60547 13.418 5.30859 13.418 6.19922C13.418 7.08984 12.7266 7.79297 11.8477 7.79297Z" />
</svg>
