<?xml version="1.0" encoding="UTF-8"?>

<!--
  - Copyright (c) 2023. Compose Cupertino project and open source contributors.
  -
  -  Licensed under the Apache License, Version 2.0 (the "License");
  -  you may not use this file except in compliance with the License.
  -  You may obtain a copy of the License at
  -
  -      http://www.apache.org/licenses/LICENSE-2.0
  -
  -  Unless required by applicable law or agreed to in writing, software
  -  distributed under the License is distributed on an "AS IS" BASIS,
  -  WITHOUT WARRANTIES OR CONDITIONS OF ANY KIND, either express or implied.
  -  See the License for the specific language governing permissions and
  -  limitations under the License.
  -
  -->

<svg version="1.1" xmlns="http://www.w3.org/2000/svg" xmlns:xlink="http://www.w3.org/1999/xlink" width="29.4609" height="22.2773">
  <path d="M23.1562 20.3672C26.6953 20.3672 29.4609 17.7773 29.4609 14.5547C29.4609 12.0938 28.043 9.96094 25.7578 9C25.7812 3.77344 22.0195 0 17.2266 0C14.0508 0 11.7891 1.69922 10.3828 3.75C7.5 2.90625 4.35938 5.09766 4.30078 8.37891C1.65234 8.80078 0 11.168 0 14.0273C0 17.4727 3.01172 20.3672 7.01953 20.3672Z M8.08594 11.543C8.08594 9.53906 9.69141 7.94531 11.6836 7.94531C13.1836 7.94531 14.5195 8.83594 15.0586 10.2539L20.625 10.2539C20.7539 10.2539 20.8594 10.2891 20.9883 10.4062L21.9258 11.3438C22.0195 11.4492 22.0312 11.625 21.9258 11.7422L20.1445 13.5234C20.0273 13.6523 19.8516 13.6523 19.7344 13.5234L18.6328 12.4102L17.1211 13.9453C17.0273 14.0625 16.8516 14.0508 16.7227 13.9219L15.1992 12.4219C14.5078 14.168 13.2188 15.1289 11.6836 15.1289C9.69141 15.1289 8.08594 13.5352 8.08594 11.543ZM9.80859 11.5312C9.80859 12.1406 10.3125 12.6328 10.9219 12.6328C11.5547 12.6328 12.0352 12.1406 12.0352 11.5312C12.0352 10.9219 11.5547 10.4297 10.9219 10.4297C10.3125 10.4297 9.80859 10.9102 9.80859 11.5312Z"/>
</svg>
