<?xml version="1.0" encoding="UTF-8"?>

<!--
  - Copyright (c) 2023. Compose Cupertino project and open source contributors.
  -
  -  Licensed under the Apache License, Version 2.0 (the "License");
  -  you may not use this file except in compliance with the License.
  -  You may obtain a copy of the License at
  -
  -      http://www.apache.org/licenses/LICENSE-2.0
  -
  -  Unless required by applicable law or agreed to in writing, software
  -  distributed under the License is distributed on an "AS IS" BASIS,
  -  WITHOUT WARRANTIES OR CONDITIONS OF ANY KIND, either express or implied.
  -  See the License for the specific language governing permissions and
  -  limitations under the License.
  -
  -->

<svg version="1.1" xmlns="http://www.w3.org/2000/svg" xmlns:xlink="http://www.w3.org/1999/xlink" width="14.9648" height="29.0939">
  <path d="M7.48828 0.173882C3.31641 0.173882 0 3.49029 0 7.63873C0 10.7676 1.875 13.5333 4.80469 14.6465L4.80469 26.2129C4.80469 26.5059 4.89844 26.7286 5.10938 26.9512L7.06641 28.92C7.26562 29.1192 7.66406 29.1778 7.91016 28.9317L11.625 25.2169C11.8711 24.959 11.8594 24.6192 11.625 24.3731L9.31641 22.0997L12.4805 18.9473C12.7031 18.7129 12.7031 18.3731 12.457 18.1153L9.32812 14.9629C12.9492 13.5215 14.9648 10.8497 14.9648 7.63873C14.9648 3.51373 11.625 0.173882 7.48828 0.173882ZM7.48828 7.33404C6.33984 7.33404 5.40234 6.40826 5.40234 5.2481C5.40234 4.08794 6.31641 3.16216 7.48828 3.16216C8.63672 3.16216 9.57422 4.09966 9.57422 5.2481C9.57422 6.40826 8.63672 7.33404 7.48828 7.33404Z" fill="#000000"/>
</svg>
