<?xml version="1.0" encoding="UTF-8"?>

<!--
  - Copyright (c) 2023. Compose Cupertino project and open source contributors.
  -
  -  Licensed under the Apache License, Version 2.0 (the "License");
  -  you may not use this file except in compliance with the License.
  -  You may obtain a copy of the License at
  -
  -      http://www.apache.org/licenses/LICENSE-2.0
  -
  -  Unless required by applicable law or agreed to in writing, software
  -  distributed under the License is distributed on an "AS IS" BASIS,
  -  WITHOUT WARRANTIES OR CONDITIONS OF ANY KIND, either express or implied.
  -  See the License for the specific language governing permissions and
  -  limitations under the License.
  -
  -->

<svg version="1.1" xmlns="http://www.w3.org/2000/svg" xmlns:xlink="http://www.w3.org/1999/xlink" width="29.4961" height="18.5273">
  <path d="M3.67969 18.5156L25.8164 18.5156C28.2539 18.5156 29.4961 17.2969 29.4961 14.8828L29.4961 3.62109C29.4961 1.21875 28.2539 0 25.8164 0L3.67969 0C1.21875 0 0 1.20703 0 3.62109L0 14.8828C0 17.2969 1.21875 18.5156 3.67969 18.5156ZM4.44141 6.44531C4.11328 6.44531 3.91406 6.23438 3.91406 5.90625L3.91406 4.79297C3.91406 4.46484 4.11328 4.25391 4.44141 4.25391L5.55469 4.25391C5.89453 4.25391 6.10547 4.46484 6.10547 4.79297L6.10547 5.90625C6.10547 6.23438 5.89453 6.44531 5.55469 6.44531ZM8.33203 6.44531C7.99219 6.44531 7.79297 6.23438 7.79297 5.90625L7.79297 4.79297C7.79297 4.46484 7.99219 4.25391 8.33203 4.25391L9.44531 4.25391C9.77344 4.25391 9.98438 4.46484 9.98438 4.79297L9.98438 5.90625C9.98438 6.23438 9.77344 6.44531 9.44531 6.44531ZM12.2227 6.44531C11.8945 6.44531 11.6836 6.23438 11.6836 5.90625L11.6836 4.79297C11.6836 4.46484 11.8945 4.25391 12.2227 4.25391L13.3242 4.25391C13.6641 4.25391 13.875 4.46484 13.875 4.79297L13.875 5.90625C13.875 6.23438 13.6641 6.44531 13.3242 6.44531ZM16.1133 6.44531C15.7852 6.44531 15.5742 6.23438 15.5742 5.90625L15.5742 4.79297C15.5742 4.46484 15.7852 4.25391 16.1133 4.25391L17.2266 4.25391C17.5547 4.25391 17.7656 4.46484 17.7656 4.79297L17.7656 5.90625C17.7656 6.23438 17.5547 6.44531 17.2266 6.44531ZM20.0039 6.44531C19.6641 6.44531 19.4531 6.23438 19.4531 5.90625L19.4531 4.79297C19.4531 4.46484 19.6641 4.25391 20.0039 4.25391L21.1172 4.25391C21.4453 4.25391 21.6445 4.46484 21.6445 4.79297L21.6445 5.90625C21.6445 6.23438 21.4453 6.44531 21.1172 6.44531ZM23.8945 6.44531C23.5547 6.44531 23.3438 6.23438 23.3438 5.90625L23.3438 4.79297C23.3438 4.46484 23.5547 4.25391 23.8945 4.25391L24.9961 4.25391C25.3359 4.25391 25.5352 4.46484 25.5352 4.79297L25.5352 5.90625C25.5352 6.23438 25.3359 6.44531 24.9961 6.44531ZM4.44141 10.3359C4.11328 10.3359 3.91406 10.125 3.91406 9.79688L3.91406 8.68359C3.91406 8.35547 4.11328 8.14453 4.44141 8.14453L5.55469 8.14453C5.89453 8.14453 6.10547 8.35547 6.10547 8.68359L6.10547 9.79688C6.10547 10.125 5.89453 10.3359 5.55469 10.3359ZM8.33203 10.3359C7.99219 10.3359 7.79297 10.125 7.79297 9.79688L7.79297 8.68359C7.79297 8.35547 7.99219 8.14453 8.33203 8.14453L9.44531 8.14453C9.77344 8.14453 9.98438 8.35547 9.98438 8.68359L9.98438 9.79688C9.98438 10.125 9.77344 10.3359 9.44531 10.3359ZM12.2227 10.3359C11.8945 10.3359 11.6836 10.125 11.6836 9.79688L11.6836 8.68359C11.6836 8.35547 11.8945 8.14453 12.2227 8.14453L13.3242 8.14453C13.6641 8.14453 13.875 8.35547 13.875 8.68359L13.875 9.79688C13.875 10.125 13.6641 10.3359 13.3242 10.3359ZM16.1133 10.3359C15.7852 10.3359 15.5742 10.125 15.5742 9.79688L15.5742 8.68359C15.5742 8.35547 15.7852 8.14453 16.1133 8.14453L17.2266 8.14453C17.5547 8.14453 17.7656 8.35547 17.7656 8.68359L17.7656 9.79688C17.7656 10.125 17.5547 10.3359 17.2266 10.3359ZM20.0039 10.3359C19.6641 10.3359 19.4531 10.125 19.4531 9.79688L19.4531 8.68359C19.4531 8.35547 19.6641 8.14453 20.0039 8.14453L21.1172 8.14453C21.4453 8.14453 21.6445 8.35547 21.6445 8.68359L21.6445 9.79688C21.6445 10.125 21.4453 10.3359 21.1172 10.3359ZM23.8945 10.3359C23.5547 10.3359 23.3438 10.125 23.3438 9.79688L23.3438 8.68359C23.3438 8.35547 23.5547 8.14453 23.8945 8.14453L24.9961 8.14453C25.3359 8.14453 25.5352 8.35547 25.5352 8.68359L25.5352 9.79688C25.5352 10.125 25.3359 10.3359 24.9961 10.3359ZM4.44141 14.2266C4.11328 14.2266 3.91406 14.0156 3.91406 13.6875L3.91406 12.5742C3.91406 12.2461 4.11328 12.0352 4.44141 12.0352L5.55469 12.0352C5.89453 12.0352 6.10547 12.2461 6.10547 12.5742L6.10547 13.6875C6.10547 14.0156 5.89453 14.2266 5.55469 14.2266ZM8.46094 14.2266C8.03906 14.2266 7.79297 13.9805 7.79297 13.5586L7.79297 12.6914C7.79297 12.2812 8.03906 12.0352 8.46094 12.0352L20.9883 12.0352C21.3984 12.0352 21.6445 12.2812 21.6445 12.6914L21.6445 13.5586C21.6445 13.9805 21.3984 14.2266 20.9883 14.2266ZM23.8945 14.2266C23.5547 14.2266 23.3438 14.0156 23.3438 13.6875L23.3438 12.5742C23.3438 12.2461 23.5547 12.0352 23.8945 12.0352L24.9961 12.0352C25.3359 12.0352 25.5352 12.2461 25.5352 12.5742L25.5352 13.6875C25.5352 14.0156 25.3359 14.2266 24.9961 14.2266Z" fill="#000000"/>
</svg>
