<?xml version="1.0" encoding="UTF-8"?>

<!--
  - Copyright (c) 2023. Compose Cupertino project and open source contributors.
  -
  -  Licensed under the Apache License, Version 2.0 (the "License");
  -  you may not use this file except in compliance with the License.
  -  You may obtain a copy of the License at
  -
  -      http://www.apache.org/licenses/LICENSE-2.0
  -
  -  Unless required by applicable law or agreed to in writing, software
  -  distributed under the License is distributed on an "AS IS" BASIS,
  -  WITHOUT WARRANTIES OR CONDITIONS OF ANY KIND, either express or implied.
  -  See the License for the specific language governing permissions and
  -  limitations under the License.
  -
  -->

<svg version="1.1" xmlns="http://www.w3.org/2000/svg" xmlns:xlink="http://www.w3.org/1999/xlink" width="18.2109" height="25.1367">
  <path d="M0 21.457C0 23.9062 1.20703 25.125 3.63281 25.125L14.5898 25.125C17.0039 25.125 18.2109 23.9062 18.2109 21.457L18.2109 3.67969C18.2109 1.24219 17.0039 0 14.5898 0L3.63281 0C1.20703 0 0 1.24219 0 3.67969ZM6.10547 4.05469C5.67188 4.05469 5.30859 3.70312 5.30859 3.26953C5.30859 2.83594 5.67188 2.48438 6.10547 2.48438L12.1055 2.48438C12.5508 2.48438 12.9023 2.83594 12.9023 3.26953C12.9023 3.70312 12.5508 4.05469 12.1055 4.05469Z" fill="#000000"/>
</svg>
