<?xml version="1.0" encoding="UTF-8"?>

<!--
  - Copyright (c) 2023. Compose Cupertino project and open source contributors.
  -
  -  Licensed under the Apache License, Version 2.0 (the "License");
  -  you may not use this file except in compliance with the License.
  -  You may obtain a copy of the License at
  -
  -      http://www.apache.org/licenses/LICENSE-2.0
  -
  -  Unless required by applicable law or agreed to in writing, software
  -  distributed under the License is distributed on an "AS IS" BASIS,
  -  WITHOUT WARRANTIES OR CONDITIONS OF ANY KIND, either express or implied.
  -  See the License for the specific language governing permissions and
  -  limitations under the License.
  -
  -->

<svg version="1.1" xmlns="http://www.w3.org/2000/svg" xmlns:xlink="http://www.w3.org/1999/xlink" width="25.3008" height="22.2305">
  <path d="M0.339844 1.41797C0.09375 2.61328 0 4.17188 0 5.21484C0 13.9805 5.21484 19.7695 13.1836 19.7695C18.3164 19.7695 20.7305 16.7461 21.2578 15.7734L19.793 15.7383C21.3164 17.332 21.9961 19.043 22.7695 21.4688C22.9453 22.0312 23.332 22.2305 23.7422 22.2305C24.6094 22.2305 25.3008 21.4805 25.3008 20.4492C25.3008 18.832 22.9805 16.0195 21.7734 14.8828C16.6406 10.1484 8.82422 12.9492 6.80859 7.72266C6.65625 7.32422 7.07812 6.97266 7.46484 7.37109C11.5078 11.4141 16.7109 8.00391 21.7734 12.668C22.1719 13.0195 22.6406 12.832 22.7109 12.4102C22.7695 12.0703 22.8047 11.5312 22.8047 11.0156C22.8047 5.29688 18.8203 2.54297 13.2188 2.54297C11.3438 2.54297 9.15234 3 7.42969 3C5.54297 3 3.42188 2.84766 1.73438 1.04297C1.25391 0.550781 0.527344 0.621094 0.339844 1.41797Z" fill="#000000"/>
</svg>
