<?xml version="1.0" encoding="UTF-8"?>

<!--
  - Copyright (c) 2023. Compose Cupertino project and open source contributors.
  -
  -  Licensed under the Apache License, Version 2.0 (the "License");
  -  you may not use this file except in compliance with the License.
  -  You may obtain a copy of the License at
  -
  -      http://www.apache.org/licenses/LICENSE-2.0
  -
  -  Unless required by applicable law or agreed to in writing, software
  -  distributed under the License is distributed on an "AS IS" BASIS,
  -  WITHOUT WARRANTIES OR CONDITIONS OF ANY KIND, either express or implied.
  -  See the License for the specific language governing permissions and
  -  limitations under the License.
  -
  -->

<svg version="1.1" xmlns="http://www.w3.org/2000/svg" xmlns:xlink="http://www.w3.org/1999/xlink" width="28.6642" height="12.7148">
  <path d="M3.1875 12.7148L4.78125 12.7148L4.78125 0.0117188L3.16406 0.0117188C1.07812 0.0117188 0 1.08984 0 3.16406L0.0117188 9.5625C0.0117188 11.6484 1.07812 12.7148 3.1875 12.7148ZM5.90625 12.7148L22.7578 12.7148L22.7578 0.0117188L20.7422 0.0117188C20.4844 3.36328 17.8711 5.56641 14.3438 5.56641C10.8164 5.56641 8.20312 3.36328 7.93359 0.0117188L5.90625 0.0117188ZM23.8828 12.7148L25.4766 12.7148C27.5742 12.7148 28.6289 11.6484 28.6406 9.5625L28.6641 3.16406C28.6758 1.08984 27.5859 0.0117188 25.4883 0.0117188L23.8828 0.0117188ZM14.3438 4.48828C17.1797 4.48828 19.2891 2.71875 19.4883 0.0117188L17.6719 0.0117188C17.5195 1.75781 16.1719 2.90625 14.3438 2.90625C12.5039 2.90625 11.168 1.75781 11.0156 0.0117188L9.1875 0.0117188C9.38672 2.71875 11.4961 4.48828 14.3438 4.48828Z" fill="#000000"/>
</svg>
