<?xml version="1.0" encoding="UTF-8"?>

<!--
  - Copyright (c) 2023. Compose Cupertino project and open source contributors.
  -
  -  Licensed under the Apache License, Version 2.0 (the "License");
  -  you may not use this file except in compliance with the License.
  -  You may obtain a copy of the License at
  -
  -      http://www.apache.org/licenses/LICENSE-2.0
  -
  -  Unless required by applicable law or agreed to in writing, software
  -  distributed under the License is distributed on an "AS IS" BASIS,
  -  WITHOUT WARRANTIES OR CONDITIONS OF ANY KIND, either express or implied.
  -  See the License for the specific language governing permissions and
  -  limitations under the License.
  -
  -->

<svg version="1.1" xmlns="http://www.w3.org/2000/svg" xmlns:xlink="http://www.w3.org/1999/xlink" width="23.9062" height="23.918">
  <path d="M11.9648 16.3008C9.55078 16.3008 7.61719 14.3555 7.61719 11.9531C7.61719 9.55078 9.55078 7.60547 11.9648 7.60547C14.3672 7.60547 16.3008 9.55078 16.3008 11.9531C16.3008 14.3555 14.3672 16.3008 11.9648 16.3008ZM3.91406 6.08203C4.51172 5.23828 5.22656 4.51172 6.05859 3.91406L8.37891 6.23438C7.52344 6.78516 6.76172 7.52344 6.22266 8.39062ZM19.9922 6.09375L17.6719 8.40234C17.1445 7.53516 16.3828 6.79688 15.5273 6.24609L17.8477 3.92578C18.6797 4.52344 19.3945 5.26172 19.9922 6.09375ZM19.9922 17.7891C19.4062 18.6211 18.6797 19.3594 17.8594 19.957L15.5273 17.6367C16.3945 17.0859 17.1445 16.3477 17.6836 15.4805ZM3.92578 17.8008L6.23438 15.4922C6.77344 16.3594 7.52344 17.0977 8.37891 17.6484L6.05859 19.9688C5.23828 19.3711 4.51172 18.6445 3.92578 17.8008ZM11.9531 23.918C18.4922 23.918 23.9062 18.5039 23.9062 11.9648C23.9062 5.4375 18.4805 0.0117188 11.9414 0.0117188C5.41406 0.0117188 0 5.4375 0 11.9648C0 18.5039 5.42578 23.918 11.9531 23.918Z" fill="#000000"/>
</svg>
