<?xml version="1.0" encoding="UTF-8"?>

<!--
  - Copyright (c) 2023. Compose Cupertino project and open source contributors.
  -
  -  Licensed under the Apache License, Version 2.0 (the "License");
  -  you may not use this file except in compliance with the License.
  -  You may obtain a copy of the License at
  -
  -      http://www.apache.org/licenses/LICENSE-2.0
  -
  -  Unless required by applicable law or agreed to in writing, software
  -  distributed under the License is distributed on an "AS IS" BASIS,
  -  WITHOUT WARRANTIES OR CONDITIONS OF ANY KIND, either express or implied.
  -  See the License for the specific language governing permissions and
  -  limitations under the License.
  -
  -->

<svg version="1.1" xmlns="http://www.w3.org/2000/svg" xmlns:xlink="http://www.w3.org/1999/xlink" width="27.7383" height="26.6367">
 <g>
  <path d="M14.8477 14.0742L14.8477 21.8086L12.9023 21.8086L12.9023 14.0742C12.9023 13.5352 13.3242 13.0898 13.8633 13.0898C14.4023 13.0898 14.8477 13.5352 14.8477 14.0742Z M22.8633 23.707C23.3906 23.707 23.8242 23.2852 23.8242 22.7695C23.8242 22.2422 23.3906 21.8086 22.8633 21.8086L21.4336 21.8086L21.4336 14.0391C21.4336 9.76172 18.1406 6.45703 13.8633 6.45703C9.59766 6.45703 6.30469 9.76172 6.30469 14.0391L6.30469 21.8086L4.85156 21.8086C4.33594 21.8086 3.92578 22.2422 3.92578 22.7695C3.92578 23.2852 4.33594 23.707 4.85156 23.707Z" fill="#000000"/>
  <path d="M3.24609 14.8828C3.79688 14.8828 4.27734 14.4258 4.27734 13.8867C4.27734 13.3242 3.79688 12.8672 3.24609 12.8672L0.996094 12.8672C0.457031 12.8672 0 13.3359 0 13.8867C0 14.4141 0.457031 14.8828 0.996094 14.8828ZM5.64844 7.08984C6.03516 7.47656 6.67969 7.48828 7.06641 7.08984C7.46484 6.69141 7.45312 6.05859 7.06641 5.67188L5.48438 4.07812C5.10938 3.67969 4.45312 3.67969 4.05469 4.07812C3.66797 4.47656 3.66797 5.09766 4.05469 5.49609ZM12.8555 3.26953C12.8555 3.82031 13.3125 4.28906 13.8633 4.28906C14.4258 4.28906 14.8828 3.82031 14.8828 3.26953L14.8828 1.01953C14.8828 0.46875 14.4141 0 13.8633 0C13.3125 0 12.8555 0.46875 12.8555 1.01953ZM20.6484 5.67188C20.2617 6.05859 20.25 6.69141 20.6484 7.08984C21.0586 7.48828 21.6797 7.47656 22.0664 7.08984L23.6719 5.49609C24.0586 5.09766 24.0586 4.47656 23.6719 4.07812C23.2617 3.67969 22.6406 3.67969 22.2539 4.07812ZM26.7188 14.8828C27.2695 14.8828 27.7383 14.4141 27.7383 13.8867C27.7383 13.3359 27.2695 12.8672 26.7188 12.8672L24.4688 12.8672C23.9297 12.8672 23.4609 13.3242 23.4609 13.8867C23.4609 14.4258 23.9297 14.8828 24.4688 14.8828Z " fill="#000000"/>
 </g>
</svg>
