<?xml version="1.0" encoding="UTF-8"?>

<!--
  - Copyright (c) 2023. Compose Cupertino project and open source contributors.
  -
  -  Licensed under the Apache License, Version 2.0 (the "License");
  -  you may not use this file except in compliance with the License.
  -  You may obtain a copy of the License at
  -
  -      http://www.apache.org/licenses/LICENSE-2.0
  -
  -  Unless required by applicable law or agreed to in writing, software
  -  distributed under the License is distributed on an "AS IS" BASIS,
  -  WITHOUT WARRANTIES OR CONDITIONS OF ANY KIND, either express or implied.
  -  See the License for the specific language governing permissions and
  -  limitations under the License.
  -
  -->

<svg version="1.1" xmlns="http://www.w3.org/2000/svg" xmlns:xlink="http://www.w3.org/1999/xlink" width="23.9062" height="23.918">
  <path d="M11.9531 23.918C18.4922 23.918 23.9062 18.5039 23.9062 11.9648C23.9062 5.4375 18.4805 0.0117188 11.9414 0.0117188C5.41406 0.0117188 0 5.4375 0 11.9648C0 18.5039 5.42578 23.918 11.9531 23.918Z M6.05859 17.6602C4.52344 16.1367 4.66406 14.25 6.41016 12.4922L8.56641 10.3594C8.37891 10.9688 8.39062 11.6602 8.58984 12.1289L7.34766 13.3477C6.12891 14.543 6 15.7969 6.96094 16.7344C7.91016 17.6719 9.15234 17.5312 10.3477 16.3477L12.082 14.6016C13.3125 13.3945 13.4648 12.1289 12.5273 11.1797C12.2344 10.8984 11.8125 10.6992 11.2617 10.6289C11.4492 10.207 11.8594 9.75 12.1992 9.51562C12.5391 9.57422 13.0195 9.85547 13.418 10.2891C14.9648 11.8125 14.8125 13.6992 13.0195 15.4922L11.2148 17.2734C9.45703 19.043 7.55859 19.1602 6.05859 17.6602ZM17.4492 6.23438C18.9844 7.75781 18.8438 9.64453 17.0859 11.4141L14.9414 13.5352C15.1289 12.9375 15.1172 12.2344 14.918 11.7773L16.1602 10.5469C17.3789 9.35156 17.4961 8.09766 16.5469 7.16016C15.5977 6.22266 14.3555 6.36328 13.1602 7.54688L11.4258 9.29297C10.1836 10.5117 10.043 11.7656 10.9805 12.7266C11.2734 12.9961 11.6953 13.1953 12.2461 13.2773C12.0586 13.6992 11.6367 14.1562 11.2969 14.3906C10.9688 14.332 10.4883 14.0391 10.0898 13.6172C8.54297 12.0938 8.69531 10.1953 10.4883 8.41406L12.2812 6.62109C14.0508 4.85156 15.9375 4.73438 17.4492 6.23438Z"/>
</svg>
