<?xml version="1.0" encoding="UTF-8"?>

<!--
  - Copyright (c) 2023. Compose Cupertino project and open source contributors.
  -
  -  Licensed under the Apache License, Version 2.0 (the "License");
  -  you may not use this file except in compliance with the License.
  -  You may obtain a copy of the License at
  -
  -      http://www.apache.org/licenses/LICENSE-2.0
  -
  -  Unless required by applicable law or agreed to in writing, software
  -  distributed under the License is distributed on an "AS IS" BASIS,
  -  WITHOUT WARRANTIES OR CONDITIONS OF ANY KIND, either express or implied.
  -  See the License for the specific language governing permissions and
  -  limitations under the License.
  -
  -->

<svg version="1.1" xmlns="http://www.w3.org/2000/svg" xmlns:xlink="http://www.w3.org/1999/xlink" width="19.7109" height="29.7539">
  <path d="M4.75781 13.1719C4.19531 13.1719 3.72656 12.6914 3.72656 12.1406C3.72656 11.5781 4.19531 11.1094 4.75781 11.1094C5.32031 11.1094 5.78906 11.5664 5.78906 12.1406C5.78906 12.7031 5.32031 13.1719 4.75781 13.1719ZM4.75781 17.4492C4.18359 17.4492 3.72656 16.9805 3.72656 16.418C3.72656 15.8555 4.18359 15.3984 4.75781 15.3984C5.32031 15.3984 5.78906 15.8438 5.78906 16.418C5.78906 16.9805 5.32031 17.4492 4.75781 17.4492ZM4.75781 21.9727C4.19531 21.9727 3.72656 21.5039 3.72656 20.9414C3.72656 20.3906 4.19531 19.9102 4.75781 19.9102C5.32031 19.9102 5.78906 20.3789 5.78906 20.9414C5.78906 21.5156 5.32031 21.9727 4.75781 21.9727ZM7.99219 12.8906C7.57031 12.8906 7.21875 12.5508 7.21875 12.1406C7.21875 11.7305 7.57031 11.3672 7.99219 11.3672L15.2344 11.3672C15.6445 11.3672 15.9844 11.7305 15.9844 12.1406C15.9844 12.5508 15.6445 12.8906 15.2344 12.8906ZM7.99219 17.1797C7.55859 17.1797 7.21875 16.8398 7.21875 16.418C7.21875 15.9961 7.55859 15.668 7.99219 15.668L15.2344 15.668C15.6562 15.668 15.9844 15.9961 15.9844 16.418C15.9844 16.8398 15.6562 17.1797 15.2344 17.1797ZM7.99219 21.7031C7.57031 21.7031 7.21875 21.3516 7.21875 20.9414C7.21875 20.5312 7.55859 20.1914 7.99219 20.1914L15.2344 20.1914C15.6562 20.1914 15.9844 20.5312 15.9844 20.9414C15.9844 21.3516 15.6445 21.7031 15.2344 21.7031ZM3.63281 28.3945L16.0781 28.3945C18.5039 28.3945 19.7109 27.1758 19.7109 24.7148L19.7109 6.9375C19.7109 4.47656 18.5039 3.25781 16.1953 3.25781L15.9258 3.25781C15.9258 3.30469 15.9258 3.36328 15.9258 3.41016L15.9258 4.79297C15.9258 6.26953 14.9297 7.3125 13.4766 7.3125L6.23438 7.3125C4.78125 7.3125 3.78516 6.26953 3.78516 4.79297L3.78516 3.41016C3.78516 3.36328 3.78516 3.30469 3.78516 3.25781L3.51562 3.25781C1.20703 3.25781 0 4.47656 0 6.9375L0 24.7148C0 27.1758 1.20703 28.3945 3.63281 28.3945ZM6.23438 5.95312L13.4766 5.95312C14.1562 5.95312 14.5664 5.51953 14.5664 4.79297L14.5664 3.5625C14.5664 2.83594 14.1562 2.40234 13.4766 2.40234L12.3984 2.40234C12.3164 1.07812 11.2148 0 9.85547 0C8.49609 0 7.39453 1.07812 7.3125 2.40234L6.23438 2.40234C5.55469 2.40234 5.14453 2.83594 5.14453 3.5625L5.14453 4.79297C5.14453 5.51953 5.55469 5.95312 6.23438 5.95312ZM9.85547 3.51562C9.29297 3.51562 8.83594 3.04688 8.83594 2.49609C8.83594 1.92188 9.29297 1.46484 9.85547 1.46484C10.418 1.46484 10.875 1.92188 10.875 2.49609C10.875 3.04688 10.418 3.51562 9.85547 3.51562Z" fill="#000000"/>
</svg>
