<?xml version="1.0" encoding="UTF-8"?>

<!--
  - Copyright (c) 2023. Compose Cupertino project and open source contributors.
  -
  -  Licensed under the Apache License, Version 2.0 (the "License");
  -  you may not use this file except in compliance with the License.
  -  You may obtain a copy of the License at
  -
  -      http://www.apache.org/licenses/LICENSE-2.0
  -
  -  Unless required by applicable law or agreed to in writing, software
  -  distributed under the License is distributed on an "AS IS" BASIS,
  -  WITHOUT WARRANTIES OR CONDITIONS OF ANY KIND, either express or implied.
  -  See the License for the specific language governing permissions and
  -  limitations under the License.
  -
  -->

<svg version="1.1" xmlns="http://www.w3.org/2000/svg" xmlns:xlink="http://www.w3.org/1999/xlink" width="23.9062" height="23.918">
  <path d="M11.9531 23.9062C18.4922 23.9062 23.9062 18.4805 23.9062 11.9531C23.9062 5.41406 18.4805 0 11.9414 0C5.41406 0 0 5.41406 0 11.9531C0 18.4805 5.42578 23.9062 11.9531 23.9062Z M9.01172 8.70703C8.61328 8.70703 8.28516 8.36719 8.28516 7.96875C8.28516 7.55859 8.58984 7.24219 9.01172 7.24219L18.0586 7.24219C18.4805 7.24219 18.8086 7.55859 18.8086 7.96875C18.8086 8.37891 18.4805 8.70703 18.0586 8.70703ZM9.01172 16.6992C8.58984 16.6992 8.28516 16.3711 8.28516 15.9609C8.28516 15.5625 8.61328 15.2344 9.01172 15.2344L18.0586 15.2344C18.4805 15.2344 18.8086 15.5508 18.8086 15.9609C18.8086 16.3711 18.4805 16.6992 18.0586 16.6992ZM9.01172 12.7031C8.61328 12.7031 8.28516 12.3633 8.28516 11.9648C8.28516 11.5664 8.61328 11.2383 9.01172 11.2383L18.0586 11.2383C18.4805 11.2383 18.8086 11.5547 18.8086 11.9648C18.8086 12.375 18.4805 12.7031 18.0586 12.7031ZM6.09375 9.01172C5.51953 9.01172 5.0625 8.54297 5.0625 7.96875C5.0625 7.38281 5.51953 6.92578 6.09375 6.92578C6.67969 6.92578 7.13672 7.38281 7.13672 7.96875C7.13672 8.53125 6.66797 9.01172 6.09375 9.01172ZM6.09375 13.0078C5.51953 13.0078 5.0625 12.5508 5.0625 11.9648C5.0625 11.3789 5.51953 10.9219 6.09375 10.9219C6.66797 10.9219 7.13672 11.3906 7.13672 11.9648C7.13672 12.5391 6.66797 13.0078 6.09375 13.0078ZM6.09375 17.0039C5.51953 17.0039 5.0625 16.5469 5.0625 15.9609C5.0625 15.3867 5.51953 14.918 6.09375 14.918C6.66797 14.918 7.13672 15.3984 7.13672 15.9609C7.13672 16.5469 6.67969 17.0039 6.09375 17.0039Z" />
</svg>
