<?xml version="1.0" encoding="UTF-8"?>

<!--
  - Copyright (c) 2023. Compose Cupertino project and open source contributors.
  -
  -  Licensed under the Apache License, Version 2.0 (the "License");
  -  you may not use this file except in compliance with the License.
  -  You may obtain a copy of the License at
  -
  -      http://www.apache.org/licenses/LICENSE-2.0
  -
  -  Unless required by applicable law or agreed to in writing, software
  -  distributed under the License is distributed on an "AS IS" BASIS,
  -  WITHOUT WARRANTIES OR CONDITIONS OF ANY KIND, either express or implied.
  -  See the License for the specific language governing permissions and
  -  limitations under the License.
  -
  -->

<svg version="1.1" xmlns="http://www.w3.org/2000/svg" xmlns:xlink="http://www.w3.org/1999/xlink" width="15.9961" height="23.6133">
  <path d="M2.63672 22.9922L13.3594 22.9922C15.082 22.9922 15.9961 22.0547 15.9961 20.2031L15.9961 12.1289C15.9961 10.2773 15.082 9.35156 13.3594 9.35156L2.63672 9.35156C0.914062 9.35156 0 10.2773 0 12.1289L0 20.2031C0 22.0547 0.914062 22.9922 2.63672 22.9922ZM2.05078 10.2539L3.91406 10.2539L3.91406 6.29297C3.91406 3.33984 5.80078 1.76953 7.99219 1.76953C10.1836 1.76953 12.0938 3.33984 12.0938 6.29297L12.0938 10.2539L13.9453 10.2539L13.9453 6.55078C13.9453 2.14453 11.0625 0 7.99219 0C4.93359 0 2.05078 2.14453 2.05078 6.55078Z" fill="#000000"/>
</svg>
