<?xml version="1.0" encoding="UTF-8"?>

<!--
  - Copyright (c) 2023. Compose Cupertino project and open source contributors.
  -
  -  Licensed under the Apache License, Version 2.0 (the "License");
  -  you may not use this file except in compliance with the License.
  -  You may obtain a copy of the License at
  -
  -      http://www.apache.org/licenses/LICENSE-2.0
  -
  -  Unless required by applicable law or agreed to in writing, software
  -  distributed under the License is distributed on an "AS IS" BASIS,
  -  WITHOUT WARRANTIES OR CONDITIONS OF ANY KIND, either express or implied.
  -  See the License for the specific language governing permissions and
  -  limitations under the License.
  -
  -->

<svg version="1.1" xmlns="http://www.w3.org/2000/svg" xmlns:xlink="http://www.w3.org/1999/xlink" width="24.1172" height="23.5664">
  <path d="M2.63672 22.9688L13.3594 22.9688C15.082 22.9688 15.9961 22.0312 15.9961 20.1797L15.9961 12.1055C15.9961 10.2656 15.082 9.32812 13.3594 9.32812L2.63672 9.32812C0.914062 9.32812 0 10.2656 0 12.1055L0 20.1797C0 22.0312 0.914062 22.9688 2.63672 22.9688ZM12.2227 10.2422L14.0742 10.2422L14.0742 6.29297C14.0742 3.32812 15.9727 1.76953 18.1641 1.76953C20.3555 1.76953 22.2539 3.32812 22.2539 6.29297L22.2539 8.89453C22.2539 9.58594 22.6641 9.9375 23.1914 9.9375C23.6953 9.9375 24.1172 9.62109 24.1172 8.89453L24.1172 6.53906C24.1172 2.13281 21.2227 0 18.1641 0C15.0938 0 12.2227 2.13281 12.2227 6.53906Z" fill="#000000"/>
</svg>
