<?xml version="1.0" encoding="UTF-8"?>

<!--
  - Copyright (c) 2023. Compose Cupertino project and open source contributors.
  -
  -  Licensed under the Apache License, Version 2.0 (the "License");
  -  you may not use this file except in compliance with the License.
  -  You may obtain a copy of the License at
  -
  -      http://www.apache.org/licenses/LICENSE-2.0
  -
  -  Unless required by applicable law or agreed to in writing, software
  -  distributed under the License is distributed on an "AS IS" BASIS,
  -  WITHOUT WARRANTIES OR CONDITIONS OF ANY KIND, either express or implied.
  -  See the License for the specific language governing permissions and
  -  limitations under the License.
  -
  -->

<svg version="1.1" xmlns="http://www.w3.org/2000/svg" xmlns:xlink="http://www.w3.org/1999/xlink" width="23.9062" height="23.918">
  <path d="M11.9531 23.918C18.4922 23.918 23.9062 18.5039 23.9062 11.9648C23.9062 5.4375 18.4805 0.0117188 11.9414 0.0117188C5.41406 0.0117188 0 5.4375 0 11.9648C0 18.5039 5.42578 23.918 11.9531 23.918Z M7.59375 16.7578L7.59375 11.9414C7.59375 11.0859 7.94531 10.6758 8.64844 10.6289L8.64844 9.19922C8.64844 6.97266 9.98438 5.48438 11.9531 5.48438C13.9219 5.48438 15.2578 6.97266 15.2578 9.19922L15.2578 10.6289C15.9609 10.6758 16.3125 11.0859 16.3125 11.9414L16.3125 16.7578C16.3125 17.6602 15.9141 18.0703 15.082 18.0703L8.82422 18.0703C7.99219 18.0703 7.59375 17.6602 7.59375 16.7578ZM9.91406 10.6172L13.9922 10.6172L13.9922 9.05859C13.9922 7.65234 13.1719 6.70312 11.9531 6.70312C10.7344 6.70312 9.91406 7.65234 9.91406 9.05859Z"/>
</svg>
