<?xml version="1.0" encoding="UTF-8"?>

<!--
  - Copyright (c) 2023. Compose Cupertino project and open source contributors.
  -
  -  Licensed under the Apache License, Version 2.0 (the "License");
  -  you may not use this file except in compliance with the License.
  -  You may obtain a copy of the License at
  -
  -      http://www.apache.org/licenses/LICENSE-2.0
  -
  -  Unless required by applicable law or agreed to in writing, software
  -  distributed under the License is distributed on an "AS IS" BASIS,
  -  WITHOUT WARRANTIES OR CONDITIONS OF ANY KIND, either express or implied.
  -  See the License for the specific language governing permissions and
  -  limitations under the License.
  -
  -->

<svg version="1.1" xmlns="http://www.w3.org/2000/svg" xmlns:xlink="http://www.w3.org/1999/xlink" width="27.6328" height="21.5742">
  <path d="M5.56641 7.10156C5.09766 7.10156 4.75781 6.72656 4.75781 6.26953C4.75781 5.8125 5.09766 5.46094 5.56641 5.46094L13.125 5.46094C13.582 5.46094 13.9453 5.8125 13.9453 6.26953C13.9453 6.72656 13.582 7.10156 13.125 7.10156ZM5.56641 10.2305C5.09766 10.2305 4.75781 9.86719 4.75781 9.41016C4.75781 8.95312 5.09766 8.58984 5.56641 8.58984L11.0977 8.58984C11.5547 8.58984 11.918 8.95312 11.918 9.41016C11.918 9.86719 11.5547 10.2305 11.0977 10.2305ZM20.0742 10.5469C18.5273 10.5469 17.2617 9.29297 17.2617 7.73438C17.2617 6.17578 18.5273 4.92188 20.0742 4.92188C21.6211 4.92188 22.875 6.17578 22.875 7.73438C22.875 9.29297 21.6211 10.5469 20.0742 10.5469ZM3.67969 21.5742L23.9531 21.5742C26.4141 21.5742 27.6328 20.3672 27.6328 17.9531L27.6328 3.63281C27.6328 1.21875 26.4141 0 23.9531 0L3.67969 0C1.23047 0 0 1.21875 0 3.63281L0 17.9531C0 20.3672 1.23047 21.5742 3.67969 21.5742Z" fill="#000000"/>
</svg>
