<?xml version="1.0" encoding="UTF-8"?>

<!--
  - Copyright (c) 2023. Compose Cupertino project and open source contributors.
  -
  -  Licensed under the Apache License, Version 2.0 (the "License");
  -  you may not use this file except in compliance with the License.
  -  You may obtain a copy of the License at
  -
  -      http://www.apache.org/licenses/LICENSE-2.0
  -
  -  Unless required by applicable law or agreed to in writing, software
  -  distributed under the License is distributed on an "AS IS" BASIS,
  -  WITHOUT WARRANTIES OR CONDITIONS OF ANY KIND, either express or implied.
  -  See the License for the specific language governing permissions and
  -  limitations under the License.
  -
  -->

<svg version="1.1" xmlns="http://www.w3.org/2000/svg" xmlns:xlink="http://www.w3.org/1999/xlink" width="24.375" height="22.9805">
  <path d="M0 21.2344C0 22.0898 0.492188 22.582 1.33594 22.582C1.64062 22.582 1.93359 22.4883 2.32031 22.2773L7.24219 19.6172L7.24219 0.199219C7.03125 0.304688 6.79688 0.421875 6.58594 0.539062L1.03125 3.72656C0.328125 4.11328 0 4.67578 0 5.46094ZM8.84766 19.3945L14.7539 22.7109C14.9297 22.8047 15.1172 22.8867 15.293 22.9336L15.293 3.80859L9.50391 0.269531C9.30469 0.140625 9.07031 0.046875 8.84766 0ZM16.8867 22.8984C17.0039 22.8633 17.1328 22.8164 17.2383 22.7461L23.3438 19.2773C24.0469 18.8906 24.375 18.3281 24.375 17.543L24.375 1.75781C24.375 0.890625 23.8828 0.410156 23.0391 0.410156C22.7344 0.410156 22.4414 0.503906 22.0547 0.714844L16.8867 3.58594Z" fill="#000000"/>
</svg>
