<?xml version="1.0" encoding="UTF-8"?>

<!--
  - Copyright (c) 2023. Compose Cupertino project and open source contributors.
  -
  -  Licensed under the Apache License, Version 2.0 (the "License");
  -  you may not use this file except in compliance with the License.
  -  You may obtain a copy of the License at
  -
  -      http://www.apache.org/licenses/LICENSE-2.0
  -
  -  Unless required by applicable law or agreed to in writing, software
  -  distributed under the License is distributed on an "AS IS" BASIS,
  -  WITHOUT WARRANTIES OR CONDITIONS OF ANY KIND, either express or implied.
  -  See the License for the specific language governing permissions and
  -  limitations under the License.
  -
  -->

<svg version="1.1" xmlns="http://www.w3.org/2000/svg" xmlns:xlink="http://www.w3.org/1999/xlink" width="26.0977" height="25.0195">
  <path d="M4.91016 17.0742L7.42969 17.0742L7.42969 5.87109L4.91016 5.87109C1.71094 5.87109 0 7.53516 0 10.6172L0 12.3281C0 15.3984 1.71094 17.0742 4.91016 17.0742ZM9.03516 17.0859C12.3516 17.4492 16.5 18.4219 19.7227 20.0039C19.7227 19.8867 19.7227 19.7578 19.7227 19.6406L19.7227 3.33984C19.7227 3.19922 19.7227 3.08203 19.7227 2.94141C16.4648 4.53516 12.0586 5.54297 9.03516 5.87109ZM23.707 22.8633C25.1367 22.8633 26.0977 21.8906 26.0977 20.4844L26.0977 2.39062C26.0977 0.972656 25.1367 0 23.707 0C22.3008 0 21.3281 0.972656 21.3281 2.39062L21.3281 20.4844C21.3281 21.8906 22.3008 22.8633 23.707 22.8633ZM9.57422 25.0078C11.0273 25.0078 12.0938 23.9883 11.7188 22.1836L11.0625 19.0312C10.1719 18.8789 8.84766 18.7734 5.88281 18.6914C5.67188 18.6914 5.30859 18.668 4.93359 18.668L6.90234 22.9688C7.48828 24.2461 8.21484 25.0078 9.57422 25.0078Z" fill="#000000"/>
</svg>
