<?xml version="1.0" encoding="UTF-8"?>

<!--
  - Copyright (c) 2023. Compose Cupertino project and open source contributors.
  -
  -  Licensed under the Apache License, Version 2.0 (the "License");
  -  you may not use this file except in compliance with the License.
  -  You may obtain a copy of the License at
  -
  -      http://www.apache.org/licenses/LICENSE-2.0
  -
  -  Unless required by applicable law or agreed to in writing, software
  -  distributed under the License is distributed on an "AS IS" BASIS,
  -  WITHOUT WARRANTIES OR CONDITIONS OF ANY KIND, either express or implied.
  -  See the License for the specific language governing permissions and
  -  limitations under the License.
  -
  -->

<svg version="1.1" xmlns="http://www.w3.org/2000/svg" xmlns:xlink="http://www.w3.org/1999/xlink" width="18.7266" height="26.6004">
  <path d="M2.21484 24.2631L15.0352 26.5248C17.332 26.935 18.7266 25.6576 18.7266 23.1381L18.7266 8.99356C18.7266 6.69668 17.5547 5.86465 15.2695 5.46621L2.82422 3.26309C1.11328 2.97012 0 3.8959 0 5.5834L0 21.7084C0 23.1615 0.738281 24.0053 2.21484 24.2631ZM4.32422 9.76699C3.92578 9.69668 3.69141 9.39199 3.69141 8.97012C3.69141 8.46621 4.07812 8.13809 4.64062 8.23184L13.8984 9.84902C14.3203 9.94277 14.5547 10.1771 14.5547 10.6459C14.5547 11.1498 14.2031 11.5014 13.6289 11.4076ZM4.32422 14.4779C3.92578 14.4076 3.69141 14.1029 3.69141 13.6811C3.69141 13.1889 4.07812 12.8607 4.64062 12.9545L13.8984 14.5717C14.3203 14.6537 14.5547 14.8998 14.5547 15.3568C14.5547 15.8725 14.2031 16.224 13.6289 16.1303ZM5.41406 2.10293L15.5508 3.88418C16.5469 4.07168 17.3789 4.34121 18.0586 4.71621L18.0586 3.80215C18.0586 1.34121 16.4062 0.157618 13.6289 0.649806Z" fill="#000000"/>
</svg>
