<?xml version="1.0" encoding="UTF-8"?>

<!--
  - Copyright (c) 2023. Compose Cupertino project and open source contributors.
  -
  -  Licensed under the Apache License, Version 2.0 (the "License");
  -  you may not use this file except in compliance with the License.
  -  You may obtain a copy of the License at
  -
  -      http://www.apache.org/licenses/LICENSE-2.0
  -
  -  Unless required by applicable law or agreed to in writing, software
  -  distributed under the License is distributed on an "AS IS" BASIS,
  -  WITHOUT WARRANTIES OR CONDITIONS OF ANY KIND, either express or implied.
  -  See the License for the specific language governing permissions and
  -  limitations under the License.
  -
  -->

<svg version="1.1" xmlns="http://www.w3.org/2000/svg" xmlns:xlink="http://www.w3.org/1999/xlink" width="16.7695" height="26.5195">
  <path d="M0 12.2695C0 16.8633 3.03516 20.0859 7.5 20.4609L7.5 23.1914L3.15234 23.1914C2.66016 23.1914 2.26172 23.5898 2.26172 24.082C2.26172 24.5742 2.66016 24.9609 3.15234 24.9609L13.6172 24.9609C14.1094 24.9609 14.5078 24.5742 14.5078 24.082C14.5078 23.5898 14.1094 23.1914 13.6172 23.1914L9.26953 23.1914L9.26953 20.4609C13.7461 20.0859 16.7695 16.8633 16.7695 12.2695L16.7695 9.89062C16.7695 9.39844 16.3828 9.01172 15.8906 9.01172C15.3984 9.01172 15 9.39844 15 9.89062L15 12.1992C15 16.1953 12.3984 18.8438 8.39062 18.8438C4.37109 18.8438 1.76953 16.1953 1.76953 12.1992L1.76953 9.89062C1.76953 9.39844 1.38281 9.01172 0.878906 9.01172C0.386719 9.01172 0 9.39844 0 9.89062ZM8.39062 16.3242C10.7227 16.3242 12.293 14.5781 12.293 12.082L12.293 4.24219C12.293 1.73438 10.7227 0 8.39062 0C6.04688 0 4.47656 1.73438 4.47656 4.24219L4.47656 12.082C4.47656 14.5781 6.04688 16.3242 8.39062 16.3242Z" fill="#000000"/>
</svg>
