<?xml version="1.0" encoding="UTF-8"?>

<!--
  - Copyright (c) 2023. Compose Cupertino project and open source contributors.
  -
  -  Licensed under the Apache License, Version 2.0 (the "License");
  -  you may not use this file except in compliance with the License.
  -  You may obtain a copy of the License at
  -
  -      http://www.apache.org/licenses/LICENSE-2.0
  -
  -  Unless required by applicable law or agreed to in writing, software
  -  distributed under the License is distributed on an "AS IS" BASIS,
  -  WITHOUT WARRANTIES OR CONDITIONS OF ANY KIND, either express or implied.
  -  See the License for the specific language governing permissions and
  -  limitations under the License.
  -
  -->

<svg version="1.1" xmlns="http://www.w3.org/2000/svg" xmlns:xlink="http://www.w3.org/1999/xlink" width="19.9321" height="26.5195">
 <g>
  <path d="M1.40332 12.2695C1.40332 16.8633 4.43848 20.0859 8.90332 20.4609L8.90332 23.1914L4.55566 23.1914C4.06348 23.1914 3.66504 23.5898 3.66504 24.082C3.66504 24.5742 4.06348 24.9609 4.55566 24.9609L15.0205 24.9609C15.5127 24.9609 15.9111 24.5742 15.9111 24.082C15.9111 23.5898 15.5127 23.1914 15.0205 23.1914L10.6729 23.1914L10.6729 20.4609C11.9971 20.3555 13.1807 20.0039 14.2002 19.4297L12.9463 18.1641C12.0439 18.5977 10.9893 18.8438 9.79395 18.8438C5.77441 18.8438 3.17285 16.1953 3.17285 12.1992L3.17285 9.89062C3.17285 9.39844 2.78613 9.01172 2.28223 9.01172C1.79004 9.01172 1.40332 9.39844 1.40332 9.89062ZM15.9932 14.6836L17.3643 16.0547C17.8916 14.9531 18.1729 13.6758 18.1729 12.2695L18.1729 9.89062C18.1729 9.39844 17.7861 9.01172 17.2939 9.01172C16.8018 9.01172 16.4033 9.39844 16.4033 9.89062L16.4033 12.1992C16.4033 13.1016 16.2627 13.9336 15.9932 14.6836ZM9.79395 16.3242C10.1924 16.3242 10.5791 16.2656 10.9189 16.1367L5.87988 11.0977L5.87988 12.082C5.87988 14.5781 7.4502 16.3242 9.79395 16.3242ZM9.79395 0C12.126 0 13.6963 1.73438 13.6963 4.24219L13.6963 12.082C13.6963 12.1758 13.6846 12.2812 13.6611 12.3633L5.87988 4.58203L5.87988 4.11328C5.93848 1.67578 7.48535 0 9.79395 0Z" fill="#000000"/>
  <path d="M18.3955 21.6211C18.7471 21.9727 19.3213 21.9727 19.6729 21.6211C20.0127 21.2578 20.0244 20.6953 19.6729 20.3438L1.54395 2.22656C1.19238 1.88672 0.606445 1.875 0.254883 2.22656C-0.0849609 2.57812-0.0849609 3.16406 0.254883 3.50391Z" fill="#000000"/>
 </g>
</svg>
