<?xml version="1.0" encoding="UTF-8"?>

<!--
  - Copyright (c) 2023. Compose Cupertino project and open source contributors.
  -
  -  Licensed under the Apache License, Version 2.0 (the "License");
  -  you may not use this file except in compliance with the License.
  -  You may obtain a copy of the License at
  -
  -      http://www.apache.org/licenses/LICENSE-2.0
  -
  -  Unless required by applicable law or agreed to in writing, software
  -  distributed under the License is distributed on an "AS IS" BASIS,
  -  WITHOUT WARRANTIES OR CONDITIONS OF ANY KIND, either express or implied.
  -  See the License for the specific language governing permissions and
  -  limitations under the License.
  -
  -->

<svg version="1.1" xmlns="http://www.w3.org/2000/svg" xmlns:xlink="http://www.w3.org/1999/xlink" width="23.1211" height="23.2617">
  <path d="M18.1289 15.7031C11.7891 15.7031 7.73438 11.7305 7.73438 5.37891C7.73438 4.06641 8.05078 2.19141 8.47266 1.21875C8.57812 0.949219 8.60156 0.785156 8.60156 0.667969C8.60156 0.351562 8.36719 0 7.91016 0C7.78125 0 7.5 0.0351562 7.24219 0.128906C2.90625 1.86328 0 6.52734 0 11.4375C0 18.3281 5.25 23.25 12.1172 23.25C17.168 23.25 21.5391 20.1914 22.9922 16.3711C23.0977 16.1016 23.1211 15.8203 23.1211 15.7148C23.1211 15.2812 22.7578 14.9883 22.4297 14.9883C22.2773 14.9883 22.1484 15.0234 21.9258 15.0938C21.0234 15.3867 19.5703 15.7031 18.1289 15.7031Z" fill="#000000"/>
</svg>
