<?xml version="1.0" encoding="UTF-8"?>

<!--
  - Copyright (c) 2023. Compose Cupertino project and open source contributors.
  -
  -  Licensed under the Apache License, Version 2.0 (the "License");
  -  you may not use this file except in compliance with the License.
  -  You may obtain a copy of the License at
  -
  -      http://www.apache.org/licenses/LICENSE-2.0
  -
  -  Unless required by applicable law or agreed to in writing, software
  -  distributed under the License is distributed on an "AS IS" BASIS,
  -  WITHOUT WARRANTIES OR CONDITIONS OF ANY KIND, either express or implied.
  -  See the License for the specific language governing permissions and
  -  limitations under the License.
  -
  -->

<svg version="1.1" xmlns="http://www.w3.org/2000/svg" xmlns:xlink="http://www.w3.org/1999/xlink" width="23.4492" height="26.2383">
 <g>
  <path d="M10.125 24.3398C14.3555 24.3398 17.8008 22.2305 19.3594 18.5742C19.5352 18.1641 19.5117 17.8008 19.3008 17.5898C19.1367 17.4141 18.8086 17.3906 18.457 17.5195C17.4844 17.9062 16.3828 18.0938 15.1055 18.0938C9.79688 18.0938 6.375 14.7656 6.375 9.5625C6.375 8.23828 6.62109 6.75 7.01953 5.94141C7.21875 5.53125 7.21875 5.16797 7.03125 4.95703C6.83203 4.72266 6.46875 4.6875 6.01172 4.86328C2.41406 6.29297 0 10.0664 0 14.3555C0 20.0508 4.20703 24.3398 10.125 24.3398Z" fill="#000000"/>
  <path d="M18.9375 13.6289C19.1602 13.6289 19.3125 13.4766 19.3359 13.2422C19.7227 10.1133 19.875 10.0312 23.0508 9.51562C23.2969 9.48047 23.4492 9.35156 23.4492 9.12891C23.4492 8.90625 23.2969 8.76562 23.0977 8.73047C19.8984 8.12109 19.7227 8.13281 19.3359 5.00391C19.3125 4.76953 19.1602 4.61719 18.9375 4.61719C18.7266 4.61719 18.5742 4.76953 18.5391 4.99219C18.1406 8.16797 18.0234 8.27344 14.7773 8.73047C14.5781 8.75391 14.4258 8.90625 14.4258 9.12891C14.4258 9.33984 14.5781 9.48047 14.7773 9.51562C18.0234 10.1367 18.1289 10.1367 18.5391 13.2656C18.5742 13.4766 18.7266 13.6289 18.9375 13.6289ZM13.3359 5.69531C13.4766 5.69531 13.5469 5.61328 13.5703 5.48438C13.9336 3.52734 13.9219 3.48047 15.9609 3.09375C16.0898 3.07031 16.1836 2.98828 16.1836 2.84766C16.1836 2.70703 16.0898 2.625 15.9609 2.60156C13.9219 2.19141 13.9922 2.14453 13.5703 0.210938C13.5469 0.0820312 13.4766 0 13.3359 0C13.1953 0 13.1133 0.0820312 13.0898 0.210938C12.6797 2.14453 12.75 2.19141 10.7109 2.60156C10.5703 2.625 10.4883 2.70703 10.4883 2.84766C10.4883 2.98828 10.5703 3.07031 10.7109 3.09375C12.75 3.50391 12.7266 3.52734 13.0898 5.48438C13.1133 5.61328 13.1953 5.69531 13.3359 5.69531Z" fill="#000000"/>
 </g>
</svg>
