<?xml version="1.0" encoding="UTF-8"?>

<!--
  - Copyright (c) 2023. Compose Cupertino project and open source contributors.
  -
  -  Licensed under the Apache License, Version 2.0 (the "License");
  -  you may not use this file except in compliance with the License.
  -  You may obtain a copy of the License at
  -
  -      http://www.apache.org/licenses/LICENSE-2.0
  -
  -  Unless required by applicable law or agreed to in writing, software
  -  distributed under the License is distributed on an "AS IS" BASIS,
  -  WITHOUT WARRANTIES OR CONDITIONS OF ANY KIND, either express or implied.
  -  See the License for the specific language governing permissions and
  -  limitations under the License.
  -
  -->

<svg version="1.1" xmlns="http://www.w3.org/2000/svg" xmlns:xlink="http://www.w3.org/1999/xlink" width="26.1797" height="25.1367">
  <path d="M0 11.4258L0 21.8906C0 22.7461 0.621094 23.2969 1.44141 23.2969C2.26172 23.2852 2.88281 22.7461 2.88281 21.8906L2.88281 9.22266L2.30859 9.22266C0.878906 9.22266 0 10.0312 0 11.4258ZM3.96094 25.125L22.5 25.125C24.9609 25.125 26.1797 23.918 26.1797 21.5039L26.1797 3.63281C26.1797 1.21875 24.9609 0 22.5 0L8.84766 0C6.39844 0 5.16797 1.21875 5.16797 3.63281L5.16797 22.6641C5.16797 23.918 4.875 24.6211 3.96094 25.125ZM9.86719 6.98438C9.44531 6.98438 9.12891 6.65625 9.12891 6.24609C9.12891 5.84766 9.44531 5.54297 9.86719 5.54297L21.5039 5.54297C21.9141 5.54297 22.2305 5.84766 22.2305 6.24609C22.2305 6.65625 21.9141 6.98438 21.5039 6.98438ZM9.86719 11.1094C9.44531 11.1094 9.12891 10.793 9.12891 10.3945C9.12891 9.98438 9.44531 9.66797 9.86719 9.66797L21.5039 9.66797C21.9141 9.66797 22.2305 9.98438 22.2305 10.3945C22.2305 10.793 21.9141 11.1094 21.5039 11.1094ZM17.1328 15.2461C16.7109 15.2461 16.4062 14.9414 16.4062 14.543C16.4062 14.1211 16.7109 13.8047 17.1328 13.8047L21.5039 13.8047C21.9141 13.8047 22.2188 14.1211 22.2188 14.543C22.2188 14.9414 21.9141 15.2461 21.5039 15.2461ZM17.1328 19.4648C16.7109 19.4648 16.4062 19.1602 16.4062 18.7617C16.4062 18.3516 16.7109 18.0234 17.1328 18.0234L21.5039 18.0234C21.9141 18.0234 22.2188 18.3516 22.2188 18.7617C22.2188 19.1602 21.9141 19.4648 21.5039 19.4648ZM10.5 19.5234C9.63281 19.5234 9.11719 19.0078 9.11719 18.1523L9.11719 15.1875C9.11719 14.3203 9.63281 13.8047 10.5 13.8047L13.4297 13.8047C14.2852 13.8047 14.8008 14.3203 14.8008 15.1875L14.8008 18.1523C14.8008 19.0078 14.2852 19.5234 13.4297 19.5234Z" fill="#000000"/>
</svg>
