<?xml version="1.0" encoding="UTF-8"?>

<!--
  - Copyright (c) 2023. Compose Cupertino project and open source contributors.
  -
  -  Licensed under the Apache License, Version 2.0 (the "License");
  -  you may not use this file except in compliance with the License.
  -  You may obtain a copy of the License at
  -
  -      http://www.apache.org/licenses/LICENSE-2.0
  -
  -  Unless required by applicable law or agreed to in writing, software
  -  distributed under the License is distributed on an "AS IS" BASIS,
  -  WITHOUT WARRANTIES OR CONDITIONS OF ANY KIND, either express or implied.
  -  See the License for the specific language governing permissions and
  -  limitations under the License.
  -
  -->

<svg version="1.1" xmlns="http://www.w3.org/2000/svg" xmlns:xlink="http://www.w3.org/1999/xlink" width="23.9062" height="23.918">
  <path d="M8.80078 23.4492C9.80859 23.7422 10.875 23.9062 11.9531 23.9062C18.4922 23.9062 23.9062 18.4805 23.9062 11.9531C23.9062 10.875 23.7539 9.84375 23.4727 8.85938L17.2383 10.875C17.3203 11.2266 17.3555 11.5781 17.3555 11.9531C17.3555 14.9414 14.9414 17.3555 11.9648 17.3672C11.5664 17.3672 11.1914 17.332 10.8164 17.2383ZM23.1445 7.89844C22.8281 6.99609 22.3945 6.15234 21.8672 5.36719L16.6172 9.25781C16.7461 9.46875 16.8516 9.69141 16.9219 9.92578ZM21.2695 4.55859C19.957 2.87109 18.1758 1.54688 16.125 0.808594L14.0977 7.05469C14.8359 7.34766 15.5039 7.82812 16.0078 8.44922ZM15.1758 0.480469C14.1445 0.175781 13.0664 0 11.9414 0C5.41406 0 0 5.41406 0 11.9531C0 13.0781 0.175781 14.1914 0.492188 15.2227L6.71484 13.1953C6.60938 12.7969 6.5625 12.3867 6.5625 11.9531C6.5625 9.01172 9.01172 6.58594 11.9766 6.58594C12.375 6.58594 12.7617 6.64453 13.1367 6.72656ZM0.832031 16.1719C1.16016 17.0508 1.59375 17.8828 2.10938 18.6562L7.35938 14.7773C7.24219 14.5781 7.14844 14.3672 7.05469 14.1445ZM2.73047 19.4648C4.04297 21.1172 5.82422 22.418 7.83984 23.1211L9.85547 16.9219C9.14062 16.6406 8.48438 16.1719 7.99219 15.5859ZM11.9648 16.1719C14.2852 16.1719 16.1602 14.2734 16.1602 11.9531C16.1602 9.66797 14.2734 7.78125 11.9648 7.78125C9.65625 7.78125 7.75781 9.67969 7.75781 11.9531C7.75781 14.2969 9.64453 16.1719 11.9648 16.1719ZM11.9648 14.8242C10.3945 14.8242 9.10547 13.5352 9.10547 11.9766C9.10547 10.418 10.3945 9.12891 11.9648 9.12891C13.5234 9.12891 14.8125 10.418 14.8125 11.9648C14.8125 13.5352 13.5234 14.8242 11.9648 14.8242ZM11.9648 13.5234C12.8086 13.5352 13.5 12.832 13.5 11.9648C13.5 11.1328 12.8086 10.4297 11.9766 10.4297C11.0977 10.4297 10.418 11.1445 10.418 11.9648C10.418 12.832 11.0977 13.5117 11.9648 13.5234Z" fill="#000000"/>
</svg>
