<?xml version="1.0" encoding="UTF-8"?>

<!--
  - Copyright (c) 2023. Compose Cupertino project and open source contributors.
  -
  -  Licensed under the Apache License, Version 2.0 (the "License");
  -  you may not use this file except in compliance with the License.
  -  You may obtain a copy of the License at
  -
  -      http://www.apache.org/licenses/LICENSE-2.0
  -
  -  Unless required by applicable law or agreed to in writing, software
  -  distributed under the License is distributed on an "AS IS" BASIS,
  -  WITHOUT WARRANTIES OR CONDITIONS OF ANY KIND, either express or implied.
  -  See the License for the specific language governing permissions and
  -  limitations under the License.
  -
  -->

<svg version="1.1" xmlns="http://www.w3.org/2000/svg" xmlns:xlink="http://www.w3.org/1999/xlink" width="25.4409" height="23.8615">
  <path d="M0.258291 21.0069C2.21532 23.8194 6.53954 24.7804 9.30517 22.8585C11.6958 21.1944 12.2231 18.6163 10.6411 16.3663C9.22313 14.3272 6.65673 13.753 4.96923 14.9601C3.02392 16.3429 3.80907 18.2413 2.61376 19.0851C1.61767 19.7999 0.92626 19.3546 0.352041 19.7413C-0.0229592 19.9757-0.163584 20.421 0.258291 21.0069ZM11.0864 14.6319C11.9419 15.4874 12.5864 16.6241 12.7388 17.5499C13.688 17.3976 14.4497 16.9522 15.2466 16.1554C15.3755 16.0382 15.4927 15.9093 15.6099 15.7686C15.0942 12.9444 12.7388 10.6241 9.96142 10.1085C9.82079 10.2257 9.69188 10.3546 9.56298 10.4835C8.7661 11.2804 8.33251 12.0655 8.18017 12.9913C9.09423 13.1436 10.2427 13.7765 11.0864 14.6319ZM22.1372 0.698335C21.5395 1.13193 15.0239 5.59677 11.0278 9.12412C13.6763 9.95615 15.7505 12.0186 16.5942 14.7022C20.145 10.7061 24.5981 4.20224 25.0317 3.59287C26.4145 1.65927 24.0005-0.684478 22.1372 0.698335Z" fill="#000000"/>
</svg>
