<?xml version="1.0" encoding="UTF-8"?>

<!--
  - Copyright (c) 2023. Compose Cupertino project and open source contributors.
  -
  -  Licensed under the Apache License, Version 2.0 (the "License");
  -  you may not use this file except in compliance with the License.
  -  You may obtain a copy of the License at
  -
  -      http://www.apache.org/licenses/LICENSE-2.0
  -
  -  Unless required by applicable law or agreed to in writing, software
  -  distributed under the License is distributed on an "AS IS" BASIS,
  -  WITHOUT WARRANTIES OR CONDITIONS OF ANY KIND, either express or implied.
  -  See the License for the specific language governing permissions and
  -  limitations under the License.
  -
  -->

<svg version="1.1" xmlns="http://www.w3.org/2000/svg" xmlns:xlink="http://www.w3.org/1999/xlink" width="24.7417" height="28.0089">
  <path d="M1.39173 26.4322C3.21985 28.272 5.58704 28.2955 7.39173 26.4908C8.83314 25.0494 10.2277 21.7916 11.2941 20.1627L14.13 23.0103C14.9972 23.8892 16.0519 23.8892 16.8722 23.0455L17.88 22.0377C18.7355 21.1705 18.7238 20.1861 17.8449 19.3072L8.52845 9.97907C7.63782 9.10017 6.64173 9.08845 5.78626 9.94392L4.77845 10.9517C3.9347 11.7955 3.9347 12.815 4.8136 13.6939L7.64954 16.5299C6.03235 17.5963 2.78626 18.9908 1.33314 20.4322C-0.459833 22.2369-0.448115 24.6158 1.39173 26.4322ZM4.52064 24.9088C3.71204 24.9088 3.06751 24.2525 3.06751 23.4556C3.06751 22.6588 3.71204 22.0142 4.52064 22.0142C5.31751 22.0142 5.96204 22.6588 5.96204 23.4556C5.96204 24.2525 5.31751 24.9088 4.52064 24.9088ZM19.2394 18.7681L23.7863 14.2213C25.087 12.9205 25.0519 11.3736 23.7277 10.0259L23.13 9.41657C21.9113 10.9986 18.4308 12.8502 17.7628 12.1822C17.6574 12.0767 17.6456 11.8658 17.798 11.7017C19.2159 10.2838 20.1417 8.90095 20.3527 6.65095L14.3292 0.615791C13.2159-0.49749 11.2824-0.134209 10.755 1.97517C10.0167 4.97517 9.34876 6.72126 8.6222 8.16267Z" fill="#000000"/>
</svg>
