<?xml version="1.0" encoding="UTF-8"?>

<!--
  - Copyright (c) 2023. Compose Cupertino project and open source contributors.
  -
  -  Licensed under the Apache License, Version 2.0 (the "License");
  -  you may not use this file except in compliance with the License.
  -  You may obtain a copy of the License at
  -
  -      http://www.apache.org/licenses/LICENSE-2.0
  -
  -  Unless required by applicable law or agreed to in writing, software
  -  distributed under the License is distributed on an "AS IS" BASIS,
  -  WITHOUT WARRANTIES OR CONDITIONS OF ANY KIND, either express or implied.
  -  See the License for the specific language governing permissions and
  -  limitations under the License.
  -
  -->

<svg version="1.1" xmlns="http://www.w3.org/2000/svg" xmlns:xlink="http://www.w3.org/1999/xlink" width="28.2305" height="23.707">
  <path d="M21.8086 8.40234C20.918 8.40234 20.1914 7.69922 20.1914 6.80859C20.1914 5.92969 20.918 5.20312 21.8086 5.20312C22.6875 5.20312 23.3906 5.92969 23.3906 6.80859C23.3906 7.69922 22.6875 8.40234 21.8086 8.40234Z M16.2891 7.37109C15.2109 7.37109 14.2969 6.49219 14.2969 5.40234C14.2969 4.3125 15.2109 3.43359 16.2891 3.43359C17.3906 3.43359 18.2578 4.3125 18.2578 5.40234C18.2578 6.49219 17.3906 7.37109 16.2891 7.37109Z M10.043 9.22266C8.66016 9.22266 7.55859 8.14453 7.55859 6.76172C7.55859 5.41406 8.66016 4.33594 10.043 4.33594C11.3789 4.33594 12.4922 5.41406 12.4922 6.76172C12.4922 8.14453 11.3906 9.22266 10.043 9.22266Z M5.54297 13.3711C4.47656 13.3711 3.58594 12.4805 3.58594 11.4023C3.58594 10.3711 4.51172 9.46875 5.54297 9.46875C6.62109 9.46875 7.48828 10.3242 7.48828 11.4023C7.48828 12.4805 6.62109 13.3711 5.54297 13.3711Z M15.1641 23.4727C20.0977 23.4727 23.3906 21.7266 23.3906 19.1484C23.3906 16.8398 21.4219 16.3242 21.4219 14.9648C21.4219 13.0898 28.2305 12.7148 28.2305 7.89844C28.2305 3.14062 23.3203 0 16.0312 0C6.45703 0 0 4.78125 0 11.9414C0 18.832 6.12891 23.4727 15.1641 23.4727ZM14.9062 18.9961C13.1953 18.9961 11.7891 17.6016 11.7891 15.8789C11.7891 14.168 13.1953 12.7617 14.9062 12.7617C16.6289 12.7617 18.0352 14.168 18.0352 15.8789C18.0352 17.6016 16.6289 18.9961 14.9062 18.9961Z" fill="#000000"/>
</svg>
