<?xml version="1.0" encoding="UTF-8"?>

<!--
  - Copyright (c) 2023. Compose Cupertino project and open source contributors.
  -
  -  Licensed under the Apache License, Version 2.0 (the "License");
  -  you may not use this file except in compliance with the License.
  -  You may obtain a copy of the License at
  -
  -      http://www.apache.org/licenses/LICENSE-2.0
  -
  -  Unless required by applicable law or agreed to in writing, software
  -  distributed under the License is distributed on an "AS IS" BASIS,
  -  WITHOUT WARRANTIES OR CONDITIONS OF ANY KIND, either express or implied.
  -  See the License for the specific language governing permissions and
  -  limitations under the License.
  -
  -->

<svg version="1.1" xmlns="http://www.w3.org/2000/svg" xmlns:xlink="http://www.w3.org/1999/xlink" width="29.684" height="29.3789">
 <g>
  <path d="M18.6918 21.9844C21.7738 20.6953 18.8793 15.668 16.2074 12.9727C13.5121 10.3008 8.59021 7.39453 7.2074 10.4531L0.199587 25.9922C-0.57385 27.7148 1.03162 29.3672 2.76599 28.6406ZM11.9652 17.2031C9.15271 14.4023 8.01599 11.7188 8.80115 10.9453C9.57459 10.1602 12.2465 11.3086 15.0472 14.1328C17.8832 16.9336 19.0082 19.6172 18.2347 20.3789C17.4496 21.1758 14.7777 20.0273 11.9652 17.2031Z" fill="#000000"/>
  <path d="M10.5238 2.56641C11.2269 2.56641 11.8129 1.99219 11.8129 1.27734C11.8129 0.574219 11.2269 0 10.5238 0C9.79724 0 9.23474 0.574219 9.23474 1.27734C9.23474 1.99219 9.79724 2.56641 10.5238 2.56641ZM12.0707 4.75781C11.9886 4.32422 11.7074 3.96094 11.2504 3.96094C10.8168 3.97266 10.3715 4.33594 10.4652 4.80469C10.9926 7.55859 10.9926 10.3945 10.4652 13.1953C10.3597 13.6523 10.8168 14.0039 11.2386 14.0156C11.684 14.0156 11.9769 13.6641 12.059 13.2305C12.6097 10.3711 12.6097 7.58203 12.0707 4.75781ZM17.766 4.59375C18.9965 4.59375 19.9691 3.60938 19.9691 2.39062C19.9691 1.14844 18.9965 0.1875 17.766 0.1875C16.5355 0.1875 15.5629 1.14844 15.5629 2.39062C15.5629 3.60938 16.5355 4.59375 17.766 4.59375ZM15.5394 8.28516C16.1136 8.28516 16.5707 7.81641 16.5707 7.24219C16.5707 6.67969 16.1136 6.21094 15.5394 6.21094C14.9769 6.21094 14.4965 6.67969 14.4965 7.24219C14.4965 7.81641 14.9769 8.28516 15.5394 8.28516ZM27.3285 3.23438C27.891 3.23438 28.348 2.77734 28.348 2.20312C28.348 1.62891 27.891 1.16016 27.3285 1.16016C26.7543 1.16016 26.2972 1.62891 26.2972 2.20312C26.2972 2.77734 26.7543 3.23438 27.3285 3.23438ZM23.9418 3.99609L21.7504 6.1875C21.434 6.50391 21.4457 7.01953 21.7504 7.33594C22.0785 7.65234 22.5941 7.66406 22.9105 7.33594L25.1019 5.15625C25.4183 4.83984 25.4066 4.3125 25.1019 3.99609C24.7855 3.69141 24.2582 3.67969 23.9418 3.99609ZM19.5941 8.35547L13.6176 14.3203C13.3011 14.625 13.3129 15.1641 13.6176 15.4805C13.934 15.7852 14.473 15.7969 14.7777 15.4805L20.7426 9.50391C21.0355 9.19922 21.0355 8.68359 20.7426 8.35547C20.4144 8.0625 19.8988 8.0625 19.5941 8.35547ZM28.3949 13.7461C29.1097 13.7461 29.684 13.1719 29.684 12.4453C29.684 11.7422 29.1097 11.168 28.3949 11.168C27.6683 11.168 27.1058 11.7422 27.1058 12.4453C27.1058 13.1719 27.6683 13.7461 28.3949 13.7461ZM23.3558 14.2266C24.3988 14.2266 25.2308 13.418 25.2308 12.375C25.2308 11.3438 24.3988 10.5117 23.3558 10.5117C22.3246 10.5117 21.516 11.3438 21.516 12.375C21.516 13.418 22.3246 14.2266 23.3558 14.2266ZM27.9496 19.7461C28.6644 19.7461 29.2386 19.1836 29.2386 18.457C29.2386 17.7422 28.6644 17.168 27.9496 17.168C27.2347 17.168 26.6605 17.7422 26.6605 18.457C26.6605 19.1836 27.2347 19.7461 27.9496 19.7461ZM24.3754 17.0273C21.5394 16.4883 18.7621 16.4883 15.891 17.0273C15.4691 17.1211 15.1058 17.4141 15.1176 17.8477C15.1176 18.2812 15.4691 18.7383 15.9379 18.6445C18.7386 18.1172 21.5629 18.1055 24.3285 18.6328C24.7738 18.7266 25.1488 18.293 25.1605 17.8477C25.1722 17.3906 24.7972 17.1094 24.3754 17.0273Z" fill="#000000"/>
 </g>
</svg>
