<?xml version="1.0" encoding="UTF-8"?>

<svg version="1.1" xmlns="http://www.w3.org/2000/svg" xmlns:xlink="http://www.w3.org/1999/xlink" width="14.2969" height="19.0898">
  <path d="M1.55859 19.0898L4.23047 19.0898C5.25 19.0898 5.78906 18.5508 5.78906 17.5195L5.78906 1.55859C5.78906 0.492188 5.25 0 4.23047 0L1.55859 0C0.539062 0 0 0.539062 0 1.55859L0 17.5195C0 18.5508 0.539062 19.0898 1.55859 19.0898ZM10.0781 19.0898L12.7383 19.0898C13.7695 19.0898 14.2969 18.5508 14.2969 17.5195L14.2969 1.55859C14.2969 0.492188 13.7695 0 12.7383 0L10.0781 0C9.04688 0 8.50781 0.539062 8.50781 1.55859L8.50781 17.5195C8.50781 18.5508 9.04688 19.0898 10.0781 19.0898Z" fill="#000000"/>
</svg>
