<?xml version="1.0" encoding="UTF-8"?>

<!--
  - Copyright (c) 2023. Compose Cupertino project and open source contributors.
  -
  -  Licensed under the Apache License, Version 2.0 (the "License");
  -  you may not use this file except in compliance with the License.
  -  You may obtain a copy of the License at
  -
  -      http://www.apache.org/licenses/LICENSE-2.0
  -
  -  Unless required by applicable law or agreed to in writing, software
  -  distributed under the License is distributed on an "AS IS" BASIS,
  -  WITHOUT WARRANTIES OR CONDITIONS OF ANY KIND, either express or implied.
  -  See the License for the specific language governing permissions and
  -  limitations under the License.
  -
  -->

<svg version="1.1" xmlns="http://www.w3.org/2000/svg" xmlns:xlink="http://www.w3.org/1999/xlink" width="23.9062" height="23.918">
  <path d="M11.9531 23.9062C18.4922 23.9062 23.9062 18.4805 23.9062 11.9531C23.9062 5.41406 18.4805 0 11.9414 0C5.41406 0 0 5.41406 0 11.9531C0 18.4805 5.42578 23.9062 11.9531 23.9062Z M8.54297 16.6641C7.94531 16.6641 7.67578 16.3359 7.67578 15.8672L7.67578 8.01562C7.67578 7.55859 7.94531 7.23047 8.54297 7.23047L9.72656 7.23047C10.3359 7.23047 10.6055 7.55859 10.6055 8.01562L10.6055 15.8672C10.6055 16.3359 10.3359 16.6641 9.72656 16.6641ZM14.2031 16.6641C13.5938 16.6641 13.3242 16.3359 13.3242 15.8672L13.3242 8.01562C13.3242 7.55859 13.5938 7.23047 14.2031 7.23047L15.3867 7.23047C15.9727 7.23047 16.2422 7.55859 16.2422 8.01562L16.2422 15.8672C16.2422 16.3359 15.9727 16.6641 15.3867 16.6641Z"/>
</svg>
