<?xml version="1.0" encoding="UTF-8"?>

<!--
  - Copyright (c) 2023. Compose Cupertino project and open source contributors.
  -
  -  Licensed under the Apache License, Version 2.0 (the "License");
  -  you may not use this file except in compliance with the License.
  -  You may obtain a copy of the License at
  -
  -      http://www.apache.org/licenses/LICENSE-2.0
  -
  -  Unless required by applicable law or agreed to in writing, software
  -  distributed under the License is distributed on an "AS IS" BASIS,
  -  WITHOUT WARRANTIES OR CONDITIONS OF ANY KIND, either express or implied.
  -  See the License for the specific language governing permissions and
  -  limitations under the License.
  -
  -->

<svg version="1.1" xmlns="http://www.w3.org/2000/svg" xmlns:xlink="http://www.w3.org/1999/xlink" width="24.6562" height="24.0117">
  <path d="M0 10.8633C0 13.1836 1.21875 14.9648 2.80078 14.9648C4.38281 14.9648 5.61328 13.1836 5.61328 10.8633C5.61328 8.55469 4.38281 6.76172 2.80078 6.76172C1.21875 6.76172 0 8.55469 0 10.8633ZM5.68359 4.10156C5.68359 6.41016 6.92578 8.19141 8.49609 8.19141C10.0898 8.19141 11.3203 6.39844 11.3203 4.10156C11.3203 1.78125 10.0898 0 8.49609 0C6.92578 0 5.68359 1.78125 5.68359 4.10156ZM13.3477 4.10156C13.3477 6.39844 14.5664 8.19141 16.1602 8.19141C17.7305 8.19141 18.9727 6.41016 18.9727 4.10156C18.9727 1.78125 17.7305 0 16.1602 0C14.5664 0 13.3477 1.78125 13.3477 4.10156ZM19.043 10.8633C19.043 13.1836 20.2734 14.9648 21.8555 14.9648C23.4375 14.9648 24.6562 13.1836 24.6562 10.8633C24.6562 8.55469 23.4375 6.76172 21.8555 6.76172C20.2734 6.76172 19.043 8.55469 19.043 10.8633ZM3.51562 19.9336C3.51562 22.3008 5.10938 23.9883 7.45312 23.9883C8.61328 23.9883 9.45703 23.6602 10.2656 23.3789C10.9219 23.1445 11.5547 22.9336 12.3281 22.9336C13.0898 22.9336 13.7227 23.1445 14.3906 23.3789C15.1992 23.6602 16.0312 23.9883 17.1914 23.9883C19.5469 23.9883 21.1406 22.3008 21.1406 19.9336C21.1406 17.918 19.9336 16.8984 18.7734 15.9492C18.1289 15.4336 17.5078 14.9414 17.0859 14.2852C16.7344 13.7578 16.4414 13.1836 16.1953 12.6445C15.3516 10.8398 14.6836 9.14062 12.3281 9.14062C9.96094 9.14062 9.30469 10.8398 8.46094 12.6328C8.20312 13.1836 7.92188 13.7461 7.58203 14.2617C7.14844 14.918 6.51562 15.4336 5.88281 15.9492C4.72266 16.8984 3.51562 17.9297 3.51562 19.9336Z" fill="#000000"/>
</svg>
