<?xml version="1.0" encoding="UTF-8"?>

<!--
  - Copyright (c) 2023. Compose Cupertino project and open source contributors.
  -
  -  Licensed under the Apache License, Version 2.0 (the "License");
  -  you may not use this file except in compliance with the License.
  -  You may obtain a copy of the License at
  -
  -      http://www.apache.org/licenses/LICENSE-2.0
  -
  -  Unless required by applicable law or agreed to in writing, software
  -  distributed under the License is distributed on an "AS IS" BASIS,
  -  WITHOUT WARRANTIES OR CONDITIONS OF ANY KIND, either express or implied.
  -  See the License for the specific language governing permissions and
  -  limitations under the License.
  -
  -->

<svg version="1.1" xmlns="http://www.w3.org/2000/svg" xmlns:xlink="http://www.w3.org/1999/xlink" width="23.9062" height="23.918">
  <path d="M11.9531 23.9062C18.4922 23.9062 23.9062 18.4805 23.9062 11.9531C23.9062 5.41406 18.4805 0 11.9414 0C5.41406 0 0 5.41406 0 11.9531C0 18.4805 5.42578 23.9062 11.9531 23.9062Z M11.9414 22.125C9.25781 22.125 6.53906 21.0234 4.74609 19.1133C6.01172 17.1211 8.76562 15.9492 11.9414 15.9492C15.0938 15.9492 17.8711 17.0977 19.1484 19.1133C17.3438 21.0234 14.6367 22.125 11.9414 22.125ZM11.9414 13.957C9.69141 13.9336 7.92188 12.0586 7.92188 9.53906C7.91016 7.17188 9.70312 5.20312 11.9414 5.20312C14.1914 5.20312 15.9609 7.17188 15.9609 9.53906C15.9609 12.0586 14.2031 13.9805 11.9414 13.957Z"/>
</svg>
