<?xml version="1.0" encoding="UTF-8"?>

<!--
  - Copyright (c) 2023. Compose Cupertino project and open source contributors.
  -
  -  Licensed under the Apache License, Version 2.0 (the "License");
  -  you may not use this file except in compliance with the License.
  -  You may obtain a copy of the License at
  -
  -      http://www.apache.org/licenses/LICENSE-2.0
  -
  -  Unless required by applicable law or agreed to in writing, software
  -  distributed under the License is distributed on an "AS IS" BASIS,
  -  WITHOUT WARRANTIES OR CONDITIONS OF ANY KIND, either express or implied.
  -  See the License for the specific language governing permissions and
  -  limitations under the License.
  -
  -->

<svg version="1.1" xmlns="http://www.w3.org/2000/svg" xmlns:xlink="http://www.w3.org/1999/xlink" width="31.9453" height="21.457">
 <g>
  <path d="M14.7188 21.457L29.4375 21.457C31.2891 21.457 31.9453 20.9297 31.9453 19.8984C31.9453 16.875 28.1602 12.7031 22.0781 12.7031C16.0078 12.7031 12.2227 16.875 12.2227 19.8984C12.2227 20.9297 12.8789 21.457 14.7188 21.457ZM22.0898 10.6055C24.5977 10.6055 26.7656 8.35547 26.7656 5.42578C26.7656 2.53125 24.5859 0.386719 22.0898 0.386719C19.582 0.386719 17.3906 2.57812 17.4023 5.44922C17.4023 8.35547 19.5703 10.6055 22.0898 10.6055Z" fill="#000000"/>
  <path d="M2.0625 21.457L10.957 21.457C9.73828 19.6875 11.2266 16.125 13.7578 14.1797C12.4453 13.3125 10.7695 12.668 8.58984 12.668C3.30469 12.668 0 16.5703 0 19.8164C0 20.8711 0.574219 21.457 2.0625 21.457ZM8.58984 10.875C10.7812 10.875 12.668 8.90625 12.668 6.36328C12.668 3.84375 10.7695 1.98047 8.58984 1.98047C6.42188 1.98047 4.5 3.89062 4.51172 6.38672C4.51172 8.90625 6.41016 10.875 8.58984 10.875Z" fill="#000000"/>
 </g>
</svg>
