<?xml version="1.0" encoding="UTF-8"?>

<!--
  - Copyright (c) 2023. Compose Cupertino project and open source contributors.
  -
  -  Licensed under the Apache License, Version 2.0 (the "License");
  -  you may not use this file except in compliance with the License.
  -  You may obtain a copy of the License at
  -
  -      http://www.apache.org/licenses/LICENSE-2.0
  -
  -  Unless required by applicable law or agreed to in writing, software
  -  distributed under the License is distributed on an "AS IS" BASIS,
  -  WITHOUT WARRANTIES OR CONDITIONS OF ANY KIND, either express or implied.
  -  See the License for the specific language governing permissions and
  -  limitations under the License.
  -
  -->

<svg version="1.1" xmlns="http://www.w3.org/2000/svg" xmlns:xlink="http://www.w3.org/1999/xlink" width="27.6328" height="21.5742">
  <path d="M3.67969 21.5742L23.9531 21.5742C26.4141 21.5742 27.6328 20.3672 27.6328 17.9531L27.6328 3.63281C27.6328 1.21875 26.4141 0 23.9531 0L3.67969 0C1.23047 0 0 1.21875 0 3.63281L0 17.9531C0 20.3672 1.23047 21.5742 3.67969 21.5742Z M16.582 6.92578C16.1602 6.92578 15.8438 6.60938 15.8438 6.19922C15.8438 5.80078 16.1602 5.48438 16.582 5.48438L22.9805 5.48438C23.3906 5.48438 23.707 5.80078 23.707 6.19922C23.707 6.60938 23.3906 6.92578 22.9805 6.92578ZM16.582 11.5195C16.1602 11.5195 15.8438 11.1914 15.8438 10.7812C15.8438 10.3828 16.1602 10.0781 16.582 10.0781L22.9805 10.0781C23.3906 10.0781 23.707 10.3828 23.707 10.7812C23.707 11.1914 23.3906 11.5195 22.9805 11.5195ZM16.582 16.1016C16.1602 16.1016 15.8438 15.7969 15.8438 15.3984C15.8438 14.9883 16.1602 14.6602 16.582 14.6602L22.9805 14.6602C23.3906 14.6602 23.707 14.9883 23.707 15.3984C23.707 15.7969 23.3906 16.1016 22.9805 16.1016ZM4.37109 16.1836C3.98438 16.1836 3.79688 15.9258 3.79688 15.5742C3.79688 14.4727 5.4375 11.6367 8.94141 11.6367C12.4453 11.6367 14.0977 14.4727 14.0977 15.5742C14.0977 15.9258 13.9102 16.1836 13.5234 16.1836ZM8.94141 10.8164C7.52344 10.8164 6.375 9.62109 6.375 8.01562C6.375 6.51562 7.52344 5.27344 8.94141 5.27344C10.3711 5.27344 11.5078 6.51562 11.5078 8.01562C11.5078 9.62109 10.3711 10.8281 8.94141 10.8164Z" />
</svg>
