<?xml version="1.0" encoding="UTF-8"?>

<!--
  - Copyright (c) 2023. Compose Cupertino project and open source contributors.
  -
  -  Licensed under the Apache License, Version 2.0 (the "License");
  -  you may not use this file except in compliance with the License.
  -  You may obtain a copy of the License at
  -
  -      http://www.apache.org/licenses/LICENSE-2.0
  -
  -  Unless required by applicable law or agreed to in writing, software
  -  distributed under the License is distributed on an "AS IS" BASIS,
  -  WITHOUT WARRANTIES OR CONDITIONS OF ANY KIND, either express or implied.
  -  See the License for the specific language governing permissions and
  -  limitations under the License.
  -
  -->

<svg version="1.1" xmlns="http://www.w3.org/2000/svg" xmlns:xlink="http://www.w3.org/1999/xlink" width="22.9453" height="22.957">
 <g>
  <path d="M0.9375 7.47656C1.55859 7.47656 1.88672 7.125 1.88672 6.51562L1.88672 3.75C1.88672 2.53125 2.53125 1.91016 3.70312 1.91016L6.53906 1.91016C7.16016 1.91016 7.5 1.57031 7.5 0.960938C7.5 0.351562 7.16016 0.0234375 6.53906 0.0234375L3.67969 0.0234375C1.23047 0.0234375 0 1.23047 0 3.64453L0 6.51562C0 7.125 0.339844 7.47656 0.9375 7.47656ZM21.9961 7.47656C22.6172 7.47656 22.9453 7.125 22.9453 6.51562L22.9453 3.64453C22.9453 1.23047 21.7148 0.0234375 19.2656 0.0234375L16.3945 0.0234375C15.7852 0.0234375 15.4453 0.351562 15.4453 0.960938C15.4453 1.57031 15.7852 1.91016 16.3945 1.91016L19.2305 1.91016C20.3906 1.91016 21.0586 2.53125 21.0586 3.75L21.0586 6.51562C21.0586 7.125 21.3984 7.47656 21.9961 7.47656ZM3.67969 22.957L6.53906 22.957C7.16016 22.957 7.5 22.6172 7.5 22.0195C7.5 21.4102 7.16016 21.0703 6.53906 21.0703L3.70312 21.0703C2.53125 21.0703 1.88672 20.4492 1.88672 19.2305L1.88672 16.4648C1.88672 15.8438 1.54688 15.5039 0.9375 15.5039C0.328125 15.5039 0 15.8438 0 16.4648L0 19.3242C0 21.75 1.23047 22.957 3.67969 22.957ZM16.3945 22.957L19.2656 22.957C21.7148 22.957 22.9453 21.7383 22.9453 19.3242L22.9453 16.4648C22.9453 15.8438 22.6055 15.5039 21.9961 15.5039C21.3867 15.5039 21.0586 15.8438 21.0586 16.4648L21.0586 19.2305C21.0586 20.4492 20.3906 21.0703 19.2305 21.0703L16.3945 21.0703C15.7852 21.0703 15.4453 21.4102 15.4453 22.0195C15.4453 22.6172 15.7852 22.957 16.3945 22.957Z" fill="#000000"/>
  <path d="M5.57812 18.0234L17.3672 18.0234C17.8711 18.0234 18.1289 17.6836 18.1289 17.2031C18.1289 15.7969 15.9961 12.1406 11.4727 12.1406C6.94922 12.1406 4.81641 15.7969 4.81641 17.2031C4.81641 17.6836 5.07422 18.0234 5.57812 18.0234ZM11.4727 11.0859C13.3125 11.0977 14.7773 9.53906 14.7773 7.46484C14.7773 5.53125 13.3125 3.92578 11.4727 3.92578C9.63281 3.92578 8.16797 5.53125 8.16797 7.46484C8.16797 9.53906 9.63281 11.0742 11.4727 11.0859Z" fill="#000000"/>
 </g>
</svg>
