<?xml version="1.0" encoding="UTF-8"?>

<!--
  - Copyright (c) 2023. Compose Cupertino project and open source contributors.
  -
  -  Licensed under the Apache License, Version 2.0 (the "License");
  -  you may not use this file except in compliance with the License.
  -  You may obtain a copy of the License at
  -
  -      http://www.apache.org/licenses/LICENSE-2.0
  -
  -  Unless required by applicable law or agreed to in writing, software
  -  distributed under the License is distributed on an "AS IS" BASIS,
  -  WITHOUT WARRANTIES OR CONDITIONS OF ANY KIND, either express or implied.
  -  See the License for the specific language governing permissions and
  -  limitations under the License.
  -
  -->

<svg version="1.1" xmlns="http://www.w3.org/2000/svg" xmlns:xlink="http://www.w3.org/1999/xlink" width="26.5547" height="27.3644">
 <g>
  <path d="M2.50781 24.4107L17.2266 24.4107C19.0664 24.4107 19.7227 23.8834 19.7227 22.8521C19.7227 19.8287 15.9375 15.6568 9.86719 15.6568C3.78516 15.6568 0 19.8287 0 22.8521C0 23.8834 0.65625 24.4107 2.50781 24.4107ZM9.86719 13.5591C12.3867 13.5591 14.5547 11.3091 14.5547 8.37944C14.5547 5.48491 12.375 3.34038 9.86719 3.34038C7.35938 3.34038 5.17969 5.53179 5.17969 8.40288C5.17969 11.3091 7.35938 13.5591 9.86719 13.5591Z" fill="#000000"/>
  <path d="M18.5508 13.2076C18.9375 13.4771 19.4883 13.3951 19.8047 12.938C20.707 11.7544 21.2461 10.0084 21.2461 8.21538C21.2461 6.42241 20.707 4.68804 19.8047 3.49273C19.4883 3.03569 18.9375 2.95366 18.5508 3.22319C18.0703 3.55132 18 4.13726 18.3633 4.61773C19.043 5.55523 19.4297 6.85601 19.4297 8.21538C19.4297 9.57476 19.0312 10.8638 18.3633 11.813C18.0117 12.3052 18.0703 12.8677 18.5508 13.2076Z" fill="#000000"/>
  <path d="M22.8867 16.2662C23.3203 16.5591 23.8594 16.4537 24.1758 16.0084C25.6758 13.9459 26.5547 11.1099 26.5547 8.21538C26.5547 5.32085 25.6875 2.46148 24.1758 0.422413C23.8594-0.0228998 23.3203-0.128369 22.8867 0.1646C22.4531 0.457569 22.3828 1.00835 22.7227 1.48882C24.0117 3.29351 24.7383 5.71929 24.7383 8.21538C24.7383 10.7115 23.9883 13.1255 22.7227 14.9419C22.3945 15.4224 22.4531 15.9732 22.8867 16.2662Z" fill="#000000"/>
 </g>
</svg>
