<?xml version="1.0" encoding="UTF-8"?>

<!--
  - Copyright (c) 2023. Compose Cupertino project and open source contributors.
  -
  -  Licensed under the Apache License, Version 2.0 (the "License");
  -  you may not use this file except in compliance with the License.
  -  You may obtain a copy of the License at
  -
  -      http://www.apache.org/licenses/LICENSE-2.0
  -
  -  Unless required by applicable law or agreed to in writing, software
  -  distributed under the License is distributed on an "AS IS" BASIS,
  -  WITHOUT WARRANTIES OR CONDITIONS OF ANY KIND, either express or implied.
  -  See the License for the specific language governing permissions and
  -  limitations under the License.
  -
  -->

<svg version="1.1" xmlns="http://www.w3.org/2000/svg" xmlns:xlink="http://www.w3.org/1999/xlink" width="24.1436" height="25.5645">
 <g>
  <path d="M5.94141 18.085C9.32812 21.4717 13.4531 24.085 16.8164 24.085C18.3281 24.085 19.6523 23.5576 20.7188 22.3857C21.3398 21.6943 21.7266 20.8857 21.7266 20.0889C21.7266 19.5029 21.5039 18.9404 20.9414 18.542L17.3555 15.9873C16.8047 15.6123 16.3477 15.4248 15.9258 15.4248C15.3867 15.4248 14.918 15.7295 14.3789 16.2568L13.5469 17.0771C13.418 17.2061 13.2539 17.2646 13.1016 17.2646C12.9141 17.2646 12.75 17.1943 12.6211 17.1357C11.9062 16.749 10.6641 15.6826 9.50391 14.5342C8.35547 13.3857 7.28906 12.1436 6.91406 11.417C6.84375 11.2881 6.78516 11.124 6.78516 10.9482C6.78516 10.7959 6.83203 10.6436 6.96094 10.5146L7.78125 9.65918C8.30859 9.12012 8.61328 8.65137 8.61328 8.1123C8.61328 7.69043 8.42578 7.2334 8.03906 6.68262L5.51953 3.13184C5.10938 2.56934 4.53516 2.32324 3.90234 2.32324C3.12891 2.32324 2.32031 2.6748 1.64062 3.34277C0.503906 4.43262 0 5.78027 0 7.26855C0 10.6318 2.56641 14.71 5.94141 18.085Z" fill="#000000"/>
  <path d="M12 12.1318C12.6328 12.7646 13.6406 12.7646 14.2734 12.1318C14.9062 11.499 14.9062 10.4912 14.2734 9.88184C13.6406 9.2373 12.6328 9.2373 12 9.8584C11.3789 10.4912 11.3789 11.499 12 12.1318ZM13.1602 5.63965C12.7852 6.00293 12.7852 6.6123 13.1602 6.97559L17.1562 10.9834C17.5195 11.3467 18.1289 11.3467 18.4922 10.9834C18.8555 10.6201 18.8555 10.0107 18.4922 9.64746L14.4844 5.63965C14.1211 5.27637 13.5234 5.27637 13.1602 5.63965ZM17.3789 6.77637C18.0117 7.37402 19.0195 7.38574 19.6406 6.75293C20.2617 6.13184 20.2617 5.12402 19.6406 4.50293C19.0195 3.87012 18 3.87012 17.3789 4.49121C16.7461 5.12402 16.7461 6.12012 17.3789 6.77637ZM18.5391 0.272461C18.1758 0.635742 18.1758 1.2334 18.5391 1.6084L22.5352 5.60449C22.8984 5.97949 23.5078 5.97949 23.8711 5.60449C24.2344 5.24121 24.2344 4.64355 23.8711 4.28027L19.875 0.272461C19.5-0.0908203 18.8906-0.0908203 18.5391 0.272461Z" fill="#000000"/>
 </g>
</svg>
