<?xml version="1.0" encoding="UTF-8"?>

<!--
  - Copyright (c) 2023. Compose Cupertino project and open source contributors.
  -
  -  Licensed under the Apache License, Version 2.0 (the "License");
  -  you may not use this file except in compliance with the License.
  -  You may obtain a copy of the License at
  -
  -      http://www.apache.org/licenses/LICENSE-2.0
  -
  -  Unless required by applicable law or agreed to in writing, software
  -  distributed under the License is distributed on an "AS IS" BASIS,
  -  WITHOUT WARRANTIES OR CONDITIONS OF ANY KIND, either express or implied.
  -  See the License for the specific language governing permissions and
  -  limitations under the License.
  -
  -->

<svg version="1.1" xmlns="http://www.w3.org/2000/svg" xmlns:xlink="http://www.w3.org/1999/xlink" width="24.7266" height="23.8242">
 <g>
  <path d="M5.94141 17.2148C9.32812 20.6016 13.4531 23.2148 16.8164 23.2148C18.3281 23.2148 19.6523 22.6875 20.7188 21.5156C21.3398 20.8242 21.7266 20.0156 21.7266 19.2188C21.7266 18.6328 21.5039 18.0703 20.9414 17.6719L17.3555 15.1172C16.8047 14.7422 16.3477 14.5547 15.9258 14.5547C15.3867 14.5547 14.918 14.8594 14.3789 15.3867L13.5469 16.207C13.418 16.3359 13.2539 16.3945 13.1016 16.3945C12.9141 16.3945 12.75 16.3242 12.6211 16.2656C11.9062 15.8789 10.6641 14.8125 9.50391 13.6641C8.35547 12.5156 7.28906 11.2734 6.91406 10.5469C6.84375 10.418 6.78516 10.2539 6.78516 10.0781C6.78516 9.92578 6.83203 9.77344 6.96094 9.64453L7.78125 8.78906C8.30859 8.25 8.61328 7.78125 8.61328 7.24219C8.61328 6.82031 8.42578 6.36328 8.03906 5.8125L5.51953 2.26172C5.10938 1.69922 4.53516 1.45312 3.90234 1.45312C3.12891 1.45312 2.32031 1.80469 1.64062 2.47266C0.503906 3.5625 0 4.91016 0 6.39844C0 9.76172 2.56641 13.8398 5.94141 17.2148Z" fill="#000000"/>
  <path d="M13.0664 7.07812C13.4531 7.07812 13.7344 6.78516 13.7344 6.43359L13.7344 4.64062C13.7344 4.27734 13.4531 3.98438 13.0664 3.98438C12.7031 3.98438 12.4219 4.27734 12.4219 4.64062L12.4219 6.43359C12.4219 6.78516 12.7031 7.07812 13.0664 7.07812Z" fill="#000000"/>
  <path d="M15.8203 9.04688C16.1953 9.04688 16.4883 8.75391 16.4883 8.37891L16.4883 2.68359C16.4883 2.32031 16.1953 2.02734 15.8203 2.02734C15.457 2.02734 15.1641 2.32031 15.1641 2.68359L15.1641 8.37891C15.1641 8.75391 15.457 9.04688 15.8203 9.04688Z" fill="#000000"/>
  <path d="M18.5742 11.0742C18.9492 11.0742 19.2305 10.7812 19.2305 10.418L19.2305 0.679688C19.2305 0.292969 18.9492 0 18.5742 0C18.1992 0 17.918 0.292969 17.918 0.679688L17.918 10.418C17.918 10.793 18.1875 11.0742 18.5742 11.0742Z" fill="#000000"/>
  <path d="M21.3047 9.90234C21.6914 9.90234 21.9844 9.62109 21.9844 9.24609L21.9844 1.81641C21.9844 1.45312 21.6914 1.17188 21.3047 1.17188C20.9531 1.17188 20.6602 1.45312 20.6602 1.81641L20.6602 9.24609C20.6602 9.62109 20.9531 9.90234 21.3047 9.90234Z" fill="#000000"/>
  <path d="M24.0703 7.69922C24.457 7.69922 24.7266 7.41797 24.7266 7.03125L24.7266 4.03125C24.7266 3.65625 24.457 3.36328 24.0703 3.36328C23.6953 3.36328 23.4141 3.66797 23.4141 4.03125L23.4141 7.03125C23.4141 7.40625 23.6953 7.69922 24.0703 7.69922Z" fill="#000000"/>
 </g>
</svg>
