<?xml version="1.0" encoding="UTF-8"?>

<!--
  - Copyright (c) 2023. Compose Cupertino project and open source contributors.
  -
  -  Licensed under the Apache License, Version 2.0 (the "License");
  -  you may not use this file except in compliance with the License.
  -  You may obtain a copy of the License at
  -
  -      http://www.apache.org/licenses/LICENSE-2.0
  -
  -  Unless required by applicable law or agreed to in writing, software
  -  distributed under the License is distributed on an "AS IS" BASIS,
  -  WITHOUT WARRANTIES OR CONDITIONS OF ANY KIND, either express or implied.
  -  See the License for the specific language governing permissions and
  -  limitations under the License.
  -
  -->

<svg version="1.1" xmlns="http://www.w3.org/2000/svg" xmlns:xlink="http://www.w3.org/1999/xlink" width="23.9062" height="23.918">
  <path d="M11.9531 23.918C18.4922 23.918 23.9062 18.5039 23.9062 11.9648C23.9062 5.4375 18.4805 0.0117188 11.9414 0.0117188C5.41406 0.0117188 0 5.4375 0 11.9648C0 18.5039 5.42578 23.918 11.9531 23.918Z M9.02344 14.7891C6.19922 11.9766 4.40625 8.39062 6.52734 6.25781C6.57422 6.21094 6.62109 6.16406 6.69141 6.11719C7.5 5.51953 8.25 5.37891 8.74219 6.09375L10.2305 8.19141C10.7344 8.90625 10.6289 9.33984 10.0664 9.91406L9.59766 10.418C9.44531 10.582 9.50391 10.793 9.57422 10.9336C9.82031 11.3438 10.4062 12.0703 11.0742 12.7383C11.7539 13.418 12.457 13.9805 12.8789 14.2383C13.043 14.332 13.2891 14.3555 13.418 14.2148L13.8984 13.7461C14.4375 13.207 14.9062 13.0898 15.6211 13.582C16.5938 14.2734 17.1914 14.6836 17.7539 15.0938C18.457 15.6211 18.3047 16.4414 17.7656 17.0508C17.6953 17.1328 17.6367 17.2148 17.5547 17.2969C15.4336 19.418 11.8359 17.625 9.02344 14.7891Z"/>
</svg>
