<?xml version="1.0" encoding="UTF-8"?>

<!--
  - Copyright (c) 2023. Compose Cupertino project and open source contributors.
  -
  -  Licensed under the Apache License, Version 2.0 (the "License");
  -  you may not use this file except in compliance with the License.
  -  You may obtain a copy of the License at
  -
  -      http://www.apache.org/licenses/LICENSE-2.0
  -
  -  Unless required by applicable law or agreed to in writing, software
  -  distributed under the License is distributed on an "AS IS" BASIS,
  -  WITHOUT WARRANTIES OR CONDITIONS OF ANY KIND, either express or implied.
  -  See the License for the specific language governing permissions and
  -  limitations under the License.
  -
  -->

<svg version="1.1" xmlns="http://www.w3.org/2000/svg" xmlns:xlink="http://www.w3.org/1999/xlink" width="27.6328" height="21.5742">
  <path d="M3.70312 19.6992C2.56641 19.6992 1.88672 19.0195 1.88672 17.8711L1.88672 17.1562L5.48438 14.0156C6 13.5586 6.5625 13.3242 7.07812 13.3242C7.65234 13.3242 8.25 13.5586 8.76562 14.0391L11.0039 16.0547L16.6055 11.0859C17.1797 10.5703 17.8242 10.3359 18.4922 10.3359C19.1367 10.3359 19.8047 10.582 20.3555 11.0977L25.7461 16.0898L25.7461 17.8945C25.7461 19.0195 25.0547 19.6992 23.9414 19.6992ZM8.78906 11.0859C7.19531 11.0859 5.89453 9.78516 5.89453 8.19141C5.89453 6.60938 7.19531 5.29688 8.78906 5.29688C10.3711 5.29688 11.6719 6.60938 11.6719 8.19141C11.6719 9.78516 10.3711 11.0859 8.78906 11.0859ZM3.67969 21.5742L23.9531 21.5742C26.4141 21.5742 27.6328 20.3672 27.6328 17.9531L27.6328 3.63281C27.6328 1.21875 26.4141 0 23.9531 0L3.67969 0C1.23047 0 0 1.21875 0 3.63281L0 17.9531C0 20.3672 1.23047 21.5742 3.67969 21.5742Z" fill="#000000"/>
</svg>
