<?xml version="1.0" encoding="UTF-8"?>

<!--
  - Copyright (c) 2023. Compose Cupertino project and open source contributors.
  -
  -  Licensed under the Apache License, Version 2.0 (the "License");
  -  you may not use this file except in compliance with the License.
  -  You may obtain a copy of the License at
  -
  -      http://www.apache.org/licenses/LICENSE-2.0
  -
  -  Unless required by applicable law or agreed to in writing, software
  -  distributed under the License is distributed on an "AS IS" BASIS,
  -  WITHOUT WARRANTIES OR CONDITIONS OF ANY KIND, either express or implied.
  -  See the License for the specific language governing permissions and
  -  limitations under the License.
  -
  -->

<svg version="1.1" xmlns="http://www.w3.org/2000/svg" xmlns:xlink="http://www.w3.org/1999/xlink" width="24.082" height="25.4883">
  <path d="M8.56641 15.8906C7.13672 15.8906 5.98828 14.707 5.98828 13.2891C5.98828 11.8828 7.13672 10.7227 8.56641 10.7227C9.98438 10.7227 11.1445 11.8828 11.1445 13.2891C11.1445 14.707 9.98438 15.8906 8.56641 15.8906ZM3.63281 23.5898C2.50781 23.5898 1.88672 22.9805 1.88672 21.8086L1.88672 20.6719L4.62891 18.2695C5.09766 17.8711 5.54297 17.6484 6.03516 17.6484C6.55078 17.6484 7.04297 17.8711 7.5 18.2812L9.45703 20.0273L14.3672 15.7031C14.8828 15.2461 15.4102 15.0586 16.0078 15.0586C16.5938 15.0586 17.1797 15.2695 17.6602 15.7148L22.1953 19.9805L22.1953 21.8086C22.1953 22.9805 21.5508 23.5898 20.4375 23.5898ZM3.5625 25.4766L20.5195 25.4766C22.875 25.4766 24.082 24.2812 24.082 21.9492L24.082 10.1602C24.082 7.82812 22.875 6.64453 20.5195 6.64453L3.5625 6.64453C1.18359 6.64453 0 7.82812 0 10.1602L0 21.9492C0 24.2812 1.18359 25.4766 3.5625 25.4766ZM2.23828 4.75781L21.8555 4.75781C21.6797 3.69141 21.1758 3.10547 20.0039 3.10547L4.08984 3.10547C2.91797 3.10547 2.41406 3.69141 2.23828 4.75781ZM4.65234 1.51172L19.4414 1.51172C19.3711 0.515625 18.8086 0 17.7188 0L6.36328 0C5.28516 0 4.72266 0.515625 4.65234 1.51172Z" fill="#000000"/>
</svg>
