<?xml version="1.0" encoding="UTF-8"?>

<!--
  - Copyright (c) 2023. Compose Cupertino project and open source contributors.
  -
  -  Licensed under the Apache License, Version 2.0 (the "License");
  -  you may not use this file except in compliance with the License.
  -  You may obtain a copy of the License at
  -
  -      http://www.apache.org/licenses/LICENSE-2.0
  -
  -  Unless required by applicable law or agreed to in writing, software
  -  distributed under the License is distributed on an "AS IS" BASIS,
  -  WITHOUT WARRANTIES OR CONDITIONS OF ANY KIND, either express or implied.
  -  See the License for the specific language governing permissions and
  -  limitations under the License.
  -
  -->

<svg version="1.1" xmlns="http://www.w3.org/2000/svg" xmlns:xlink="http://www.w3.org/1999/xlink" width="22.9878" height="28.043">
 <g>
  <path d="M2.85645 17.6367C2.85645 18.6328 3.52441 19.2891 4.5791 19.2891L10.9189 19.2891L10.9189 24.7617C10.9189 26.5547 11.6689 28.043 11.9619 28.043C12.2432 28.043 12.9932 26.5547 12.9932 24.7617L12.9932 19.4531L13.6729 19.4531L6.4541 12.2109C4.19238 13.5352 2.85645 15.6211 2.85645 17.6367ZM5.71582 0.726562C4.88379 0.726562 4.34473 1.25391 4.34473 1.96875C4.34473 2.30859 4.47363 2.69531 4.77832 3.09375C5.37598 3.89062 6.79395 5.00391 8.5166 5.97656L8.41113 7.51172L20.0713 19.1602C20.6924 18.9141 21.0557 18.375 21.0557 17.6367C21.0557 15.1641 19.0752 12.5508 15.7822 11.3555L15.3955 5.97656C17.1064 5.00391 18.501 3.91406 19.1104 3.12891C19.4268 2.71875 19.5791 2.32031 19.5791 1.96875C19.5791 1.25391 19.0283 0.726562 18.208 0.726562Z" fill="#000000"/>
  <path d="M0.254883 3.96094L21.4424 25.125C21.8057 25.4766 22.3799 25.4766 22.7197 25.125C23.0713 24.7734 23.083 24.1992 22.7197 23.8477L1.54395 2.68359C1.19238 2.33203 0.606445 2.32031 0.254883 2.68359C-0.0849609 3.02344-0.0849609 3.60938 0.254883 3.96094Z" fill="#000000"/>
 </g>
</svg>
