<?xml version="1.0" encoding="UTF-8"?>

<!--
  - Copyright (c) 2023. Compose Cupertino project and open source contributors.
  -
  -  Licensed under the Apache License, Version 2.0 (the "License");
  -  you may not use this file except in compliance with the License.
  -  You may obtain a copy of the License at
  -
  -      http://www.apache.org/licenses/LICENSE-2.0
  -
  -  Unless required by applicable law or agreed to in writing, software
  -  distributed under the License is distributed on an "AS IS" BASIS,
  -  WITHOUT WARRANTIES OR CONDITIONS OF ANY KIND, either express or implied.
  -  See the License for the specific language governing permissions and
  -  limitations under the License.
  -
  -->

<svg version="1.1" xmlns="http://www.w3.org/2000/svg" xmlns:xlink="http://www.w3.org/1999/xlink" width="18.1992" height="28.043">
  <path d="M0 17.6367C0 18.6328 0.667969 19.2891 1.72266 19.2891L8.0625 19.2891L8.0625 24.7617C8.0625 26.5547 8.8125 28.043 9.10547 28.043C9.38672 28.043 10.1367 26.5547 10.1367 24.7617L10.1367 19.2891L16.4766 19.2891C17.5312 19.2891 18.1992 18.6328 18.1992 17.6367C18.1992 15.1641 16.2188 12.5508 12.9258 11.3555L12.5391 5.97656C14.25 5.00391 15.6562 3.90234 16.2656 3.11719C16.5703 2.71875 16.7227 2.32031 16.7227 1.96875C16.7227 1.25391 16.1719 0.726562 15.3516 0.726562L2.85938 0.726562C2.02734 0.726562 1.48828 1.25391 1.48828 1.96875C1.48828 2.32031 1.62891 2.71875 1.93359 3.11719C2.54297 3.90234 3.94922 5.00391 5.66016 5.97656L5.27344 11.3555C1.98047 12.5508 0 15.1641 0 17.6367Z" fill="#000000"/>
</svg>
