<?xml version="1.0" encoding="UTF-8"?>

<!--
  - Copyright (c) 2023. Compose Cupertino project and open source contributors.
  -
  -  Licensed under the Apache License, Version 2.0 (the "License");
  -  you may not use this file except in compliance with the License.
  -  You may obtain a copy of the License at
  -
  -      http://www.apache.org/licenses/LICENSE-2.0
  -
  -  Unless required by applicable law or agreed to in writing, software
  -  distributed under the License is distributed on an "AS IS" BASIS,
  -  WITHOUT WARRANTIES OR CONDITIONS OF ANY KIND, either express or implied.
  -  See the License for the specific language governing permissions and
  -  limitations under the License.
  -
  -->

<svg version="1.1" xmlns="http://www.w3.org/2000/svg" xmlns:xlink="http://www.w3.org/1999/xlink" width="23.9062" height="23.918">
  <path d="M11.9531 23.918C18.4922 23.918 23.9062 18.5039 23.9062 11.9648C23.9062 5.4375 18.4805 0.0117188 11.9414 0.0117188C5.41406 0.0117188 0 5.4375 0 11.9648C0 18.5039 5.42578 23.918 11.9531 23.918Z M7.20703 14.25C7.20703 12.9609 8.23828 11.5781 9.96094 10.9688L10.1602 8.13281C9.29297 7.64062 8.56641 7.07812 8.25 6.66797C8.07422 6.44531 7.98047 6.22266 7.98047 6.02344C7.98047 5.64844 8.27344 5.37891 8.70703 5.37891L15.2227 5.37891C15.6562 5.37891 15.9492 5.64844 15.9492 6.02344C15.9492 6.22266 15.8555 6.44531 15.6914 6.65625C15.375 7.06641 14.6484 7.64062 13.7695 8.13281L13.957 10.9688C15.6914 11.5781 16.7227 12.9609 16.7227 14.25C16.7227 14.7773 16.3711 15.1172 15.832 15.1172L12.7148 15.1172L12.7148 17.2617C12.7148 18.5742 12.1875 19.6758 11.9648 19.6758C11.7422 19.6758 11.2148 18.5742 11.2148 17.2617L11.2148 15.1172L8.08594 15.1172C7.54688 15.1172 7.20703 14.7773 7.20703 14.25Z"/>
</svg>
