<?xml version="1.0" encoding="UTF-8"?>

<!--
  - Copyright (c) 2023. Compose Cupertino project and open source contributors.
  -
  -  Licensed under the Apache License, Version 2.0 (the "License");
  -  you may not use this file except in compliance with the License.
  -  You may obtain a copy of the License at
  -
  -      http://www.apache.org/licenses/LICENSE-2.0
  -
  -  Unless required by applicable law or agreed to in writing, software
  -  distributed under the License is distributed on an "AS IS" BASIS,
  -  WITHOUT WARRANTIES OR CONDITIONS OF ANY KIND, either express or implied.
  -  See the License for the specific language governing permissions and
  -  limitations under the License.
  -
  -->

<svg version="1.1" xmlns="http://www.w3.org/2000/svg" xmlns:xlink="http://www.w3.org/1999/xlink" width="30.3633" height="24.5742">
 <g>
  <path d="M15.1758 8.10938L24.4453 8.10938L24.4453 3.65625C24.4453 1.24219 23.2148 0.0234375 20.7773 0.0234375L3.67969 0.0234375C1.21875 0.0234375 0 1.24219 0 3.65625L0 15.5156C0 17.9297 1.21875 19.1484 3.67969 19.1484L9.89062 19.1484L9.89062 13.3477C9.89062 10.043 11.8359 8.10938 15.1758 8.10938Z" fill="#000000"/>
  <path d="M15.1758 24.5742L26.6953 24.5742C29.1328 24.5742 30.3633 23.3555 30.3633 20.9414L30.3633 13.3477C30.3633 10.9336 29.1328 9.71484 26.6953 9.71484L15.1758 9.71484C12.7266 9.71484 11.4961 10.9219 11.4961 13.3477L11.4961 20.9414C11.4961 23.3555 12.7266 24.5742 15.1758 24.5742Z" fill="#000000"/>
 </g>
</svg>
