<?xml version="1.0" encoding="UTF-8"?>

<!--
  - Copyright (c) 2023. Compose Cupertino project and open source contributors.
  -
  -  Licensed under the Apache License, Version 2.0 (the "License");
  -  you may not use this file except in compliance with the License.
  -  You may obtain a copy of the License at
  -
  -      http://www.apache.org/licenses/LICENSE-2.0
  -
  -  Unless required by applicable law or agreed to in writing, software
  -  distributed under the License is distributed on an "AS IS" BASIS,
  -  WITHOUT WARRANTIES OR CONDITIONS OF ANY KIND, either express or implied.
  -  See the License for the specific language governing permissions and
  -  limitations under the License.
  -
  -->

<svg version="1.1" xmlns="http://www.w3.org/2000/svg" xmlns:xlink="http://www.w3.org/1999/xlink" width="21.3281" height="21.3398">
  <path d="M19.957 1.38281C18.7617 0.1875 17.0742 0 15.0703 0L6.22266 0C4.25391 0 2.56641 0.1875 1.37109 1.38281C0.175781 2.57812 0 4.25391 0 6.21094L0 15.0703C0 17.0742 0.175781 18.7383 1.37109 19.9336C2.56641 21.1289 4.25391 21.3164 6.24609 21.3164L15.0703 21.3164C17.0742 21.3164 18.7617 21.1289 19.957 19.9336C21.1523 18.7383 21.3281 17.0742 21.3281 15.0703L21.3281 6.24609C21.3281 4.24219 21.1523 2.56641 19.957 1.38281Z M4.94531 10.6758C4.94531 10.0664 5.36719 9.64453 5.98828 9.64453L9.65625 9.64453L9.65625 5.97656C9.65625 5.36719 10.0547 4.93359 10.6523 4.93359C11.2617 4.93359 11.6836 5.36719 11.6836 5.97656L11.6836 9.64453L15.3633 9.64453C15.9609 9.64453 16.3945 10.0664 16.3945 10.6758C16.3945 11.2734 15.9609 11.6719 15.3633 11.6719L11.6836 11.6719L11.6836 15.3516C11.6836 15.9609 11.2617 16.3828 10.6523 16.3828C10.0547 16.3828 9.65625 15.9492 9.65625 15.3516L9.65625 11.6719L5.98828 11.6719C5.37891 11.6719 4.94531 11.2734 4.94531 10.6758Z"/>
</svg>
