<?xml version="1.0" encoding="UTF-8"?>

<!--
  - Copyright (c) 2023. Compose Cupertino project and open source contributors.
  -
  -  Licensed under the Apache License, Version 2.0 (the "License");
  -  you may not use this file except in compliance with the License.
  -  You may obtain a copy of the License at
  -
  -      http://www.apache.org/licenses/LICENSE-2.0
  -
  -  Unless required by applicable law or agreed to in writing, software
  -  distributed under the License is distributed on an "AS IS" BASIS,
  -  WITHOUT WARRANTIES OR CONDITIONS OF ANY KIND, either express or implied.
  -  See the License for the specific language governing permissions and
  -  limitations under the License.
  -
  -->

<svg version="1.1" xmlns="http://www.w3.org/2000/svg" xmlns:xlink="http://www.w3.org/1999/xlink" width="25.8281" height="25.8867">
  <path d="M6.96094 25.8867C7.41797 25.8867 7.75781 25.6523 8.30859 25.1367L12.5391 21.2695L20.4609 21.2695C23.9531 21.2695 25.8281 19.3477 25.8281 15.9141L25.8281 6.9375C25.8281 3.50391 23.9531 1.57031 20.4609 1.57031L5.36719 1.57031C1.875 1.57031 0 3.49219 0 6.9375L0 15.9141C0 19.3594 1.875 21.2695 5.36719 21.2695L5.91797 21.2695L5.91797 24.6797C5.91797 25.4062 6.29297 25.8867 6.96094 25.8867Z M7.19531 11.4258C7.19531 10.8164 7.62891 10.3945 8.23828 10.3945L11.9062 10.3945L11.9062 6.72656C11.9062 6.11719 12.3164 5.68359 12.9023 5.68359C13.5234 5.68359 13.9336 6.11719 13.9336 6.72656L13.9336 10.3945L17.6133 10.3945C18.2227 10.3945 18.6445 10.8164 18.6445 11.4258C18.6445 12.0234 18.2109 12.4219 17.6133 12.4219L13.9336 12.4219L13.9336 16.1016C13.9336 16.7109 13.5234 17.1328 12.9023 17.1328C12.3164 17.1328 11.9062 16.6992 11.9062 16.1016L11.9062 12.4219L8.23828 12.4219C7.62891 12.4219 7.19531 12.0234 7.19531 11.4258Z"/>
</svg>
