<?xml version="1.0" encoding="UTF-8"?>

<!--
  - Copyright (c) 2023. Compose Cupertino project and open source contributors.
  -
  -  Licensed under the Apache License, Version 2.0 (the "License");
  -  you may not use this file except in compliance with the License.
  -  You may obtain a copy of the License at
  -
  -      http://www.apache.org/licenses/LICENSE-2.0
  -
  -  Unless required by applicable law or agreed to in writing, software
  -  distributed under the License is distributed on an "AS IS" BASIS,
  -  WITHOUT WARRANTIES OR CONDITIONS OF ANY KIND, either express or implied.
  -  See the License for the specific language governing permissions and
  -  limitations under the License.
  -
  -->

<svg version="1.1" xmlns="http://www.w3.org/2000/svg" xmlns:xlink="http://www.w3.org/1999/xlink" width="21.2344" height="29.6602">
  <path d="M0.515625 8.55469C1.19531 8.17969 1.98047 7.98047 2.77734 7.98047C4.00781 7.98047 5.23828 8.46094 6.04688 9.45703C6.87891 8.25 8.33203 7.58203 9.79688 7.58203C11.2617 7.58203 12.7148 8.25 13.5469 9.45703C14.3555 8.46094 15.5977 7.98047 16.8516 7.98047C17.6016 7.98047 18.375 8.16797 19.043 8.53125C19.4531 7.94531 19.6992 7.25391 19.6992 6.48047C19.6992 4.46484 18.3984 3.04688 16.5469 3C16.0547 1.86328 15.1406 1.10156 13.875 1.10156C13.0664 1.10156 12.3281 1.38281 11.7656 1.89844C11.4727 1.81641 11.0742 1.79297 10.7461 1.86328C10.2305 0.726562 9.12891 0 7.875 0C6.21094 0 5.10938 1.01953 4.91016 2.03906C4.00781 1.95703 3.25781 2.77734 3.25781 3.57422C1.47656 3.51562 0 4.99219 0 6.78516C0 7.40625 0.152344 7.98047 0.515625 8.55469ZM5.20312 27.7617L6.82031 27.7617L5.39062 12.0117C5.25 10.3594 3.98438 9.5625 2.71875 9.5625C1.19531 9.5625-0.339844 10.7227 0.0820312 12.9727L2.39062 25.125C2.70703 26.7891 3.52734 27.7617 5.20312 27.7617ZM8.35547 27.7617L10.3125 27.7617L10.3125 27.7031C9.77344 26.9883 9.46875 26.0977 9.46875 25.1484C9.46875 23.4727 10.3594 21.9609 11.8359 21.1875L12.6445 12.1172C12.832 10.0078 11.0625 9.17578 9.79688 9.17578C8.53125 9.17578 6.76172 10.0078 6.94922 12.1172ZM16.1953 18.2109C17.0156 18.2109 17.7656 18.4219 18.4102 18.7969L19.5117 12.9727C19.9453 10.7227 18.3984 9.5625 16.875 9.5625C15.6211 9.5625 14.3555 10.3594 14.2031 12.0117L13.5469 19.1953C14.2266 18.5859 15.1641 18.2109 16.1953 18.2109ZM16.1953 29.6367C17.332 29.6367 18.3867 28.9922 18.8789 28.0078C20.4492 27.6562 21.2344 26.4258 21.2344 25.1602C21.2344 23.8594 20.4023 22.6289 18.8789 22.3828C18.832 20.8945 17.707 19.8164 16.1953 19.8164C14.707 19.8164 13.5938 20.8594 13.5234 22.3008C11.9531 22.5469 11.0625 23.8242 11.0625 25.1484C11.0625 26.4609 11.9297 27.7031 13.5234 28.0312C13.9805 28.9922 15.0352 29.6367 16.1953 29.6367Z" fill="#000000"/>
</svg>
