<?xml version="1.0" encoding="UTF-8"?>

<!--
  - Copyright (c) 2023. Compose Cupertino project and open source contributors.
  -
  -  Licensed under the Apache License, Version 2.0 (the "License");
  -  you may not use this file except in compliance with the License.
  -  You may obtain a copy of the License at
  -
  -      http://www.apache.org/licenses/LICENSE-2.0
  -
  -  Unless required by applicable law or agreed to in writing, software
  -  distributed under the License is distributed on an "AS IS" BASIS,
  -  WITHOUT WARRANTIES OR CONDITIONS OF ANY KIND, either express or implied.
  -  See the License for the specific language governing permissions and
  -  limitations under the License.
  -
  -->

<svg version="1.1" xmlns="http://www.w3.org/2000/svg" xmlns:xlink="http://www.w3.org/1999/xlink" width="26.332" height="25.6289">
  <path d="M3.48047 21.1406L3.75 21.1406L3.75 14.6367C3.75 12.9609 4.78125 11.9297 6.45703 11.9297L19.875 11.9297C21.5508 11.9297 22.582 12.9609 22.582 14.6367L22.582 21.1406L22.8398 21.1406C25.125 21.1406 26.332 19.9922 26.332 17.707L26.332 8.16797C26.332 5.88281 25.125 4.72266 22.8398 4.72266L3.48047 4.72266C1.32422 4.72266 0 5.88281 0 8.16797L0 17.707C0 19.9922 1.20703 21.1406 3.48047 21.1406ZM4.64062 3.16406L21.6914 3.16406L21.6914 2.96484C21.6914 1.23047 20.3438 0.457031 18.4453 0.457031L7.88672 0.457031C6.07031 0.457031 4.64062 1.23047 4.64062 2.96484ZM5.35547 24.0469C5.35547 24.9961 5.98828 25.6289 6.92578 25.6289L19.4062 25.6289C20.3555 25.6289 20.9766 24.9961 20.9766 24.0469L20.9766 14.6367C20.9766 13.9688 20.543 13.5352 19.875 13.5352L6.45703 13.5352C5.80078 13.5352 5.35547 13.9688 5.35547 14.6367ZM9.35156 18.2344C8.91797 18.2344 8.58984 17.8945 8.58984 17.4609C8.58984 17.0508 8.91797 16.7344 9.35156 16.7344L17.0039 16.7344C17.4375 16.7344 17.7539 17.0508 17.7539 17.4609C17.7539 17.8945 17.4375 18.2344 17.0039 18.2344ZM9.35156 22.4297C8.91797 22.4297 8.58984 22.1016 8.58984 21.6914C8.58984 21.2578 8.91797 20.9297 9.35156 20.9297L17.0039 20.9297C17.4375 20.9297 17.7539 21.2578 17.7539 21.6914C17.7539 22.1016 17.4375 22.4297 17.0039 22.4297ZM18.8672 8.60156C18.8672 7.79297 19.5586 7.08984 20.3906 7.08984C21.1875 7.08984 21.8906 7.79297 21.8906 8.60156C21.8906 9.43359 21.1875 10.0898 20.3906 10.1016C19.5586 10.1016 18.8672 9.44531 18.8672 8.60156Z" fill="#000000"/>
</svg>
