<?xml version="1.0" encoding="UTF-8"?>

<!--
  - Copyright (c) 2023. Compose Cupertino project and open source contributors.
  -
  -  Licensed under the Apache License, Version 2.0 (the "License");
  -  you may not use this file except in compliance with the License.
  -  You may obtain a copy of the License at
  -
  -      http://www.apache.org/licenses/LICENSE-2.0
  -
  -  Unless required by applicable law or agreed to in writing, software
  -  distributed under the License is distributed on an "AS IS" BASIS,
  -  WITHOUT WARRANTIES OR CONDITIONS OF ANY KIND, either express or implied.
  -  See the License for the specific language governing permissions and
  -  limitations under the License.
  -
  -->

<svg version="1.1" xmlns="http://www.w3.org/2000/svg" xmlns:xlink="http://www.w3.org/1999/xlink" width="33.9375" height="22.6055">
  <path d="M0 11.2852C0 13.6758 1.6875 14.9883 3.58594 14.9883C4.38281 14.9883 4.98047 14.7656 5.69531 14.3203C6.36328 13.9102 6.84375 14.1562 6.84375 14.7305L6.84375 19.0664C6.84375 21.375 8.0625 22.5586 10.3945 22.5586L13.5234 22.5586C14.0859 22.5586 14.332 22.0898 13.9336 21.4219C13.4766 20.707 13.2539 20.1094 13.2539 19.3125C13.2539 17.4141 14.5781 15.7266 16.9688 15.7266C19.3594 15.7266 20.6719 17.4141 20.6719 19.3125C20.6719 20.1094 20.4492 20.707 20.0039 21.4219C19.6055 22.0898 19.8398 22.5586 20.4141 22.5586L23.543 22.5586C25.875 22.5586 27.0938 21.375 27.0938 19.0664L27.0938 14.7305C27.0938 14.1562 27.5742 13.9102 28.2305 14.3203C28.957 14.7656 29.5547 14.9883 30.3398 14.9883C32.25 14.9883 33.9375 13.6758 33.9375 11.2852C33.9375 8.88281 32.25 7.57031 30.3398 7.57031C29.5547 7.57031 28.957 7.79297 28.2305 8.23828C27.5742 8.64844 27.0938 8.40234 27.0938 7.82812L27.0938 3.49219C27.0938 1.19531 25.875 0 23.543 0L20.4141 0C19.8398 0 19.6055 0.480469 20.0039 1.14844C20.4492 1.86328 20.6719 2.46094 20.6719 3.25781C20.6719 5.15625 19.3594 6.84375 16.9688 6.84375C14.5781 6.84375 13.2539 5.15625 13.2539 3.25781C13.2539 2.46094 13.4766 1.86328 13.9336 1.14844C14.332 0.480469 14.0859 0 13.5234 0L10.3945 0C8.0625 0 6.84375 1.19531 6.84375 3.49219L6.84375 7.82812C6.84375 8.40234 6.36328 8.64844 5.69531 8.23828C4.98047 7.79297 4.38281 7.57031 3.58594 7.57031C1.6875 7.57031 0 8.88281 0 11.2852Z" fill="#000000"/>
</svg>
