<?xml version="1.0" encoding="UTF-8"?>

<!--
  - Copyright (c) 2023. Compose Cupertino project and open source contributors.
  -
  -  Licensed under the Apache License, Version 2.0 (the "License");
  -  you may not use this file except in compliance with the License.
  -  You may obtain a copy of the License at
  -
  -      http://www.apache.org/licenses/LICENSE-2.0
  -
  -  Unless required by applicable law or agreed to in writing, software
  -  distributed under the License is distributed on an "AS IS" BASIS,
  -  WITHOUT WARRANTIES OR CONDITIONS OF ANY KIND, either express or implied.
  -  See the License for the specific language governing permissions and
  -  limitations under the License.
  -
  -->

<svg version="1.1" xmlns="http://www.w3.org/2000/svg" xmlns:xlink="http://www.w3.org/1999/xlink" width="21.5742" height="21.5977">
  <path d="M3.67969 21.5977L17.8945 21.5977C20.3555 21.5977 21.5742 20.3789 21.5742 17.9648L21.5742 3.65625C21.5742 1.24219 20.3555 0.0234375 17.8945 0.0234375L3.67969 0.0234375C1.23047 0.0234375 0 1.23047 0 3.65625L0 17.9648C0 20.3906 1.23047 21.5977 3.67969 21.5977Z M10.5469 13.3008C9.92578 13.3008 9.58594 12.9727 9.58594 12.3398C9.58594 12.293 9.58594 12.2344 9.58594 12.1875C9.58594 10.9922 10.2305 10.3594 11.0977 9.75C12.1523 9.01172 12.6562 8.61328 12.6562 7.79297C12.6562 6.87891 11.9414 6.25781 10.8516 6.25781C10.0547 6.25781 9.42188 6.65625 8.98828 7.35938L8.77734 7.65234C8.55469 7.93359 8.29688 8.13281 7.875 8.13281C7.47656 8.13281 7.04297 7.83984 7.04297 7.30078C7.04297 7.08984 7.08984 6.89062 7.14844 6.70312C7.48828 5.58984 8.84766 4.61719 10.9219 4.61719C12.9844 4.61719 14.7773 5.68359 14.7773 7.69922C14.7773 9.15234 13.9336 9.85547 12.7617 10.6289C11.9297 11.1797 11.5312 11.6133 11.5312 12.293C11.5312 12.3281 11.5312 12.3867 11.5312 12.4336C11.5312 12.9141 11.168 13.3008 10.5469 13.3008ZM10.5234 16.8984C9.82031 16.8984 9.21094 16.3359 9.21094 15.6445C9.21094 14.9531 9.80859 14.3789 10.5234 14.3789C11.2383 14.3789 11.8359 14.9414 11.8359 15.6445C11.8359 16.3477 11.2266 16.8984 10.5234 16.8984Z" />
</svg>
