<?xml version="1.0" encoding="UTF-8"?>

<!--
  - Copyright (c) 2023. Compose Cupertino project and open source contributors.
  -
  -  Licensed under the Apache License, Version 2.0 (the "License");
  -  you may not use this file except in compliance with the License.
  -  You may obtain a copy of the License at
  -
  -      http://www.apache.org/licenses/LICENSE-2.0
  -
  -  Unless required by applicable law or agreed to in writing, software
  -  distributed under the License is distributed on an "AS IS" BASIS,
  -  WITHOUT WARRANTIES OR CONDITIONS OF ANY KIND, either express or implied.
  -  See the License for the specific language governing permissions and
  -  limitations under the License.
  -
  -->

<svg version="1.1" xmlns="http://www.w3.org/2000/svg" xmlns:xlink="http://www.w3.org/1999/xlink" width="26.6133" height="21.5977">
  <path d="M3.67969 21.4453L23.2852 21.4453C25.3828 21.4453 26.6133 20.2266 26.6133 17.8125L26.6133 5.77734C26.6133 3.36328 25.3711 2.14453 22.9336 2.14453L11.6836 2.14453C10.8867 2.14453 10.4062 1.95703 9.82031 1.45312L9.10547 0.867188C8.33203 0.210938 7.73438 0 6.57422 0L3.23438 0C1.18359 0 0 1.17188 0 3.52734L0 17.8125C0 20.2383 1.23047 21.4453 3.67969 21.4453Z M13.0898 14.0508C12.5156 14.0508 12.1875 13.7578 12.1875 13.1602C12.1875 13.1133 12.1875 13.0664 12.1875 13.0195C12.1875 11.9062 12.7969 11.3203 13.5938 10.7578C14.5898 10.0664 15.0586 9.70312 15.0586 8.94141C15.0586 8.08594 14.3906 7.51172 13.3711 7.51172C12.6328 7.51172 12.0469 7.875 11.6484 8.54297L11.4492 8.8125C11.2383 9.07031 10.9922 9.25781 10.6172 9.25781C10.2422 9.25781 9.83203 8.98828 9.83203 8.48438C9.83203 8.28516 9.87891 8.09766 9.9375 7.92188C10.2422 6.89062 11.5078 5.98828 13.4414 5.98828C15.3633 5.98828 17.0273 6.98438 17.0273 8.85938C17.0273 10.1953 16.2422 10.8633 15.1523 11.5781C14.3672 12.082 14.0039 12.4805 14.0039 13.1133C14.0039 13.1602 14.0039 13.207 14.0039 13.2422C14.0039 13.6992 13.6641 14.0508 13.0898 14.0508ZM13.0664 17.4023C12.4219 17.4023 11.8477 16.875 11.8477 16.2305C11.8477 15.5859 12.4102 15.0586 13.0664 15.0586C13.7344 15.0586 14.2852 15.5742 14.2852 16.2305C14.2852 16.8867 13.7227 17.4023 13.0664 17.4023Z" fill="#ffffff"/>
</svg>
