<?xml version="1.0" encoding="UTF-8"?>

<!--
  - Copyright (c) 2023. Compose Cupertino project and open source contributors.
  -
  -  Licensed under the Apache License, Version 2.0 (the "License");
  -  you may not use this file except in compliance with the License.
  -  You may obtain a copy of the License at
  -
  -      http://www.apache.org/licenses/LICENSE-2.0
  -
  -  Unless required by applicable law or agreed to in writing, software
  -  distributed under the License is distributed on an "AS IS" BASIS,
  -  WITHOUT WARRANTIES OR CONDITIONS OF ANY KIND, either express or implied.
  -  See the License for the specific language governing permissions and
  -  limitations under the License.
  -
  -->

<svg version="1.1" xmlns="http://www.w3.org/2000/svg" xmlns:xlink="http://www.w3.org/1999/xlink" width="23.9062" height="23.918">
  <path d="M11.9531 23.9062C18.4922 23.9062 23.9062 18.4805 23.9062 11.9531C23.9062 5.41406 18.4805 0 11.9414 0C5.41406 0 0 5.41406 0 11.9531C0 18.4805 5.42578 23.9062 11.9531 23.9062Z M11.707 14.4609C11.0859 14.4609 10.7344 14.1328 10.7344 13.5C10.7344 13.4531 10.7344 13.3945 10.7344 13.3477C10.7344 12.1523 11.3906 11.5195 12.2578 10.9102C13.3125 10.1719 13.8164 9.77344 13.8164 8.95312C13.8164 8.03906 13.1016 7.41797 12.0117 7.41797C11.2031 7.41797 10.582 7.81641 10.1484 8.51953L9.9375 8.8125C9.71484 9.09375 9.44531 9.29297 9.03516 9.29297C8.63672 9.29297 8.20312 9 8.20312 8.46094C8.20312 8.25 8.25 8.05078 8.30859 7.86328C8.63672 6.75 9.99609 5.77734 12.082 5.77734C14.1445 5.77734 15.9375 6.84375 15.9375 8.85938C15.9375 10.3125 15.0938 11.0156 13.9219 11.7891C13.0781 12.3398 12.6914 12.7734 12.6914 13.4531C12.6914 13.4883 12.6914 13.5469 12.6914 13.5938C12.6914 14.0742 12.3164 14.4609 11.707 14.4609ZM11.6836 18.0586C10.9805 18.0586 10.3711 17.4961 10.3711 16.8047C10.3711 16.1133 10.9688 15.5391 11.6836 15.5391C12.3984 15.5391 12.9961 16.1016 12.9961 16.8047C12.9961 17.5078 12.3867 18.0586 11.6836 18.0586Z"/>
</svg>
