<?xml version="1.0" encoding="UTF-8"?>

<!--
  - Copyright (c) 2023. Compose Cupertino project and open source contributors.
  -
  -  Licensed under the Apache License, Version 2.0 (the "License");
  -  you may not use this file except in compliance with the License.
  -  You may obtain a copy of the License at
  -
  -      http://www.apache.org/licenses/LICENSE-2.0
  -
  -  Unless required by applicable law or agreed to in writing, software
  -  distributed under the License is distributed on an "AS IS" BASIS,
  -  WITHOUT WARRANTIES OR CONDITIONS OF ANY KIND, either express or implied.
  -  See the License for the specific language governing permissions and
  -  limitations under the License.
  -
  -->

<svg version="1.1" xmlns="http://www.w3.org/2000/svg" xmlns:xlink="http://www.w3.org/1999/xlink" width="21.3281" height="21.3398">
  <path d="M19.957 1.38281C18.7617 0.1875 17.0742 0 15.0703 0L6.22266 0C4.25391 0 2.56641 0.1875 1.37109 1.38281C0.175781 2.57812 0 4.25391 0 6.21094L0 15.0703C0 17.0742 0.175781 18.7383 1.37109 19.9336C2.56641 21.1289 4.25391 21.3164 6.24609 21.3164L15.0703 21.3164C17.0742 21.3164 18.7617 21.1289 19.957 19.9336C21.1523 18.7383 21.3281 17.0742 21.3281 15.0703L21.3281 6.24609C21.3281 4.24219 21.1523 2.56641 19.957 1.38281Z M10.4297 13.1719C9.79688 13.1719 9.45703 12.8438 9.45703 12.2109C9.45703 12.1641 9.45703 12.1055 9.45703 12.0586C9.45703 10.8633 10.1016 10.2305 10.9688 9.62109C12.0234 8.88281 12.5391 8.48438 12.5391 7.66406C12.5391 6.75 11.8125 6.12891 10.7227 6.12891C9.92578 6.12891 9.29297 6.52734 8.85938 7.23047L8.64844 7.52344C8.42578 7.80469 8.16797 8.00391 7.75781 8.00391C7.34766 8.00391 6.91406 7.71094 6.91406 7.17188C6.91406 6.96094 6.96094 6.76172 7.01953 6.57422C7.35938 5.46094 8.71875 4.48828 10.8047 4.48828C12.8672 4.48828 14.6484 5.55469 14.6484 7.57031C14.6484 9.02344 13.8047 9.72656 12.6328 10.5C11.8008 11.0508 11.4023 11.4844 11.4023 12.1641C11.4023 12.1992 11.4023 12.2578 11.4023 12.3047C11.4023 12.7852 11.0391 13.1719 10.4297 13.1719ZM10.3945 16.7695C9.70312 16.7695 9.08203 16.207 9.08203 15.5156C9.08203 14.8242 9.69141 14.25 10.3945 14.25C11.1094 14.25 11.707 14.8125 11.707 15.5156C11.707 16.2188 11.0977 16.7695 10.3945 16.7695Z"/>
</svg>
