<?xml version="1.0" encoding="UTF-8"?>

<!--
  - Copyright (c) 2023. Compose Cupertino project and open source contributors.
  -
  -  Licensed under the Apache License, Version 2.0 (the "License");
  -  you may not use this file except in compliance with the License.
  -  You may obtain a copy of the License at
  -
  -      http://www.apache.org/licenses/LICENSE-2.0
  -
  -  Unless required by applicable law or agreed to in writing, software
  -  distributed under the License is distributed on an "AS IS" BASIS,
  -  WITHOUT WARRANTIES OR CONDITIONS OF ANY KIND, either express or implied.
  -  See the License for the specific language governing permissions and
  -  limitations under the License.
  -
  -->

<svg version="1.1" xmlns="http://www.w3.org/2000/svg" xmlns:xlink="http://www.w3.org/1999/xlink" width="24.082" height="25.4883">
  <path d="M3.5625 25.4766L20.5195 25.4766C22.875 25.4766 24.082 24.2812 24.082 21.9492L24.082 10.1602C24.082 7.82812 22.875 6.64453 20.5195 6.64453L3.5625 6.64453C1.18359 6.64453 0 7.82812 0 10.1602L0 21.9492C0 24.2812 1.18359 25.4766 3.5625 25.4766ZM2.23828 4.75781L21.8555 4.75781C21.6797 3.69141 21.1758 3.10547 20.0039 3.10547L4.08984 3.10547C2.91797 3.10547 2.41406 3.69141 2.23828 4.75781ZM4.65234 1.51172L19.4414 1.51172C19.3711 0.515625 18.8086 0 17.7188 0L6.36328 0C5.28516 0 4.72266 0.515625 4.65234 1.51172Z" fill="#000000"/>
</svg>
