<?xml version="1.0" encoding="UTF-8"?>

<!--
  - Copyright (c) 2023. Compose Cupertino project and open source contributors.
  -
  -  Licensed under the Apache License, Version 2.0 (the "License");
  -  you may not use this file except in compliance with the License.
  -  You may obtain a copy of the License at
  -
  -      http://www.apache.org/licenses/LICENSE-2.0
  -
  -  Unless required by applicable law or agreed to in writing, software
  -  distributed under the License is distributed on an "AS IS" BASIS,
  -  WITHOUT WARRANTIES OR CONDITIONS OF ANY KIND, either express or implied.
  -  See the License for the specific language governing permissions and
  -  limitations under the License.
  -
  -->

<svg version="1.1" xmlns="http://www.w3.org/2000/svg" xmlns:xlink="http://www.w3.org/1999/xlink" width="27.4336" height="25.1367">
  <path d="M3.63281 25.1367L16.0781 25.1367C18.5039 25.1367 19.7109 23.9062 19.7109 21.457L19.7109 13.7227L11.0508 13.7227C10.4297 13.7227 9.90234 13.1953 9.90234 12.5625C9.90234 11.9297 10.4297 11.3906 11.0508 11.3906L19.7109 11.3906L19.7109 3.67969C19.7109 1.24219 18.5039 0.0117188 16.0781 0.0117188L3.63281 0.0117188C1.20703 0.0117188 0 1.24219 0 3.67969L0 21.457C0 23.9062 1.20703 25.1367 3.63281 25.1367ZM18.7969 12.5625C18.7969 13.0664 19.207 13.4883 19.6992 13.4883L23.1094 13.4883L24.8672 13.418L24.0352 14.2148L22.1484 15.9844C21.9609 16.1484 21.8672 16.3945 21.8672 16.6172C21.8672 17.1094 22.207 17.4727 22.6875 17.4727C22.9336 17.4727 23.1211 17.3789 23.3086 17.2031L27.1289 13.2422C27.3633 13.0078 27.4336 12.7969 27.4336 12.5625C27.4336 12.3164 27.3633 12.1172 27.1289 11.8828L23.3086 7.92188C23.1211 7.74609 22.9336 7.64062 22.6875 7.64062C22.207 7.64062 21.8672 7.99219 21.8672 8.48438C21.8672 8.71875 21.9609 8.96484 22.1484 9.12891L24.0352 10.9102L24.8672 11.707L23.1094 11.625L19.6992 11.625C19.207 11.625 18.7969 12.0586 18.7969 12.5625Z" fill="#000000"/>
</svg>
