<?xml version="1.0" encoding="UTF-8"?>

<!--
  - Copyright (c) 2023. Compose Cupertino project and open source contributors.
  -
  -  Licensed under the Apache License, Version 2.0 (the "License");
  -  you may not use this file except in compliance with the License.
  -  You may obtain a copy of the License at
  -
  -      http://www.apache.org/licenses/LICENSE-2.0
  -
  -  Unless required by applicable law or agreed to in writing, software
  -  distributed under the License is distributed on an "AS IS" BASIS,
  -  WITHOUT WARRANTIES OR CONDITIONS OF ANY KIND, either express or implied.
  -  See the License for the specific language governing permissions and
  -  limitations under the License.
  -
  -->

<svg version="1.1" xmlns="http://www.w3.org/2000/svg" xmlns:xlink="http://www.w3.org/1999/xlink" width="23.4844" height="30.1072">
 <g>
  <path d="M3.01172 25.8524L14.625 25.8524C16.6289 25.8524 17.6367 24.8915 17.6367 22.8407L17.6367 11.2508C17.6367 9.20006 16.6289 8.23913 14.625 8.23913L3.01172 8.23913C1.00781 8.23913 0 9.20006 0 11.2508L0 22.8407C0 24.8915 1.00781 25.8524 3.01172 25.8524Z" fill="#000000"/>
  <path d="M22.7461 10.4774C23.1445 10.4774 23.4844 10.1493 23.4844 9.75085L23.4844 7.99303C23.4844 4.64147 21.2461 2.37975 17.8828 2.37975L17.6367 2.37975L17.6367 0.832876C17.6367-0.0343111 16.9805-0.221811 16.3242 0.258658L13.3711 2.42663C12.8672 2.78991 12.8672 3.21178 13.3711 3.57506L16.3242 5.73131C16.9805 6.21178 17.6367 6.01256 17.6367 5.16881L17.6367 3.73913L17.8711 3.73913C20.4141 3.73913 22.0195 5.49694 22.0195 8.00475L22.0195 9.75085C22.0195 10.1493 22.3477 10.4774 22.7461 10.4774Z" fill="#000000"/>
 </g>
</svg>
