<?xml version="1.0" encoding="UTF-8"?>

<!--
  - Copyright (c) 2023. Compose Cupertino project and open source contributors.
  -
  -  Licensed under the Apache License, Version 2.0 (the "License");
  -  you may not use this file except in compliance with the License.
  -  You may obtain a copy of the License at
  -
  -      http://www.apache.org/licenses/LICENSE-2.0
  -
  -  Unless required by applicable law or agreed to in writing, software
  -  distributed under the License is distributed on an "AS IS" BASIS,
  -  WITHOUT WARRANTIES OR CONDITIONS OF ANY KIND, either express or implied.
  -  See the License for the specific language governing permissions and
  -  limitations under the License.
  -
  -->

<svg version="1.1" xmlns="http://www.w3.org/2000/svg" xmlns:xlink="http://www.w3.org/1999/xlink" width="23.4727" height="30.1072">
 <g>
  <path d="M8.84766 25.8524L20.4609 25.8524C22.4648 25.8524 23.4727 24.8915 23.4727 22.8407L23.4727 11.2508C23.4727 9.20006 22.4648 8.23913 20.4609 8.23913L8.84766 8.23913C6.84375 8.23913 5.83594 9.20006 5.83594 11.2508L5.83594 22.8407C5.83594 24.8915 6.84375 25.8524 8.84766 25.8524Z" fill="#000000"/>
  <path d="M0.726562 10.4774C1.125 10.4774 1.46484 10.1493 1.46484 9.75085L1.46484 8.00475C1.46484 5.49694 3.07031 3.73913 5.61328 3.73913L5.83594 3.73913L5.83594 5.16881C5.83594 6.01256 6.49219 6.21178 7.14844 5.73131L10.1016 3.57506C10.6055 3.21178 10.5938 2.80163 10.1016 2.42663L7.14844 0.258658C6.49219-0.221811 5.83594-0.0343111 5.83594 0.832876L5.83594 2.37975L5.60156 2.37975C2.22656 2.37975 0 4.64147 0 7.99303L0 9.75085C0 10.1493 0.328125 10.4774 0.726562 10.4774Z" fill="#000000"/>
 </g>
</svg>
