<?xml version="1.0" encoding="UTF-8"?>

<!--
  - Copyright (c) 2023. Compose Cupertino project and open source contributors.
  -
  -  Licensed under the Apache License, Version 2.0 (the "License");
  -  you may not use this file except in compliance with the License.
  -  You may obtain a copy of the License at
  -
  -      http://www.apache.org/licenses/LICENSE-2.0
  -
  -  Unless required by applicable law or agreed to in writing, software
  -  distributed under the License is distributed on an "AS IS" BASIS,
  -  WITHOUT WARRANTIES OR CONDITIONS OF ANY KIND, either express or implied.
  -  See the License for the specific language governing permissions and
  -  limitations under the License.
  -
  -->

<svg version="1.1" xmlns="http://www.w3.org/2000/svg" xmlns:xlink="http://www.w3.org/1999/xlink" width="28.6641" height="12.7148">
  <path d="M28.6641 3.16406C28.6641 1.08984 27.5859 0.0117188 25.4883 0.0117188L3.17578 0.0117188C1.07812 0.0117188 0 1.07812 0 3.16406L0 9.5625C0 11.6367 1.08984 12.7148 3.1875 12.7148L25.4883 12.7148C27.5977 12.7148 28.6641 11.6367 28.6641 9.5625ZM3.48047 1.94531L3.48047 7.40625C3.48047 7.67578 3.29297 7.88672 3.01172 7.88672C2.74219 7.88672 2.53125 7.6875 2.53125 7.41797L2.53125 1.94531ZM5.75391 1.94531L5.75391 5.34375C5.75391 5.625 5.56641 5.82422 5.27344 5.82422C5.01562 5.82422 4.80469 5.63672 4.80469 5.35547L4.80469 1.94531ZM8.02734 1.94531L8.02734 5.34375C8.02734 5.625 7.82812 5.82422 7.54688 5.82422C7.28906 5.82422 7.07812 5.63672 7.07812 5.35547L7.07812 1.94531ZM10.2773 1.94531L10.2773 5.34375C10.2773 5.625 10.0898 5.82422 9.80859 5.82422C9.53906 5.82422 9.32812 5.63672 9.32812 5.35547L9.32812 1.94531ZM12.5508 1.94531L12.5508 5.34375C12.5508 5.625 12.3633 5.82422 12.0703 5.82422C11.8125 5.82422 11.6016 5.63672 11.6016 5.35547L11.6016 1.94531ZM14.8125 1.94531L14.8125 7.40625C14.8125 7.67578 14.625 7.88672 14.332 7.88672C14.0742 7.88672 13.8633 7.6875 13.8633 7.41797L13.8633 1.94531ZM17.0859 1.94531L17.0859 5.34375C17.0859 5.625 16.8867 5.82422 16.6055 5.82422C16.3477 5.82422 16.1367 5.63672 16.1367 5.35547L16.1367 1.94531ZM19.3477 1.94531L19.3477 5.34375C19.3477 5.625 19.1602 5.82422 18.8789 5.82422C18.6094 5.82422 18.3984 5.63672 18.3984 5.35547L18.3984 1.94531ZM21.6094 1.94531L21.6094 5.34375C21.6094 5.625 21.4219 5.82422 21.1289 5.82422C20.8711 5.82422 20.6602 5.63672 20.6602 5.35547L20.6602 1.94531ZM23.8828 1.94531L23.8828 5.34375C23.8828 5.625 23.6836 5.82422 23.4023 5.82422C23.1445 5.82422 22.9336 5.63672 22.9336 5.35547L22.9336 1.94531ZM26.1328 1.94531L26.1328 7.40625C26.1328 7.67578 25.9453 7.88672 25.6641 7.88672C25.3945 7.88672 25.1836 7.6875 25.1836 7.41797L25.1836 1.94531Z" fill="#000000"/>
</svg>
