<?xml version="1.0" encoding="UTF-8"?>

<!--
  - Copyright (c) 2023. Compose Cupertino project and open source contributors.
  -
  -  Licensed under the Apache License, Version 2.0 (the "License");
  -  you may not use this file except in compliance with the License.
  -  You may obtain a copy of the License at
  -
  -      http://www.apache.org/licenses/LICENSE-2.0
  -
  -  Unless required by applicable law or agreed to in writing, software
  -  distributed under the License is distributed on an "AS IS" BASIS,
  -  WITHOUT WARRANTIES OR CONDITIONS OF ANY KIND, either express or implied.
  -  See the License for the specific language governing permissions and
  -  limitations under the License.
  -
  -->

<svg version="1.1" xmlns="http://www.w3.org/2000/svg" xmlns:xlink="http://www.w3.org/1999/xlink" width="23.9062" height="23.918">
  <path d="M11.9531 23.9062C18.4922 23.9062 23.9062 18.4805 23.9062 11.9531C23.9062 5.41406 18.4805 0 11.9414 0C5.41406 0 0 5.41406 0 11.9531C0 18.4805 5.42578 23.9062 11.9531 23.9062Z M6.91406 18.0586C6.10547 18.4453 5.48438 17.8125 5.85938 17.0156L9.25781 10.0781C9.45703 9.66797 9.71484 9.41016 10.0898 9.23438L17.0039 5.85938C17.8594 5.44922 18.457 6.08203 18.0586 6.90234L14.6836 13.8281C14.4961 14.2031 14.2266 14.4844 13.8398 14.6602ZM11.9648 13.4531C12.7852 13.4531 13.4531 12.7852 13.4531 11.9648C13.4531 11.1445 12.7852 10.4883 11.9648 10.4883C11.1562 10.4883 10.4883 11.1445 10.4883 11.9648C10.4883 12.7852 11.1562 13.4531 11.9648 13.4531Z"/>
</svg>
