<?xml version="1.0" encoding="UTF-8"?>

<!--
  - Copyright (c) 2023. Compose Cupertino project and open source contributors.
  -
  -  Licensed under the Apache License, Version 2.0 (the "License");
  -  you may not use this file except in compliance with the License.
  -  You may obtain a copy of the License at
  -
  -      http://www.apache.org/licenses/LICENSE-2.0
  -
  -  Unless required by applicable law or agreed to in writing, software
  -  distributed under the License is distributed on an "AS IS" BASIS,
  -  WITHOUT WARRANTIES OR CONDITIONS OF ANY KIND, either express or implied.
  -  See the License for the specific language governing permissions and
  -  limitations under the License.
  -
  -->

<svg version="1.1" xmlns="http://www.w3.org/2000/svg" xmlns:xlink="http://www.w3.org/1999/xlink" width="24.8789" height="24.9023">
  <path d="M0 5.67188C0 6.375 0.46875 6.83203 1.19531 6.83203L2.64844 6.83203L2.64844 3.04688C2.64844 2.30859 2.02734 1.75781 1.32422 1.75781C0.621094 1.74609 0 2.29688 0 3.04688ZM3.03516 0C3.94922 0.515625 4.24219 1.20703 4.24219 2.46094L4.24219 21.832C4.24219 23.4844 5.19141 24.4336 6.63281 24.4336C7.96875 24.4336 8.85938 23.5195 8.85938 21.9258L8.85938 18.6914C8.85938 17.0977 9.58594 16.2773 11.1914 16.2773L22.4766 16.2773L22.4766 3.67969C22.4766 1.23047 21.2578 0 18.8438 0ZM8.76562 6.11719C8.76562 5.71875 9.08203 5.40234 9.50391 5.40234L17.5664 5.40234C17.9883 5.40234 18.293 5.71875 18.293 6.11719C18.293 6.52734 17.9883 6.84375 17.5664 6.84375L9.50391 6.84375C9.08203 6.84375 8.76562 6.52734 8.76562 6.11719ZM8.76562 10.2305C8.76562 9.82031 9.08203 9.49219 9.50391 9.49219L13.7109 9.49219C14.1328 9.49219 14.4375 9.82031 14.4375 10.2305C14.4375 10.6289 14.1328 10.9336 13.7109 10.9336L9.50391 10.9336C9.08203 10.9336 8.76562 10.6289 8.76562 10.2305ZM9.33984 24.8906L21.1875 24.8906C23.4141 24.8906 24.8789 23.3672 24.8789 21.0586L24.8789 19.043C24.8789 18.3398 24.4102 17.8711 23.6836 17.8711L11.6602 17.8711C10.9336 17.8711 10.4531 18.3398 10.4531 19.043L10.4531 21.3398C10.4531 22.6875 10.2773 23.8828 9.33984 24.8906Z" fill="#000000"/>
</svg>
