<?xml version="1.0" encoding="UTF-8"?>

<!--
  - Copyright (c) 2023. Compose Cupertino project and open source contributors.
  -
  -  Licensed under the Apache License, Version 2.0 (the "License");
  -  you may not use this file except in compliance with the License.
  -  You may obtain a copy of the License at
  -
  -      http://www.apache.org/licenses/LICENSE-2.0
  -
  -  Unless required by applicable law or agreed to in writing, software
  -  distributed under the License is distributed on an "AS IS" BASIS,
  -  WITHOUT WARRANTIES OR CONDITIONS OF ANY KIND, either express or implied.
  -  See the License for the specific language governing permissions and
  -  limitations under the License.
  -
  -->

<svg version="1.1" xmlns="http://www.w3.org/2000/svg" xmlns:xlink="http://www.w3.org/1999/xlink" width="23.9062" height="23.918">
  <path d="M11.9531 23.918C18.4922 23.918 23.9062 18.5039 23.9062 11.9648C23.9062 5.4375 18.4805 0.0117188 11.9414 0.0117188C5.41406 0.0117188 0 5.4375 0 11.9648C0 18.5039 5.42578 23.918 11.9531 23.918Z M11.0039 6.87891C10.9805 6.90234 9.16406 8.61328 8.22656 9.67969C7.78125 10.1602 7.54688 10.793 7.60547 11.4492C7.65234 12.1406 7.96875 12.7852 8.51953 13.2891C9.28125 13.9219 10.7461 14.0625 11.6602 13.2422C12.2344 12.75 12.8672 12.0234 12.8906 12.0234C13.3477 11.5078 14.1328 11.4844 14.625 11.9648C15.1055 12.4102 15.1406 13.1836 14.6836 13.6875C14.6602 13.6992 13.9336 14.4844 13.2891 15.0469C12.4102 15.8672 11.25 16.2539 10.0664 16.2539C8.92969 16.2539 7.79297 15.8789 6.9375 15.1289C5.85938 14.2031 5.22656 12.9492 5.13281 11.6016C5.05078 10.2773 5.49609 9 6.42188 8.00391C7.41797 6.90234 9.22266 5.19141 9.28125 5.09766C9.77344 4.64062 10.5469 4.6875 11.0156 5.15625C11.5078 5.63672 11.4844 6.38672 11.0039 6.87891ZM12.8906 17.2969C12.9023 17.2734 14.7305 15.5742 15.6562 14.5312C16.1016 14.0273 16.3477 13.3945 16.2773 12.75C16.2422 12.0469 15.9141 11.4023 15.3633 10.8984C14.6016 10.2773 13.1367 10.125 12.2344 10.9453C11.6602 11.4141 11.0156 12.1641 11.0039 12.1758C10.5469 12.668 9.76172 12.7031 9.26953 12.2227C8.77734 11.7891 8.74219 11.0156 9.21094 10.5C9.22266 10.4883 9.94922 9.70312 10.5938 9.14062C11.4844 8.32031 12.6328 7.93359 13.8164 7.93359C14.9648 7.93359 16.0898 8.30859 16.9805 9.05859C18.0352 9.96094 18.668 11.2383 18.7617 12.5859C18.832 13.9219 18.3867 15.1875 17.4727 16.1836C16.4766 17.2734 14.6836 18.9961 14.6016 19.0898C14.1094 19.5469 13.3477 19.5234 12.8672 19.0312C12.3867 18.5508 12.3984 17.8008 12.8906 17.2969Z" />
</svg>
