<?xml version="1.0" encoding="UTF-8"?>

<!--
  - Copyright (c) 2023. Compose Cupertino project and open source contributors.
  -
  -  Licensed under the Apache License, Version 2.0 (the "License");
  -  you may not use this file except in compliance with the License.
  -  You may obtain a copy of the License at
  -
  -      http://www.apache.org/licenses/LICENSE-2.0
  -
  -  Unless required by applicable law or agreed to in writing, software
  -  distributed under the License is distributed on an "AS IS" BASIS,
  -  WITHOUT WARRANTIES OR CONDITIONS OF ANY KIND, either express or implied.
  -  See the License for the specific language governing permissions and
  -  limitations under the License.
  -
  -->

<svg version="1.1" xmlns="http://www.w3.org/2000/svg" xmlns:xlink="http://www.w3.org/1999/xlink" width="19.1719" height="23.6602">
  <path d="M9.58594 23.6602C9.77344 23.6602 10.0664 23.5898 10.3594 23.4375C17.0273 19.9453 19.1719 18.1992 19.1719 13.9922L19.1719 5.15625C19.1719 3.94922 18.6562 3.5625 17.6719 3.15234C16.3008 2.58984 11.918 0.996094 10.5586 0.527344C10.2422 0.421875 9.91406 0.363281 9.58594 0.363281C9.25781 0.363281 8.92969 0.433594 8.625 0.527344C7.25391 0.972656 2.87109 2.60156 1.5 3.15234C0.527344 3.55078 0 3.94922 0 5.15625L0 13.9922C0 18.1992 2.26172 19.7461 8.8125 23.4375C9.11719 23.6016 9.39844 23.6602 9.58594 23.6602Z" fill="#000000"/>
</svg>
