<?xml version="1.0" encoding="UTF-8"?>

<!--
  - Copyright (c) 2023. Compose Cupertino project and open source contributors.
  -
  -  Licensed under the Apache License, Version 2.0 (the "License");
  -  you may not use this file except in compliance with the License.
  -  You may obtain a copy of the License at
  -
  -      http://www.apache.org/licenses/LICENSE-2.0
  -
  -  Unless required by applicable law or agreed to in writing, software
  -  distributed under the License is distributed on an "AS IS" BASIS,
  -  WITHOUT WARRANTIES OR CONDITIONS OF ANY KIND, either express or implied.
  -  See the License for the specific language governing permissions and
  -  limitations under the License.
  -
  -->

<svg version="1.1" xmlns="http://www.w3.org/2000/svg" xmlns:xlink="http://www.w3.org/1999/xlink" width="23.6909" height="23.7188">
 <g>
  <path d="M2.84914 6.16992L2.84914 14.0215C2.84914 18.2285 5.11086 19.7754 11.6616 23.4668C11.9663 23.6309 12.2476 23.6895 12.4351 23.6895C12.6226 23.6895 12.9155 23.6191 13.2085 23.4668C14.9898 22.5293 16.4429 21.709 17.6148 20.959ZM21.0366 17.8418C21.7398 16.7637 22.021 15.5566 22.021 14.0215L22.021 5.18555C22.021 3.97852 21.5054 3.5918 20.521 3.18164C19.1499 2.61914 14.7671 1.02539 13.4077 0.556641C13.0913 0.451172 12.7632 0.392578 12.4351 0.392578C12.107 0.392578 11.7788 0.462891 11.4741 0.556641C10.396 0.919922 7.77101 1.86914 5.81398 2.60742Z" fill="#000000"/>
  <path d="M22.1499 23.4551C22.5015 23.8066 23.0874 23.8066 23.4273 23.4551C23.7788 23.1035 23.7788 22.5293 23.4273 22.1777L1.54836 0.310547C1.1968-0.0410156 0.622577-0.0410156 0.259296 0.310547C-0.0922665 0.650391-0.0805478 1.23633 0.259296 1.58789Z" fill="#000000"/>
 </g>
</svg>
