<?xml version="1.0" encoding="UTF-8"?>

<!--
  - Copyright (c) 2023. Compose Cupertino project and open source contributors.
  -
  -  Licensed under the Apache License, Version 2.0 (the "License");
  -  you may not use this file except in compliance with the License.
  -  You may obtain a copy of the License at
  -
  -      http://www.apache.org/licenses/LICENSE-2.0
  -
  -  Unless required by applicable law or agreed to in writing, software
  -  distributed under the License is distributed on an "AS IS" BASIS,
  -  WITHOUT WARRANTIES OR CONDITIONS OF ANY KIND, either express or implied.
  -  See the License for the specific language governing permissions and
  -  limitations under the License.
  -
  -->

<svg version="1.1" xmlns="http://www.w3.org/2000/svg" xmlns:xlink="http://www.w3.org/1999/xlink" width="21.7181" height="27.3164">
  <path d="M4.83984 0C2.30859 0 0 3.85547 0 6.84375C0 8.27344 0.480469 11.0859 1.60547 13.3477L8.08594 13.3477C9.19922 11.0859 9.69141 8.27344 9.69141 6.84375C9.69141 3.85547 7.38281 0 4.83984 0ZM4.85156 20.2383C6.67969 20.2383 7.66406 18.4219 7.66406 15.8438C7.66406 15.5977 7.64062 15.2344 7.59375 14.9531L2.10938 14.9531C2.0625 15.2344 2.03906 15.5977 2.03906 15.8438C2.03906 18.4219 3.02344 20.2383 4.85156 20.2383ZM19.0781 7.69922C16.6875 6.83203 13.2188 9.65625 12.1875 12.4688C11.707 13.8164 11.1914 16.6289 11.4609 19.1367L17.5547 21.3516C19.3828 19.6055 20.8008 17.1445 21.293 15.7734C22.3125 12.9727 21.4688 8.57812 19.0781 7.69922ZM12.1641 26.7188C13.8867 27.3398 15.4336 25.9688 16.3125 23.5547C16.3945 23.3203 16.4883 22.9688 16.5586 22.6875L11.4023 20.8008C11.2617 21.0586 11.1094 21.3867 11.0273 21.6211C10.1484 24.0469 10.4531 26.0859 12.1641 26.7188Z" fill="#000000"/>
</svg>
