<?xml version="1.0" encoding="UTF-8"?>

<!--
  - Copyright (c) 2023. Compose Cupertino project and open source contributors.
  -
  -  Licensed under the Apache License, Version 2.0 (the "License");
  -  you may not use this file except in compliance with the License.
  -  You may obtain a copy of the License at
  -
  -      http://www.apache.org/licenses/LICENSE-2.0
  -
  -  Unless required by applicable law or agreed to in writing, software
  -  distributed under the License is distributed on an "AS IS" BASIS,
  -  WITHOUT WARRANTIES OR CONDITIONS OF ANY KIND, either express or implied.
  -  See the License for the specific language governing permissions and
  -  limitations under the License.
  -
  -->

<svg version="1.1" xmlns="http://www.w3.org/2000/svg" xmlns:xlink="http://www.w3.org/1999/xlink" width="26.1562" height="20.6836">
 <g>
  <path d="M12.6328 20.6836C13.4062 20.6836 13.957 20.1328 13.957 19.3711L13.957 1.39453C13.957 0.632812 13.4062 0.0117188 12.6094 0.0117188C12.0586 0.0117188 11.6953 0.257812 11.0977 0.820312L6.09375 5.50781C6.02344 5.57812 5.91797 5.61328 5.80078 5.61328L2.44922 5.61328C0.855469 5.61328 0 6.49219 0 8.17969L0 12.5391C0 14.2383 0.855469 15.1055 2.44922 15.1055L5.80078 15.1055C5.91797 15.1055 6.02344 15.1406 6.09375 15.2109L11.0977 19.9453C11.625 20.4609 12.082 20.6836 12.6328 20.6836Z" fill="#000000"/>
  <path d="M18.1523 15.3281C18.5391 15.5977 19.0898 15.5156 19.4062 15.0586C20.3086 13.875 20.8477 12.1289 20.8477 10.3359C20.8477 8.54297 20.3086 6.80859 19.4062 5.61328C19.0898 5.15625 18.5391 5.0625 18.1523 5.34375C17.6719 5.67188 17.6016 6.25781 17.9648 6.73828C18.6445 7.67578 19.0312 8.97656 19.0312 10.3359C19.0312 11.6953 18.6328 12.9844 17.9648 13.9336C17.6133 14.4258 17.6719 14.9883 18.1523 15.3281Z" fill="#000000"/>
  <path d="M22.4883 18.3867C22.9219 18.6797 23.4609 18.5742 23.7773 18.1289C25.2773 16.0664 26.1562 13.2305 26.1562 10.3359C26.1562 7.44141 25.2891 4.58203 23.7773 2.54297C23.4609 2.09766 22.9219 1.99219 22.4883 2.28516C22.0547 2.57812 21.9844 3.12891 22.3242 3.60938C23.6016 5.41406 24.3398 7.83984 24.3398 10.3359C24.3398 12.832 23.5781 15.2344 22.3242 17.0625C21.9961 17.543 22.0547 18.0938 22.4883 18.3867Z" fill="#000000"/>
 </g>
</svg>
