<?xml version="1.0" encoding="UTF-8"?>

<svg version="1.1" xmlns="http://www.w3.org/2000/svg" xmlns:xlink="http://www.w3.org/1999/xlink" width="13.957" height="20.6836">
  <path d="M12.6328 20.6836C13.4062 20.6836 13.957 20.1328 13.957 19.3711L13.957 1.39453C13.957 0.632812 13.4062 0.0117188 12.6094 0.0117188C12.0703 0.0117188 11.6953 0.246094 11.0977 0.820312L6.10547 5.50781C6.02344 5.57812 5.92969 5.61328 5.8125 5.61328L2.44922 5.61328C0.867188 5.61328 0 6.49219 0 8.17969L0 12.5391C0 14.2383 0.867188 15.1055 2.44922 15.1055L5.8125 15.1055C5.92969 15.1055 6.02344 15.1406 6.10547 15.2109L11.0977 19.9453C11.6367 20.4609 12.0938 20.6836 12.6328 20.6836Z" fill="#000000"/>
</svg>
