<?xml version="1.0" encoding="UTF-8"?>

<!--
  - Copyright (c) 2023. Compose Cupertino project and open source contributors.
  -
  -  Licensed under the Apache License, Version 2.0 (the "License");
  -  you may not use this file except in compliance with the License.
  -  You may obtain a copy of the License at
  -
  -      http://www.apache.org/licenses/LICENSE-2.0
  -
  -  Unless required by applicable law or agreed to in writing, software
  -  distributed under the License is distributed on an "AS IS" BASIS,
  -  WITHOUT WARRANTIES OR CONDITIONS OF ANY KIND, either express or implied.
  -  See the License for the specific language governing permissions and
  -  limitations under the License.
  -
  -->

<svg version="1.1" xmlns="http://www.w3.org/2000/svg" xmlns:xlink="http://www.w3.org/1999/xlink" width="28.9922" height="20.6836">
 <g>
  <path d="M12.6328 20.6836C13.4062 20.6836 13.957 20.1328 13.957 19.3711L13.957 1.39453C13.957 0.632812 13.4062 0.0117188 12.6094 0.0117188C12.0586 0.0117188 11.6836 0.246094 11.0977 0.820312L6.09375 5.50781C6.02344 5.57812 5.91797 5.61328 5.80078 5.61328L2.44922 5.61328C0.855469 5.61328 0 6.49219 0 8.17969L0 12.5391C0 14.2383 0.855469 15.1055 2.44922 15.1055L5.80078 15.1055C5.91797 15.1055 6.02344 15.1406 6.09375 15.2109L11.0977 19.9453C11.625 20.4609 12.082 20.6836 12.6328 20.6836Z" fill="#000000"/>
  <path d="M18.6914 11.3203L27.8789 11.3203C28.5352 11.3203 28.9922 10.9688 28.9922 10.3477C28.9922 9.71484 28.5703 9.35156 27.8789 9.35156L18.6914 9.35156C18.0117 9.35156 17.5664 9.71484 17.5664 10.3477C17.5664 10.9688 18.0352 11.3203 18.6914 11.3203Z" fill="#000000"/>
 </g>
</svg>
