<?xml version="1.0" encoding="UTF-8"?>

<!--
  - Copyright (c) 2023. Compose Cupertino project and open source contributors.
  -
  -  Licensed under the Apache License, Version 2.0 (the "License");
  -  you may not use this file except in compliance with the License.
  -  You may obtain a copy of the License at
  -
  -      http://www.apache.org/licenses/LICENSE-2.0
  -
  -  Unless required by applicable law or agreed to in writing, software
  -  distributed under the License is distributed on an "AS IS" BASIS,
  -  WITHOUT WARRANTIES OR CONDITIONS OF ANY KIND, either express or implied.
  -  See the License for the specific language governing permissions and
  -  limitations under the License.
  -
  -->

<svg version="1.1" xmlns="http://www.w3.org/2000/svg" xmlns:xlink="http://www.w3.org/1999/xlink" width="28.5586" height="20.6836">
 <g>
  <path d="M12.6328 20.6836C13.4062 20.6836 13.957 20.1328 13.957 19.3711L13.957 1.39453C13.957 0.632812 13.4062 0.0117188 12.6094 0.0117188C12.0586 0.0117188 11.6836 0.246094 11.0977 0.820312L6.09375 5.50781C6.02344 5.57812 5.91797 5.61328 5.80078 5.61328L2.44922 5.61328C0.855469 5.61328 0 6.49219 0 8.17969L0 12.5391C0 14.2383 0.855469 15.1055 2.44922 15.1055L5.80078 15.1055C5.91797 15.1055 6.02344 15.1406 6.09375 15.2109L11.0977 19.9453C11.625 20.4609 12.082 20.6836 12.6328 20.6836Z" fill="#000000"/>
  <path d="M17.6953 10.3359C17.6953 10.9102 18.1055 11.2969 18.7031 11.2969L22.1484 11.2969L22.1484 14.7539C22.1484 15.3398 22.5469 15.75 23.1211 15.75C23.707 15.75 24.1172 15.3516 24.1172 14.7539L24.1172 11.2969L27.5742 11.2969C28.1602 11.2969 28.5586 10.9102 28.5586 10.3359C28.5586 9.75 28.1602 9.33984 27.5742 9.33984L24.1172 9.33984L24.1172 5.89453C24.1172 5.29688 23.707 4.88672 23.1211 4.88672C22.5469 4.88672 22.1484 5.29688 22.1484 5.89453L22.1484 9.33984L18.7031 9.33984C18.1055 9.33984 17.6953 9.75 17.6953 10.3359Z" fill="#000000"/>
 </g>
</svg>
