<?xml version="1.0" encoding="UTF-8"?>

<!--
  - Copyright (c) 2023. Compose Cupertino project and open source contributors.
  -
  -  Licensed under the Apache License, Version 2.0 (the "License");
  -  you may not use this file except in compliance with the License.
  -  You may obtain a copy of the License at
  -
  -      http://www.apache.org/licenses/LICENSE-2.0
  -
  -  Unless required by applicable law or agreed to in writing, software
  -  distributed under the License is distributed on an "AS IS" BASIS,
  -  WITHOUT WARRANTIES OR CONDITIONS OF ANY KIND, either express or implied.
  -  See the License for the specific language governing permissions and
  -  limitations under the License.
  -
  -->

<svg version="1.1" xmlns="http://www.w3.org/2000/svg" xmlns:xlink="http://www.w3.org/1999/xlink" width="24.7969" height="24.5742">
 <g>
  <path d="M0 15.5156C0 17.9297 1.21875 19.1484 3.67969 19.1484L4.07812 19.1484L4.07812 9.08203C4.07812 5.76562 6.02344 3.85547 9.36328 3.85547L19.1133 3.85547L19.1133 3.65625C19.1133 1.24219 17.8828 0.0234375 15.4453 0.0234375L3.67969 0.0234375C1.21875 0.0234375 0 1.24219 0 3.65625Z" fill="#000000"/>
  <path d="M9.36328 24.5742L21.1289 24.5742C23.5664 24.5742 24.7969 23.3555 24.7969 20.9414L24.7969 9.08203C24.7969 6.66797 23.5664 5.44922 21.1289 5.44922L9.36328 5.44922C6.90234 5.44922 5.68359 6.65625 5.68359 9.08203L5.68359 20.9414C5.68359 23.3555 6.90234 24.5742 9.36328 24.5742Z" fill="#000000"/>
 </g>
</svg>
