<?xml version="1.0" encoding="UTF-8"?>

<!--
  - Copyright (c) 2023. Compose Cupertino project and open source contributors.
  -
  -  Licensed under the Apache License, Version 2.0 (the "License");
  -  you may not use this file except in compliance with the License.
  -  You may obtain a copy of the License at
  -
  -      http://www.apache.org/licenses/LICENSE-2.0
  -
  -  Unless required by applicable law or agreed to in writing, software
  -  distributed under the License is distributed on an "AS IS" BASIS,
  -  WITHOUT WARRANTIES OR CONDITIONS OF ANY KIND, either express or implied.
  -  See the License for the specific language governing permissions and
  -  limitations under the License.
  -
  -->

<svg version="1.1" xmlns="http://www.w3.org/2000/svg" xmlns:xlink="http://www.w3.org/1999/xlink" width="20.5547" height="27.2227">
 <g>
  <path d="M3.67969 27.2227L17.2266 27.2227C19.3242 27.2227 20.5547 26.0039 20.5547 23.5898L20.5547 10.3008C20.5547 7.88672 19.3125 6.66797 16.875 6.66797L3.67969 6.66797C1.23047 6.66797 0 7.875 0 10.3008L0 23.5898C0 26.0039 1.23047 27.2227 3.67969 27.2227ZM2.55469 4.78125L17.9883 4.78125C17.8125 3.71484 17.3086 3.12891 16.1367 3.12891L4.40625 3.12891C3.23438 3.12891 2.73047 3.71484 2.55469 4.78125ZM4.59375 1.53516L15.9609 1.53516C15.8906 0.539062 15.3164 0.0234375 14.2383 0.0234375L6.30469 0.0234375C5.22656 0.0234375 4.66406 0.539062 4.59375 1.53516Z" fill="#000000"/>
 </g>
</svg>
