<?xml version="1.0" encoding="UTF-8"?>

<!--
  - Copyright (c) 2023. Compose Cupertino project and open source contributors.
  -
  -  Licensed under the Apache License, Version 2.0 (the "License");
  -  you may not use this file except in compliance with the License.
  -  You may obtain a copy of the License at
  -
  -      http://www.apache.org/licenses/LICENSE-2.0
  -
  -  Unless required by applicable law or agreed to in writing, software
  -  distributed under the License is distributed on an "AS IS" BASIS,
  -  WITHOUT WARRANTIES OR CONDITIONS OF ANY KIND, either express or implied.
  -  See the License for the specific language governing permissions and
  -  limitations under the License.
  -
  -->

<svg version="1.1" xmlns="http://www.w3.org/2000/svg" xmlns:xlink="http://www.w3.org/1999/xlink" width="21.5742" height="21.5977">
 <g>
  <path d="M3.67969 21.5977L17.8945 21.5977C20.3555 21.5977 21.5742 20.3789 21.5742 17.9648L21.5742 3.65625C21.5742 1.24219 20.3555 0.0234375 17.8945 0.0234375L3.67969 0.0234375C1.23047 0.0234375 0 1.23047 0 3.65625L0 17.9648C0 20.3906 1.23047 21.5977 3.67969 21.5977ZM3.70312 19.7109C2.53125 19.7109 1.88672 19.0898 1.88672 17.8711L1.88672 3.75C1.88672 2.53125 2.53125 1.91016 3.70312 1.91016L17.8711 1.91016C19.0312 1.91016 19.6875 2.53125 19.6875 3.75L19.6875 17.8711C19.6875 19.0898 19.0312 19.7109 17.8711 19.7109Z" fill="#000000"/>
  <path d="M4.51172 8.16797L17.0625 8.16797C17.8008 8.16797 18.0938 7.86328 18.0938 7.11328L18.0938 4.55859C18.0938 3.80859 17.8008 3.50391 17.0625 3.50391L4.51172 3.50391C3.78516 3.50391 3.49219 3.80859 3.49219 4.55859L3.49219 7.11328C3.49219 7.86328 3.78516 8.16797 4.51172 8.16797Z" fill="#000000"/>
 </g>
</svg>
