<?xml version="1.0" encoding="UTF-8"?>

<!--
  - Copyright (c) 2023. Compose Cupertino project and open source contributors.
  -
  -  Licensed under the Apache License, Version 2.0 (the "License");
  -  you may not use this file except in compliance with the License.
  -  You may obtain a copy of the License at
  -
  -      http://www.apache.org/licenses/LICENSE-2.0
  -
  -  Unless required by applicable law or agreed to in writing, software
  -  distributed under the License is distributed on an "AS IS" BASIS,
  -  WITHOUT WARRANTIES OR CONDITIONS OF ANY KIND, either express or implied.
  -  See the License for the specific language governing permissions and
  -  limitations under the License.
  -
  -->

<svg version="1.1" xmlns="http://www.w3.org/2000/svg" xmlns:xlink="http://www.w3.org/1999/xlink" width="23.9648" height="26.543">
 <g>
  <path d="M11.9883 26.543C12.4102 26.543 12.7734 26.3438 13.2656 26.0508L23.332 20.1094C23.7539 19.8633 23.9648 19.4531 23.9648 19.0898C23.9648 18.6094 23.6133 18.2227 23.2852 18.0586L12.4336 24.3398C12.2578 24.4336 12.1172 24.5039 11.9883 24.5039C11.8477 24.5039 11.707 24.4336 11.5312 24.3398L0.679688 18.0586C0.351562 18.2227 0 18.6094 0 19.0898C0 19.4531 0.210938 19.8633 0.644531 20.1094L10.6992 26.0508C11.2031 26.3438 11.5547 26.543 11.9883 26.543Z" fill="#000000"/>
  <path d="M11.9883 21.1523C12.4102 21.1523 12.7734 20.9531 13.2656 20.6602L23.332 14.7188C23.7656 14.4492 23.9648 14.0625 23.9648 13.6992C23.9648 13.2188 23.6133 12.8203 23.2852 12.668L12.4336 18.9375C12.2578 19.0312 12.1172 19.1016 11.9883 19.1016C11.8477 19.1016 11.707 19.0312 11.5312 18.9375L0.679688 12.668C0.351562 12.8203 0 13.2188 0 13.6992C0 14.0625 0.210938 14.4609 0.644531 14.7188L10.6992 20.6602C11.2031 20.9531 11.5547 21.1523 11.9883 21.1523Z" fill="#000000"/>
  <path d="M11.9883 15.375C12.457 15.375 12.9141 15.2227 13.4766 14.8945L22.6406 9.57422C23.5898 9.02344 23.9531 8.58984 23.9531 7.94531C23.9531 7.3125 23.5898 6.87891 22.6406 6.32812L13.4766 1.00781C12.9141 0.679688 12.457 0.527344 11.9883 0.527344C11.5078 0.527344 11.0625 0.679688 10.4883 1.00781L1.32422 6.32812C0.375 6.87891 0.0117188 7.3125 0.0117188 7.94531C0.0117188 8.58984 0.375 9.02344 1.32422 9.57422L10.4883 14.8945C11.0625 15.2227 11.5078 15.375 11.9883 15.375Z" fill="#000000"/>
 </g>
</svg>
