<?xml version="1.0" encoding="UTF-8"?>

<!--
  - Copyright (c) 2023. Compose Cupertino project and open source contributors.
  -
  -  Licensed under the Apache License, Version 2.0 (the "License");
  -  you may not use this file except in compliance with the License.
  -  You may obtain a copy of the License at
  -
  -      http://www.apache.org/licenses/LICENSE-2.0
  -
  -  Unless required by applicable law or agreed to in writing, software
  -  distributed under the License is distributed on an "AS IS" BASIS,
  -  WITHOUT WARRANTIES OR CONDITIONS OF ANY KIND, either express or implied.
  -  See the License for the specific language governing permissions and
  -  limitations under the License.
  -
  -->

<svg version="1.1" xmlns="http://www.w3.org/2000/svg" xmlns:xlink="http://www.w3.org/1999/xlink" width="26.0251" height="26.543">
 <g>
  <path d="M10.1261 6.25781L19.2082 15.3164L25.1378 11.0508C25.8644 10.5352 26.1574 9.99609 25.9699 9.41016C25.7824 8.84766 25.2316 8.56641 24.3293 8.57812L16.6535 8.625L14.3214 1.30078C14.0402 0.433594 13.6183 0 13.0089 0C12.4113 0 11.9894 0.433594 11.7082 1.30078ZM5.93081 8.60156L1.70035 8.57812C0.798001 8.56641 0.24722 8.84766 0.0597201 9.41016C-0.139499 9.99609 0.165189 10.5352 0.891751 11.0508L7.14956 15.5508L4.70035 22.8398C4.40738 23.6953 4.51285 24.293 4.99331 24.6562C5.47378 25.0312 6.08316 24.9023 6.80972 24.375L13.0089 19.8164L19.2199 24.375C19.9464 24.9023 20.5441 25.0312 21.0363 24.6562C21.2121 24.5273 21.3293 24.3633 21.2707 23.8828Z" fill="#000000"/>
  <path d="M23.1457 23.7773C23.4972 24.1289 24.0832 24.1289 24.423 23.7773C24.7628 23.4141 24.7746 22.8516 24.423 22.5L5.45035 3.58594C5.09878 3.23438 4.51285 3.22266 4.16128 3.58594C3.82144 3.92578 3.82144 4.51172 4.16128 4.86328Z" fill="#000000"/>
 </g>
</svg>
