<?xml version="1.0" encoding="UTF-8"?>

<!--
  - Copyright (c) 2023. Compose Cupertino project and open source contributors.
  -
  -  Licensed under the Apache License, Version 2.0 (the "License");
  -  you may not use this file except in compliance with the License.
  -  You may obtain a copy of the License at
  -
  -      http://www.apache.org/licenses/LICENSE-2.0
  -
  -  Unless required by applicable law or agreed to in writing, software
  -  distributed under the License is distributed on an "AS IS" BASIS,
  -  WITHOUT WARRANTIES OR CONDITIONS OF ANY KIND, either express or implied.
  -  See the License for the specific language governing permissions and
  -  limitations under the License.
  -
  -->

<svg version="1.1" xmlns="http://www.w3.org/2000/svg" xmlns:xlink="http://www.w3.org/1999/xlink" width="26.0251" height="26.543">
  <path d="M4.99331 24.6562C5.47378 25.0312 6.08316 24.9023 6.80972 24.375L13.0089 19.8164L19.2199 24.375C19.9464 24.9023 20.5441 25.0312 21.0363 24.6562C21.5168 24.293 21.6222 23.6953 21.3293 22.8398L18.88 15.5508L25.1378 11.0508C25.8644 10.5352 26.1574 9.99609 25.9699 9.41016C25.7824 8.84766 25.2316 8.56641 24.3293 8.57812L16.6535 8.625L14.3214 1.30078C14.0402 0.433594 13.6183 0 13.0089 0C12.4113 0 11.9894 0.433594 11.7082 1.30078L9.37613 8.625L1.70035 8.57812C0.798001 8.56641 0.24722 8.84766 0.0597201 9.41016C-0.139499 9.99609 0.165189 10.5352 0.891751 11.0508L7.14956 15.5508L4.70035 22.8398C4.40738 23.6953 4.51285 24.293 4.99331 24.6562ZM13.0089 17.8008L13.0089 2.84766C13.0441 2.84766 13.0675 2.87109 13.0793 2.94141L15.1183 9.72656C15.2707 10.207 15.5753 10.4062 16.0558 10.3945L23.1457 10.2656C23.216 10.2656 23.2394 10.2656 23.2511 10.3008C23.2628 10.3359 23.2394 10.3594 23.1925 10.3945L17.3566 14.4258C16.9464 14.707 16.8527 15.0703 17.0168 15.5273L19.3488 22.2305C19.3605 22.3008 19.3722 22.3125 19.3488 22.3359C19.3253 22.3711 19.2902 22.3477 19.2433 22.3125L13.6066 18.0117C13.4191 17.8711 13.2199 17.7891 13.0089 17.8008Z" fill="#000000"/>
</svg>
