<?xml version="1.0" encoding="UTF-8"?>

<!--
  - Copyright (c) 2023. Compose Cupertino project and open source contributors.
  -
  -  Licensed under the Apache License, Version 2.0 (the "License");
  -  you may not use this file except in compliance with the License.
  -  You may obtain a copy of the License at
  -
  -      http://www.apache.org/licenses/LICENSE-2.0
  -
  -  Unless required by applicable law or agreed to in writing, software
  -  distributed under the License is distributed on an "AS IS" BASIS,
  -  WITHOUT WARRANTIES OR CONDITIONS OF ANY KIND, either express or implied.
  -  See the License for the specific language governing permissions and
  -  limitations under the License.
  -
  -->

<svg version="1.1" xmlns="http://www.w3.org/2000/svg" xmlns:xlink="http://www.w3.org/1999/xlink" width="22.3828" height="24.5508">
  <path d="M11.0977 24.5508L11.25 24.5508C12.8789 24.5508 13.5 24.0352 13.5 22.418L13.5 14.5195L11.9766 15.3516L18.8438 19.3242C19.3594 19.5938 19.7695 19.7695 20.1445 19.7695C20.7891 19.7695 21.2344 19.3242 21.7734 18.5156L21.8555 18.3867C22.207 17.8594 22.3828 17.3789 22.3828 16.9805C22.3828 16.3242 21.9258 15.832 21.1172 15.3867L14.1211 11.3438L14.1211 13.0195L21.1055 9.16406C21.9258 8.73047 22.3477 8.25 22.3477 7.59375C22.3477 7.19531 22.1719 6.73828 21.8789 6.21094L21.7969 6.05859C21.2695 5.20312 20.7891 4.76953 20.1562 4.76953C19.7812 4.76953 19.3477 4.94531 18.832 5.21484L11.9883 9.1875L13.5 10.0195L13.5 2.13281C13.5 0.515625 12.8789 0 11.25 0L11.0977 0C9.46875 0 8.84766 0.515625 8.84766 2.13281L8.84766 10.0195L10.3945 9.1875L3.52734 5.21484C3.01172 4.92188 2.53125 4.73438 2.13281 4.73438C1.48828 4.73438 0.960938 5.17969 0.550781 6.08203L0.480469 6.21094C0.222656 6.75 0.0585938 7.21875 0.0585938 7.61719C0.0585938 8.23828 0.445312 8.71875 1.26562 9.17578L8.26172 13.0195L8.26172 11.3438L1.25391 15.3867C0.445312 15.832 0 16.3125 0 16.957C0 17.3555 0.1875 17.8359 0.492188 18.375L0.5625 18.4805C1.05469 19.3359 1.52344 19.7812 2.19141 19.7812C2.56641 19.7812 3.01172 19.5938 3.51562 19.3242L10.3945 15.3516L8.84766 14.5195L8.84766 22.418C8.84766 24.0352 9.46875 24.5508 11.0977 24.5508Z" fill="#000000"/>
</svg>
