<?xml version="1.0" encoding="UTF-8"?>

<!--
  - Copyright (c) 2023. Compose Cupertino project and open source contributors.
  -
  -  Licensed under the Apache License, Version 2.0 (the "License");
  -  you may not use this file except in compliance with the License.
  -  You may obtain a copy of the License at
  -
  -      http://www.apache.org/licenses/LICENSE-2.0
  -
  -  Unless required by applicable law or agreed to in writing, software
  -  distributed under the License is distributed on an "AS IS" BASIS,
  -  WITHOUT WARRANTIES OR CONDITIONS OF ANY KIND, either express or implied.
  -  See the License for the specific language governing permissions and
  -  limitations under the License.
  -
  -->

<svg version="1.1" xmlns="http://www.w3.org/2000/svg" xmlns:xlink="http://www.w3.org/1999/xlink" width="27.1289" height="25.0195">
  <path d="M4.37109 4.16016L6.25781 4.16016L6.25781 22.7109L4.37109 22.7109ZM20.8594 4.16016L22.7461 4.16016L22.7461 22.7109L20.8594 22.7109ZM3.62109 22.7109L23.5078 22.7109C25.9336 22.7109 27.1289 21.5273 27.1289 19.1367L27.1289 7.73438C27.1289 5.33203 25.9336 4.16016 23.5078 4.16016L3.62109 4.16016C1.20703 4.16016 0 5.33203 0 7.73438L0 19.1367C0 21.5273 1.20703 22.7109 3.62109 22.7109ZM7.61719 5.17969L9.43359 5.17969L9.43359 3.10547C9.43359 2.21484 9.96094 1.71094 10.875 1.71094L16.2539 1.71094C17.168 1.71094 17.6836 2.21484 17.6836 3.10547L17.6836 5.15625L19.5 5.15625L19.5 3.23438C19.5 1.03125 18.3398 0 16.2188 0L10.8984 0C8.89453 0 7.61719 1.03125 7.61719 3.23438Z" fill="#000000"/>
</svg>
