<?xml version="1.0" encoding="UTF-8"?>

<!--
  - Copyright (c) 2023. Compose Cupertino project and open source contributors.
  -
  -  Licensed under the Apache License, Version 2.0 (the "License");
  -  you may not use this file except in compliance with the License.
  -  You may obtain a copy of the License at
  -
  -      http://www.apache.org/licenses/LICENSE-2.0
  -
  -  Unless required by applicable law or agreed to in writing, software
  -  distributed under the License is distributed on an "AS IS" BASIS,
  -  WITHOUT WARRANTIES OR CONDITIONS OF ANY KIND, either express or implied.
  -  See the License for the specific language governing permissions and
  -  limitations under the License.
  -
  -->

<svg version="1.1" xmlns="http://www.w3.org/2000/svg" xmlns:xlink="http://www.w3.org/1999/xlink" width="25.3711" height="25.4648">
  <path d="M12.6797 6.73828C9.41016 6.73828 6.70312 9.44531 6.70312 12.7266C6.70312 15.9961 9.41016 18.7031 12.6797 18.7031C15.9375 18.7031 18.6445 15.9961 18.6445 12.7266C18.6445 9.44531 15.9375 6.73828 12.6797 6.73828ZM13.7109 1.03125C13.7109 0.46875 13.2422 0 12.6797 0C12.1289 0 11.6602 0.46875 11.6602 1.03125L11.6602 3.49219C11.6602 4.04297 12.1289 4.51172 12.6797 4.51172C13.2422 4.51172 13.7109 4.04297 13.7109 3.49219ZM18.4688 5.49609C18.082 5.89453 18.082 6.53906 18.4688 6.9375C18.8672 7.32422 19.5234 7.33594 19.9219 6.9375L21.668 5.19141C22.0664 4.79297 22.0664 4.125 21.668 3.73828C21.2812 3.33984 20.625 3.33984 20.2383 3.73828ZM24.3398 13.7461C24.9023 13.7461 25.3711 13.2773 25.3711 12.7266C25.3711 12.1758 24.9023 11.707 24.3398 11.707L21.8906 11.707C21.3398 11.707 20.8711 12.1758 20.8711 12.7266C20.8711 13.2773 21.3398 13.7461 21.8906 13.7461ZM19.9102 18.5273C19.5234 18.1289 18.8672 18.1289 18.4688 18.5273C18.082 18.9141 18.082 19.5703 18.4688 19.9688L20.2383 21.7266C20.625 22.1133 21.2812 22.1016 21.668 21.7148C22.0664 21.3164 22.0664 20.6602 21.668 20.2734ZM13.7109 21.9609C13.7109 21.3984 13.2422 20.9297 12.6797 20.9297C12.1289 20.9297 11.6602 21.3984 11.6602 21.9609L11.6602 24.4219C11.6602 24.9727 12.1289 25.4414 12.6797 25.4414C13.2422 25.4414 13.7109 24.9727 13.7109 24.4219ZM3.69141 20.2617C3.30469 20.6484 3.30469 21.3047 3.67969 21.7031C4.06641 22.0898 4.73438 22.1016 5.13281 21.7148L6.87891 19.9688C7.27734 19.582 7.27734 18.9258 6.89062 18.5273C6.50391 18.1406 5.83594 18.1406 5.4375 18.5273ZM1.01953 11.707C0.46875 11.707 0 12.1758 0 12.7266C0 13.2773 0.46875 13.7461 1.01953 13.7461L3.46875 13.7461C4.03125 13.7461 4.5 13.2773 4.5 12.7266C4.5 12.1758 4.03125 11.707 3.46875 11.707ZM5.4375 6.9375C5.83594 7.32422 6.49219 7.32422 6.87891 6.9375C7.27734 6.5625 7.27734 5.88281 6.89062 5.49609L5.14453 3.73828C4.76953 3.35156 4.10156 3.33984 3.70312 3.73828C3.31641 4.125 3.31641 4.79297 3.69141 5.17969Z" fill="#000000"/>
</svg>
