<?xml version="1.0" encoding="UTF-8"?>

<!--
  - Copyright (c) 2023. Compose Cupertino project and open source contributors.
  -
  -  Licensed under the Apache License, Version 2.0 (the "License");
  -  you may not use this file except in compliance with the License.
  -  You may obtain a copy of the License at
  -
  -      http://www.apache.org/licenses/LICENSE-2.0
  -
  -  Unless required by applicable law or agreed to in writing, software
  -  distributed under the License is distributed on an "AS IS" BASIS,
  -  WITHOUT WARRANTIES OR CONDITIONS OF ANY KIND, either express or implied.
  -  See the License for the specific language governing permissions and
  -  limitations under the License.
  -
  -->

<svg version="1.1" xmlns="http://www.w3.org/2000/svg" xmlns:xlink="http://www.w3.org/1999/xlink" width="27.6328" height="21.5742">
  <path d="M4.875 9.10547L7.78125 7.33594L4.875 5.58984C3.91406 5.00391 4.72266 3.57422 5.77734 4.23047L9.24609 6.39844C9.90234 6.82031 9.9375 7.85156 9.24609 8.28516L5.77734 10.4648C4.72266 11.1211 3.92578 9.66797 4.875 9.10547ZM9.97266 10.4414C9.97266 10.0078 10.3125 9.65625 10.7461 9.65625L15.3516 9.65625C15.7969 9.65625 16.1367 10.0078 16.1367 10.4414C16.1367 10.875 15.7969 11.2266 15.3516 11.2266L10.7461 11.2266C10.3125 11.2266 9.97266 10.875 9.97266 10.4414ZM3.67969 21.5742L23.9531 21.5742C26.4141 21.5742 27.6328 20.3672 27.6328 17.9531L27.6328 3.63281C27.6328 1.21875 26.4141 0 23.9531 0L3.67969 0C1.23047 0 0 1.21875 0 3.63281L0 17.9531C0 20.3672 1.23047 21.5742 3.67969 21.5742Z" fill="#000000"/>
</svg>
