<?xml version="1.0" encoding="UTF-8"?>

<!--
  - Copyright (c) 2023. Compose Cupertino project and open source contributors.
  -
  -  Licensed under the Apache License, Version 2.0 (the "License");
  -  you may not use this file except in compliance with the License.
  -  You may obtain a copy of the License at
  -
  -      http://www.apache.org/licenses/LICENSE-2.0
  -
  -  Unless required by applicable law or agreed to in writing, software
  -  distributed under the License is distributed on an "AS IS" BASIS,
  -  WITHOUT WARRANTIES OR CONDITIONS OF ANY KIND, either express or implied.
  -  See the License for the specific language governing permissions and
  -  limitations under the License.
  -
  -->

<svg version="1.1" xmlns="http://www.w3.org/2000/svg" xmlns:xlink="http://www.w3.org/1999/xlink" width="25.8281" height="25.8867">
  <path d="M6.96094 25.8867C7.41797 25.8867 7.75781 25.6523 8.30859 25.1367L12.5391 21.2695L20.4609 21.2695C23.9531 21.2695 25.8281 19.3477 25.8281 15.9141L25.8281 6.9375C25.8281 3.50391 23.9531 1.57031 20.4609 1.57031L5.36719 1.57031C1.875 1.57031 0 3.49219 0 6.9375L0 15.9141C0 19.3594 1.875 21.2695 5.36719 21.2695L5.91797 21.2695L5.91797 24.6797C5.91797 25.4062 6.29297 25.8867 6.96094 25.8867Z M6.69141 8.08594C6.30469 8.08594 5.98828 7.78125 5.98828 7.38281C5.98828 7.00781 6.30469 6.69141 6.69141 6.69141L18.9961 6.69141C19.3828 6.69141 19.6875 7.00781 19.6875 7.38281C19.6875 7.78125 19.3828 8.08594 18.9961 8.08594ZM6.69141 12.0234C6.30469 12.0234 5.98828 11.707 5.98828 11.3086C5.98828 10.9336 6.30469 10.6172 6.69141 10.6172L18.9961 10.6172C19.3828 10.6172 19.6875 10.9336 19.6875 11.3086C19.6875 11.707 19.3828 12.0234 18.9961 12.0234ZM6.69141 15.9492C6.30469 15.9492 5.98828 15.6445 5.98828 15.2578C5.98828 14.8594 6.30469 14.543 6.69141 14.543L14.6953 14.543C15.082 14.543 15.3867 14.8594 15.3867 15.2578C15.3867 15.6445 15.082 15.9492 14.6953 15.9492Z"/>
</svg>
