<?xml version="1.0" encoding="UTF-8"?>

<!--
  - Copyright (c) 2023. Compose Cupertino project and open source contributors.
  -
  -  Licensed under the Apache License, Version 2.0 (the "License");
  -  you may not use this file except in compliance with the License.
  -  You may obtain a copy of the License at
  -
  -      http://www.apache.org/licenses/LICENSE-2.0
  -
  -  Unless required by applicable law or agreed to in writing, software
  -  distributed under the License is distributed on an "AS IS" BASIS,
  -  WITHOUT WARRANTIES OR CONDITIONS OF ANY KIND, either express or implied.
  -  See the License for the specific language governing permissions and
  -  limitations under the License.
  -
  -->

<svg version="1.1" xmlns="http://www.w3.org/2000/svg" xmlns:xlink="http://www.w3.org/1999/xlink" width="39.567" height="27.0321">
 <g>
  <path d="M36.8789 6.30317L25.2773 3.19771C23.2148 2.64692 21.7617 3.2563 21.164 5.08442L21.0234 5.58833L22.3125 10.393C23.6015 15.186 22.5469 19.2407 19.5469 21.8657C20.6953 23.7641 22.7344 25.1821 25.4297 25.8969C31.1836 27.4321 35.5547 24.7602 37.1719 18.7368L39.3867 10.5571C39.9726 8.34224 39.1289 6.90083 36.8789 6.30317ZM25.0664 13.4047C24.2578 13.2055 23.7773 12.3852 24 11.5532C24.2226 10.7446 25.043 10.2641 25.8515 10.4868C26.6601 10.7094 27.1406 11.5415 26.9297 12.35C26.707 13.1586 25.8867 13.6274 25.0664 13.4047ZM31.9453 15.2446C31.1484 15.0336 30.668 14.2016 30.8906 13.3813C31.1015 12.5727 31.9219 12.104 32.7305 12.3266C33.5508 12.5258 34.0195 13.3579 33.8086 14.1782C33.5859 14.9868 32.7656 15.4672 31.9453 15.2446ZM27.0117 19.7446C25.793 19.4047 24.6211 19.393 23.1211 19.7211C22.6523 19.8266 22.3711 19.4399 22.6172 19.0532C23.625 17.4711 25.664 16.8149 27.6445 17.3657C29.6953 17.8813 31.0898 19.4516 31.1601 21.3266C31.1836 21.7954 30.75 21.9946 30.3984 21.6782C29.2383 20.6235 28.2422 20.061 27.0117 19.7446Z" fill="#000000"/>
  <path d="M14.1445 22.8735C19.9219 21.3149 22.3945 16.8383 20.7656 10.8032L18.5742 2.60005C17.9765 0.396924 16.5234-0.399951 14.2851 0.185987L2.67186 3.26802C0.421862 3.87739-0.410169 5.28364 0.187487 7.53364L2.36717 15.725C3.97264 21.7485 8.36717 24.4204 14.1445 22.8735ZM13.043 18.6782C10.5937 19.311 8.21483 18.479 6.96092 16.4868C6.71483 16.1235 6.92577 15.7602 7.39452 15.7954C8.95311 15.9243 10.8047 15.6547 12.1406 15.2915C13.4531 14.9516 15.164 14.2719 16.4648 13.3696C16.8515 13.0883 17.2383 13.2875 17.2148 13.768C17.1328 16.1118 15.5039 17.9985 13.043 18.6782ZM7.13671 10.979C6.2578 11.225 6.14061 11.811 5.76561 11.8696C5.58983 11.9047 5.37889 11.7055 5.27342 11.3657C4.99217 10.3696 5.62499 9.30317 6.6328 9.05708C7.65233 8.81099 8.6953 9.40864 8.95311 10.3696C9.05858 10.7211 8.96483 10.9907 8.77733 11.061C8.34374 11.2133 7.93358 10.768 7.13671 10.979ZM14.2851 9.04536C13.4062 9.30317 13.289 9.87739 12.914 9.92427C12.7383 9.95942 12.5273 9.76021 12.4219 9.43208C12.1406 8.44771 12.7734 7.36958 13.7812 7.12349C14.8125 6.85396 15.8437 7.46333 16.1015 8.43599C16.207 8.79927 16.1133 9.05708 15.9258 9.12739C15.5039 9.27974 15.082 8.82271 14.2851 9.04536Z" fill="#000000"/>
 </g>
</svg>
