<?xml version="1.0" encoding="UTF-8"?>

<!--
  - Copyright (c) 2023. Compose Cupertino project and open source contributors.
  -
  -  Licensed under the Apache License, Version 2.0 (the "License");
  -  you may not use this file except in compliance with the License.
  -  You may obtain a copy of the License at
  -
  -      http://www.apache.org/licenses/LICENSE-2.0
  -
  -  Unless required by applicable law or agreed to in writing, software
  -  distributed under the License is distributed on an "AS IS" BASIS,
  -  WITHOUT WARRANTIES OR CONDITIONS OF ANY KIND, either express or implied.
  -  See the License for the specific language governing permissions and
  -  limitations under the License.
  -
  -->

<svg version="1.1" xmlns="http://www.w3.org/2000/svg" xmlns:xlink="http://www.w3.org/1999/xlink" width="22.6992" height="28.4414">
  <path d="M6.08203 5.02734L8.20312 5.02734L8.20312 2.97656C8.20312 2.39062 8.61328 1.99219 9.24609 1.99219L13.4414 1.99219C14.0742 1.99219 14.4844 2.39062 14.4844 2.97656L14.4844 5.02734L16.5938 5.02734L16.5938 2.85938C16.5938 1.08984 15.4336 0 13.5586 0L9.11719 0C7.24219 0 6.08203 1.08984 6.08203 2.85938ZM0.878906 6.42188L21.8203 6.42188C22.3008 6.42188 22.6992 6.01172 22.6992 5.53125C22.6992 5.05078 22.3008 4.65234 21.8203 4.65234L0.878906 4.65234C0.410156 4.65234 0 5.05078 0 5.53125C0 6.02344 0.410156 6.42188 0.878906 6.42188ZM20.0742 6.17578L2.63672 6.17578L3.39844 23.543C3.45703 24.9961 4.33594 25.8047 5.77734 25.8047L16.9219 25.8047C18.375 25.8047 19.2539 24.9961 19.3125 23.543ZM7.64062 22.4531C7.21875 22.4531 6.92578 22.1836 6.91406 21.7617L6.55078 9C6.53906 8.58984 6.83203 8.30859 7.28906 8.30859C7.69922 8.30859 8.00391 8.57812 8.01562 8.98828L8.36719 21.7617C8.37891 22.1719 8.08594 22.4531 7.64062 22.4531ZM11.3555 22.4531C10.9102 22.4531 10.5938 22.1719 10.5938 21.7617L10.5938 9C10.5938 8.58984 10.9102 8.30859 11.3555 8.30859C11.8008 8.30859 12.1055 8.58984 12.1055 9L12.1055 21.7617C12.1055 22.1719 11.8008 22.4531 11.3555 22.4531ZM15.0586 22.4531C14.6133 22.4531 14.3203 22.1719 14.332 21.7617L14.6836 9C14.6953 8.57812 15 8.30859 15.4102 8.30859C15.8555 8.30859 16.1602 8.58984 16.1484 9L15.7852 21.7617C15.7734 22.1836 15.4805 22.4531 15.0586 22.4531Z" fill="#000000"/>
</svg>
