<?xml version="1.0" encoding="UTF-8"?>

<!--
  - Copyright (c) 2023. Compose Cupertino project and open source contributors.
  -
  -  Licensed under the Apache License, Version 2.0 (the "License");
  -  you may not use this file except in compliance with the License.
  -  You may obtain a copy of the License at
  -
  -      http://www.apache.org/licenses/LICENSE-2.0
  -
  -  Unless required by applicable law or agreed to in writing, software
  -  distributed under the License is distributed on an "AS IS" BASIS,
  -  WITHOUT WARRANTIES OR CONDITIONS OF ANY KIND, either express or implied.
  -  See the License for the specific language governing permissions and
  -  limitations under the License.
  -
  -->

<svg version="1.1" xmlns="http://www.w3.org/2000/svg" xmlns:xlink="http://www.w3.org/1999/xlink" width="22.6963" height="28.4414">
 <g>
  <path d="M19.5439 18.2461L20.0596 6.42188L21.8174 6.42188C22.2979 6.42188 22.6963 6.01172 22.6963 5.53125C22.6963 5.05078 22.2979 4.65234 21.8174 4.65234L16.5908 4.65234L16.5908 2.85938C16.5908 1.08984 15.4307 0 13.5557 0L9.10254 0C7.23926 0 6.0791 1.08984 6.0791 2.85938L6.0791 4.34766L5.63379 4.34766L10.6494 9.36328L10.6494 8.73047C10.7549 8.46094 11.0127 8.30859 11.3408 8.30859C11.7861 8.30859 12.1025 8.58984 12.1025 9L12.1025 10.8164L14.5635 13.2773L14.6807 9C14.6924 8.57812 14.9971 8.30859 15.4072 8.30859C15.8525 8.30859 16.1455 8.58984 16.1338 9L15.9814 14.6953ZM8.2002 4.65234L8.2002 2.97656C8.2002 2.39062 8.59863 1.99219 9.24316 1.99219L13.4385 1.99219C14.0713 1.99219 14.4814 2.39062 14.4814 2.97656L14.4814 4.65234ZM5.77441 25.8047L16.9189 25.8047C17.9971 25.8047 18.7822 25.3125 19.0869 24.5039L19.0986 24.2461L15.8057 20.9531L15.7822 21.7617C15.7822 22.1836 15.4775 22.4531 15.0557 22.4531C14.6104 22.4531 14.3174 22.1719 14.3291 21.7617L14.3877 19.5234L12.1025 17.2383L12.1025 21.7617C12.1025 22.1719 11.7861 22.4531 11.3408 22.4531C10.8955 22.4531 10.5908 22.1719 10.5908 21.7617L10.5908 15.7383L8.12988 13.2656L8.36426 21.7617C8.37598 22.1719 8.08301 22.4531 7.6377 22.4531C7.2041 22.4531 6.91113 22.1836 6.89941 21.7617L6.62988 11.7656L2.7041 7.86328L3.39551 23.543C3.4541 24.9961 4.32129 25.8047 5.77441 25.8047Z"  />
  <path d="M21.1494 24.3047C21.501 24.6562 22.0752 24.6562 22.4268 24.3047C22.7666 23.9414 22.7783 23.3789 22.4268 23.0273L1.54395 2.13281C1.19238 1.78125 0.606445 1.78125 0.254883 2.13281C-0.0849609 2.47266-0.0849609 3.07031 0.254883 3.41016Z"  />
 </g>
</svg>
