<?xml version="1.0" encoding="UTF-8"?>

<!--
  - Copyright (c) 2023. Compose Cupertino project and open source contributors.
  -
  -  Licensed under the Apache License, Version 2.0 (the "License");
  -  you may not use this file except in compliance with the License.
  -  You may obtain a copy of the License at
  -
  -      http://www.apache.org/licenses/LICENSE-2.0
  -
  -  Unless required by applicable law or agreed to in writing, software
  -  distributed under the License is distributed on an "AS IS" BASIS,
  -  WITHOUT WARRANTIES OR CONDITIONS OF ANY KIND, either express or implied.
  -  See the License for the specific language governing permissions and
  -  limitations under the License.
  -
  -->

<svg version="1.1" xmlns="http://www.w3.org/2000/svg" xmlns:xlink="http://www.w3.org/1999/xlink" width="30.8566" height="25.582">
  <path d="M9.46706 25.582L21.385 25.582C23.553 25.582 24.6077 24.5391 24.6428 22.3828L24.7952 10.875L27.6663 11.5312C28.7561 11.7773 29.4593 11.332 29.7288 10.207L30.7718 6.04688C31.053 4.93359 30.6311 4.16016 29.5647 3.71484L21.3147 0.199219C20.846-0.0117188 20.4124 0 19.9788 0.210938C18.4319 0.949219 17.178 1.32422 15.4319 1.32422C13.6741 1.32422 12.4202 0.949219 10.8733 0.210938C10.4397 0 10.0061-0.0117188 9.53738 0.199219L1.28738 3.71484C0.220971 4.16016-0.189185 4.93359 0.0803459 6.04688L1.12331 10.207C1.39285 11.332 2.09597 11.7773 3.18581 11.5312L6.06863 10.875L6.20925 22.3828C6.24441 24.5391 7.2991 25.582 9.46706 25.582ZM15.4319 4.98047C13.428 4.98047 12.0218 3.94922 11.4241 2.25C12.6546 2.71875 14.0374 2.97656 15.4319 2.97656C16.8147 2.97656 18.2093 2.71875 19.428 2.25C18.8421 3.92578 17.4593 4.98047 15.4319 4.98047Z" fill="#000000"/>
</svg>
