<?xml version="1.0" encoding="UTF-8"?>

<!--
  - Copyright (c) 2023. Compose Cupertino project and open source contributors.
  -
  -  Licensed under the Apache License, Version 2.0 (the "License");
  -  you may not use this file except in compliance with the License.
  -  You may obtain a copy of the License at
  -
  -      http://www.apache.org/licenses/LICENSE-2.0
  -
  -  Unless required by applicable law or agreed to in writing, software
  -  distributed under the License is distributed on an "AS IS" BASIS,
  -  WITHOUT WARRANTIES OR CONDITIONS OF ANY KIND, either express or implied.
  -  See the License for the specific language governing permissions and
  -  limitations under the License.
  -
  -->

<svg version="1.1" xmlns="http://www.w3.org/2000/svg" xmlns:xlink="http://www.w3.org/1999/xlink" width="33.293" height="26.4023">
 <g>
  <path d="M3.01172 21.3398L19.1133 21.3398L19.1133 19.4531L3.04688 19.4531C2.23828 19.4531 1.88672 19.125 1.88672 18.3047L1.88672 4.93359C1.88672 4.10156 2.23828 3.78516 3.04688 3.78516L26.2266 3.78516C27.0234 3.78516 27.375 4.10156 27.375 4.93359L27.375 8.47266L29.2617 8.47266L29.2617 4.89844C29.2617 2.84766 28.2656 1.89844 26.2617 1.89844L3.01172 1.89844C1.00781 1.89844 0 2.84766 0 4.89844L0 18.3281C0 20.3906 1.00781 21.3398 3.01172 21.3398ZM8.09766 25.3125L19.2891 25.3125C19.1836 24.9141 19.1133 24.4688 19.1133 23.4141L8.09766 23.4141C7.57031 23.4141 7.14844 23.8359 7.14844 24.3633C7.14844 24.8906 7.57031 25.3125 8.09766 25.3125Z" fill="#000000"/>
  <path d="M23.1914 26.4023L30.8086 26.4023C32.4492 26.4023 33.293 25.5703 33.293 23.8945L33.293 12.5859C33.293 10.9102 32.4492 10.0664 30.8086 10.0664L23.1914 10.0664C21.5156 10.0664 20.707 10.9102 20.707 12.5859L20.707 23.8945C20.707 25.5703 21.5156 26.4023 23.1914 26.4023ZM27 16.043C25.875 16.043 24.9727 15.1406 24.9844 14.0039C24.9961 12.8789 25.875 12 27 12C28.125 12 29.0156 12.8789 29.0156 14.0039C29.0156 15.1406 28.125 16.043 27 16.043ZM26.9883 24.375C24.9961 24.375 23.4141 22.7695 23.4141 20.7773C23.4141 18.7734 24.9961 17.1797 26.9883 17.168C28.9688 17.1562 30.5859 18.7734 30.5859 20.7773C30.5859 22.7695 28.9688 24.375 26.9883 24.375ZM26.9883 15.0117C27.5391 15.0117 27.9844 14.5664 27.9844 14.0039C27.9844 13.4414 27.5391 13.0195 26.9883 13.0195C26.4492 13.0195 26.0039 13.4648 26.0039 14.0039C26.0039 14.5664 26.4375 15.0117 26.9883 15.0117ZM26.9883 22.2773C27.832 22.2773 28.5117 21.6094 28.5117 20.7773C28.5117 19.8984 27.8438 19.2422 26.9883 19.2422C26.1562 19.2422 25.4883 19.8984 25.4883 20.7773C25.4883 21.6094 26.1562 22.2773 26.9883 22.2773Z" fill="#000000"/>
 </g>
</svg>
