<?xml version="1.0" encoding="UTF-8"?>

<!--
  - Copyright (c) 2023. Compose Cupertino project and open source contributors.
  -
  -  Licensed under the Apache License, Version 2.0 (the "License");
  -  you may not use this file except in compliance with the License.
  -  You may obtain a copy of the License at
  -
  -      http://www.apache.org/licenses/LICENSE-2.0
  -
  -  Unless required by applicable law or agreed to in writing, software
  -  distributed under the License is distributed on an "AS IS" BASIS,
  -  WITHOUT WARRANTIES OR CONDITIONS OF ANY KIND, either express or implied.
  -  See the License for the specific language governing permissions and
  -  limitations under the License.
  -
  -->

<svg version="1.1" xmlns="http://www.w3.org/2000/svg" xmlns:xlink="http://www.w3.org/1999/xlink" width="29.2969" height="24.2227">
  <path d="M3.01172 20.25L26.2852 20.25C28.2891 20.25 29.2969 19.3008 29.2969 17.2383L29.2969 3.80859C29.2969 1.75781 28.2891 0.808594 26.2852 0.808594L3.01172 0.808594C1.00781 0.808594 0 1.75781 0 3.80859L0 17.2383C0 19.3008 1.00781 20.25 3.01172 20.25ZM8.75391 24.2227L20.543 24.2227C21.0586 24.2227 21.4922 23.8008 21.4922 23.2734C21.4922 22.7461 21.0586 22.3242 20.543 22.3242L8.75391 22.3242C8.23828 22.3242 7.80469 22.7461 7.80469 23.2734C7.80469 23.8008 8.23828 24.2227 8.75391 24.2227Z" fill="#000000"/>
</svg>
