<?xml version="1.0" encoding="UTF-8"?>

<!--
  - Copyright (c) 2023. Compose Cupertino project and open source contributors.
  -
  -  Licensed under the Apache License, Version 2.0 (the "License");
  -  you may not use this file except in compliance with the License.
  -  You may obtain a copy of the License at
  -
  -      http://www.apache.org/licenses/LICENSE-2.0
  -
  -  Unless required by applicable law or agreed to in writing, software
  -  distributed under the License is distributed on an "AS IS" BASIS,
  -  WITHOUT WARRANTIES OR CONDITIONS OF ANY KIND, either express or implied.
  -  See the License for the specific language governing permissions and
  -  limitations under the License.
  -
  -->

<svg version="1.1" xmlns="http://www.w3.org/2000/svg" xmlns:xlink="http://www.w3.org/1999/xlink" width="23.3672" height="27.7148">
  <path d="M10.7109 3.50391L12.6562 3.50391L12.6562 0.984375C12.6562 0.445312 12.2227 0 11.6836 0C11.1445 0 10.7109 0.445312 10.7109 0.984375ZM0.972656 14.8711C1.3125 14.8711 1.64062 14.6484 1.89844 14.2617C2.68359 13.0781 3.50391 12.5859 4.61719 12.5859C5.70703 12.5859 6.44531 13.0781 7.11328 14.25C7.37109 14.6836 7.61719 14.8711 7.94531 14.8711C8.28516 14.8711 8.54297 14.6836 8.77734 14.25C9.41016 13.1719 10.5586 12.5156 11.6836 12.5156C12.8086 12.5156 13.957 13.1719 14.5898 14.25C14.8242 14.6836 15.0703 14.8711 15.4219 14.8711C15.75 14.8711 15.9961 14.6836 16.2422 14.25C16.9219 13.0781 17.6602 12.5859 18.75 12.5859C19.8633 12.5859 20.6836 13.0781 21.457 14.2617C21.7148 14.6484 22.043 14.8711 22.3945 14.8711C22.9805 14.8711 23.3672 14.3906 23.3672 13.7578C23.3672 9.10547 19.6992 2.57812 11.6836 2.57812C3.66797 2.57812 0 9.10547 0 13.7578C0 14.3906 0.386719 14.8711 0.972656 14.8711ZM8.92969 27.0938C11.0508 27.0938 12.6562 25.4883 12.6562 23.3555L12.6562 11.9531L10.7109 11.9531L10.7109 23.3555C10.7109 24.375 9.97266 25.1133 8.92969 25.1133C7.91016 25.1133 7.18359 24.375 7.18359 23.3555C7.18359 22.6758 6.77344 22.2188 6.17578 22.2188C5.58984 22.2188 5.20312 22.6758 5.20312 23.3555C5.20312 25.4883 6.82031 27.0938 8.92969 27.0938Z" fill="#000000"/>
</svg>
