<?xml version="1.0" encoding="UTF-8"?>

<!--
  - Copyright (c) 2023. Compose Cupertino project and open source contributors.
  -
  -  Licensed under the Apache License, Version 2.0 (the "License");
  -  you may not use this file except in compliance with the License.
  -  You may obtain a copy of the License at
  -
  -      http://www.apache.org/licenses/LICENSE-2.0
  -
  -  Unless required by applicable law or agreed to in writing, software
  -  distributed under the License is distributed on an "AS IS" BASIS,
  -  WITHOUT WARRANTIES OR CONDITIONS OF ANY KIND, either express or implied.
  -  See the License for the specific language governing permissions and
  -  limitations under the License.
  -
  -->

<svg version="1.1" xmlns="http://www.w3.org/2000/svg" xmlns:xlink="http://www.w3.org/1999/xlink" width="28.7695" height="19.043">
  <path d="M3.76172 19.0312L16.3477 19.0312C18.7031 19.0312 20.1094 17.6719 20.1094 15.3164L20.1094 3.70312C20.1094 1.35938 18.8203 0 16.4648 0L3.76172 0C1.51172 0 0 1.35938 0 3.70312L0 15.3164C0 17.6719 1.40625 19.0312 3.76172 19.0312ZM21.7031 12.9727L25.9688 16.6641C26.3672 17.0156 26.8359 17.2383 27.2578 17.2383C28.1719 17.2383 28.7695 16.5703 28.7695 15.6094L28.7695 3.42188C28.7695 2.46094 28.1719 1.79297 27.2578 1.79297C26.8359 1.79297 26.3672 2.01562 25.9688 2.36719L21.7031 6.04688Z" fill="#000000"/>
</svg>
