<?xml version="1.0" encoding="UTF-8"?>

<!--
  - Copyright (c) 2023. Compose Cupertino project and open source contributors.
  -
  -  Licensed under the Apache License, Version 2.0 (the "License");
  -  you may not use this file except in compliance with the License.
  -  You may obtain a copy of the License at
  -
  -      http://www.apache.org/licenses/LICENSE-2.0
  -
  -  Unless required by applicable law or agreed to in writing, software
  -  distributed under the License is distributed on an "AS IS" BASIS,
  -  WITHOUT WARRANTIES OR CONDITIONS OF ANY KIND, either express or implied.
  -  See the License for the specific language governing permissions and
  -  limitations under the License.
  -
  -->

<svg version="1.1" xmlns="http://www.w3.org/2000/svg" xmlns:xlink="http://www.w3.org/1999/xlink" width="23.8711" height="23.918">
  <path d="M15.8906 6.09375C16.9336 4.19531 17.2852 2.4375 16.6523 0.996094C15.1875 0.363281 13.582 0 11.9062 0C8.49609 0 5.37891 1.48828 3.21094 3.84375C7.41797 2.19141 13.043 3.85547 15.8906 6.09375ZM11.1328 11.7891C12.7266 10.3359 14.0625 8.87109 15.0586 7.42969C11.8359 4.875 5.13281 3.1875 1.30078 6.52734C0.5625 7.89844 0.105469 9.44531 0 11.0977C2.80078 9.21094 7.42969 10.2422 11.1328 11.7891ZM3.85547 11.5547C2.22656 11.5078 0.84375 11.9062 0 12.9375C0.410156 17.8125 3.85547 21.9258 8.41406 23.332C6.23438 20.8008 3.94922 16.3594 3.85547 11.5547ZM10.6172 13.2422C8.89453 12.5039 7.06641 11.9297 5.39062 11.7188C5.61328 17.9531 9.63281 23.2148 11.5664 23.9062C13.1367 23.9297 14.5781 23.6836 15.8555 23.2148C12.9727 21.5039 10.7812 16.8867 10.6172 13.2422ZM17.8477 22.3008C21.4219 20.2266 23.8711 16.3359 23.8711 11.9531C23.8711 10.5352 23.6016 9.16406 23.1328 7.89844C22.3594 11.0625 19.9453 15.6797 14.4961 19.8398C15.4805 21.2461 16.6641 22.207 17.8477 22.3008ZM13.6992 18.5273C20.5898 13.1367 22.2773 7.25391 21.9375 5.48438C21 4.06641 19.7812 2.84766 18.3516 1.92188C18.7852 5.34375 15.9258 9.51562 12.1289 12.9375C12.1992 14.8125 12.7969 16.8281 13.6992 18.5273Z" fill="#000000"/>
</svg>
