<?xml version="1.0" encoding="UTF-8"?>

<!--
  - Copyright (c) 2023. Compose Cupertino project and open source contributors.
  -
  -  Licensed under the Apache License, Version 2.0 (the "License");
  -  you may not use this file except in compliance with the License.
  -  You may obtain a copy of the License at
  -
  -      http://www.apache.org/licenses/LICENSE-2.0
  -
  -  Unless required by applicable law or agreed to in writing, software
  -  distributed under the License is distributed on an "AS IS" BASIS,
  -  WITHOUT WARRANTIES OR CONDITIONS OF ANY KIND, either express or implied.
  -  See the License for the specific language governing permissions and
  -  limitations under the License.
  -
  -->

<svg version="1.1" xmlns="http://www.w3.org/2000/svg" xmlns:xlink="http://www.w3.org/1999/xlink" width="19.7109" height="25.1367">
  <path d="M3.63281 25.125L16.0781 25.125C18.4922 25.125 19.7109 23.8945 19.7109 21.457L19.7109 3.67969C19.7109 1.23047 18.5039 0 16.0781 0L13.1016 0C12.7031 0 12.4336 0.28125 12.4336 0.703125C12.4336 0.761719 12.4336 0.820312 12.4336 0.867188C12.4336 2.39062 11.4023 3.30469 9.85547 3.30469C8.30859 3.30469 7.27734 2.39062 7.27734 0.867188C7.27734 0.820312 7.27734 0.761719 7.27734 0.703125C7.27734 0.28125 7.00781 0 6.60938 0L3.63281 0C1.20703 0 0 1.23047 0 3.67969L0 21.457C0 23.8945 1.21875 25.125 3.63281 25.125ZM5.41406 8.73047C4.99219 8.73047 4.6875 8.41406 4.6875 7.99219C4.6875 7.59375 4.99219 7.27734 5.41406 7.27734L14.3086 7.27734C14.7188 7.27734 15.0234 7.59375 15.0234 7.99219C15.0234 8.41406 14.7188 8.73047 14.3086 8.73047ZM5.41406 12.8906C4.99219 12.8906 4.6875 12.5742 4.6875 12.1758C4.6875 11.7656 4.99219 11.4492 5.41406 11.4492L9.62109 11.4492C10.043 11.4492 10.3477 11.7656 10.3477 12.1758C10.3477 12.5742 10.043 12.8906 9.62109 12.8906Z" fill="#000000"/>
</svg>
