<?xml version="1.0" encoding="UTF-8"?>

<!--
  - Copyright (c) 2023. Compose Cupertino project and open source contributors.
  -
  -  Licensed under the Apache License, Version 2.0 (the "License");
  -  you may not use this file except in compliance with the License.
  -  You may obtain a copy of the License at
  -
  -      http://www.apache.org/licenses/LICENSE-2.0
  -
  -  Unless required by applicable law or agreed to in writing, software
  -  distributed under the License is distributed on an "AS IS" BASIS,
  -  WITHOUT WARRANTIES OR CONDITIONS OF ANY KIND, either express or implied.
  -  See the License for the specific language governing permissions and
  -  limitations under the License.
  -
  -->

<svg version="1.1" xmlns="http://www.w3.org/2000/svg" xmlns:xlink="http://www.w3.org/1999/xlink" width="33.457" height="22.3711">
 <g>
  <path d="M3.25781 22.3359L30.1992 22.3359C32.2031 22.3359 33.457 21.1055 33.457 19.125L33.457 15.3867C33.457 13.4062 32.2031 12.1758 30.1992 12.1758L3.25781 12.1758C1.25391 12.1758 0 13.4062 0 15.3867L0 19.125C0 21.1055 1.25391 22.3359 3.25781 22.3359ZM4.44141 17.6016C3.9375 17.6016 3.58594 17.25 3.58594 16.7578C3.58594 16.2539 3.9375 15.8906 4.44141 15.8906L8.54297 15.8906C9.03516 15.8906 9.39844 16.2539 9.39844 16.7578C9.39844 17.25 9.03516 17.6016 8.54297 17.6016ZM14.6602 18.8203C13.793 18.8203 13.0781 18.1055 13.0781 17.2383C13.0781 16.3945 13.793 15.6797 14.6602 15.6797C15.5156 15.6797 16.2305 16.3945 16.2305 17.2383C16.2305 18.1055 15.5156 18.8203 14.6602 18.8203ZM19.2305 18.8203C18.3633 18.8203 17.6484 18.1055 17.6484 17.2383C17.6484 16.3945 18.3633 15.6797 19.2305 15.6797C20.0859 15.6797 20.8008 16.3945 20.8008 17.2383C20.8008 18.1055 20.0859 18.8203 19.2305 18.8203ZM23.8008 18.8203C22.9336 18.8203 22.2188 18.1055 22.2188 17.2383C22.2188 16.3945 22.9336 15.6797 23.8008 15.6797C24.6562 15.6797 25.3711 16.3945 25.3711 17.2383C25.3711 18.1055 24.6562 18.8203 23.8008 18.8203ZM28.3711 18.8203C27.5039 18.8203 26.7891 18.1055 26.7891 17.25C26.7891 16.3945 27.5039 15.6797 28.3711 15.6797C29.2383 15.6797 29.9531 16.3945 29.9531 17.25C29.9531 18.1055 29.2383 18.8203 28.3711 18.8203Z" fill="#000000"/>
  <path d="M16.7227 7.33594C15.5039 7.33594 14.2852 7.69922 13.4648 8.32031C13.1016 8.57812 12.9961 9.07031 13.2422 9.43359C13.5352 9.83203 14.0273 9.90234 14.4492 9.60938C15.0234 9.17578 15.8672 8.92969 16.7227 8.92969C17.6133 8.92969 18.457 9.17578 19.0078 9.60938C19.4297 9.91406 19.9336 9.84375 20.2266 9.43359C20.4609 9.07031 20.3555 8.58984 20.0039 8.32031C19.1367 7.69922 17.918 7.33594 16.7227 7.33594Z" fill="#000000"/>
  <path d="M16.7227 3.66797C14.7773 3.66797 12.8789 4.24219 11.4141 5.28516C11.0391 5.56641 10.9453 6.03516 11.2148 6.41016C11.4609 6.76172 11.9531 6.84375 12.3633 6.5625C13.5117 5.74219 15.0938 5.26172 16.7227 5.26172C18.3633 5.26172 19.9453 5.74219 21.0938 6.5625C21.5039 6.84375 21.9961 6.76172 22.2422 6.41016C22.5117 6.03516 22.418 5.56641 22.0312 5.28516C20.6133 4.24219 18.7148 3.66797 16.7227 3.66797Z" fill="#000000"/>
  <path d="M16.7227 0C14.0391 0 11.4258 0.796875 9.375 2.22656C8.98828 2.51953 8.89453 3 9.14062 3.36328C9.42188 3.73828 9.90234 3.79688 10.2891 3.51562C12.0586 2.28516 14.3672 1.57031 16.7227 1.57031C19.1133 1.57031 21.3984 2.27344 23.168 3.51562C23.5547 3.79688 24.0352 3.73828 24.3047 3.36328C24.5742 2.98828 24.4805 2.50781 24.082 2.22656C22.0078 0.796875 19.4062 0 16.7227 0Z" fill="#000000"/>
 </g>
</svg>
