<?xml version="1.0" encoding="UTF-8"?>

<!--
  - Copyright (c) 2023. Compose Cupertino project and open source contributors.
  -
  -  Licensed under the Apache License, Version 2.0 (the "License");
  -  you may not use this file except in compliance with the License.
  -  You may obtain a copy of the License at
  -
  -      http://www.apache.org/licenses/LICENSE-2.0
  -
  -  Unless required by applicable law or agreed to in writing, software
  -  distributed under the License is distributed on an "AS IS" BASIS,
  -  WITHOUT WARRANTIES OR CONDITIONS OF ANY KIND, either express or implied.
  -  See the License for the specific language governing permissions and
  -  limitations under the License.
  -
  -->

<svg version="1.1" xmlns="http://www.w3.org/2000/svg" xmlns:xlink="http://www.w3.org/1999/xlink" width="17.1328" height="27.9258">
  <path d="M8.55469 27.9141C12.7969 27.9141 15.3516 26.8594 15.3516 25.0547C15.3516 23.4023 13.1484 22.3711 9.44531 22.2188L9.44531 17.1914C14.0977 16.8633 17.1328 13.8867 17.1328 9.52734C17.1328 7.11328 16.1133 3.9375 14.6367 1.67578C13.9453 0.597656 11.707 0 8.56641 0C5.40234 0 3.17578 0.597656 2.47266 1.67578C0.996094 3.9375 0 7.11328 0 9.52734C0 13.8984 3.03516 16.8633 7.6875 17.1914L7.6875 22.2188C3.97266 22.3594 1.76953 23.4023 1.76953 25.0547C1.76953 26.8594 4.3125 27.9141 8.55469 27.9141ZM8.56641 2.89453C5.89453 2.89453 4.10156 2.58984 4.10156 2.23828C4.10156 1.89844 5.90625 1.60547 8.56641 1.60547C11.2266 1.60547 13.0312 1.89844 13.0312 2.23828C13.0312 2.58984 11.2266 2.89453 8.56641 2.89453Z" fill="#000000"/>
</svg>
