<?xml version="1.0" encoding="UTF-8"?>

<!--
  - Copyright (c) 2023. Compose Cupertino project and open source contributors.
  -
  -  Licensed under the Apache License, Version 2.0 (the "License");
  -  you may not use this file except in compliance with the License.
  -  You may obtain a copy of the License at
  -
  -      http://www.apache.org/licenses/LICENSE-2.0
  -
  -  Unless required by applicable law or agreed to in writing, software
  -  distributed under the License is distributed on an "AS IS" BASIS,
  -  WITHOUT WARRANTIES OR CONDITIONS OF ANY KIND, either express or implied.
  -  See the License for the specific language governing permissions and
  -  limitations under the License.
  -
  -->

<svg version="1.1" xmlns="http://www.w3.org/2000/svg" xmlns:xlink="http://www.w3.org/1999/xlink" width="26.6221" height="26.6338">
 <g>
  <path d="M9.37354 18.2329C8.83448 18.2329 8.4126 17.7993 8.4126 17.2485C8.4126 16.9907 8.50635 16.7564 8.69385 16.5689L11.9399 13.3228L8.69385 10.0649C8.50635 9.88916 8.4126 9.64307 8.4126 9.38526C8.4126 8.8462 8.83448 8.43604 9.37354 8.43604C9.64307 8.43604 9.85401 8.52979 10.0415 8.70557L13.311 11.9634L16.604 8.69385C16.8032 8.49463 17.0142 8.4126 17.272 8.4126C17.811 8.4126 18.2446 8.83448 18.2446 9.36182C18.2446 9.63135 18.1626 9.85401 17.9634 10.0532L14.6939 13.3228L17.9517 16.5571C18.1392 16.7446 18.2329 16.979 18.2329 17.2485C18.2329 17.7993 17.7993 18.2329 17.2485 18.2329C16.979 18.2329 16.7329 18.1392 16.5571 17.9517L13.311 14.6939L10.0767 17.9517C9.88916 18.1392 9.64307 18.2329 9.37354 18.2329Z M6.20948 23.4712L8.75245 23.4712C8.98682 23.4712 9.1626 23.5415 9.33838 23.7173L11.1431 25.5103C12.6196 26.9985 13.9907 26.9868 15.4673 25.5103L17.272 23.7173C17.4595 23.5415 17.6235 23.4712 17.8696 23.4712L20.4009 23.4712C22.4985 23.4712 23.4712 22.5103 23.4712 20.4009L23.4712 17.8696C23.4712 17.6235 23.5415 17.4595 23.7173 17.272L25.5103 15.4673C26.9985 13.9907 26.9868 12.6196 25.5103 11.1431L23.7173 9.33838C23.5415 9.1626 23.4712 8.98682 23.4712 8.75245L23.4712 6.20948C23.4712 4.12354 22.5103 3.13916 20.4009 3.13916L17.8696 3.13916C17.6235 3.13916 17.4595 3.08057 17.272 2.90479L15.4673 1.11182C13.9907-0.376461 12.6196-0.364742 11.1431 1.11182L9.33838 2.90479C9.1626 3.08057 8.98682 3.13916 8.75245 3.13916L6.20948 3.13916C4.11182 3.13916 3.13916 4.1001 3.13916 6.20948L3.13916 8.75245C3.13916 8.98682 3.08057 9.1626 2.90479 9.33838L1.11182 11.1431C-0.376461 12.6196-0.364742 13.9907 1.11182 15.4673L2.90479 17.272C3.08057 17.4595 3.13916 17.6235 3.13916 17.8696L3.13916 20.4009C3.13916 22.4985 4.11182 23.4712 6.20948 23.4712Z" fill="#000000"/>
 </g>
</svg>
