<?xml version="1.0" encoding="UTF-8"?>

<!--
  - Copyright (c) 2023. Compose Cupertino project and open source contributors.
  -
  -  Licensed under the Apache License, Version 2.0 (the "License");
  -  you may not use this file except in compliance with the License.
  -  You may obtain a copy of the License at
  -
  -      http://www.apache.org/licenses/LICENSE-2.0
  -
  -  Unless required by applicable law or agreed to in writing, software
  -  distributed under the License is distributed on an "AS IS" BASIS,
  -  WITHOUT WARRANTIES OR CONDITIONS OF ANY KIND, either express or implied.
  -  See the License for the specific language governing permissions and
  -  limitations under the License.
  -
  -->

<svg version="1.1" xmlns="http://www.w3.org/2000/svg" xmlns:xlink="http://www.w3.org/1999/xlink" width="21.3281" height="21.3398">
  <path d="M19.957 1.38281C18.7617 0.1875 17.0742 0 15.0703 0L6.22266 0C4.25391 0 2.56641 0.1875 1.37109 1.38281C0.175781 2.57812 0 4.25391 0 6.21094L0 15.0703C0 17.0742 0.175781 18.7383 1.37109 19.9336C2.56641 21.1289 4.25391 21.3164 6.24609 21.3164L15.0703 21.3164C17.0742 21.3164 18.7617 21.1289 19.957 19.9336C21.1523 18.7383 21.3281 17.0742 21.3281 15.0703L21.3281 6.24609C21.3281 4.24219 21.1523 2.56641 19.957 1.38281Z M6.72656 15.5859C6.19922 15.5859 5.76562 15.1523 5.76562 14.6133C5.76562 14.3555 5.85938 14.1094 6.04688 13.9336L9.30469 10.6758L6.04688 7.42969C5.85938 7.24219 5.76562 7.00781 5.76562 6.75C5.76562 6.19922 6.19922 5.78906 6.72656 5.78906C6.99609 5.78906 7.21875 5.88281 7.39453 6.05859L10.6641 9.31641L13.957 6.04688C14.1562 5.84766 14.3789 5.76562 14.6367 5.76562C15.1641 5.76562 15.5977 6.1875 15.5977 6.72656C15.5977 6.99609 15.5156 7.20703 15.3164 7.41797L12.0469 10.6758L15.3047 13.9219C15.4922 14.0977 15.5859 14.3438 15.5859 14.6133C15.5859 15.1523 15.1523 15.5859 14.6133 15.5859C14.3438 15.5859 14.0859 15.4922 13.9102 15.3047L10.6641 12.0469L7.42969 15.3047C7.25391 15.4922 6.99609 15.5859 6.72656 15.5859Z" />
</svg>
