<?xml version="1.0" encoding="UTF-8"?>

<!--
  - Copyright (c) 2023. Compose Cupertino project and open source contributors.
  -
  -  Licensed under the Apache License, Version 2.0 (the "License");
  -  you may not use this file except in compliance with the License.
  -  You may obtain a copy of the License at
  -
  -      http://www.apache.org/licenses/LICENSE-2.0
  -
  -  Unless required by applicable law or agreed to in writing, software
  -  distributed under the License is distributed on an "AS IS" BASIS,
  -  WITHOUT WARRANTIES OR CONDITIONS OF ANY KIND, either express or implied.
  -  See the License for the specific language governing permissions and
  -  limitations under the License.
  -
  -->

<svg version="1.1" xmlns="http://www.w3.org/2000/svg" xmlns:xlink="http://www.w3.org/1999/xlink" width="19.1719" height="23.6602">
  <path d="M9.58594 23.6602C9.77344 23.6602 10.0664 23.5898 10.3594 23.4375C17.0273 19.9453 19.1719 18.1992 19.1719 13.9922L19.1719 5.15625C19.1719 3.94922 18.6562 3.5625 17.6719 3.15234C16.3008 2.58984 11.918 0.996094 10.5586 0.527344C10.2422 0.421875 9.91406 0.363281 9.58594 0.363281C9.25781 0.363281 8.92969 0.433594 8.625 0.527344C7.25391 0.972656 2.87109 2.60156 1.5 3.15234C0.527344 3.55078 0 3.94922 0 5.15625L0 13.9922C0 18.1992 2.26172 19.7461 8.8125 23.4375C9.11719 23.6016 9.39844 23.6602 9.58594 23.6602Z M5.64844 16.5C5.10938 16.5 4.6875 16.0664 4.6875 15.5156C4.6875 15.2578 4.78125 15.0234 4.96875 14.8359L8.21484 11.5898L4.96875 8.33203C4.78125 8.15625 4.6875 7.91016 4.6875 7.65234C4.6875 7.11328 5.10938 6.70312 5.64844 6.70312C5.91797 6.70312 6.12891 6.79688 6.31641 6.97266L9.58594 10.2305L12.8789 6.96094C13.0781 6.76172 13.2891 6.67969 13.5469 6.67969C14.0859 6.67969 14.5195 7.10156 14.5195 7.62891C14.5195 7.89844 14.4375 8.12109 14.2383 8.32031L10.9688 11.5898L14.2266 14.8242C14.4141 15.0117 14.5078 15.2461 14.5078 15.5156C14.5078 16.0664 14.0742 16.5 13.5234 16.5C13.2539 16.5 13.0078 16.4062 12.832 16.2188L9.58594 12.9609L6.35156 16.2188C6.16406 16.4062 5.91797 16.5 5.64844 16.5Z"/>
</svg>
