<?xml version="1.0" encoding="UTF-8"?>

<!--
  - Copyright (c) 2023. Compose Cupertino project and open source contributors.
  -
  -  Licensed under the Apache License, Version 2.0 (the "License");
  -  you may not use this file except in compliance with the License.
  -  You may obtain a copy of the License at
  -
  -      http://www.apache.org/licenses/LICENSE-2.0
  -
  -  Unless required by applicable law or agreed to in writing, software
  -  distributed under the License is distributed on an "AS IS" BASIS,
  -  WITHOUT WARRANTIES OR CONDITIONS OF ANY KIND, either express or implied.
  -  See the License for the specific language governing permissions and
  -  limitations under the License.
  -
  -->

<svg version="1.1" xmlns="http://www.w3.org/2000/svg" xmlns:xlink="http://www.w3.org/1999/xlink" width="23.9062" height="23.918">
  <path d="M11.9531 23.9062C18.4922 23.9062 23.9062 18.4805 23.9062 11.9531C23.9062 5.41406 18.4805 0 11.9414 0C5.41406 0 0 5.41406 0 11.9531C0 18.4805 5.42578 23.9062 11.9531 23.9062Z M8.01562 16.875C7.47656 16.875 7.05469 16.4414 7.05469 15.9023C7.05469 15.6445 7.14844 15.3984 7.33594 15.2227L10.582 11.9648L7.33594 8.71875C7.14844 8.53125 7.05469 8.29688 7.05469 8.03906C7.05469 7.48828 7.47656 7.07812 8.01562 7.07812C8.28516 7.07812 8.49609 7.17188 8.68359 7.34766L11.9531 10.6055L15.2461 7.33594C15.4453 7.13672 15.6562 7.05469 15.9141 7.05469C16.4531 7.05469 16.8867 7.47656 16.8867 8.01562C16.8867 8.28516 16.8047 8.49609 16.5938 8.70703L13.3359 11.9648L16.582 15.2109C16.7812 15.3867 16.875 15.6328 16.875 15.9023C16.875 16.4414 16.4414 16.875 15.8906 16.875C15.6211 16.875 15.375 16.7812 15.1992 16.5938L11.9531 13.3359L8.71875 16.5938C8.53125 16.7812 8.28516 16.875 8.01562 16.875Z"/>
</svg>
