<?xml version="1.0" encoding="UTF-8"?>

<!--
  - Copyright (c) 2023. Compose Cupertino project and open source contributors.
  -
  -  Licensed under the Apache License, Version 2.0 (the "License");
  -  you may not use this file except in compliance with the License.
  -  You may obtain a copy of the License at
  -
  -      http://www.apache.org/licenses/LICENSE-2.0
  -
  -  Unless required by applicable law or agreed to in writing, software
  -  distributed under the License is distributed on an "AS IS" BASIS,
  -  WITHOUT WARRANTIES OR CONDITIONS OF ANY KIND, either express or implied.
  -  See the License for the specific language governing permissions and
  -  limitations under the License.
  -
  -->

<svg version="1.1" xmlns="http://www.w3.org/2000/svg" xmlns:xlink="http://www.w3.org/1999/xlink" width="29.4609" height="22.2773">
  <path d="M23.1562 20.3672C26.6953 20.3672 29.4609 17.7773 29.4609 14.5547C29.4609 12.0938 28.043 9.96094 25.7578 9C25.7812 3.77344 22.0195 0 17.2266 0C14.0508 0 11.7891 1.69922 10.3828 3.75C7.5 2.90625 4.35938 5.09766 4.30078 8.37891C1.65234 8.80078 0 11.168 0 14.0273C0 17.4727 3.01172 20.3672 7.01953 20.3672Z M12.3164 15.3633C11.9414 15.7266 11.4141 15.6562 11.0625 15.3281C10.7227 15.0117 10.6758 14.4727 11.0391 14.0977L13.4414 11.6719L11.0391 9.24609C10.6758 8.87109 10.7461 8.35547 11.0742 8.00391C11.3906 7.66406 11.9414 7.61719 12.3164 7.98047L14.7305 10.3828L17.1445 7.98047C17.5312 7.60547 18.0586 7.6875 18.3984 8.00391C18.75 8.33203 18.7969 8.87109 18.4336 9.24609L16.0195 11.6719L18.4336 14.0977C18.7969 14.4727 18.7148 14.9883 18.3984 15.3398C18.0703 15.6797 17.5312 15.7266 17.1445 15.3633L14.7305 12.9609Z"/>
</svg>
