<?xml version="1.0" encoding="UTF-8"?>

<!--
  - Copyright (c) 2023. Compose Cupertino project and open source contributors.
  -
  -  Licensed under the Apache License, Version 2.0 (the "License");
  -  you may not use this file except in compliance with the License.
  -  You may obtain a copy of the License at
  -
  -      http://www.apache.org/licenses/LICENSE-2.0
  -
  -  Unless required by applicable law or agreed to in writing, software
  -  distributed under the License is distributed on an "AS IS" BASIS,
  -  WITHOUT WARRANTIES OR CONDITIONS OF ANY KIND, either express or implied.
  -  See the License for the specific language governing permissions and
  -  limitations under the License.
  -
  -->

<svg version="1.1" xmlns="http://www.w3.org/2000/svg" xmlns:xlink="http://www.w3.org/1999/xlink" width="27.8789" height="21.5977">
 <g>
  <path d="M7.78125 21.5977L20.0859 21.5977C22.3945 21.5977 23.3203 20.3789 23.6602 18.1055L25.3242 6.94922L2.54297 6.94922L4.21875 18.1055C4.55859 20.3906 5.48438 21.5977 7.78125 21.5977ZM1.99219 5.35547L25.8867 5.35547C27.2109 5.35547 27.8789 4.57031 27.8789 3.25781L27.8789 2.12109C27.8789 0.808594 27.2109 0.0234375 25.8867 0.0234375L1.99219 0.0234375C0.738281 0.0234375 0 0.808594 0 2.12109L0 3.25781C0 4.57031 0.667969 5.35547 1.99219 5.35547Z M10.4414 18.3516C9.92578 18.3516 9.49219 17.9062 9.49219 17.4023C9.49219 17.1328 9.62109 16.9219 9.78516 16.7578L12.6211 13.8984L9.78516 11.0273C9.62109 10.8633 9.49219 10.6523 9.49219 10.3828C9.49219 9.87891 9.92578 9.46875 10.4414 9.46875C10.6875 9.46875 10.875 9.58594 11.0742 9.75L13.9336 12.5977L16.8164 9.73828C17.0156 9.5625 17.2148 9.44531 17.4492 9.44531C17.9766 9.44531 18.3984 9.86719 18.3984 10.3828C18.3984 10.6406 18.2812 10.8164 18.1055 11.0156L15.2578 13.8984L18.0938 16.7461C18.2578 16.9219 18.3867 17.1211 18.3867 17.4023C18.3867 17.9062 17.9531 18.3516 17.4492 18.3516C17.1797 18.3516 16.9688 18.2109 16.793 18.0586L13.9336 15.1992L11.0859 18.0586C10.9102 18.2227 10.6875 18.3516 10.4414 18.3516Z"/>
 </g>
</svg>
