<?xml version="1.0" encoding="UTF-8"?>

<svg version="1.1" xmlns="http://www.w3.org/2000/svg" xmlns:xlink="http://www.w3.org/1999/xlink" width="20.8008" height="26.3086">
  <path d="M0 20.3203C0 22.7461 1.23047 23.9531 3.67969 23.9531L17.4727 23.9531C19.5703 23.9531 20.8008 22.7344 20.8008 20.3203L20.8008 8.19141C20.8008 5.77734 19.5586 4.55859 17.1211 4.55859L15.2461 4.55859C15.1875 2.09766 13.043 0 10.3945 0C7.74609 0 5.61328 2.09766 5.54297 4.55859L3.67969 4.55859C1.23047 4.55859 0 5.76562 0 8.19141ZM7.42969 4.55859C7.48828 3.03516 8.74219 1.78125 10.3945 1.78125C12.0469 1.78125 13.3125 3.03516 13.3594 4.55859Z" fill="#000000"/>
</svg>
