<?xml version="1.0" encoding="UTF-8"?>

<!--
  - Copyright (c) 2023. Compose Cupertino project and open source contributors.
  -
  -  Licensed under the Apache License, Version 2.0 (the "License");
  -  you may not use this file except in compliance with the License.
  -  You may obtain a copy of the License at
  -
  -      http://www.apache.org/licenses/LICENSE-2.0
  -
  -  Unless required by applicable law or agreed to in writing, software
  -  distributed under the License is distributed on an "AS IS" BASIS,
  -  WITHOUT WARRANTIES OR CONDITIONS OF ANY KIND, either express or implied.
  -  See the License for the specific language governing permissions and
  -  limitations under the License.
  -
  -->

<svg version="1.1" xmlns="http://www.w3.org/2000/svg" xmlns:xlink="http://www.w3.org/1999/xlink" width="29.2969" height="24.2227">
 <g>
  <path d="M3.01172 20.25L26.2852 20.25C28.2656 20.25 29.2969 19.2305 29.2969 17.2383L29.2969 3.80859C29.2969 1.82812 28.2656 0.808594 26.2852 0.808594L3.01172 0.808594C1.03125 0.808594 0 1.82812 0 3.80859L0 17.2383C0 19.2305 1.03125 20.25 3.01172 20.25ZM3.04688 18.3633C2.27344 18.3633 1.88672 17.9766 1.88672 17.2148L1.88672 3.84375C1.88672 3.07031 2.27344 2.69531 3.04688 2.69531L26.25 2.69531C27.0234 2.69531 27.4102 3.07031 27.4102 3.84375L27.4102 17.2148C27.4102 17.9766 27.0234 18.3633 26.25 18.3633ZM8.75391 24.2227L20.543 24.2227C21.0586 24.2227 21.4922 23.8008 21.4922 23.2734C21.4922 22.7461 21.0586 22.3242 20.543 22.3242L8.75391 22.3242C8.23828 22.3242 7.80469 22.7461 7.80469 23.2734C7.80469 23.8008 8.23828 24.2227 8.75391 24.2227Z" fill="#000000"/>
  <path d="M11.2266 15.6797C11.7539 15.6797 12.0469 15.3516 12.0469 14.7656L12.0469 13.582L12.8906 13.582C13.3242 13.582 13.6172 13.3008 13.6172 12.8672C13.6172 12.4453 13.3359 12.1523 12.8906 12.1523L12.0469 12.1523L12.0469 6.51562C12.0469 5.83594 11.5195 5.36719 10.7344 5.36719C9.97266 5.36719 9.50391 5.63672 9.07031 6.30469C7.93359 8.02734 6.53906 10.0547 5.63672 11.5547C5.41406 11.9062 5.33203 12.1875 5.33203 12.5039C5.33203 13.1484 5.77734 13.582 6.48047 13.582L10.4414 13.582L10.4414 14.7656C10.4414 15.3398 10.7344 15.6797 11.2266 15.6797ZM10.4414 12.1523L6.94922 12.1523L6.94922 12.082C7.78125 10.6289 9.21094 8.51953 10.3477 6.78516L10.4414 6.78516ZM15.9141 15.6211C16.4414 15.6211 16.7461 15.293 16.7461 14.707L16.7461 12.375L18.1523 10.8984L21.4102 15.2227C21.6328 15.5039 21.8555 15.6211 22.1367 15.6211C22.582 15.6211 22.9102 15.3047 22.9102 14.8594C22.9102 14.6484 22.8164 14.4258 22.6758 14.2266L19.3242 9.87891L22.4062 6.70312C22.582 6.53906 22.6641 6.36328 22.6641 6.12891C22.6641 5.74219 22.3477 5.44922 21.9375 5.44922C21.668 5.44922 21.5156 5.54297 21.2695 5.78906L16.875 10.2422L16.7461 10.2422L16.7461 6.375C16.7461 5.77734 16.4414 5.44922 15.9141 5.44922C15.4102 5.44922 15.1172 5.78906 15.1172 6.375L15.1172 14.707C15.1172 15.2812 15.4102 15.6211 15.9141 15.6211Z" fill="#000000"/>
 </g>
</svg>
