<?xml version="1.0" encoding="UTF-8"?>

<!--
  - Copyright (c) 2023. Compose Cupertino project and open source contributors.
  -
  -  Licensed under the Apache License, Version 2.0 (the "License");
  -  you may not use this file except in compliance with the License.
  -  You may obtain a copy of the License at
  -
  -      http://www.apache.org/licenses/LICENSE-2.0
  -
  -  Unless required by applicable law or agreed to in writing, software
  -  distributed under the License is distributed on an "AS IS" BASIS,
  -  WITHOUT WARRANTIES OR CONDITIONS OF ANY KIND, either express or implied.
  -  See the License for the specific language governing permissions and
  -  limitations under the License.
  -
  -->

<svg version="1.1" xmlns="http://www.w3.org/2000/svg" xmlns:xlink="http://www.w3.org/1999/xlink" width="23.2969" height="22.8633">
  <path d="M5.15625 9.50391C7.89844 9.52734 10.2539 7.37109 10.2188 4.73438C10.1836 2.13281 7.89844 0 5.15625 0C2.63672 0 1.08984 1.55859 0.351562 2.64844C0.105469 3.02344 0 3.43359 0 3.89062L0 5.61328C0 6.07031 0.117188 6.48047 0.351562 6.85547C1.06641 7.94531 2.63672 9.46875 5.15625 9.50391ZM2.13281 6.60938C1.82812 6.60938 1.58203 6.36328 1.58203 6.04688L1.58203 3.44531C1.58203 3.12891 1.82812 2.88281 2.13281 2.88281C2.46094 2.88281 2.69531 3.12891 2.69531 3.44531L2.69531 6.04688C2.69531 6.36328 2.46094 6.60938 2.13281 6.60938ZM5.75391 18.9609L9.05859 18.9609L9.05859 9.32812C8.13281 10.043 6.98438 10.5117 5.75391 10.6055ZM6.90234 22.8281L7.89844 22.8281C8.61328 22.8281 9.05859 22.4766 9.05859 21.7852L9.05859 20.1328L5.75391 20.1328L5.75391 21.7852C5.75391 22.4766 6.21094 22.8281 6.90234 22.8281ZM18.1406 9.50391C20.6602 9.46875 22.2422 7.94531 22.9453 6.85547C23.1797 6.48047 23.2969 6.07031 23.2969 5.61328L23.2969 3.89062C23.2969 3.43359 23.1914 3.02344 22.9453 2.64844C22.2188 1.55859 20.6602 0 18.1406 0C15.3984 0 13.1133 2.13281 13.0781 4.73438C13.043 7.37109 15.3984 9.52734 18.1406 9.50391ZM21.1641 6.60938C20.8359 6.60938 20.6016 6.36328 20.6016 6.04688L20.6016 3.44531C20.6016 3.12891 20.8359 2.88281 21.1641 2.88281C21.4688 2.88281 21.7148 3.12891 21.7148 3.44531L21.7148 6.04688C21.7148 6.36328 21.4688 6.60938 21.1641 6.60938ZM17.543 18.9609L17.543 10.6055C16.3125 10.5117 15.1641 10.043 14.2383 9.32812L14.2383 18.9609ZM16.3945 22.8281C17.0859 22.8281 17.543 22.4766 17.543 21.7852L17.543 20.1328L14.2383 20.1328L14.2383 21.7852C14.2383 22.4766 14.6836 22.8281 15.3984 22.8281Z" fill="#000000"/>
</svg>
