<?xml version="1.0" encoding="UTF-8"?>

<!--
  - Copyright (c) 2023. Compose Cupertino project and open source contributors.
  -
  -  Licensed under the Apache License, Version 2.0 (the "License");
  -  you may not use this file except in compliance with the License.
  -  You may obtain a copy of the License at
  -
  -      http://www.apache.org/licenses/LICENSE-2.0
  -
  -  Unless required by applicable law or agreed to in writing, software
  -  distributed under the License is distributed on an "AS IS" BASIS,
  -  WITHOUT WARRANTIES OR CONDITIONS OF ANY KIND, either express or implied.
  -  See the License for the specific language governing permissions and
  -  limitations under the License.
  -
  -->

<svg version="1.1" xmlns="http://www.w3.org/2000/svg" xmlns:xlink="http://www.w3.org/1999/xlink" width="26.4141" height="23.8711">
  <path d="M26.4141 11.9297C26.4023 10.5586 24.5391 9.5625 22.3008 9.5625L17.5781 9.5625C16.9219 9.5625 16.6758 9.45703 16.2891 9.01172L8.41406 0.421875C8.16797 0.140625 7.86328 0 7.51172 0L6.15234 0C5.84766 0 5.67188 0.269531 5.82422 0.597656L9.87891 9.5625L3.92578 10.2422L1.80469 6.35156C1.65234 6.05859 1.39453 5.92969 1.00781 5.92969L0.503906 5.92969C0.199219 5.92969 0 6.12891 0 6.43359L0 17.4258C0 17.7305 0.199219 17.918 0.503906 17.918L1.00781 17.918C1.39453 17.918 1.65234 17.7891 1.80469 17.5078L3.92578 13.6172L9.87891 14.2969L5.82422 23.2617C5.67188 23.5781 5.84766 23.8594 6.15234 23.8594L7.51172 23.8594C7.86328 23.8594 8.16797 23.707 8.41406 23.4375L16.2891 14.8359C16.6758 14.4023 16.9219 14.2969 17.5781 14.2969L22.3008 14.2969C24.5391 14.2969 26.4023 13.2891 26.4141 11.9297Z"/>
</svg>
