<?xml version="1.0" encoding="UTF-8"?>

<!--
  - Copyright (c) 2023. Compose Cupertino project and open source contributors.
  -
  -  Licensed under the Apache License, Version 2.0 (the "License");
  -  you may not use this file except in compliance with the License.
  -  You may obtain a copy of the License at
  -
  -      http://www.apache.org/licenses/LICENSE-2.0
  -
  -  Unless required by applicable law or agreed to in writing, software
  -  distributed under the License is distributed on an "AS IS" BASIS,
  -  WITHOUT WARRANTIES OR CONDITIONS OF ANY KIND, either express or implied.
  -  See the License for the specific language governing permissions and
  -  limitations under the License.
  -
  -->

<svg version="1.1" xmlns="http://www.w3.org/2000/svg" xmlns:xlink="http://www.w3.org/1999/xlink" width="32.168" height="20.7313">
 <g>
  <path d="M10.582 0.000408646C8.57812-0.0230289 6.33984 0.961346 4.85156 3.04728C4.62891 3.32853 4.42969 3.64494 4.21875 4.11369C6.76172 4.57072 8.82422 6.82072 8.82422 9.32853C8.82422 10.0434 8.68359 10.6996 8.4375 11.2856C9.98438 11.0629 10.9453 10.7113 11.8242 10.2192C13.7578 9.10588 15.2812 7.30119 15.2812 4.71135C15.2812 1.72306 13.1719 0.0238461 10.582 0.000408646ZM11.0391 5.02775C10.8047 5.22697 10.4414 5.20353 10.2422 4.95744C10.043 4.71135 10.0781 4.35978 10.3242 4.16056L12.0469 2.70744C12.2812 2.50822 12.6328 2.54338 12.8203 2.78947C13.0312 3.02385 13.0195 3.37541 12.7734 3.57463ZM8.89453 20.7309L9.82031 20.7309C10.5352 20.7309 11.0156 20.3559 11.0156 19.6293L11.0156 11.9067C10.0195 12.2699 8.90625 12.4926 7.6875 12.5746L7.6875 19.6293C7.6875 20.3559 8.16797 20.7309 8.89453 20.7309ZM21.5742 0.000408646C18.9961 0.0238461 16.8867 1.72306 16.8867 4.71135C16.8867 7.30119 18.4102 9.10588 20.332 10.2192C21.2227 10.7113 22.1836 11.0629 23.7305 11.2856C23.4727 10.6996 23.3438 10.0434 23.3438 9.32853C23.3438 6.82072 25.3945 4.57072 27.9375 4.11369C27.7383 3.64494 27.5273 3.32853 27.3164 3.04728C25.8164 0.961346 23.5898-0.0230289 21.5742 0.000408646ZM21.1289 5.02775L19.3945 3.57463C19.1484 3.37541 19.1367 3.02385 19.3359 2.78947C19.5234 2.54338 19.8867 2.50822 20.1211 2.70744L21.8438 4.16056C22.0898 4.35978 22.1133 4.71135 21.9141 4.95744C21.7148 5.20353 21.3633 5.22697 21.1289 5.02775ZM23.2617 20.7309C24 20.7309 24.4688 20.3559 24.4688 19.6293L24.4688 12.5746C23.25 12.4926 22.1484 12.2699 21.1523 11.9067L21.1523 19.6293C21.1523 20.3559 21.6211 20.7309 22.3477 20.7309Z" fill="#000000"/>
  <path d="M4.26562 12.727C6.08203 12.727 7.69922 11.602 7.69922 9.32853C7.69922 7.30119 5.78906 5.15666 3.30469 5.15666C1.20703 5.15666 0 6.82072 0 8.51994C0 11.0629 2.16797 12.727 4.26562 12.727ZM3.67969 10.9457C3.35156 11.2387 2.78906 10.9457 2.09766 10.1137C1.41797 9.28166 1.24219 8.70744 1.57031 8.42619C1.91016 8.1215 2.46094 8.40275 3.16406 9.2465C3.83203 10.102 4.00781 10.6645 3.67969 10.9457ZM27.9023 12.727C30 12.727 32.168 11.0629 32.168 8.51994C32.168 6.82072 30.9609 5.15666 28.8633 5.15666C26.3789 5.15666 24.4688 7.30119 24.4688 9.32853C24.4688 11.602 26.0859 12.727 27.9023 12.727ZM28.4883 10.9457C28.1602 10.6645 28.3359 10.102 29.0039 9.2465C29.707 8.40275 30.2578 8.1215 30.5977 8.42619C30.9258 8.70744 30.75 9.28166 30.0703 10.1137C29.3789 10.9457 28.8164 11.2387 28.4883 10.9457Z" fill="#000000"/>
 </g>
</svg>
