<?xml version="1.0" encoding="UTF-8"?>

<!--
  - Copyright (c) 2023. Compose Cupertino project and open source contributors.
  -
  -  Licensed under the Apache License, Version 2.0 (the "License");
  -  you may not use this file except in compliance with the License.
  -  You may obtain a copy of the License at
  -
  -      http://www.apache.org/licenses/LICENSE-2.0
  -
  -  Unless required by applicable law or agreed to in writing, software
  -  distributed under the License is distributed on an "AS IS" BASIS,
  -  WITHOUT WARRANTIES OR CONDITIONS OF ANY KIND, either express or implied.
  -  See the License for the specific language governing permissions and
  -  limitations under the License.
  -
  -->

<svg version="1.1" xmlns="http://www.w3.org/2000/svg" xmlns:xlink="http://www.w3.org/1999/xlink" width="24.1247" height="26.0742">
 <g>
  <path d="M0.747874 15.0352L1.81428 15.0352L1.81428 12.6797L0.747874 12.6797ZM6.29084 26.0742C7.75569 26.0742 8.43537 24.7266 7.6385 23.2969L3.25569 15.5508C2.88069 14.9062 2.31819 14.6133 1.61506 14.6133C0.513499 14.6133-0.0841569 15.4336 0.00959315 16.5234C0.243968 17.918 1.18147 20.1445 2.31819 21.9727C4.11116 25.0078 5.15412 26.0742 6.29084 26.0742ZM23.3768 15.0352L23.3768 12.6797L22.3104 12.6797L22.3104 15.0352ZM17.8338 26.0742C18.9705 26.0742 20.0135 25.0078 21.8065 21.9727C22.9315 20.1445 23.8807 17.918 24.1151 16.5234C24.2088 15.4336 23.6112 14.6133 22.5096 14.6133C21.8065 14.6133 21.244 14.9062 20.869 15.5508L16.4862 23.2969C15.6776 24.7266 16.369 26.0742 17.8338 26.0742ZM0.349437 12.4805C0.349437 13.0312 0.700999 13.3711 1.25178 13.3711C1.80256 13.3711 2.13069 13.0312 2.13069 12.4805C2.18928 6.16406 5.951 2.15625 12.0565 2.15625C18.1737 2.15625 21.9237 6.16406 21.9822 12.4805C21.9822 13.0312 22.3221 13.3711 22.8729 13.3711C23.4237 13.3711 23.7635 13.0312 23.7635 12.4805C23.7635 5.29688 19.3455 0.363281 12.0565 0.363281C4.76741 0.363281 0.349437 5.29688 0.349437 12.4805Z" fill="#000000"/>
  <path d="M9.79475 23.7539C10.5447 23.3203 10.744 22.3477 10.2635 21.5156L6.31428 14.543C5.83381 13.7109 4.89631 13.4062 4.15803 13.8398C3.701 14.0859 3.59553 14.5195 3.82991 14.9297L8.68147 23.4609C8.92756 23.8828 9.34944 24 9.79475 23.7539ZM14.3299 23.7539C14.7752 24 15.1971 23.8828 15.4315 23.4609L20.283 14.9297C20.5291 14.5195 20.4237 14.0859 19.9666 13.8398C19.2166 13.4062 18.2908 13.7109 17.7987 14.543L13.8494 21.5156C13.369 22.3477 13.5799 23.3203 14.3299 23.7539ZM5.21272 6.23438C7.13459 5.19141 9.38459 4.67578 12.0565 4.67578C14.7401 4.67578 16.9901 5.19141 18.9002 6.23438C17.3651 4.26562 15.1737 3.28125 12.0565 3.28125C8.951 3.28125 6.75959 4.26562 5.21272 6.23438Z" fill="#000000"/>
 </g>
</svg>
