<?xml version="1.0" encoding="UTF-8"?>

<!--
  - Copyright (c) 2023. Compose Cupertino project and open source contributors.
  -
  -  Licensed under the Apache License, Version 2.0 (the "License");
  -  you may not use this file except in compliance with the License.
  -  You may obtain a copy of the License at
  -
  -      http://www.apache.org/licenses/LICENSE-2.0
  -
  -  Unless required by applicable law or agreed to in writing, software
  -  distributed under the License is distributed on an "AS IS" BASIS,
  -  WITHOUT WARRANTIES OR CONDITIONS OF ANY KIND, either express or implied.
  -  See the License for the specific language governing permissions and
  -  limitations under the License.
  -
  -->

<svg version="1.1" xmlns="http://www.w3.org/2000/svg" xmlns:xlink="http://www.w3.org/1999/xlink" width="30.1366" height="20.9648">
 <g>
  <path d="M2.29615 20.9648L27.5852 20.9648C28.1008 20.9648 28.5344 20.5312 28.5344 20.0156C28.5344 19.5 28.1008 19.0781 27.5852 19.0781L2.29615 19.0781C1.78053 19.0781 1.35865 19.5 1.35865 20.0156C1.35865 20.5312 1.78053 20.9648 2.29615 20.9648Z" fill="#000000"/>
  <path d="M6.58522 13.1133L26.6829 7.75781C28.9329 7.14844 30.6204 5.49609 30.011 3.82031C29.4485 2.29688 27.1868 1.92188 25.1712 2.60156L18.1282 5.01562C17.636 5.17969 17.2844 5.16797 16.7219 4.89844L6.90162 0.257812C6.58522 0.117188 6.23365 0.0820312 5.91725 0.175781L5.10865 0.421875C4.8274 0.515625 4.73365 0.84375 4.99147 1.11328L11.7063 8.23828L11.929 7.125L5.99928 9.16406L8.29615 9.23438L1.42897 6.79688C1.11256 6.69141 0.831309 6.73828 0.526622 7.01953L0.186778 7.33594C-0.0475971 7.54688-0.0593158 7.82812 0.139903 8.03906L4.25318 12.6562C4.79225 13.2656 5.58912 13.3828 6.58522 13.1133Z" fill="#000000"/>
 </g>
</svg>
