<?xml version="1.0" encoding="UTF-8"?>

<!--
  - Copyright (c) 2023. Compose Cupertino project and open source contributors.
  -
  -  Licensed under the Apache License, Version 2.0 (the "License");
  -  you may not use this file except in compliance with the License.
  -  You may obtain a copy of the License at
  -
  -      http://www.apache.org/licenses/LICENSE-2.0
  -
  -  Unless required by applicable law or agreed to in writing, software
  -  distributed under the License is distributed on an "AS IS" BASIS,
  -  WITHOUT WARRANTIES OR CONDITIONS OF ANY KIND, either express or implied.
  -  See the License for the specific language governing permissions and
  -  limitations under the License.
  -
  -->

<svg version="1.1" xmlns="http://www.w3.org/2000/svg" xmlns:xlink="http://www.w3.org/1999/xlink" width="28.0226" height="27.199">
 <g>
  <path d="M1.36066 24.0819L26.6497 24.0819C27.1653 24.0819 27.5872 23.6483 27.5872 23.1327C27.5872 22.6171 27.1653 22.1952 26.6497 22.1952L1.36066 22.1952C0.845032 22.1952 0.423157 22.6171 0.423157 23.1327C0.423157 23.6483 0.845032 24.0819 1.36066 24.0819Z" fill="#000000"/>
  <path d="M3.07159 11.7421L23.1458 17.1444C25.3958 17.7538 27.681 17.1561 27.9974 15.41C28.2552 13.8046 26.4974 12.3514 24.3997 11.9413L17.0989 10.4882C16.595 10.3944 16.3021 10.1952 15.9505 9.69128L9.75128 0.773309C9.55206 0.492059 9.28253 0.304559 8.95441 0.222528L8.12238 0.0115902C7.82941-0.0587223 7.60675 0.19909 7.68878 0.562371L9.93878 10.0897L10.6771 9.22253L4.52472 8.0155L6.49347 9.23425L1.75909 3.703C1.52472 3.43347 1.27863 3.35143 0.856751 3.44518L0.411438 3.53893C0.0950319 3.59753-0.0455931 3.84362 0.0130006 4.12487L1.25519 10.1952C1.41925 10.9686 2.06378 11.4725 3.07159 11.7421Z" fill="#000000"/>
 </g>
</svg>
