<?xml version="1.0" encoding="UTF-8"?>

<!--
  - Copyright (c) 2023. Compose Cupertino project and open source contributors.
  -
  -  Licensed under the Apache License, Version 2.0 (the "License");
  -  you may not use this file except in compliance with the License.
  -  You may obtain a copy of the License at
  -
  -      http://www.apache.org/licenses/LICENSE-2.0
  -
  -  Unless required by applicable law or agreed to in writing, software
  -  distributed under the License is distributed on an "AS IS" BASIS,
  -  WITHOUT WARRANTIES OR CONDITIONS OF ANY KIND, either express or implied.
  -  See the License for the specific language governing permissions and
  -  limitations under the License.
  -
  -->

<svg version="1.1" xmlns="http://www.w3.org/2000/svg" xmlns:xlink="http://www.w3.org/1999/xlink" width="24" height="24.0117">
 <g>
  <path d="M4.41797 22.6406C4.06641 23.0391 4.27734 23.6016 4.82812 23.6016L19.1484 23.6016C19.6992 23.6016 19.9102 23.0273 19.5703 22.6406L12.4922 14.6367C12.2227 14.332 11.7539 14.332 11.4844 14.6367Z" fill="#000000"/>
  <path d="M6.82031 12C6.82031 13.2422 7.25391 14.3789 8.00391 15.2812C8.13281 15.4453 8.29688 15.4453 8.44922 15.2812L9 14.707C9.14062 14.5664 9.12891 14.4141 9.02344 14.25C8.54297 13.6289 8.26172 12.832 8.26172 12C8.26172 9.96094 9.96094 8.26172 12 8.26172C14.0391 8.26172 15.7383 9.96094 15.7383 12C15.7383 12.832 15.457 13.6289 14.9766 14.25C14.8594 14.4141 14.8477 14.5664 15 14.7188L15.5508 15.2812C15.6914 15.4453 15.8672 15.4453 15.9961 15.2812C16.7461 14.3789 17.1797 13.2422 17.1797 12C17.1797 9.16406 14.8477 6.82031 12 6.82031C9.15234 6.82031 6.82031 9.16406 6.82031 12Z" fill="#000000"/>
  <path d="M3.41016 12C3.41016 14.2734 4.28906 16.3242 5.74219 17.8711C5.89453 18.0352 6.05859 18.0234 6.19922 17.8711L6.72656 17.2852C6.87891 17.1328 6.85547 16.9922 6.71484 16.8281C5.55469 15.5391 4.85156 13.8516 4.85156 12C4.85156 8.08594 8.07422 4.85156 12 4.85156C15.9258 4.85156 19.1484 8.08594 19.1484 12C19.1484 13.8516 18.4453 15.5391 17.2852 16.8164C17.1445 16.9805 17.1211 17.1211 17.2734 17.2734L17.8125 17.8711C17.9414 18.0234 18.1172 18.0352 18.2578 17.8711C19.6992 16.3242 20.5898 14.2734 20.5898 12C20.5898 7.28906 16.7344 3.41016 12 3.41016C7.26562 3.41016 3.41016 7.28906 3.41016 12Z" fill="#000000"/>
  <path d="M0 12C0 15.293 1.33594 18.2695 3.48047 20.4375C3.63281 20.5898 3.79688 20.5898 3.92578 20.4258L4.45312 19.8281C4.59375 19.6758 4.58203 19.5352 4.44141 19.3828C2.58984 17.4727 1.42969 14.8594 1.42969 12C1.42969 6.23438 6.21094 1.44141 12 1.44141C17.7891 1.44141 22.5703 6.23438 22.5703 12C22.5703 14.8594 21.4102 17.4727 19.5586 19.3828C19.418 19.5352 19.4062 19.6758 19.5469 19.8281L20.0742 20.4258C20.2031 20.5898 20.3672 20.5898 20.5195 20.4375C22.6641 18.2812 24 15.293 24 12C24 5.42578 18.6211 0 12 0C5.37891 0 0 5.42578 0 12Z" fill="#000000"/>
 </g>
</svg>
