<?xml version="1.0" encoding="UTF-8"?>

<!--
  - Copyright (c) 2023. Compose Cupertino project and open source contributors.
  -
  -  Licensed under the Apache License, Version 2.0 (the "License");
  -  you may not use this file except in compliance with the License.
  -  You may obtain a copy of the License at
  -
  -      http://www.apache.org/licenses/LICENSE-2.0
  -
  -  Unless required by applicable law or agreed to in writing, software
  -  distributed under the License is distributed on an "AS IS" BASIS,
  -  WITHOUT WARRANTIES OR CONDITIONS OF ANY KIND, either express or implied.
  -  See the License for the specific language governing permissions and
  -  limitations under the License.
  -
  -->

<svg version="1.1" xmlns="http://www.w3.org/2000/svg" xmlns:xlink="http://www.w3.org/1999/xlink" width="28.6055" height="20.6133">
  <path d="M7.88672 0.0820312C4.30078 0.0585938 0 3.65625 0 7.13672C0 10.0195 2.88281 12.293 5.21484 12.2812C8.46094 12.2695 12.9375 8.50781 12.9375 5.36719C12.9375 2.33203 10.5938 0.105469 7.88672 0.0820312ZM4.10156 10.6641C3.44531 10.6641 2.4375 9.84375 1.80469 8.82422C1.18359 7.78125 1.20703 6.97266 1.86328 6.97266C2.50781 6.97266 3.52734 7.78125 4.14844 8.82422C4.76953 9.84375 4.74609 10.6641 4.10156 10.6641ZM7.37109 5.4375C6.99609 4.91016 7.125 4.20703 7.64062 3.84375L9.26953 2.66016C9.77344 2.28516 10.4883 2.41406 10.8398 2.94141C11.2383 3.45703 11.1211 4.13672 10.6055 4.52344L8.97656 5.68359C8.4375 6.07031 7.72266 5.95312 7.37109 5.4375ZM8.46094 20.6133L9.92578 20.6133C10.6523 20.6133 11.1328 20.2383 11.1328 19.5234L11.1328 10.7695C9.98438 11.8008 8.625 12.6211 7.25391 13.0547L7.25391 19.5234C7.25391 20.2383 7.72266 20.6133 8.46094 20.6133ZM20.7188 0.0820312C18.0117 0.105469 15.668 2.33203 15.668 5.36719C15.668 8.50781 20.1445 12.2695 23.3906 12.2812C25.7227 12.293 28.6055 10.0195 28.6055 7.13672C28.6055 3.65625 24.3047 0.0585938 20.7188 0.0820312ZM24.5039 10.6641C23.8594 10.6641 23.8359 9.84375 24.457 8.82422C25.0781 7.78125 26.0977 6.97266 26.7422 6.97266C27.3984 6.97266 27.4219 7.78125 26.8008 8.82422C26.1797 9.84375 25.1602 10.6641 24.5039 10.6641ZM21.2344 5.4375C20.8828 5.95312 20.168 6.07031 19.6406 5.68359L18.0117 4.52344C17.4844 4.13672 17.3672 3.45703 17.7656 2.94141C18.1172 2.41406 18.832 2.28516 19.3359 2.66016L20.9766 3.84375C21.4922 4.20703 21.6094 4.91016 21.2344 5.4375ZM20.1445 20.6133C20.8828 20.6133 21.3516 20.2383 21.3516 19.5234L21.3516 13.0547C19.9805 12.6211 18.6211 11.8008 17.4727 10.7695L17.4727 19.5234C17.4727 20.2383 17.9531 20.6133 18.6797 20.6133Z" fill="#000000"/>
</svg>
