<?xml version="1.0" encoding="UTF-8"?>

<!--
  - Copyright (c) 2023. Compose Cupertino project and open source contributors.
  -
  -  Licensed under the Apache License, Version 2.0 (the "License");
  -  you may not use this file except in compliance with the License.
  -  You may obtain a copy of the License at
  -
  -      http://www.apache.org/licenses/LICENSE-2.0
  -
  -  Unless required by applicable law or agreed to in writing, software
  -  distributed under the License is distributed on an "AS IS" BASIS,
  -  WITHOUT WARRANTIES OR CONDITIONS OF ANY KIND, either express or implied.
  -  See the License for the specific language governing permissions and
  -  limitations under the License.
  -
  -->

<svg version="1.1" xmlns="http://www.w3.org/2000/svg" xmlns:xlink="http://www.w3.org/1999/xlink" width="23.9062" height="23.918">
  <path d="M11.9531 23.9062C18.4922 23.9062 23.9062 18.4805 23.9062 11.9531C23.9062 5.41406 18.4805 0 11.9414 0C5.41406 0 0 5.41406 0 11.9531C0 18.4805 5.42578 23.9062 11.9531 23.9062ZM11.9531 21.8438C6.46875 21.8438 2.07422 17.4375 2.07422 11.9531C2.07422 6.45703 6.45703 2.05078 11.9414 2.05078C17.4258 2.05078 21.8438 6.45703 21.8555 11.9531C21.8672 17.4375 17.4375 21.8438 11.9531 21.8438ZM11.9531 20.7188C16.8164 20.7188 20.7305 16.8047 20.7188 11.9531C20.707 7.08984 16.8047 3.1875 11.9414 3.1875C7.08984 3.1875 3.19922 7.08984 3.19922 11.9531C3.19922 16.8164 7.10156 20.7188 11.9531 20.7188ZM11.9531 19.6523C7.6875 19.6523 4.26562 16.2305 4.26562 11.9531C4.26562 7.67578 7.67578 4.25391 11.9414 4.25391C16.2188 4.25391 19.6406 7.67578 19.6523 11.9531C19.6641 16.2188 16.2305 19.6523 11.9531 19.6523ZM12.0469 15.1172C12.7148 15.1172 12.8555 15.457 13.4414 15.457C14.0156 15.457 14.4023 14.9297 14.7656 14.4141C15.1758 13.8281 15.3398 13.2422 15.3398 13.2188C15.3047 13.207 14.2148 12.7617 14.2148 11.4961C14.2148 10.4062 15.0703 9.92578 15.1172 9.87891C14.5547 9.05859 13.6875 9.04688 13.4414 9.04688C12.7969 9.04688 12.2812 9.43359 11.9414 9.43359C11.5898 9.43359 11.1328 9.05859 10.5703 9.05859C9.51562 9.05859 8.4375 9.9375 8.4375 11.5781C8.4375 12.6211 8.84766 13.6992 9.32812 14.3906C9.75 14.9883 10.1133 15.4688 10.6523 15.4688C11.168 15.4688 11.4023 15.1172 12.0469 15.1172ZM13.1484 8.34375C13.4062 8.02734 13.5938 7.59375 13.5938 7.14844C13.5938 7.08984 13.5938 7.03125 13.582 6.98438C13.1484 6.99609 12.6328 7.26562 12.3281 7.62891C12.0938 7.92188 11.8594 8.34375 11.8594 8.78906C11.8594 8.84766 11.8711 8.91797 11.8711 8.94141C11.9062 8.94141 11.9414 8.95312 11.9883 8.95312C12.375 8.95312 12.8555 8.69531 13.1484 8.34375Z" fill="#000000"/>
</svg>
