<?xml version="1.0" encoding="UTF-8"?>

<!--
  - Copyright (c) 2023. Compose Cupertino project and open source contributors.
  -
  -  Licensed under the Apache License, Version 2.0 (the "License");
  -  you may not use this file except in compliance with the License.
  -  You may obtain a copy of the License at
  -
  -      http://www.apache.org/licenses/LICENSE-2.0
  -
  -  Unless required by applicable law or agreed to in writing, software
  -  distributed under the License is distributed on an "AS IS" BASIS,
  -  WITHOUT WARRANTIES OR CONDITIONS OF ANY KIND, either express or implied.
  -  See the License for the specific language governing permissions and
  -  limitations under the License.
  -
  -->

<svg version="1.1" xmlns="http://www.w3.org/2000/svg" xmlns:xlink="http://www.w3.org/1999/xlink" width="22.4062" height="26.3086">
 <g>
  <path d="M11.2031 24.3047C17.3906 24.3047 22.4062 19.2891 22.4062 13.1016C22.4062 6.91406 17.3906 1.88672 11.2031 1.88672C5.01562 1.88672 0 6.91406 0 13.1016C0 19.2891 5.01562 24.3047 11.2031 24.3047ZM11.2031 22.3008C6.11719 22.3008 2.00391 18.1875 2.00391 13.1016C2.00391 8.02734 6.11719 3.90234 11.2031 3.90234C16.2773 3.90234 20.4023 8.02734 20.4023 13.1016C20.4023 18.1875 16.2773 22.3008 11.2031 22.3008ZM1.58203 4.89844C1.75781 4.89844 1.88672 4.875 2.05078 4.74609L5.97656 1.78125C6.16406 1.64062 6.26953 1.45312 6.26953 1.25391C6.26953 1.00781 6.15234 0.808594 5.95312 0.621094C5.50781 0.222656 4.71094 0 4.00781 0C2.17969 0 0.714844 1.46484 0.714844 3.29297C0.714844 3.72656 0.785156 4.16016 0.914062 4.42969C1.04297 4.72266 1.28906 4.89844 1.58203 4.89844ZM20.8242 4.89844C21.1172 4.89844 21.3633 4.71094 21.5039 4.42969C21.6211 4.17188 21.6914 3.72656 21.6914 3.29297C21.6914 1.46484 20.2383 0 18.3984 0C17.6953 0 16.8984 0.222656 16.4531 0.621094C16.2539 0.808594 16.1367 1.00781 16.1367 1.25391C16.1367 1.45312 16.2422 1.64062 16.4414 1.78125L20.3555 4.74609C20.5312 4.875 20.6484 4.89844 20.8242 4.89844ZM1.40625 23.9648C1.75781 24.3281 2.33203 24.3281 2.69531 23.9531L4.91016 21.75L3.64453 20.4961L1.41797 22.6992C1.05469 23.0508 1.06641 23.625 1.40625 23.9648ZM21 23.9648C21.3516 23.625 21.3516 23.0508 20.9883 22.6992L18.7617 20.4961L17.5078 21.75L19.7109 23.9531C20.0742 24.3281 20.6484 24.3281 21 23.9648Z" fill="#000000"/>
  <path d="M5.87109 14.3906L11.1914 14.3906C11.6484 14.3906 12.0117 14.0391 12.0117 13.582L12.0117 6.48047C12.0117 6.02344 11.6484 5.66016 11.1914 5.66016C10.7344 5.66016 10.3828 6.02344 10.3828 6.48047L10.3828 12.7617L5.87109 12.7617C5.41406 12.7617 5.0625 13.125 5.0625 13.582C5.0625 14.0391 5.41406 14.3906 5.87109 14.3906Z" fill="#000000"/>
 </g>
</svg>
