<?xml version="1.0" encoding="UTF-8"?>

<!--
  - Copyright (c) 2023. Compose Cupertino project and open source contributors.
  -
  -  Licensed under the Apache License, Version 2.0 (the "License");
  -  you may not use this file except in compliance with the License.
  -  You may obtain a copy of the License at
  -
  -      http://www.apache.org/licenses/LICENSE-2.0
  -
  -  Unless required by applicable law or agreed to in writing, software
  -  distributed under the License is distributed on an "AS IS" BASIS,
  -  WITHOUT WARRANTIES OR CONDITIONS OF ANY KIND, either express or implied.
  -  See the License for the specific language governing permissions and
  -  limitations under the License.
  -
  -->

<svg version="1.1" xmlns="http://www.w3.org/2000/svg" xmlns:xlink="http://www.w3.org/1999/xlink" width="24.8789" height="21.9528">
 <g>
  <path d="M10.3359 8.33384C10.3359 9.17759 10.8164 9.90416 11.543 10.2323L11.543 20.7674C11.543 21.3651 11.9062 21.7753 12.4453 21.7753C12.9961 21.7753 13.3359 21.3768 13.3359 20.7674L13.3359 10.2323C14.0508 9.90416 14.543 9.16588 14.543 8.33384C14.543 7.16197 13.6172 6.21275 12.4453 6.21275C11.2617 6.21275 10.3359 7.16197 10.3359 8.33384Z" fill="#000000"/>
  <path d="M4.93359 8.33384C4.93359 10.0565 5.51953 11.662 6.53906 12.9276C6.94922 13.4667 7.65234 13.4549 8.03906 13.0096C8.41406 12.5878 8.26172 12.0604 7.88672 11.5565C7.18359 10.6893 6.84375 9.55259 6.84375 8.33384C6.84375 7.11509 7.21875 6.01353 7.88672 5.11119C8.25 4.59556 8.41406 4.07994 8.03906 3.65806C7.65234 3.21275 6.94922 3.20103 6.53906 3.74009C5.51953 5.00572 4.93359 6.61119 4.93359 8.33384ZM16.8398 13.0096C17.2266 13.4549 17.9297 13.4667 18.3398 12.9276C19.3594 11.662 19.9453 10.0565 19.9453 8.33384C19.9453 6.61119 19.3594 5.00572 18.3398 3.74009C17.9297 3.20103 17.2266 3.21275 16.8398 3.65806C16.4648 4.07994 16.6289 4.59556 16.9922 5.11119C17.6602 6.01353 18.0352 7.11509 18.0352 8.33384C18.0352 9.55259 17.6953 10.6893 16.9922 11.5565C16.6172 12.0604 16.4648 12.5878 16.8398 13.0096Z" fill="#000000"/>
  <path d="M0 8.33384C0 11.369 1.10156 14.1815 3.04688 16.2909C3.49219 16.7831 4.14844 16.7831 4.52344 16.3495C4.89844 15.9276 4.78125 15.3768 4.35938 14.8963C2.78906 13.1503 1.91016 10.8534 1.91016 8.33384C1.91016 5.81431 2.78906 3.51744 4.35938 1.77134C4.78125 1.29088 4.89844 0.740094 4.52344 0.318219C4.14844-0.115375 3.49219-0.115375 3.04688 0.376813C1.10156 2.48619 0 5.29869 0 8.33384ZM20.3555 16.3495C20.7305 16.7831 21.3867 16.7831 21.832 16.2909C23.7773 14.1815 24.8789 11.369 24.8789 8.33384C24.8789 5.29869 23.7773 2.48619 21.832 0.376813C21.3867-0.115375 20.7305-0.115375 20.3555 0.318219C19.9805 0.740094 20.0977 1.29088 20.5195 1.77134C22.0898 3.51744 22.9688 5.81431 22.9688 8.33384C22.9688 10.8534 22.0898 13.1503 20.5195 14.8963C20.0977 15.3768 19.9805 15.9276 20.3555 16.3495Z" fill="#000000"/>
 </g>
</svg>
