<?xml version="1.0" encoding="UTF-8"?>

<!--
  - Copyright (c) 2023. Compose Cupertino project and open source contributors.
  -
  -  Licensed under the Apache License, Version 2.0 (the "License");
  -  you may not use this file except in compliance with the License.
  -  You may obtain a copy of the License at
  -
  -      http://www.apache.org/licenses/LICENSE-2.0
  -
  -  Unless required by applicable law or agreed to in writing, software
  -  distributed under the License is distributed on an "AS IS" BASIS,
  -  WITHOUT WARRANTIES OR CONDITIONS OF ANY KIND, either express or implied.
  -  See the License for the specific language governing permissions and
  -  limitations under the License.
  -
  -->

<svg version="1.1" xmlns="http://www.w3.org/2000/svg" xmlns:xlink="http://www.w3.org/1999/xlink" width="24.8789" height="27.7266">
 <g>
  <path d="M4.52344 19.2363C4.89844 18.8145 4.78125 18.2637 4.35938 17.7832C2.78906 16.0371 1.91016 13.7402 1.91016 11.2207C1.91016 9.14648 2.50781 7.24805 3.58594 5.66602L2.21484 4.29492C0.785156 6.24023 0 8.64258 0 11.2207C0 14.2559 1.10156 17.0684 3.04688 19.1777C3.49219 19.6699 4.14844 19.6699 4.52344 19.2363ZM8.03906 15.8965C8.41406 15.4746 8.26172 14.9473 7.88672 14.4434C7.18359 13.5762 6.84375 12.4395 6.84375 11.2207C6.84375 10.541 6.98438 9.89648 7.23047 9.29883L5.76562 7.83398C5.21484 8.85352 4.93359 10.0137 4.93359 11.2207C4.93359 12.9434 5.51953 14.5488 6.53906 15.8145C6.94922 16.3535 7.65234 16.3418 8.03906 15.8965ZM12.4453 24.6621C12.9961 24.6621 13.3359 24.2637 13.3359 23.6543L13.3359 15.416L11.543 13.623L11.543 23.6543C11.543 24.252 11.9062 24.6621 12.4453 24.6621ZM19.2305 14.3613C19.6992 13.4121 19.9453 12.3457 19.9453 11.2207C19.9453 9.49805 19.3594 7.89258 18.3398 6.62695C17.9297 6.08789 17.2266 6.09961 16.8398 6.54492C16.4648 6.9668 16.6289 7.48242 16.9922 7.99805C17.6602 8.90039 18.0352 10.002 18.0352 11.2207C18.0352 11.8066 17.9414 12.3691 17.7305 12.873ZM22.8164 17.959C24.1406 16.0254 24.8789 13.7051 24.8789 11.2207C24.8789 8.18555 23.7773 5.37305 21.832 3.26367C21.3867 2.77148 20.7305 2.77148 20.3555 3.20508C19.9805 3.62695 20.0977 4.17773 20.5195 4.6582C22.0898 6.4043 22.9688 8.70117 22.9688 11.2207C22.9688 13.2012 22.418 15.0176 21.4219 16.5645Z" fill="#000000"/>
  <path d="M22.6758 22.5645C23.0273 22.916 23.6016 22.916 23.9531 22.5645C24.293 22.2012 24.3047 21.6387 23.9531 21.2871L2.92969 0.263672C2.57812-0.0878906 1.99219-0.0878906 1.64062 0.263672C1.30078 0.603516 1.30078 1.20117 1.64062 1.54102Z" fill="#000000"/>
 </g>
</svg>
