<?xml version="1.0" encoding="UTF-8"?>

<!--
  - Copyright (c) 2023. Compose Cupertino project and open source contributors.
  -
  -  Licensed under the Apache License, Version 2.0 (the "License");
  -  you may not use this file except in compliance with the License.
  -  You may obtain a copy of the License at
  -
  -      http://www.apache.org/licenses/LICENSE-2.0
  -
  -  Unless required by applicable law or agreed to in writing, software
  -  distributed under the License is distributed on an "AS IS" BASIS,
  -  WITHOUT WARRANTIES OR CONDITIONS OF ANY KIND, either express or implied.
  -  See the License for the specific language governing permissions and
  -  limitations under the License.
  -
  -->

<svg version="1.1" xmlns="http://www.w3.org/2000/svg" xmlns:xlink="http://www.w3.org/1999/xlink" width="37.4766" height="25.1133">
 <g>
  <path d="M10.5 17.3086C10.5 19.125 11.2148 20.4609 12.5508 21.1875C13.1836 21.5273 13.5586 21.9609 13.8047 22.7461L14.1797 24C14.3906 24.75 14.918 25.1133 15.7031 25.1133L21.1172 25.1133C21.9375 25.1133 22.418 24.7617 22.6523 24L23.0273 22.7461C23.2734 21.9609 23.6367 21.5273 24.2812 21.1875C25.6055 20.4609 26.3203 19.125 26.3203 17.3086L26.3203 7.82812C26.3203 6.01172 25.6055 4.6875 24.2812 3.94922C23.6367 3.60938 23.2734 3.17578 23.0273 2.40234L22.6523 1.13672C22.4414 0.398438 21.9258 0.0234375 21.1172 0.0234375L15.7031 0.0234375C14.918 0.0234375 14.3906 0.386719 14.1797 1.13672L13.8047 2.40234C13.5703 3.16406 13.1953 3.62109 12.5508 3.94922C11.2266 4.65234 10.5 5.98828 10.5 7.82812ZM12.2109 17.0625L12.2109 8.08594C12.2109 6.33984 13.2305 5.28516 14.9414 5.28516L21.8906 5.28516C23.5898 5.28516 24.6094 6.33984 24.6094 8.08594L24.6094 17.0625C24.6094 18.7969 23.5898 19.8516 21.8906 19.8516L14.9414 19.8516C13.2305 19.8516 12.2109 18.7969 12.2109 17.0625ZM26.0625 11.7422L26.4961 11.7422C27.0938 11.7422 27.4922 11.332 27.4922 10.6641L27.4922 9.08203C27.4922 8.41406 27.0938 8.00391 26.4961 8.00391L26.0625 8.00391Z" fill="#000000"/>
  <path d="M7.80469 17.2266C8.17969 16.8047 8.02734 16.2773 7.65234 15.7734C6.94922 14.8945 6.60938 13.7695 6.60938 12.5508C6.60938 11.332 6.94922 10.1953 7.65234 9.32812C8.02734 8.82422 8.17969 8.29688 7.80469 7.875C7.41797 7.42969 6.71484 7.42969 6.30469 7.95703C5.28516 9.22266 4.69922 10.8281 4.69922 12.5508C4.69922 14.2734 5.28516 15.8789 6.30469 17.1445C6.71484 17.6719 7.41797 17.6602 7.80469 17.2266ZM29.6719 17.2266C30.0586 17.6602 30.7617 17.6719 31.1719 17.1445C32.1914 15.8789 32.7891 14.2734 32.7891 12.5508C32.7891 10.8281 32.1914 9.22266 31.1719 7.95703C30.7617 7.42969 30.0586 7.42969 29.6719 7.875C29.2969 8.29688 29.4609 8.82422 29.8242 9.32812C30.5273 10.1953 30.8789 11.332 30.8789 12.5508C30.8789 13.7695 30.5273 14.8945 29.8242 15.7734C29.4609 16.2773 29.2969 16.8047 29.6719 17.2266Z" fill="#000000"/>
  <path d="M4.52344 20.5664C4.89844 20.1445 4.78125 19.5938 4.35938 19.1133C2.78906 17.3672 1.91016 15.0703 1.91016 12.5508C1.91016 10.0312 2.78906 7.73438 4.35938 5.98828C4.78125 5.50781 4.89844 4.95703 4.52344 4.53516C4.14844 4.08984 3.49219 4.10156 3.04688 4.59375C1.10156 6.70312 0 9.51562 0 12.5508C0 15.5859 1.10156 18.3867 3.04688 20.5078C3.49219 21 4.14844 21 4.52344 20.5664ZM32.9531 20.5664C33.3281 21 33.9844 21 34.4414 20.5078C36.3867 18.3867 37.4766 15.5859 37.4766 12.5508C37.4766 9.51562 36.3867 6.70312 34.4414 4.59375C33.9844 4.10156 33.3281 4.08984 32.9531 4.53516C32.5781 4.95703 32.6953 5.50781 33.1172 5.98828C34.6875 7.73438 35.5664 10.0312 35.5664 12.5508C35.5664 15.0703 34.6875 17.3672 33.1172 19.1133C32.6953 19.5938 32.5781 20.1445 32.9531 20.5664Z" fill="#000000"/>
 </g>
</svg>
