<?xml version="1.0" encoding="UTF-8"?>

<!--
  - Copyright (c) 2023. Compose Cupertino project and open source contributors.
  -
  -  Licensed under the Apache License, Version 2.0 (the "License");
  -  you may not use this file except in compliance with the License.
  -  You may obtain a copy of the License at
  -
  -      http://www.apache.org/licenses/LICENSE-2.0
  -
  -  Unless required by applicable law or agreed to in writing, software
  -  distributed under the License is distributed on an "AS IS" BASIS,
  -  WITHOUT WARRANTIES OR CONDITIONS OF ANY KIND, either express or implied.
  -  See the License for the specific language governing permissions and
  -  limitations under the License.
  -
  -->

<svg version="1.1" xmlns="http://www.w3.org/2000/svg" xmlns:xlink="http://www.w3.org/1999/xlink" width="16.9922" height="25.0898">
 <g>
  <path d="M0 17.2852C0 19.1016 0.714844 20.4375 2.03906 21.1641C2.68359 21.5039 3.05859 21.9375 3.29297 22.7227L3.66797 23.9766C3.89062 24.7266 4.41797 25.0898 5.20312 25.0898L10.6172 25.0898C11.4258 25.0898 11.918 24.7383 12.1406 23.9766L12.5273 22.7227C12.7617 21.9375 13.1367 21.5039 13.7812 21.1641C15.1055 20.4375 15.8203 19.1016 15.8203 17.2852L15.8203 7.80469C15.8203 5.98828 15.1055 4.66406 13.7812 3.92578C13.1367 3.58594 12.7617 3.15234 12.5273 2.37891L12.1406 1.11328C11.9414 0.375 11.4141 0 10.6172 0L5.20312 0C4.41797 0 3.89062 0.363281 3.66797 1.11328L3.29297 2.37891C3.07031 3.14062 2.69531 3.59766 2.03906 3.92578C0.726562 4.62891 0 5.96484 0 7.80469ZM1.71094 17.0391L1.71094 8.0625C1.71094 6.31641 2.73047 5.26172 4.44141 5.26172L11.3789 5.26172C13.0898 5.26172 14.1094 6.31641 14.1094 8.0625L14.1094 17.0391C14.1094 18.7734 13.0898 19.8281 11.3789 19.8281L4.44141 19.8281C2.73047 19.8281 1.71094 18.7734 1.71094 17.0391ZM15.5625 11.7188L15.9844 11.7188C16.5938 11.7188 16.9922 11.3086 16.9922 10.6406L16.9922 9.05859C16.9922 8.39062 16.5938 7.98047 15.9844 7.98047L15.5625 7.98047Z" fill="#000000"/>
  <path d="M4.46484 10.0547C4.18359 10.3828 4.23047 10.8867 4.57031 11.1797L6.97266 13.1953C7.47656 13.6172 7.95703 13.6172 8.4375 13.1953L12.5273 9.62109C12.8555 9.32812 12.8555 8.82422 12.5391 8.49609C12.2344 8.20312 11.7539 8.20312 11.4258 8.49609L7.6875 11.7422L5.56641 9.94922C5.23828 9.69141 4.75781 9.72656 4.46484 10.0547Z" fill="#000000"/>
 </g>
</svg>
