<?xml version="1.0" encoding="UTF-8"?>

<!--
  - Copyright (c) 2023. Compose Cupertino project and open source contributors.
  -
  -  Licensed under the Apache License, Version 2.0 (the "License");
  -  you may not use this file except in compliance with the License.
  -  You may obtain a copy of the License at
  -
  -      http://www.apache.org/licenses/LICENSE-2.0
  -
  -  Unless required by applicable law or agreed to in writing, software
  -  distributed under the License is distributed on an "AS IS" BASIS,
  -  WITHOUT WARRANTIES OR CONDITIONS OF ANY KIND, either express or implied.
  -  See the License for the specific language governing permissions and
  -  limitations under the License.
  -
  -->

<svg version="1.1" xmlns="http://www.w3.org/2000/svg" xmlns:xlink="http://www.w3.org/1999/xlink" width="23.4258" height="21.5977">
  <path d="M5.28516 21.5977L18.1406 21.5977C20.4492 21.5977 21.6797 20.4023 21.6797 18.1055L21.6797 5.58984L19.793 5.58984L19.793 18.1992C19.793 19.2539 19.207 19.8281 18.1641 19.8281L5.26172 19.8281C4.20703 19.8281 3.63281 19.2539 3.63281 18.1992L3.63281 5.58984L1.74609 5.58984L1.74609 18.1055C1.74609 20.4141 2.97656 21.5977 5.28516 21.5977ZM7.85156 11.1914L15.5859 11.1914C16.0781 11.1914 16.4297 10.8516 16.4297 10.3359L16.4297 9.96094C16.4297 9.44531 16.0781 9.11719 15.5859 9.11719L7.85156 9.11719C7.35938 9.11719 7.01953 9.44531 7.01953 9.96094L7.01953 10.3359C7.01953 10.8516 7.35938 11.1914 7.85156 11.1914ZM2.22656 6.46875L21.1992 6.46875C22.6406 6.46875 23.4258 5.56641 23.4258 4.13672L23.4258 2.35547C23.4258 0.925781 22.6406 0.0234375 21.1992 0.0234375L2.22656 0.0234375C0.855469 0.0234375 0 0.925781 0 2.35547L0 4.13672C0 5.56641 0.785156 6.46875 2.22656 6.46875ZM2.70703 4.69922C2.12109 4.69922 1.88672 4.45312 1.88672 3.86719L1.88672 2.625C1.88672 2.03906 2.12109 1.79297 2.70703 1.79297L20.7305 1.79297C21.3164 1.79297 21.5391 2.03906 21.5391 2.625L21.5391 3.86719C21.5391 4.45312 21.3164 4.69922 20.7305 4.69922Z" fill="#000000"/>
</svg>
