<?xml version="1.0" encoding="UTF-8"?>

<!--
  - Copyright (c) 2023. Compose Cupertino project and open source contributors.
  -
  -  Licensed under the Apache License, Version 2.0 (the "License");
  -  you may not use this file except in compliance with the License.
  -  You may obtain a copy of the License at
  -
  -      http://www.apache.org/licenses/LICENSE-2.0
  -
  -  Unless required by applicable law or agreed to in writing, software
  -  distributed under the License is distributed on an "AS IS" BASIS,
  -  WITHOUT WARRANTIES OR CONDITIONS OF ANY KIND, either express or implied.
  -  See the License for the specific language governing permissions and
  -  limitations under the License.
  -
  -->

<svg version="1.1" xmlns="http://www.w3.org/2000/svg" xmlns:xlink="http://www.w3.org/1999/xlink" width="29.4609" height="22.2773">
 <g>
  <path d="M23.1562 20.3672C26.6953 20.3672 29.4609 17.7773 29.4609 14.5547C29.4609 12.0938 28.043 9.96094 25.7578 9C25.7812 3.77344 22.0195 0 17.2266 0C14.0508 0 11.7891 1.69922 10.3828 3.75C7.5 2.90625 4.35938 5.09766 4.30078 8.37891C1.65234 8.80078 0 11.168 0 14.0273C0 17.4727 3.01172 20.3672 7.01953 20.3672ZM23.1562 18.4805L7.01953 18.4805C4.06641 18.4805 1.88672 16.418 1.88672 14.0273C1.88672 11.6836 3.30469 9.82031 5.78906 9.82031C5.95312 9.82031 6.01172 9.73828 6.01172 9.58594C6.01172 5.97656 8.61328 4.91016 11.0156 5.69531C11.1562 5.74219 11.2383 5.70703 11.3086 5.57812C12.4453 3.55078 14.1914 1.88672 17.2266 1.88672C21.0703 1.88672 23.7305 4.93359 23.9297 8.41406C23.9648 8.95312 23.9297 9.58594 23.8828 10.1367C23.8711 10.2891 23.9297 10.3711 24.0703 10.4062C26.2031 10.875 27.5742 12.4336 27.5742 14.5547C27.5742 16.7344 25.6523 18.4805 23.1562 18.4805Z" fill="#000000"/>
  <path d="M19.6992 11.625C19.6992 9.02344 17.5664 6.99609 15.1758 6.99609C15.082 6.99609 14.9766 7.00781 14.9062 7.01953L15.6328 6.25781C15.75 6.14062 15.832 5.95312 15.832 5.77734C15.832 5.40234 15.5391 5.08594 15.1641 5.08594C14.9766 5.08594 14.7891 5.16797 14.6719 5.30859L12.6445 7.37109C12.3867 7.62891 12.3867 8.09766 12.6445 8.35547L14.6953 10.4062C14.8125 10.5234 14.9883 10.5938 15.1641 10.5938C15.5391 10.5938 15.832 10.3008 15.832 9.92578C15.832 9.73828 15.75 9.57422 15.6211 9.44531L14.6016 8.4375C14.707 8.41406 14.8477 8.40234 14.9766 8.40234C16.793 8.40234 18.2461 9.85547 18.2461 11.6602C18.2461 13.4766 16.793 14.9414 14.9766 14.9414C13.1719 14.9414 11.7188 13.4766 11.7188 11.6602C11.7188 11.2734 11.3906 10.9453 10.9922 10.9453C10.5938 10.9453 10.2656 11.2734 10.2656 11.6602C10.2656 14.2852 12.3633 16.3945 14.9766 16.3945C17.6016 16.3945 19.6992 14.2852 19.6992 11.625Z" fill="#000000"/>
 </g>
</svg>
