<?xml version="1.0" encoding="UTF-8"?>

<!--
  - Copyright (c) 2023. Compose Cupertino project and open source contributors.
  -
  -  Licensed under the Apache License, Version 2.0 (the "License");
  -  you may not use this file except in compliance with the License.
  -  You may obtain a copy of the License at
  -
  -      http://www.apache.org/licenses/LICENSE-2.0
  -
  -  Unless required by applicable law or agreed to in writing, software
  -  distributed under the License is distributed on an "AS IS" BASIS,
  -  WITHOUT WARRANTIES OR CONDITIONS OF ANY KIND, either express or implied.
  -  See the License for the specific language governing permissions and
  -  limitations under the License.
  -
  -->

<svg version="1.1" xmlns="http://www.w3.org/2000/svg" xmlns:xlink="http://www.w3.org/1999/xlink" width="20.707" height="28.043">
  <path d="M0 14.8594C0 20.6133 4.61719 25.2305 10.3594 25.2305C16.1016 25.2305 20.707 20.6133 20.707 14.8594C20.707 9.11719 16.1016 4.51172 10.3594 4.51172C9.63281 4.51172 8.94141 4.59375 8.33203 4.71094L11.4492 1.62891C11.625 1.44141 11.707 1.20703 11.707 0.960938C11.707 0.421875 11.3086 0 10.793 0C10.5 0 10.2656 0.09375 10.1016 0.28125L5.27344 5.17969C5.08594 5.36719 4.98047 5.625 4.98047 5.88281C4.98047 6.15234 5.07422 6.38672 5.27344 6.58594L10.1016 11.4375C10.2773 11.6133 10.5 11.707 10.7812 11.707C11.3086 11.707 11.707 11.3086 11.707 10.7695C11.707 10.5234 11.625 10.2891 11.4375 10.1016L7.94531 6.63281C8.625 6.46875 9.45703 6.39844 10.3594 6.39844C15.0586 6.39844 18.8203 10.1602 18.8203 14.8594C18.8203 19.5703 15.0586 23.3438 10.3594 23.3438C5.66016 23.3438 1.88672 19.5703 1.88672 14.8594C1.88672 14.2969 1.53516 13.8867 0.972656 13.8867C0.398438 13.8867 0 14.2969 0 14.8594Z" fill="#000000"/>
</svg>
