<?xml version="1.0" encoding="UTF-8"?>

<!--
  - Copyright (c) 2023. Compose Cupertino project and open source contributors.
  -
  -  Licensed under the Apache License, Version 2.0 (the "License");
  -  you may not use this file except in compliance with the License.
  -  You may obtain a copy of the License at
  -
  -      http://www.apache.org/licenses/LICENSE-2.0
  -
  -  Unless required by applicable law or agreed to in writing, software
  -  distributed under the License is distributed on an "AS IS" BASIS,
  -  WITHOUT WARRANTIES OR CONDITIONS OF ANY KIND, either express or implied.
  -  See the License for the specific language governing permissions and
  -  limitations under the License.
  -
  -->

<svg version="1.1" xmlns="http://www.w3.org/2000/svg" xmlns:xlink="http://www.w3.org/1999/xlink" width="28.7812" height="23.0977">
 <g>
  <path d="M3.67969 22.3477L25.1016 22.3477C27.5391 22.3477 28.7812 21.1289 28.7812 18.7148L28.7812 6.44531C28.7812 4.03125 27.5391 2.82422 25.1016 2.82422L21.75 2.82422C20.8242 2.82422 20.543 2.63672 20.0156 2.05078L19.0781 0.996094C18.4922 0.351562 17.8945 0 16.6875 0L12.0117 0C10.8047 0 10.207 0.351562 9.62109 0.996094L8.68359 2.05078C8.15625 2.625 7.86328 2.82422 6.94922 2.82422L3.67969 2.82422C1.23047 2.82422 0 4.03125 0 6.44531L0 18.7148C0 21.1289 1.23047 22.3477 3.67969 22.3477ZM3.70312 20.4609C2.55469 20.4609 1.88672 19.8398 1.88672 18.6211L1.88672 6.55078C1.88672 5.33203 2.55469 4.71094 3.70312 4.71094L7.41797 4.71094C8.47266 4.71094 9.04688 4.51172 9.63281 3.85547L10.5469 2.82422C11.2148 2.07422 11.5664 1.88672 12.5977 1.88672L16.1016 1.88672C17.1328 1.88672 17.4844 2.07422 18.1523 2.82422L19.0664 3.85547C19.6523 4.51172 20.2266 4.71094 21.2812 4.71094L25.0664 4.71094C26.2266 4.71094 26.8945 5.33203 26.8945 6.55078L26.8945 18.6211C26.8945 19.8398 26.2266 20.4609 25.0664 20.4609Z" fill="#000000"/>
  <path d="M6.50391 12.0117C6.22266 12.4219 6.32812 12.9141 6.85547 12.9141L8.05078 12.9141C8.61328 16.0664 11.168 18.2461 14.4141 18.2461C15.832 18.2461 17.25 17.7539 18.2461 16.9336C18.7852 16.5117 18.9258 15.9141 18.5156 15.4922C18.1172 15.0703 17.6133 15.1406 17.1562 15.4688C16.3359 16.1133 15.5156 16.4648 14.4141 16.4648C12.1523 16.4648 10.2656 14.9414 9.75 12.9141L10.957 12.9141C11.4844 12.9141 11.6133 12.4219 11.3203 12.0117L9.46875 9.45703C9.17578 9.03516 8.64844 9 8.32031 9.45703ZM10.2891 8.27344C10.6758 8.69531 11.1914 8.63672 11.6367 8.29688C12.457 7.64062 13.2891 7.3125 14.3906 7.3125C16.6523 7.3125 18.5273 8.83594 19.043 10.8516L17.7656 10.8516C17.25 10.8516 17.1211 11.3555 17.4141 11.7539L19.2539 14.3203C19.5586 14.7422 20.0859 14.7773 20.4141 14.3203L22.2305 11.7539C22.5117 11.3438 22.4062 10.8516 21.8789 10.8516L20.7422 10.8516C20.1797 7.69922 17.625 5.51953 14.3906 5.51953C12.9727 5.51953 11.543 6.02344 10.5586 6.84375C10.0195 7.26562 9.87891 7.85156 10.2891 8.27344Z" fill="#000000"/>
 </g>
</svg>
