<?xml version="1.0" encoding="UTF-8"?>

<!--
  - Copyright (c) 2023. Compose Cupertino project and open source contributors.
  -
  -  Licensed under the Apache License, Version 2.0 (the "License");
  -  you may not use this file except in compliance with the License.
  -  You may obtain a copy of the License at
  -
  -      http://www.apache.org/licenses/LICENSE-2.0
  -
  -  Unless required by applicable law or agreed to in writing, software
  -  distributed under the License is distributed on an "AS IS" BASIS,
  -  WITHOUT WARRANTIES OR CONDITIONS OF ANY KIND, either express or implied.
  -  See the License for the specific language governing permissions and
  -  limitations under the License.
  -
  -->

<svg version="1.1" xmlns="http://www.w3.org/2000/svg" xmlns:xlink="http://www.w3.org/1999/xlink" width="24.5039" height="27.9318">
  <path d="M6.64453 18.3194C7.13672 18.2022 7.41797 17.7335 7.27734 17.2413L6.29297 13.3389C6.1875 12.9522 6.02344 12.6827 5.71875 12.5069C5.41406 12.3194 5.10938 12.3077 4.71094 12.4249L0.855469 13.5147C0.339844 13.6553 0.0820312 14.1358 0.222656 14.6046C0.351562 15.0968 0.832031 15.3897 1.32422 15.2257L4.73438 14.2178L5.55469 17.6749C5.66016 18.1788 6.16406 18.4483 6.64453 18.3194ZM3.23438 24.8702L9.51562 24.8702C10.0664 24.8702 10.4766 24.4835 10.4766 23.9561C10.4766 23.4288 10.0664 23.0303 9.51562 23.0303L3.24609 23.0303C2.4375 23.0303 1.89844 22.3624 1.89844 21.6358C1.89844 21.4249 1.93359 21.1671 2.0625 20.9444L6.12891 13.6671L4.53516 12.7296L0.433594 20.0421C0.152344 20.5577 0 21.1085 0 21.6358C0 23.4522 1.24219 24.8702 3.23438 24.8702ZM17.6953 12.4483L19.2891 11.5225L15.0352 3.91706C14.4375 2.83894 13.3477 2.28816 12.2578 2.28816C11.1562 2.28816 10.0781 2.85066 9.46875 3.91706L6.23438 9.69441C5.92969 10.2218 6.09375 10.7257 6.55078 10.9952C7.01953 11.253 7.57031 11.0889 7.83984 10.6202L11.0742 4.81941C11.3438 4.35066 11.8008 4.15144 12.2578 4.15144C12.7148 4.15144 13.1602 4.35066 13.418 4.81941ZM17.8594 12.7296C18.2578 12.835 18.5625 12.835 18.8672 12.6475C19.1719 12.46 19.3359 12.2139 19.4414 11.8155L20.4141 7.91316C20.5547 7.42097 20.2852 6.95222 19.793 6.83503C19.3125 6.70613 18.8086 6.97566 18.7031 7.47956L17.8828 10.9366L14.4609 9.92878C13.9805 9.77644 13.5 10.0577 13.3594 10.5499C13.2305 11.0186 13.4883 11.4991 13.9922 11.6397ZM12.9727 24.8702L21.2695 24.8702C23.2617 24.8702 24.5039 23.4522 24.5039 21.6358C24.5039 21.1085 24.3633 20.5694 24.0703 20.0421L20.9648 14.4991C20.6953 13.9952 20.1445 13.878 19.6992 14.1475C19.2422 14.4171 19.0898 14.9678 19.3477 15.4366L22.4297 20.9444C22.5586 21.1671 22.6172 21.4249 22.6172 21.6358C22.6172 22.3624 22.0547 23.0303 21.2461 23.0303L12.9727 23.0303ZM15.5039 27.6593C15.8672 28.0343 16.418 28.0108 16.7578 27.6593C17.1211 27.3194 17.1211 26.7569 16.7461 26.3936L14.168 23.9561L16.7461 21.5186C17.1211 21.1553 17.1211 20.5928 16.7578 20.253C16.418 19.8897 15.8672 19.878 15.5039 20.253L12.6211 23.0421C12.3281 23.3233 12.1992 23.6046 12.1992 23.9561C12.1992 24.3077 12.3281 24.5772 12.6211 24.8585Z" fill="#000000"/>
</svg>
