<?xml version="1.0" encoding="UTF-8"?>

<!--
  - Copyright (c) 2023. Compose Cupertino project and open source contributors.
  -
  -  Licensed under the Apache License, Version 2.0 (the "License");
  -  you may not use this file except in compliance with the License.
  -  You may obtain a copy of the License at
  -
  -      http://www.apache.org/licenses/LICENSE-2.0
  -
  -  Unless required by applicable law or agreed to in writing, software
  -  distributed under the License is distributed on an "AS IS" BASIS,
  -  WITHOUT WARRANTIES OR CONDITIONS OF ANY KIND, either express or implied.
  -  See the License for the specific language governing permissions and
  -  limitations under the License.
  -
  -->

<svg version="1.1" xmlns="http://www.w3.org/2000/svg" xmlns:xlink="http://www.w3.org/1999/xlink" width="27.4219" height="22.0342">
  <path d="M6.24609 0.358901L0.328125 6.39406C0.128906 6.60499 0 6.90968 0 7.16749C0 7.78859 0.421875 8.21046 1.03125 8.21046C1.33594 8.21046 1.57031 8.10499 1.76953 7.90578L4.20703 5.38624L6.09375 3.20656L5.97656 5.91359L5.97656 20.9722C5.97656 21.5933 6.41016 22.0269 7.03125 22.0269C7.64062 22.0269 8.07422 21.5933 8.07422 20.9722L8.07422 5.91359L7.96875 3.20656L9.84375 5.38624L12.293 7.90578C12.4922 8.10499 12.7148 8.21046 13.0195 8.21046C13.6289 8.21046 14.0508 7.78859 14.0508 7.16749C14.0508 6.90968 13.9336 6.60499 13.7227 6.39406L7.81641 0.358901C7.38281-0.0981306 6.69141-0.121568 6.24609 0.358901ZM21.1875 21.687L27.0938 15.6284C27.3047 15.4292 27.4219 15.1245 27.4219 14.855C27.4219 14.2339 27 13.8237 26.3906 13.8237C26.0859 13.8237 25.8633 13.9175 25.6641 14.1167L23.2266 16.6362L21.3398 18.8277L21.4453 16.1206L21.4453 1.06203C21.4453 0.452651 21.0117 0.00733812 20.4023 0.00733812C19.7812 0.00733812 19.3477 0.452651 19.3477 1.06203L19.3477 16.1206L19.4648 18.8277L17.5781 16.6362L15.1406 14.1167C14.9414 13.9175 14.707 13.8237 14.4141 13.8237C13.8047 13.8237 13.3711 14.2339 13.3711 14.855C13.3711 15.1245 13.5 15.4292 13.7109 15.6284L19.6172 21.687C20.0508 22.1441 20.7305 22.1558 21.1875 21.687Z" fill="#000000"/>
</svg>
