<?xml version="1.0" encoding="UTF-8"?>

<!--
  - Copyright (c) 2023. Compose Cupertino project and open source contributors.
  -
  -  Licensed under the Apache License, Version 2.0 (the "License");
  -  you may not use this file except in compliance with the License.
  -  You may obtain a copy of the License at
  -
  -      http://www.apache.org/licenses/LICENSE-2.0
  -
  -  Unless required by applicable law or agreed to in writing, software
  -  distributed under the License is distributed on an "AS IS" BASIS,
  -  WITHOUT WARRANTIES OR CONDITIONS OF ANY KIND, either express or implied.
  -  See the License for the specific language governing permissions and
  -  limitations under the License.
  -
  -->

<svg version="1.1" xmlns="http://www.w3.org/2000/svg" xmlns:xlink="http://www.w3.org/1999/xlink" width="21.9961" height="18.5273">
  <path d="M1.10156 18.5273C1.71094 18.5273 2.15625 18.1055 2.15625 17.4844C2.15625 17.0742 2.12109 16.6875 2.12109 16.1367C2.12109 11.7891 3.63281 10.0195 7.93359 10.0195L16.0195 10.0195L18.9023 9.84375L14.9414 13.4531L12.3398 16.1016C12.1641 16.2891 12.0586 16.5703 12.0586 16.8516C12.0586 17.4375 12.5039 17.8594 13.0898 17.8594C13.3594 17.8594 13.6172 17.7539 13.8516 17.5312L21.6328 9.76172C21.8789 9.52734 21.9961 9.25781 21.9961 8.96484C21.9961 8.68359 21.8789 8.40234 21.6328 8.17969L13.875 0.433594C13.6172 0.175781 13.3594 0.0820312 13.0898 0.0820312C12.5039 0.0820312 12.0586 0.503906 12.0586 1.08984C12.0586 1.37109 12.1523 1.64062 12.3398 1.82812L14.9414 4.47656L18.8906 8.08594L16.0195 7.92188L7.82812 7.92188C2.27344 7.92188 0 10.3594 0 16.0312C0 16.7109 0.0234375 17.2969 0.105469 17.6484C0.199219 18.1289 0.480469 18.5273 1.10156 18.5273Z" fill="#000000"/>
</svg>
