<?xml version="1.0" encoding="UTF-8"?>

<!--
  - Copyright (c) 2023. Compose Cupertino project and open source contributors.
  -
  -  Licensed under the Apache License, Version 2.0 (the "License");
  -  you may not use this file except in compliance with the License.
  -  You may obtain a copy of the License at
  -
  -      http://www.apache.org/licenses/LICENSE-2.0
  -
  -  Unless required by applicable law or agreed to in writing, software
  -  distributed under the License is distributed on an "AS IS" BASIS,
  -  WITHOUT WARRANTIES OR CONDITIONS OF ANY KIND, either express or implied.
  -  See the License for the specific language governing permissions and
  -  limitations under the License.
  -
  -->

<svg version="1.1" xmlns="http://www.w3.org/2000/svg" xmlns:xlink="http://www.w3.org/1999/xlink" width="23.9062" height="23.918">
 <g>
  <path d="M11.9531 23.9062C18.4922 23.9062 23.9062 18.4805 23.9062 11.9531C23.9062 5.41406 18.4805 0 11.9414 0C5.41406 0 0 5.41406 0 11.9531C0 18.4805 5.42578 23.9062 11.9531 23.9062ZM11.9531 21.9141C6.42188 21.9141 2.00391 17.4844 2.00391 11.9531C2.00391 6.42188 6.41016 1.99219 11.9414 1.99219C17.4727 1.99219 21.9141 6.42188 21.9141 11.9531C21.9141 17.4844 17.4844 21.9141 11.9531 21.9141Z" fill="#000000"/>
  <path d="M11.9531 5.98828C11.4492 5.98828 11.0742 6.35156 11.0742 6.86719L11.0742 12.7266L11.168 15.1992L9.99609 13.793L8.60156 12.3867C8.4375 12.2227 8.22656 12.1289 7.98047 12.1289C7.5 12.1289 7.13672 12.4922 7.13672 12.9727C7.13672 13.2188 7.20703 13.4297 7.35938 13.582L11.2734 17.4727C11.5078 17.707 11.707 17.8125 11.9531 17.8125C12.2109 17.8125 12.4219 17.6953 12.6445 17.4727L16.5469 13.582C16.6992 13.4297 16.793 13.2188 16.793 12.9727C16.793 12.4922 16.418 12.1289 15.9375 12.1289C15.6797 12.1289 15.4688 12.2109 15.3164 12.3867L13.9336 13.793L12.7383 15.2109L12.832 12.7266L12.832 6.86719C12.832 6.35156 12.4688 5.98828 11.9531 5.98828Z" fill="#000000"/>
 </g>
</svg>
