<?xml version="1.0" encoding="UTF-8"?>

<!--
  - Copyright (c) 2023. Compose Cupertino project and open source contributors.
  -
  -  Licensed under the Apache License, Version 2.0 (the "License");
  -  you may not use this file except in compliance with the License.
  -  You may obtain a copy of the License at
  -
  -      http://www.apache.org/licenses/LICENSE-2.0
  -
  -  Unless required by applicable law or agreed to in writing, software
  -  distributed under the License is distributed on an "AS IS" BASIS,
  -  WITHOUT WARRANTIES OR CONDITIONS OF ANY KIND, either express or implied.
  -  See the License for the specific language governing permissions and
  -  limitations under the License.
  -
  -->

<svg version="1.1" xmlns="http://www.w3.org/2000/svg" xmlns:xlink="http://www.w3.org/1999/xlink" width="21.8555" height="28.3477">
  <path d="M10.9336 0C10.3242 0 9.87891 0.421875 9.87891 1.03125L9.87891 5.98828L9.96094 8.41406L6.85547 5.08594C6.65625 4.875 6.38672 4.79297 6.10547 4.79297C5.51953 4.79297 5.08594 5.23828 5.08594 5.8125C5.08594 6.10547 5.20312 6.36328 5.4375 6.60938L10.1484 11.332C10.3711 11.5664 10.6406 11.6953 10.9336 11.6953C11.2148 11.6953 11.4961 11.5664 11.7188 11.332L16.4297 6.60938C16.6641 6.36328 16.7812 6.10547 16.7812 5.8125C16.7812 5.23828 16.3477 4.79297 15.7617 4.79297C15.4805 4.79297 15.2109 4.875 15.0117 5.08594L11.9062 8.41406L11.9766 5.98828L11.9766 1.03125C11.9766 0.421875 11.543 0 10.9336 0ZM0 13.957C0 14.5664 0.421875 15 1.03125 15L20.8359 15C21.4336 15 21.8555 14.5664 21.8555 13.957C21.8555 13.3477 21.4336 12.9023 20.8359 12.9023L1.03125 12.9023C0.421875 12.9023 0 13.3477 0 13.957ZM10.9336 27.9141C11.543 27.9141 11.9766 27.4922 11.9766 26.8711L11.9766 21.9141L11.9062 19.5L15.0117 22.8164C15.2109 23.0273 15.4805 23.1094 15.7617 23.1094C16.3477 23.1094 16.7812 22.6641 16.7812 22.0898C16.7812 21.7969 16.6641 21.5391 16.4297 21.293L11.7188 16.5703C11.4961 16.3359 11.2148 16.207 10.9336 16.207C10.6406 16.207 10.3711 16.3359 10.1484 16.5703L5.4375 21.293C5.20312 21.5391 5.08594 21.7969 5.08594 22.0898C5.08594 22.6641 5.51953 23.1094 6.10547 23.1094C6.38672 23.1094 6.65625 23.0273 6.85547 22.8164L9.96094 19.5L9.87891 21.9141L9.87891 26.8711C9.87891 27.4922 10.3242 27.9141 10.9336 27.9141Z" fill="#000000"/>
</svg>
