<?xml version="1.0" encoding="UTF-8"?>

<!--
  - Copyright (c) 2023. Compose Cupertino project and open source contributors.
  -
  -  Licensed under the Apache License, Version 2.0 (the "License");
  -  you may not use this file except in compliance with the License.
  -  You may obtain a copy of the License at
  -
  -      http://www.apache.org/licenses/LICENSE-2.0
  -
  -  Unless required by applicable law or agreed to in writing, software
  -  distributed under the License is distributed on an "AS IS" BASIS,
  -  WITHOUT WARRANTIES OR CONDITIONS OF ANY KIND, either express or implied.
  -  See the License for the specific language governing permissions and
  -  limitations under the License.
  -
  -->

<svg version="1.1" xmlns="http://www.w3.org/2000/svg" xmlns:xlink="http://www.w3.org/1999/xlink" width="18.293" height="22.1367">
  <path d="M2.47266 22.1367C7.89844 22.1367 10.4531 19.9805 10.4531 14.5312L10.4531 6.41016L10.3594 3.23438L12.6914 5.80078L16.5352 9.64453C16.7227 9.83203 17.0039 9.92578 17.2734 9.92578C17.8594 9.92578 18.293 9.48047 18.293 8.90625C18.293 8.625 18.1875 8.37891 17.9648 8.14453L10.1836 0.351562C9.96094 0.117188 9.69141 0 9.39844 0C9.11719 0 8.84766 0.117188 8.625 0.351562L0.84375 8.14453C0.621094 8.37891 0.515625 8.625 0.515625 8.90625C0.515625 9.48047 0.949219 9.92578 1.52344 9.92578C1.80469 9.92578 2.08594 9.83203 2.27344 9.64453L6.10547 5.80078L8.46094 3.22266L8.35547 6.41016L8.36719 14.4258C8.37891 18.668 6.53906 20.0859 2.36719 20.0859C1.82812 20.0859 1.44141 20.0625 1.04297 20.0625C0.433594 20.0625 0 20.4492 0 21.0586C0 21.6562 0.410156 21.9492 0.878906 22.0547C1.23047 22.125 1.80469 22.1367 2.47266 22.1367Z" fill="#000000"/>
</svg>
