<?xml version="1.0" encoding="UTF-8"?>

<!--
  - Copyright (c) 2023. Compose Cupertino project and open source contributors.
  -
  -  Licensed under the Apache License, Version 2.0 (the "License");
  -  you may not use this file except in compliance with the License.
  -  You may obtain a copy of the License at
  -
  -      http://www.apache.org/licenses/LICENSE-2.0
  -
  -  Unless required by applicable law or agreed to in writing, software
  -  distributed under the License is distributed on an "AS IS" BASIS,
  -  WITHOUT WARRANTIES OR CONDITIONS OF ANY KIND, either express or implied.
  -  See the License for the specific language governing permissions and
  -  limitations under the License.
  -
  -->

<svg version="1.1" xmlns="http://www.w3.org/2000/svg" xmlns:xlink="http://www.w3.org/1999/xlink" width="31.1016" height="21.5039">
  <path d="M17.2852 21.4922C18.082 21.4922 18.6562 20.9062 18.6562 20.1211L18.6562 15.6445L18.9961 15.6445C23.543 15.6445 26.4023 16.793 28.4531 20.625C28.8633 21.375 29.4023 21.4922 29.8945 21.4922C30.5156 21.4922 31.1016 20.9297 31.1016 19.9219C31.1016 11.2617 27.4219 5.85938 18.9961 5.85938L18.6562 5.85938L18.6562 1.42969C18.6562 0.644531 18.082 0 17.2617 0C16.6875 0 16.3008 0.246094 15.6797 0.832031L6.43359 9.48047C5.97656 9.91406 5.83594 10.3477 5.83594 10.7461C5.83594 11.1328 5.98828 11.5781 6.43359 12L15.6797 20.7305C16.2422 21.2578 16.7109 21.4922 17.2852 21.4922ZM16.6172 18.9727C16.5469 18.9727 16.4766 18.9375 16.4062 18.8672L8.0625 10.9688C7.96875 10.875 7.93359 10.8164 7.93359 10.7461C7.93359 10.6758 7.96875 10.6055 8.0625 10.5234L16.4062 2.51953C16.4648 2.47266 16.5352 2.42578 16.6055 2.42578C16.7109 2.42578 16.7695 2.49609 16.7695 2.58984L16.7695 7.24219C16.7695 7.51172 16.8984 7.62891 17.168 7.62891L18.7383 7.62891C26.7773 7.62891 29.2031 13.207 29.4375 18.7383C29.4375 18.832 29.4023 18.8672 29.3438 18.8672C29.2969 18.8672 29.2734 18.832 29.2383 18.75C27.8555 15.8086 24.3047 13.875 18.7383 13.875L17.168 13.875C16.8984 13.875 16.7695 13.9922 16.7695 14.2617L16.7695 18.7969C16.7695 18.9023 16.7109 18.9727 16.6172 18.9727ZM11.4492 21.4922C12.2461 21.4922 12.8203 20.9062 12.8203 20.1211L12.8203 17.1094L10.9336 15.6094L10.9336 18.7969C10.9336 18.9023 10.875 18.9727 10.7695 18.9727C10.7109 18.9727 10.6406 18.9375 10.5703 18.8672L2.22656 10.9688C2.13281 10.875 2.09766 10.8164 2.09766 10.7461C2.09766 10.6758 2.13281 10.6055 2.22656 10.5234L10.5703 2.51953C10.6289 2.47266 10.6992 2.42578 10.7695 2.42578C10.875 2.42578 10.9336 2.49609 10.9336 2.58984L10.9336 5.85938L12.8203 4.37109L12.8203 1.42969C12.8203 0.644531 12.2461 0 11.4258 0C10.8516 0 10.4648 0.246094 9.84375 0.832031L0.585938 9.48047C0.128906 9.91406 0 10.3477 0 10.7461C0 11.1328 0.140625 11.5781 0.585938 12L9.84375 20.7305C10.3945 21.2578 10.875 21.4922 11.4492 21.4922Z" fill="#000000"/>
</svg>
