<?xml version="1.0" encoding="UTF-8"?>

<!--
  - Copyright (c) 2023. Compose Cupertino project and open source contributors.
  -
  -  Licensed under the Apache License, Version 2.0 (the "License");
  -  you may not use this file except in compliance with the License.
  -  You may obtain a copy of the License at
  -
  -      http://www.apache.org/licenses/LICENSE-2.0
  -
  -  Unless required by applicable law or agreed to in writing, software
  -  distributed under the License is distributed on an "AS IS" BASIS,
  -  WITHOUT WARRANTIES OR CONDITIONS OF ANY KIND, either express or implied.
  -  See the License for the specific language governing permissions and
  -  limitations under the License.
  -
  -->

<svg version="1.1" xmlns="http://www.w3.org/2000/svg" xmlns:xlink="http://www.w3.org/1999/xlink" width="22.1484" height="24.2227">
  <path d="M22.1484 16.7461C22.1484 12.2695 19.1133 9.17578 13.7695 9.17578L5.89453 9.17578L2.26172 9.33984L2.47266 9.87891L5.36719 7.40625L8.75391 4.10156C8.92969 3.91406 9.03516 3.69141 9.03516 3.38672C9.03516 2.77734 8.625 2.35547 7.99219 2.35547C7.74609 2.35547 7.44141 2.48438 7.24219 2.68359L0.351562 9.44531C0.117188 9.66797 0 9.9375 0 10.2305C0 10.5117 0.117188 10.7812 0.351562 11.0039L7.24219 17.7656C7.44141 17.9766 7.74609 18.0938 7.99219 18.0938C8.625 18.0938 9.03516 17.6719 9.03516 17.0625C9.03516 16.7578 8.92969 16.5352 8.75391 16.3477L5.36719 13.0547L2.47266 10.5703L2.26172 11.1094L5.89453 11.2734L13.9453 11.2734C17.9414 11.2734 20.0508 13.4766 20.0508 16.6289C20.0508 19.793 17.9414 22.1367 13.9453 22.1367L11.25 22.1367C10.6055 22.1367 10.1836 22.6055 10.1836 23.1797C10.1836 23.7539 10.6055 24.2227 11.25 24.2227L13.957 24.2227C19.1953 24.2227 22.1484 21.2344 22.1484 16.7461Z" fill="#000000"/>
</svg>
