<?xml version="1.0" encoding="UTF-8"?>

<!--
  - Copyright (c) 2023. Compose Cupertino project and open source contributors.
  -
  -  Licensed under the Apache License, Version 2.0 (the "License");
  -  you may not use this file except in compliance with the License.
  -  You may obtain a copy of the License at
  -
  -      http://www.apache.org/licenses/LICENSE-2.0
  -
  -  Unless required by applicable law or agreed to in writing, software
  -  distributed under the License is distributed on an "AS IS" BASIS,
  -  WITHOUT WARRANTIES OR CONDITIONS OF ANY KIND, either express or implied.
  -  See the License for the specific language governing permissions and
  -  limitations under the License.
  -
  -->

<svg version="1.1" xmlns="http://www.w3.org/2000/svg" xmlns:xlink="http://www.w3.org/1999/xlink" width="19.7109" height="25.1367">
 <g>
  <path d="M3.63281 25.125L16.0781 25.125C18.5039 25.125 19.7109 23.8945 19.7109 21.457L19.7109 10.8164C19.7109 9.30469 19.5352 8.64844 18.5977 7.6875L12.1406 1.11328C11.25 0.199219 10.5117 0 9.19922 0L3.63281 0C1.21875 0 0 1.24219 0 3.67969L0 21.457C0 23.9062 1.20703 25.125 3.63281 25.125ZM3.71484 23.2383C2.50781 23.2383 1.88672 22.5938 1.88672 21.4219L1.88672 3.71484C1.88672 2.55469 2.50781 1.88672 3.72656 1.88672L8.94141 1.88672L8.94141 8.69531C8.94141 10.1719 9.67969 10.8984 11.1445 10.8984L17.8242 10.8984L17.8242 21.4219C17.8242 22.5938 17.2031 23.2383 15.9844 23.2383ZM11.3555 9.12891C10.8867 9.12891 10.7109 8.94141 10.7109 8.47266L10.7109 2.25L17.4609 9.12891Z" fill="#000000"/>
  <path d="M10.7461 20.8828L10.7461 16.6289L10.6758 14.7188L11.6719 15.75L12.7266 16.8281C12.8906 17.0039 13.125 17.0977 13.3594 17.0977C13.8281 17.0977 14.1797 16.7578 14.1797 16.2891C14.1797 16.0195 14.0742 15.8203 13.8867 15.6562L10.5117 12.5508C10.2656 12.3281 10.0781 12.2461 9.85547 12.2461C9.63281 12.2461 9.44531 12.3281 9.19922 12.5508L5.82422 15.6562C5.63672 15.8203 5.53125 16.0195 5.53125 16.2891C5.53125 16.7578 5.87109 17.0977 6.35156 17.0977C6.57422 17.0977 6.82031 17.0039 6.98438 16.8281L8.03906 15.75L9.03516 14.7188L8.96484 16.6289L8.96484 20.8828C8.96484 21.3633 9.375 21.75 9.85547 21.75C10.3359 21.75 10.7461 21.3633 10.7461 20.8828Z" fill="#000000"/>
 </g>
</svg>
