<?xml version="1.0" encoding="UTF-8"?>

<!--
  - Copyright (c) 2023. Compose Cupertino project and open source contributors.
  -
  -  Licensed under the Apache License, Version 2.0 (the "License");
  -  you may not use this file except in compliance with the License.
  -  You may obtain a copy of the License at
  -
  -      http://www.apache.org/licenses/LICENSE-2.0
  -
  -  Unless required by applicable law or agreed to in writing, software
  -  distributed under the License is distributed on an "AS IS" BASIS,
  -  WITHOUT WARRANTIES OR CONDITIONS OF ANY KIND, either express or implied.
  -  See the License for the specific language governing permissions and
  -  limitations under the License.
  -
  -->

<svg version="1.1" xmlns="http://www.w3.org/2000/svg" xmlns:xlink="http://www.w3.org/1999/xlink" width="22.8398" height="23.4961">
  <path d="M2.10938 10.6172L8.61328 10.6172C9.80859 10.6172 10.5 9.91406 10.5 8.71875L10.5 2.22656C10.5 1.61719 10.043 1.13672 9.42188 1.13672C8.80078 1.13672 8.35547 1.60547 8.35547 2.22656L8.35547 3.21094L8.60156 7.30078L5.50781 4.05469L1.91016 0.421875C1.71094 0.210938 1.44141 0.105469 1.16016 0.105469C0.492188 0.105469 0 0.550781 0 1.20703C0 1.51172 0.117188 1.80469 0.328125 2.01562L3.9375 5.625L7.18359 8.70703L3.09375 8.47266L2.10938 8.47266C1.48828 8.47266 1.00781 8.90625 1.00781 9.53906C1.00781 10.1602 1.47656 10.6172 2.10938 10.6172ZM13.3477 22.5117C13.9688 22.5117 14.4141 22.0547 14.4141 21.4219L14.4141 20.3086L14.168 16.2305L17.2617 19.4766L20.9414 23.1797C21.1406 23.3906 21.3984 23.4961 21.6914 23.4961C22.3477 23.4961 22.8398 23.0508 22.8398 22.3945C22.8398 22.0898 22.7344 21.7969 22.5234 21.5859L18.832 17.8945L15.5742 14.8125L19.6758 15.0469L20.7891 15.0469C21.4102 15.0469 21.8906 14.6133 21.8906 13.9922C21.8906 13.3594 21.4219 12.9141 20.7891 12.9141L14.1562 12.9141C12.9609 12.9141 12.2695 13.6055 12.2695 14.8008L12.2695 21.4219C12.2695 22.043 12.7148 22.5117 13.3477 22.5117Z" fill="#000000"/>
</svg>
