<?xml version="1.0" encoding="UTF-8"?>

<!--
  - Copyright (c) 2023. Compose Cupertino project and open source contributors.
  -
  -  Licensed under the Apache License, Version 2.0 (the "License");
  -  you may not use this file except in compliance with the License.
  -  You may obtain a copy of the License at
  -
  -      http://www.apache.org/licenses/LICENSE-2.0
  -
  -  Unless required by applicable law or agreed to in writing, software
  -  distributed under the License is distributed on an "AS IS" BASIS,
  -  WITHOUT WARRANTIES OR CONDITIONS OF ANY KIND, either express or implied.
  -  See the License for the specific language governing permissions and
  -  limitations under the License.
  -
  -->

<svg version="1.1" xmlns="http://www.w3.org/2000/svg" xmlns:xlink="http://www.w3.org/1999/xlink" width="22.3359" height="22.3711">
  <path d="M1.07812 9.48047C1.69922 9.48047 2.14453 9.01172 2.14453 8.39062L2.14453 7.40625L1.91016 3.31641L4.99219 6.5625L8.60156 10.1953C8.80078 10.4062 9.05859 10.5 9.33984 10.5C10.0078 10.5 10.5 10.0664 10.5 9.41016C10.5 9.09375 10.3945 8.8125 10.1836 8.60156L6.5625 4.99219L3.31641 1.91016L7.41797 2.14453L8.39062 2.14453C9.01172 2.14453 9.49219 1.71094 9.49219 1.07812C9.49219 0.445312 9.02344 0 8.39062 0L1.88672 0C0.691406 0 0 0.691406 0 1.88672L0 8.39062C0 9 0.457031 9.48047 1.07812 9.48047ZM13.9336 22.3594L20.4375 22.3594C21.6328 22.3594 22.3359 21.668 22.3359 20.4727L22.3359 13.9688C22.3359 13.3594 21.8789 12.8789 21.2461 12.8789C20.6367 12.8789 20.1797 13.3477 20.1797 13.9688L20.1797 14.9531L20.4258 19.043L17.332 15.7969L13.7344 12.1641C13.5352 11.9531 13.2656 11.8594 12.9844 11.8594C12.3281 11.8594 11.8242 12.293 11.8242 12.9492C11.8242 13.2656 11.9414 13.5469 12.1523 13.7578L15.7617 17.3672L19.0195 20.4492L14.918 20.2148L13.9336 20.2148C13.3125 20.2148 12.832 20.6484 12.832 21.2812C12.832 21.9141 13.3125 22.3594 13.9336 22.3594Z" fill="#000000"/>
</svg>
