<?xml version="1.0" encoding="UTF-8"?>

<!--
  - Copyright (c) 2023. Compose Cupertino project and open source contributors.
  -
  -  Licensed under the Apache License, Version 2.0 (the "License");
  -  you may not use this file except in compliance with the License.
  -  You may obtain a copy of the License at
  -
  -      http://www.apache.org/licenses/LICENSE-2.0
  -
  -  Unless required by applicable law or agreed to in writing, software
  -  distributed under the License is distributed on an "AS IS" BASIS,
  -  WITHOUT WARRANTIES OR CONDITIONS OF ANY KIND, either express or implied.
  -  See the License for the specific language governing permissions and
  -  limitations under the License.
  -
  -->

<svg version="1.1" xmlns="http://www.w3.org/2000/svg" xmlns:xlink="http://www.w3.org/1999/xlink" width="22.1484" height="24.2227">
  <path d="M0 16.7461C0 21.2344 2.94141 24.2227 8.19141 24.2227L10.8984 24.2227C11.543 24.2227 11.9648 23.7539 11.9648 23.1797C11.9648 22.6055 11.543 22.1367 10.8984 22.1367L8.20312 22.1367C4.20703 22.1367 2.08594 19.793 2.08594 16.6289C2.08594 13.4766 4.20703 11.2734 8.20312 11.2734L16.2422 11.2734L19.8867 11.1094L19.6758 10.5703L16.7695 13.0547L13.3945 16.3477C13.207 16.5352 13.1133 16.7578 13.1133 17.0625C13.1133 17.6719 13.5234 18.0938 14.1445 18.0938C14.4023 18.0938 14.707 17.9766 14.9062 17.7656L21.7969 11.0039C22.0312 10.7812 22.1484 10.5117 22.1484 10.2305C22.1484 9.9375 22.0312 9.66797 21.7969 9.44531L14.9062 2.68359C14.707 2.48438 14.4023 2.35547 14.1445 2.35547C13.5234 2.35547 13.1133 2.77734 13.1133 3.38672C13.1133 3.69141 13.207 3.91406 13.3945 4.10156L16.7695 7.40625L19.6758 9.87891L19.8867 9.33984L16.2422 9.17578L8.37891 9.17578C3.02344 9.17578 0 12.2695 0 16.7461Z" fill="#000000"/>
</svg>
