<?xml version="1.0" encoding="UTF-8"?>

<!--
  - Copyright (c) 2023. Compose Cupertino project and open source contributors.
  -
  -  Licensed under the Apache License, Version 2.0 (the "License");
  -  you may not use this file except in compliance with the License.
  -  You may obtain a copy of the License at
  -
  -      http://www.apache.org/licenses/LICENSE-2.0
  -
  -  Unless required by applicable law or agreed to in writing, software
  -  distributed under the License is distributed on an "AS IS" BASIS,
  -  WITHOUT WARRANTIES OR CONDITIONS OF ANY KIND, either express or implied.
  -  See the License for the specific language governing permissions and
  -  limitations under the License.
  -
  -->

<svg version="1.1" xmlns="http://www.w3.org/2000/svg" xmlns:xlink="http://www.w3.org/1999/xlink" width="23.0859" height="14.4961">
  <path d="M0 7.24219C0 7.52344 0.117188 7.79297 0.351562 8.01562L6.60938 14.1562C6.80859 14.3555 7.11328 14.4727 7.37109 14.4727C7.99219 14.4727 8.40234 14.0508 8.40234 13.4414C8.40234 13.1367 8.30859 12.9141 8.12109 12.7266L5.36719 10.0664L3.17578 8.16797L5.89453 8.28516L17.1797 8.28516L19.8984 8.16797L17.707 10.0664L14.9648 12.7266C14.7773 12.9141 14.6836 13.1367 14.6836 13.4414C14.6836 14.0508 15.0938 14.4727 15.7148 14.4727C15.9727 14.4727 16.2773 14.3555 16.4766 14.1562L22.7344 8.01562C22.9688 7.79297 23.0859 7.52344 23.0859 7.24219C23.0859 6.94922 22.9688 6.67969 22.7344 6.45703L16.4766 0.316406C16.2773 0.117188 15.9727 0 15.7148 0C15.0938 0 14.6836 0.421875 14.6836 1.03125C14.6836 1.33594 14.7773 1.55859 14.9648 1.74609L17.707 4.41797L19.8984 6.30469L17.1797 6.1875L5.89453 6.1875L3.17578 6.30469L5.36719 4.41797L8.12109 1.74609C8.30859 1.55859 8.40234 1.33594 8.40234 1.03125C8.40234 0.421875 7.99219 0 7.37109 0C7.11328 0 6.80859 0.117188 6.60938 0.316406L0.351562 6.45703C0.117188 6.67969 0 6.94922 0 7.24219Z" fill="#000000"/>
</svg>
