<?xml version="1.0" encoding="UTF-8"?>

<!--
  - Copyright (c) 2023. Compose Cupertino project and open source contributors.
  -
  -  Licensed under the Apache License, Version 2.0 (the "License");
  -  you may not use this file except in compliance with the License.
  -  You may obtain a copy of the License at
  -
  -      http://www.apache.org/licenses/LICENSE-2.0
  -
  -  Unless required by applicable law or agreed to in writing, software
  -  distributed under the License is distributed on an "AS IS" BASIS,
  -  WITHOUT WARRANTIES OR CONDITIONS OF ANY KIND, either express or implied.
  -  See the License for the specific language governing permissions and
  -  limitations under the License.
  -
  -->

<svg version="1.1" xmlns="http://www.w3.org/2000/svg" xmlns:xlink="http://www.w3.org/1999/xlink" width="21.9961" height="19.6992">
  <path d="M1.10156 0C0.480469 0 0.199219 0.398438 0.105469 0.867188C0.0234375 1.23047 0 1.80469 0 2.49609C0 8.16797 2.27344 10.6055 7.82812 10.6055L16.0195 10.6055L18.8906 10.4414L14.9414 14.0391L12.3398 16.6875C12.1523 16.8867 12.0586 17.1562 12.0586 17.4375C12.0586 18.0234 12.5039 18.4453 13.0898 18.4453C13.3594 18.4453 13.6172 18.3398 13.875 18.0938L21.6328 10.3477C21.8789 10.1133 21.9961 9.84375 21.9961 9.55078C21.9961 9.26953 21.8789 8.98828 21.6328 8.76562L13.8516 0.984375C13.6172 0.761719 13.3594 0.667969 13.0898 0.667969C12.5039 0.667969 12.0586 1.08984 12.0586 1.67578C12.0586 1.95703 12.1641 2.22656 12.3398 2.41406L14.9414 5.0625L18.9023 8.68359L16.0195 8.50781L7.93359 8.50781C3.63281 8.50781 2.12109 6.73828 2.12109 2.39062C2.12109 1.82812 2.15625 1.45312 2.15625 1.03125C2.15625 0.421875 1.71094 0 1.10156 0Z" fill="#000000"/>
</svg>
