<?xml version="1.0" encoding="UTF-8"?>

<!--
  - Copyright (c) 2023. Compose Cupertino project and open source contributors.
  -
  -  Licensed under the Apache License, Version 2.0 (the "License");
  -  you may not use this file except in compliance with the License.
  -  You may obtain a copy of the License at
  -
  -      http://www.apache.org/licenses/LICENSE-2.0
  -
  -  Unless required by applicable law or agreed to in writing, software
  -  distributed under the License is distributed on an "AS IS" BASIS,
  -  WITHOUT WARRANTIES OR CONDITIONS OF ANY KIND, either express or implied.
  -  See the License for the specific language governing permissions and
  -  limitations under the License.
  -
  -->

<svg version="1.1" xmlns="http://www.w3.org/2000/svg" xmlns:xlink="http://www.w3.org/1999/xlink" width="24.3047" height="25.9102">
  <path d="M0 13.5C0 21.2227 5.22656 25.9102 12.4219 25.9102C14.3672 25.9102 16.2188 25.6406 17.3672 25.2656C18.1758 25.0078 18.4336 24.5859 18.4336 24.1523C18.4336 23.7188 18.0938 23.3906 17.6602 23.3906C17.5195 23.3906 17.332 23.4141 17.1094 23.4727C15.6797 23.8242 14.4492 24.0586 12.7969 24.0586C6.38672 24.0586 2.01562 20.1914 2.01562 13.5703C2.01562 7.23047 6.14062 2.8125 12.3516 2.8125C17.8477 2.8125 22.4414 6.19922 22.4414 12.2812C22.4414 15.832 21.2461 18.2227 19.3125 18.2227C18.0234 18.2227 17.2969 17.4727 17.2969 16.1953L17.2969 8.25C17.2969 7.61719 16.9453 7.23047 16.3477 7.23047C15.7617 7.23047 15.3984 7.61719 15.3984 8.25L15.3984 9.58594L15.293 9.58594C14.6953 8.14453 13.2305 7.23047 11.4844 7.23047C8.44922 7.23047 6.31641 9.82031 6.31641 13.5352C6.31641 17.2852 8.4375 19.8984 11.5312 19.8984C13.3477 19.8984 14.7539 18.9141 15.4336 17.25L15.5391 17.25C15.7617 18.9023 17.1562 19.9102 19.0078 19.9102C22.2773 19.9102 24.3047 16.6992 24.3047 12.1992C24.3047 5.39062 19.3008 0.972656 12.375 0.972656C5.09766 0.972656 0 5.95312 0 13.5ZM11.8477 18.0469C9.75 18.0469 8.41406 16.3008 8.41406 13.5234C8.41406 10.793 9.76172 9.04688 11.8594 9.04688C14.0156 9.04688 15.375 10.7578 15.375 13.4766C15.375 16.2539 13.9805 18.0469 11.8477 18.0469Z" fill="#000000"/>
</svg>
