<?xml version="1.0" encoding="UTF-8"?>

<!--
  - Copyright (c) 2023. Compose Cupertino project and open source contributors.
  -
  -  Licensed under the Apache License, Version 2.0 (the "License");
  -  you may not use this file except in compliance with the License.
  -  You may obtain a copy of the License at
  -
  -      http://www.apache.org/licenses/LICENSE-2.0
  -
  -  Unless required by applicable law or agreed to in writing, software
  -  distributed under the License is distributed on an "AS IS" BASIS,
  -  WITHOUT WARRANTIES OR CONDITIONS OF ANY KIND, either express or implied.
  -  See the License for the specific language governing permissions and
  -  limitations under the License.
  -
  -->

<svg version="1.1" xmlns="http://www.w3.org/2000/svg" xmlns:xlink="http://www.w3.org/1999/xlink" width="32.2617" height="18.4336">
  <path d="M14.4727 18.4336C15.3867 18.4336 16.1602 17.7305 16.1602 16.4297L16.1602 2.02734C16.1602 0.726562 15.3867 0.0234375 14.4727 0.0234375C13.9922 0.0234375 13.6055 0.175781 13.125 0.457031L1.18359 7.48828C0.351562 7.98047 0 8.55469 0 9.22266C0 9.90234 0.351562 10.4766 1.18359 10.9688L13.125 18C13.5938 18.2812 13.9922 18.4336 14.4727 18.4336ZM13.957 16.2656C13.875 16.2656 13.7812 16.2422 13.6758 16.1719L2.53125 9.5625C2.36719 9.46875 2.27344 9.38672 2.27344 9.22266C2.27344 9.07031 2.36719 8.98828 2.53125 8.89453L13.6758 2.28516C13.793 2.22656 13.875 2.19141 13.957 2.19141C14.1328 2.19141 14.2734 2.29688 14.2734 2.54297L14.2734 15.9141C14.2734 16.1602 14.1328 16.2656 13.957 16.2656ZM30.5742 18.4336C31.4883 18.4336 32.2617 17.7305 32.2617 16.4297L32.2617 2.02734C32.2617 0.726562 31.4883 0.0234375 30.5742 0.0234375C30.0938 0.0234375 29.707 0.175781 29.2266 0.457031L17.2852 7.48828C16.4531 7.98047 16.1016 8.55469 16.1016 9.22266C16.1016 9.90234 16.4531 10.4766 17.2852 10.9688L29.2266 18C29.6953 18.2812 30.0938 18.4336 30.5742 18.4336ZM30.0586 16.2656C29.9883 16.2656 29.8945 16.2422 29.7773 16.1719L18.6328 9.5625C18.4688 9.46875 18.3867 9.38672 18.3867 9.22266C18.3867 9.07031 18.4688 8.98828 18.6328 8.89453L29.7773 2.28516C29.8945 2.22656 29.9883 2.19141 30.0586 2.19141C30.2344 2.19141 30.375 2.29688 30.375 2.54297L30.375 15.9141C30.375 16.1602 30.2344 16.2656 30.0586 16.2656Z" fill="#000000"/>
</svg>
