<?xml version="1.0" encoding="UTF-8"?>

<!--
  - Copyright (c) 2023. Compose Cupertino project and open source contributors.
  -
  -  Licensed under the Apache License, Version 2.0 (the "License");
  -  you may not use this file except in compliance with the License.
  -  You may obtain a copy of the License at
  -
  -      http://www.apache.org/licenses/LICENSE-2.0
  -
  -  Unless required by applicable law or agreed to in writing, software
  -  distributed under the License is distributed on an "AS IS" BASIS,
  -  WITHOUT WARRANTIES OR CONDITIONS OF ANY KIND, either express or implied.
  -  See the License for the specific language governing permissions and
  -  limitations under the License.
  -
  -->

<svg version="1.1" xmlns="http://www.w3.org/2000/svg" xmlns:xlink="http://www.w3.org/1999/xlink" width="18.1055" height="19.3711">
  <path d="M0.996094 19.3711C1.55859 19.3711 2.00391 18.9492 2.00391 18.3984L2.00391 0.996094C2.00391 0.445312 1.55859 0.0117188 0.996094 0.0117188C0.445312 0.0117188 0 0.445312 0 0.996094L0 18.3984C0 18.9492 0.445312 19.3711 0.996094 19.3711ZM16.418 18.9023C17.3438 18.9023 18.1055 18.1992 18.1055 16.8867L18.1055 2.49609C18.1055 1.18359 17.3438 0.480469 16.418 0.480469C15.9375 0.480469 15.5508 0.632812 15.0703 0.914062L3.12891 7.94531C2.29688 8.4375 1.94531 9.02344 1.94531 9.69141C1.94531 10.3594 2.29688 10.9453 3.12891 11.4375L15.0703 18.4688C15.5508 18.75 15.9375 18.9023 16.418 18.9023ZM15.9141 16.7344C15.832 16.7344 15.7383 16.6992 15.6211 16.6289L4.48828 10.0195C4.32422 9.92578 4.23047 9.84375 4.23047 9.69141C4.23047 9.52734 4.3125 9.45703 4.48828 9.36328L15.6211 2.75391C15.7383 2.68359 15.832 2.64844 15.9141 2.64844C16.0781 2.64844 16.2305 2.76562 16.2305 3L16.2305 16.3828C16.2305 16.6172 16.0781 16.7344 15.9141 16.7344Z" fill="#000000"/>
</svg>
