<?xml version="1.0" encoding="UTF-8"?>

<!--
  - Copyright (c) 2023. Compose Cupertino project and open source contributors.
  -
  -  Licensed under the Apache License, Version 2.0 (the "License");
  -  you may not use this file except in compliance with the License.
  -  You may obtain a copy of the License at
  -
  -      http://www.apache.org/licenses/LICENSE-2.0
  -
  -  Unless required by applicable law or agreed to in writing, software
  -  distributed under the License is distributed on an "AS IS" BASIS,
  -  WITHOUT WARRANTIES OR CONDITIONS OF ANY KIND, either express or implied.
  -  See the License for the specific language governing permissions and
  -  limitations under the License.
  -
  -->

<svg version="1.1" xmlns="http://www.w3.org/2000/svg" xmlns:xlink="http://www.w3.org/1999/xlink" width="15.1289" height="32.0508">
  <path d="M7.55859 17.9531C11.8125 17.9531 15.1289 13.4297 15.1289 7.78125C15.1289 3.33984 12.0352 0 7.55859 0C3.08203 0 0 3.33984 0 7.78125C0 13.4297 3.30469 17.9531 7.55859 17.9531ZM7.55859 16.1953C4.28906 16.1953 1.76953 12.375 1.76953 7.78125C1.76953 4.42969 4.14844 1.76953 7.55859 1.76953C10.9453 1.76953 13.3711 4.42969 13.3711 7.78125C13.3711 12.375 10.8164 16.1953 7.55859 16.1953ZM5.91797 17.1445L5.36719 19.2539C5.22656 19.7227 5.49609 20.2266 6.09375 20.2266L9.03516 20.2266C9.63281 20.2266 9.89062 19.7227 9.76172 19.2539L9.1875 17.1445ZM7.41797 31.8867C7.875 31.8867 8.25 31.5 8.25 31.043C8.25 28.4766 10.582 27.8789 10.582 25.2773C10.582 22.6055 8.33203 22.1016 8.35547 19.7695L6.69141 19.7695C6.67969 22.957 8.92969 23.4492 8.92969 25.2773C8.92969 27.1406 6.58594 27.4219 6.58594 31.043C6.58594 31.5 6.96094 31.8867 7.41797 31.8867Z" fill="#000000"/>
</svg>
