<?xml version="1.0" encoding="UTF-8"?>

<!--
  - Copyright (c) 2023. Compose Cupertino project and open source contributors.
  -
  -  Licensed under the Apache License, Version 2.0 (the "License");
  -  you may not use this file except in compliance with the License.
  -  You may obtain a copy of the License at
  -
  -      http://www.apache.org/licenses/LICENSE-2.0
  -
  -  Unless required by applicable law or agreed to in writing, software
  -  distributed under the License is distributed on an "AS IS" BASIS,
  -  WITHOUT WARRANTIES OR CONDITIONS OF ANY KIND, either express or implied.
  -  See the License for the specific language governing permissions and
  -  limitations under the License.
  -
  -->

<svg version="1.1" xmlns="http://www.w3.org/2000/svg" xmlns:xlink="http://www.w3.org/1999/xlink" width="24.3294" height="24.4419">
 <g>
  <path d="M1.81491 22.5159C4.29928 24.9885 7.81491 24.9651 10.5337 22.258L14.1079 18.6604L12.7837 17.3244L9.20944 20.9104C7.32272 22.7854 4.85006 23.0549 3.0571 21.2737C1.25241 19.4924 1.53366 17.008 3.42038 15.1213L7.00631 11.5354L5.67038 10.2229L2.07272 13.7971C-0.63431 16.5159-0.657748 20.0315 1.81491 22.5159ZM22.5102 1.82054C20.0258-0.652117 16.5102-0.640398 13.8032 2.06663L10.2173 5.66429L11.5415 7.01195L15.1274 3.42601C17.0024 1.53929 19.4751 1.28148 21.268 3.05101C23.0727 4.83226 22.7915 7.32835 20.9048 9.20335L17.3188 12.7893L18.6665 14.1135L22.2524 10.5276C24.9712 7.82054 24.9829 4.30491 22.5102 1.82054ZM18.6782 10.0119L14.3071 5.65257C12.936 4.28148 11.6235 4.24632 10.2173 5.66429L5.67038 10.2229C4.24069 11.6291 4.28756 12.9416 5.64694 14.3127L10.018 18.6838C11.3891 20.0432 12.7016 20.0901 14.1079 18.6604L18.6665 14.1135C20.0844 12.6955 20.0493 11.3948 18.6782 10.0119ZM13.229 7.07054L17.2602 11.1018C17.9282 11.7698 17.8579 12.2619 17.1548 12.9534L12.9477 17.1604C12.2563 17.8635 11.7641 17.9338 11.0962 17.2659L7.06491 13.2346C6.39694 12.5666 6.46725 12.0627 7.17038 11.3713L11.3774 7.17601C12.0688 6.47288 12.561 6.40257 13.229 7.07054Z" fill="#000000"/>
  <path d="M12.1508 10.8557C12.7251 10.8557 13.1469 10.4104 13.1469 9.87132C13.1704 9.33226 12.7133 8.87523 12.1626 8.87523C11.6118 8.87523 11.1782 9.33226 11.1782 9.89476C11.1782 10.3987 11.6352 10.8557 12.1508 10.8557ZM9.90085 13.1526C10.4399 13.1526 10.8735 12.6838 10.8735 12.1799C10.8735 11.6174 10.4399 11.1721 9.88913 11.1721C9.32663 11.1721 8.89303 11.6174 8.89303 12.1682C8.89303 12.7073 9.32663 13.1526 9.90085 13.1526ZM14.436 13.1526C14.9868 13.1526 15.4438 12.6955 15.4321 12.1565C15.4321 11.6174 14.9985 11.1721 14.4243 11.1721C13.9087 11.1721 13.4516 11.6291 13.4516 12.133C13.4516 12.6955 13.8969 13.1526 14.436 13.1526ZM12.1626 15.4377C12.7133 15.4377 13.1469 14.9924 13.1469 14.4299C13.1469 13.926 12.7133 13.4573 12.1743 13.4573C11.6001 13.4573 11.1665 13.9026 11.1665 14.4416C11.1665 14.9924 11.6001 15.4377 12.1626 15.4377Z" fill="#000000"/>
 </g>
</svg>
