<?xml version="1.0" encoding="UTF-8"?>

<!--
  - Copyright (c) 2023. Compose Cupertino project and open source contributors.
  -
  -  Licensed under the Apache License, Version 2.0 (the "License");
  -  you may not use this file except in compliance with the License.
  -  You may obtain a copy of the License at
  -
  -      http://www.apache.org/licenses/LICENSE-2.0
  -
  -  Unless required by applicable law or agreed to in writing, software
  -  distributed under the License is distributed on an "AS IS" BASIS,
  -  WITHOUT WARRANTIES OR CONDITIONS OF ANY KIND, either express or implied.
  -  See the License for the specific language governing permissions and
  -  limitations under the License.
  -
  -->

<svg version="1.1" xmlns="http://www.w3.org/2000/svg" xmlns:xlink="http://www.w3.org/1999/xlink" width="30.9375" height="19.3711">
 <g>
  <path d="M3.15234 15.5273C3.15234 15.9727 3.39844 16.2188 3.83203 16.2188L27.1172 16.2188C27.5391 16.2188 27.7969 15.9727 27.7969 15.5273L27.7969 3.83203C27.7969 3.39844 27.5391 3.14062 27.1172 3.14062L3.83203 3.14062C3.39844 3.14062 3.15234 3.39844 3.15234 3.83203ZM4.33594 14.7656L4.33594 4.59375C4.33594 4.41797 4.41797 4.32422 4.59375 4.32422L26.3438 4.32422C26.5195 4.32422 26.6133 4.41797 26.6133 4.59375L26.6133 14.7656C26.6133 14.9414 26.5195 15.0352 26.3438 15.0352L4.59375 15.0352C4.41797 15.0352 4.33594 14.9414 4.33594 14.7656ZM15.4219 16.2188C17.9531 16.2188 19.9688 13.6758 19.9688 9.66797C19.9688 5.67188 17.9531 3.14062 15.4219 3.14062C12.9609 3.14062 10.9805 5.67188 10.9805 9.66797C10.9805 13.6758 12.9609 16.2188 15.4219 16.2188ZM15.4219 14.8359C13.7578 14.8359 12.3398 12.8555 12.3398 9.66797C12.3398 6.49219 13.7578 4.52344 15.4219 4.52344C17.1562 4.52344 18.6211 6.49219 18.6211 9.66797C18.6211 12.8555 17.1562 14.8359 15.4219 14.8359Z" fill="#000000"/>
  <path d="M0 18.4336C0 18.9961 0.375 19.3711 0.9375 19.3711L30.0117 19.3711C30.5742 19.3711 30.9375 18.9961 30.9375 18.4336L30.9375 0.925781C30.9375 0.363281 30.5742 0 30.0117 0L0.9375 0C0.375 0 0 0.363281 0 0.925781ZM1.88672 17.1445L1.88672 2.22656C1.88672 1.96875 1.98047 1.88672 2.22656 1.88672L28.7109 1.88672C28.9688 1.88672 29.0508 1.96875 29.0508 2.22656L29.0508 17.1445C29.0508 17.3906 28.9688 17.4844 28.7109 17.4844L2.22656 17.4844C1.98047 17.4844 1.88672 17.3906 1.88672 17.1445Z" fill="#000000"/>
 </g>
</svg>
