<?xml version="1.0" encoding="UTF-8"?>

<!--
  - Copyright (c) 2023. Compose Cupertino project and open source contributors.
  -
  -  Licensed under the Apache License, Version 2.0 (the "License");
  -  you may not use this file except in compliance with the License.
  -  You may obtain a copy of the License at
  -
  -      http://www.apache.org/licenses/LICENSE-2.0
  -
  -  Unless required by applicable law or agreed to in writing, software
  -  distributed under the License is distributed on an "AS IS" BASIS,
  -  WITHOUT WARRANTIES OR CONDITIONS OF ANY KIND, either express or implied.
  -  See the License for the specific language governing permissions and
  -  limitations under the License.
  -
  -->

<svg version="1.1" xmlns="http://www.w3.org/2000/svg" xmlns:xlink="http://www.w3.org/1999/xlink" width="23.9062" height="23.918">
  <path d="M9.26953 22.7461L10.418 23.0273C11.4258 19.9102 11.1914 16.3945 9.43359 13.3711C7.6875 10.3594 4.78125 8.37891 1.59375 7.69922L1.26562 8.82422C4.13672 9.43359 6.76172 11.2266 8.36719 13.9922C9.97266 16.7695 10.1953 19.9336 9.26953 22.7461ZM4.44141 10.6992L5.51953 8.71875C5.66016 8.46094 5.57812 8.14453 5.32031 8.01562C5.05078 7.86328 4.72266 7.93359 4.58203 8.20312L3.51562 10.1719C3.36328 10.4414 3.45703 10.7695 3.72656 10.8984C3.98438 11.0508 4.28906 10.9688 4.44141 10.6992ZM6.58594 12.2578L8.15625 10.6523C8.37891 10.4297 8.36719 10.1016 8.15625 9.91406C7.94531 9.69141 7.61719 9.66797 7.39453 9.89062L5.82422 11.4961C5.60156 11.707 5.61328 12.0586 5.83594 12.2461C6.04688 12.457 6.36328 12.4688 6.58594 12.2578ZM8.25 14.6602L10.207 13.5586C10.4883 13.4062 10.5586 13.0781 10.4062 12.832C10.2539 12.5742 9.9375 12.4688 9.67969 12.6211L7.72266 13.7109C7.45312 13.8633 7.37109 14.2031 7.53516 14.4492C7.6875 14.707 7.98047 14.8008 8.25 14.6602ZM9.12891 17.3789L11.3086 16.8164C11.5898 16.7344 11.7539 16.4414 11.6836 16.1602C11.6016 15.8672 11.332 15.6914 11.0273 15.7734L8.85938 16.3359C8.56641 16.4062 8.40234 16.6992 8.47266 16.9805C8.55469 17.2734 8.83594 17.4492 9.12891 17.3789ZM9.29297 20.1328L11.5312 20.1914C11.8359 20.2031 12.0703 19.957 12.0703 19.6641C12.082 19.3828 11.8477 19.1367 11.5547 19.125L9.31641 19.0664C9.01172 19.0547 8.77734 19.3008 8.76562 19.5938C8.76562 19.8867 9 20.1211 9.29297 20.1328ZM22.2773 16.1836L22.5938 15.0352C19.6992 14.4375 17.0742 12.6562 15.4688 9.89062C13.875 7.10156 13.6406 3.92578 14.5664 1.125L13.418 0.867188C12.4102 3.97266 12.6562 7.46484 14.4023 10.5C16.1484 13.5352 19.0664 15.4805 22.2773 16.1836ZM14.5664 4.83984C14.8711 4.85156 15.0938 4.62891 15.0938 4.32422C15.1055 4.03125 14.8711 3.78516 14.5781 3.77344L12.3398 3.70312C12.0352 3.71484 11.8008 3.94922 11.8008 4.25391C11.7891 4.54688 12.0117 4.78125 12.3164 4.78125ZM14.8477 7.48828C15.1406 7.40625 15.3047 7.125 15.2109 6.84375C15.1523 6.55078 14.8711 6.375 14.5781 6.45703L12.3984 7.00781C12.0938 7.08984 11.9531 7.38281 12.0469 7.66406C12.0938 7.95703 12.375 8.12109 12.668 8.03906ZM16.1133 10.1367C16.3828 9.98438 16.4531 9.69141 16.3125 9.41016C16.1719 9.16406 15.8555 9.04688 15.5977 9.21094L13.6289 10.3242C13.3711 10.4648 13.3008 10.793 13.4531 11.0508C13.5703 11.2969 13.8984 11.4141 14.1562 11.25ZM18.0469 12.2461C18.2695 12.0117 18.2578 11.6836 18.0352 11.4727C17.8359 11.2734 17.4961 11.2617 17.2852 11.4844L15.7031 13.0898C15.4922 13.2891 15.5039 13.6289 15.7266 13.8281C15.9258 14.0273 16.2539 14.0391 16.4648 13.8281ZM20.3555 13.7461C20.5078 13.4766 20.4023 13.1719 20.1445 13.0078C19.8867 12.8789 19.5586 12.9609 19.4297 13.2188L18.3516 15.1875C18.1992 15.4453 18.293 15.7734 18.5508 15.9141C18.7969 16.0547 19.1484 15.9727 19.2773 15.7031ZM11.9531 23.9062C18.4922 23.9062 23.9062 18.4805 23.9062 11.9531C23.9062 5.41406 18.4805 0 11.9414 0C5.41406 0 0 5.41406 0 11.9531C0 18.4805 5.42578 23.9062 11.9531 23.9062ZM11.9531 22.3125C6.29297 22.3125 1.59375 17.6133 1.59375 11.9531C1.59375 6.29297 6.28125 1.59375 11.9414 1.59375C17.6016 1.59375 22.3125 6.29297 22.3125 11.9531C22.3125 17.6133 17.6133 22.3125 11.9531 22.3125Z" fill="#000000"/>
</svg>
