<?xml version="1.0" encoding="UTF-8"?>

<!--
  - Copyright (c) 2023. Compose Cupertino project and open source contributors.
  -
  -  Licensed under the Apache License, Version 2.0 (the "License");
  -  you may not use this file except in compliance with the License.
  -  You may obtain a copy of the License at
  -
  -      http://www.apache.org/licenses/LICENSE-2.0
  -
  -  Unless required by applicable law or agreed to in writing, software
  -  distributed under the License is distributed on an "AS IS" BASIS,
  -  WITHOUT WARRANTIES OR CONDITIONS OF ANY KIND, either express or implied.
  -  See the License for the specific language governing permissions and
  -  limitations under the License.
  -
  -->

<svg version="1.1" xmlns="http://www.w3.org/2000/svg" xmlns:xlink="http://www.w3.org/1999/xlink" width="34.6875" height="15.8555">
 <g>
  <rect height="15.8555" opacity="0" width="34.6875" x="0" y="0"/>
  <path d="M6.24609 15.8555L24.668 15.8555C26.6719 15.8555 28.3594 15.668 29.5547 14.4727C30.75 13.2773 30.9258 11.6133 30.9258 9.60938L30.9258 6.24609C30.9258 4.24219 30.75 2.57812 29.5547 1.38281C28.3594 0.1875 26.6719 0 24.668 0L6.22266 0C4.25391 0 2.56641 0.1875 1.37109 1.38281C0.175781 2.57812 0 4.25391 0 6.21094L0 9.60938C0 11.6133 0.175781 13.2773 1.37109 14.4727C2.56641 15.668 4.25391 15.8555 6.24609 15.8555ZM5.92969 13.9688C4.72266 13.9688 3.45703 13.8047 2.74219 13.1016C2.03906 12.3867 1.88672 11.1328 1.88672 9.92578L1.88672 5.95312C1.88672 4.72266 2.03906 3.46875 2.74219 2.75391C3.45703 2.03906 4.73438 1.88672 5.96484 1.88672L24.9961 1.88672C26.2031 1.88672 27.4688 2.05078 28.1719 2.75391C28.8867 3.46875 29.0391 4.71094 29.0391 5.91797L29.0391 9.92578C29.0391 11.1328 28.8867 12.3867 28.1719 13.1016C27.4688 13.8047 26.2031 13.9688 24.9961 13.9688ZM32.5195 10.957C33.4453 10.8984 34.6875 9.71484 34.6875 7.92188C34.6875 6.14062 33.4453 4.95703 32.5195 4.89844Z" fill="#000000"/>
  <path d="M5.30859 12.6094L25.6289 12.6094C26.4258 12.6094 26.8945 12.4922 27.2227 12.1641C27.5508 11.8359 27.6797 11.3672 27.6797 10.5586L27.6797 5.29688C27.6797 4.48828 27.5508 4.01953 27.2227 3.69141C26.8945 3.36328 26.4258 3.24609 25.6289 3.24609L5.34375 3.24609C4.51172 3.24609 4.03125 3.36328 3.71484 3.69141C3.38672 4.01953 3.25781 4.5 3.25781 5.32031L3.25781 10.5586C3.25781 11.3672 3.38672 11.8359 3.71484 12.1641C4.04297 12.4922 4.51172 12.6094 5.30859 12.6094Z" fill="#000000"/>
 </g>
</svg>
