<?xml version="1.0" encoding="UTF-8"?>

<!--
  - Copyright (c) 2023. Compose Cupertino project and open source contributors.
  -
  -  Licensed under the Apache License, Version 2.0 (the "License");
  -  you may not use this file except in compliance with the License.
  -  You may obtain a copy of the License at
  -
  -      http://www.apache.org/licenses/LICENSE-2.0
  -
  -  Unless required by applicable law or agreed to in writing, software
  -  distributed under the License is distributed on an "AS IS" BASIS,
  -  WITHOUT WARRANTIES OR CONDITIONS OF ANY KIND, either express or implied.
  -  See the License for the specific language governing permissions and
  -  limitations under the License.
  -
  -->

<svg version="1.1" xmlns="http://www.w3.org/2000/svg" xmlns:xlink="http://www.w3.org/1999/xlink" width="29.6953" height="19.793">
  <path d="M0.996094 19.7695L1.69922 19.7695C2.29688 19.7695 2.69531 19.3828 2.69531 18.7734L2.69531 17.0391C2.82422 17.0742 3.21094 17.0977 3.49219 17.0977L26.2031 17.0977C26.4844 17.0977 26.8711 17.0742 27 17.0391L27 18.7734C27 19.3828 27.3984 19.7695 27.9961 19.7695L28.6992 19.7695C29.3086 19.7695 29.6953 19.3828 29.6953 18.7734L29.6953 10.7461C29.6953 8.50781 28.4766 7.30078 26.2383 7.30078L3.45703 7.30078C1.21875 7.30078 0 8.50781 0 10.7461L0 18.7734C0 19.3828 0.386719 19.7695 0.996094 19.7695ZM2.34375 15.3867C2.09766 15.3867 1.94531 15.2109 1.94531 14.9297L1.94531 10.4766C1.94531 9.58594 2.53125 9.01172 3.44531 9.01172L26.2617 9.01172C27.1641 9.01172 27.75 9.58594 27.75 10.4766L27.75 14.9297C27.75 15.2109 27.5977 15.3867 27.3516 15.3867ZM3.04688 7.54688L6.12891 7.54688L6.12891 5.13281C6.12891 4.04297 6.73828 3.44531 7.85156 3.44531L11.9648 3.44531C13.0664 3.44531 13.6758 4.04297 13.6758 5.13281L13.6758 7.54688L16.0195 7.54688L16.0195 5.13281C16.0195 4.04297 16.6289 3.44531 17.7305 3.44531L21.8438 3.44531C22.957 3.44531 23.5664 4.04297 23.5664 5.13281L23.5664 7.54688L26.6484 7.54688L26.6484 3.28125C26.6484 1.11328 25.4883 0 23.3789 0L6.31641 0C4.21875 0 3.04688 1.11328 3.04688 3.28125Z" fill="#000000"/>
</svg>
