<?xml version="1.0" encoding="UTF-8"?>

<!--
  - Copyright (c) 2023. Compose Cupertino project and open source contributors.
  -
  -  Licensed under the Apache License, Version 2.0 (the "License");
  -  you may not use this file except in compliance with the License.
  -  You may obtain a copy of the License at
  -
  -      http://www.apache.org/licenses/LICENSE-2.0
  -
  -  Unless required by applicable law or agreed to in writing, software
  -  distributed under the License is distributed on an "AS IS" BASIS,
  -  WITHOUT WARRANTIES OR CONDITIONS OF ANY KIND, either express or implied.
  -  See the License for the specific language governing permissions and
  -  limitations under the License.
  -
  -->

<svg version="1.1" xmlns="http://www.w3.org/2000/svg" xmlns:xlink="http://www.w3.org/1999/xlink" width="23.9062" height="23.918">
 <g>
  <path d="M11.9531 23.9062C18.4922 23.9062 23.9062 18.4805 23.9062 11.9531C23.9062 5.41406 18.4805 0 11.9414 0C5.41406 0 0 5.41406 0 11.9531C0 18.4805 5.42578 23.9062 11.9531 23.9062ZM11.9531 21.9141C6.42188 21.9141 2.00391 17.4844 2.00391 11.9531C2.00391 6.42188 6.41016 1.99219 11.9414 1.99219C17.4727 1.99219 21.9141 6.42188 21.9141 11.9531C21.9141 17.4844 17.4844 21.9141 11.9531 21.9141Z" fill="#000000"/>
  <path d="M6.79688 16.1836L17.1211 16.1836C17.7188 16.1836 18.0703 15.8672 18.0703 15.4102C18.0703 14.7539 17.4258 14.1797 16.8516 13.5938C16.4062 13.1367 16.3242 12.2109 16.2773 11.4727C16.2188 8.97656 15.5508 7.26562 13.8398 6.63281C13.582 5.80078 12.9023 5.12109 11.9531 5.12109C11.0039 5.12109 10.3359 5.80078 10.0664 6.63281C8.35547 7.26562 7.6875 8.97656 7.64062 11.4727C7.58203 12.2109 7.48828 13.1367 7.05469 13.5938C6.50391 14.1914 5.83594 14.7539 5.83594 15.4102C5.83594 15.8672 6.1875 16.1836 6.79688 16.1836ZM11.9531 18.8906C13.0547 18.8906 13.8633 18.1055 13.9336 17.1562L9.97266 17.1562C10.0547 18.1055 10.8516 18.8906 11.9531 18.8906Z" fill="#000000"/>
 </g>
</svg>
