<?xml version="1.0" encoding="UTF-8"?>

<!--
  - Copyright (c) 2023. Compose Cupertino project and open source contributors.
  -
  -  Licensed under the Apache License, Version 2.0 (the "License");
  -  you may not use this file except in compliance with the License.
  -  You may obtain a copy of the License at
  -
  -      http://www.apache.org/licenses/LICENSE-2.0
  -
  -  Unless required by applicable law or agreed to in writing, software
  -  distributed under the License is distributed on an "AS IS" BASIS,
  -  WITHOUT WARRANTIES OR CONDITIONS OF ANY KIND, either express or implied.
  -  See the License for the specific language governing permissions and
  -  limitations under the License.
  -
  -->

<svg version="1.1" xmlns="http://www.w3.org/2000/svg" xmlns:xlink="http://www.w3.org/1999/xlink" width="41.8008" height="24.2227">
 <g>
  <path d="M9.84375 18.5508C9.84375 19.4062 10.5 19.9688 11.6133 19.9688L16.5586 19.9688C16.6523 22.2305 18.4219 24.2109 20.8945 24.2109C23.3789 24.2109 25.1484 22.2422 25.2422 19.9688L30.1875 19.9688C31.2891 19.9688 31.957 19.4062 31.957 18.5508C31.957 17.3789 30.7617 16.3242 29.7539 15.2812C28.9805 14.4727 28.7695 12.8086 28.6758 11.4609C28.5938 6.84375 27.3984 3.86719 24.2812 2.74219C23.8828 1.20703 22.6289 0 20.8945 0C19.1719 0 17.9062 1.20703 17.5195 2.74219C14.4023 3.86719 13.207 6.84375 13.125 11.4609C13.0312 12.8086 12.8203 14.4727 12.0469 15.2812C11.0273 16.3242 9.84375 17.3789 9.84375 18.5508ZM12.1172 18.1992L12.1172 18.0586C12.3281 17.7188 13.0312 17.0273 13.6406 16.3477C14.4844 15.4102 14.8828 13.8984 14.9883 11.6133C15.082 6.49219 16.6055 4.86328 18.6094 4.3125C18.9023 4.24219 19.0664 4.10156 19.0781 3.79688C19.1133 2.57812 19.8164 1.72266 20.8945 1.72266C21.9844 1.72266 22.6758 2.57812 22.7227 3.79688C22.7344 4.10156 22.8867 4.24219 23.1914 4.3125C25.1953 4.86328 26.7188 6.49219 26.8125 11.6133C26.918 13.8984 27.3164 15.4102 28.1484 16.3477C28.7695 17.0273 29.4609 17.7188 29.6719 18.0586L29.6719 18.1992ZM18.3867 19.9688L23.4141 19.9688C23.332 21.5625 22.3125 22.5586 20.8945 22.5586C19.4883 22.5586 18.4688 21.5625 18.3867 19.9688Z" fill="#000000"/>
  <path d="M7.80469 16.7812C8.17969 16.3594 8.02734 15.832 7.65234 15.3281C6.94922 14.4492 6.60938 13.3242 6.60938 12.1055C6.60938 10.8867 6.94922 9.75 7.65234 8.88281C8.02734 8.37891 8.17969 7.85156 7.80469 7.42969C7.41797 6.98438 6.71484 6.98438 6.30469 7.51172C5.28516 8.77734 4.69922 10.3828 4.69922 12.1055C4.69922 13.8281 5.28516 15.4336 6.30469 16.6992C6.71484 17.2266 7.41797 17.2148 7.80469 16.7812ZM33.9844 16.7812C34.3828 17.2148 35.0742 17.2266 35.4961 16.6992C36.5156 15.4336 37.1016 13.8281 37.1016 12.1055C37.1016 10.3828 36.5156 8.77734 35.4961 7.51172C35.0742 6.98438 34.3828 6.98438 33.9844 7.42969C33.6211 7.85156 33.7734 8.37891 34.1484 8.88281C34.8398 9.75 35.1914 10.8867 35.1914 12.1055C35.1914 13.3242 34.8398 14.4492 34.1484 15.3281C33.7734 15.832 33.6211 16.3594 33.9844 16.7812Z" fill="#000000"/>
  <path d="M4.52344 20.1211C4.89844 19.6992 4.78125 19.1484 4.35938 18.668C2.78906 16.9219 1.91016 14.625 1.91016 12.1055C1.91016 9.58594 2.78906 7.28906 4.35938 5.54297C4.78125 5.0625 4.89844 4.51172 4.52344 4.08984C4.14844 3.64453 3.49219 3.65625 3.04688 4.14844C1.10156 6.25781 0 9.07031 0 12.1055C0 15.1406 1.10156 17.9414 3.04688 20.0625C3.49219 20.5547 4.14844 20.5547 4.52344 20.1211ZM37.2773 20.1211C37.6523 20.5547 38.3086 20.5547 38.7539 20.0625C40.6992 17.9414 41.8008 15.1406 41.8008 12.1055C41.8008 9.07031 40.6992 6.25781 38.7539 4.14844C38.3086 3.65625 37.6523 3.64453 37.2773 4.08984C36.9023 4.51172 37.0195 5.0625 37.4414 5.54297C39.0117 7.28906 39.8906 9.58594 39.8906 12.1055C39.8906 14.625 39.0117 16.9219 37.4414 18.668C37.0195 19.1484 36.9023 19.6992 37.2773 20.1211Z" fill="#000000"/>
 </g>
</svg>
