<?xml version="1.0" encoding="UTF-8"?>

<!--
  - Copyright (c) 2023. Compose Cupertino project and open source contributors.
  -
  -  Licensed under the Apache License, Version 2.0 (the "License");
  -  you may not use this file except in compliance with the License.
  -  You may obtain a copy of the License at
  -
  -      http://www.apache.org/licenses/LICENSE-2.0
  -
  -  Unless required by applicable law or agreed to in writing, software
  -  distributed under the License is distributed on an "AS IS" BASIS,
  -  WITHOUT WARRANTIES OR CONDITIONS OF ANY KIND, either express or implied.
  -  See the License for the specific language governing permissions and
  -  limitations under the License.
  -
  -->

<svg version="1.1" xmlns="http://www.w3.org/2000/svg" xmlns:xlink="http://www.w3.org/1999/xlink" width="22.8501" height="24.2227">
 <g>
  <path d="M11.083 24.2109C13.4619 24.2109 15.1846 22.3945 15.3955 20.2266L16.1572 20.2266L14.1299 18.1992L2.30566 18.1992L2.30566 18.0586C2.5166 17.7188 3.20801 17.0273 3.8291 16.3477C4.66113 15.4102 5.07129 13.8984 5.16504 11.6133C5.18848 10.793 5.24707 10.0664 5.34082 9.41016L3.7002 7.76953C3.44238 8.83594 3.3252 10.0781 3.30176 11.4609C3.20801 12.8086 3.00879 14.4727 2.23535 15.2812C1.21582 16.3242 0.0205078 17.3789 0.0205078 18.5508C0.0205078 19.418 0.676758 19.9688 1.80176 19.9688L6.73535 19.9688C6.8291 22.2305 8.59863 24.2109 11.083 24.2109ZM11.083 22.5586C9.66504 22.5586 8.65723 21.5625 8.56348 19.9688L13.5908 19.9688C13.5088 21.5625 12.4893 22.5586 11.083 22.5586ZM6.05566 3.63281L7.40332 4.98047C7.8252 4.66406 8.29395 4.45312 8.79785 4.3125C9.09082 4.24219 9.24316 4.10156 9.25488 3.79688C9.30176 2.57812 9.99316 1.72266 11.083 1.72266C12.1611 1.72266 12.8643 2.57812 12.8994 3.79688C12.9111 4.10156 13.0752 4.24219 13.3682 4.3125C15.4072 4.875 16.9658 6.5625 17.0361 11.918C17.0947 13.3477 17.2119 14.2266 17.6221 15.0117L21.7822 19.3008C21.9814 19.0781 22.0869 18.7734 22.0869 18.4453C22.0869 17.5078 21.1143 16.6289 20.2705 15.7734C19.3096 14.6953 18.958 13.5469 18.8994 11.8711C18.8408 6.89062 17.5986 3.87891 14.4697 2.74219C14.0713 1.20703 12.8057 0 11.083 0C9.34863 0 8.09473 1.20703 7.69629 2.74219C7.06348 2.95312 6.52441 3.25781 6.05566 3.63281Z" fill="#000000"/>
  <path d="M0.254883 2.37891L21.3135 23.4023C21.665 23.7656 22.2393 23.7656 22.5908 23.4023C22.9307 23.0508 22.9424 22.4883 22.5908 22.125L1.54395 1.10156C1.19238 0.75 0.618164 0.75 0.254883 1.10156C-0.0849609 1.44141-0.0849609 2.03906 0.254883 2.37891Z" fill="#000000"/>
 </g>
</svg>
