<?xml version="1.0" encoding="UTF-8"?>

<!--
  - Copyright (c) 2023. Compose Cupertino project and open source contributors.
  -
  -  Licensed under the Apache License, Version 2.0 (the "License");
  -  you may not use this file except in compliance with the License.
  -  You may obtain a copy of the License at
  -
  -      http://www.apache.org/licenses/LICENSE-2.0
  -
  -  Unless required by applicable law or agreed to in writing, software
  -  distributed under the License is distributed on an "AS IS" BASIS,
  -  WITHOUT WARRANTIES OR CONDITIONS OF ANY KIND, either express or implied.
  -  See the License for the specific language governing permissions and
  -  limitations under the License.
  -
  -->

<svg version="1.1" xmlns="http://www.w3.org/2000/svg" xmlns:xlink="http://www.w3.org/1999/xlink" width="22.1133" height="24.2227">
  <path d="M0 18.5508C0 19.4062 0.65625 19.9688 1.76953 19.9688L6.71484 19.9688C6.80859 22.2305 8.57812 24.2109 11.0508 24.2109C13.5352 24.2109 15.3047 22.2422 15.3984 19.9688L20.3438 19.9688C21.4453 19.9688 22.1133 19.4062 22.1133 18.5508C22.1133 17.3789 20.918 16.3242 19.9102 15.2812C19.1367 14.4727 18.9258 12.8086 18.832 11.4609C18.75 6.84375 17.5547 3.86719 14.4375 2.74219C14.0391 1.20703 12.7852 0 11.0508 0C9.32812 0 8.0625 1.20703 7.67578 2.74219C4.55859 3.86719 3.36328 6.84375 3.28125 11.4609C3.1875 12.8086 2.97656 14.4727 2.20312 15.2812C1.18359 16.3242 0 17.3789 0 18.5508ZM2.27344 18.1992L2.27344 18.0586C2.48438 17.7188 3.1875 17.0273 3.79688 16.3477C4.64062 15.4102 5.03906 13.8984 5.14453 11.6133C5.23828 6.49219 6.76172 4.86328 8.76562 4.3125C9.05859 4.24219 9.22266 4.10156 9.23438 3.79688C9.26953 2.57812 9.97266 1.72266 11.0508 1.72266C12.1406 1.72266 12.832 2.57812 12.8789 3.79688C12.8906 4.10156 13.043 4.24219 13.3359 4.3125C15.3516 4.86328 16.875 6.49219 16.9688 11.6133C17.0742 13.8984 17.4727 15.4102 18.3047 16.3477C18.9258 17.0273 19.6172 17.7188 19.8281 18.0586L19.8281 18.1992ZM8.54297 19.9688L13.5703 19.9688C13.4766 21.5625 12.4688 22.5586 11.0508 22.5586C9.64453 22.5586 8.625 21.5625 8.54297 19.9688Z" fill="#000000"/>
</svg>
