<?xml version="1.0" encoding="UTF-8"?>

<!--
  - Copyright (c) 2023. Compose Cupertino project and open source contributors.
  -
  -  Licensed under the Apache License, Version 2.0 (the "License");
  -  you may not use this file except in compliance with the License.
  -  You may obtain a copy of the License at
  -
  -      http://www.apache.org/licenses/LICENSE-2.0
  -
  -  Unless required by applicable law or agreed to in writing, software
  -  distributed under the License is distributed on an "AS IS" BASIS,
  -  WITHOUT WARRANTIES OR CONDITIONS OF ANY KIND, either express or implied.
  -  See the License for the specific language governing permissions and
  -  limitations under the License.
  -
  -->

<svg version="1.1" xmlns="http://www.w3.org/2000/svg" xmlns:xlink="http://www.w3.org/1999/xlink" width="37.9922" height="23.543">
  <path d="M7.46484 23.543C11.5781 23.543 14.918 20.2031 14.918 16.0898C14.918 11.9648 11.5898 8.63672 7.46484 8.63672C3.33984 8.63672 0 11.9648 0 16.0898C0 20.2148 3.33984 23.543 7.46484 23.543ZM7.46484 21.7031C4.34766 21.7031 1.85156 19.207 1.85156 16.0898C1.85156 12.9844 4.35938 10.4766 7.46484 10.4766C10.5703 10.4766 13.0781 12.9844 13.0781 16.0898C13.0781 19.1953 10.5703 21.7031 7.46484 21.7031ZM30.5391 23.543C34.6523 23.543 37.9922 20.2031 37.9922 16.0898C37.9922 11.9648 34.6523 8.63672 30.5391 8.63672C26.4141 8.63672 23.0625 11.9648 23.0625 16.0898C23.0625 20.2148 26.4141 23.543 30.5391 23.543ZM30.5391 21.7031C27.4219 21.7031 24.9141 19.207 24.9141 16.0898C24.9141 12.9844 27.4219 10.4766 30.5391 10.4766C33.6328 10.4766 36.1523 13.0078 36.1523 16.0898C36.1523 19.1953 33.6328 21.7031 30.5391 21.7031ZM19.9805 0.914062C19.9805 1.41797 20.3906 1.81641 20.8945 1.81641L23.9297 1.81641C24.0234 1.81641 24.0469 1.83984 24.082 1.89844L29.6602 16.4297L31.3594 15.8438L25.5234 0.785156C25.3125 0.222656 24.9258 0 24.2461 0L20.8945 0C20.3906 0 19.9805 0.410156 19.9805 0.914062ZM27.3047 8.02734L27.3047 6.33984L14.8711 8.16797L14.8711 9.85547ZM17.6953 17.1562L17.6953 15.4688L7.58203 15.4688L7.58203 17.1562ZM18.9844 18.5859C20.3438 18.5859 21.4453 17.4844 21.4453 16.1367C21.4453 14.7773 20.3438 13.6875 18.9844 13.6875C17.6133 13.6875 16.5352 14.7656 16.5234 16.1367C16.5 17.4727 17.6016 18.5859 18.9844 18.5859ZM18.9961 16.9805C18.5156 16.9805 18.1406 16.5938 18.1406 16.1484C18.1406 15.6797 18.5156 15.293 18.9961 15.293C19.4648 15.293 19.8281 15.668 19.8281 16.1484C19.8281 16.6055 19.4648 16.9805 18.9961 16.9805ZM7.46484 17.6133C8.30859 17.6133 9 16.9336 9 16.0898C9 15.2344 8.32031 14.5547 7.46484 14.5547C6.60938 14.5547 5.95312 15.2227 5.94141 16.0898C5.92969 16.9336 6.59766 17.6133 7.46484 17.6133ZM30.5391 17.625C31.3945 17.625 32.0625 16.9336 32.0625 16.0898C32.0625 15.2344 31.4062 14.5664 30.5391 14.5664C29.6836 14.5664 29.0156 15.2227 29.0039 16.0898C28.9922 16.9336 29.6719 17.625 30.5391 17.625ZM18.5859 14.2969L20.0977 15.1523L27.3867 7.33594L25.2656 7.26562ZM6.77344 15.5039L8.27344 16.3594L15.2461 9.23438L13.8047 8.20312ZM17.3555 15.3867L18.8555 14.3086L13.6875 4.51172L11.9297 4.88672ZM9.73828 4.27734C9.73828 4.78125 10.1484 5.17969 10.6523 5.17969L15.2578 5.17969C15.7617 5.17969 16.1719 4.78125 16.1719 4.27734C16.1719 3.78516 15.75 3.36328 15.2578 3.36328L10.6523 3.36328C10.1602 3.36328 9.73828 3.78516 9.73828 4.27734Z" fill="#000000"/>
</svg>
