<?xml version="1.0" encoding="UTF-8"?>

<!--
  - Copyright (c) 2023. Compose Cupertino project and open source contributors.
  -
  -  Licensed under the Apache License, Version 2.0 (the "License");
  -  you may not use this file except in compliance with the License.
  -  You may obtain a copy of the License at
  -
  -      http://www.apache.org/licenses/LICENSE-2.0
  -
  -  Unless required by applicable law or agreed to in writing, software
  -  distributed under the License is distributed on an "AS IS" BASIS,
  -  WITHOUT WARRANTIES OR CONDITIONS OF ANY KIND, either express or implied.
  -  See the License for the specific language governing permissions and
  -  limitations under the License.
  -
  -->

<svg version="1.1" xmlns="http://www.w3.org/2000/svg" xmlns:xlink="http://www.w3.org/1999/xlink" width="29.918" height="23.2148">
  <path d="M0 17.4961C0 20.7656 2.92969 23.2148 6.51562 23.2148C10.0898 23.2148 13.0078 20.7656 13.0078 17.4961L13.0078 4.54688C13.0078 2.40234 11.543 0.972656 9.29297 0.972656C7.53516 0.972656 6.12891 1.86328 5.47266 3.38672L0.597656 14.7305C0.117188 15.8438 0 16.6406 0 17.4961ZM3.49219 12.4805L7.06641 4.17188C7.46484 3.23438 8.26172 2.68359 9.22266 2.68359C10.4648 2.68359 11.2617 3.50391 11.2617 4.73438L11.2617 13.6406C10.0898 12.4805 8.35547 11.7773 6.51562 11.7773C5.47266 11.7773 4.40625 12.0352 3.49219 12.4805ZM1.83984 17.4961C1.83984 15.1406 3.86719 13.5352 6.51562 13.5352C9.15234 13.5352 11.25 15.1406 11.25 17.4961C11.25 19.8516 9.15234 21.457 6.51562 21.457C3.86719 21.457 1.83984 19.8516 1.83984 17.4961ZM29.918 17.4961C29.918 16.6406 29.7891 15.8438 29.3086 14.7305L24.4453 3.38672C23.7773 1.86328 22.3828 0.972656 20.625 0.972656C18.375 0.972656 16.9102 2.40234 16.9102 4.54688L16.9102 17.4961C16.9102 20.7656 19.8281 23.2148 23.4023 23.2148C26.9766 23.2148 29.918 20.7656 29.918 17.4961ZM26.4258 12.4805C25.5117 12.0352 24.4453 11.7773 23.4023 11.7773C21.5625 11.7773 19.8164 12.4805 18.6445 13.6406L18.6445 4.73438C18.6445 3.50391 19.4531 2.68359 20.6953 2.68359C21.6445 2.68359 22.4414 3.23438 22.8398 4.17188ZM28.0664 17.4961C28.0664 19.8516 26.0391 21.457 23.4023 21.457C20.7539 21.457 18.668 19.8516 18.668 17.4961C18.668 15.1406 20.7539 13.5352 23.4023 13.5352C26.0391 13.5352 28.0664 15.1406 28.0664 17.4961ZM12.2227 14.8594C12.9023 14.4258 13.9102 14.1445 14.9648 14.1445C16.2656 14.1445 17.1094 14.3438 17.7773 14.8359L17.7773 13.0898C17.0039 12.7617 16.0781 12.6094 14.9648 12.6094C13.9922 12.6094 13.043 12.8086 12.2227 13.1484ZM12.2227 11.2852C12.9023 10.8398 13.9102 10.5703 14.9648 10.5703C16.2656 10.5703 17.1094 10.7578 17.7773 11.2617L17.7773 9.51562C17.0039 9.1875 16.0781 9.03516 14.9648 9.03516C13.9922 9.03516 13.043 9.23438 12.2227 9.57422ZM12.2227 7.69922C12.9023 7.26562 13.9102 6.98438 14.9648 6.98438C16.2656 6.98438 17.1094 7.18359 17.7773 7.67578L17.7773 5.94141C17.0039 5.61328 16.0781 5.44922 14.9648 5.44922C13.9922 5.44922 13.043 5.66016 12.2227 6Z" fill="#000000"/>
</svg>
