<?xml version="1.0" encoding="UTF-8"?>

<!--
  - Copyright (c) 2023. Compose Cupertino project and open source contributors.
  -
  -  Licensed under the Apache License, Version 2.0 (the "License");
  -  you may not use this file except in compliance with the License.
  -  You may obtain a copy of the License at
  -
  -      http://www.apache.org/licenses/LICENSE-2.0
  -
  -  Unless required by applicable law or agreed to in writing, software
  -  distributed under the License is distributed on an "AS IS" BASIS,
  -  WITHOUT WARRANTIES OR CONDITIONS OF ANY KIND, either express or implied.
  -  See the License for the specific language governing permissions and
  -  limitations under the License.
  -
  -->

<svg version="1.1" xmlns="http://www.w3.org/2000/svg" xmlns:xlink="http://www.w3.org/1999/xlink" width="26.9883" height="26.6367">
  <path d="M13.5 4.52344C14.3555 4.52344 15.0352 3.76172 15.0352 2.77734C15.0352 1.76953 14.7188 1.11328 14.1562 0.457031C13.7812-0.0117188 13.2773-0.0234375 12.8906 0.386719C12.3281 1.06641 11.9648 1.73438 11.9648 2.77734C11.9648 3.76172 12.6562 4.52344 13.5 4.52344ZM12.832 9.92578L14.1328 9.92578L14.1328 3.26953L12.832 3.26953ZM5.84766 15.6562L7.73438 15.6562L7.73438 12.8203C7.73438 11.707 8.35547 11.1094 9.42188 11.1094L17.5664 11.1094C18.6328 11.1094 19.2656 11.707 19.2656 12.8203L19.2656 15.6562L21.1523 15.6562L21.1523 12.7266C21.1523 10.4062 19.957 9.22266 17.6016 9.22266L9.39844 9.22266C7.05469 9.22266 5.84766 10.4062 5.84766 12.7266ZM1.85156 25.8164L3.73828 25.8164L3.73828 18.75C3.73828 17.6367 4.35938 17.0273 5.42578 17.0273L21.5625 17.0273C22.6289 17.0273 23.25 17.6367 23.25 18.75L23.25 25.8164L25.1367 25.8164L25.1367 18.6445C25.1367 16.3242 23.9414 15.1406 21.5977 15.1406L5.40234 15.1406C3.05859 15.1406 1.85156 16.3242 1.85156 18.6445ZM13.4883 21.0352C14.5078 21.0352 15.3164 22.3477 17.0391 22.3477C18.7031 22.3477 19.4414 21.0352 20.4023 21.0352C21.3633 21.0352 22.1133 22.3477 23.9297 22.3477L24.2461 22.3477L24.2461 20.5195L23.9297 20.5195C22.8164 20.5195 22.0195 19.207 20.4023 19.207C18.7734 19.207 18.1641 20.5195 17.0391 20.5195C15.6914 20.5195 15.1406 19.207 13.4883 19.207C11.8242 19.207 11.2852 20.5195 9.9375 20.5195C8.8125 20.5195 8.20312 19.207 6.57422 19.207C4.94531 19.207 4.16016 20.5195 3.04688 20.5195L2.66016 20.5195L2.66016 22.3477L3.04688 22.3477C4.86328 22.3477 5.61328 21.0352 6.57422 21.0352C7.52344 21.0352 8.27344 22.3477 9.9375 22.3477C11.6602 22.3477 12.457 21.0352 13.4883 21.0352ZM0.9375 26.6367L26.0508 26.6367C26.5664 26.6367 26.9883 26.2031 26.9883 25.6875C26.9883 25.1719 26.5664 24.75 26.0508 24.75L0.9375 24.75C0.421875 24.75 0 25.1719 0 25.6875C0 26.2031 0.421875 26.6367 0.9375 26.6367Z" fill="#000000"/>
</svg>
