<?xml version="1.0" encoding="UTF-8"?>

<!--
  - Copyright (c) 2023. Compose Cupertino project and open source contributors.
  -
  -  Licensed under the Apache License, Version 2.0 (the "License");
  -  you may not use this file except in compliance with the License.
  -  You may obtain a copy of the License at
  -
  -      http://www.apache.org/licenses/LICENSE-2.0
  -
  -  Unless required by applicable law or agreed to in writing, software
  -  distributed under the License is distributed on an "AS IS" BASIS,
  -  WITHOUT WARRANTIES OR CONDITIONS OF ANY KIND, either express or implied.
  -  See the License for the specific language governing permissions and
  -  limitations under the License.
  -
  -->

<svg version="1.1" xmlns="http://www.w3.org/2000/svg" xmlns:xlink="http://www.w3.org/1999/xlink" width="14.1094" height="26.8711">
  <path d="M1.45312 23.9297L7.08984 23.9297C11.4727 23.9297 14.1094 21.7852 14.1094 18.1992C14.1094 15.375 12.1758 13.418 9.31641 13.0664L9.31641 12.9727C11.4492 12.5859 13.043 10.5938 13.043 8.35547C13.043 5.27344 10.6406 3.22266 7.06641 3.22266L1.45312 3.22266C0.574219 3.22266 0 3.79688 0 4.67578L0 22.4766C0 23.3555 0.574219 23.9297 1.45312 23.9297ZM2.23828 12.2695L2.23828 5.19141L6.55078 5.19141C9.21094 5.19141 10.8047 6.41016 10.8047 8.58984C10.8047 10.9688 9.01172 12.2695 5.90625 12.2695ZM2.23828 21.9609L2.23828 14.25L6.46875 14.25C9.9375 14.25 11.8359 15.5742 11.8359 18.1055C11.8359 20.625 9.99609 21.9609 6.73828 21.9609ZM4.32422 4.55859L4.32422 1.13672C4.32422 0.714844 3.98438 0.363281 3.5625 0.363281C3.12891 0.363281 2.78906 0.714844 2.78906 1.13672L2.78906 4.55859ZM8.01562 4.55859L8.01562 1.13672C8.01562 0.714844 7.67578 0.363281 7.24219 0.363281C6.82031 0.363281 6.48047 0.714844 6.48047 1.13672L6.48047 4.55859ZM4.32422 22.6055L2.78906 22.6055L2.78906 26.1094C2.78906 26.5312 3.12891 26.8711 3.5625 26.8711C3.98438 26.8711 4.32422 26.5312 4.32422 26.1094ZM8.01562 22.6055L6.48047 22.6055L6.48047 26.1094C6.48047 26.5312 6.82031 26.8711 7.24219 26.8711C7.67578 26.8711 8.01562 26.5312 8.01562 26.1094Z" fill="#000000"/>
</svg>
