<?xml version="1.0" encoding="UTF-8"?>

<!--
  - Copyright (c) 2023. Compose Cupertino project and open source contributors.
  -
  -  Licensed under the Apache License, Version 2.0 (the "License");
  -  you may not use this file except in compliance with the License.
  -  You may obtain a copy of the License at
  -
  -      http://www.apache.org/licenses/LICENSE-2.0
  -
  -  Unless required by applicable law or agreed to in writing, software
  -  distributed under the License is distributed on an "AS IS" BASIS,
  -  WITHOUT WARRANTIES OR CONDITIONS OF ANY KIND, either express or implied.
  -  See the License for the specific language governing permissions and
  -  limitations under the License.
  -
  -->

<svg version="1.1" xmlns="http://www.w3.org/2000/svg" xmlns:xlink="http://www.w3.org/1999/xlink" width="19.4912" height="26.3838">
 <g>
  <path d="M1.49707 14.9321C1.49707 15.3892 1.84863 15.729 2.34082 15.729L8.96191 15.729L5.46973 24.8345C5.00098 26.0415 6.29004 26.6978 7.05176 25.7017L12.3369 18.9048L11.0244 17.5923L7.41504 22.3735L7.74316 22.5493L10.2979 16.854L7.40332 13.9829L4.42676 13.9829L5.71582 12.2837L4.34473 10.9126L1.80176 14.1821C1.60254 14.44 1.49707 14.6743 1.49707 14.9321ZM7.15723 7.29152L8.46973 8.60402L12.0791 3.82277L11.751 3.64699L9.19629 9.3423L12.0674 12.2134L15.0674 12.2134L13.7783 13.9126L15.1494 15.2837L17.7041 12.0025C17.9033 11.7564 18.0088 11.522 18.0088 11.2525C18.0088 10.8071 17.6572 10.4673 17.165 10.4673L10.5439 10.4673L14.0361 1.35011C14.5049 0.14308 13.2158-0.51317 12.4541 0.494643Z" fill="#000000"/>
  <path d="M17.9502 22.5728C18.3018 22.9243 18.8877 22.9243 19.2275 22.5728C19.5791 22.2329 19.5791 21.6587 19.2275 21.2954L1.54395 3.61183C1.19238 3.26027 0.594727 3.26027 0.254883 3.61183C-0.0849609 3.95167-0.0849609 4.54933 0.254883 4.88917Z" fill="#000000"/>
 </g>
</svg>
