<?xml version="1.0" encoding="UTF-8"?>

<!--
  - Copyright (c) 2023. Compose Cupertino project and open source contributors.
  -
  -  Licensed under the Apache License, Version 2.0 (the "License");
  -  you may not use this file except in compliance with the License.
  -  You may obtain a copy of the License at
  -
  -      http://www.apache.org/licenses/LICENSE-2.0
  -
  -  Unless required by applicable law or agreed to in writing, software
  -  distributed under the License is distributed on an "AS IS" BASIS,
  -  WITHOUT WARRANTIES OR CONDITIONS OF ANY KIND, either express or implied.
  -  See the License for the specific language governing permissions and
  -  limitations under the License.
  -
  -->

<svg version="1.1" xmlns="http://www.w3.org/2000/svg" xmlns:xlink="http://www.w3.org/1999/xlink" width="32.2991" height="15.5039">
  <path d="M0.400122 12.7383C-0.713159 14.168 0.716528 15.3281 2.00559 14.5781L10.5017 9.72656L20.5798 15.1289C21.0486 15.3633 21.447 15.5039 21.8337 15.5039C22.3728 15.5039 22.865 15.2578 23.3337 14.6602L31.9587 3.76172C32.8962 2.57812 31.7478 1.11328 30.3298 1.91016L21.8337 6.79688L11.7439 1.39453C11.2868 1.13672 10.865 1.01953 10.49 1.01953C9.93918 1.01953 9.47043 1.26562 9.00168 1.86328ZM3.06028 12.2812C2.91965 12.3516 2.84934 12.2344 2.94309 12.1289L10.3611 3.14062C10.5251 2.92969 10.6775 2.90625 10.9001 3.02344L21.4118 8.63672C21.904 8.89453 22.0564 8.82422 22.4431 8.57812L29.3103 4.20703C29.4157 4.13672 29.5329 4.25391 29.4392 4.35938L21.9861 13.3828C21.822 13.582 21.6579 13.6172 21.447 13.5L10.9236 7.88672C10.4314 7.62891 10.279 7.6875 9.89231 7.93359Z" fill="#000000"/>
</svg>
