<?xml version="1.0" encoding="UTF-8"?>

<!--
  - Copyright (c) 2023. Compose Cupertino project and open source contributors.
  -
  -  Licensed under the Apache License, Version 2.0 (the "License");
  -  you may not use this file except in compliance with the License.
  -  You may obtain a copy of the License at
  -
  -      http://www.apache.org/licenses/LICENSE-2.0
  -
  -  Unless required by applicable law or agreed to in writing, software
  -  distributed under the License is distributed on an "AS IS" BASIS,
  -  WITHOUT WARRANTIES OR CONDITIONS OF ANY KIND, either express or implied.
  -  See the License for the specific language governing permissions and
  -  limitations under the License.
  -
  -->

<svg version="1.1" xmlns="http://www.w3.org/2000/svg" xmlns:xlink="http://www.w3.org/1999/xlink" width="23.9062" height="23.918">
 <g>
  <path d="M11.9531 23.9062C18.4922 23.9062 23.9062 18.4805 23.9062 11.9531C23.9062 5.41406 18.4805 0 11.9414 0C5.41406 0 0 5.41406 0 11.9531C0 18.4805 5.42578 23.9062 11.9531 23.9062ZM11.9531 21.9141C6.42188 21.9141 2.00391 17.4844 2.00391 11.9531C2.00391 6.42188 6.41016 1.99219 11.9414 1.99219C17.4727 1.99219 21.9141 6.42188 21.9141 11.9531C21.9141 17.4844 17.4844 21.9141 11.9531 21.9141Z" fill="#000000"/>
  <path d="M8.73047 6.92578C7.51172 6.92578 6.23438 7.48828 5.68359 8.44922C5.61328 8.56641 5.61328 8.63672 5.61328 8.83594L5.61328 16.6172C5.61328 16.8516 5.77734 17.0156 6.03516 17.0156C6.17578 17.0156 6.30469 16.9688 6.41016 16.875C7.07812 16.3008 7.98047 15.9727 8.92969 15.9727C9.73828 15.9727 10.5117 16.2422 11.1562 16.7695C11.2266 16.8281 11.2734 16.8633 11.3438 16.8633C11.4609 16.8633 11.5664 16.7578 11.5664 16.6289L11.5664 8.47266C11.5664 8.34375 11.5547 8.32031 11.4492 8.15625C10.9102 7.39453 9.87891 6.92578 8.73047 6.92578ZM15.1641 6.92578C14.0156 6.92578 12.9961 7.39453 12.4453 8.15625C12.3398 8.32031 12.3398 8.34375 12.3398 8.47266L12.3398 16.6289C12.3398 16.7578 12.4336 16.8633 12.5508 16.8633C12.6211 16.8633 12.6797 16.8281 12.7383 16.7695C13.3828 16.2422 14.168 15.9727 14.9648 15.9727C15.9258 15.9727 16.8281 16.3008 17.4961 16.875C17.6016 16.9688 17.7188 17.0156 17.8594 17.0156C18.1172 17.0156 18.293 16.8516 18.293 16.6172L18.293 8.83594C18.293 8.63672 18.2812 8.55469 18.2109 8.44922C17.6602 7.48828 16.3828 6.92578 15.1641 6.92578Z" fill="#000000"/>
 </g>
</svg>
