<?xml version="1.0" encoding="UTF-8"?>

<!--
  - Copyright (c) 2023. Compose Cupertino project and open source contributors.
  -
  -  Licensed under the Apache License, Version 2.0 (the "License");
  -  you may not use this file except in compliance with the License.
  -  You may obtain a copy of the License at
  -
  -      http://www.apache.org/licenses/LICENSE-2.0
  -
  -  Unless required by applicable law or agreed to in writing, software
  -  distributed under the License is distributed on an "AS IS" BASIS,
  -  WITHOUT WARRANTIES OR CONDITIONS OF ANY KIND, either express or implied.
  -  See the License for the specific language governing permissions and
  -  limitations under the License.
  -
  -->

<svg version="1.1" xmlns="http://www.w3.org/2000/svg" xmlns:xlink="http://www.w3.org/1999/xlink" width="15.7969" height="25.1836">
  <path d="M1.24219 25.1367C1.81641 25.1367 2.15625 24.8086 3.21094 23.7891L7.79297 19.2773C7.85156 19.2188 7.95703 19.2188 8.00391 19.2773L12.5859 23.7891C13.6406 24.8086 13.9805 25.1367 14.5547 25.1367C15.3398 25.1367 15.7969 24.6211 15.7969 23.707L15.7969 3.36328C15.7969 1.13672 14.6836 0 12.4805 0L3.31641 0C1.11328 0 0 1.13672 0 3.36328L0 23.707C0 24.6211 0.457031 25.1367 1.24219 25.1367ZM2.20312 21.9727C2.03906 22.1367 1.85156 22.0898 1.85156 21.8555L1.85156 3.38672C1.85156 2.37891 2.37891 1.85156 3.41016 1.85156L12.3984 1.85156C13.418 1.85156 13.9453 2.37891 13.9453 3.38672L13.9453 21.8555C13.9453 22.0898 13.7695 22.1367 13.5938 21.9727L8.51953 17.0508C8.14453 16.6875 7.65234 16.6875 7.27734 17.0508Z" fill="#000000"/>
</svg>
