<?xml version="1.0" encoding="UTF-8"?>

<!--
  - Copyright (c) 2023. Compose Cupertino project and open source contributors.
  -
  -  Licensed under the Apache License, Version 2.0 (the "License");
  -  you may not use this file except in compliance with the License.
  -  You may obtain a copy of the License at
  -
  -      http://www.apache.org/licenses/LICENSE-2.0
  -
  -  Unless required by applicable law or agreed to in writing, software
  -  distributed under the License is distributed on an "AS IS" BASIS,
  -  WITHOUT WARRANTIES OR CONDITIONS OF ANY KIND, either express or implied.
  -  See the License for the specific language governing permissions and
  -  limitations under the License.
  -
  -->

<svg version="1.1" xmlns="http://www.w3.org/2000/svg" xmlns:xlink="http://www.w3.org/1999/xlink" width="30.8438" height="25.9805">
  <path d="M0 12.1289C0 16.4062 2.92969 19.2422 7.32422 19.2422C11.6484 19.2422 14.543 16.6992 14.543 12.8672C14.543 11.2617 13.9805 9.97266 13.043 9.17578C12.6094 8.8125 12.3633 8.69531 11.9531 8.69531C11.4141 8.69531 11.0391 9.02344 11.0391 9.50391C11.0391 10.0898 11.3789 10.2422 11.918 10.7344C12.4102 11.2148 12.6914 11.9414 12.6914 12.832C12.6914 15.5508 10.5586 17.3672 7.35938 17.3672C4.07812 17.3672 1.88672 15.2695 1.88672 12.1172C1.88672 10.3125 2.80078 8.60156 4.30078 7.64062L3.36328 6.01172C1.27734 7.3125 0 9.64453 0 12.1289ZM3.16406 6.02344C3.16406 8.63672 4.98047 10.5 7.85156 10.5C8.35547 10.5 8.78906 10.0664 8.78906 9.5625C8.78906 9.04688 8.35547 8.61328 7.85156 8.61328C6.11719 8.61328 5.05078 7.52344 5.05078 6.02344C5.05078 4.35938 6.42188 3.1875 8.26172 3.1875C9.11719 3.1875 10.0312 3.45703 10.875 4.03125L11.9766 2.49609C10.8047 1.67578 9.50391 1.30078 8.27344 1.30078C5.4375 1.30078 3.16406 3.24609 3.16406 6.02344ZM9.41016 5.70703C9.38672 6.31641 9.79688 6.72656 10.3359 6.72656C10.8516 6.72656 11.25 6.38672 11.2734 5.78906C11.3555 3.5625 12.9727 1.93359 15.2461 1.93359C16.6172 1.93359 17.8125 2.66016 18.293 3.73828C18.3867 3.90234 18.5156 3.91406 18.7383 3.85547C19.125 3.75 19.5586 3.69141 19.9805 3.69141C22.0781 3.71484 24.0703 5.28516 24.0703 7.81641C24.0703 13.3125 16.3359 12.5625 16.3359 17.9297C16.3359 20.4844 18.3633 22.0781 20.9883 22.0781C21.2695 22.0781 21.5742 22.0664 21.8789 22.0547C22.1484 24.0469 23.4023 25.9805 25.4297 25.9805C28.3594 25.9805 29.7891 22.418 29.7891 18.9492C29.7891 17.4375 29.707 16.418 29.6016 15.457L27.7148 15.9844C27.8203 16.9219 27.9141 17.8008 27.9141 18.9258C27.9141 21.7734 26.8359 24.0938 25.4297 24.0938C23.9766 24.0938 23.3906 22.1602 23.3906 20.6133C23.3906 20.4961 23.3203 20.4141 23.1562 20.4258C22.8281 20.4258 22.3828 20.4258 22.0898 20.4258C19.7578 20.4258 18.2227 19.7109 18.2227 17.8945C18.2227 13.6055 25.957 14.5781 25.957 7.81641C25.957 4.20703 23.2852 1.80469 20.2266 1.80469C19.9922 1.80469 19.6641 1.83984 19.3359 1.92188C18.3984 0.761719 16.8984 0.0585938 15.2578 0.0585938C11.9297 0.0585938 9.55078 2.39062 9.41016 5.70703ZM23.1914 17.2031C23.1914 17.7305 23.6133 18.1055 24.1406 18.1406C28.1602 18.3984 30.8438 16.0312 30.8438 12.2227C30.8438 9.11719 28.6289 6.73828 25.3008 6.29297L25.0078 8.16797C27.375 8.20312 28.957 9.82031 28.957 12.2227C28.957 14.8711 27.0234 16.4883 24.1406 16.2656C23.6133 16.2188 23.1914 16.6875 23.1914 17.2031ZM17.168 18.7266C16.4766 18.9727 15.668 19.0898 14.9062 19.0898C12.9258 19.0898 10.9102 18.3164 10.1367 17.1211L8.57812 18.3867C9.80859 19.9219 12.0352 20.9766 14.707 20.9766C15.668 20.9766 16.7461 20.8359 17.8125 20.5195ZM13.4062 10.4531L14.0391 12.2344C16.9922 11.6602 18.3164 9.80859 18.3164 7.06641C18.3164 6.55078 17.8828 6.12891 17.3672 6.12891C16.8516 6.12891 16.4297 6.55078 16.4297 7.06641C16.4297 8.98828 15.6094 10.1367 13.4062 10.4531Z" fill="#000000"/>
</svg>
