<?xml version="1.0" encoding="UTF-8"?>

<!--
  - Copyright (c) 2023. Compose Cupertino project and open source contributors.
  -
  -  Licensed under the Apache License, Version 2.0 (the "License");
  -  you may not use this file except in compliance with the License.
  -  You may obtain a copy of the License at
  -
  -      http://www.apache.org/licenses/LICENSE-2.0
  -
  -  Unless required by applicable law or agreed to in writing, software
  -  distributed under the License is distributed on an "AS IS" BASIS,
  -  WITHOUT WARRANTIES OR CONDITIONS OF ANY KIND, either express or implied.
  -  See the License for the specific language governing permissions and
  -  limitations under the License.
  -
  -->

<svg version="1.1" xmlns="http://www.w3.org/2000/svg" xmlns:xlink="http://www.w3.org/1999/xlink" width="25.4766" height="30.6211">
 <g>
  <path d="M14.7305 30.5273C19.4414 30.5273 22.2539 28.8633 22.2539 26.0977L22.2539 19.6641C24.2812 17.9297 25.4766 15.1055 25.4766 11.9883C25.4766 4.78125 20.8008 0 13.8047 0C6.84375 0 2.20312 4.6875 2.20312 11.7188C2.20312 12.1523 2.21484 12.5039 2.25 12.832L0.621094 15.75C0.199219 16.5117 0 17.2266 0 17.8945C0 19.1953 0.820312 20.2383 2.20312 20.543L2.20312 23.1914C2.20312 25.4062 3.73828 26.4727 5.75391 26.2617L8.14453 26.0039L7.3125 25.125L7.3125 26.0977C7.3125 28.8633 10.0781 30.5273 14.7305 30.5273ZM14.7305 28.6406C11.2148 28.6406 9.09375 27.5273 9.09375 25.7227L9.09375 24.2344C9.09375 24.0703 9 24 8.83594 24.0117L5.50781 24.3867C4.60547 24.4805 4.08984 24.082 4.08984 23.0508L4.08984 19.1602C4.08984 19.043 3.99609 18.9609 3.85547 18.9609L3.23438 18.9609C2.39062 18.9609 1.91016 18.5391 1.91016 17.8594C1.91016 17.5195 2.02734 17.1094 2.26172 16.6875L4.19531 13.2188C4.11328 12.7031 4.07812 12.1875 4.07812 11.6953C4.07812 5.80078 7.95703 1.88672 13.8047 1.88672C19.6641 1.88672 23.5898 5.91797 23.5898 11.9883C23.5898 14.9062 22.3711 17.4375 20.3672 18.7266L20.3672 25.7227C20.3672 27.5273 18.2461 28.6406 14.7305 28.6406Z" fill="#000000"/>
  <path d="M6 9.72656C6 11.9883 7.57031 13.5117 9.89062 13.5117C12.1758 13.5117 13.7344 12.1523 13.7344 10.1133C13.7344 9.26953 13.4414 8.55469 12.9023 8.10938C12.668 7.91016 12.5039 7.83984 12.2812 7.83984C11.9414 7.83984 11.6836 8.0625 11.6836 8.39062C11.6836 8.75391 11.918 8.87109 12.1523 9.09375C12.3867 9.32812 12.5273 9.66797 12.5273 10.0898C12.5273 11.4141 11.4844 12.293 9.90234 12.293C8.28516 12.293 7.21875 11.2734 7.21875 9.72656C7.21875 8.78906 7.71094 7.92188 8.51953 7.46484L7.91016 6.375C6.75 7.05469 6 8.35547 6 9.72656ZM7.61719 6.58594C7.61719 8.03906 8.64844 9.02344 10.1602 9.02344C10.4766 9.02344 10.7695 8.74219 10.7695 8.41406C10.7695 8.08594 10.4883 7.80469 10.1602 7.80469C9.36328 7.80469 8.83594 7.32422 8.83594 6.58594C8.83594 5.8125 9.48047 5.25 10.3711 5.25C10.8516 5.25 11.3438 5.42578 11.7422 5.73047L12.457 4.73438C11.8477 4.27734 11.1328 4.03125 10.3828 4.03125C8.8125 4.03125 7.61719 5.12109 7.61719 6.58594ZM10.8281 6.42188C10.8164 6.78516 11.0742 7.06641 11.4375 7.06641C11.7891 7.06641 12.0234 6.83203 12.0352 6.46875C12.0938 5.36719 12.8789 4.60547 13.9688 4.59375C14.6133 4.59375 15.1875 4.93359 15.4102 5.47266C15.5039 5.64844 15.6914 5.64844 15.9609 5.57812C16.1016 5.53125 16.2656 5.51953 16.4297 5.51953C17.5312 5.51953 18.3867 6.375 18.3867 7.51172C18.3867 10.2656 14.3672 9.79688 14.3672 12.7266C14.3672 14.0508 15.4336 14.9883 16.9336 14.9883C17.0391 14.9883 17.1445 14.9883 17.2734 14.9883C17.4727 16.1836 18.2461 17.0039 19.207 17.0039C20.5898 17.0039 21.5742 15.4219 21.5742 13.2305C21.5742 12.375 21.5156 11.8125 21.4688 11.2734L20.2266 11.625C20.2852 12.1523 20.3555 12.6094 20.3555 13.207C20.3555 14.6484 19.8398 15.7852 19.207 15.7852C18.6562 15.7852 18.293 15.1055 18.293 14.1211C18.293 13.957 18.1758 13.875 18.0234 13.875C17.8359 13.875 17.6133 13.8867 17.4727 13.8867C16.2188 13.8867 15.5977 13.4883 15.5977 12.7148C15.5977 10.582 19.6172 11.1914 19.6172 7.51172C19.6172 5.68359 18.2812 4.28906 16.5469 4.28906C16.418 4.28906 16.2656 4.30078 16.1133 4.33594C15.5977 3.73828 14.8125 3.38672 13.9688 3.38672C12.1992 3.38672 10.8984 4.62891 10.8281 6.42188ZM17.9531 12.3281C17.9531 12.6562 18.1992 12.9141 18.5391 12.9492C20.6719 13.0781 22.125 11.8008 22.125 9.78516C22.125 8.0625 20.8711 6.76172 19.0195 6.58594L18.832 7.81641C20.0742 7.75781 20.9062 8.55469 20.9062 9.78516C20.9062 11.0508 19.9805 11.8359 18.5625 11.7305C18.2461 11.707 17.9531 12 17.9531 12.3281ZM15.0234 12.9961C14.6602 13.1367 14.1914 13.2188 13.7578 13.2188C12.668 13.2188 11.6367 12.75 11.3555 12.1172L10.3359 12.9609C11.0156 13.8867 12.2578 14.4375 13.6641 14.4375C14.2383 14.4375 14.8594 14.3438 15.4219 14.1562ZM12.832 8.77734L13.2305 9.94922C14.8242 9.67969 15.668 8.71875 15.668 7.13672C15.668 6.82031 15.375 6.52734 15.0469 6.52734C14.7188 6.52734 14.4492 6.80859 14.4492 7.14844C14.4492 8.17969 13.957 8.66016 12.832 8.77734Z" fill="#000000"/>
 </g>
</svg>
