<?xml version="1.0" encoding="UTF-8"?>

<!--
  - Copyright (c) 2023. Compose Cupertino project and open source contributors.
  -
  -  Licensed under the Apache License, Version 2.0 (the "License");
  -  you may not use this file except in compliance with the License.
  -  You may obtain a copy of the License at
  -
  -      http://www.apache.org/licenses/LICENSE-2.0
  -
  -  Unless required by applicable law or agreed to in writing, software
  -  distributed under the License is distributed on an "AS IS" BASIS,
  -  WITHOUT WARRANTIES OR CONDITIONS OF ANY KIND, either express or implied.
  -  See the License for the specific language governing permissions and
  -  limitations under the License.
  -
  -->

<svg version="1.1" xmlns="http://www.w3.org/2000/svg" xmlns:xlink="http://www.w3.org/1999/xlink" width="26.0977" height="25.0195">
  <path d="M3.62109 22.7109L22.4766 22.7109C24.9023 22.7109 26.0977 21.5273 26.0977 19.1367L26.0977 7.73438C26.0977 5.33203 24.9023 4.16016 22.4766 4.16016L3.62109 4.16016C1.20703 4.16016 0 5.33203 0 7.73438L0 19.1367C0 21.5273 1.20703 22.7109 3.62109 22.7109ZM3.64453 20.8359C2.49609 20.8359 1.88672 20.2383 1.88672 19.043L1.88672 7.82812C1.88672 6.62109 2.49609 6.03516 3.64453 6.03516L22.4531 6.03516C23.6016 6.03516 24.2109 6.62109 24.2109 7.82812L24.2109 19.043C24.2109 20.2383 23.6016 20.8359 22.4531 20.8359ZM0.972656 10.9688C4.60547 12.2109 8.70703 12.8438 13.0547 12.8438C17.3906 12.8438 21.4922 12.2109 25.125 10.9688L25.125 8.96484C21.5742 10.3359 17.4844 11.0273 13.0547 11.0273C8.61328 11.0273 4.52344 10.3359 0.972656 8.96484ZM11.2266 14.9531L14.8711 14.9531C15.7031 14.9531 16.1719 14.4961 16.1719 13.6758L16.1719 11.8828L9.9375 11.8828L9.9375 13.6758C9.9375 14.4961 10.4062 14.9531 11.2266 14.9531ZM7.11328 5.17969L8.92969 5.17969L8.92969 3.10547C8.92969 2.21484 9.44531 1.71094 10.3594 1.71094L15.7383 1.71094C16.6523 1.71094 17.1797 2.21484 17.1797 3.10547L17.1797 5.15625L18.9961 5.15625L18.9961 3.23438C18.9961 1.03125 17.8359 0 15.7148 0L10.3828 0C8.39062 0 7.11328 1.03125 7.11328 3.23438Z" fill="#000000"/>
</svg>
