<?xml version="1.0" encoding="UTF-8"?>

<!--
  - Copyright (c) 2023. Compose Cupertino project and open source contributors.
  -
  -  Licensed under the Apache License, Version 2.0 (the "License");
  -  you may not use this file except in compliance with the License.
  -  You may obtain a copy of the License at
  -
  -      http://www.apache.org/licenses/LICENSE-2.0
  -
  -  Unless required by applicable law or agreed to in writing, software
  -  distributed under the License is distributed on an "AS IS" BASIS,
  -  WITHOUT WARRANTIES OR CONDITIONS OF ANY KIND, either express or implied.
  -  See the License for the specific language governing permissions and
  -  limitations under the License.
  -
  -->

<svg version="1.1" xmlns="http://www.w3.org/2000/svg" xmlns:xlink="http://www.w3.org/1999/xlink" width="25.8281" height="25.7461">
  <path d="M18.6211 25.7461C19.4414 25.7461 19.8984 25.1602 19.8984 24.2578L19.8984 21.2109L20.4609 21.2109C23.9531 21.2109 25.8281 19.2891 25.8281 15.8438L25.8281 6.86719C25.8281 3.42188 23.9531 1.5 20.4609 1.5L5.36719 1.5C1.875 1.5 0 3.43359 0 6.86719L0 15.8438C0 19.2773 1.875 21.2109 5.36719 21.2109L12.8906 21.2109L16.9336 24.8086C17.6484 25.4414 18.0469 25.7461 18.6211 25.7461ZM18.1406 23.6016L14.3906 19.875C13.9453 19.418 13.6172 19.3242 12.9609 19.3242L5.36719 19.3242C3.01172 19.3242 1.88672 18.1172 1.88672 15.832L1.88672 6.86719C1.88672 4.58203 3.01172 3.38672 5.36719 3.38672L20.4609 3.38672C22.8281 3.38672 23.9414 4.58203 23.9414 6.86719L23.9414 15.832C23.9414 18.1172 22.8281 19.3242 20.4609 19.3242L19.0195 19.3242C18.3867 19.3242 18.1406 19.5703 18.1406 20.2031Z" fill="#000000"/>
</svg>
