<?xml version="1.0" encoding="UTF-8"?>

<!--
  - Copyright (c) 2023. Compose Cupertino project and open source contributors.
  -
  -  Licensed under the Apache License, Version 2.0 (the "License");
  -  you may not use this file except in compliance with the License.
  -  You may obtain a copy of the License at
  -
  -      http://www.apache.org/licenses/LICENSE-2.0
  -
  -  Unless required by applicable law or agreed to in writing, software
  -  distributed under the License is distributed on an "AS IS" BASIS,
  -  WITHOUT WARRANTIES OR CONDITIONS OF ANY KIND, either express or implied.
  -  See the License for the specific language governing permissions and
  -  limitations under the License.
  -
  -->

<svg version="1.1" xmlns="http://www.w3.org/2000/svg" xmlns:xlink="http://www.w3.org/1999/xlink" width="18.6562" height="24.9961">
  <path d="M0 22.8633C0 24.1641 0.75 24.9961 1.94531 24.9961L16.7227 24.9961C17.9062 24.9961 18.6562 24.1641 18.6562 22.8633L18.6562 2.14453C18.6562 0.84375 17.9062 0.0117188 16.7227 0.0117188L1.94531 0.0117188C0.75 0.0117188 0 0.84375 0 2.14453ZM1.88672 22.4297L1.88672 2.57812C1.88672 2.10938 2.09766 1.89844 2.56641 1.89844L16.1016 1.89844C16.5586 1.89844 16.7695 2.10938 16.7695 2.57812L16.7695 22.4297C16.7695 22.8867 16.5586 23.1094 16.1016 23.1094L2.56641 23.1094C2.09766 23.1094 1.88672 22.8867 1.88672 22.4297ZM5.25 24L6.78516 24L6.78516 20.0859C6.78516 19.8398 6.91406 19.7109 7.16016 19.7109L11.4961 19.7109C11.7539 19.7109 11.8711 19.8398 11.8711 20.0859L11.8711 24L13.4062 24L13.4062 19.6523C13.4062 18.6445 12.9609 18.1758 12 18.1758L6.65625 18.1758C5.69531 18.1758 5.25 18.6445 5.25 19.6523ZM5.4375 7.01953L7.72266 7.01953C8.00391 7.01953 8.20312 6.83203 8.20312 6.53906L8.20312 4.32422C8.20312 4.04297 8.00391 3.84375 7.72266 3.84375L5.4375 3.84375C5.15625 3.84375 4.98047 4.04297 4.98047 4.32422L4.98047 6.53906C4.98047 6.83203 5.15625 7.01953 5.4375 7.01953ZM10.9336 7.01953L13.207 7.01953C13.4883 7.01953 13.6875 6.83203 13.6875 6.53906L13.6875 4.32422C13.6875 4.04297 13.4883 3.84375 13.207 3.84375L10.9336 3.84375C10.6406 3.84375 10.4648 4.04297 10.4648 4.32422L10.4648 6.53906C10.4648 6.83203 10.6406 7.01953 10.9336 7.01953ZM5.4375 11.6602L7.72266 11.6602C8.00391 11.6602 8.20312 11.4727 8.20312 11.1797L8.20312 8.96484C8.20312 8.68359 8.00391 8.48438 7.72266 8.48438L5.4375 8.48438C5.15625 8.48438 4.98047 8.68359 4.98047 8.96484L4.98047 11.1797C4.98047 11.4727 5.15625 11.6602 5.4375 11.6602ZM10.9336 11.6602L13.207 11.6602C13.4883 11.6602 13.6875 11.4727 13.6875 11.1797L13.6875 8.96484C13.6875 8.68359 13.4883 8.48438 13.207 8.48438L10.9336 8.48438C10.6406 8.48438 10.4648 8.68359 10.4648 8.96484L10.4648 11.1797C10.4648 11.4727 10.6406 11.6602 10.9336 11.6602ZM5.4375 16.3008L7.72266 16.3008C8.00391 16.3008 8.20312 16.1016 8.20312 15.8203L8.20312 13.6055C8.20312 13.3125 8.00391 13.125 7.72266 13.125L5.4375 13.125C5.15625 13.125 4.98047 13.3125 4.98047 13.6055L4.98047 15.8203C4.98047 16.1016 5.15625 16.3008 5.4375 16.3008ZM10.9336 16.3008L13.207 16.3008C13.4883 16.3008 13.6875 16.1016 13.6875 15.8203L13.6875 13.6055C13.6875 13.3125 13.4883 13.125 13.207 13.125L10.9336 13.125C10.6406 13.125 10.4648 13.3125 10.4648 13.6055L10.4648 15.8203C10.4648 16.1016 10.6406 16.3008 10.9336 16.3008Z" fill="#000000"/>
</svg>
