<?xml version="1.0" encoding="UTF-8"?>

<!--
  - Copyright (c) 2023. Compose Cupertino project and open source contributors.
  -
  -  Licensed under the Apache License, Version 2.0 (the "License");
  -  you may not use this file except in compliance with the License.
  -  You may obtain a copy of the License at
  -
  -      http://www.apache.org/licenses/LICENSE-2.0
  -
  -  Unless required by applicable law or agreed to in writing, software
  -  distributed under the License is distributed on an "AS IS" BASIS,
  -  WITHOUT WARRANTIES OR CONDITIONS OF ANY KIND, either express or implied.
  -  See the License for the specific language governing permissions and
  -  limitations under the License.
  -
  -->

<svg version="1.1" xmlns="http://www.w3.org/2000/svg" xmlns:xlink="http://www.w3.org/1999/xlink" width="23.9062" height="23.918">
  <path d="M0 11.9531C0 18.4805 5.42578 23.9062 11.9531 23.9062C18.4922 23.9062 23.9062 18.4805 23.9062 11.9531C23.9062 5.41406 18.4805 0 11.9414 0C5.41406 0 0 5.41406 0 11.9531ZM2.00391 11.9531L11.9297 11.9531L6.96094 3.31641C8.41406 2.46094 10.125 1.99219 11.9414 1.99219C13.7578 1.99219 15.4688 2.46094 16.9219 3.31641L11.9297 11.9531L21.9141 11.9531C21.9258 15.668 19.9219 18.8906 16.9336 20.5898L11.9297 11.9531L6.96094 20.5781C3.98438 18.8672 2.00391 15.6562 2.00391 11.9531Z" fill="#000000"/>
</svg>
