<?xml version="1.0" encoding="UTF-8"?>

<!--
  - Copyright (c) 2023. Compose Cupertino project and open source contributors.
  -
  -  Licensed under the Apache License, Version 2.0 (the "License");
  -  you may not use this file except in compliance with the License.
  -  You may obtain a copy of the License at
  -
  -      http://www.apache.org/licenses/LICENSE-2.0
  -
  -  Unless required by applicable law or agreed to in writing, software
  -  distributed under the License is distributed on an "AS IS" BASIS,
  -  WITHOUT WARRANTIES OR CONDITIONS OF ANY KIND, either express or implied.
  -  See the License for the specific language governing permissions and
  -  limitations under the License.
  -
  -->

<svg version="1.1" xmlns="http://www.w3.org/2000/svg" xmlns:xlink="http://www.w3.org/1999/xlink" width="30.375" height="28.793">
  <path d="M29.332 15.4336C30.0352 15.0938 30.375 14.6133 30.375 14.1211C30.375 13.6406 30.0352 13.1953 29.332 12.9492L23.625 10.9805L26.0742 5.97656C26.1914 5.71875 26.25 5.46094 26.25 5.22656C26.25 4.54688 25.7344 4.04297 25.0547 4.04297C24.8203 4.04297 24.5742 4.08984 24.3164 4.21875L19.1367 6.75L16.4414 0.972656C16.1484 0.328125 15.668 0 15.1875 0C14.707 0 14.2383 0.328125 13.9336 0.972656L11.25 6.75L6.05859 4.21875C5.80078 4.08984 5.55469 4.04297 5.32031 4.04297C4.64062 4.04297 4.125 4.54688 4.125 5.22656C4.125 5.46094 4.18359 5.71875 4.3125 5.97656L6.75 10.9805L1.04297 12.9492C0.351562 13.1836 0 13.6523 0 14.1328C0 14.6133 0.351562 15.0938 1.04297 15.4336L6.51562 18.0586L3.5625 24.3164C3.42188 24.5977 3.36328 24.8672 3.36328 25.1133C3.36328 25.7227 3.77344 26.1562 4.34766 26.1562C4.59375 26.1562 4.86328 26.0742 5.14453 25.9102L12.1406 21.7734L14.0625 27.7031C14.2734 28.3594 14.7305 28.6992 15.1875 28.6992C15.6562 28.6992 16.1016 28.3594 16.3125 27.7031L18.2461 21.7734L25.2305 25.9102C25.5117 26.0742 25.7812 26.1445 26.0273 26.1445C26.5898 26.1445 27.0234 25.7344 27.0234 25.125C27.0234 24.8789 26.9531 24.5977 26.8125 24.3164L23.8594 18.0586ZM27.8672 14.1445L27.8672 14.2266L21.8672 16.8516C21.6445 16.9453 21.5273 17.0977 21.5273 17.2852C21.5273 17.3555 21.5625 17.4492 21.6094 17.5312L24.6914 23.7539L24.6328 23.8242L17.7305 19.4648C17.625 19.4062 17.5195 19.3594 17.4258 19.3594C17.2383 19.3594 17.0859 19.5 17.0273 19.7344L15.2227 25.8047L15.1523 25.8047L13.3594 19.7344C13.2891 19.5 13.1367 19.3594 12.9492 19.3594C12.8555 19.3594 12.75 19.4062 12.6445 19.4648L5.75391 23.8242L5.68359 23.7539L8.76562 17.5312C8.82422 17.4492 8.84766 17.3555 8.84766 17.2852C8.84766 17.0977 8.73047 16.9453 8.51953 16.8516L2.50781 14.2266L2.50781 14.1445L8.74219 12.2227C8.97656 12.1523 9.10547 12 9.10547 11.8125C9.10547 11.7188 9.08203 11.625 9.02344 11.5312L6.22266 6.1875L6.28125 6.12891L11.6719 8.96484C11.7656 9.02344 11.8594 9.04688 11.9531 9.04688C12.1289 9.04688 12.2695 8.94141 12.3516 8.73047L15.1523 2.46094L15.2227 2.46094L18.0234 8.73047C18.1055 8.94141 18.2461 9.04688 18.4219 9.04688C18.5156 9.04688 18.6094 9.02344 18.7148 8.96484L24.0938 6.12891L24.1523 6.1875L21.3516 11.5312C21.293 11.625 21.2695 11.7188 21.2695 11.8125C21.2695 12 21.3984 12.1523 21.6328 12.2227Z" fill="#000000"/>
</svg>
