<?xml version="1.0" encoding="UTF-8"?>

<svg version="1.1" xmlns="http://www.w3.org/2000/svg" xmlns:xlink="http://www.w3.org/1999/xlink" width="7.62891" height="26.7539">
 <g>
  <path d="M2.84766 26.7422L4.80469 26.7422L4.80469 15.4922L2.84766 15.4922ZM1.44141 17.2734L6.19922 17.2734C7.21875 17.2734 7.62891 16.8633 7.62891 15.832L7.62891 6.82031C7.62891 5.80078 7.21875 5.37891 6.19922 5.37891L1.44141 5.37891C0.410156 5.37891 0 5.80078 0 6.82031L0 15.832C0 16.8633 0.410156 17.2734 1.44141 17.2734Z" fill="#000000"/>
  <path d="M1.53516 4.00781L6.09375 4.00781L6.09375 1.44141C6.09375 0.410156 5.67188 0 4.65234 0L2.98828 0C1.95703 0 1.53516 0.410156 1.53516 1.44141Z" fill="#000000"/>
 </g>
</svg>
