<?xml version="1.0" encoding="UTF-8"?>

<!--
  - Copyright (c) 2023. Compose Cupertino project and open source contributors.
  -
  -  Licensed under the Apache License, Version 2.0 (the "License");
  -  you may not use this file except in compliance with the License.
  -  You may obtain a copy of the License at
  -
  -      http://www.apache.org/licenses/LICENSE-2.0
  -
  -  Unless required by applicable law or agreed to in writing, software
  -  distributed under the License is distributed on an "AS IS" BASIS,
  -  WITHOUT WARRANTIES OR CONDITIONS OF ANY KIND, either express or implied.
  -  See the License for the specific language governing permissions and
  -  limitations under the License.
  -
  -->

<svg version="1.1" xmlns="http://www.w3.org/2000/svg" xmlns:xlink="http://www.w3.org/1999/xlink" width="23.3555" height="21.5977">
  <path d="M3.67969 21.5977L19.6875 21.5977C22.1367 21.5977 23.3555 20.3789 23.3555 17.9648L23.3555 3.65625C23.3555 1.24219 22.1367 0.0234375 19.6875 0.0234375L3.67969 0.0234375C1.23047 0.0234375 0 1.23047 0 3.65625L0 17.9648C0 20.3906 1.23047 21.5977 3.67969 21.5977ZM3.50391 19.7109C2.46094 19.7109 1.88672 19.1602 1.88672 18.0703L1.88672 7.01953C1.88672 5.94141 2.46094 5.37891 3.50391 5.37891L19.8398 5.37891C20.8828 5.37891 21.4688 5.94141 21.4688 7.01953L21.4688 18.0703C21.4688 19.1602 20.8828 19.7109 19.8398 19.7109ZM9.39844 9.58594L10.0898 9.58594C10.5 9.58594 10.6289 9.46875 10.6289 9.05859L10.6289 8.36719C10.6289 7.95703 10.5 7.82812 10.0898 7.82812L9.39844 7.82812C8.98828 7.82812 8.84766 7.95703 8.84766 8.36719L8.84766 9.05859C8.84766 9.46875 8.98828 9.58594 9.39844 9.58594ZM13.2891 9.58594L13.9805 9.58594C14.3906 9.58594 14.5312 9.46875 14.5312 9.05859L14.5312 8.36719C14.5312 7.95703 14.3906 7.82812 13.9805 7.82812L13.2891 7.82812C12.8789 7.82812 12.7383 7.95703 12.7383 8.36719L12.7383 9.05859C12.7383 9.46875 12.8789 9.58594 13.2891 9.58594ZM17.1797 9.58594L17.8711 9.58594C18.2812 9.58594 18.4219 9.46875 18.4219 9.05859L18.4219 8.36719C18.4219 7.95703 18.2812 7.82812 17.8711 7.82812L17.1797 7.82812C16.7695 7.82812 16.6406 7.95703 16.6406 8.36719L16.6406 9.05859C16.6406 9.46875 16.7695 9.58594 17.1797 9.58594ZM5.50781 13.418L6.1875 13.418C6.60938 13.418 6.73828 13.3008 6.73828 12.8906L6.73828 12.1992C6.73828 11.7891 6.60938 11.6719 6.1875 11.6719L5.50781 11.6719C5.08594 11.6719 4.95703 11.7891 4.95703 12.1992L4.95703 12.8906C4.95703 13.3008 5.08594 13.418 5.50781 13.418ZM9.39844 13.418L10.0898 13.418C10.5 13.418 10.6289 13.3008 10.6289 12.8906L10.6289 12.1992C10.6289 11.7891 10.5 11.6719 10.0898 11.6719L9.39844 11.6719C8.98828 11.6719 8.84766 11.7891 8.84766 12.1992L8.84766 12.8906C8.84766 13.3008 8.98828 13.418 9.39844 13.418ZM13.2891 13.418L13.9805 13.418C14.3906 13.418 14.5312 13.3008 14.5312 12.8906L14.5312 12.1992C14.5312 11.7891 14.3906 11.6719 13.9805 11.6719L13.2891 11.6719C12.8789 11.6719 12.7383 11.7891 12.7383 12.1992L12.7383 12.8906C12.7383 13.3008 12.8789 13.418 13.2891 13.418ZM17.1797 13.418L17.8711 13.418C18.2812 13.418 18.4219 13.3008 18.4219 12.8906L18.4219 12.1992C18.4219 11.7891 18.2812 11.6719 17.8711 11.6719L17.1797 11.6719C16.7695 11.6719 16.6406 11.7891 16.6406 12.1992L16.6406 12.8906C16.6406 13.3008 16.7695 13.418 17.1797 13.418ZM5.50781 17.2617L6.1875 17.2617C6.60938 17.2617 6.73828 17.1328 6.73828 16.7227L6.73828 16.0312C6.73828 15.6211 6.60938 15.5039 6.1875 15.5039L5.50781 15.5039C5.08594 15.5039 4.95703 15.6211 4.95703 16.0312L4.95703 16.7227C4.95703 17.1328 5.08594 17.2617 5.50781 17.2617ZM9.39844 17.2617L10.0898 17.2617C10.5 17.2617 10.6289 17.1328 10.6289 16.7227L10.6289 16.0312C10.6289 15.6211 10.5 15.5039 10.0898 15.5039L9.39844 15.5039C8.98828 15.5039 8.84766 15.6211 8.84766 16.0312L8.84766 16.7227C8.84766 17.1328 8.98828 17.2617 9.39844 17.2617ZM13.2891 17.2617L13.9805 17.2617C14.3906 17.2617 14.5312 17.1328 14.5312 16.7227L14.5312 16.0312C14.5312 15.6211 14.3906 15.5039 13.9805 15.5039L13.2891 15.5039C12.8789 15.5039 12.7383 15.6211 12.7383 16.0312L12.7383 16.7227C12.7383 17.1328 12.8789 17.2617 13.2891 17.2617Z" fill="#000000"/>
</svg>
