<?xml version="1.0" encoding="UTF-8"?>

<!--
  - Copyright (c) 2023. Compose Cupertino project and open source contributors.
  -
  -  Licensed under the Apache License, Version 2.0 (the "License");
  -  you may not use this file except in compliance with the License.
  -  You may obtain a copy of the License at
  -
  -      http://www.apache.org/licenses/LICENSE-2.0
  -
  -  Unless required by applicable law or agreed to in writing, software
  -  distributed under the License is distributed on an "AS IS" BASIS,
  -  WITHOUT WARRANTIES OR CONDITIONS OF ANY KIND, either express or implied.
  -  See the License for the specific language governing permissions and
  -  limitations under the License.
  -
  -->

<svg version="1.1" xmlns="http://www.w3.org/2000/svg" xmlns:xlink="http://www.w3.org/1999/xlink" width="25.8398" height="24.6211">
 <g>
  <path d="M8.25 24.6211C12.8086 24.6211 16.5 20.918 16.5 16.3594C16.5 11.8242 12.7969 8.12109 8.25 8.12109C3.70312 8.12109 0 11.8242 0 16.3594C0 20.918 3.70312 24.6211 8.25 24.6211ZM8.25 22.7461C4.72266 22.7461 1.875 19.8984 1.875 16.3594C1.875 12.8555 4.72266 9.99609 8.25 9.99609C11.7656 9.99609 14.625 12.8438 14.625 16.3594C14.625 19.8867 11.7656 22.7461 8.25 22.7461Z" fill="#000000"/>
  <path d="M17.6016 24.6211C22.1367 24.6211 25.8398 20.918 25.8398 16.3594C25.8398 11.8242 22.1367 8.12109 17.6016 8.12109C13.043 8.12109 9.33984 11.8242 9.33984 16.3594C9.33984 20.918 13.043 24.6211 17.6016 24.6211ZM17.6016 22.7461C14.0742 22.7461 11.2148 19.8984 11.2148 16.3594C11.2148 12.8555 14.0742 9.99609 17.6016 9.99609C21.1055 9.99609 23.9648 12.8438 23.9648 16.3594C23.9648 19.8867 21.1289 22.7461 17.6016 22.7461Z" fill="#000000"/>
  <path d="M12.9258 16.5703C17.4727 16.5703 21.1641 12.8789 21.1641 8.32031C21.1641 3.77344 17.4727 0.0703125 12.9258 0.0703125C8.36719 0.0703125 4.66406 3.77344 4.66406 8.32031C4.66406 12.8789 8.36719 16.5703 12.9258 16.5703ZM12.9258 14.6953C9.39844 14.6953 6.53906 11.8477 6.53906 8.32031C6.53906 4.80469 9.39844 1.94531 12.9258 1.94531C16.4297 1.94531 19.2891 4.80469 19.2891 8.32031C19.2891 11.8477 16.4414 14.6953 12.9258 14.6953Z" fill="#000000"/>
 </g>
</svg>
