<?xml version="1.0" encoding="UTF-8"?>

<!--
  - Copyright (c) 2023. Compose Cupertino project and open source contributors.
  -
  -  Licensed under the Apache License, Version 2.0 (the "License");
  -  you may not use this file except in compliance with the License.
  -  You may obtain a copy of the License at
  -
  -      http://www.apache.org/licenses/LICENSE-2.0
  -
  -  Unless required by applicable law or agreed to in writing, software
  -  distributed under the License is distributed on an "AS IS" BASIS,
  -  WITHOUT WARRANTIES OR CONDITIONS OF ANY KIND, either express or implied.
  -  See the License for the specific language governing permissions and
  -  limitations under the License.
  -
  -->

<svg version="1.1" xmlns="http://www.w3.org/2000/svg" xmlns:xlink="http://www.w3.org/1999/xlink" width="23.9062" height="23.918">
 <g>
  <path d="M11.9531 23.9062C18.4922 23.9062 23.9062 18.4805 23.9062 11.9531C23.9062 5.41406 18.4805 0 11.9414 0C5.41406 0 0 5.41406 0 11.9531C0 18.4805 5.42578 23.9062 11.9531 23.9062ZM11.9531 21.9141C6.42188 21.9141 2.00391 17.4844 2.00391 11.9531C2.00391 6.42188 6.41016 1.99219 11.9414 1.99219C17.4727 1.99219 21.9141 6.42188 21.9141 11.9531C21.9141 17.4844 17.4844 21.9141 11.9531 21.9141Z" fill="#000000"/>
  <path d="M6.71484 17.25L17.168 17.25C18.3984 17.25 19.0312 16.6406 19.0312 15.4219L19.0312 9.22266C19.0312 7.99219 18.3984 7.38281 17.168 7.38281L15.6562 7.38281C15.1992 7.38281 15.0469 7.28906 14.7773 6.99609L14.3086 6.45703C14.0156 6.14062 13.7109 5.96484 13.1016 5.96484L10.7344 5.96484C10.1367 5.96484 9.83203 6.14062 9.52734 6.45703L9.04688 6.99609C8.77734 7.27734 8.64844 7.38281 8.17969 7.38281L6.71484 7.38281C5.47266 7.38281 4.85156 7.99219 4.85156 9.22266L4.85156 15.4219C4.85156 16.6406 5.47266 17.25 6.71484 17.25ZM11.9531 15.7734C10.0078 15.7734 8.4375 14.2148 8.4375 12.2578C8.4375 10.3125 10.0078 8.75391 11.9531 8.75391C13.8984 8.75391 15.457 10.3125 15.457 12.2578C15.457 14.25 13.8984 15.7734 11.9531 15.7734ZM11.9414 14.7656C13.3242 14.7656 14.4492 13.6523 14.4492 12.2578C14.4492 10.875 13.3242 9.76172 11.9414 9.76172C10.5586 9.76172 9.43359 10.875 9.43359 12.2578C9.43359 13.6523 10.5586 14.7656 11.9414 14.7656ZM16.6289 10.5703C16.1953 10.5703 15.832 10.2305 15.832 9.77344C15.832 9.33984 16.1953 8.98828 16.6289 8.98828C17.0625 8.98828 17.4141 9.33984 17.4141 9.77344C17.4258 10.2305 17.0625 10.5703 16.6289 10.5703Z" fill="#000000"/>
 </g>
</svg>
