<?xml version="1.0" encoding="UTF-8"?>

<!--
  - Copyright (c) 2023. Compose Cupertino project and open source contributors.
  -
  -  Licensed under the Apache License, Version 2.0 (the "License");
  -  you may not use this file except in compliance with the License.
  -  You may obtain a copy of the License at
  -
  -      http://www.apache.org/licenses/LICENSE-2.0
  -
  -  Unless required by applicable law or agreed to in writing, software
  -  distributed under the License is distributed on an "AS IS" BASIS,
  -  WITHOUT WARRANTIES OR CONDITIONS OF ANY KIND, either express or implied.
  -  See the License for the specific language governing permissions and
  -  limitations under the License.
  -
  -->

<svg version="1.1" xmlns="http://www.w3.org/2000/svg" xmlns:xlink="http://www.w3.org/1999/xlink" width="14.1211" height="23.3789">
  <path d="M3.1875 23.3789L10.9336 23.3789C12.8438 23.3789 14.1211 22.1602 14.1211 20.332L14.1211 3.04688C14.1211 1.21875 12.8438 0 10.9336 0L3.1875 0C1.27734 0 0 1.21875 0 3.04688L0 20.332C0 22.1602 1.27734 23.3789 3.1875 23.3789ZM3.43359 21.4922C2.4375 21.4922 1.88672 20.9648 1.88672 20.0273L1.88672 3.35156C1.88672 2.41406 2.4375 1.88672 3.43359 1.88672L10.6875 1.88672C11.6719 1.88672 12.2344 2.41406 12.2344 3.35156L12.2344 20.0273C12.2344 20.9648 11.6719 21.4922 10.6875 21.4922ZM4.00781 10.6523L10.1133 10.6523C10.7227 10.6523 11.0859 10.3242 11.0859 9.76172L11.0859 3.98438C11.0859 3.42188 10.7227 3.09375 10.1133 3.09375L4.00781 3.09375C3.39844 3.09375 3.03516 3.42188 3.03516 3.98438L3.03516 9.76172C3.03516 10.3242 3.39844 10.6523 4.00781 10.6523ZM3.79688 14.0859L4.875 14.0859C5.13281 14.0859 5.33203 13.9102 5.33203 13.6641L5.33203 12.5508C5.33203 12.3164 5.13281 12.1406 4.875 12.1406L3.79688 12.1406C3.55078 12.1406 3.375 12.3164 3.375 12.5508L3.375 13.6641C3.375 13.9102 3.55078 14.0859 3.79688 14.0859ZM6.48047 14.0859L7.55859 14.0859C7.81641 14.0859 8.00391 13.9102 8.00391 13.6641L8.00391 12.5508C8.00391 12.3164 7.81641 12.1406 7.55859 12.1406L6.48047 12.1406C6.23438 12.1406 6.05859 12.3164 6.05859 12.5508L6.05859 13.6641C6.05859 13.9102 6.23438 14.0859 6.48047 14.0859ZM9.16406 14.0859L10.2422 14.0859C10.5117 14.0859 10.6992 13.9102 10.6992 13.6641L10.6992 12.5508C10.6992 12.3164 10.5117 12.1406 10.2422 12.1406L9.16406 12.1406C8.91797 12.1406 8.74219 12.3164 8.74219 12.5508L8.74219 13.6641C8.74219 13.9102 8.91797 14.0859 9.16406 14.0859ZM3.79688 16.9688L4.875 16.9688C5.13281 16.9688 5.33203 16.793 5.33203 16.5586L5.33203 15.4453C5.33203 15.1992 5.13281 15.0234 4.875 15.0234L3.79688 15.0234C3.55078 15.0234 3.375 15.1992 3.375 15.4453L3.375 16.5586C3.375 16.793 3.55078 16.9688 3.79688 16.9688ZM6.48047 16.9688L7.55859 16.9688C7.81641 16.9688 8.00391 16.793 8.00391 16.5586L8.00391 15.4453C8.00391 15.1992 7.81641 15.0234 7.55859 15.0234L6.48047 15.0234C6.23438 15.0234 6.05859 15.1992 6.05859 15.4453L6.05859 16.5586C6.05859 16.793 6.23438 16.9688 6.48047 16.9688ZM9.16406 16.9688L10.2422 16.9688C10.5117 16.9688 10.6992 16.793 10.6992 16.5586L10.6992 15.4453C10.6992 15.1992 10.5117 15.0234 10.2422 15.0234L9.16406 15.0234C8.91797 15.0234 8.74219 15.1992 8.74219 15.4453L8.74219 16.5586C8.74219 16.793 8.91797 16.9688 9.16406 16.9688ZM3.79688 19.8633L4.875 19.8633C5.13281 19.8633 5.33203 19.6875 5.33203 19.4414L5.33203 18.3281C5.33203 18.082 5.13281 17.9062 4.875 17.9062L3.79688 17.9062C3.55078 17.9062 3.375 18.082 3.375 18.3281L3.375 19.4414C3.375 19.6875 3.55078 19.8633 3.79688 19.8633ZM6.48047 19.8633L7.55859 19.8633C7.81641 19.8633 8.00391 19.6875 8.00391 19.4414L8.00391 18.3281C8.00391 18.082 7.81641 17.9062 7.55859 17.9062L6.48047 17.9062C6.23438 17.9062 6.05859 18.082 6.05859 18.3281L6.05859 19.4414C6.05859 19.6875 6.23438 19.8633 6.48047 19.8633ZM9.16406 19.8633L10.2422 19.8633C10.5117 19.8633 10.6992 19.6875 10.6992 19.4414L10.6992 18.3281C10.6992 18.082 10.5117 17.9062 10.2422 17.9062L9.16406 17.9062C8.91797 17.9062 8.74219 18.082 8.74219 18.3281L8.74219 19.4414C8.74219 19.6875 8.91797 19.8633 9.16406 19.8633Z" fill="#000000"/>
</svg>
