<?xml version="1.0" encoding="UTF-8"?>

<!--
  - Copyright (c) 2023. Compose Cupertino project and open source contributors.
  -
  -  Licensed under the Apache License, Version 2.0 (the "License");
  -  you may not use this file except in compliance with the License.
  -  You may obtain a copy of the License at
  -
  -      http://www.apache.org/licenses/LICENSE-2.0
  -
  -  Unless required by applicable law or agreed to in writing, software
  -  distributed under the License is distributed on an "AS IS" BASIS,
  -  WITHOUT WARRANTIES OR CONDITIONS OF ANY KIND, either express or implied.
  -  See the License for the specific language governing permissions and
  -  limitations under the License.
  -
  -->

<svg version="1.1" xmlns="http://www.w3.org/2000/svg" xmlns:xlink="http://www.w3.org/1999/xlink" width="24.6328" height="24.8555">
  <path d="M8.69531 17.332L15.9375 17.332C17.5781 17.332 18.4453 16.3711 18.4453 14.8242L18.4453 12.8203L22.8867 12.8203C23.8594 12.8203 24.6328 12.2461 24.6328 11.3438C24.6328 10.793 24.3516 10.3594 23.8242 9.90234L13.7695 1.03125C13.2773 0.609375 12.8438 0.328125 12.3164 0.328125C11.7891 0.328125 11.3555 0.609375 10.8633 1.03125L0.808594 9.91406C0.257812 10.3945 0 10.793 0 11.3438C0 12.2461 0.773438 12.8203 1.74609 12.8203L6.1875 12.8203L6.1875 14.8242C6.1875 16.3711 7.05469 17.332 8.69531 17.332ZM8.88281 15.5625C8.44922 15.5625 8.14453 15.2695 8.14453 14.8242L8.14453 11.4492C8.14453 11.168 8.03906 11.0508 7.74609 11.0508L2.64844 11.0508C2.56641 11.0508 2.51953 11.0156 2.51953 10.957C2.51953 10.9102 2.54297 10.8633 2.58984 10.8164L12.0703 2.58984C12.1641 2.49609 12.2344 2.46094 12.3164 2.46094C12.3984 2.46094 12.4688 2.49609 12.5625 2.58984L22.043 10.8164C22.0898 10.8633 22.1133 10.9102 22.1133 10.957C22.1133 11.0156 22.0664 11.0508 21.9844 11.0508L16.8867 11.0508C16.6055 11.0508 16.4883 11.168 16.4883 11.4492L16.4883 14.8242C16.4883 15.2578 16.1719 15.5625 15.75 15.5625ZM8.19141 24.8555L16.3359 24.8555C17.6953 24.8555 18.4688 24.1055 18.4688 22.7461L18.4688 21.0703C18.4688 19.6992 17.6953 18.9258 16.3359 18.9258L8.19141 18.9258C6.84375 18.9258 6.07031 19.7109 6.07031 21.0703L6.07031 22.7461C6.07031 24.0938 6.84375 24.8555 8.19141 24.8555ZM8.46094 23.2031C8.05078 23.2031 7.83984 22.9922 7.83984 22.582L7.83984 21.2344C7.83984 20.8242 8.05078 20.5781 8.46094 20.5781L16.0664 20.5781C16.4766 20.5781 16.6992 20.8242 16.6992 21.2344L16.6992 22.582C16.6992 22.9922 16.4766 23.2031 16.0664 23.2031Z" fill="#000000"/>
</svg>
