<?xml version="1.0" encoding="UTF-8"?>

<!--
  - Copyright (c) 2023. Compose Cupertino project and open source contributors.
  -
  -  Licensed under the Apache License, Version 2.0 (the "License");
  -  you may not use this file except in compliance with the License.
  -  You may obtain a copy of the License at
  -
  -      http://www.apache.org/licenses/LICENSE-2.0
  -
  -  Unless required by applicable law or agreed to in writing, software
  -  distributed under the License is distributed on an "AS IS" BASIS,
  -  WITHOUT WARRANTIES OR CONDITIONS OF ANY KIND, either express or implied.
  -  See the License for the specific language governing permissions and
  -  limitations under the License.
  -
  -->

<svg version="1.1" xmlns="http://www.w3.org/2000/svg" xmlns:xlink="http://www.w3.org/1999/xlink" width="27.7266" height="21.7852">
  <path d="M5.49609 7.37109C5.40234 7.78125 5.57812 7.94531 6.02344 7.92188C7.89844 7.79297 10.125 7.6875 13.8633 7.6875C17.6133 7.6875 19.8398 7.79297 21.7148 7.92188C22.1484 7.94531 22.3242 7.78125 22.2305 7.37109C21.9492 6.12891 21.4102 4.51172 21.0352 3.86719C20.7305 3.33984 20.3906 3.10547 19.7812 3.02344C18.9375 2.90625 17.0156 2.82422 13.8633 2.82422C10.7227 2.82422 8.80078 2.90625 7.94531 3.02344C7.33594 3.10547 6.99609 3.33984 6.69141 3.86719C6.31641 4.51172 5.78906 6.12891 5.49609 7.37109ZM5.41406 15.3516C6.48047 15.3516 7.30078 14.5312 7.30078 13.4648C7.30078 12.3867 6.48047 11.5781 5.41406 11.5781C4.34766 11.5781 3.52734 12.3867 3.52734 13.4648C3.52734 14.5312 4.34766 15.3516 5.41406 15.3516ZM10.7695 14.8828L16.9688 14.8828C17.7656 14.8828 18.3164 14.332 18.3164 13.5234C18.3164 12.7266 17.7656 12.1758 16.9688 12.1758L10.7695 12.1758C9.96094 12.1758 9.41016 12.7266 9.41016 13.5234C9.41016 14.332 9.96094 14.8828 10.7695 14.8828ZM22.3125 15.3516C23.3906 15.3516 24.1992 14.5312 24.1992 13.4648C24.1992 12.3867 23.3906 11.5781 22.3125 11.5781C21.2461 11.5781 20.4375 12.3867 20.4375 13.4648C20.4375 14.5312 21.2461 15.3516 22.3125 15.3516ZM13.8633 18.5156C17.8008 18.5156 23.0391 18.3164 25.2539 18.0586C26.8477 17.8828 27.7266 17.0039 27.7266 15.5039L27.7266 13.4414C27.7266 11.4609 27.3281 10.3594 26.25 8.95312L25.2539 7.67578C24.832 5.56641 24.0469 3.35156 23.6484 2.48438C23.0156 1.16016 21.8086 0.375 20.25 0.164062C19.4648 0.0585938 16.8984 0 13.8633 0C10.8398 0 8.27344 0.0703125 7.48828 0.164062C5.92969 0.351562 4.71094 1.16016 4.08984 2.48438C3.67969 3.35156 2.90625 5.56641 2.47266 7.67578L1.48828 8.95312C0.398438 10.3594 0 11.4609 0 13.4414L0 15.5039C0 17.0039 0.890625 17.8828 2.47266 18.0586C4.69922 18.3164 9.92578 18.5156 13.8633 18.5156ZM13.8633 16.9805C9.87891 16.9805 4.76953 16.793 2.88281 16.5586C1.88672 16.4414 1.53516 15.9258 1.53516 15.0352L1.53516 13.4414C1.53516 11.8359 1.79297 11.0859 2.70703 9.89062L3.90234 8.32031C4.21875 6.62109 4.98047 4.25391 5.48438 3.17578C5.85938 2.36719 6.59766 1.86328 7.66406 1.73438C8.41406 1.64062 10.793 1.53516 13.8633 1.53516C16.9453 1.53516 19.3594 1.64062 20.0391 1.73438C21.1406 1.875 21.8672 2.37891 22.2539 3.17578C22.7578 4.25391 23.5195 6.62109 23.8242 8.32031L25.0312 9.89062C25.9336 11.0859 26.1914 11.8359 26.1914 13.4414L26.1914 15.0352C26.1914 15.9258 25.8398 16.4414 24.8438 16.5586C22.9688 16.793 17.8477 16.9805 13.8633 16.9805ZM2.15625 21.7383L3.52734 21.7383C4.40625 21.7383 5.08594 21.0586 5.08594 20.1914L5.08594 17.4023L0.597656 16.7578L0.597656 20.1914C0.597656 21.0586 1.27734 21.7383 2.15625 21.7383ZM24.1992 21.7383L25.582 21.7383C26.4609 21.7383 27.1289 21.0586 27.1289 20.1914L27.1289 16.7578L22.6523 17.4023L22.6523 20.1914C22.6523 21.0586 23.3203 21.7383 24.1992 21.7383Z" fill="#000000"/>
</svg>
