<?xml version="1.0" encoding="UTF-8"?>

<!--
  - Copyright (c) 2023. Compose Cupertino project and open source contributors.
  -
  -  Licensed under the Apache License, Version 2.0 (the "License");
  -  you may not use this file except in compliance with the License.
  -  You may obtain a copy of the License at
  -
  -      http://www.apache.org/licenses/LICENSE-2.0
  -
  -  Unless required by applicable law or agreed to in writing, software
  -  distributed under the License is distributed on an "AS IS" BASIS,
  -  WITHOUT WARRANTIES OR CONDITIONS OF ANY KIND, either express or implied.
  -  See the License for the specific language governing permissions and
  -  limitations under the License.
  -
  -->

<svg version="1.1" xmlns="http://www.w3.org/2000/svg" xmlns:xlink="http://www.w3.org/1999/xlink" width="27.0469" height="24.6914">
  <path d="M9.52734 18.9961L23.2031 18.9961C23.6602 18.9961 24.0586 18.6211 24.0586 18.1172C24.0586 17.6133 23.6602 17.2383 23.2031 17.2383L9.72656 17.2383C9.05859 17.2383 8.64844 16.7695 8.54297 16.0547L6.62109 3.01172C6.50391 2.10938 6.17578 1.65234 4.98047 1.65234L0.867188 1.65234C0.398438 1.65234 0 2.0625 0 2.53125C0 3.01172 0.398438 3.42188 0.867188 3.42188L4.82812 3.42188L6.70312 16.2891C6.94922 17.9531 7.82812 18.9961 9.52734 18.9961ZM7.37109 14.8242L23.2266 14.8242C24.9375 14.8242 25.8164 13.7695 26.0625 12.0938L27 5.89453C27.0234 5.74219 27.0469 5.55469 27.0469 5.44922C27.0469 4.88672 26.625 4.5 25.9805 4.5L6.35156 4.5L6.36328 6.26953L25.0547 6.26953L24.2227 11.8828C24.1289 12.6094 23.7422 13.0664 23.0508 13.0664L7.34766 13.0664ZM10.4531 24.6914C11.5078 24.6914 12.3516 23.8594 12.3516 22.793C12.3516 21.7383 11.5078 20.8945 10.4531 20.8945C9.38672 20.8945 8.54297 21.7383 8.54297 22.793C8.54297 23.8594 9.38672 24.6914 10.4531 24.6914ZM21.4102 24.6914C22.4766 24.6914 23.3203 23.8594 23.3203 22.793C23.3203 21.7383 22.4766 20.8945 21.4102 20.8945C20.3555 20.8945 19.5 21.7383 19.5 22.793C19.5 23.8594 20.3555 24.6914 21.4102 24.6914Z" fill="#000000"/>
</svg>
