<?xml version="1.0" encoding="UTF-8"?>

<!--
  - Copyright (c) 2023. Compose Cupertino project and open source contributors.
  -
  -  Licensed under the Apache License, Version 2.0 (the "License");
  -  you may not use this file except in compliance with the License.
  -  You may obtain a copy of the License at
  -
  -      http://www.apache.org/licenses/LICENSE-2.0
  -
  -  Unless required by applicable law or agreed to in writing, software
  -  distributed under the License is distributed on an "AS IS" BASIS,
  -  WITHOUT WARRANTIES OR CONDITIONS OF ANY KIND, either express or implied.
  -  See the License for the specific language governing permissions and
  -  limitations under the License.
  -
  -->

<svg version="1.1" xmlns="http://www.w3.org/2000/svg" xmlns:xlink="http://www.w3.org/1999/xlink" width="29.7773" height="22.0898">
 <g>
  <path d="M2.76562 22.0664L5.91797 22.0664C7.74609 22.0664 8.69531 21.1875 8.69531 19.4531L8.69531 9.45703C8.69531 7.72266 7.74609 6.83203 5.91797 6.83203L2.76562 6.83203C0.9375 6.83203 0 7.72266 0 9.45703L0 19.4531C0 21.1875 0.9375 22.0664 2.76562 22.0664ZM3.07031 20.2969C2.17969 20.2969 1.86328 19.9922 1.86328 19.1133L1.86328 9.79688C1.86328 8.90625 2.17969 8.60156 3.07031 8.60156L5.61328 8.60156C6.51562 8.60156 6.83203 8.90625 6.83203 9.79688L6.83203 19.1133C6.83203 19.9922 6.51562 20.2969 5.61328 20.2969Z" fill="#000000"/>
  <path d="M13.3008 22.0664L16.4648 22.0664C18.293 22.0664 19.2305 21.1875 19.2305 19.4531L19.2305 6.04688C19.2305 4.3125 18.293 3.42188 16.4648 3.42188L13.3008 3.42188C11.4727 3.42188 10.5352 4.3125 10.5352 6.04688L10.5352 19.4531C10.5352 21.1875 11.4727 22.0664 13.3008 22.0664ZM13.6172 20.2969C12.7148 20.2969 12.3984 19.9922 12.3984 19.1133L12.3984 6.38672C12.3984 5.50781 12.7148 5.19141 13.6172 5.19141L16.1602 5.19141C17.0625 5.19141 17.3672 5.50781 17.3672 6.38672L17.3672 19.1133C17.3672 19.9922 17.0625 20.2969 16.1602 20.2969Z" fill="#000000"/>
  <path d="M23.8359 22.0664L27 22.0664C28.8281 22.0664 29.7773 21.1875 29.7773 19.4531L29.7773 2.625C29.7773 0.890625 28.8281 0 27 0L23.8359 0C22.0195 0 21.082 0.890625 21.082 2.625L21.082 19.4531C21.082 21.1875 22.0195 22.0664 23.8359 22.0664ZM24.1523 20.2969C23.2617 20.2969 22.9453 19.9922 22.9453 19.1133L22.9453 2.96484C22.9453 2.08594 23.2617 1.76953 24.1523 1.76953L26.6953 1.76953C27.5977 1.76953 27.9141 2.08594 27.9141 2.96484L27.9141 19.1133C27.9141 19.9922 27.5977 20.2969 26.6953 20.2969Z" fill="#000000"/>
 </g>
</svg>
