<?xml version="1.0" encoding="UTF-8"?>

<!--
  - Copyright (c) 2023. Compose Cupertino project and open source contributors.
  -
  -  Licensed under the Apache License, Version 2.0 (the "License");
  -  you may not use this file except in compliance with the License.
  -  You may obtain a copy of the License at
  -
  -      http://www.apache.org/licenses/LICENSE-2.0
  -
  -  Unless required by applicable law or agreed to in writing, software
  -  distributed under the License is distributed on an "AS IS" BASIS,
  -  WITHOUT WARRANTIES OR CONDITIONS OF ANY KIND, either express or implied.
  -  See the License for the specific language governing permissions and
  -  limitations under the License.
  -
  -->

<svg version="1.1" xmlns="http://www.w3.org/2000/svg" xmlns:xlink="http://www.w3.org/1999/xlink" width="25.1953" height="21.8086">
 <g>
  <path d="M1.73438 3.64453L0.304688 5.0625L5.54297 10.3711C6.08203 10.9102 6.57422 11.1445 7.125 11.1445C7.67578 11.1445 8.19141 10.8984 8.70703 10.3711L13.0195 5.95312C13.125 5.84766 13.2422 5.78906 13.3359 5.78906C13.4414 5.78906 13.5586 5.84766 13.6641 5.95312L18.2812 10.6289L16.3477 12.5625C15.9258 12.9844 16.1836 13.5234 16.7812 13.6758L23.6367 15.4102C24.1641 15.5508 24.6328 15.1055 24.4922 14.5664L22.7578 7.69922C22.6055 7.10156 22.0547 6.84375 21.6328 7.26562L19.7109 9.19922L14.9297 4.39453C14.4023 3.86719 13.8984 3.62109 13.3359 3.62109C12.7852 3.62109 12.2578 3.86719 11.7539 4.39453L7.44141 8.8125C7.33594 8.91797 7.23047 8.97656 7.125 8.97656C7.01953 8.97656 6.91406 8.91797 6.80859 8.8125Z" fill="#000000"/>
  <path d="M0 20.8828C0 21.4453 0.375 21.8086 0.9375 21.8086L24.2461 21.8086C24.7617 21.8086 25.1953 21.3984 25.1953 20.8711C25.1953 20.3555 24.7617 19.9336 24.2461 19.9336L2.21484 19.9336C1.96875 19.9336 1.88672 19.8516 1.88672 19.6055L1.88672 1.07812C1.88672 0.574219 1.46484 0.140625 0.949219 0.140625C0.421875 0.140625 0 0.574219 0 1.07812Z" fill="#000000"/>
 </g>
</svg>
