<?xml version="1.0" encoding="UTF-8"?>

<!--
  - Copyright (c) 2023. Compose Cupertino project and open source contributors.
  -
  -  Licensed under the Apache License, Version 2.0 (the "License");
  -  you may not use this file except in compliance with the License.
  -  You may obtain a copy of the License at
  -
  -      http://www.apache.org/licenses/LICENSE-2.0
  -
  -  Unless required by applicable law or agreed to in writing, software
  -  distributed under the License is distributed on an "AS IS" BASIS,
  -  WITHOUT WARRANTIES OR CONDITIONS OF ANY KIND, either express or implied.
  -  See the License for the specific language governing permissions and
  -  limitations under the License.
  -
  -->

<svg version="1.1" xmlns="http://www.w3.org/2000/svg" xmlns:xlink="http://www.w3.org/1999/xlink" width="14.2266" height="17.332">
  <path d="M0.984375 17.3086C1.60547 17.3086 1.91016 17.0742 2.13281 16.418L3.64453 12.2812L10.5586 12.2812L12.0703 16.418C12.293 17.0742 12.5977 17.3086 13.207 17.3086C13.8281 17.3086 14.2266 16.9336 14.2266 16.3477C14.2266 16.1484 14.1914 15.9609 14.0977 15.7148L8.60156 1.07812C8.33203 0.363281 7.85156 0 7.10156 0C6.375 0 5.88281 0.351562 5.625 1.06641L0.128906 15.7266C0.0351562 15.9727 0 16.1602 0 16.3594C0 16.9453 0.375 17.3086 0.984375 17.3086ZM4.21875 10.5L7.06641 2.61328L7.125 2.61328L9.97266 10.5Z" fill="#000000"/>
</svg>
