<?xml version="1.0" encoding="UTF-8"?>

<!--
  - Copyright (c) 2023. Compose Cupertino project and open source contributors.
  -
  -  Licensed under the Apache License, Version 2.0 (the "License");
  -  you may not use this file except in compliance with the License.
  -  You may obtain a copy of the License at
  -
  -      http://www.apache.org/licenses/LICENSE-2.0
  -
  -  Unless required by applicable law or agreed to in writing, software
  -  distributed under the License is distributed on an "AS IS" BASIS,
  -  WITHOUT WARRANTIES OR CONDITIONS OF ANY KIND, either express or implied.
  -  See the License for the specific language governing permissions and
  -  limitations under the License.
  -
  -->

<svg version="1.1" xmlns="http://www.w3.org/2000/svg" xmlns:xlink="http://www.w3.org/1999/xlink" width="25.1953" height="21.8086">
 <g>
  <path d="M1.73438 14.5664L6.80859 9.39844C6.91406 9.29297 7.01953 9.23438 7.125 9.23438C7.23047 9.23438 7.33594 9.29297 7.44141 9.39844L11.7539 13.8164C12.2578 14.3438 12.7852 14.5898 13.3359 14.5898C13.8984 14.5898 14.4023 14.3438 14.9297 13.8164L19.7109 9.01172L21.6328 10.9453C22.0547 11.3672 22.6055 11.1094 22.7578 10.5117L24.4922 3.64453C24.6328 3.10547 24.1641 2.66016 23.6367 2.80078L16.7812 4.52344C16.1836 4.6875 15.9258 5.22656 16.3477 5.64844L18.2812 7.58203L13.6641 12.2578C13.5586 12.3633 13.4414 12.4219 13.3359 12.4219C13.2422 12.4219 13.125 12.3633 13.0195 12.2578L8.70703 7.83984C8.19141 7.3125 7.67578 7.06641 7.125 7.06641C6.57422 7.06641 6.08203 7.30078 5.54297 7.83984L0.304688 13.1484Z" fill="#000000"/>
  <path d="M0 20.8828C0 21.4453 0.375 21.8086 0.9375 21.8086L24.2461 21.8086C24.7617 21.8086 25.1953 21.3984 25.1953 20.8711C25.1953 20.3555 24.7617 19.9336 24.2461 19.9336L2.21484 19.9336C1.96875 19.9336 1.88672 19.8516 1.88672 19.6055L1.88672 1.07812C1.88672 0.574219 1.46484 0.140625 0.949219 0.140625C0.421875 0.140625 0 0.574219 0 1.07812Z" fill="#000000"/>
 </g>
</svg>
