<?xml version="1.0" encoding="UTF-8"?>

<!--
  - Copyright (c) 2023. Compose Cupertino project and open source contributors.
  -
  -  Licensed under the Apache License, Version 2.0 (the "License");
  -  you may not use this file except in compliance with the License.
  -  You may obtain a copy of the License at
  -
  -      http://www.apache.org/licenses/LICENSE-2.0
  -
  -  Unless required by applicable law or agreed to in writing, software
  -  distributed under the License is distributed on an "AS IS" BASIS,
  -  WITHOUT WARRANTIES OR CONDITIONS OF ANY KIND, either express or implied.
  -  See the License for the specific language governing permissions and
  -  limitations under the License.
  -
  -->

<svg version="1.1" xmlns="http://www.w3.org/2000/svg" xmlns:xlink="http://www.w3.org/1999/xlink" width="26.2734" height="23.707">
 <g>
  <path d="M13.6055 5.98828L25.3711 5.98828C25.8633 5.98828 26.2734 5.60156 26.2734 5.09766C26.2734 4.60547 25.8633 4.21875 25.3711 4.21875L13.6055 4.21875C13.1133 4.21875 12.7148 4.60547 12.7148 5.09766C12.7148 5.60156 13.1133 5.98828 13.6055 5.98828ZM13.6055 19.5352L25.3711 19.5352C25.8633 19.5352 26.2734 19.1484 26.2734 18.6562C26.2734 18.1523 25.8633 17.7656 25.3711 17.7656L13.6055 17.7656C13.1133 17.7656 12.7148 18.1523 12.7148 18.6562C12.7148 19.1484 13.1133 19.5352 13.6055 19.5352Z" fill="#000000"/>
  <path d="M5.05078 10.1367C7.80469 10.1367 10.1016 7.85156 10.1016 5.09766C10.1016 2.33203 7.80469 0.0351562 5.05078 0.0351562C2.28516 0.0351562 0 2.33203 0 5.09766C0 7.85156 2.29688 10.1367 5.05078 10.1367ZM4.45312 7.80469C4.20703 7.80469 4.04297 7.67578 3.86719 7.47656L2.55469 5.89453C2.4375 5.76562 2.40234 5.625 2.40234 5.4375C2.40234 5.09766 2.66016 4.82812 2.97656 4.82812C3.19922 4.82812 3.36328 4.92188 3.51562 5.12109L4.42969 6.28125L6.51562 2.92969C6.65625 2.71875 6.83203 2.60156 7.04297 2.60156C7.37109 2.60156 7.65234 2.85938 7.65234 3.15234C7.65234 3.31641 7.60547 3.45703 7.5 3.63281L5.05078 7.47656C4.92188 7.6875 4.71094 7.80469 4.45312 7.80469ZM5.05078 23.707C7.80469 23.707 10.1016 21.4219 10.1016 18.668C10.1016 15.8906 7.80469 13.5938 5.05078 13.5938C2.28516 13.5938 0 15.8906 0 18.668C0 21.4219 2.29688 23.707 5.05078 23.707ZM4.45312 21.375C4.20703 21.375 4.04297 21.2344 3.86719 21.0469L2.55469 19.4531C2.4375 19.3242 2.40234 19.1836 2.40234 18.9961C2.40234 18.6562 2.66016 18.3984 2.97656 18.3984C3.19922 18.3984 3.36328 18.4805 3.51562 18.6914L4.42969 19.8516L6.51562 16.5C6.65625 16.2773 6.83203 16.1602 7.04297 16.1602C7.37109 16.1602 7.65234 16.418 7.65234 16.7227C7.65234 16.8867 7.60547 17.0156 7.5 17.1914L5.05078 21.0352C4.92188 21.2578 4.71094 21.375 4.45312 21.375Z" fill="#000000"/>
 </g>
</svg>
