<?xml version="1.0" encoding="UTF-8"?>

<!--
  - Copyright (c) 2023. Compose Cupertino project and open source contributors.
  -
  -  Licensed under the Apache License, Version 2.0 (the "License");
  -  you may not use this file except in compliance with the License.
  -  You may obtain a copy of the License at
  -
  -      http://www.apache.org/licenses/LICENSE-2.0
  -
  -  Unless required by applicable law or agreed to in writing, software
  -  distributed under the License is distributed on an "AS IS" BASIS,
  -  WITHOUT WARRANTIES OR CONDITIONS OF ANY KIND, either express or implied.
  -  See the License for the specific language governing permissions and
  -  limitations under the License.
  -
  -->

<svg version="1.1" xmlns="http://www.w3.org/2000/svg" xmlns:xlink="http://www.w3.org/1999/xlink" width="23.9062" height="23.918">
 <g>
  <path d="M11.9531 23.9062C18.4922 23.9062 23.9062 18.4805 23.9062 11.9531C23.9062 5.41406 18.4805 0 11.9414 0C5.41406 0 0 5.41406 0 11.9531C0 18.4805 5.42578 23.9062 11.9531 23.9062ZM11.9531 21.9141C6.42188 21.9141 2.00391 17.4844 2.00391 11.9531C2.00391 6.42188 6.41016 1.99219 11.9414 1.99219C17.4727 1.99219 21.9141 6.42188 21.9141 11.9531C21.9141 17.4844 17.4844 21.9141 11.9531 21.9141Z" fill="#000000"/>
  <path d="M10.6641 17.5195C11.0508 17.5195 11.3789 17.332 11.6133 16.9688L16.9688 8.54297C17.0977 8.30859 17.25 8.05078 17.25 7.79297C17.25 7.26562 16.7812 6.92578 16.2891 6.92578C15.9961 6.92578 15.7031 7.11328 15.4805 7.45312L10.6172 15.2578L8.30859 12.2695C8.02734 11.8945 7.76953 11.8008 7.44141 11.8008C6.9375 11.8008 6.53906 12.2109 6.53906 12.7266C6.53906 12.9844 6.64453 13.2305 6.80859 13.4531L9.66797 16.9688C9.96094 17.3555 10.2773 17.5195 10.6641 17.5195Z" fill="#000000"/>
 </g>
</svg>
