<?xml version="1.0" encoding="UTF-8"?>

<!--
  - Copyright (c) 2023. Compose Cupertino project and open source contributors.
  -
  -  Licensed under the Apache License, Version 2.0 (the "License");
  -  you may not use this file except in compliance with the License.
  -  You may obtain a copy of the License at
  -
  -      http://www.apache.org/licenses/LICENSE-2.0
  -
  -  Unless required by applicable law or agreed to in writing, software
  -  distributed under the License is distributed on an "AS IS" BASIS,
  -  WITHOUT WARRANTIES OR CONDITIONS OF ANY KIND, either express or implied.
  -  See the License for the specific language governing permissions and
  -  limitations under the License.
  -
  -->

<svg version="1.1" xmlns="http://www.w3.org/2000/svg" xmlns:xlink="http://www.w3.org/1999/xlink" width="19.4766" height="24.293">
 <g>
  <path d="M9.73828 24.293C9.92578 24.293 10.2305 24.2227 10.5234 24.0586C17.1914 20.3203 19.4766 18.7383 19.4766 14.4609L19.4766 5.49609C19.4766 4.26562 18.9492 3.87891 17.9531 3.45703C16.5703 2.88281 12.1055 1.27734 10.7227 0.796875C10.4062 0.691406 10.0664 0.621094 9.73828 0.621094C9.41016 0.621094 9.07031 0.714844 8.76562 0.796875C7.38281 1.19531 2.90625 2.89453 1.52344 3.45703C0.539062 3.86719 0 4.26562 0 5.49609L0 14.4609C0 18.7383 2.29688 20.3086 8.95312 24.0586C9.25781 24.2227 9.55078 24.293 9.73828 24.293ZM9.73828 22.1719C9.55078 22.1719 9.36328 22.1016 9.01172 21.8906C3.59766 18.6094 1.86328 17.6484 1.86328 14.0273L1.86328 5.85938C1.86328 5.46094 1.93359 5.30859 2.26172 5.17969C4.04297 4.47656 7.5 3.31641 9.26953 2.61328C9.45703 2.53125 9.60938 2.50781 9.73828 2.50781C9.86719 2.50781 10.0195 2.54297 10.207 2.61328C11.9766 3.31641 15.4102 4.55859 17.2266 5.17969C17.543 5.29688 17.6133 5.46094 17.6133 5.85938L17.6133 14.0273C17.6133 17.6484 15.8789 18.5977 10.4648 21.8906C10.125 22.1016 9.92578 22.1719 9.73828 22.1719Z" fill="#000000"/>
  <path d="M8.46094 17.4492C8.84766 17.4492 9.17578 17.2617 9.41016 16.9102L14.7656 8.47266C14.9062 8.25 15.0469 7.99219 15.0469 7.72266C15.0469 7.20703 14.5781 6.86719 14.0977 6.86719C13.793 6.86719 13.5 7.04297 13.2773 7.39453L8.41406 15.1992L6.10547 12.2109C5.82422 11.8359 5.56641 11.7305 5.25 11.7305C4.73438 11.7305 4.33594 12.1406 4.33594 12.668C4.33594 12.9141 4.44141 13.1719 4.60547 13.3945L7.46484 16.9102C7.75781 17.2969 8.07422 17.4492 8.46094 17.4492Z" fill="#000000"/>
 </g>
</svg>
