<?xml version="1.0" encoding="UTF-8"?>

<!--
  - Copyright (c) 2023. Compose Cupertino project and open source contributors.
  -
  -  Licensed under the Apache License, Version 2.0 (the "License");
  -  you may not use this file except in compliance with the License.
  -  You may obtain a copy of the License at
  -
  -      http://www.apache.org/licenses/LICENSE-2.0
  -
  -  Unless required by applicable law or agreed to in writing, software
  -  distributed under the License is distributed on an "AS IS" BASIS,
  -  WITHOUT WARRANTIES OR CONDITIONS OF ANY KIND, either express or implied.
  -  See the License for the specific language governing permissions and
  -  limitations under the License.
  -
  -->

<svg version="1.1" xmlns="http://www.w3.org/2000/svg" xmlns:xlink="http://www.w3.org/1999/xlink" width="21.5742" height="21.5977">
 <g>
  <path d="M3.67969 21.5977L17.8945 21.5977C20.3555 21.5977 21.5742 20.3789 21.5742 17.9648L21.5742 3.65625C21.5742 1.24219 20.3555 0.0234375 17.8945 0.0234375L3.67969 0.0234375C1.23047 0.0234375 0 1.23047 0 3.65625L0 17.9648C0 20.3906 1.23047 21.5977 3.67969 21.5977ZM3.70312 19.7109C2.53125 19.7109 1.88672 19.0898 1.88672 17.8711L1.88672 3.75C1.88672 2.53125 2.53125 1.91016 3.70312 1.91016L17.8711 1.91016C19.0312 1.91016 19.6875 2.53125 19.6875 3.75L19.6875 17.8711C19.6875 19.0898 19.0312 19.7109 17.8711 19.7109Z" fill="#000000"/>
  <path d="M9.51562 16.3594C9.90234 16.3594 10.2305 16.1719 10.4648 15.8086L15.8203 7.38281C15.9609 7.14844 16.1016 6.89062 16.1016 6.63281C16.1016 6.10547 15.6328 5.76562 15.1523 5.76562C14.8477 5.76562 14.5547 5.95312 14.332 6.29297L9.46875 14.0977L7.16016 11.1094C6.87891 10.7344 6.62109 10.6406 6.30469 10.6406C5.78906 10.6406 5.39062 11.0508 5.39062 11.5664C5.39062 11.8242 5.49609 12.0703 5.66016 12.293L8.51953 15.8086C8.8125 16.1953 9.12891 16.3594 9.51562 16.3594Z" fill="#000000"/>
 </g>
</svg>
