<?xml version="1.0" encoding="UTF-8"?>

<!--
  - Copyright (c) 2023. Compose Cupertino project and open source contributors.
  -
  -  Licensed under the Apache License, Version 2.0 (the "License");
  -  you may not use this file except in compliance with the License.
  -  You may obtain a copy of the License at
  -
  -      http://www.apache.org/licenses/LICENSE-2.0
  -
  -  Unless required by applicable law or agreed to in writing, software
  -  distributed under the License is distributed on an "AS IS" BASIS,
  -  WITHOUT WARRANTIES OR CONDITIONS OF ANY KIND, either express or implied.
  -  See the License for the specific language governing permissions and
  -  limitations under the License.
  -
  -->

<svg version="1.1" xmlns="http://www.w3.org/2000/svg" xmlns:xlink="http://www.w3.org/1999/xlink" width="26.2734" height="23.707">
 <g>
  <path d="M13.6055 5.98828L25.3711 5.98828C25.8633 5.98828 26.2734 5.60156 26.2734 5.09766C26.2734 4.60547 25.8633 4.21875 25.3711 4.21875L13.6055 4.21875C13.1133 4.21875 12.7148 4.60547 12.7148 5.09766C12.7148 5.60156 13.1133 5.98828 13.6055 5.98828ZM13.6055 19.5352L25.3711 19.5352C25.8633 19.5352 26.2734 19.1484 26.2734 18.6562C26.2734 18.1523 25.8633 17.7656 25.3711 17.7656L13.6055 17.7656C13.1133 17.7656 12.7148 18.1523 12.7148 18.6562C12.7148 19.1484 13.1133 19.5352 13.6055 19.5352Z" fill="#000000"/>
  <path d="M5.05078 10.1484C7.80469 10.1484 10.1016 7.83984 10.1016 5.08594C10.1016 2.32031 7.80469 0.0351562 5.05078 0.0351562C2.28516 0.0351562 0 2.32031 0 5.08594C0 7.83984 2.29688 10.1484 5.05078 10.1484ZM5.05078 8.4375C3.23438 8.4375 1.71094 6.90234 1.71094 5.08594C1.71094 3.26953 3.24609 1.73438 5.05078 1.73438C6.85547 1.73438 8.39062 3.28125 8.39062 5.08594C8.39062 6.90234 6.85547 8.4375 5.05078 8.4375ZM5.05078 23.707C7.80469 23.707 10.1016 21.4102 10.1016 18.6562C10.1016 15.8789 7.80469 13.5938 5.05078 13.5938C2.28516 13.5938 0 15.8906 0 18.6562C0 21.4102 2.29688 23.707 5.05078 23.707ZM5.05078 21.9961C3.23438 21.9961 1.71094 20.4609 1.71094 18.6562C1.71094 16.8398 3.24609 15.3047 5.05078 15.3047C6.85547 15.3047 8.39062 16.8398 8.39062 18.6562C8.39062 20.4609 6.85547 21.9961 5.05078 21.9961Z" fill="#000000"/>
 </g>
</svg>
