<?xml version="1.0" encoding="UTF-8"?>

<!--
  - Copyright (c) 2023. Compose Cupertino project and open source contributors.
  -
  -  Licensed under the Apache License, Version 2.0 (the "License");
  -  you may not use this file except in compliance with the License.
  -  You may obtain a copy of the License at
  -
  -      http://www.apache.org/licenses/LICENSE-2.0
  -
  -  Unless required by applicable law or agreed to in writing, software
  -  distributed under the License is distributed on an "AS IS" BASIS,
  -  WITHOUT WARRANTIES OR CONDITIONS OF ANY KIND, either express or implied.
  -  See the License for the specific language governing permissions and
  -  limitations under the License.
  -
  -->

<svg version="1.1" xmlns="http://www.w3.org/2000/svg" xmlns:xlink="http://www.w3.org/1999/xlink" width="19.4766" height="24.293">
  <path d="M0 14.4609C0 18.7383 2.29688 20.3086 8.95312 24.0586C9.25781 24.2227 9.55078 24.293 9.73828 24.293C9.92578 24.293 10.2305 24.2227 10.5234 24.0586C17.1914 20.3203 19.4766 18.7383 19.4766 14.4609L19.4766 5.49609C19.4766 4.26562 18.9492 3.87891 17.9531 3.45703C16.5703 2.88281 12.1055 1.27734 10.7227 0.796875C10.4062 0.691406 10.0664 0.621094 9.73828 0.621094C9.41016 0.621094 9.07031 0.714844 8.76562 0.796875C7.38281 1.19531 2.90625 2.89453 1.52344 3.45703C0.539062 3.86719 0 4.26562 0 5.49609ZM1.86328 14.0273L1.86328 12.1406L9.73828 12.1406L9.73828 2.50781C9.86719 2.50781 10.0195 2.54297 10.207 2.61328C11.9766 3.31641 15.4102 4.55859 17.2266 5.17969C17.543 5.29688 17.6133 5.46094 17.6133 5.85938L17.6133 12.1406L9.73828 12.1406L9.73828 22.1719C9.55078 22.1719 9.36328 22.1016 9.01172 21.8906C3.59766 18.6094 1.86328 17.6484 1.86328 14.0273Z" fill="#000000"/>
</svg>
