<?xml version="1.0" encoding="UTF-8"?>

<!--
  - Copyright (c) 2023. Compose Cupertino project and open source contributors.
  -
  -  Licensed under the Apache License, Version 2.0 (the "License");
  -  you may not use this file except in compliance with the License.
  -  You may obtain a copy of the License at
  -
  -      http://www.apache.org/licenses/LICENSE-2.0
  -
  -  Unless required by applicable law or agreed to in writing, software
  -  distributed under the License is distributed on an "AS IS" BASIS,
  -  WITHOUT WARRANTIES OR CONDITIONS OF ANY KIND, either express or implied.
  -  See the License for the specific language governing permissions and
  -  limitations under the License.
  -
  -->

<svg version="1.1" xmlns="http://www.w3.org/2000/svg" xmlns:xlink="http://www.w3.org/1999/xlink" width="11.4609" height="20.3555">
  <path d="M11.4609 10.1719C11.4609 9.87891 11.3438 9.60938 11.1211 9.39844L1.83984 0.304688C1.62891 0.105469 1.37109 0 1.06641 0C0.46875 0 0 0.457031 0 1.06641C0 1.35938 0.117188 1.62891 0.304688 1.82812L8.83594 10.1719L0.304688 18.5156C0.117188 18.7148 0 18.9727 0 19.2773C0 19.8867 0.46875 20.3438 1.06641 20.3438C1.37109 20.3438 1.62891 20.2383 1.83984 20.0273L11.1211 10.9453C11.3438 10.7227 11.4609 10.4648 11.4609 10.1719Z" fill="#000000"/>
</svg>
