<?xml version="1.0" encoding="UTF-8"?>

<!--
  - Copyright (c) 2023. Compose Cupertino project and open source contributors.
  -
  -  Licensed under the Apache License, Version 2.0 (the "License");
  -  you may not use this file except in compliance with the License.
  -  You may obtain a copy of the License at
  -
  -      http://www.apache.org/licenses/LICENSE-2.0
  -
  -  Unless required by applicable law or agreed to in writing, software
  -  distributed under the License is distributed on an "AS IS" BASIS,
  -  WITHOUT WARRANTIES OR CONDITIONS OF ANY KIND, either express or implied.
  -  See the License for the specific language governing permissions and
  -  limitations under the License.
  -
  -->

<svg version="1.1" xmlns="http://www.w3.org/2000/svg" xmlns:xlink="http://www.w3.org/1999/xlink" width="20.3555" height="12.4102">
  <path d="M0.316406 9.63281C0.117188 9.82031 0 10.0898 0 10.3945C0 11.0039 0.457031 11.4609 1.06641 11.4609C1.37109 11.4609 1.65234 11.3555 1.82812 11.1562L10.8047 1.99219L9.55078 1.99219L18.5273 11.1562C18.7148 11.3555 18.9961 11.4609 19.2891 11.4609C19.8984 11.4609 20.3555 11.0039 20.3555 10.3945C20.3555 10.0898 20.2383 9.82031 20.0391 9.63281L10.9688 0.351562C10.7695 0.128906 10.4766 0 10.1836 0C9.87891 0 9.59766 0.128906 9.38672 0.351562Z" fill="#000000"/>
</svg>
