<?xml version="1.0" encoding="UTF-8"?>

<!--
  - Copyright (c) 2023. Compose Cupertino project and open source contributors.
  -
  -  Licensed under the Apache License, Version 2.0 (the "License");
  -  you may not use this file except in compliance with the License.
  -  You may obtain a copy of the License at
  -
  -      http://www.apache.org/licenses/LICENSE-2.0
  -
  -  Unless required by applicable law or agreed to in writing, software
  -  distributed under the License is distributed on an "AS IS" BASIS,
  -  WITHOUT WARRANTIES OR CONDITIONS OF ANY KIND, either express or implied.
  -  See the License for the specific language governing permissions and
  -  limitations under the License.
  -
  -->

<svg version="1.1" xmlns="http://www.w3.org/2000/svg" xmlns:xlink="http://www.w3.org/1999/xlink" width="11.4609" height="20.3555">
  <path d="M0 10.1719C0 10.4648 0.105469 10.7227 0.328125 10.9453L9.62109 20.0273C9.82031 20.2383 10.0781 20.3438 10.3828 20.3438C10.9922 20.3438 11.4609 19.8867 11.4609 19.2773C11.4609 18.9727 11.332 18.7148 11.1445 18.5156L2.61328 10.1719L11.1445 1.82812C11.332 1.62891 11.4609 1.35938 11.4609 1.06641C11.4609 0.457031 10.9922 0 10.3828 0C10.0781 0 9.82031 0.105469 9.62109 0.304688L0.328125 9.39844C0.105469 9.60938 0 9.87891 0 10.1719Z" fill="#000000"/>
</svg>
