<?xml version="1.0" encoding="UTF-8"?>

<!--
  - Copyright (c) 2023. Compose Cupertino project and open source contributors.
  -
  -  Licensed under the Apache License, Version 2.0 (the "License");
  -  you may not use this file except in compliance with the License.
  -  You may obtain a copy of the License at
  -
  -      http://www.apache.org/licenses/LICENSE-2.0
  -
  -  Unless required by applicable law or agreed to in writing, software
  -  distributed under the License is distributed on an "AS IS" BASIS,
  -  WITHOUT WARRANTIES OR CONDITIONS OF ANY KIND, either express or implied.
  -  See the License for the specific language governing permissions and
  -  limitations under the License.
  -
  -->

<svg version="1.1" xmlns="http://www.w3.org/2000/svg" xmlns:xlink="http://www.w3.org/1999/xlink" width="28.0078" height="18.7148">
  <path d="M5.74219 18.5508L21 18.5508C24.9492 18.5508 28.0078 15.5625 28.0078 11.7422C28.0078 7.88672 24.8789 4.98047 20.625 4.98047C19.0664 1.88672 16.207 0 12.7266 0C8.17969 0 4.33594 3.52734 3.92578 8.20312C1.58203 8.87109 0 10.8398 0 13.3359C0 16.2188 2.09766 18.5508 5.74219 18.5508ZM5.71875 16.6641C3.31641 16.6641 1.88672 15.3633 1.88672 13.3945C1.88672 11.707 2.96484 10.4883 4.86328 9.98438C5.51953 9.82031 5.76562 9.51562 5.8125 8.83594C6.09375 4.86328 9.07031 1.88672 12.7266 1.88672C15.5508 1.88672 17.7305 3.45703 19.043 6.15234C19.3242 6.72656 19.6641 6.92578 20.3789 6.92578C24.0469 6.92578 26.1094 9.14062 26.1094 11.7891C26.1094 14.5195 23.9297 16.6641 21.1289 16.6641Z" fill="#000000"/>
</svg>
