<?xml version="1.0" encoding="UTF-8"?>

<!--
  - Copyright (c) 2023. Compose Cupertino project and open source contributors.
  -
  -  Licensed under the Apache License, Version 2.0 (the "License");
  -  you may not use this file except in compliance with the License.
  -  You may obtain a copy of the License at
  -
  -      http://www.apache.org/licenses/LICENSE-2.0
  -
  -  Unless required by applicable law or agreed to in writing, software
  -  distributed under the License is distributed on an "AS IS" BASIS,
  -  WITHOUT WARRANTIES OR CONDITIONS OF ANY KIND, either express or implied.
  -  See the License for the specific language governing permissions and
  -  limitations under the License.
  -
  -->

<svg version="1.1" xmlns="http://www.w3.org/2000/svg" xmlns:xlink="http://www.w3.org/1999/xlink" width="22.1367" height="22.1602">
  <path d="M6.53906 8.34375L6.53906 13.8164L4.18359 13.8164C1.875 13.8164 0 15.6328 0 17.9531C0 20.2734 1.875 22.1484 4.18359 22.1484C6.49219 22.1484 8.36719 20.2734 8.36719 17.9531L8.36719 15.6094L13.7695 15.6094L13.7695 17.9531C13.7695 20.2734 15.6445 22.1484 17.9531 22.1484C20.2617 22.1484 22.1367 20.2734 22.1367 17.9531C22.1367 15.6328 20.2617 13.8164 17.9531 13.8164L15.5977 13.8164L15.5977 8.34375L17.9531 8.34375C20.2617 8.34375 22.1367 6.52734 22.1367 4.20703C22.1367 1.88672 20.2617 0 17.9531 0C15.6445 0 13.7695 1.88672 13.7695 4.20703L13.7695 6.55078L8.36719 6.55078L8.36719 4.20703C8.36719 1.88672 6.49219 0 4.18359 0C1.875 0 0 1.88672 0 4.20703C0 6.52734 1.875 8.34375 4.18359 8.34375ZM4.18359 6.57422C2.89453 6.57422 1.82812 5.50781 1.82812 4.20703C1.82812 2.90625 2.89453 1.82812 4.18359 1.82812C5.47266 1.82812 6.53906 2.90625 6.53906 4.20703L6.53906 6.57422ZM17.9531 6.57422L15.5977 6.57422L15.5977 4.20703C15.5977 2.90625 16.6641 1.82812 17.9531 1.82812C19.2422 1.82812 20.3086 2.90625 20.3086 4.20703C20.3086 5.50781 19.2422 6.57422 17.9531 6.57422ZM8.36719 13.8398L8.36719 8.32031L13.7695 8.32031L13.7695 13.8398ZM4.18359 15.5742L6.53906 15.5742L6.53906 17.9414C6.53906 19.2422 5.47266 20.3086 4.18359 20.3086C2.89453 20.3086 1.82812 19.2422 1.82812 17.9414C1.82812 16.6406 2.89453 15.5742 4.18359 15.5742ZM17.9531 15.5742C19.2422 15.5742 20.3086 16.6406 20.3086 17.9414C20.3086 19.2422 19.2422 20.3086 17.9531 20.3086C16.6641 20.3086 15.5977 19.2422 15.5977 17.9414L15.5977 15.5742Z" fill="#000000"/>
</svg>
