<?xml version="1.0" encoding="UTF-8"?>

<!--
  - Copyright (c) 2023. Compose Cupertino project and open source contributors.
  -
  -  Licensed under the Apache License, Version 2.0 (the "License");
  -  you may not use this file except in compliance with the License.
  -  You may obtain a copy of the License at
  -
  -      http://www.apache.org/licenses/LICENSE-2.0
  -
  -  Unless required by applicable law or agreed to in writing, software
  -  distributed under the License is distributed on an "AS IS" BASIS,
  -  WITHOUT WARRANTIES OR CONDITIONS OF ANY KIND, either express or implied.
  -  See the License for the specific language governing permissions and
  -  limitations under the License.
  -
  -->

<svg version="1.1" xmlns="http://www.w3.org/2000/svg" xmlns:xlink="http://www.w3.org/1999/xlink" width="17.543" height="26.8945">
  <path d="M8.12109 3.66797L9.42188 3.66797L9.42188 0.644531C9.42188 0.28125 9.12891 0 8.76562 0C8.40234 0 8.12109 0.292969 8.12109 0.65625ZM8.76562 9.64453C10.7695 9.64453 12.3633 8.05078 12.3633 6.05859C12.3633 4.05469 10.7695 2.46094 8.76562 2.46094C6.77344 2.46094 5.17969 4.05469 5.17969 6.05859C5.17969 8.05078 6.77344 9.64453 8.76562 9.64453ZM8.76562 7.875C7.71094 7.875 6.94922 7.10156 6.94922 6.05859C6.94922 5.00391 7.71094 4.23047 8.76562 4.23047C9.82031 4.23047 10.5938 5.00391 10.5938 6.05859C10.5938 7.10156 9.82031 7.875 8.76562 7.875ZM8.28516 8.70703L6.44531 8.26172L1.92188 23.4609C1.76953 23.9531 2.08594 24.4805 2.58984 24.6094C3.09375 24.75 3.59766 24.457 3.75 23.9414ZM2.42578 22.793L1.55859 26.0391C1.47656 26.3672 1.65234 26.707 1.99219 26.7891C2.33203 26.8828 2.66016 26.6953 2.75391 26.3555L3.62109 23.1211ZM9.25781 8.70703L13.793 23.9414C13.9453 24.457 14.4492 24.75 14.9531 24.6094C15.457 24.4805 15.7617 23.9531 15.6211 23.4609L11.0977 8.26172ZM15.1172 22.793L13.9102 23.1211L14.7891 26.3555C14.8828 26.6953 15.2109 26.8828 15.5508 26.7891C15.8789 26.707 16.0664 26.3672 15.9727 26.0391ZM0.773438 15.2109C0.339844 15.2109 0 15.5508 0 15.9727C0 16.3945 0.339844 16.7461 0.773438 16.7461L16.7695 16.7461C17.1914 16.7461 17.543 16.3945 17.543 15.9727C17.543 15.5508 17.1914 15.2109 16.7695 15.2109ZM9.53906 13.957C9.53906 13.5352 9.1875 13.1836 8.76562 13.1836C8.34375 13.1836 8.00391 13.5352 8.00391 13.957L8.00391 17.9883C8.00391 18.4102 8.34375 18.7617 8.76562 18.7617C9.1875 18.7617 9.53906 18.4102 9.53906 17.9883Z" fill="#000000"/>
</svg>
