<?xml version="1.0" encoding="UTF-8"?>

<!--
  - Copyright (c) 2023. Compose Cupertino project and open source contributors.
  -
  -  Licensed under the Apache License, Version 2.0 (the "License");
  -  you may not use this file except in compliance with the License.
  -  You may obtain a copy of the License at
  -
  -      http://www.apache.org/licenses/LICENSE-2.0
  -
  -  Unless required by applicable law or agreed to in writing, software
  -  distributed under the License is distributed on an "AS IS" BASIS,
  -  WITHOUT WARRANTIES OR CONDITIONS OF ANY KIND, either express or implied.
  -  See the License for the specific language governing permissions and
  -  limitations under the License.
  -
  -->

<svg version="1.1" xmlns="http://www.w3.org/2000/svg" xmlns:xlink="http://www.w3.org/1999/xlink" width="23.5781" height="25.6758">
  <path d="M0 20.8594C0 23.6367 4.95703 25.6758 11.7891 25.6758C18.6211 25.6758 23.5781 23.6367 23.5781 20.8594C23.5781 20.4844 23.4023 19.9219 23.1328 19.418L12.8906 0.867188C12.5742 0.292969 12.1758 0.1875 11.7891 0.1875C11.4023 0.1875 11.0039 0.292969 10.6875 0.867188L0.445312 19.418C0.175781 19.9219 0 20.4844 0 20.8594ZM1.82812 20.8594C1.82812 20.7305 1.95703 20.4609 2.10938 20.1914L11.5781 3.09375C11.625 2.98828 11.6953 2.95312 11.7891 2.95312C11.8828 2.95312 11.9531 2.98828 12 3.09375L21.4688 20.1914C21.6211 20.4609 21.75 20.7305 21.75 20.8594C21.75 22.2773 17.0625 23.8359 11.7891 23.8359C6.51562 23.8359 1.82812 22.2773 1.82812 20.8594Z" fill="#000000"/>
</svg>
