<?xml version="1.0" encoding="UTF-8"?>

<!--
  - Copyright (c) 2023. Compose Cupertino project and open source contributors.
  -
  -  Licensed under the Apache License, Version 2.0 (the "License");
  -  you may not use this file except in compliance with the License.
  -  You may obtain a copy of the License at
  -
  -      http://www.apache.org/licenses/LICENSE-2.0
  -
  -  Unless required by applicable law or agreed to in writing, software
  -  distributed under the License is distributed on an "AS IS" BASIS,
  -  WITHOUT WARRANTIES OR CONDITIONS OF ANY KIND, either express or implied.
  -  See the License for the specific language governing permissions and
  -  limitations under the License.
  -
  -->

<svg version="1.1" xmlns="http://www.w3.org/2000/svg" xmlns:xlink="http://www.w3.org/1999/xlink" width="23.543" height="23.4258">
  <path d="M7.47656 16.9688L16.1953 16.9688C16.793 16.9688 17.0859 16.6875 17.0859 16.0664L17.0859 7.37109C17.0859 6.76172 16.793 6.48047 16.1953 6.48047L7.47656 6.48047C6.87891 6.48047 6.58594 6.76172 6.58594 7.37109L6.58594 16.0664C6.58594 16.6875 6.87891 16.9688 7.47656 16.9688ZM8.40234 15.4336C8.23828 15.4336 8.12109 15.3164 8.12109 15.1523L8.12109 8.29688C8.12109 8.12109 8.23828 8.01562 8.40234 8.01562L15.2578 8.01562C15.4336 8.01562 15.5508 8.12109 15.5508 8.29688L15.5508 15.1523C15.5508 15.3164 15.4336 15.4336 15.2578 15.4336ZM3.12891 21.3633L20.543 21.3633C21.1055 21.3633 21.4805 21 21.4805 20.4375L21.4805 3.01172C21.4805 2.44922 21.1055 2.07422 20.543 2.07422L3.12891 2.07422C2.55469 2.07422 2.19141 2.44922 2.19141 3.01172L2.19141 20.4375C2.19141 21 2.55469 21.3633 3.12891 21.3633ZM4.41797 19.4766C4.17188 19.4766 4.07812 19.3945 4.07812 19.1367L4.07812 4.3125C4.07812 4.05469 4.17188 3.96094 4.41797 3.96094L19.2539 3.96094C19.5 3.96094 19.5938 4.05469 19.5938 4.3125L19.5938 19.1367C19.5938 19.3945 19.5 19.4766 19.2539 19.4766ZM8.89453 19.7812L7.00781 19.7812L7.00781 22.4883C7.00781 23.0508 7.38281 23.4258 7.94531 23.4258C8.50781 23.4258 8.89453 23.0508 8.89453 22.4883ZM12.7734 19.7812L10.8867 19.7812L10.8867 22.4883C10.8867 23.0508 11.2734 23.4258 11.8359 23.4258C12.3984 23.4258 12.7734 23.0508 12.7734 22.4883ZM16.6992 19.7812L14.8125 19.7812L14.8125 22.4883C14.8125 23.0508 15.1875 23.4258 15.75 23.4258C16.3125 23.4258 16.6992 23.0508 16.6992 22.4883ZM19.8867 14.6484L19.8867 16.5352L22.5938 16.5352C23.1562 16.5352 23.543 16.1484 23.543 15.5859C23.543 15.0234 23.1562 14.6484 22.5938 14.6484ZM19.8867 10.7578L19.8867 12.6445L22.5938 12.6445C23.1562 12.6445 23.543 12.2695 23.543 11.707C23.543 11.1445 23.1562 10.7578 22.5938 10.7578ZM19.8867 6.87891L19.8867 8.76562L22.5938 8.76562C23.1562 8.76562 23.543 8.37891 23.543 7.81641C23.543 7.25391 23.1562 6.87891 22.5938 6.87891ZM14.7773 3.66797L16.6641 3.66797L16.6641 0.960938C16.6641 0.398438 16.2773 0.0234375 15.7148 0.0234375C15.1523 0.0234375 14.7773 0.398438 14.7773 0.960938ZM10.8867 3.66797L12.7734 3.66797L12.7734 0.960938C12.7734 0.398438 12.3984 0.0234375 11.8359 0.0234375C11.2734 0.0234375 10.8867 0.398438 10.8867 0.960938ZM7.00781 3.66797L8.89453 3.66797L8.89453 0.960938C8.89453 0.398438 8.50781 0.0234375 7.94531 0.0234375C7.38281 0.0234375 7.00781 0.398438 7.00781 0.960938ZM3.77344 8.77734L3.77344 6.89062L0.9375 6.89062C0.375 6.89062 0 7.26562 0 7.82812C0 8.39062 0.375 8.77734 0.9375 8.77734ZM3.77344 12.6562L3.77344 10.7695L0.9375 10.7695C0.375 10.7695 0 11.1562 0 11.7188C0 12.2812 0.375 12.6562 0.9375 12.6562ZM3.77344 16.5469L3.77344 14.6602L0.9375 14.6602C0.375 14.6602 0 15.0352 0 15.5977C0 16.1602 0.375 16.5469 0.9375 16.5469Z" fill="#000000"/>
</svg>
