<?xml version="1.0" encoding="UTF-8"?>

<!--
  - Copyright (c) 2023. Compose Cupertino project and open source contributors.
  -
  -  Licensed under the Apache License, Version 2.0 (the "License");
  -  you may not use this file except in compliance with the License.
  -  You may obtain a copy of the License at
  -
  -      http://www.apache.org/licenses/LICENSE-2.0
  -
  -  Unless required by applicable law or agreed to in writing, software
  -  distributed under the License is distributed on an "AS IS" BASIS,
  -  WITHOUT WARRANTIES OR CONDITIONS OF ANY KIND, either express or implied.
  -  See the License for the specific language governing permissions and
  -  limitations under the License.
  -
  -->

<svg version="1.1" xmlns="http://www.w3.org/2000/svg" xmlns:xlink="http://www.w3.org/1999/xlink" width="27.5391" height="20.0273">
  <path d="M5.26172 15.9258L8.13281 15.9258C8.82422 15.9258 9.28125 15.457 9.28125 14.8008L9.28125 12.6328C9.28125 11.9648 8.82422 11.5078 8.13281 11.5078L5.26172 11.5078C4.57031 11.5078 4.11328 11.9648 4.11328 12.6328L4.11328 14.8008C4.11328 15.457 4.57031 15.9258 5.26172 15.9258ZM0.949219 7.33594L26.6016 7.33594L26.6016 4.67578L0.949219 4.67578ZM3.67969 20.0273L23.8594 20.0273C26.3203 20.0273 27.5391 18.8203 27.5391 16.4062L27.5391 3.64453C27.5391 1.23047 26.3203 0.0117188 23.8594 0.0117188L3.67969 0.0117188C1.23047 0.0117188 0 1.23047 0 3.64453L0 16.4062C0 18.8203 1.23047 20.0273 3.67969 20.0273ZM3.70312 18.1406C2.53125 18.1406 1.88672 17.5195 1.88672 16.3008L1.88672 3.75C1.88672 2.53125 2.53125 1.89844 3.70312 1.89844L23.8359 1.89844C24.9844 1.89844 25.6523 2.53125 25.6523 3.75L25.6523 16.3008C25.6523 17.5195 24.9844 18.1406 23.8359 18.1406Z" fill="#000000"/>
</svg>
