<?xml version="1.0" encoding="UTF-8"?>

<!--
  - Copyright (c) 2023. Compose Cupertino project and open source contributors.
  -
  -  Licensed under the Apache License, Version 2.0 (the "License");
  -  you may not use this file except in compliance with the License.
  -  You may obtain a copy of the License at
  -
  -      http://www.apache.org/licenses/LICENSE-2.0
  -
  -  Unless required by applicable law or agreed to in writing, software
  -  distributed under the License is distributed on an "AS IS" BASIS,
  -  WITHOUT WARRANTIES OR CONDITIONS OF ANY KIND, either express or implied.
  -  See the License for the specific language governing permissions and
  -  limitations under the License.
  -
  -->

<svg version="1.1" xmlns="http://www.w3.org/2000/svg" xmlns:xlink="http://www.w3.org/1999/xlink" width="25.6992" height="26.3789">
  <path d="M25.6992 19.8633C25.6992 19.3125 25.3359 18.9727 24.7617 18.9727L7.86328 18.9727C7.60547 18.9727 7.52344 18.8906 7.52344 18.6328L7.52344 1.73438C7.52344 1.14844 7.14844 0.75 6.57422 0.75C6.01172 0.75 5.63672 1.14844 5.63672 1.73438L5.63672 19.8164C5.63672 20.3789 6 20.7422 6.5625 20.7422L24.7617 20.7422C25.3359 20.7422 25.6992 20.4023 25.6992 19.8633ZM0 7.26562C0 7.82812 0.363281 8.15625 0.925781 8.15625L17.8359 8.15625C18.0938 8.15625 18.1758 8.25 18.1758 8.49609L18.1758 25.3945C18.1758 25.9805 18.5508 26.3789 19.1133 26.3789C19.6875 26.3789 20.0625 25.9805 20.0625 25.3945L20.0625 7.32422C20.0625 6.76172 19.6992 6.38672 19.1367 6.38672L0.925781 6.38672C0.363281 6.38672 0 6.72656 0 7.26562Z" fill="#000000"/>
</svg>
