<?xml version="1.0" encoding="UTF-8"?>

<!--
  - Copyright (c) 2023. Compose Cupertino project and open source contributors.
  -
  -  Licensed under the Apache License, Version 2.0 (the "License");
  -  you may not use this file except in compliance with the License.
  -  You may obtain a copy of the License at
  -
  -      http://www.apache.org/licenses/LICENSE-2.0
  -
  -  Unless required by applicable law or agreed to in writing, software
  -  distributed under the License is distributed on an "AS IS" BASIS,
  -  WITHOUT WARRANTIES OR CONDITIONS OF ANY KIND, either express or implied.
  -  See the License for the specific language governing permissions and
  -  limitations under the License.
  -
  -->

<svg version="1.1" xmlns="http://www.w3.org/2000/svg" xmlns:xlink="http://www.w3.org/1999/xlink" width="22.9336" height="29.2035">
 <g>
  <path d="M22.9336 19.1662C22.9336 18.6388 22.5586 18.2873 22.0078 18.2873L8.20312 18.2873C7.95703 18.2873 7.86328 18.2053 7.86328 17.9474L7.86328 4.25994C7.86328 3.674 7.48828 3.27556 6.92578 3.27556C6.35156 3.27556 5.97656 3.674 5.97656 4.25994L5.97656 19.131C5.97656 19.6935 6.33984 20.0568 6.91406 20.0568L22.0078 20.0568C22.5586 20.0568 22.9336 19.7053 22.9336 19.1662ZM0 10.131C0 10.6584 0.375 11.0099 0.914062 11.0099L14.8008 11.0099C15.0469 11.0099 15.1406 11.1037 15.1406 11.3498L15.1406 25.1193C15.1406 25.7053 15.5156 26.1037 16.0781 26.1037C16.6523 26.1037 17.0273 25.7053 17.0273 25.1193L17.0273 10.1779C17.0273 9.61541 16.6523 9.24041 16.0898 9.24041L0.914062 9.24041C0.375 9.24041 0 9.60369 0 10.131Z" fill="#000000"/>
  <path d="M0.257812 21.2053C0.257812 24.5685 2.49609 26.8303 5.87109 26.8303L6.10547 26.8303L6.10547 28.3654C6.10547 29.2326 6.76172 29.4318 7.41797 28.9396L10.3711 26.7717C10.8633 26.4084 10.875 25.9982 10.3711 25.6232L7.41797 23.467C6.76172 22.9982 6.10547 23.1857 6.10547 24.0295L6.10547 25.4709L5.88281 25.4709C3.33984 25.4709 1.72266 23.7013 1.72266 21.2053L1.72266 19.4592C1.72266 19.0607 1.39453 18.7209 0.996094 18.7209C0.597656 18.7209 0.257812 19.0607 0.257812 19.4592ZM12.6445 3.68572L15.6094 5.84197C16.2539 6.32244 16.9219 6.12322 16.9219 5.27947L16.9219 3.84978L17.1445 3.84978C19.6875 3.84978 21.293 5.60759 21.293 8.11541L21.293 9.8615C21.293 10.2599 21.6211 10.5881 22.0312 10.5881C22.4297 10.5881 22.7578 10.2599 22.7578 9.8615L22.7578 8.10369C22.7578 4.75213 20.5195 2.49041 17.1562 2.49041L16.9219 2.49041L16.9219 0.943532C16.9219 0.0763446 16.2539-0.122874 15.6094 0.369313L12.6445 2.53728C12.1641 2.91228 12.1523 3.32244 12.6445 3.68572Z" fill="#000000"/>
 </g>
</svg>
