<?xml version="1.0" encoding="UTF-8"?>

<!--
  - Copyright (c) 2023. Compose Cupertino project and open source contributors.
  -
  -  Licensed under the Apache License, Version 2.0 (the "License");
  -  you may not use this file except in compliance with the License.
  -  You may obtain a copy of the License at
  -
  -      http://www.apache.org/licenses/LICENSE-2.0
  -
  -  Unless required by applicable law or agreed to in writing, software
  -  distributed under the License is distributed on an "AS IS" BASIS,
  -  WITHOUT WARRANTIES OR CONDITIONS OF ANY KIND, either express or implied.
  -  See the License for the specific language governing permissions and
  -  limitations under the License.
  -
  -->

<svg version="1.1" xmlns="http://www.w3.org/2000/svg" xmlns:xlink="http://www.w3.org/1999/xlink" width="23.9062" height="23.918">
 <g>
  <path d="M11.9531 23.9062C18.4922 23.9062 23.9062 18.4805 23.9062 11.9531C23.9062 5.41406 18.4805 0 11.9414 0C5.41406 0 0 5.41406 0 11.9531C0 18.4805 5.42578 23.9062 11.9531 23.9062ZM11.9531 21.9141C6.42188 21.9141 2.00391 17.4844 2.00391 11.9531C2.00391 6.42188 6.41016 1.99219 11.9414 1.99219C17.4727 1.99219 21.9141 6.42188 21.9141 11.9531C21.9141 17.4844 17.4844 21.9141 11.9531 21.9141Z" fill="#000000"/>
  <path d="M5.47266 13.1836C5.47266 13.8984 5.96484 14.3789 6.66797 14.3789L9.49219 14.3789L9.49219 17.1914C9.49219 17.9297 9.97266 18.3984 10.6875 18.3984L13.1719 18.3984C13.8984 18.3984 14.3672 17.9297 14.3672 17.1914L14.3672 14.3789L17.1914 14.3789C17.918 14.3789 18.3984 13.8984 18.3984 13.1836L18.3984 10.6875C18.3984 9.98438 17.918 9.49219 17.1914 9.49219L14.3672 9.49219L14.3672 6.69141C14.3672 5.96484 13.8984 5.48438 13.1719 5.48438L10.6875 5.48438C9.97266 5.48438 9.49219 5.96484 9.49219 6.69141L9.49219 9.49219L6.66797 9.49219C5.95312 9.49219 5.47266 9.98438 5.47266 10.6875Z" fill="#000000"/>
 </g>
</svg>
