<?xml version="1.0" encoding="UTF-8"?>

<!--
  - Copyright (c) 2023. Compose Cupertino project and open source contributors.
  -
  -  Licensed under the Apache License, Version 2.0 (the "License");
  -  you may not use this file except in compliance with the License.
  -  You may obtain a copy of the License at
  -
  -      http://www.apache.org/licenses/LICENSE-2.0
  -
  -  Unless required by applicable law or agreed to in writing, software
  -  distributed under the License is distributed on an "AS IS" BASIS,
  -  WITHOUT WARRANTIES OR CONDITIONS OF ANY KIND, either express or implied.
  -  See the License for the specific language governing permissions and
  -  limitations under the License.
  -
  -->

<svg version="1.1" xmlns="http://www.w3.org/2000/svg" xmlns:xlink="http://www.w3.org/1999/xlink" width="30.0586" height="24.4102">
  <path d="M3.03516 10.9336C4.69922 10.9336 6.05859 9.57422 6.05859 7.88672C6.05859 6.23438 4.69922 4.86328 3.03516 4.86328C1.35938 4.86328 0 6.22266 0 7.88672C0 9.57422 1.37109 10.9336 3.03516 10.9336ZM3.03516 9.10547C2.37891 9.10547 1.82812 8.55469 1.82812 7.88672C1.82812 7.21875 2.37891 6.69141 3.03516 6.69141C3.67969 6.69141 4.23047 7.24219 4.23047 7.88672C4.23047 8.55469 3.70312 9.10547 3.03516 9.10547ZM15.0352 6.05859C16.6992 6.05859 18.0586 4.69922 18.0586 3.02344C18.0586 1.37109 16.6992 0 15.0352 0C13.3477 0 12 1.35938 12 3.02344C12 4.69922 13.3594 6.05859 15.0352 6.05859ZM15.0352 4.23047C14.3789 4.23047 13.8281 3.67969 13.8281 3.02344C13.8281 2.35547 14.3789 1.82812 15.0352 1.82812C15.6797 1.82812 16.2305 2.37891 16.2305 3.02344C16.2305 3.67969 15.7031 4.23047 15.0352 4.23047ZM27.0234 10.9336C28.6875 10.9336 30.0586 9.57422 30.0586 7.88672C30.0586 6.22266 28.6992 4.86328 27.0234 4.86328C25.3594 4.86328 24 6.23438 24 7.88672C24 9.57422 25.3594 10.9336 27.0234 10.9336ZM27.0234 9.10547C26.3555 9.10547 25.8281 8.55469 25.8281 7.88672C25.8281 7.24219 26.3789 6.69141 27.0234 6.69141C27.6797 6.69141 28.2305 7.21875 28.2305 7.88672C28.2305 8.55469 27.6797 9.10547 27.0234 9.10547ZM4.42969 10.1602L8.14453 12.4453C8.89453 12.9023 10.1367 12.9258 10.9102 11.8828L15.3398 5.94141L13.6641 5.22656L9.62109 10.6523C9.41016 10.957 9.1875 11.0156 8.78906 10.7695L5.36719 8.66016ZM25.6289 10.1484L24.6914 8.64844L21.293 10.7344C20.8711 11.0039 20.6367 10.9219 20.4023 10.6055L16.3945 5.20312L14.7305 5.92969L19.1719 11.8945C19.9219 12.9023 21.1523 12.9023 21.832 12.4805ZM5.90625 18.75L24.1641 18.75L24.1641 16.9805L5.90625 16.9805ZM2.97656 10.418L5.36719 20.1562C5.8125 21.9961 6.78516 22.9219 8.71875 22.9219L21.3398 22.9219C23.2852 22.9219 24.2461 21.9961 24.7031 20.1562L27.0938 10.418L25.4414 9.66797L22.9453 19.9336C22.7461 20.7656 22.2422 21.1523 21.3633 21.1523L8.70703 21.1523C7.82812 21.1523 7.32422 20.7656 7.125 19.9336L4.61719 9.66797Z" fill="#000000"/>
</svg>
