<?xml version="1.0" encoding="UTF-8"?>

<!--
  - Copyright (c) 2023. Compose Cupertino project and open source contributors.
  -
  -  Licensed under the Apache License, Version 2.0 (the "License");
  -  you may not use this file except in compliance with the License.
  -  You may obtain a copy of the License at
  -
  -      http://www.apache.org/licenses/LICENSE-2.0
  -
  -  Unless required by applicable law or agreed to in writing, software
  -  distributed under the License is distributed on an "AS IS" BASIS,
  -  WITHOUT WARRANTIES OR CONDITIONS OF ANY KIND, either express or implied.
  -  See the License for the specific language governing permissions and
  -  limitations under the License.
  -
  -->

<svg version="1.1" xmlns="http://www.w3.org/2000/svg" xmlns:xlink="http://www.w3.org/1999/xlink" width="30.4453" height="22.7461">
  <path d="M22.9453 12.9727C26.4492 13.793 28.6289 15.1289 28.6289 16.5352C28.6289 18.8203 22.793 20.9297 15.2227 20.9297C7.65234 20.9297 1.81641 18.8203 1.81641 16.5352C1.81641 15.1406 3.9375 13.8281 7.37109 12.9844L6.48047 11.3203C2.4375 12.3867 0 14.25 0 16.5352C0 20.2148 6.32812 22.7461 15.2227 22.7461C24.1289 22.7461 30.4453 20.2148 30.4453 16.5352C30.4453 14.1914 27.8672 12.2812 23.6602 11.2383ZM24 4.83984L24 7.28906C24 12.3516 20.7656 15.7969 15.7617 15.7969L14.6719 15.7969C9.65625 15.7969 6.44531 12.375 6.44531 7.28906L6.44531 4.83984L4.55859 4.83984L4.55859 7.28906C4.55859 13.3945 8.625 17.6836 14.6719 17.6836L15.7617 17.6836C21.8086 17.6836 25.8867 13.3828 25.8867 7.28906L25.8867 4.83984ZM15.2227 9.66797C21.5742 9.66797 25.8867 7.71094 25.8867 4.83984C25.8867 1.95703 21.5859 0 15.2227 0C8.85938 0 4.55859 1.95703 4.55859 4.83984C4.55859 7.71094 8.87109 9.66797 15.2227 9.66797ZM15.2227 7.78125C10.1719 7.78125 6.44531 6.50391 6.44531 4.83984C6.44531 3.17578 10.1719 1.88672 15.2227 1.88672C20.2734 1.88672 24 3.17578 24 4.83984C24 6.50391 20.2734 7.78125 15.2227 7.78125ZM24.5742 12.3516L25.5352 12.3516C28.2305 12.3516 29.8477 10.9336 29.8477 8.57812C29.8477 6.24609 28.2188 4.81641 25.5352 4.81641L24.75 4.81641L24.75 6.70312L25.5352 6.70312C27.0586 6.70312 27.9609 7.40625 27.9609 8.57812C27.9609 9.75 27.0586 10.4648 25.5352 10.4648L24.5742 10.4648Z" fill="#000000"/>
</svg>
