<?xml version="1.0" encoding="UTF-8"?>

<!--
  - Copyright (c) 2023. Compose Cupertino project and open source contributors.
  -
  -  Licensed under the Apache License, Version 2.0 (the "License");
  -  you may not use this file except in compliance with the License.
  -  You may obtain a copy of the License at
  -
  -      http://www.apache.org/licenses/LICENSE-2.0
  -
  -  Unless required by applicable law or agreed to in writing, software
  -  distributed under the License is distributed on an "AS IS" BASIS,
  -  WITHOUT WARRANTIES OR CONDITIONS OF ANY KIND, either express or implied.
  -  See the License for the specific language governing permissions and
  -  limitations under the License.
  -
  -->

<svg version="1.1" xmlns="http://www.w3.org/2000/svg" xmlns:xlink="http://www.w3.org/1999/xlink" width="21.8203" height="24.2227">
  <path d="M0 12.1055C0 12.7852 0.386719 13.2656 1.19531 13.3945C2.64844 13.6172 3.22266 14.3555 3.22266 16.2422L3.22266 19.5352C3.22266 22.7227 4.67578 24.2227 7.83984 24.2227C8.02734 24.2227 8.22656 24.1875 8.36719 24.1406C8.73047 23.9883 8.92969 23.6953 8.92969 23.3086C8.92969 22.8516 8.73047 22.6172 8.32031 22.5117C8.20312 22.4883 8.08594 22.4648 7.94531 22.4531C5.97656 22.3125 5.26172 21.4688 5.26172 19.3008L5.26172 15.4102C5.26172 13.4297 4.21875 12.3281 2.39062 12.1523C2.35547 12.1523 2.35547 12.1055 2.39062 12.1055C4.21875 11.9297 5.26172 10.8281 5.26172 8.84766L5.26172 4.94531C5.26172 2.76562 5.97656 1.94531 7.94531 1.80469C8.13281 1.79297 8.29688 1.76953 8.41406 1.72266C8.75391 1.60547 8.92969 1.34766 8.92969 0.9375C8.92969 0.527344 8.71875 0.246094 8.32031 0.105469C8.14453 0.046875 7.95703 0.0234375 7.72266 0.0234375C4.66406 0.0234375 3.22266 1.54688 3.22266 4.71094L3.22266 8.01562C3.22266 9.87891 2.64844 10.6289 1.19531 10.8516C0.386719 10.9805 0 11.4375 0 12.1055ZM21.8203 12.1055C21.8203 11.4375 21.4219 10.9805 20.6133 10.8516C19.1719 10.6289 18.5859 9.87891 18.5859 8.01562L18.5859 4.71094C18.5859 1.54688 17.1445 0.0234375 14.0859 0.0234375C13.8516 0.0234375 13.6758 0.046875 13.5 0.105469C13.0781 0.246094 12.8789 0.527344 12.8789 0.9375C12.8789 1.34766 13.0781 1.59375 13.4062 1.72266C13.5234 1.76953 13.6758 1.79297 13.8633 1.80469C15.8203 1.89844 16.5586 2.76562 16.5586 4.94531L16.5586 8.84766C16.5586 10.8398 17.6016 12.1055 19.418 12.1055C19.4531 12.1055 19.4531 12.1523 19.418 12.1523C17.6016 12.1523 16.5586 13.418 16.5586 15.4102L16.5586 19.3008C16.5586 21.4688 15.832 22.3125 13.8633 22.4531C13.7227 22.4648 13.6172 22.4883 13.5 22.5117C13.0898 22.5938 12.8789 22.8516 12.8789 23.3086C12.8789 23.7188 13.1016 24.0234 13.4531 24.1406C13.5938 24.1875 13.7812 24.2227 13.9688 24.2227C17.1328 24.2227 18.5859 22.7227 18.5859 19.5352L18.5859 16.2422C18.5859 14.3555 19.1719 13.6172 20.6133 13.3945C21.4219 13.2656 21.8203 12.7852 21.8203 12.1055Z" fill="#000000"/>
</svg>
