<?xml version="1.0" encoding="UTF-8"?>

<!--
  - Copyright (c) 2023. Compose Cupertino project and open source contributors.
  -
  -  Licensed under the Apache License, Version 2.0 (the "License");
  -  you may not use this file except in compliance with the License.
  -  You may obtain a copy of the License at
  -
  -      http://www.apache.org/licenses/LICENSE-2.0
  -
  -  Unless required by applicable law or agreed to in writing, software
  -  distributed under the License is distributed on an "AS IS" BASIS,
  -  WITHOUT WARRANTIES OR CONDITIONS OF ANY KIND, either express or implied.
  -  See the License for the specific language governing permissions and
  -  limitations under the License.
  -
  -->

<svg version="1.1" xmlns="http://www.w3.org/2000/svg" xmlns:xlink="http://www.w3.org/1999/xlink" width="25.3945" height="21.5977">
 <g>
  <path d="M21.7148 21.5977C24.1641 21.5977 25.3945 20.3906 25.3945 17.9648L25.3945 3.65625C25.3945 1.23047 24.1641 0.0234375 21.7148 0.0234375L11.5312 0.0234375C10.1602 0.0234375 8.97656 0.375 8.01562 1.39453L1.11328 8.56641C0.351562 9.35156 0 10.0547 0 10.793C0 11.5195 0.339844 12.2344 1.11328 13.0195L8.02734 20.1562C9 21.1641 10.1719 21.5859 11.543 21.5859ZM21.6914 19.7109L11.5078 19.7109C10.6172 19.7109 10.0664 19.5 9.44531 18.8672L2.57812 11.7773C2.17969 11.3672 2.0625 11.0859 2.0625 10.793C2.0625 10.4883 2.19141 10.207 2.57812 9.79688L9.43359 2.68359C10.043 2.0625 10.6172 1.91016 11.4961 1.91016L21.6914 1.91016C22.8633 1.91016 23.5078 2.53125 23.5078 3.75L23.5078 17.8711C23.5078 19.0898 22.8633 19.7109 21.6914 19.7109Z" fill="#000000"/>
  <path d="M10.8516 15.7617C11.1094 15.7617 11.3438 15.6562 11.5195 15.4688L14.8477 12.1289L18.1758 15.4688C18.3516 15.6445 18.5859 15.7617 18.8555 15.7617C19.3711 15.7617 19.793 15.3281 19.793 14.8125C19.793 14.543 19.6875 14.3203 19.5117 14.1445L16.1836 10.8164L19.5234 7.46484C19.7109 7.26562 19.8047 7.06641 19.8047 6.80859C19.8047 6.28125 19.3828 5.87109 18.8672 5.87109C18.6211 5.87109 18.4102 5.95312 18.2109 6.15234L14.8477 9.50391L11.4961 6.16406C11.3203 5.97656 11.1094 5.89453 10.8516 5.89453C10.3359 5.89453 9.91406 6.29297 9.91406 6.82031C9.91406 7.07812 10.0078 7.30078 10.1953 7.47656L13.5234 10.8164L10.1953 14.1562C10.0078 14.3203 9.91406 14.5547 9.91406 14.8125C9.91406 15.3281 10.3359 15.7617 10.8516 15.7617Z" fill="#000000"/>
 </g>
</svg>
