<?xml version="1.0" encoding="UTF-8"?>

<!--
  - Copyright (c) 2023. Compose Cupertino project and open source contributors.
  -
  -  Licensed under the Apache License, Version 2.0 (the "License");
  -  you may not use this file except in compliance with the License.
  -  You may obtain a copy of the License at
  -
  -      http://www.apache.org/licenses/LICENSE-2.0
  -
  -  Unless required by applicable law or agreed to in writing, software
  -  distributed under the License is distributed on an "AS IS" BASIS,
  -  WITHOUT WARRANTIES OR CONDITIONS OF ANY KIND, either express or implied.
  -  See the License for the specific language governing permissions and
  -  limitations under the License.
  -
  -->

<svg version="1.1" xmlns="http://www.w3.org/2000/svg" xmlns:xlink="http://www.w3.org/1999/xlink" width="23.9648" height="29.5195">
 <g>
  <path d="M5.68359 6.49219L7.57031 6.49219L7.57031 3.71484C7.57031 2.55469 8.19141 1.88672 9.41016 1.88672L14.5898 1.88672L14.5898 7.89844C14.5898 9.25781 15.2461 9.90234 16.5938 9.90234L22.0781 9.90234L22.0781 19.9219C22.0781 21.0938 21.4453 21.75 20.2266 21.75L17.918 21.75L17.918 23.6367L20.332 23.6367C22.7461 23.6367 23.9648 22.3945 23.9648 19.957L23.9648 10.4414C23.9648 9 23.6719 8.08594 22.793 7.18359L16.875 1.17188C16.043 0.316406 15.0586 0 13.8047 0L9.31641 0C6.90234 0 5.68359 1.24219 5.68359 3.67969ZM16.2891 7.61719L16.2891 2.8125L21.5859 8.20312L16.8633 8.20312C16.4531 8.20312 16.2891 8.02734 16.2891 7.61719Z" fill="#000000"/>
  <path d="M0 25.8047C0 28.2539 1.20703 29.4844 3.63281 29.4844L14.6484 29.4844C17.0742 29.4844 18.2812 28.2422 18.2812 25.8047L18.2812 16.6523C18.2812 15.1523 18.1055 14.4961 17.168 13.5352L10.7109 6.96094C9.82031 6.04688 9.08203 5.84766 7.76953 5.84766L3.63281 5.84766C1.21875 5.84766 0 7.07812 0 9.52734ZM1.88672 25.7695L1.88672 9.55078C1.88672 8.40234 2.50781 7.73438 3.72656 7.73438L7.57031 7.73438L7.57031 14.5312C7.57031 16.0078 8.32031 16.7461 9.77344 16.7461L16.3945 16.7461L16.3945 25.7695C16.3945 26.9414 15.7617 27.5977 14.5547 27.5977L3.71484 27.5977C2.50781 27.5977 1.88672 26.9414 1.88672 25.7695ZM9.99609 14.9766C9.52734 14.9766 9.33984 14.7891 9.33984 14.3203L9.33984 8.16797L16.0312 14.9766Z" fill="#000000"/>
 </g>
</svg>
