<?xml version="1.0" encoding="UTF-8"?>

<!--
  - Copyright (c) 2023. Compose Cupertino project and open source contributors.
  -
  -  Licensed under the Apache License, Version 2.0 (the "License");
  -  you may not use this file except in compliance with the License.
  -  You may obtain a copy of the License at
  -
  -      http://www.apache.org/licenses/LICENSE-2.0
  -
  -  Unless required by applicable law or agreed to in writing, software
  -  distributed under the License is distributed on an "AS IS" BASIS,
  -  WITHOUT WARRANTIES OR CONDITIONS OF ANY KIND, either express or implied.
  -  See the License for the specific language governing permissions and
  -  limitations under the License.
  -
  -->

<svg version="1.1" xmlns="http://www.w3.org/2000/svg" xmlns:xlink="http://www.w3.org/1999/xlink" width="21.7617" height="28.582">
 <g>
  <path d="M3.63281 26.4141L10.0547 26.4141C9.44531 25.8867 8.91797 25.2422 8.53125 24.5273L3.73828 24.5273C2.53125 24.5273 1.88672 23.9062 1.88672 22.7344L1.88672 4.99219C1.88672 3.84375 2.51953 3.17578 3.73828 3.17578L15.9844 3.17578C17.1562 3.17578 17.8242 3.83203 17.8242 4.99219L17.8242 15.2227C18.5391 15.6094 19.1836 16.125 19.7109 16.7461L19.7109 4.96875C19.7109 2.50781 18.5039 1.28906 16.0781 1.28906L3.63281 1.28906C1.21875 1.28906 0 2.51953 0 4.96875L0 22.7344C0 25.1953 1.21875 26.4141 3.63281 26.4141ZM5.42578 7.95703L14.3086 7.95703C14.7188 7.95703 15.0352 7.62891 15.0352 7.21875C15.0352 6.82031 14.7188 6.51562 14.3086 6.51562L5.42578 6.51562C4.99219 6.51562 4.6875 6.82031 4.6875 7.21875C4.6875 7.62891 4.99219 7.95703 5.42578 7.95703ZM5.42578 12.0352L14.3086 12.0352C14.7188 12.0352 15.0352 11.7188 15.0352 11.3086C15.0352 10.9102 14.7188 10.5938 14.3086 10.5938L5.42578 10.5938C4.99219 10.5938 4.6875 10.9102 4.6875 11.3086C4.6875 11.7188 4.99219 12.0352 5.42578 12.0352Z" fill="#000000"/>
  <path d="M14.4492 26.4141C17.3555 26.4141 19.7109 24.0586 19.7109 21.1523C19.7109 18.2227 17.3555 15.8672 14.4492 15.8672C11.543 15.8672 9.16406 18.2461 9.16406 21.1523C9.16406 24.0586 11.543 26.4141 14.4492 26.4141ZM14.4492 24.7383C12.457 24.7383 10.8398 23.1211 10.8398 21.1523C10.8398 19.1836 12.457 17.5547 14.4492 17.5547C16.4062 17.5547 18.0234 19.1836 18.0234 21.1523C18.0234 23.1211 16.418 24.7383 14.4492 24.7383ZM20.8125 28.582C21.3516 28.582 21.7617 28.1602 21.7617 27.5625C21.7617 27.3047 21.6328 27.0469 21.4336 26.8477L18.1523 23.5547L16.6641 24.8906L19.957 28.1953C20.2383 28.4766 20.4961 28.582 20.8125 28.582Z" fill="#000000"/>
 </g>
</svg>
