<?xml version="1.0" encoding="UTF-8"?>

<!--
  - Copyright (c) 2023. Compose Cupertino project and open source contributors.
  -
  -  Licensed under the Apache License, Version 2.0 (the "License");
  -  you may not use this file except in compliance with the License.
  -  You may obtain a copy of the License at
  -
  -      http://www.apache.org/licenses/LICENSE-2.0
  -
  -  Unless required by applicable law or agreed to in writing, software
  -  distributed under the License is distributed on an "AS IS" BASIS,
  -  WITHOUT WARRANTIES OR CONDITIONS OF ANY KIND, either express or implied.
  -  See the License for the specific language governing permissions and
  -  limitations under the License.
  -
  -->

<svg version="1.1" xmlns="http://www.w3.org/2000/svg" xmlns:xlink="http://www.w3.org/1999/xlink" width="19.7109" height="25.1367">
 <g>
  <rect height="25.1367" opacity="0" width="19.7109" x="0" y="0"/>
  <path d="M14.168 14.1328L5.27344 14.1328C4.85156 14.1328 4.53516 14.4492 4.53516 14.8477C4.53516 15.2578 4.85156 15.5742 5.27344 15.5742L14.168 15.5742C14.5781 15.5742 14.8828 15.2578 14.8828 14.8477C14.8828 14.4492 14.5781 14.1328 14.168 14.1328ZM14.168 18.2227L5.27344 18.2227C4.85156 18.2227 4.53516 18.5508 4.53516 18.9609C4.53516 19.3594 4.85156 19.6641 5.27344 19.6641L14.168 19.6641C14.5781 19.6641 14.8828 19.3594 14.8828 18.9609C14.8828 18.5508 14.5781 18.2227 14.168 18.2227ZM3.63281 25.125L16.0781 25.125C18.5039 25.125 19.7109 23.8945 19.7109 21.457L19.7109 10.8164C19.7109 9.30469 19.5352 8.64844 18.5977 7.6875L12.1406 1.11328C11.25 0.199219 10.5117 0 9.19922 0L3.63281 0C1.21875 0 0 1.24219 0 3.67969L0 21.457C0 23.9062 1.20703 25.125 3.63281 25.125ZM3.71484 23.2383C2.50781 23.2383 1.88672 22.5938 1.88672 21.4219L1.88672 3.71484C1.88672 2.55469 2.50781 1.88672 3.72656 1.88672L8.94141 1.88672L8.94141 8.69531C8.94141 10.1719 9.67969 10.8984 11.1445 10.8984L17.8242 10.8984L17.8242 21.4219C17.8242 22.5938 17.2031 23.2383 15.9844 23.2383ZM11.3555 9.12891C10.8867 9.12891 10.7109 8.94141 10.7109 8.47266L10.7109 2.25L17.4609 9.12891Z" fill="#000000"/>
 </g>
</svg>
