<?xml version="1.0" encoding="UTF-8"?>

<!--
  - Copyright (c) 2023. Compose Cupertino project and open source contributors.
  -
  -  Licensed under the Apache License, Version 2.0 (the "License");
  -  you may not use this file except in compliance with the License.
  -  You may obtain a copy of the License at
  -
  -      http://www.apache.org/licenses/LICENSE-2.0
  -
  -  Unless required by applicable law or agreed to in writing, software
  -  distributed under the License is distributed on an "AS IS" BASIS,
  -  WITHOUT WARRANTIES OR CONDITIONS OF ANY KIND, either express or implied.
  -  See the License for the specific language governing permissions and
  -  limitations under the License.
  -
  -->

<svg version="1.1" xmlns="http://www.w3.org/2000/svg" xmlns:xlink="http://www.w3.org/1999/xlink" width="26.1813" height="23.918">
 <g>
  <path d="M14.2281 23.9062C20.7555 23.9062 26.1813 18.4805 26.1813 11.9531C26.1813 5.41406 20.7555 0 14.2281 0C7.68908 0 2.27502 5.40234 2.27502 11.9414L4.26721 11.9414C4.26721 6.41016 8.69689 2.00391 14.2281 2.00391C19.7594 2.00391 24.1891 6.42188 24.1891 11.9531C24.1891 17.4844 19.7594 21.9375 14.2281 21.9141C10.8883 21.9023 7.95861 20.2852 6.16564 17.7891C5.80236 17.3086 5.25158 17.1562 4.75939 17.4492C4.29064 17.7422 4.16174 18.3867 4.56017 18.9023C6.78674 21.8906 10.2789 23.9062 14.2281 23.9062ZM0.833612 9.69141C-0.0101376 9.69141-0.221075 10.2656 0.235956 10.9219L2.86096 14.6484C3.24767 15.1875 3.81017 15.1758 4.18517 14.6484L6.81017 10.9102C7.25549 10.2656 7.04455 9.69141 6.21252 9.69141Z" fill="#000000"/>
  <path d="M14.2164 17.7656C16.7125 17.7656 18.5289 16.3711 18.5289 14.4258C18.5289 12.7852 17.6266 11.9062 15.3883 11.3672L13.7242 10.957C12.4117 10.6289 11.8492 10.1719 11.8492 9.38672C11.8492 8.40234 12.7633 7.72266 14.1227 7.72266C15.3531 7.72266 16.1031 8.25 16.5133 9.375C16.7008 9.78516 17.0172 9.97266 17.3453 9.97266C17.9547 9.97266 18.3063 9.43359 18.0953 8.73047C17.7672 7.48828 16.361 6.17578 14.1227 6.17578C11.7438 6.17578 10.0445 7.54688 10.0445 9.45703C10.0445 11.0625 11.0758 12.0469 13.2203 12.5508L14.8961 12.9492C16.2086 13.2539 16.7008 13.6992 16.7008 14.5547C16.7008 15.5625 15.7281 16.2188 14.2164 16.2188C12.8453 16.2188 12.0133 15.7031 11.5914 14.5898C11.4156 14.1914 11.0992 14.0039 10.7711 14.0039C10.1735 14.0039 9.85705 14.4844 9.98596 15.1875C10.2672 16.6289 11.9547 17.7656 14.2164 17.7656ZM13.525 18.9141C13.525 19.3008 13.8414 19.6289 14.2281 19.6289C14.6149 19.6289 14.943 19.3008 14.943 18.9141L14.943 5.00391C14.943 4.61719 14.6149 4.28906 14.2281 4.28906C13.8414 4.28906 13.525 4.61719 13.525 5.00391Z" fill="#000000"/>
 </g>
</svg>
