<?xml version="1.0" encoding="UTF-8"?>

<!--
  - Copyright (c) 2023. Compose Cupertino project and open source contributors.
  -
  -  Licensed under the Apache License, Version 2.0 (the "License");
  -  you may not use this file except in compliance with the License.
  -  You may obtain a copy of the License at
  -
  -      http://www.apache.org/licenses/LICENSE-2.0
  -
  -  Unless required by applicable law or agreed to in writing, software
  -  distributed under the License is distributed on an "AS IS" BASIS,
  -  WITHOUT WARRANTIES OR CONDITIONS OF ANY KIND, either express or implied.
  -  See the License for the specific language governing permissions and
  -  limitations under the License.
  -
  -->

<svg version="1.1" xmlns="http://www.w3.org/2000/svg" xmlns:xlink="http://www.w3.org/1999/xlink" width="14.7539" height="26.543">
  <path d="M7.44141 23.7188C11.4023 23.7188 14.7539 21.6562 14.7539 17.8945C14.7539 15 12.9023 13.2773 8.76562 12.2812L6.53906 11.7539C3.92578 11.1328 2.71875 10.043 2.71875 8.33203C2.71875 6.49219 4.46484 4.91016 7.42969 4.91016C9.85547 4.91016 11.5195 6.04688 12.1641 8.14453C12.3516 8.75391 12.75 9.07031 13.3359 9.07031C14.0273 9.07031 14.4141 8.625 14.4141 7.94531C14.4141 7.75781 14.3906 7.55859 14.332 7.34766C13.6289 4.64062 10.8867 2.83594 7.42969 2.83594C3.35156 2.83594 0.433594 5.13281 0.433594 8.47266C0.433594 11.2383 2.26172 12.9727 6.1875 13.9219L8.41406 14.4492C11.332 15.1523 12.4688 16.1602 12.4688 18.0586C12.4688 20.3203 10.6172 21.6445 7.46484 21.6445C4.65234 21.6445 2.8125 20.4609 2.25 18.2695C2.05078 17.6484 1.66406 17.332 1.07812 17.332C0.398438 17.332 0 17.7891 0 18.4805C0 18.6562 0.0234375 18.8555 0.0820312 19.0664C0.820312 22.0078 3.92578 23.7188 7.44141 23.7188ZM7.38281 26.543C7.875 26.543 8.27344 26.1445 8.27344 25.6523L8.27344 0.972656C8.27344 0.480469 7.875 0.09375 7.38281 0.09375C6.89062 0.09375 6.50391 0.480469 6.50391 0.972656L6.50391 25.6523C6.50391 26.1445 6.89062 26.543 7.38281 26.543Z" fill="#000000"/>
</svg>
