<?xml version="1.0" encoding="UTF-8"?>

<!--
  - Copyright (c) 2023. Compose Cupertino project and open source contributors.
  -
  -  Licensed under the Apache License, Version 2.0 (the "License");
  -  you may not use this file except in compliance with the License.
  -  You may obtain a copy of the License at
  -
  -      http://www.apache.org/licenses/LICENSE-2.0
  -
  -  Unless required by applicable law or agreed to in writing, software
  -  distributed under the License is distributed on an "AS IS" BASIS,
  -  WITHOUT WARRANTIES OR CONDITIONS OF ANY KIND, either express or implied.
  -  See the License for the specific language governing permissions and
  -  limitations under the License.
  -
  -->

<svg version="1.1" xmlns="http://www.w3.org/2000/svg" xmlns:xlink="http://www.w3.org/1999/xlink" width="30.5273" height="21.0411">
 <g>
  <path d="M13.125 10.5499C13.125 11.6866 14.1211 12.6475 15.2812 12.6475C16.4414 12.6475 17.3906 11.6866 17.3906 10.5264C17.3906 9.35455 16.4531 8.39362 15.2812 8.39362C14.0977 8.39362 13.125 9.37799 13.125 10.5499Z" fill="#000000"/>
  <path d="M8.37891 10.5264C8.37891 12.0967 8.91797 13.5733 9.85547 14.7335C10.2422 15.2256 10.8867 15.2256 11.2383 14.8272C11.5898 14.4288 11.4375 13.96 11.0977 13.4796C10.4648 12.6827 10.1367 11.6514 10.1367 10.5264C10.1367 9.40143 10.4648 8.37018 11.0977 7.56159C11.4375 7.09284 11.5898 6.62409 11.2383 6.22565C10.8867 5.82721 10.2422 5.82721 9.85547 6.30768C8.91797 7.46784 8.37891 8.9444 8.37891 10.5264ZM22.1484 10.5264C22.1484 8.9444 21.6094 7.46784 20.6719 6.30768C20.2852 5.82721 19.6406 5.82721 19.2891 6.22565C18.9375 6.62409 19.0781 7.09284 19.4297 7.56159C20.0625 8.37018 20.3906 9.40143 20.3906 10.5264C20.3906 11.6514 20.0625 12.6827 19.4297 13.4796C19.0781 13.96 18.9375 14.4288 19.2891 14.8272C19.6406 15.2256 20.2852 15.2256 20.6719 14.7335C21.6094 13.5733 22.1484 12.0967 22.1484 10.5264Z" fill="#000000"/>
  <path d="M4.19531 10.5264C4.19531 13.3038 5.19141 15.8936 6.98438 17.8272C7.39453 18.2842 7.99219 18.296 8.34375 17.8858C8.68359 17.4991 8.58984 16.9952 8.19141 16.5616C6.73828 14.9327 5.94141 12.8233 5.94141 10.5264C5.94141 8.22955 6.73828 6.12018 8.19141 4.49127C8.58984 4.05768 8.68359 3.55377 8.34375 3.15534C7.99219 2.7569 7.39453 2.7569 6.98438 3.21393C5.19141 5.15924 4.19531 7.73737 4.19531 10.5264ZM26.332 10.5264C26.332 7.73737 25.3359 5.15924 23.543 3.21393C23.1328 2.7569 22.5352 2.7569 22.1836 3.15534C21.832 3.55377 21.9375 4.05768 22.3242 4.49127C23.7891 6.12018 24.5859 8.22955 24.5859 10.5264C24.5859 12.8233 23.7891 14.9327 22.3242 16.5616C21.9375 16.9952 21.832 17.4991 22.1836 17.8858C22.5352 18.296 23.1328 18.2842 23.543 17.8272C25.3359 15.8936 26.332 13.3038 26.332 10.5264Z" fill="#000000"/>
  <path d="M0 10.5264C0 14.4522 1.47656 18.0499 4.03125 20.7217C4.45312 21.1671 5.02734 21.1202 5.35547 20.7452C5.69531 20.3819 5.625 19.8428 5.22656 19.4327C2.97656 17.0889 1.75781 13.9483 1.75781 10.5264C1.75781 7.10455 2.97656 3.96393 5.22656 1.62018C5.625 1.1983 5.69531 0.670961 5.35547 0.295961C5.02734-0.0673201 4.45312-0.114195 4.03125 0.331117C1.47656 3.00299 0 6.60065 0 10.5264ZM30.5273 10.5264C30.5273 6.60065 29.0508 3.00299 26.4961 0.331117C26.0742-0.114195 25.5-0.0673201 25.1719 0.295961C24.832 0.670961 24.9023 1.1983 25.3008 1.62018C27.5391 3.96393 28.7695 7.10455 28.7695 10.5264C28.7695 13.9483 27.5391 17.0889 25.3008 19.4327C24.9023 19.8428 24.832 20.3819 25.1719 20.7452C25.5 21.1202 26.0742 21.1671 26.4961 20.7217C29.0508 18.0499 30.5273 14.4522 30.5273 10.5264Z" fill="#000000"/>
 </g>
</svg>
