<?xml version="1.0" encoding="UTF-8"?>

<!--
  - Copyright (c) 2023. Compose Cupertino project and open source contributors.
  -
  -  Licensed under the Apache License, Version 2.0 (the "License");
  -  you may not use this file except in compliance with the License.
  -  You may obtain a copy of the License at
  -
  -      http://www.apache.org/licenses/LICENSE-2.0
  -
  -  Unless required by applicable law or agreed to in writing, software
  -  distributed under the License is distributed on an "AS IS" BASIS,
  -  WITHOUT WARRANTIES OR CONDITIONS OF ANY KIND, either express or implied.
  -  See the License for the specific language governing permissions and
  -  limitations under the License.
  -
  -->

<svg version="1.1" xmlns="http://www.w3.org/2000/svg" xmlns:xlink="http://www.w3.org/1999/xlink" width="17.6953" height="17.8242">
 <g>
  <path d="M1.67578 17.6953C2.58984 17.6953 3.32812 16.9453 3.32812 16.043C3.32812 15.1172 2.60156 14.3789 1.67578 14.3789C0.761719 14.3789 0 15.1523 0 16.0781C0 16.9453 0.785156 17.6953 1.67578 17.6953Z" fill="#000000"/>
  <path d="M0.175781 10.5469C0.175781 11.0625 0.609375 11.4844 1.125 11.4844C3.92578 11.4844 6.21094 13.7695 6.21094 16.5703C6.21094 17.0859 6.63281 17.5195 7.14844 17.5195C7.66406 17.5195 8.09766 17.0859 8.09766 16.5703C8.09766 12.7266 4.95703 9.59766 1.125 9.59766C0.609375 9.59766 0.175781 10.0312 0.175781 10.5469Z" fill="#000000"/>
  <path d="M0.175781 5.89453C0.175781 6.41016 0.609375 6.83203 1.125 6.83203C6.50391 6.83203 10.8633 11.1914 10.8633 16.5703C10.8633 17.0859 11.2852 17.5195 11.8008 17.5195C12.3164 17.5195 12.75 17.0859 12.75 16.5703C12.75 10.1602 7.53516 4.94531 1.125 4.94531C0.609375 4.94531 0.175781 5.37891 0.175781 5.89453Z" fill="#000000"/>
  <path d="M0.175781 0.9375C0.175781 1.45312 0.609375 1.88672 1.125 1.88672C9.22266 1.88672 15.8086 8.47266 15.8086 16.5703C15.8086 17.0859 16.2422 17.5195 16.7578 17.5195C17.2734 17.5195 17.6953 17.0859 17.6953 16.5703C17.6953 7.44141 10.2539 0 1.125 0C0.609375 0 0.175781 0.421875 0.175781 0.9375Z" fill="#000000"/>
 </g>
</svg>
