<?xml version="1.0" encoding="UTF-8"?>

<!--
  - Copyright (c) 2023. Compose Cupertino project and open source contributors.
  -
  -  Licensed under the Apache License, Version 2.0 (the "License");
  -  you may not use this file except in compliance with the License.
  -  You may obtain a copy of the License at
  -
  -      http://www.apache.org/licenses/LICENSE-2.0
  -
  -  Unless required by applicable law or agreed to in writing, software
  -  distributed under the License is distributed on an "AS IS" BASIS,
  -  WITHOUT WARRANTIES OR CONDITIONS OF ANY KIND, either express or implied.
  -  See the License for the specific language governing permissions and
  -  limitations under the License.
  -
  -->

<svg version="1.1" xmlns="http://www.w3.org/2000/svg" xmlns:xlink="http://www.w3.org/1999/xlink" width="16.2422" height="23.7539">
  <path d="M8.12109 23.7305C12.9961 23.7305 16.2422 20.5547 16.2422 15.7969C16.2422 13.4531 15.3281 11.1211 14.6367 9.5625C13.3828 6.73828 11.4141 3.63281 9.70312 0.984375C9.29297 0.363281 8.8125 0 8.12109 0C7.42969 0 6.94922 0.363281 6.53906 0.984375C4.82812 3.63281 2.85938 6.73828 1.60547 9.5625C0.925781 11.1211 0 13.4531 0 15.7969C0 20.5547 3.24609 23.7305 8.12109 23.7305ZM8.12109 21.8086C4.39453 21.8086 1.92188 19.4062 1.92188 15.7969C1.92188 13.875 2.66016 12.0117 3.31641 10.4883C4.62891 7.40625 6.36328 4.875 8.00391 2.40234C8.08594 2.28516 8.17969 2.28516 8.25 2.40234C9.87891 4.875 11.625 7.40625 12.9141 10.4766C13.582 12.0117 14.332 13.875 14.332 15.7969C14.332 19.4062 11.8477 21.8086 8.12109 21.8086Z" fill="#000000"/>
</svg>
