<?xml version="1.0" encoding="UTF-8"?>

<!--
  - Copyright (c) 2023. Compose Cupertino project and open source contributors.
  -
  -  Licensed under the Apache License, Version 2.0 (the "License");
  -  you may not use this file except in compliance with the License.
  -  You may obtain a copy of the License at
  -
  -      http://www.apache.org/licenses/LICENSE-2.0
  -
  -  Unless required by applicable law or agreed to in writing, software
  -  distributed under the License is distributed on an "AS IS" BASIS,
  -  WITHOUT WARRANTIES OR CONDITIONS OF ANY KIND, either express or implied.
  -  See the License for the specific language governing permissions and
  -  limitations under the License.
  -
  -->

<svg version="1.1" xmlns="http://www.w3.org/2000/svg" xmlns:xlink="http://www.w3.org/1999/xlink" width="18" height="27.2461">
  <path d="M0 19.6875C0 22.9219 2.01562 24.9844 5.16797 24.9844C7.52344 24.9844 9.28125 23.9531 10.3945 21.9609L11.4492 20.0742C13.9219 15.5508 18 14.9648 18 9.15234C18 3.66797 14.4492 0 9.12891 0C3.67969 0 0 3.69141 0 9.19922ZM1.76953 19.5703L1.76953 9.19922C1.76953 4.73438 4.71094 1.76953 9.12891 1.76953C13.3945 1.76953 16.2305 4.73438 16.2305 9.15234C16.2305 14.0156 12.4219 14.8594 9.86719 19.2773L8.84766 21.0234C8.01562 22.4766 6.85547 23.168 5.25 23.168C3.08203 23.168 1.76953 21.8086 1.76953 19.5703ZM4.26562 15.1641C4.74609 15.1641 5.15625 14.7539 5.15625 14.2734L5.15625 9.12891C5.15625 6.87891 6.72656 5.39062 9.11719 5.39062C11.3906 5.39062 12.8555 6.86719 12.8555 9.12891C12.8555 9.60938 13.2539 10.0195 13.7344 10.0195C14.2148 10.0195 14.625 9.60938 14.625 9.12891C14.625 5.83594 12.4219 3.62109 9.11719 3.62109C5.69531 3.62109 3.38672 5.83594 3.38672 9.12891L3.38672 14.2734C3.38672 14.7539 3.78516 15.1641 4.26562 15.1641ZM4.17188 11.6836L8.13281 11.6836C8.92969 11.6836 9.43359 12.1641 9.43359 12.8672C9.43359 13.2305 9.24609 13.7227 8.96484 14.0625L7.55859 15.832C7.40625 16.0312 7.32422 16.2422 7.32422 16.4648C7.32422 16.9453 7.73438 17.3438 8.21484 17.3438C8.48438 17.3438 8.74219 17.2031 8.94141 16.957L10.4648 15.0234C10.9453 14.4141 11.2617 13.5234 11.2617 12.7969C11.2617 11.0742 10.0078 9.91406 8.10938 9.91406L4.17188 9.91406Z" fill="#000000"/>
</svg>
