<?xml version="1.0" encoding="UTF-8"?>

<!--
  - Copyright (c) 2023. Compose Cupertino project and open source contributors.
  -
  -  Licensed under the Apache License, Version 2.0 (the "License");
  -  you may not use this file except in compliance with the License.
  -  You may obtain a copy of the License at
  -
  -      http://www.apache.org/licenses/LICENSE-2.0
  -
  -  Unless required by applicable law or agreed to in writing, software
  -  distributed under the License is distributed on an "AS IS" BASIS,
  -  WITHOUT WARRANTIES OR CONDITIONS OF ANY KIND, either express or implied.
  -  See the License for the specific language governing permissions and
  -  limitations under the License.
  -
  -->

<svg version="1.1" xmlns="http://www.w3.org/2000/svg" xmlns:xlink="http://www.w3.org/1999/xlink" width="23.2969" height="22.8633">
  <path d="M5.15625 9.50391C7.89844 9.52734 10.2539 7.37109 10.2539 4.73438C10.2539 2.13281 7.89844 0 5.15625 0C2.63672 0 1.08984 1.55859 0.351562 2.64844C0.105469 3.02344 0 3.43359 0 3.89062L0 5.61328C0 6.07031 0.117188 6.48047 0.351562 6.85547C1.06641 7.94531 2.63672 9.46875 5.15625 9.50391ZM2.13281 6.60938C1.83984 6.60938 1.60547 6.375 1.60547 6.07031L1.60547 3.42188C1.60547 3.11719 1.83984 2.88281 2.13281 2.88281C2.44922 2.88281 2.67188 3.11719 2.67188 3.42188L2.67188 6.07031C2.67188 6.375 2.44922 6.60938 2.13281 6.60938ZM6.90234 18.3984L7.89844 18.3984C8.61328 18.3984 9.05859 18.0469 9.05859 17.3438L9.05859 9.32812C8.13281 10.043 6.98438 10.5117 5.75391 10.6055L5.75391 17.3438C5.75391 18.0469 6.21094 18.3984 6.90234 18.3984ZM6.80859 22.8281L7.99219 22.8281L7.99219 17.2383L6.80859 17.2383ZM18.1406 9.50391C20.6602 9.46875 22.2305 7.94531 22.9453 6.85547C23.1797 6.48047 23.2969 6.07031 23.2969 5.61328L23.2969 3.89062C23.2969 3.43359 23.1914 3.02344 22.9453 2.64844C22.207 1.55859 20.6602 0 18.1406 0C15.3984 0 13.043 2.13281 13.043 4.73438C13.043 7.37109 15.3984 9.52734 18.1406 9.50391ZM21.1523 6.60938C20.8477 6.60938 20.625 6.375 20.625 6.07031L20.625 3.42188C20.625 3.11719 20.8477 2.88281 21.1523 2.88281C21.457 2.88281 21.6914 3.11719 21.6914 3.42188L21.6914 6.07031C21.6914 6.375 21.457 6.60938 21.1523 6.60938ZM15.3984 18.3984L16.3945 18.3984C17.0859 18.3984 17.543 18.0469 17.543 17.3438L17.543 10.6055C16.3125 10.5117 15.1641 10.043 14.2383 9.32812L14.2383 17.3438C14.2383 18.0469 14.6836 18.3984 15.3984 18.3984ZM16.4883 22.8281L16.4883 17.2383L15.3047 17.2383L15.3047 22.8281Z" fill="#000000"/>
</svg>
