<?xml version="1.0" encoding="UTF-8"?>
<!--
  - Copyright (c) 2023. Compose Cupertino project and open source contributors.
  -
  -  Licensed under the Apache License, Version 2.0 (the "License");
  -  you may not use this file except in compliance with the License.
  -  You may obtain a copy of the License at
  -
  -      http://www.apache.org/licenses/LICENSE-2.0
  -
  -  Unless required by applicable law or agreed to in writing, software
  -  distributed under the License is distributed on an "AS IS" BASIS,
  -  WITHOUT WARRANTIES OR CONDITIONS OF ANY KIND, either express or implied.
  -  See the License for the specific language governing permissions and
  -  limitations under the License.
  -
  -->

<svg version="1.1" xmlns="http://www.w3.org/2000/svg" xmlns:xlink="http://www.w3.org/1999/xlink" width="23.9062" height="23.918">
 <g>
  <path d="M11.9531 23.9062C18.4922 23.9062 23.9062 18.4805 23.9062 11.9531C23.9062 5.41406 18.4805 0 11.9414 0C5.41406 0 0 5.41406 0 11.9531C0 18.4805 5.42578 23.9062 11.9531 23.9062ZM11.9531 21.9141C6.42188 21.9141 2.00391 17.4844 2.00391 11.9531C2.00391 6.42188 6.41016 1.99219 11.9414 1.99219C17.4727 1.99219 21.9141 6.42188 21.9141 11.9531C21.9141 17.4844 17.4844 21.9141 11.9531 21.9141Z" fill="#000000"/>
  <path d="M6.48047 13.6523C7.41797 13.6523 8.17969 12.8906 8.17969 11.9414C8.17969 11.0039 7.40625 10.2422 6.48047 10.2422C5.53125 10.2422 4.76953 11.0039 4.76953 11.9414C4.76953 12.8906 5.53125 13.6523 6.48047 13.6523Z" fill="#000000"/>
  <path d="M11.9414 13.6523C12.8789 13.6523 13.6523 12.8906 13.6523 11.9414C13.6523 11.0039 12.8789 10.2422 11.9414 10.2422C11.0039 10.2422 10.2305 11.0039 10.2305 11.9414C10.2305 12.8906 11.0039 13.6523 11.9414 13.6523Z" fill="#000000"/>
  <path d="M17.4141 13.6523C18.3516 13.6523 19.1133 12.8906 19.1133 11.9414C19.1133 11.0039 18.3516 10.2422 17.4141 10.2422C16.4648 10.2422 15.7031 11.0039 15.7031 11.9414C15.7031 12.8906 16.4648 13.6523 17.4141 13.6523Z" fill="#000000"/>
 </g>
</svg>
