<?xml version="1.0" encoding="UTF-8"?>
<!--
  - Copyright (c) 2023. Compose Cupertino project and open source contributors.
  -
  -  Licensed under the Apache License, Version 2.0 (the "License");
  -  you may not use this file except in compliance with the License.
  -  You may obtain a copy of the License at
  -
  -      http://www.apache.org/licenses/LICENSE-2.0
  -
  -  Unless required by applicable law or agreed to in writing, software
  -  distributed under the License is distributed on an "AS IS" BASIS,
  -  WITHOUT WARRANTIES OR CONDITIONS OF ANY KIND, either express or implied.
  -  See the License for the specific language governing permissions and
  -  limitations under the License.
  -
  -->

<svg version="1.1" xmlns="http://www.w3.org/2000/svg" xmlns:xlink="http://www.w3.org/1999/xlink" width="22.1016" height="4.69922">
 <g>
  <path d="M2.34375 4.69922C3.66797 4.69922 4.72266 3.65625 4.72266 2.35547C4.72266 1.05469 3.66797 0.0117188 2.34375 0.0117188C1.05469 0.0117188 0 1.05469 0 2.35547C0 3.65625 1.05469 4.69922 2.34375 4.69922Z" fill="#000000"/>
  <path d="M11.0508 4.69922C12.3516 4.69922 13.3945 3.65625 13.3945 2.35547C13.3945 1.05469 12.3516 0.0117188 11.0508 0.0117188C9.76172 0.0117188 8.71875 1.05469 8.71875 2.35547C8.71875 3.65625 9.76172 4.69922 11.0508 4.69922Z" fill="#000000"/>
  <path d="M19.7578 4.69922C21.0586 4.69922 22.1016 3.65625 22.1016 2.35547C22.1016 1.05469 21.0586 0.0117188 19.7578 0.0117188C18.4336 0.0117188 17.3906 1.05469 17.3906 2.35547C17.3906 3.65625 18.4336 4.69922 19.7578 4.69922Z" fill="#000000"/>
 </g>
</svg>
