<?xml version="1.0" encoding="UTF-8"?>

<!--
  - Copyright (c) 2023. Compose Cupertino project and open source contributors.
  -
  -  Licensed under the Apache License, Version 2.0 (the "License");
  -  you may not use this file except in compliance with the License.
  -  You may obtain a copy of the License at
  -
  -      http://www.apache.org/licenses/LICENSE-2.0
  -
  -  Unless required by applicable law or agreed to in writing, software
  -  distributed under the License is distributed on an "AS IS" BASIS,
  -  WITHOUT WARRANTIES OR CONDITIONS OF ANY KIND, either express or implied.
  -  See the License for the specific language governing permissions and
  -  limitations under the License.
  -
  -->

<svg version="1.1" xmlns="http://www.w3.org/2000/svg" xmlns:xlink="http://www.w3.org/1999/xlink" width="29.1797" height="24.2227">
 <g>
  <path d="M0 12.1055C0 12.7852 0.386719 13.2656 1.19531 13.3945C2.64844 13.6172 3.22266 14.3555 3.22266 16.2422L3.22266 19.5352C3.22266 22.7227 4.67578 24.2227 7.83984 24.2227C8.02734 24.2227 8.22656 24.1875 8.36719 24.1406C8.73047 23.9883 8.92969 23.6953 8.92969 23.3086C8.92969 22.8516 8.73047 22.6172 8.32031 22.5117C8.20312 22.4883 8.08594 22.4648 7.94531 22.4531C5.97656 22.3125 5.26172 21.4688 5.26172 19.3008L5.26172 15.4102C5.26172 13.4297 4.21875 12.3281 2.39062 12.1523C2.35547 12.1523 2.35547 12.1055 2.39062 12.1055C4.21875 11.9297 5.26172 10.8281 5.26172 8.84766L5.26172 4.94531C5.26172 2.76562 5.97656 1.94531 7.94531 1.80469C8.13281 1.79297 8.29688 1.76953 8.41406 1.72266C8.75391 1.60547 8.92969 1.34766 8.92969 0.9375C8.92969 0.527344 8.71875 0.246094 8.32031 0.105469C8.14453 0.046875 7.95703 0.0234375 7.72266 0.0234375C4.66406 0.0234375 3.22266 1.54688 3.22266 4.71094L3.22266 8.01562C3.22266 9.87891 2.64844 10.6289 1.19531 10.8516C0.386719 10.9805 0 11.4375 0 12.1055ZM29.1797 12.1055C29.1797 11.4375 28.793 10.9805 27.9844 10.8516C26.5312 10.6289 25.957 9.87891 25.957 8.01562L25.957 4.71094C25.957 1.54688 24.5156 0.0234375 21.457 0.0234375C21.2227 0.0234375 21.0469 0.046875 20.8711 0.105469C20.4609 0.246094 20.25 0.527344 20.25 0.9375C20.25 1.34766 20.4258 1.60547 20.7773 1.72266C20.8945 1.76953 21.0469 1.79297 21.2344 1.80469C23.2031 1.94531 23.9297 2.76562 23.9297 4.94531L23.9297 8.84766C23.9297 10.8281 24.9609 11.9297 26.7891 12.1055C26.8242 12.1055 26.8242 12.1523 26.7891 12.1523C24.9609 12.3281 23.9297 13.4297 23.9297 15.4102L23.9297 19.3008C23.9297 21.4688 23.2031 22.3125 21.2344 22.4531C21.0938 22.4648 20.9883 22.4883 20.8711 22.5117C20.4492 22.6172 20.25 22.8516 20.25 23.3086C20.25 23.6953 20.4492 23.9883 20.8242 24.1406C20.9648 24.1875 21.1523 24.2227 21.3398 24.2227C24.5039 24.2227 25.957 22.7227 25.957 19.5352L25.957 16.2422C25.957 14.3555 26.5312 13.6172 27.9844 13.3945C28.793 13.2656 29.1797 12.7852 29.1797 12.1055Z" fill="#000000"/>
  <path d="M9.31641 13.9688C10.3359 13.9688 11.1797 13.1016 11.1797 12.1055C11.1797 11.1211 10.3359 10.2422 9.31641 10.2422C8.29688 10.2422 7.44141 11.1211 7.44141 12.1055C7.44141 13.1016 8.29688 13.9688 9.31641 13.9688Z" fill="#000000"/>
  <path d="M14.5898 13.9688C15.5859 13.9688 16.4531 13.1016 16.4531 12.1055C16.4531 11.1211 15.5859 10.2422 14.5898 10.2422C13.5938 10.2422 12.7266 11.1211 12.7266 12.1055C12.7266 13.1016 13.5938 13.9688 14.5898 13.9688Z" fill="#000000"/>
  <path d="M19.8633 13.9688C20.8828 13.9688 21.7383 13.1016 21.7383 12.1055C21.7383 11.1211 20.8828 10.2422 19.8633 10.2422C18.8555 10.2422 18 11.1211 18 12.1055C18 13.1016 18.8555 13.9688 19.8633 13.9688Z" fill="#000000"/>
 </g>
</svg>
