<?xml version="1.0" encoding="UTF-8"?>

<!--
  - Copyright (c) 2023. Compose Cupertino project and open source contributors.
  -
  -  Licensed under the Apache License, Version 2.0 (the "License");
  -  you may not use this file except in compliance with the License.
  -  You may obtain a copy of the License at
  -
  -      http://www.apache.org/licenses/LICENSE-2.0
  -
  -  Unless required by applicable law or agreed to in writing, software
  -  distributed under the License is distributed on an "AS IS" BASIS,
  -  WITHOUT WARRANTIES OR CONDITIONS OF ANY KIND, either express or implied.
  -  See the License for the specific language governing permissions and
  -  limitations under the License.
  -
  -->

<svg version="1.1" xmlns="http://www.w3.org/2000/svg" xmlns:xlink="http://www.w3.org/1999/xlink" width="23.9062" height="23.918">
 <g>
  <path d="M11.9531 23.9062C18.4922 23.9062 23.9062 18.4805 23.9062 11.9531C23.9062 5.41406 18.4805 0 11.9414 0C5.41406 0 0 5.41406 0 11.9531C0 18.4805 5.42578 23.9062 11.9531 23.9062ZM11.9531 21.9141C6.42188 21.9141 2.00391 17.4844 2.00391 11.9531C2.00391 6.42188 6.41016 1.99219 11.9414 1.99219C17.4727 1.99219 21.9141 6.42188 21.9141 11.9531C21.9141 17.4844 17.4844 21.9141 11.9531 21.9141Z" fill="#000000"/>
  <path d="M9.65625 11.9648L5.61328 7.94531C5.55469 8.05078 5.51953 8.33203 5.51953 8.74219L5.51953 15.1641C5.51953 15.5625 5.55469 15.8555 5.63672 15.9844ZM11.9531 12.5742C12.1523 12.5742 12.3633 12.5039 12.5859 12.2812L17.707 7.16016C17.5547 7.04297 17.2148 6.9375 16.7227 6.9375L7.16016 6.9375C6.66797 6.9375 6.33984 7.04297 6.1875 7.16016L11.3086 12.2812C11.543 12.5156 11.7539 12.5742 11.9531 12.5742ZM14.2031 11.9648L18.2227 15.9844C18.3047 15.8555 18.3516 15.5625 18.3516 15.1641L18.3516 8.74219C18.3516 8.33203 18.3047 8.05078 18.2461 7.94531ZM11.9414 13.5C11.5195 13.5 11.1914 13.3477 10.7461 12.9375L10.3711 12.5977L6.21094 16.7461C6.35156 16.875 6.67969 16.957 7.16016 16.957L16.7109 16.957C17.2031 16.957 17.5195 16.875 17.6602 16.7461L13.5117 12.5977L13.1367 12.9375C12.6797 13.3477 12.3633 13.5 11.9414 13.5Z" fill="#000000"/>
 </g>
</svg>
