<?xml version="1.0" encoding="UTF-8"?>

<!--
  - Copyright (c) 2023. Compose Cupertino project and open source contributors.
  -
  -  Licensed under the Apache License, Version 2.0 (the "License");
  -  you may not use this file except in compliance with the License.
  -  You may obtain a copy of the License at
  -
  -      http://www.apache.org/licenses/LICENSE-2.0
  -
  -  Unless required by applicable law or agreed to in writing, software
  -  distributed under the License is distributed on an "AS IS" BASIS,
  -  WITHOUT WARRANTIES OR CONDITIONS OF ANY KIND, either express or implied.
  -  See the License for the specific language governing permissions and
  -  limitations under the License.
  -
  -->

<svg version="1.1" xmlns="http://www.w3.org/2000/svg" xmlns:xlink="http://www.w3.org/1999/xlink" width="25.875" height="20.2148">
  <path d="M3.67969 20.2148L22.5469 20.2148C24.6562 20.2148 25.875 18.9961 25.875 16.582L25.875 3.64453C25.875 1.24219 24.6445 0.0234375 22.1953 0.0234375L3.32812 0.0234375C1.21875 0.0234375 0 1.23047 0 3.64453L0 16.582C0 19.0078 1.23047 20.2148 3.67969 20.2148ZM3.60938 18.4219C2.4375 18.4219 1.79297 17.8008 1.79297 16.582L1.79297 3.64453C1.79297 2.4375 2.4375 1.81641 3.60938 1.81641L22.2656 1.81641C23.4141 1.81641 24.082 2.4375 24.082 3.65625L24.082 16.5938C24.082 17.8008 23.4141 18.4219 22.2656 18.4219ZM12.9609 13.2422C13.7812 13.2422 14.5781 12.9023 15.3984 12.0938L24.9141 2.74219L23.6953 1.51172L14.3789 10.7109C13.875 11.2148 13.418 11.4375 12.9609 11.4375C12.4922 11.4375 12.0352 11.2031 11.543 10.7109L2.17969 1.46484L0.949219 2.69531L10.5234 12.0938C11.3438 12.9023 12.1289 13.2422 12.9609 13.2422ZM23.5781 18.6797L24.7969 17.4492L17.2148 9.96094L15.9961 11.1797ZM1.11328 17.4609L2.33203 18.6914L9.92578 11.1797L8.69531 9.96094Z" fill="#000000"/>
</svg>
