<?xml version="1.0" encoding="UTF-8"?>

<!--
  - Copyright (c) 2023. Compose Cupertino project and open source contributors.
  -
  -  Licensed under the Apache License, Version 2.0 (the "License");
  -  you may not use this file except in compliance with the License.
  -  You may obtain a copy of the License at
  -
  -      http://www.apache.org/licenses/LICENSE-2.0
  -
  -  Unless required by applicable law or agreed to in writing, software
  -  distributed under the License is distributed on an "AS IS" BASIS,
  -  WITHOUT WARRANTIES OR CONDITIONS OF ANY KIND, either express or implied.
  -  See the License for the specific language governing permissions and
  -  limitations under the License.
  -
  -->

<svg version="1.1" xmlns="http://www.w3.org/2000/svg" xmlns:xlink="http://www.w3.org/1999/xlink" width="21.0435" height="22.0725">
  <path d="M1.23128 16.046L5.07503 19.878C6.59847 21.4015 8.52035 21.4132 10.0086 19.9249L20.3211 9.60069C21.3055 8.61632 21.2703 7.26866 20.2977 6.28429L14.743 0.741317C13.7586-0.231339 12.411-0.254777 11.4149 0.717879L1.09066 11.0187C-0.397622 12.5069-0.374184 14.4405 1.23128 16.046ZM2.48519 14.7921C1.65316 13.9601 1.618 12.9874 2.41488 12.2023L12.6102 2.03038C12.8914 1.77257 13.2313 1.74913 13.5008 2.00694L19.0321 7.52647C19.3016 7.78429 19.2664 8.14757 18.9969 8.4171L8.82503 18.6007C8.03988 19.3976 7.10238 19.3976 6.3055 18.6007ZM2.82503 10.4679L10.5594 18.1788L11.6493 17.089L3.9266 9.37804Z" fill="#000000"/>
</svg>
