<?xml version="1.0" encoding="UTF-8"?>

<!--
  - Copyright (c) 2023. Compose Cupertino project and open source contributors.
  -
  -  Licensed under the Apache License, Version 2.0 (the "License");
  -  you may not use this file except in compliance with the License.
  -  You may obtain a copy of the License at
  -
  -      http://www.apache.org/licenses/LICENSE-2.0
  -
  -  Unless required by applicable law or agreed to in writing, software
  -  distributed under the License is distributed on an "AS IS" BASIS,
  -  WITHOUT WARRANTIES OR CONDITIONS OF ANY KIND, either express or implied.
  -  See the License for the specific language governing permissions and
  -  limitations under the License.
  -
  -->

<svg version="1.1" xmlns="http://www.w3.org/2000/svg" xmlns:xlink="http://www.w3.org/1999/xlink" width="24.5625" height="22.3945">
 <g>
  <path d="M3.19922 22.2656L21.3633 22.2656C23.3555 22.2656 24.5625 20.8828 24.5625 19.0898C24.5625 18.5391 24.3984 17.9648 24.1055 17.4492L15.0117 1.60547C14.4023 0.539062 13.3594 0 12.2812 0C11.2031 0 10.1484 0.539062 9.55078 1.60547L0.457031 17.4492C0.140625 17.9766 0 18.5391 0 19.0898C0 20.8828 1.20703 22.2656 3.19922 22.2656ZM3.21094 20.4258C2.39062 20.4258 1.89844 19.793 1.89844 19.0781C1.89844 18.8555 1.94531 18.5742 2.07422 18.3281L11.1562 2.49609C11.4023 2.0625 11.8477 1.875 12.2812 1.875C12.7148 1.875 13.1484 2.0625 13.3945 2.49609L22.4766 18.3398C22.6055 18.5859 22.6641 18.8555 22.6641 19.0781C22.6641 19.793 22.1484 20.4258 21.3398 20.4258Z" fill="#000000"/>
  <path d="M12.2812 14.3672C12.8438 14.3672 13.1719 14.0391 13.1836 13.4297L13.3477 7.25391C13.3594 6.65625 12.8906 6.21094 12.2695 6.21094C11.6367 6.21094 11.1914 6.64453 11.2031 7.24219L11.3555 13.4297C11.3672 14.0273 11.6953 14.3672 12.2812 14.3672ZM12.2812 18.1758C12.9609 18.1758 13.5469 17.6367 13.5469 16.957C13.5469 16.2656 12.9727 15.7383 12.2812 15.7383C11.5898 15.7383 11.0156 16.2773 11.0156 16.957C11.0156 17.625 11.6016 18.1758 12.2812 18.1758Z" fill="#000000"/>
 </g>
</svg>
