<?xml version="1.0" encoding="UTF-8"?>

<!--
  - Copyright (c) 2023. Compose Cupertino project and open source contributors.
  -
  -  Licensed under the Apache License, Version 2.0 (the "License");
  -  you may not use this file except in compliance with the License.
  -  You may obtain a copy of the License at
  -
  -      http://www.apache.org/licenses/LICENSE-2.0
  -
  -  Unless required by applicable law or agreed to in writing, software
  -  distributed under the License is distributed on an "AS IS" BASIS,
  -  WITHOUT WARRANTIES OR CONDITIONS OF ANY KIND, either express or implied.
  -  See the License for the specific language governing permissions and
  -  limitations under the License.
  -
  -->

<svg version="1.1" xmlns="http://www.w3.org/2000/svg" xmlns:xlink="http://www.w3.org/1999/xlink" width="21.5742" height="21.5977">
 <g>
  <path d="M3.67969 21.5977L17.8945 21.5977C20.3555 21.5977 21.5742 20.3789 21.5742 17.9648L21.5742 3.65625C21.5742 1.24219 20.3555 0.0234375 17.8945 0.0234375L3.67969 0.0234375C1.23047 0.0234375 0 1.23047 0 3.65625L0 17.9648C0 20.3906 1.23047 21.5977 3.67969 21.5977ZM3.70312 19.7109C2.53125 19.7109 1.88672 19.0898 1.88672 17.8711L1.88672 3.75C1.88672 2.53125 2.53125 1.91016 3.70312 1.91016L17.8711 1.91016C19.0312 1.91016 19.6875 2.53125 19.6875 3.75L19.6875 17.8711C19.6875 19.0898 19.0312 19.7109 17.8711 19.7109Z" fill="#000000"/>
  <path d="M10.793 12.9023C11.3555 12.9023 11.6719 12.5859 11.6836 11.9766L11.8594 5.78906C11.8711 5.19141 11.4023 4.74609 10.7812 4.74609C10.1484 4.74609 9.70312 5.17969 9.71484 5.77734L9.86719 11.9766C9.87891 12.5742 10.207 12.9023 10.793 12.9023ZM10.793 16.7109C11.4609 16.7109 12.0469 16.1719 12.0469 15.4922C12.0469 14.8125 11.4727 14.2734 10.793 14.2734C10.1016 14.2734 9.52734 14.8242 9.52734 15.4922C9.52734 16.1602 10.1133 16.7109 10.793 16.7109Z" fill="#000000"/>
 </g>
</svg>
