<?xml version="1.0" encoding="UTF-8"?>

<!--
  - Copyright (c) 2023. Compose Cupertino project and open source contributors.
  -
  -  Licensed under the Apache License, Version 2.0 (the "License");
  -  you may not use this file except in compliance with the License.
  -  You may obtain a copy of the License at
  -
  -      http://www.apache.org/licenses/LICENSE-2.0
  -
  -  Unless required by applicable law or agreed to in writing, software
  -  distributed under the License is distributed on an "AS IS" BASIS,
  -  WITHOUT WARRANTIES OR CONDITIONS OF ANY KIND, either express or implied.
  -  See the License for the specific language governing permissions and
  -  limitations under the License.
  -
  -->

<svg version="1.1" xmlns="http://www.w3.org/2000/svg" xmlns:xlink="http://www.w3.org/1999/xlink" width="11.9883" height="22.4414">
  <path d="M1.67578 15.9844C2.29688 15.9844 2.71875 15.5742 2.73047 14.9414L2.83594 1.28906C2.83594 1.28906 2.83594 1.28906 2.83594 1.28906C2.83594 0.621094 2.29688 0.164062 1.66406 0.164062C1.03125 0.164062 0.492188 0.621094 0.492188 1.28906C0.492188 1.28906 0.492188 1.28906 0.492188 1.28906L0.621094 14.9414C0.632812 15.5742 1.05469 15.9844 1.67578 15.9844ZM1.66406 22.4414C2.58984 22.4414 3.32812 21.6914 3.32812 20.7773C3.32812 19.8516 2.58984 19.1133 1.66406 19.1133C0.75 19.1133 0 19.8516 0 20.7773C0 21.6914 0.75 22.4414 1.66406 22.4414ZM10.3242 15.9844C10.9453 15.9844 11.3672 15.5742 11.3789 14.9414L11.4844 1.28906C11.4844 1.28906 11.4844 1.28906 11.4844 1.28906C11.4844 0.621094 10.9453 0.164062 10.3125 0.164062C9.69141 0.164062 9.14062 0.621094 9.14062 1.28906C9.14062 1.28906 9.14062 1.28906 9.14062 1.28906L9.26953 14.9414C9.28125 15.5742 9.71484 15.9844 10.3242 15.9844ZM10.3125 22.4414C11.25 22.4414 11.9883 21.6914 11.9883 20.7773C11.9883 19.8516 11.25 19.1133 10.3125 19.1133C9.39844 19.1133 8.64844 19.8516 8.64844 20.7773C8.64844 21.6914 9.39844 22.4414 10.3125 22.4414Z" fill="#000000"/>
</svg>
