<?xml version="1.0" encoding="UTF-8"?>

<!--
  - Copyright (c) 2023. Compose Cupertino project and open source contributors.
  -
  -  Licensed under the Apache License, Version 2.0 (the "License");
  -  you may not use this file except in compliance with the License.
  -  You may obtain a copy of the License at
  -
  -      http://www.apache.org/licenses/LICENSE-2.0
  -
  -  Unless required by applicable law or agreed to in writing, software
  -  distributed under the License is distributed on an "AS IS" BASIS,
  -  WITHOUT WARRANTIES OR CONDITIONS OF ANY KIND, either express or implied.
  -  See the License for the specific language governing permissions and
  -  limitations under the License.
  -
  -->

<svg version="1.1" xmlns="http://www.w3.org/2000/svg" xmlns:xlink="http://www.w3.org/1999/xlink" width="23.9062" height="23.918">
 <g>
  <path d="M11.9531 23.9062C18.4922 23.9062 23.9062 18.4805 23.9062 11.9531C23.9062 5.41406 18.4805 0 11.9414 0C5.41406 0 0 5.41406 0 11.9531C0 18.4805 5.42578 23.9062 11.9531 23.9062ZM11.9531 21.9141C6.42188 21.9141 2.00391 17.4844 2.00391 11.9531C2.00391 6.42188 6.41016 1.99219 11.9414 1.99219C17.4727 1.99219 21.9141 6.42188 21.9141 11.9531C21.9141 17.4844 17.4844 21.9141 11.9531 21.9141Z" fill="#000000"/>
  <path d="M11.9414 14.0625C12.4922 14.0625 12.8203 13.7461 12.832 13.1367L13.0078 6.94922C13.0195 6.35156 12.5508 5.90625 11.9297 5.90625C11.2969 5.90625 10.8516 6.33984 10.8633 6.9375L11.0156 13.1367C11.0273 13.7344 11.3555 14.0625 11.9414 14.0625ZM11.9414 17.8711C12.6094 17.8711 13.1953 17.332 13.1953 16.6523C13.1953 15.9727 12.6211 15.4336 11.9414 15.4336C11.25 15.4336 10.6758 15.9844 10.6758 16.6523C10.6758 17.3203 11.2617 17.8711 11.9414 17.8711Z" fill="#000000"/>
 </g>
</svg>
