<?xml version="1.0" encoding="UTF-8"?>

<!--
  - Copyright (c) 2023. Compose Cupertino project and open source contributors.
  -
  -  Licensed under the Apache License, Version 2.0 (the "License");
  -  you may not use this file except in compliance with the License.
  -  You may obtain a copy of the License at
  -
  -      http://www.apache.org/licenses/LICENSE-2.0
  -
  -  Unless required by applicable law or agreed to in writing, software
  -  distributed under the License is distributed on an "AS IS" BASIS,
  -  WITHOUT WARRANTIES OR CONDITIONS OF ANY KIND, either express or implied.
  -  See the License for the specific language governing permissions and
  -  limitations under the License.
  -
  -->

<svg version="1.1" xmlns="http://www.w3.org/2000/svg" xmlns:xlink="http://www.w3.org/1999/xlink" width="32.0273" height="20.0977">
  <path d="M16.0195 20.0977C25.4883 20.0977 32.0273 12.4453 32.0273 10.0547C32.0273 7.65234 25.4766 0.0117188 16.0195 0.0117188C6.67969 0.0117188 0 7.65234 0 10.0547C0 12.4453 6.66797 20.0977 16.0195 20.0977ZM16.0195 18.2461C8.29688 18.2461 2.05078 11.707 2.05078 10.0547C2.05078 8.66016 8.29688 1.86328 16.0195 1.86328C23.707 1.86328 29.9766 8.66016 29.9766 10.0547C29.9766 11.707 23.707 18.2461 16.0195 18.2461ZM16.0195 16.6172C19.6641 16.6172 22.5938 13.6289 22.5938 10.0547C22.5938 6.38672 19.6641 3.49219 16.0195 3.49219C12.3516 3.49219 9.41016 6.38672 9.42188 10.0547C9.44531 13.6289 12.3516 16.6172 16.0195 16.6172ZM16.0195 12.2344C14.8008 12.2344 13.8164 11.25 13.8164 10.0547C13.8164 8.84766 14.8008 7.875 16.0195 7.875C17.2266 7.875 18.2109 8.84766 18.2109 10.0547C18.2109 11.25 17.2266 12.2344 16.0195 12.2344Z" fill="#000000"/>
</svg>
