<?xml version="1.0" encoding="UTF-8"?>

<!--
  - Copyright (c) 2023. Compose Cupertino project and open source contributors.
  -
  -  Licensed under the Apache License, Version 2.0 (the "License");
  -  you may not use this file except in compliance with the License.
  -  You may obtain a copy of the License at
  -
  -      http://www.apache.org/licenses/LICENSE-2.0
  -
  -  Unless required by applicable law or agreed to in writing, software
  -  distributed under the License is distributed on an "AS IS" BASIS,
  -  WITHOUT WARRANTIES OR CONDITIONS OF ANY KIND, either express or implied.
  -  See the License for the specific language governing permissions and
  -  limitations under the License.
  -
  -->

<svg version="1.1" xmlns="http://www.w3.org/2000/svg" xmlns:xlink="http://www.w3.org/1999/xlink" width="32.0273" height="21.9375">
 <g>
  <path d="M16.0195 21.0176C18.1992 21.0176 20.1914 20.6309 22.0078 20.0098L20.4727 18.4746C19.0781 18.9082 17.6016 19.166 16.0195 19.166C8.29688 19.166 2.05078 12.627 2.05078 10.9746C2.05078 10.1543 4.21875 7.42383 7.67578 5.34961L6.22266 3.89648C2.32031 6.31055 0 9.55664 0 10.9746C0 13.3652 6.66797 21.0176 16.0195 21.0176ZM16.0195 0.931641C13.9805 0.931641 12.1289 1.2832 10.4062 1.85742L11.9531 3.39258C13.2422 3.00586 14.5664 2.7832 16.0195 2.7832C23.7305 2.7832 29.9766 9.58008 29.9766 10.9746C29.9766 11.9238 27.9258 14.4785 24.6797 16.4707L26.1211 17.9121C29.8242 15.5098 32.0273 12.3574 32.0273 10.9746C32.0273 8.57227 25.4883 0.931641 16.0195 0.931641ZM16.0195 17.5371C17.0508 17.5371 18.0234 17.2793 18.8906 16.8574L10.1016 8.06836C9.66797 8.93555 9.42188 9.91992 9.42188 10.9746C9.43359 14.5488 12.3516 17.5371 16.0195 17.5371ZM22.0312 13.541C22.3945 12.7559 22.5938 11.877 22.5938 10.9746C22.5938 7.30664 19.6641 4.41211 16.0195 4.41211C15.0938 4.41211 14.2266 4.61133 13.4414 4.95117Z" fill="#000000"/>
  <path d="M25.1367 21.123C25.4883 21.4863 26.0508 21.5098 26.4141 21.123C26.8008 20.7363 26.7656 20.209 26.4141 19.8457L6.82031 0.263672C6.46875-0.0878906 5.89453-0.0878906 5.53125 0.263672C5.19141 0.603516 5.19141 1.20117 5.53125 1.54102Z" fill="#000000"/>
 </g>
</svg>
