<?xml version="1.0" encoding="UTF-8"?>

<!--
  - Copyright (c) 2023. Compose Cupertino project and open source contributors.
  -
  -  Licensed under the Apache License, Version 2.0 (the "License");
  -  you may not use this file except in compliance with the License.
  -  You may obtain a copy of the License at
  -
  -      http://www.apache.org/licenses/LICENSE-2.0
  -
  -  Unless required by applicable law or agreed to in writing, software
  -  distributed under the License is distributed on an "AS IS" BASIS,
  -  WITHOUT WARRANTIES OR CONDITIONS OF ANY KIND, either express or implied.
  -  See the License for the specific language governing permissions and
  -  limitations under the License.
  -
  -->

<svg version="1.1" xmlns="http://www.w3.org/2000/svg" xmlns:xlink="http://www.w3.org/1999/xlink" width="24.2418" height="20.8242">
 <g>
  <path d="M21.7396 14.4141C22.6888 13.3945 21.2825 11.9648 20.181 13.0547C18.6341 14.5898 15.9974 15.5391 13.0911 15.5391C9.90361 15.5391 6.86846 14.8008 3.96221 13.2188C2.63799 12.4922 1.65361 14.3789 3.02471 15.1055C6.17705 16.7812 9.61064 17.625 13.0911 17.625C16.6653 17.625 19.8294 16.4531 21.7396 14.4141ZM5.1458 15.8555C4.87627 16.3711 4.27861 17.3438 3.91533 17.7305C3.09502 18.5859 4.29033 19.6406 5.11064 18.75C5.84893 17.9414 6.43486 16.6992 6.65752 16.3242ZM9.23564 16.793C9.01299 17.8359 8.66143 18.9961 8.46221 19.4531C7.98174 20.5547 9.47002 21.1289 9.93877 20.0039C10.3489 18.9727 10.6302 17.4492 10.6888 17.0156ZM13.4896 17.0508C13.6419 18.1172 13.5833 19.3359 13.5481 19.8398C13.4896 21.0352 15.095 21.0586 15.1185 19.8516C15.1536 18.7383 15.013 17.2031 14.931 16.7695ZM17.4739 16.2891C18.0716 17.4727 18.2591 18.7148 18.3646 19.2188C18.5755 20.4023 20.1458 19.875 19.888 18.832C19.5716 17.5195 19.1731 16.1602 18.7278 15.5039Z" fill="#000000"/>
  <path d="M2.48564 9.57422C4.70049 9.57422 12.1653 4.20703 15.7981 4.20703C17.0755 4.20703 18.2005 4.72266 19.3841 5.80078L22.3255 8.50781C23.2981 9.39844 24.681 8.34375 24.1067 7.34766C23.5911 6.50391 22.806 5.33203 21.0716 3.41016C19.1966 1.32422 17.4856 0 14.8021 0C11.3216 0 6.02471 2.01562 1.10283 4.62891C-0.994824 5.74219 0.141894 9.57422 2.48564 9.57422Z" fill="#000000"/>
 </g>
</svg>
