<?xml version="1.0" encoding="UTF-8"?>

<!--
  - Copyright (c) 2023. Compose Cupertino project and open source contributors.
  -
  -  Licensed under the Apache License, Version 2.0 (the "License");
  -  you may not use this file except in compliance with the License.
  -  You may obtain a copy of the License at
  -
  -      http://www.apache.org/licenses/LICENSE-2.0
  -
  -  Unless required by applicable law or agreed to in writing, software
  -  distributed under the License is distributed on an "AS IS" BASIS,
  -  WITHOUT WARRANTIES OR CONDITIONS OF ANY KIND, either express or implied.
  -  See the License for the specific language governing permissions and
  -  limitations under the License.
  -
  -->

<svg version="1.1" xmlns="http://www.w3.org/2000/svg" xmlns:xlink="http://www.w3.org/1999/xlink" width="36.9727" height="14.6367">
  <path d="M9.57422 14.625C13.6055 14.625 16.875 11.3555 16.875 7.3125C16.875 3.28125 13.6055 0 9.57422 0C5.53125 0 2.25 3.28125 2.25 7.3125C2.25 11.3555 5.53125 14.625 9.57422 14.625ZM9.57422 12.6445C6.62109 12.6445 4.23047 10.2656 4.23047 7.3125C4.23047 4.37109 6.62109 1.98047 9.57422 1.98047C12.5039 1.98047 14.8945 4.38281 14.8945 7.3125C14.8945 10.2539 12.5039 12.6445 9.57422 12.6445ZM27.4219 14.625C31.4531 14.625 34.7227 11.3555 34.7227 7.3125C34.7227 3.28125 31.4531 0 27.4219 0C23.3789 0 20.0977 3.28125 20.0977 7.3125C20.0977 11.3555 23.3789 14.625 27.4219 14.625ZM27.4219 12.6445C24.4805 12.6445 22.0781 10.2539 22.0781 7.3125C22.0781 4.38281 24.4805 1.98047 27.4219 1.98047C30.3633 1.98047 32.7422 4.37109 32.7422 7.3125C32.7422 10.2656 30.3633 12.6445 27.4219 12.6445ZM3.02344 5.87109L0.878906 5.87109C0.304688 5.87109 0 6.16406 0 6.75L0 7.23047C0 7.81641 0.304688 8.12109 0.878906 8.12109L3.02344 8.12109ZM33.9492 8.12109L36.1055 8.12109C36.6797 8.12109 36.9727 7.81641 36.9727 7.23047L36.9727 6.75C36.9727 6.16406 36.6797 5.87109 36.1055 5.87109L33.9492 5.87109ZM16.3008 7.73438C16.8867 7.37109 17.707 7.18359 18.4922 7.18359C19.2656 7.18359 20.0859 7.37109 20.6836 7.73438L20.6836 5.61328C20.0156 5.29688 19.1484 5.17969 18.4922 5.17969C17.8242 5.17969 16.957 5.29688 16.3008 5.61328Z" fill="#000000"/>
</svg>
