<?xml version="1.0" encoding="UTF-8"?>

<!--
  - Copyright (c) 2023. Compose Cupertino project and open source contributors.
  -
  -  Licensed under the Apache License, Version 2.0 (the "License");
  -  you may not use this file except in compliance with the License.
  -  You may obtain a copy of the License at
  -
  -      http://www.apache.org/licenses/LICENSE-2.0
  -
  -  Unless required by applicable law or agreed to in writing, software
  -  distributed under the License is distributed on an "AS IS" BASIS,
  -  WITHOUT WARRANTIES OR CONDITIONS OF ANY KIND, either express or implied.
  -  See the License for the specific language governing permissions and
  -  limitations under the License.
  -
  -->

<svg version="1.1" xmlns="http://www.w3.org/2000/svg" xmlns:xlink="http://www.w3.org/1999/xlink" width="27.3984" height="21.3633">
  <path d="M6.42188 21.3633C9.98438 21.3633 12.832 17.0273 12.832 10.6758C12.832 4.3125 9.98438 0 6.42188 0C2.84766 0 0 4.3125 0 10.6758C0 17.0273 2.84766 21.3633 6.42188 21.3633ZM6.42188 19.7109C3.85547 19.7227 1.6875 16.043 1.6875 10.6758C1.6875 5.34375 3.85547 1.67578 6.42188 1.65234C9.01172 1.64062 11.1797 5.30859 11.1797 10.6758C11.1797 16.0078 9.01172 19.6875 6.42188 19.7109ZM3.89062 14.8125C5.84766 14.8125 7.14844 13.4531 7.14844 11.3906C7.14844 9.36328 5.84766 7.99219 3.89062 7.99219C1.92188 7.99219 0.621094 9.36328 0.621094 11.3906C0.621094 13.4531 1.92188 14.8125 3.89062 14.8125ZM2.96484 10.9922C2.54297 10.9336 2.28516 10.4297 2.37891 9.91406C2.48438 9.41016 2.88281 9.03516 3.28125 9.11719C3.70312 9.19922 3.96094 9.67969 3.85547 10.1836C3.76172 10.6992 3.375 11.0625 2.96484 10.9922ZM20.9766 21.3633C24.5508 21.3633 27.3984 17.0273 27.3984 10.6758C27.3984 4.3125 24.5508 0 20.9766 0C17.4141 0 14.5664 4.3125 14.5664 10.6758C14.5664 17.0273 17.4141 21.3633 20.9766 21.3633ZM20.9766 19.6992C18.3984 19.6992 16.2188 16.0312 16.2188 10.6758C16.2188 5.34375 18.3867 1.67578 20.9766 1.66406C23.543 1.66406 25.7227 5.33203 25.7227 10.6758C25.7227 16.0195 23.543 19.6875 20.9766 19.6992ZM18.4336 14.8125C20.3906 14.8125 21.7148 13.4531 21.7148 11.3906C21.7148 9.36328 20.3906 7.99219 18.4336 7.99219C16.4766 7.99219 15.1641 9.36328 15.1641 11.3906C15.1641 13.4531 16.4766 14.8125 18.4336 14.8125ZM17.5078 10.9922C17.0977 10.9219 16.8281 10.4297 16.9336 9.91406C17.0391 9.41016 17.4258 9.03516 17.8359 9.11719C18.2578 9.1875 18.5039 9.67969 18.3984 10.1836C18.3047 10.6992 17.918 11.0625 17.5078 10.9922Z" fill="#000000"/>
</svg>
