<?xml version="1.0" encoding="UTF-8"?>

<!--
  - Copyright (c) 2023. Compose Cupertino project and open source contributors.
  -
  -  Licensed under the Apache License, Version 2.0 (the "License");
  -  you may not use this file except in compliance with the License.
  -  You may obtain a copy of the License at
  -
  -      http://www.apache.org/licenses/LICENSE-2.0
  -
  -  Unless required by applicable law or agreed to in writing, software
  -  distributed under the License is distributed on an "AS IS" BASIS,
  -  WITHOUT WARRANTIES OR CONDITIONS OF ANY KIND, either express or implied.
  -  See the License for the specific language governing permissions and
  -  limitations under the License.
  -
  -->

<svg version="1.1" xmlns="http://www.w3.org/2000/svg" xmlns:xlink="http://www.w3.org/1999/xlink" width="35.8242" height="18.0117">
 <g>
  <path d="M11.7656 6.53906C11.7656 7.05469 12.1875 7.48828 12.7031 7.48828L23.1445 7.48828C23.6602 7.48828 24.082 7.05469 24.082 6.53906C24.082 6.03516 23.6602 5.60156 23.1445 5.60156L12.7031 5.60156C12.1875 5.60156 11.7656 6.03516 11.7656 6.53906ZM11.7656 10.9219C11.7656 11.4375 12.1875 11.8594 12.7031 11.8594L23.1445 11.8594C23.6602 11.8594 24.082 11.4375 24.082 10.9219C24.082 10.4062 23.6602 9.97266 23.1445 9.97266L12.7031 9.97266C12.1875 9.97266 11.7656 10.4062 11.7656 10.9219ZM0 7.69922C0 11.4727 2.74219 14.1094 6.85547 14.1094L7.61719 14.1094L7.61719 12.2227L6.66797 12.2227C3.82031 12.2227 1.88672 10.3242 1.88672 7.69922C1.88672 6.39844 2.57812 5.60156 3.83203 5.60156L7.13672 5.60156L7.13672 3.71484L3.83203 3.71484C1.40625 3.71484 0 5.21484 0 7.69922ZM35.8242 7.69922C35.8242 5.21484 34.4297 3.71484 31.9922 3.71484L28.6875 3.71484L28.6875 5.60156L31.9922 5.60156C33.2461 5.60156 33.9375 6.39844 33.9375 7.69922C33.9375 10.3242 32.0039 12.2227 29.1562 12.2227L28.207 12.2227L28.207 14.1094L28.9805 14.1094C33.082 14.1094 35.8242 11.4727 35.8242 7.69922Z" fill="#000000"/>
  <path d="M17.918 17.9766C24.8672 17.9766 29.8125 15.2695 29.8125 11.2969L29.8125 5.4375C29.8125 1.92188 25.6055 0 17.918 0C10.2188 0 6.01172 1.92188 6.01172 5.4375L6.01172 11.2969C6.01172 15.2695 10.957 17.9766 17.918 17.9766ZM17.918 16.0898C12.1172 16.0898 7.91016 14.0391 7.91016 11.2969L7.91016 5.4375C7.91016 3.15234 11.4609 1.88672 17.918 1.88672C24.3633 1.88672 27.9258 3.15234 27.9258 5.4375L27.9258 11.2969C27.9258 14.0391 23.707 16.0898 17.918 16.0898Z" fill="#000000"/>
 </g>
</svg>
