<?xml version="1.0" encoding="UTF-8"?>

<!--
  - Copyright (c) 2023. Compose Cupertino project and open source contributors.
  -
  -  Licensed under the Apache License, Version 2.0 (the "License");
  -  you may not use this file except in compliance with the License.
  -  You may obtain a copy of the License at
  -
  -      http://www.apache.org/licenses/LICENSE-2.0
  -
  -  Unless required by applicable law or agreed to in writing, software
  -  distributed under the License is distributed on an "AS IS" BASIS,
  -  WITHOUT WARRANTIES OR CONDITIONS OF ANY KIND, either express or implied.
  -  See the License for the specific language governing permissions and
  -  limitations under the License.
  -
  -->

<svg version="1.1" xmlns="http://www.w3.org/2000/svg" xmlns:xlink="http://www.w3.org/1999/xlink" width="22.9453" height="22.957">
 <g>
  <rect height="22.957" opacity="0" width="22.9453" x="0" y="0"/>
  <path d="M0.9375 7.47656C1.55859 7.47656 1.88672 7.125 1.88672 6.51562L1.88672 3.75C1.88672 2.53125 2.53125 1.91016 3.70312 1.91016L6.53906 1.91016C7.16016 1.91016 7.5 1.57031 7.5 0.960938C7.5 0.351562 7.16016 0.0234375 6.53906 0.0234375L3.67969 0.0234375C1.23047 0.0234375 0 1.23047 0 3.64453L0 6.51562C0 7.125 0.339844 7.47656 0.9375 7.47656ZM21.9961 7.47656C22.6172 7.47656 22.9453 7.125 22.9453 6.51562L22.9453 3.64453C22.9453 1.23047 21.7148 0.0234375 19.2656 0.0234375L16.3945 0.0234375C15.7852 0.0234375 15.4453 0.351562 15.4453 0.960938C15.4453 1.57031 15.7852 1.91016 16.3945 1.91016L19.2305 1.91016C20.3906 1.91016 21.0586 2.53125 21.0586 3.75L21.0586 6.51562C21.0586 7.125 21.3984 7.47656 21.9961 7.47656ZM3.67969 22.957L6.53906 22.957C7.16016 22.957 7.5 22.6172 7.5 22.0195C7.5 21.4102 7.16016 21.0703 6.53906 21.0703L3.70312 21.0703C2.53125 21.0703 1.88672 20.4492 1.88672 19.2305L1.88672 16.4648C1.88672 15.8438 1.54688 15.5039 0.9375 15.5039C0.328125 15.5039 0 15.8438 0 16.4648L0 19.3242C0 21.75 1.23047 22.957 3.67969 22.957ZM16.3945 22.957L19.2656 22.957C21.7148 22.957 22.9453 21.7383 22.9453 19.3242L22.9453 16.4648C22.9453 15.8438 22.6055 15.5039 21.9961 15.5039C21.3867 15.5039 21.0586 15.8438 21.0586 16.4648L21.0586 19.2305C21.0586 20.4492 20.3906 21.0703 19.2305 21.0703L16.3945 21.0703C15.7852 21.0703 15.4453 21.4102 15.4453 22.0195C15.4453 22.6172 15.7852 22.957 16.3945 22.957Z" fill="#000000"/>
  <path d="M7.00781 10.6992C7.55859 10.6992 7.95703 10.3125 7.95703 9.75L7.95703 8.15625C7.95703 7.59375 7.55859 7.20703 7.00781 7.20703C6.45703 7.20703 6.07031 7.59375 6.07031 8.15625L6.07031 9.75C6.07031 10.3125 6.45703 10.6992 7.00781 10.6992ZM10.5352 13.4648C10.5586 13.4648 10.5938 13.4648 10.6289 13.4648C11.8125 13.4648 12.457 12.8203 12.457 11.6367L12.457 7.94531C12.457 7.48828 12.1523 7.19531 11.707 7.19531C11.2383 7.19531 10.9336 7.48828 10.9336 7.94531L10.9336 11.7422C10.9336 11.8594 10.8633 11.918 10.7578 11.918L10.3477 11.918C9.92578 11.918 9.59766 12.2461 9.59766 12.668C9.59766 13.1719 9.9375 13.4648 10.5352 13.4648ZM15.9023 10.6992C16.4414 10.6992 16.8281 10.3125 16.8281 9.75L16.8281 8.15625C16.8281 7.59375 16.4414 7.20703 15.9023 7.20703C15.3398 7.20703 14.9531 7.59375 14.9531 8.15625L14.9531 9.75C14.9531 10.3125 15.3398 10.6992 15.9023 10.6992ZM11.4023 17.4023C12.8203 17.4023 14.25 16.793 15.2695 15.7734C15.4102 15.6445 15.4805 15.4453 15.4805 15.2109C15.4805 14.7656 15.1523 14.4492 14.7188 14.4492C14.4961 14.4492 14.332 14.5312 14.1094 14.7656C13.4648 15.4336 12.4453 15.8906 11.4023 15.8906C10.418 15.8906 9.38672 15.457 8.70703 14.7656C8.51953 14.5898 8.36719 14.4492 8.08594 14.4492C7.65234 14.4492 7.32422 14.7656 7.32422 15.2109C7.32422 15.4102 7.39453 15.5977 7.54688 15.7617C8.49609 16.8398 9.98438 17.4023 11.4023 17.4023Z" fill="#000000"/>
 </g>
</svg>
