<?xml version="1.0" encoding="UTF-8"?>

<!--
  - Copyright (c) 2023. Compose Cupertino project and open source contributors.
  -
  -  Licensed under the Apache License, Version 2.0 (the "License");
  -  you may not use this file except in compliance with the License.
  -  You may obtain a copy of the License at
  -
  -      http://www.apache.org/licenses/LICENSE-2.0
  -
  -  Unless required by applicable law or agreed to in writing, software
  -  distributed under the License is distributed on an "AS IS" BASIS,
  -  WITHOUT WARRANTIES OR CONDITIONS OF ANY KIND, either express or implied.
  -  See the License for the specific language governing permissions and
  -  limitations under the License.
  -
  -->

<svg version="1.1" xmlns="http://www.w3.org/2000/svg" xmlns:xlink="http://www.w3.org/1999/xlink" width="23.9062" height="23.918">
 <g>
  <path d="M11.9531 23.9062C18.4922 23.9062 23.9062 18.4805 23.9062 11.9531C23.9062 5.41406 18.4805 0 11.9414 0C5.41406 0 0 5.41406 0 11.9531C0 18.4805 5.42578 23.9062 11.9531 23.9062ZM11.9531 21.9141C6.42188 21.9141 2.00391 17.4844 2.00391 11.9531C2.00391 6.42188 6.41016 1.99219 11.9414 1.99219C17.4727 1.99219 21.9141 6.42188 21.9141 11.9531C21.9141 17.4844 17.4844 21.9141 11.9531 21.9141Z" fill="#000000"/>
  <path d="M11.9414 17.8242C14.3906 17.8242 16.0312 16.1953 16.0312 15.4219C16.0312 15.1406 15.7617 15.0117 15.5156 15.1289C14.6602 15.5977 13.6406 16.125 11.9414 16.125C10.2422 16.125 9.22266 15.5859 8.37891 15.1289C8.12109 15.0117 7.85156 15.1406 7.85156 15.4219C7.85156 16.1953 9.49219 17.8242 11.9414 17.8242ZM8.47266 10.9102C9.21094 10.9102 9.86719 10.2422 9.86719 9.30469C9.86719 8.35547 9.22266 7.6875 8.47266 7.6875C7.73438 7.6875 7.08984 8.35547 7.08984 9.30469C7.08984 10.2422 7.73438 10.9102 8.47266 10.9102ZM15.4219 10.9102C16.1602 10.9102 16.8164 10.2422 16.8164 9.30469C16.8164 8.35547 16.1719 7.6875 15.4219 7.6875C14.6836 7.6875 14.0391 8.35547 14.0391 9.30469C14.0391 10.2422 14.6836 10.9102 15.4219 10.9102Z" fill="#000000"/>
 </g>
</svg>
