<?xml version="1.0" encoding="UTF-8"?>

<!--
  - Copyright (c) 2023. Compose Cupertino project and open source contributors.
  -
  -  Licensed under the Apache License, Version 2.0 (the "License");
  -  you may not use this file except in compliance with the License.
  -  You may obtain a copy of the License at
  -
  -      http://www.apache.org/licenses/LICENSE-2.0
  -
  -  Unless required by applicable law or agreed to in writing, software
  -  distributed under the License is distributed on an "AS IS" BASIS,
  -  WITHOUT WARRANTIES OR CONDITIONS OF ANY KIND, either express or implied.
  -  See the License for the specific language governing permissions and
  -  limitations under the License.
  -
  -->

<svg version="1.1" xmlns="http://www.w3.org/2000/svg" xmlns:xlink="http://www.w3.org/1999/xlink" width="25.207" height="25.2305">
  <path d="M12.5977 17.0508C15.0469 17.0508 17.0508 15.0586 17.0508 12.6094C17.0508 10.1602 15.0469 8.15625 12.5977 8.15625C10.1484 8.15625 8.15625 10.1602 8.15625 12.6094C8.15625 15.0586 10.1484 17.0508 12.5977 17.0508ZM12.5977 15.2461C11.1445 15.2461 9.96094 14.0625 9.96094 12.6094C9.96094 11.1562 11.1445 9.96094 12.5977 9.96094C14.0508 9.96094 15.2461 11.1562 15.2461 12.6094C15.2461 14.0625 14.0508 15.2461 12.5977 15.2461ZM12.5977 14.2734C13.5352 14.2734 14.2734 13.5352 14.2734 12.6094C14.2734 11.6836 13.5234 10.9219 12.5977 10.9219C11.6602 10.9219 10.9219 11.6602 10.9219 12.6094C10.9219 13.5469 11.6602 14.2734 12.5977 14.2734ZM11.7539 9.01172L11.7539 3.35156C11.7539 1.19531 10.5938 0 8.50781 0C4.75781 0.0117188 0.84375 3.39844 0.84375 6.71484C0.84375 9.73828 3.65625 11.4258 8.53125 13.0312L9.28125 11.332C4.98047 9.90234 2.63672 8.80078 2.63672 6.71484C2.63672 4.37109 5.74219 1.79297 8.50781 1.79297C9.59766 1.79297 9.96094 2.19141 9.96094 3.35156L9.96094 9.52734ZM16.1953 11.7539L21.8672 11.7539C24.0234 11.7539 25.207 10.6055 25.207 8.51953C25.207 4.76953 21.8086 0.84375 18.4922 0.84375C15.4688 0.84375 13.7812 3.66797 12.1758 8.55469L13.875 9.30469C15.3047 5.00391 16.4062 2.63672 18.4922 2.63672C20.8359 2.63672 23.4141 5.75391 23.4141 8.51953C23.4141 9.60938 23.0273 9.96094 21.8672 9.96094L15.6797 9.96094ZM13.4531 16.207L13.4531 21.8789C13.4531 24.0352 14.6016 25.2188 16.6875 25.2188C20.4492 25.2188 24.3633 21.8203 24.3633 18.5039C24.3633 15.4805 21.5391 13.793 16.6641 12.1875L15.9141 13.8867C20.2148 15.3164 22.5703 16.418 22.5703 18.5039C22.5703 20.8477 19.4648 23.4258 16.6875 23.4141C15.5977 23.4141 15.2461 23.0391 15.2461 21.8789L15.2461 15.6914ZM9 13.4531L3.32812 13.4531C1.18359 13.4531 0 14.6133 0 16.6992C0 20.4609 3.38672 24.375 6.70312 24.375C9.72656 24.375 11.4141 21.5508 13.0195 16.6758L11.3203 15.9258C9.89062 20.2266 8.78906 22.5703 6.70312 22.5703C4.35938 22.5703 1.79297 19.4766 1.79297 16.6992C1.79297 15.6094 2.16797 15.2461 3.32812 15.2461L9.51562 15.2461Z" fill="#000000"/>
</svg>
