<?xml version="1.0" encoding="UTF-8"?>

<!--
  - Copyright (c) 2023. Compose Cupertino project and open source contributors.
  -
  -  Licensed under the Apache License, Version 2.0 (the "License");
  -  you may not use this file except in compliance with the License.
  -  You may obtain a copy of the License at
  -
  -      http://www.apache.org/licenses/LICENSE-2.0
  -
  -  Unless required by applicable law or agreed to in writing, software
  -  distributed under the License is distributed on an "AS IS" BASIS,
  -  WITHOUT WARRANTIES OR CONDITIONS OF ANY KIND, either express or implied.
  -  See the License for the specific language governing permissions and
  -  limitations under the License.
  -
  -->

<svg version="1.1" xmlns="http://www.w3.org/2000/svg" xmlns:xlink="http://www.w3.org/1999/xlink" width="25.2188" height="25.2305">
 <g>
  <path d="M18.5039 0.84375C15.4336 0.84375 13.7227 3.77344 12.1523 8.95312L14.9531 11.7539L21.8789 11.7539C24.0352 11.7539 25.2188 10.5938 25.2188 8.50781C25.207 4.75781 21.8203 0.84375 18.5039 0.84375ZM18.5039 2.63672C20.8477 2.63672 23.4258 5.74219 23.4258 8.50781C23.4258 9.59766 23.0391 9.96094 21.8789 9.96094L13.7461 9.96094C15.1875 5.21484 16.3242 2.63672 18.5039 2.63672ZM6.71484 24.3633C9.78516 24.3633 11.4961 21.4453 13.0664 16.3008L10.2188 13.4531L3.33984 13.4531C1.19531 13.4531 0 14.6133 0 16.6992C0.0117188 20.4609 3.39844 24.3633 6.71484 24.3633ZM6.71484 22.5703C4.37109 22.5703 1.79297 19.4766 1.79297 16.6992C1.79297 15.6094 2.17969 15.2461 3.33984 15.2461L11.4727 15.2461C10.0312 19.9922 8.90625 22.5703 6.71484 22.5703ZM8.51953 0C7.11328 0 5.69531 0.492188 4.47656 1.27734L5.80078 2.58984C6.63281 2.09766 7.59375 1.79297 8.51953 1.79297C9.60938 1.79297 9.97266 2.19141 9.97266 3.35156L9.97266 6.76172L11.7656 8.55469L11.7656 3.35156C11.7656 1.19531 10.6055 0 8.51953 0ZM0.855469 6.71484C0.855469 10.0898 4.35938 11.8008 10.3594 13.5938L7.21875 10.4531C4.20703 9.48047 2.64844 8.42578 2.64844 6.71484C2.64844 6.46875 2.69531 6.24609 2.78906 6.01172L1.37109 4.59375C1.04297 5.27344 0.855469 5.98828 0.855469 6.71484ZM24.375 18.5039C24.375 15.1289 20.8477 13.418 14.8242 11.625L17.9531 14.7539C21.0117 15.7266 22.582 16.793 22.582 18.5039C22.582 18.7617 22.5352 19.0078 22.4414 19.2422L23.8594 20.6602C24.1875 19.9688 24.375 19.2305 24.375 18.5039ZM16.7109 25.2188C18.1172 25.207 19.5234 24.75 20.7305 23.9648L19.418 22.6406C18.5742 23.1328 17.6367 23.4258 16.7109 23.4258C15.6211 23.4258 15.2578 23.0391 15.2578 21.8789L15.2578 18.4922L13.4648 16.6992L13.4648 21.8789C13.4648 24.0352 14.625 25.2188 16.7109 25.2188Z" fill="#000000"/>
  <path d="M22.7109 24.0117C23.0742 24.3633 23.6484 24.3516 23.9883 24C24.3398 23.6484 24.3398 23.0742 23.9883 22.7227L2.49609 1.23047C2.14453 0.878906 1.57031 0.867188 1.20703 1.23047C0.867188 1.57031 0.867188 2.15625 1.20703 2.50781Z" fill="#000000"/>
 </g>
</svg>
