<?xml version="1.0" encoding="UTF-8"?>

<!--
  - Copyright (c) 2023. Compose Cupertino project and open source contributors.
  -
  -  Licensed under the Apache License, Version 2.0 (the "License");
  -  you may not use this file except in compliance with the License.
  -  You may obtain a copy of the License at
  -
  -      http://www.apache.org/licenses/LICENSE-2.0
  -
  -  Unless required by applicable law or agreed to in writing, software
  -  distributed under the License is distributed on an "AS IS" BASIS,
  -  WITHOUT WARRANTIES OR CONDITIONS OF ANY KIND, either express or implied.
  -  See the License for the specific language governing permissions and
  -  limitations under the License.
  -
  -->

<svg version="1.1" xmlns="http://www.w3.org/2000/svg" xmlns:xlink="http://www.w3.org/1999/xlink" width="29.3906" height="22.3008">
  <path d="M0 0.949219C0 1.46484 0.421875 1.88672 0.9375 1.88672L28.4531 1.88672C28.9688 1.88672 29.3906 1.46484 29.3906 0.949219C29.3906 0.433594 28.9688 0 28.4531 0L0.9375 0C0.421875 0 0 0.433594 0 0.949219ZM3.52734 12.1289L20.2969 12.1289L20.2969 16.2422C20.2969 17.0742 21.3398 17.4961 21.9492 16.8633L26.6484 12.082C27.3281 11.3906 27.1055 10.1719 25.875 10.1719L9.10547 10.1719L9.10547 6.05859C9.10547 5.22656 8.0625 4.80469 7.45312 5.4375L2.76562 10.2188C2.07422 10.9102 2.29688 12.1289 3.52734 12.1289ZM0 21.3398C0 21.8555 0.421875 22.2891 0.9375 22.2891L28.4531 22.2891C28.9688 22.2891 29.3906 21.8555 29.3906 21.3398C29.3906 20.8242 28.9688 20.4023 28.4531 20.4023L0.9375 20.4023C0.421875 20.4023 0 20.8242 0 21.3398Z" fill="#000000"/>
</svg>
