<?xml version="1.0" encoding="UTF-8"?>

<!--
  - Copyright (c) 2023. Compose Cupertino project and open source contributors.
  -
  -  Licensed under the Apache License, Version 2.0 (the "License");
  -  you may not use this file except in compliance with the License.
  -  You may obtain a copy of the License at
  -
  -      http://www.apache.org/licenses/LICENSE-2.0
  -
  -  Unless required by applicable law or agreed to in writing, software
  -  distributed under the License is distributed on an "AS IS" BASIS,
  -  WITHOUT WARRANTIES OR CONDITIONS OF ANY KIND, either express or implied.
  -  See the License for the specific language governing permissions and
  -  limitations under the License.
  -
  -->

<svg version="1.1" xmlns="http://www.w3.org/2000/svg" xmlns:xlink="http://www.w3.org/1999/xlink" width="11.0391" height="26.332">
  <path d="M0 15.7969C0 16.3828 0.457031 16.8398 1.04297 16.8398C1.61719 16.8398 2.07422 16.3828 2.07422 15.7969L2.07422 11.2852C2.07422 11.0742 2.25 10.9102 2.46094 10.9102C2.67188 10.9102 2.83594 11.0742 2.83594 11.2852L2.83594 24.9492C2.83594 25.582 3.35156 26.0859 3.98438 26.0859C4.61719 26.0859 5.13281 25.582 5.13281 24.9492L5.13281 16.6406C5.13281 16.4297 5.30859 16.2422 5.51953 16.2422C5.73047 16.2422 5.91797 16.4297 5.91797 16.6406L5.91797 24.9492C5.91797 25.582 6.42188 26.0859 7.05469 26.0859C7.6875 26.0859 8.20312 25.582 8.20312 24.9492L8.20312 11.2852C8.20312 11.0742 8.36719 10.9102 8.57812 10.9102C8.78906 10.9102 8.96484 11.0742 8.96484 11.2852L8.96484 15.7969C8.96484 16.3828 9.42188 16.8398 9.99609 16.8398C10.582 16.8398 11.0391 16.3828 11.0391 15.7969L11.0391 10.7578C11.0391 8.16797 9.14062 6.45703 6.36328 6.45703L4.67578 6.45703C1.89844 6.45703 0 8.16797 0 10.7578ZM5.51953 5.10938C6.9375 5.10938 8.07422 3.97266 8.07422 2.55469C8.07422 1.13672 6.9375 0 5.51953 0C4.10156 0 2.96484 1.13672 2.96484 2.55469C2.96484 3.97266 4.10156 5.10938 5.51953 5.10938Z" fill="#000000"/>
</svg>
