<?xml version="1.0" encoding="UTF-8"?>

<!--
  - Copyright (c) 2023. Compose Cupertino project and open source contributors.
  -
  -  Licensed under the Apache License, Version 2.0 (the "License");
  -  you may not use this file except in compliance with the License.
  -  You may obtain a copy of the License at
  -
  -      http://www.apache.org/licenses/LICENSE-2.0
  -
  -  Unless required by applicable law or agreed to in writing, software
  -  distributed under the License is distributed on an "AS IS" BASIS,
  -  WITHOUT WARRANTIES OR CONDITIONS OF ANY KIND, either express or implied.
  -  See the License for the specific language governing permissions and
  -  limitations under the License.
  -
  -->

<svg version="1.1" xmlns="http://www.w3.org/2000/svg" xmlns:xlink="http://www.w3.org/1999/xlink" width="15.7895" height="26.3789">
  <path d="M1.96134 25.2891L5.48868 21.0938C5.82852 20.6836 5.88712 20.5898 6.02774 20.1562L6.28556 19.3594L4.39884 16.9922L3.82462 19.6406L0.344149 23.7656C-0.757413 25.0898 1.05899 26.3789 1.96134 25.2891ZM10.5395 24.9375C11.266 26.4023 13.4223 25.5 12.6371 23.9062L10.2465 19.0664C10.059 18.7031 9.8129 18.3047 9.59024 17.9883L8.07852 15.8438L8.18399 15.5273C8.58243 14.3086 8.73477 13.582 8.82852 12.375L9.0629 8.98828C9.18009 7.38281 8.23087 6.16406 6.57852 6.16406C5.34806 6.16406 4.50431 6.78516 3.36759 7.89844L1.57462 9.66797C0.98868 10.2422 0.80118 10.7109 0.742587 11.4727L0.531649 14.2383C0.473055 14.9414 0.859774 15.4336 1.50431 15.457C2.16056 15.5039 2.55899 15.1172 2.61759 14.3672L2.88712 11.332L3.74259 10.5586C4.05899 10.2773 4.45743 10.4648 4.44571 10.7812L4.25821 13.3477C4.15274 14.6484 4.45743 15.2695 5.34806 16.3828L7.72696 19.3594C7.96134 19.6641 7.98477 19.7812 8.09024 19.9688ZM14.6176 10.7344L11.9106 10.7344L10.2113 8.84766L10.0121 11.6719L10.6918 12.3516C11.0668 12.7266 11.3949 12.8438 12.0981 12.8438L14.6176 12.8438C15.3207 12.8438 15.7895 12.4453 15.7895 11.7891C15.7895 11.1562 15.309 10.7344 14.6176 10.7344ZM7.89102 5.10938C9.29727 5.10938 10.434 3.96094 10.434 2.55469C10.434 1.13672 9.29727 0 7.89102 0C6.47306 0 5.33634 1.13672 5.33634 2.55469C5.33634 3.96094 6.47306 5.10938 7.89102 5.10938Z" fill="#000000"/>
</svg>
