<?xml version="1.0" encoding="UTF-8"?>

<!--
  - Copyright (c) 2023. Compose Cupertino project and open source contributors.
  -
  -  Licensed under the Apache License, Version 2.0 (the "License");
  -  you may not use this file except in compliance with the License.
  -  You may obtain a copy of the License at
  -
  -      http://www.apache.org/licenses/LICENSE-2.0
  -
  -  Unless required by applicable law or agreed to in writing, software
  -  distributed under the License is distributed on an "AS IS" BASIS,
  -  WITHOUT WARRANTIES OR CONDITIONS OF ANY KIND, either express or implied.
  -  See the License for the specific language governing permissions and
  -  limitations under the License.
  -
  -->

<svg version="1.1" xmlns="http://www.w3.org/2000/svg" xmlns:xlink="http://www.w3.org/1999/xlink" width="27.6328" height="21.6211">
  <path d="M2.37891 21.6211L25.2539 21.6211C26.707 21.6211 27.6328 20.6953 27.6328 19.2773L27.6328 2.36719C27.6328 0.960938 26.707 0.0351562 25.2539 0.0351562L2.37891 0.0351562C0.9375 0.0351562 0 0.960938 0 2.36719L0 19.2773C0 20.6953 0.9375 21.6211 2.37891 21.6211ZM2.39062 19.7344C2.01562 19.7344 1.76953 19.4766 1.76953 19.125L1.76953 17.8008C1.76953 17.4727 2.00391 17.2383 2.34375 17.2383L3.85547 17.2383C4.19531 17.2383 4.41797 17.4727 4.41797 17.8008L4.41797 19.1602C4.41797 19.4883 4.19531 19.7344 3.85547 19.7344ZM2.34375 15.8555C2.00391 15.8555 1.76953 15.5977 1.76953 15.293L1.76953 13.957C1.76953 13.6055 1.99219 13.3828 2.34375 13.3828L3.85547 13.3828C4.19531 13.3828 4.41797 13.6055 4.41797 13.957L4.41797 15.293C4.41797 15.5977 4.19531 15.8555 3.85547 15.8555ZM2.34375 12.0586C2.00391 12.0586 1.76953 11.8125 1.76953 11.5078L1.76953 10.1719C1.76953 9.82031 1.99219 9.59766 2.34375 9.59766L3.85547 9.59766C4.19531 9.59766 4.41797 9.82031 4.41797 10.1719L4.41797 11.5078C4.41797 11.8125 4.19531 12.0586 3.85547 12.0586ZM2.34375 8.29688C2.00391 8.29688 1.76953 8.03906 1.76953 7.74609L1.76953 6.39844C1.76953 6.05859 1.99219 5.82422 2.34375 5.82422L3.85547 5.82422C4.19531 5.82422 4.41797 6.05859 4.41797 6.39844L4.41797 7.74609C4.41797 8.03906 4.19531 8.29688 3.85547 8.29688ZM2.34375 4.41797C2.00391 4.41797 1.76953 4.17188 1.76953 3.86719L1.76953 2.54297C1.76953 2.16797 2.01562 1.92188 2.39062 1.92188L3.85547 1.92188C4.19531 1.92188 4.41797 2.15625 4.41797 2.49609L4.41797 3.86719C4.41797 4.17188 4.19531 4.41797 3.85547 4.41797ZM6.63281 19.7344C6.28125 19.7344 6.07031 19.5234 6.07031 19.1719L6.07031 12.3398C6.07031 12 6.28125 11.7891 6.63281 11.7891L21.0117 11.7891C21.3516 11.7891 21.5625 12 21.5625 12.3398L21.5625 19.1719C21.5625 19.5234 21.3516 19.7344 21.0117 19.7344ZM6.63281 9.89062C6.28125 9.89062 6.07031 9.69141 6.07031 9.33984L6.07031 2.46094C6.07031 2.10938 6.28125 1.92188 6.63281 1.92188L21.0117 1.92188C21.3516 1.92188 21.5625 2.10938 21.5625 2.46094L21.5625 9.33984C21.5625 9.69141 21.3516 9.89062 21.0117 9.89062ZM23.7773 19.7344C23.4375 19.7344 23.2148 19.4883 23.2148 19.1602L23.2148 17.8008C23.2148 17.4727 23.4375 17.2383 23.7773 17.2383L25.2891 17.2383C25.6406 17.2383 25.8633 17.4727 25.8633 17.8008L25.8633 19.125C25.8633 19.4766 25.6289 19.7344 25.2422 19.7344ZM23.7773 15.8555C23.4375 15.8555 23.2148 15.5977 23.2148 15.293L23.2148 13.957C23.2148 13.6055 23.4375 13.3828 23.7773 13.3828L25.2891 13.3828C25.6406 13.3828 25.8633 13.6055 25.8633 13.957L25.8633 15.293C25.8633 15.5977 25.6406 15.8555 25.2891 15.8555ZM23.7773 12.0586C23.4375 12.0586 23.2148 11.8125 23.2148 11.5078L23.2148 10.1719C23.2148 9.82031 23.4375 9.59766 23.7773 9.59766L25.2891 9.59766C25.6406 9.59766 25.8633 9.82031 25.8633 10.1719L25.8633 11.5078C25.8633 11.8125 25.6406 12.0586 25.2891 12.0586ZM23.7773 8.29688C23.4375 8.29688 23.2148 8.03906 23.2148 7.74609L23.2148 6.39844C23.2148 6.05859 23.4375 5.82422 23.7773 5.82422L25.2891 5.82422C25.6406 5.82422 25.8633 6.05859 25.8633 6.39844L25.8633 7.74609C25.8633 8.03906 25.6406 8.29688 25.2891 8.29688ZM23.7773 4.41797C23.4375 4.41797 23.2148 4.17188 23.2148 3.86719L23.2148 2.49609C23.2148 2.15625 23.4375 1.92188 23.7773 1.92188L25.2422 1.92188C25.6289 1.92188 25.8633 2.16797 25.8633 2.54297L25.8633 3.86719C25.8633 4.17188 25.6406 4.41797 25.2891 4.41797Z" fill="#000000"/>
</svg>
