<?xml version="1.0" encoding="UTF-8"?>

<!--
  - Copyright (c) 2023. Compose Cupertino project and open source contributors.
  -
  -  Licensed under the Apache License, Version 2.0 (the "License");
  -  you may not use this file except in compliance with the License.
  -  You may obtain a copy of the License at
  -
  -      http://www.apache.org/licenses/LICENSE-2.0
  -
  -  Unless required by applicable law or agreed to in writing, software
  -  distributed under the License is distributed on an "AS IS" BASIS,
  -  WITHOUT WARRANTIES OR CONDITIONS OF ANY KIND, either express or implied.
  -  See the License for the specific language governing permissions and
  -  limitations under the License.
  -
  -->

<svg version="1.1" xmlns="http://www.w3.org/2000/svg" xmlns:xlink="http://www.w3.org/1999/xlink" width="41.8572" height="24.2974">
  <path d="M27.2227 24.096C27.6329 23.8499 27.7852 23.2991 27.5509 22.8772L14.9649 1.11548C14.4376 0.201421 13.6993-0.06811 12.8555 0.0139212C12.1641 0.0959525 11.2501 0.459234 10.4063 0.951421C7.47664 2.65064 6.36336 5.26392 3.5157 6.90455C2.27352 7.61939 1.19539 7.88892 0.679766 8.18189C0.0703907 8.53345-0.199141 9.11939 0.164141 9.76392L4.87508 17.9319C5.40242 18.846 6.15242 19.1038 6.98445 19.0217C7.67586 18.9397 8.60164 18.5764 9.43367 18.0725C12.3751 16.3733 13.4766 13.7717 16.3243 12.1194C17.2735 11.5803 18.1407 11.2874 18.6915 11.0764L26.0157 23.7678C26.2618 24.2014 26.7891 24.342 27.2227 24.096ZM6.43367 10.4788L5.03914 8.05298C6.12898 7.32642 6.9493 6.49439 7.72273 5.66236L9.09383 8.02955C8.27352 8.93189 7.46492 9.7522 6.43367 10.4788ZM11.7305 5.55689L10.336 3.10767C10.629 2.89673 10.9571 2.6858 11.2852 2.48658C11.5899 2.3108 12.4688 1.80689 13.3126 1.77173L14.7891 4.33814C14.3673 4.25611 13.5938 4.40845 12.6212 4.97095C12.3751 5.1233 12.0235 5.35767 11.7305 5.55689ZM5.03914 14.6741L3.44539 11.9085C3.92586 11.7795 4.75789 11.4866 5.69539 10.9358C5.9532 10.7952 6.18758 10.6194 6.43367 10.4788L8.02742 13.2444C7.80477 13.4085 7.58211 13.5374 7.28914 13.7014C6.43367 14.1936 5.68367 14.51 5.03914 14.6741ZM10.6993 10.8069L9.09383 8.02955C9.9493 7.15064 10.6759 6.31861 11.7305 5.55689L13.3477 8.3108C12.3048 9.08423 11.6016 9.86939 10.6993 10.8069ZM9.55086 15.8811L8.02742 13.2444C9.05867 12.4827 9.85555 11.7444 10.6993 10.8069L12.1524 13.3381C11.3321 14.2288 10.547 15.1311 9.55086 15.8811ZM14.8595 10.9358L13.3477 8.3108C13.6407 8.09986 13.8399 7.95923 14.2149 7.7483C15.211 7.1858 15.9727 7.03345 16.3829 7.10376L17.7657 9.48267C17.004 9.69361 16.1016 10.2092 15.4337 10.5842C15.2345 10.7014 15.047 10.8069 14.8595 10.9358ZM21.7384 10.0335L22.7579 11.7913L23.168 11.0764C23.7188 11.2874 24.5743 11.5803 25.5352 12.1194C28.3712 13.7717 29.4845 16.3733 32.4141 18.0725C33.2579 18.5764 34.172 18.9397 34.8634 19.0217C35.7071 19.1038 36.4454 18.846 36.9727 17.9319L41.6954 9.76392C42.0587 9.11939 41.7774 8.53345 41.1798 8.18189C40.6641 7.88892 39.5743 7.61939 38.3321 6.90455C35.4845 5.26392 34.3829 2.65064 31.4532 0.951421C30.6095 0.459234 29.6837 0.0959525 29.004 0.0139212C28.1602-0.06811 27.422 0.201421 26.8946 1.11548ZM27.0704 4.33814L28.547 1.77173C29.3907 1.80689 30.2579 2.3108 30.5626 2.48658C30.9024 2.6858 31.2188 2.89673 31.5118 3.10767L30.1173 5.55689C29.836 5.35767 29.4845 5.1233 29.2266 4.97095C28.254 4.40845 27.4923 4.25611 27.0704 4.33814ZM32.754 8.02955L34.1368 5.66236C34.9102 6.49439 35.7305 7.32642 36.8204 8.05298L35.4259 10.4788C34.3946 9.7522 33.586 8.93189 32.754 8.02955ZM28.5118 8.3108L30.1173 5.55689C31.1837 6.31861 31.9102 7.15064 32.754 8.02955L31.1602 10.8069C30.2579 9.86939 29.5548 9.08423 28.5118 8.3108ZM33.8321 13.2444L35.4259 10.4788C35.672 10.6194 35.9063 10.7952 36.1641 10.9358C37.1016 11.4866 37.9337 11.7795 38.4141 11.9085L36.8204 14.6741C36.1759 14.51 35.4141 14.1936 34.5704 13.7014C34.2774 13.5374 34.0548 13.4085 33.8321 13.2444ZM24.0938 9.48267L25.4766 7.10376C25.8868 7.03345 26.6485 7.1858 27.6329 7.7483C28.0196 7.95923 28.2188 8.09986 28.5118 8.3108L26.9884 10.9358C26.8009 10.8069 26.6134 10.7014 26.4141 10.5842C25.7579 10.2092 24.8555 9.69361 24.0938 9.48267ZM29.6954 13.3381L31.1602 10.8069C32.004 11.7444 32.7891 12.4827 33.8321 13.2444L32.3087 15.8811C31.3126 15.1311 30.5274 14.2288 29.6954 13.3381ZM14.6368 24.096C15.0704 24.342 15.5977 24.2014 15.8321 23.7678L20.1212 16.3616L19.0899 14.592L14.3087 22.8772C14.0626 23.2991 14.2266 23.8499 14.6368 24.096Z" fill="#000000"/>
</svg>
