<?xml version="1.0" encoding="UTF-8"?>

<!--
  - Copyright (c) 2023. Compose Cupertino project and open source contributors.
  -
  -  Licensed under the Apache License, Version 2.0 (the "License");
  -  you may not use this file except in compliance with the License.
  -  You may obtain a copy of the License at
  -
  -      http://www.apache.org/licenses/LICENSE-2.0
  -
  -  Unless required by applicable law or agreed to in writing, software
  -  distributed under the License is distributed on an "AS IS" BASIS,
  -  WITHOUT WARRANTIES OR CONDITIONS OF ANY KIND, either express or implied.
  -  See the License for the specific language governing permissions and
  -  limitations under the License.
  -
  -->

<svg version="1.1" xmlns="http://www.w3.org/2000/svg" xmlns:xlink="http://www.w3.org/1999/xlink" width="22.1675" height="27.5156">
 <g>
  <path d="M1.48535 25.2598C1.97754 25.2598 2.37598 24.873 2.37598 24.3809L2.37598 17.8652C2.66895 17.7363 3.77051 17.3145 5.49316 17.3145C9.65332 17.3145 12.2432 19.248 16.1689 19.4238L14.0596 17.3027C11.2939 16.7871 8.90332 15.5449 5.49316 15.5449C4.2041 15.5449 3.03223 15.6973 2.37598 15.9668L2.37598 5.75977L0.74707 4.13086C0.65332 4.30664 0.594727 4.5293 0.594727 4.85742L0.594727 24.3809C0.594727 24.8613 1.00488 25.2598 1.48535 25.2598ZM21.1729 17.7832C21.3369 17.5371 21.4072 17.2207 21.4072 16.7871L21.4072 4.89258C21.4072 4.25977 20.8682 3.89648 20.1885 3.89648C19.6143 3.89648 18.5361 4.38867 16.5205 4.38867C12.4775 4.38867 9.78223 2.33789 5.52832 2.26758L7.52051 4.25977C10.5791 4.75195 13.0283 6.1582 16.5205 6.1582C17.7979 6.1582 18.8525 6.00586 19.6377 5.7832L19.6377 16.2363Z" fill="#000000"/>
  <path d="M20.6221 21.8965C20.9854 22.248 21.5596 22.248 21.8994 21.8965C22.251 21.5332 22.2627 20.9707 21.8994 20.6191L1.54395 0.263672C1.19238-0.0878906 0.606445-0.0878906 0.254883 0.263672C-0.0849609 0.603516-0.0849609 1.20117 0.254883 1.54102Z" fill="#000000"/>
 </g>
</svg>
