<?xml version="1.0" encoding="UTF-8"?>

<!--
  - Copyright (c) 2023. Compose Cupertino project and open source contributors.
  -
  -  Licensed under the Apache License, Version 2.0 (the "License");
  -  you may not use this file except in compliance with the License.
  -  You may obtain a copy of the License at
  -
  -      http://www.apache.org/licenses/LICENSE-2.0
  -
  -  Unless required by applicable law or agreed to in writing, software
  -  distributed under the License is distributed on an "AS IS" BASIS,
  -  WITHOUT WARRANTIES OR CONDITIONS OF ANY KIND, either express or implied.
  -  See the License for the specific language governing permissions and
  -  limitations under the License.
  -
  -->

<svg version="1.1" xmlns="http://www.w3.org/2000/svg" xmlns:xlink="http://www.w3.org/1999/xlink" width="41.8572" height="24.2974">
 <g>
  <path d="M21.7384 10.0335L22.7579 11.7913L23.168 11.0764C23.7188 11.2874 24.5743 11.5803 25.5352 12.1194C28.3712 13.7717 29.4845 16.3733 32.4141 18.0725C33.2579 18.5764 34.172 18.9397 34.8634 19.0217C35.7071 19.1038 36.4454 18.846 36.9727 17.9319L41.6954 9.76392C42.0587 9.11939 41.7774 8.53345 41.1798 8.18189C40.6641 7.88892 39.5743 7.61939 38.3321 6.90455C35.4845 5.26392 34.3829 2.65064 31.4532 0.951421C30.6095 0.459234 29.6837 0.0959525 29.004 0.0139212C28.1602-0.06811 27.422 0.201421 26.8946 1.11548ZM24.0938 9.48267L28.547 1.77173C29.3907 1.80689 30.2579 2.3108 30.5626 2.48658C33.3399 4.09205 34.3946 6.68189 37.4532 8.45142C38.1095 8.82642 39.0118 9.33033 39.7735 9.55298L35.3204 17.2639C34.4884 17.217 33.6095 16.7249 33.3048 16.5491C30.5274 14.9553 29.4727 12.3538 26.4141 10.5842C25.7579 10.2092 24.8555 9.69361 24.0938 9.48267ZM20.1212 16.3616L19.0899 14.592L14.3087 22.8772C14.0626 23.2991 14.2266 23.8499 14.6368 24.096C15.0704 24.342 15.5977 24.2014 15.8321 23.7678Z" fill="#000000"/>
  <path d="M27.5509 22.8772L14.9649 1.11548C14.4376 0.201421 13.6993-0.06811 12.8555 0.0139212C12.1641 0.0959525 11.2501 0.459234 10.4063 0.951421C7.47664 2.65064 6.36336 5.26392 3.5157 6.90455C2.27352 7.61939 1.19539 7.88892 0.679766 8.18189C0.0703907 8.53345-0.199141 9.11939 0.164141 9.76392L4.87508 17.9319C5.40242 18.846 6.15242 19.1038 6.98445 19.0217C7.67586 18.9397 8.60164 18.5764 9.43367 18.0725C12.3751 16.3733 13.4766 13.7717 16.3243 12.1194C17.2735 11.5803 18.1407 11.2874 18.6915 11.0764L26.0157 23.7678C26.2618 24.2014 26.7891 24.342 27.2227 24.096C27.6329 23.8499 27.7852 23.2991 27.5509 22.8772ZM17.7657 9.48267C17.004 9.69361 16.1016 10.2092 15.4337 10.5842C12.3751 12.3538 11.3321 14.9553 8.55477 16.5491C8.25008 16.7249 7.37117 17.217 6.53914 17.2639L2.08602 9.55298C2.84773 9.33033 3.75008 8.82642 4.40633 8.45142C7.46492 6.68189 8.50789 4.09205 11.2852 2.48658C11.5899 2.3108 12.4688 1.80689 13.3126 1.77173Z" fill="#000000"/>
 </g>
</svg>
