<?xml version="1.0" encoding="UTF-8"?>

<!--
  - Copyright (c) 2023. Compose Cupertino project and open source contributors.
  -
  -  Licensed under the Apache License, Version 2.0 (the "License");
  -  you may not use this file except in compliance with the License.
  -  You may obtain a copy of the License at
  -
  -      http://www.apache.org/licenses/LICENSE-2.0
  -
  -  Unless required by applicable law or agreed to in writing, software
  -  distributed under the License is distributed on an "AS IS" BASIS,
  -  WITHOUT WARRANTIES OR CONDITIONS OF ANY KIND, either express or implied.
  -  See the License for the specific language governing permissions and
  -  limitations under the License.
  -
  -->

<svg version="1.1" xmlns="http://www.w3.org/2000/svg" xmlns:xlink="http://www.w3.org/1999/xlink" width="25.1953" height="27.7559">
  <path d="M2.80078 9.85254L22.3945 9.85254C24.1523 9.85254 25.1953 8.82129 25.1953 7.09863L25.1953 3.1377C25.1953 1.41504 24.1523 0.383789 22.3945 0.383789L2.80078 0.383789C1.04297 0.383789 0 1.41504 0 3.1377L0 7.09863C0 8.82129 1.04297 9.85254 2.80078 9.85254ZM2.83594 8.08301C2.16797 8.08301 1.76953 7.67285 1.76953 6.99316L1.76953 3.23145C1.76953 2.56348 2.16797 2.15332 2.83594 2.15332L22.3594 2.15332C23.0273 2.15332 23.4258 2.56348 23.4258 3.23145L23.4258 6.99316C23.4258 7.67285 23.0273 8.08301 22.3594 8.08301ZM11.7539 12.6416L13.4648 12.6416L13.4648 8.93848L11.7539 8.93848ZM2.80078 21.0088L22.3945 21.0088C24.1523 21.0088 25.1953 19.9775 25.1953 18.2549L25.1953 14.2939C25.1953 12.5713 24.1523 11.54 22.3945 11.54L2.80078 11.54C1.04297 11.54 0 12.5713 0 14.2939L0 18.2549C0 19.9775 1.04297 21.0088 2.80078 21.0088ZM2.83594 19.2393C2.16797 19.2393 1.76953 18.8291 1.76953 18.1611L1.76953 14.3994C1.76953 13.7197 2.16797 13.3096 2.83594 13.3096L22.3594 13.3096C23.0273 13.3096 23.4258 13.7197 23.4258 14.3994L23.4258 18.1611C23.4258 18.8291 23.0273 19.2393 22.3594 19.2393ZM11.7422 23.458L13.4648 23.458L13.4648 19.7666L11.7422 19.7666ZM11.9766 27.4307C12.3281 27.8643 12.9141 27.8643 13.2656 27.4307L15.9492 24.1143C16.4648 23.4697 16.1484 22.626 15.3164 22.626L9.91406 22.626C9.05859 22.626 8.73047 23.458 9.26953 24.1143Z" fill="#000000"/>
</svg>
