<?xml version="1.0" encoding="UTF-8"?>

<!--
  - Copyright (c) 2023. Compose Cupertino project and open source contributors.
  -
  -  Licensed under the Apache License, Version 2.0 (the "License");
  -  you may not use this file except in compliance with the License.
  -  You may obtain a copy of the License at
  -
  -      http://www.apache.org/licenses/LICENSE-2.0
  -
  -  Unless required by applicable law or agreed to in writing, software
  -  distributed under the License is distributed on an "AS IS" BASIS,
  -  WITHOUT WARRANTIES OR CONDITIONS OF ANY KIND, either express or implied.
  -  See the License for the specific language governing permissions and
  -  limitations under the License.
  -
  -->

<svg version="1.1" xmlns="http://www.w3.org/2000/svg" xmlns:xlink="http://www.w3.org/1999/xlink" width="23.8215" height="23.8281">
  <path d="M18.6348 18.6348C23.1699 14.0762 24.7637 7.64257 23.2871 2.67382C22.8769 1.36132 22.4668 0.93944 21.1426 0.541003C16.1855-0.947279 9.74022 0.646471 5.18163 5.18163C0.646471 9.74022-0.947279 16.1855 0.541003 21.1426C0.93944 22.4551 1.36132 22.8769 2.67382 23.2754C7.64257 24.7637 14.0762 23.1699 18.6348 18.6348ZM17.2519 17.2519C13.3144 21.2129 8.14647 22.7012 3.33007 21.4238C2.69725 21.2598 2.55663 21.1191 2.38085 20.4512C1.13866 15.6582 2.6035 10.5019 6.56444 6.56444C10.5137 2.6035 15.6582 1.12694 20.4512 2.36913C21.1191 2.55663 21.2598 2.69725 21.4238 3.33007C22.7129 8.13475 21.2129 13.3144 17.2519 17.2519ZM13.8652 0.962878L12.3769 2.45116L21.3887 11.4746L22.8887 9.9746ZM0.974596 13.8652L9.9746 22.8887L11.4746 21.3887L2.46288 12.3769ZM7.25585 14.2285L9.5996 16.5605C9.79882 16.7715 10.1152 16.7715 10.3262 16.5605C10.5254 16.3613 10.5254 16.0332 10.3262 15.8223L7.99413 13.4902C7.79491 13.291 7.45507 13.291 7.25585 13.4902C7.05663 13.7012 7.05663 14.0176 7.25585 14.2285ZM8.82616 12.6465L11.1699 14.9902C11.3691 15.1894 11.6973 15.1894 11.8965 14.9902C12.0957 14.791 12.0957 14.4512 11.8965 14.2519L9.56444 11.9199C9.36522 11.7207 9.02538 11.7207 8.82616 11.9199C8.62694 12.1191 8.62694 12.4473 8.82616 12.6465ZM10.3965 11.0762L12.7402 13.4199C12.9394 13.6191 13.2676 13.6191 13.4668 13.4199C13.666 13.209 13.666 12.8808 13.4668 12.6933L11.123 10.3496C10.9355 10.1504 10.5957 10.1504 10.3965 10.3496C10.1973 10.5488 10.1973 10.8769 10.3965 11.0762ZM11.9668 9.51757L14.2988 11.8496C14.5098 12.0488 14.8379 12.0488 15.0371 11.8496C15.248 11.6387 15.248 11.3223 15.0371 11.123L12.7051 8.77928C12.4941 8.58007 12.1777 8.58007 11.9668 8.77928C11.7676 8.9785 11.7676 9.31835 11.9668 9.51757ZM13.5488 7.94725L15.8691 10.2676C16.0801 10.4785 16.4082 10.4785 16.6074 10.2676C16.8183 10.0683 16.8183 9.75194 16.6074 9.541L14.2754 7.19725C14.0644 6.99803 13.748 6.99803 13.5488 7.19725C13.3379 7.40819 13.3379 7.73632 13.5488 7.94725ZM9.00194 15.541L15.5527 9.00194L14.8262 8.27538L8.27538 14.8262Z" fill="#000000"/>
</svg>
