<?xml version="1.0" encoding="UTF-8"?>

<!--
  - Copyright (c) 2023. Compose Cupertino project and open source contributors.
  -
  -  Licensed under the Apache License, Version 2.0 (the "License");
  -  you may not use this file except in compliance with the License.
  -  You may obtain a copy of the License at
  -
  -      http://www.apache.org/licenses/LICENSE-2.0
  -
  -  Unless required by applicable law or agreed to in writing, software
  -  distributed under the License is distributed on an "AS IS" BASIS,
  -  WITHOUT WARRANTIES OR CONDITIONS OF ANY KIND, either express or implied.
  -  See the License for the specific language governing permissions and
  -  limitations under the License.
  -
  -->

<svg version="1.1" xmlns="http://www.w3.org/2000/svg" xmlns:xlink="http://www.w3.org/1999/xlink" width="23.9062" height="23.918">
 <g>
  <path d="M11.9531 23.9062C18.4922 23.9062 23.9062 18.4805 23.9062 11.9531C23.9062 5.41406 18.4805 0 11.9414 0C5.41406 0 0 5.41406 0 11.9531C0 18.4805 5.42578 23.9062 11.9531 23.9062ZM11.9531 21.9141C6.42188 21.9141 2.00391 17.4844 2.00391 11.9531C2.00391 6.42188 6.41016 1.99219 11.9414 1.99219C17.4727 1.99219 21.9141 6.42188 21.9141 11.9531C21.9141 17.4844 17.4844 21.9141 11.9531 21.9141Z" fill="#000000"/>
  <path d="M9.46875 19.6289C10.0195 19.6289 10.3711 19.3242 10.3594 18.7852L10.2305 11.3555C10.2305 11.1211 10.3242 10.9453 10.5352 10.8516C11.4023 10.4766 11.8008 10.0781 11.7305 8.90625L11.543 4.85156C11.5312 4.55859 11.3672 4.38281 11.0977 4.38281C10.8398 4.38281 10.6758 4.57031 10.6758 4.86328L10.7344 8.82422C10.7344 9.04688 10.5703 9.19922 10.3594 9.19922C10.125 9.19922 9.96094 9.04688 9.96094 8.83594L9.91406 4.75781C9.91406 4.46484 9.72656 4.30078 9.46875 4.30078C9.19922 4.30078 9.02344 4.46484 9.02344 4.75781L8.95312 8.83594C8.95312 9.04688 8.80078 9.19922 8.57812 9.19922C8.36719 9.19922 8.20312 9.04688 8.20312 8.82422L8.26172 4.86328C8.26172 4.57031 8.09766 4.38281 7.83984 4.38281C7.57031 4.38281 7.39453 4.55859 7.38281 4.85156L7.20703 8.90625C7.16016 10.0781 7.53516 10.4766 8.41406 10.8516C8.61328 10.9453 8.70703 11.1211 8.70703 11.3555L8.57812 18.7852C8.56641 19.3242 8.91797 19.6289 9.46875 19.6289ZM14.0625 14.0039L13.9102 18.75C13.8867 19.3242 14.25 19.6289 14.7891 19.6289C15.3633 19.6289 15.7031 19.3477 15.7031 18.8203L15.7031 4.79297C15.7031 4.45312 15.457 4.30078 15.2344 4.30078C14.9766 4.30078 14.8125 4.44141 14.6016 4.74609C13.5352 6.23438 12.832 9.03516 12.832 11.6719L12.832 12.1172C12.832 12.5859 13.0078 12.9023 13.3359 13.1367L13.7227 13.4062C13.957 13.5703 14.0625 13.7461 14.0625 14.0039Z" fill="#000000"/>
 </g>
</svg>
