<?xml version="1.0" encoding="UTF-8"?>

<!--
  - Copyright (c) 2023. Compose Cupertino project and open source contributors.
  -
  -  Licensed under the Apache License, Version 2.0 (the "License");
  -  you may not use this file except in compliance with the License.
  -  You may obtain a copy of the License at
  -
  -      http://www.apache.org/licenses/LICENSE-2.0
  -
  -  Unless required by applicable law or agreed to in writing, software
  -  distributed under the License is distributed on an "AS IS" BASIS,
  -  WITHOUT WARRANTIES OR CONDITIONS OF ANY KIND, either express or implied.
  -  See the License for the specific language governing permissions and
  -  limitations under the License.
  -
  -->

<svg version="1.1" xmlns="http://www.w3.org/2000/svg" xmlns:xlink="http://www.w3.org/1999/xlink" width="16.0985" height="28.9102">
  <path d="M4.01644 27.1758C5.00081 27.1758 5.61019 26.625 5.59847 25.6641L5.3641 12.5039C5.3641 12.0938 5.53988 11.7891 5.90316 11.625C7.45003 10.9453 8.118 10.2305 8.03597 8.17969L7.70785 0.984375C7.68441 0.46875 7.37972 0.175781 6.89925 0.175781C6.44222 0.175781 6.16097 0.480469 6.16097 1.00781L6.243 8.00391C6.243 8.41406 5.98519 8.67188 5.59847 8.67188C5.20003 8.67188 4.91878 8.42578 4.91878 8.03906L4.8016 0.796875C4.78988 0.292969 4.49691 0 4.01644 0C3.53597 0 3.25472 0.292969 3.243 0.796875L3.12581 8.03906C3.12581 8.42578 2.84456 8.67188 2.44613 8.67188C2.05941 8.67188 1.78988 8.41406 1.78988 8.00391L1.87191 1.00781C1.87191 0.480469 1.60238 0.175781 1.13363 0.175781C0.653158 0.175781 0.34847 0.46875 0.325033 0.984375L0.00862673 8.17969C-0.0851233 10.2305 0.582845 10.9453 2.12972 11.625C2.493 11.7891 2.66878 12.0938 2.66878 12.5039L2.44613 25.6641C2.43441 26.625 3.03206 27.1758 4.01644 27.1758ZM13.1805 16.957L12.9344 25.6055C12.8993 26.625 13.5203 27.1758 14.493 27.1758C15.4891 27.1758 16.0985 26.6719 16.0985 25.7344L16.0985 0.878906C16.0985 0.28125 15.6883 0 15.2664 0C14.8211 0 14.5282 0.234375 14.1532 0.785156C12.2664 3.43359 11.0243 8.39062 11.0243 13.0781L11.0243 13.6523C11.0243 14.4609 11.3172 15.0586 11.9032 15.4453L12.5946 15.9141C13.0164 16.207 13.2039 16.5352 13.1805 16.957Z" fill="#000000"/>
</svg>
