<?xml version="1.0" encoding="UTF-8"?>

<!--
  - Copyright (c) 2023. Compose Cupertino project and open source contributors.
  -
  -  Licensed under the Apache License, Version 2.0 (the "License");
  -  you may not use this file except in compliance with the License.
  -  You may obtain a copy of the License at
  -
  -      http://www.apache.org/licenses/LICENSE-2.0
  -
  -  Unless required by applicable law or agreed to in writing, software
  -  distributed under the License is distributed on an "AS IS" BASIS,
  -  WITHOUT WARRANTIES OR CONDITIONS OF ANY KIND, either express or implied.
  -  See the License for the specific language governing permissions and
  -  limitations under the License.
  -
  -->

<svg version="1.1" xmlns="http://www.w3.org/2000/svg" xmlns:xlink="http://www.w3.org/1999/xlink" width="15.1641" height="21.8555">
  <path d="M4.08984 21.8555C4.74609 21.8555 5.21484 21.3633 5.21484 20.707L5.21484 11.8242L13.2773 11.8242C13.875 11.8242 14.3203 11.4375 14.3203 10.8281C14.3203 10.2188 13.875 9.83203 13.2773 9.83203L5.21484 9.83203L5.21484 2.56641L14.1211 2.56641C14.7305 2.56641 15.1641 2.17969 15.1641 1.55859C15.1641 0.949219 14.7305 0.550781 14.1211 0.550781L4.08984 0.550781C3.39844 0.550781 2.96484 1.00781 2.96484 1.71094L2.96484 20.707C2.96484 21.375 3.42188 21.8555 4.08984 21.8555ZM0 17.1094C0 17.5195 0.339844 17.8711 0.761719 17.8711L10.3125 17.8711C10.7344 17.8711 11.0859 17.5195 11.0859 17.1094C11.0859 16.6875 10.7344 16.3359 10.3125 16.3359L0.761719 16.3359C0.339844 16.3359 0 16.6875 0 17.1094Z" fill="#000000"/>
</svg>
