<?xml version="1.0" encoding="UTF-8"?>

<!--
  - Copyright (c) 2023. Compose Cupertino project and open source contributors.
  -
  -  Licensed under the Apache License, Version 2.0 (the "License");
  -  you may not use this file except in compliance with the License.
  -  You may obtain a copy of the License at
  -
  -      http://www.apache.org/licenses/LICENSE-2.0
  -
  -  Unless required by applicable law or agreed to in writing, software
  -  distributed under the License is distributed on an "AS IS" BASIS,
  -  WITHOUT WARRANTIES OR CONDITIONS OF ANY KIND, either express or implied.
  -  See the License for the specific language governing permissions and
  -  limitations under the License.
  -
  -->

<svg version="1.1" xmlns="http://www.w3.org/2000/svg" xmlns:xlink="http://www.w3.org/1999/xlink" width="24.7266" height="26.1445">
  <path d="M18.4102 25.2656L18.4102 2.97656C18.4102 1.05469 17.3555 0 15.4336 0L4.80469 0C2.87109 0 1.85156 1.05469 1.85156 2.97656L1.85156 25.2656L3.72656 25.2656L3.73828 3C3.73828 2.27344 4.08984 1.88672 4.83984 1.88672L15.3984 1.88672C16.125 1.88672 16.5117 2.26172 16.5117 3L16.5117 25.2656ZM0 25.1836C0 25.7109 0.410156 26.1445 0.925781 26.1445L19.3125 26.1445C19.8281 26.1445 20.25 25.7109 20.25 25.1836C20.25 24.6797 19.8281 24.2578 19.3125 24.2578L0.925781 24.2578C0.421875 24.2578 0 24.668 0 25.1836ZM6.375 12.9023L13.8633 12.9023C14.6484 12.9023 15.1875 12.4336 15.1875 11.7188L15.1875 4.61719C15.1875 3.90234 14.6367 3.41016 13.8633 3.41016L6.375 3.41016C5.60156 3.41016 5.07422 3.90234 5.07422 4.61719L5.07422 11.7188C5.07422 12.4336 5.60156 12.9023 6.375 12.9023ZM17.5078 15.4336L18.5273 15.4336C19.0664 15.4336 19.3945 15.7383 19.3945 16.3242L19.3945 20.2031C19.3945 21.8672 20.4023 22.875 22.0664 22.875C23.7305 22.875 24.7266 21.8672 24.7266 20.2031L24.7266 5.84766C24.7266 5.14453 24.5391 4.60547 24.1992 4.06641L22.5938 1.46484C21.9961 0.515625 20.6016 1.37109 21.1875 2.33203L22.5703 4.55859C22.6992 4.76953 22.6875 5.01562 22.5469 5.22656L21.0117 7.37109C20.5078 8.0625 20.5781 8.71875 21.1055 9.33984L23.0742 11.625L23.0742 20.2031C23.0742 20.8359 22.6875 21.2227 22.0664 21.2227C21.4336 21.2227 21.0586 20.8359 21.0586 20.2031L21.0586 16.3242C21.0586 14.707 20.0977 13.7812 18.5273 13.7812L17.5078 13.7812Z" fill="#000000"/>
</svg>
