<?xml version="1.0" encoding="UTF-8"?>

<!--
  - Copyright (c) 2023. Compose Cupertino project and open source contributors.
  -
  -  Licensed under the Apache License, Version 2.0 (the "License");
  -  you may not use this file except in compliance with the License.
  -  You may obtain a copy of the License at
  -
  -      http://www.apache.org/licenses/LICENSE-2.0
  -
  -  Unless required by applicable law or agreed to in writing, software
  -  distributed under the License is distributed on an "AS IS" BASIS,
  -  WITHOUT WARRANTIES OR CONDITIONS OF ANY KIND, either express or implied.
  -  See the License for the specific language governing permissions and
  -  limitations under the License.
  -
  -->

<svg version="1.1" xmlns="http://www.w3.org/2000/svg" xmlns:xlink="http://www.w3.org/1999/xlink" width="33.832" height="21.2461">
 <g>
  <path d="M0 16.7227C0 19.4648 1.78125 21.2461 4.46484 21.2461C5.82422 21.2461 7.17188 20.6602 8.15625 19.4414L10.2773 16.875C10.582 16.5117 10.9336 16.3359 11.2852 16.3359L22.5469 16.3359C22.8984 16.3359 23.25 16.5117 23.5547 16.875L25.6758 19.4414C26.6602 20.6602 28.0078 21.2461 29.3672 21.2461C32.0508 21.2461 33.832 19.4648 33.832 16.7227C33.832 15.5508 33.5625 14.2031 33.1055 12.6914C32.3906 10.2891 31.1367 7.01953 29.9414 4.48828C28.9336 2.37891 28.418 1.41797 25.9336 0.855469C23.7305 0.351562 20.6719 0.0117188 16.9219 0.0117188C13.1719 0.0117188 10.1016 0.351562 7.89844 0.855469C5.41406 1.41797 4.89844 2.37891 3.89062 4.48828C2.69531 7.01953 1.44141 10.2891 0.726562 12.6914C0.269531 14.2031 0 15.5508 0 16.7227ZM1.79297 16.793C1.79297 16.0547 1.95703 15.1641 2.33203 13.8867C3.11719 11.1914 4.47656 7.69922 5.66016 5.10938C6.23438 3.85547 6.55078 3.09375 8.07422 2.74219C10.1953 2.23828 13.2188 1.89844 16.9219 1.89844C20.6133 1.89844 23.6367 2.23828 25.7578 2.74219C27.2812 3.09375 27.5859 3.85547 28.1719 5.10938C29.3789 7.69922 30.6797 11.2031 31.5 13.8867C31.8867 15.1641 32.0391 16.0547 32.0391 16.793C32.0391 18.4102 30.9023 19.4297 29.3906 19.4297C28.5 19.4297 27.6328 18.9609 26.9531 18.1289L24.75 15.4688C24.1875 14.7891 23.7188 14.4492 22.6289 14.4492L11.2031 14.4492C10.1133 14.4492 9.64453 14.7891 9.08203 15.4688L6.87891 18.1289C6.19922 18.9609 5.33203 19.4297 4.44141 19.4297C2.92969 19.4297 1.79297 18.4102 1.79297 16.793Z" fill="#000000"/>
  <path d="M7.42969 8.27344C7.42969 8.88281 7.79297 9.25781 8.40234 9.25781L10.5117 9.25781L10.5117 11.3086C10.5117 11.9062 10.8516 12.2812 11.4375 12.2812C12.0117 12.2812 12.3633 11.9062 12.3633 11.3086L12.3633 9.25781L14.3438 9.25781C15 9.25781 15.3867 8.88281 15.3867 8.27344C15.3867 7.6875 15 7.32422 14.3438 7.32422L12.3633 7.32422L12.3633 5.27344C12.3633 4.67578 12.0117 4.3125 11.4375 4.3125C10.8516 4.3125 10.5117 4.67578 10.5117 5.27344L10.5117 7.32422L8.40234 7.32422C7.79297 7.32422 7.42969 7.6875 7.42969 8.27344ZM24.1992 8.12109C25.1602 8.12109 25.8867 7.39453 25.8867 6.44531C25.8867 5.48438 25.1602 4.74609 24.1992 4.74609C23.2617 4.74609 22.5117 5.48438 22.5117 6.44531C22.5117 7.39453 23.2617 8.12109 24.1992 8.12109ZM20.7539 11.6016C21.7031 11.6016 22.4414 10.8633 22.4414 9.91406C22.4414 8.95312 21.7031 8.21484 20.7539 8.21484C19.8164 8.21484 19.0664 8.95312 19.0664 9.91406C19.0664 10.8633 19.8164 11.6016 20.7539 11.6016Z" fill="#000000"/>
 </g>
</svg>
