<?xml version="1.0" encoding="UTF-8"?>

<!--
  - Copyright (c) 2023. Compose Cupertino project and open source contributors.
  -
  -  Licensed under the Apache License, Version 2.0 (the "License");
  -  you may not use this file except in compliance with the License.
  -  You may obtain a copy of the License at
  -
  -      http://www.apache.org/licenses/LICENSE-2.0
  -
  -  Unless required by applicable law or agreed to in writing, software
  -  distributed under the License is distributed on an "AS IS" BASIS,
  -  WITHOUT WARRANTIES OR CONDITIONS OF ANY KIND, either express or implied.
  -  See the License for the specific language governing permissions and
  -  limitations under the License.
  -
  -->

<svg version="1.1" xmlns="http://www.w3.org/2000/svg" xmlns:xlink="http://www.w3.org/1999/xlink" width="32.1562" height="25.4883">
  <path d="M8.35547 18.4102L10.0664 18.4102C10.8047 18.4102 11.3789 17.9648 11.543 17.2617L11.8711 15.7734C11.9062 15.7617 11.9531 15.7383 11.9883 15.7266L13.3125 16.5234C13.9102 16.875 14.6484 16.8047 15.1523 16.3008L16.3477 15.0938C16.875 14.5664 16.9453 13.8398 16.5703 13.2422L15.7617 11.9648C15.7734 11.918 15.7969 11.8828 15.8086 11.8359L17.2734 11.4844C17.9648 11.3203 18.4219 10.7344 18.4219 9.99609L18.4219 8.40234C18.4219 7.67578 17.9766 7.08984 17.2734 6.91406L15.8086 6.5625C15.7969 6.51562 15.7734 6.48047 15.7617 6.43359L16.5703 5.15625C16.9453 4.55859 16.875 3.84375 16.3477 3.30469L15.1523 2.10938C14.6484 1.60547 13.9102 1.52344 13.3125 1.88672L11.9883 2.67188C11.9414 2.66016 11.9062 2.64844 11.8594 2.63672L11.543 1.13672C11.3906 0.445312 10.8047 0 10.0664 0L8.35547 0C7.61719 0 7.04297 0.445312 6.87891 1.13672L6.55078 2.63672C6.50391 2.64844 6.46875 2.66016 6.42188 2.67188L5.10938 1.88672C4.51172 1.52344 3.77344 1.60547 3.26953 2.10938L2.07422 3.30469C1.54688 3.84375 1.48828 4.57031 1.85156 5.15625L2.66016 6.43359C2.64844 6.48047 2.625 6.51562 2.61328 6.5625L1.13672 6.91406C0.445312 7.08984 0 7.67578 0 8.40234L0 9.99609C0 10.7344 0.445312 11.3203 1.13672 11.4844L2.61328 11.8359C2.625 11.8828 2.64844 11.918 2.66016 11.9648L1.85156 13.2422C1.47656 13.8398 1.54688 14.5664 2.07422 15.0938L3.26953 16.3008C3.77344 16.8047 4.5 16.875 5.09766 16.5234L6.43359 15.7266C6.46875 15.7383 6.51562 15.7617 6.55078 15.7734L6.87891 17.2617C7.04297 17.9648 7.61719 18.4102 8.35547 18.4102ZM8.57812 16.7695C8.46094 16.7695 8.40234 16.7109 8.36719 16.5938L7.86328 14.4961C7.30078 14.3672 6.78516 14.1094 6.375 13.8867L4.54688 15C4.42969 15.0703 4.34766 15.0586 4.26562 14.9766L3.375 14.0977C3.29297 14.0156 3.28125 13.9453 3.35156 13.8281L4.45312 12.0117C4.3125 11.6602 4.00781 11.1328 3.86719 10.5234L1.80469 10.0312C1.6875 10.0078 1.62891 9.9375 1.62891 9.82031L1.62891 8.57812C1.62891 8.46094 1.6875 8.40234 1.80469 8.37891L3.86719 7.88672C4.00781 7.26562 4.3125 6.75 4.45312 6.38672L3.35156 4.57031C3.28125 4.46484 3.29297 4.39453 3.375 4.30078L4.26562 3.43359C4.34766 3.35156 4.42969 3.33984 4.54688 3.39844L6.375 4.51172C6.78516 4.28906 7.30078 4.03125 7.86328 3.90234L8.36719 1.81641C8.40234 1.69922 8.46094 1.64062 8.57812 1.64062L9.84375 1.64062C9.96094 1.64062 10.0195 1.69922 10.0547 1.81641L10.5586 3.90234C11.1211 4.03125 11.6367 4.28906 12.0469 4.51172L13.875 3.39844C13.9805 3.33984 14.0742 3.35156 14.1562 3.43359L15.0469 4.30078C15.1289 4.39453 15.1406 4.46484 15.0703 4.57031L13.9688 6.38672C14.1094 6.75 14.4141 7.26562 14.5547 7.88672L16.6172 8.37891C16.7344 8.40234 16.793 8.46094 16.793 8.57812L16.793 9.82031C16.793 9.9375 16.7344 10.0078 16.6172 10.0312L14.5547 10.5234C14.4141 11.1328 14.1094 11.6602 13.9688 12.0117L15.0703 13.8281C15.1406 13.9453 15.1289 14.0156 15.0469 14.0977L14.1562 14.9766C14.0742 15.0586 13.9805 15.0703 13.875 15L12.0469 13.8867C11.6367 14.1094 11.1211 14.3672 10.5586 14.4961L10.0547 16.5938C10.0195 16.7109 9.96094 16.7695 9.84375 16.7695ZM9.21094 12.7617C11.1445 12.7617 12.7383 11.1562 12.7383 9.19922C12.7383 7.26562 11.1445 5.67188 9.21094 5.67188C7.24219 5.67188 5.66016 7.26562 5.66016 9.19922C5.66016 11.1445 7.24219 12.7617 9.21094 12.7617ZM9.21094 11.0273C8.21484 11.0273 7.38281 10.2188 7.38281 9.19922C7.38281 8.21484 8.21484 7.39453 9.21094 7.39453C10.1953 7.39453 11.0039 8.21484 11.0039 9.19922C11.0039 10.207 10.1953 11.0273 9.21094 11.0273ZM23.7305 25.4766L25.0781 25.4766C25.7461 25.4766 26.3086 25.0898 26.4141 24.4805L26.6367 23.2969C26.6953 23.2852 26.7305 23.2734 26.7656 23.2617L27.7617 23.8828C28.3008 24.2227 28.9688 24.1523 29.4375 23.6602L30.3867 22.7109C30.8555 22.2305 30.9492 21.5625 30.5859 21.0234L29.9531 20.0625C29.9648 20.0156 29.9766 19.9922 30 19.9453L31.1602 19.6992C31.7578 19.5703 32.1562 19.0312 32.1562 18.3633L32.1562 17.0508C32.1562 16.3945 31.7578 15.8438 31.1602 15.7148L30 15.4805C29.9766 15.4336 29.9648 15.3984 29.9531 15.3516L30.5859 14.3906C30.9492 13.8516 30.8555 13.1953 30.3867 12.7148L29.4375 11.7539C28.9688 11.2734 28.3008 11.1914 27.7617 11.5312L26.7656 12.1523C26.7305 12.1406 26.6953 12.1289 26.6367 12.1172L26.4141 10.9453C26.3086 10.3242 25.7461 9.9375 25.0781 9.9375L23.7305 9.9375C23.0625 9.9375 22.5 10.3242 22.3828 10.9453L22.1602 12.1172C22.1133 12.1289 22.0781 12.1406 22.0312 12.1523L21.0352 11.5312C20.4961 11.1914 19.8398 11.2734 19.3711 11.7539L18.4219 12.7148C17.9531 13.1953 17.8594 13.8516 18.2109 14.3906L18.8438 15.3516C18.832 15.3984 18.8203 15.4336 18.8086 15.4805L17.6484 15.7148C17.0391 15.8438 16.6406 16.3945 16.6406 17.0508L16.6406 18.3633C16.6406 19.0312 17.0391 19.5703 17.6484 19.6992L18.8086 19.9453C18.8203 19.9922 18.832 20.0156 18.8438 20.0625L18.2109 21.0234C17.8594 21.5625 17.9531 22.2305 18.4219 22.7109L19.3711 23.6602C19.8398 24.1523 20.4961 24.2227 21.0352 23.8828L22.0312 23.2617C22.0781 23.2734 22.1133 23.2852 22.1602 23.2969L22.3828 24.4805C22.5 25.0898 23.0625 25.4766 23.7305 25.4766ZM24.0352 23.918C23.8945 23.918 23.8242 23.8477 23.7891 23.7305L23.3789 22.043C22.9102 21.9375 22.4883 21.7734 22.043 21.4805L20.5664 22.4062C20.4727 22.4648 20.3555 22.4531 20.2617 22.3711L19.7344 21.8203C19.6289 21.7148 19.6172 21.6211 19.6875 21.5156L20.5781 20.0742C20.4844 19.793 20.168 19.2891 20.0508 18.7148L18.375 18.3281C18.2578 18.3047 18.1875 18.2109 18.1875 18.0938L18.1875 17.3203C18.1875 17.2031 18.2578 17.1094 18.375 17.0859L20.0508 16.6992C20.168 16.125 20.4844 15.6328 20.5781 15.3398L19.6875 13.8984C19.6172 13.8047 19.6289 13.6992 19.7344 13.5938L20.2617 13.0547C20.3555 12.9609 20.4727 12.9492 20.5664 13.0195L22.043 13.9336C22.4883 13.6523 22.9102 13.4766 23.3789 13.3711L23.7891 11.6836C23.8242 11.5664 23.8945 11.4961 24.0352 11.4961L24.7617 11.4961C24.9023 11.4961 24.9727 11.5664 25.0078 11.6836L25.418 13.3711C25.8867 13.4766 26.3086 13.6523 26.7539 13.9336L28.2305 13.0195C28.3359 12.9492 28.4414 12.9609 28.5352 13.0547L29.0742 13.5938C29.168 13.6992 29.1797 13.8047 29.1211 13.8984L28.2188 15.3398C28.3242 15.6328 28.6289 16.125 28.7461 16.6992L30.4219 17.0859C30.5391 17.1094 30.6094 17.2031 30.6094 17.3203L30.6094 18.0938C30.6094 18.2109 30.5391 18.3047 30.4219 18.3281L28.7461 18.7148C28.6289 19.2891 28.3242 19.793 28.2188 20.0742L29.1211 21.5156C29.1797 21.6211 29.168 21.7148 29.0742 21.8203L28.5352 22.3711C28.4414 22.4531 28.3359 22.4648 28.2305 22.4062L26.7539 21.4805C26.3086 21.7734 25.8867 21.9375 25.418 22.043L25.0078 23.7305C24.9727 23.8477 24.9023 23.918 24.7617 23.918ZM24.3984 20.4609C25.8984 20.4609 27.1406 19.2188 27.1406 17.707C27.1406 16.207 25.8984 14.9766 24.3984 14.9766C22.875 14.9766 21.6445 16.207 21.6445 17.707C21.6445 19.207 22.875 20.4609 24.3984 20.4609ZM24.3984 18.9844C23.6953 18.9844 23.1328 18.4102 23.1328 17.707C23.1328 17.0156 23.6953 16.4648 24.3984 16.4648C25.0664 16.4648 25.6406 17.0156 25.6406 17.707C25.6406 18.3984 25.0664 18.9844 24.3984 18.9844Z" fill="#000000"/>
</svg>
