<?xml version="1.0" encoding="UTF-8"?>

<!--
  - Copyright (c) 2023. Compose Cupertino project and open source contributors.
  -
  -  Licensed under the Apache License, Version 2.0 (the "License");
  -  you may not use this file except in compliance with the License.
  -  You may obtain a copy of the License at
  -
  -      http://www.apache.org/licenses/LICENSE-2.0
  -
  -  Unless required by applicable law or agreed to in writing, software
  -  distributed under the License is distributed on an "AS IS" BASIS,
  -  WITHOUT WARRANTIES OR CONDITIONS OF ANY KIND, either express or implied.
  -  See the License for the specific language governing permissions and
  -  limitations under the License.
  -
  -->

<svg version="1.1" xmlns="http://www.w3.org/2000/svg" xmlns:xlink="http://www.w3.org/1999/xlink" width="25.0781" height="25.0664">
  <path d="M11.3555 25.0547L13.7227 25.0547C14.625 25.0547 15.3164 24.5039 15.5273 23.6367L16.0312 21.4453L16.4062 21.3164L18.3164 22.4883C19.0781 22.9688 19.957 22.8516 20.6016 22.207L22.2422 20.5781C22.8867 19.9336 23.0039 19.043 22.5234 18.293L21.3281 16.3945L21.4688 16.043L23.6602 15.5273C24.5156 15.3164 25.0781 14.6133 25.0781 13.7227L25.0781 11.4023C25.0781 10.5117 24.5273 9.80859 23.6602 9.59766L21.4922 9.07031L21.3398 8.69531L22.5352 6.79688C23.0156 6.04688 22.8984 5.16797 22.2539 4.51172L20.6133 2.87109C19.9805 2.23828 19.1016 2.12109 18.3398 2.58984L16.4297 3.76172L16.0312 3.60938L15.5273 1.41797C15.3164 0.550781 14.625 0 13.7227 0L11.3555 0C10.4531 0 9.76172 0.550781 9.55078 1.41797L9.03516 3.60938L8.63672 3.76172L6.73828 2.58984C5.97656 2.12109 5.08594 2.23828 4.45312 2.87109L2.82422 4.51172C2.17969 5.16797 2.05078 6.04688 2.54297 6.79688L3.72656 8.69531L3.58594 9.07031L1.41797 9.59766C0.550781 9.80859 0 10.5117 0 11.4023L0 13.7227C0 14.6133 0.5625 15.3164 1.41797 15.5273L3.60938 16.043L3.73828 16.3945L2.55469 18.293C2.0625 19.043 2.19141 19.9336 2.83594 20.5781L4.46484 22.207C5.10938 22.8516 6 22.9688 6.76172 22.4883L8.66016 21.3164L9.03516 21.4453L9.55078 23.6367C9.76172 24.5039 10.4531 25.0547 11.3555 25.0547ZM11.543 23.2266C11.3438 23.2266 11.2383 23.1445 11.2031 22.957L10.5 20.0508C9.78516 19.875 9.11719 19.5938 8.61328 19.2773L6.05859 20.8477C5.91797 20.9531 5.76562 20.9297 5.625 20.7891L4.24219 19.4062C4.11328 19.2773 4.10156 19.1367 4.19531 18.9727L5.76562 16.4414C5.49609 15.9492 5.19141 15.2812 5.00391 14.5664L2.09766 13.875C1.91016 13.8398 1.82812 13.7344 1.82812 13.5352L1.82812 11.5781C1.82812 11.3672 1.89844 11.2734 2.09766 11.2383L4.99219 10.5352C5.17969 9.77344 5.53125 9.08203 5.74219 8.64844L4.18359 6.11719C4.07812 5.94141 4.08984 5.80078 4.21875 5.66016L5.61328 4.30078C5.75391 4.16016 5.88281 4.13672 6.05859 4.24219L8.58984 5.77734C9.09375 5.49609 9.80859 5.20312 10.5117 5.00391L11.2031 2.09766C11.2383 1.91016 11.3438 1.82812 11.543 1.82812L13.5352 1.82812C13.7344 1.82812 13.8398 1.91016 13.8633 2.09766L14.5781 5.02734C15.3047 5.21484 15.9375 5.50781 16.4648 5.78906L19.0078 4.24219C19.1953 4.13672 19.3125 4.16016 19.4648 4.30078L20.8477 5.66016C20.9883 5.80078 20.9883 5.94141 20.8828 6.11719L19.3242 8.64844C19.5469 9.08203 19.8867 9.77344 20.0742 10.5352L22.9805 11.2383C23.168 11.2734 23.25 11.3672 23.25 11.5781L23.25 13.5352C23.25 13.7344 23.1562 13.8398 22.9805 13.875L20.0625 14.5664C19.875 15.2812 19.582 15.9492 19.3008 16.4414L20.8711 18.9727C20.9648 19.1367 20.9648 19.2773 20.8242 19.4062L19.4531 20.7891C19.3008 20.9297 19.1602 20.9531 19.0078 20.8477L16.4531 19.2773C15.9492 19.5938 15.293 19.875 14.5781 20.0508L13.8633 22.957C13.8398 23.1445 13.7344 23.2266 13.5352 23.2266ZM12.5391 17.0039C14.9883 17.0039 17.0039 14.9883 17.0039 12.5273C17.0039 10.0898 14.9883 8.07422 12.5391 8.07422C10.0898 8.07422 8.0625 10.0898 8.0625 12.5273C8.0625 14.9766 10.0781 17.0039 12.5391 17.0039ZM12.5391 15.1875C11.0859 15.1875 9.89062 13.9922 9.89062 12.5273C9.89062 11.0859 11.0859 9.89062 12.5391 9.89062C13.9688 9.89062 15.1641 11.0859 15.1641 12.5273C15.1641 13.9805 13.9688 15.1875 12.5391 15.1875Z" fill="#000000"/>
</svg>
