<?xml version="1.0" encoding="UTF-8"?>

<!--
  - Copyright (c) 2023. Compose Cupertino project and open source contributors.
  -
  -  Licensed under the Apache License, Version 2.0 (the "License");
  -  you may not use this file except in compliance with the License.
  -  You may obtain a copy of the License at
  -
  -      http://www.apache.org/licenses/LICENSE-2.0
  -
  -  Unless required by applicable law or agreed to in writing, software
  -  distributed under the License is distributed on an "AS IS" BASIS,
  -  WITHOUT WARRANTIES OR CONDITIONS OF ANY KIND, either express or implied.
  -  See the License for the specific language governing permissions and
  -  limitations under the License.
  -
  -->

<svg version="1.1" xmlns="http://www.w3.org/2000/svg" xmlns:xlink="http://www.w3.org/1999/xlink" width="26.3906" height="26.0153">
  <path d="M13.1953 24.4159C13.5 24.4159 13.793 24.3924 14.1094 24.369L14.7773 25.6463C14.918 25.9159 15.1641 26.0448 15.4922 26.0096C15.7852 25.951 15.9844 25.7284 16.0312 25.4237L16.2305 24.0057C16.8164 23.8416 17.3906 23.619 17.9414 23.3846L18.9961 24.3338C19.2188 24.5448 19.5 24.5799 19.793 24.4276C20.0508 24.2752 20.1562 24.0057 20.0977 23.6893L19.8047 22.2948C20.2969 21.9549 20.7773 21.5682 21.2109 21.1346L22.5117 21.6737C22.8047 21.8026 23.0859 21.7323 23.3086 21.4744C23.5078 21.2518 23.5195 20.9588 23.3555 20.6893L22.5938 19.4705C22.9453 18.9901 23.2266 18.451 23.4961 17.8885L24.9375 17.9588C25.2422 17.9823 25.4883 17.8065 25.5938 17.5252C25.6875 17.2323 25.6055 16.951 25.3594 16.7635L24.2344 15.8729C24.3867 15.2987 24.5039 14.701 24.5625 14.0682L25.9102 13.6346C26.2148 13.5409 26.3906 13.3182 26.3906 13.0018C26.3906 12.6854 26.2148 12.4627 25.9102 12.3573L24.5625 11.9354C24.5039 11.3026 24.3867 10.7166 24.2344 10.1307L25.3594 9.24007C25.5938 9.05257 25.6875 8.78304 25.5938 8.49007C25.4883 8.20882 25.2422 8.03304 24.9375 8.05648L23.4961 8.10335C23.2266 7.54085 22.9453 7.02523 22.5938 6.52132L23.3555 5.30257C23.5195 5.05648 23.4961 4.76351 23.3086 4.54085C23.0859 4.28304 22.8047 4.22444 22.5117 4.34163L21.2109 4.86898C20.7773 4.4471 20.2969 4.04866 19.8047 3.70882L20.0977 2.32601C20.168 1.99788 20.0508 1.72835 19.793 1.58773C19.5 1.42366 19.2188 1.45882 18.9961 1.68148L17.9414 2.61898C17.3906 2.37288 16.8164 2.17366 16.2305 1.99788L16.0312 0.591632C15.9844 0.286944 15.7734 0.0642879 15.4805 0.00569411C15.1641-0.0294621 14.9062 0.0994441 14.7773 0.357257L14.1094 1.6346C13.793 1.61116 13.5 1.59944 13.1953 1.59944C12.8789 1.59944 12.5977 1.61116 12.2812 1.6346L11.6016 0.357257C11.4727 0.0994441 11.2148-0.0294621 10.8984 0.00569411C10.6055 0.0642879 10.3945 0.286944 10.3594 0.591632L10.1484 1.99788C9.5625 2.17366 9 2.36116 8.4375 2.61898L7.38281 1.68148C7.16016 1.45882 6.87891 1.43538 6.58594 1.58773C6.32812 1.72835 6.21094 1.99788 6.28125 2.32601L6.57422 3.70882C6.09375 4.04866 5.60156 4.4471 5.16797 4.86898L3.86719 4.34163C3.57422 4.22444 3.30469 4.28304 3.08203 4.54085C2.88281 4.76351 2.85938 5.05648 3.02344 5.30257L3.78516 6.52132C3.44531 7.02523 3.15234 7.54085 2.88281 8.10335L1.45312 8.05648C1.14844 8.03304 0.890625 8.20882 0.785156 8.49007C0.691406 8.78304 0.785156 9.05257 1.01953 9.24007L2.14453 10.1307C1.99219 10.7166 1.875 11.3026 1.83984 11.9237L0.46875 12.3573C0.164062 12.4627 0 12.6854 0 13.0018C0 13.3182 0.164062 13.5409 0.46875 13.6346L1.83984 14.0682C1.875 14.701 1.99219 15.2987 2.14453 15.8729L1.01953 16.7635C0.785156 16.9393 0.703125 17.2205 0.785156 17.5252C0.890625 17.8065 1.14844 17.9823 1.45312 17.9588L2.88281 17.8885C3.15234 18.451 3.44531 18.9901 3.78516 19.4705L3.02344 20.6893C2.85938 20.9588 2.88281 21.2518 3.08203 21.4744C3.30469 21.7323 3.57422 21.8026 3.86719 21.6737L5.16797 21.1346C5.60156 21.5682 6.09375 21.9549 6.57422 22.2948L6.28125 23.6893C6.22266 24.0057 6.32812 24.2752 6.58594 24.4276C6.87891 24.5799 7.16016 24.5448 7.38281 24.3338L8.4375 23.3846C9 23.619 9.5625 23.8416 10.1484 24.0057L10.3594 25.4237C10.3945 25.7284 10.6055 25.951 10.8984 26.0096C11.2148 26.0448 11.4609 25.9159 11.6016 25.6463L12.2812 24.369C12.5859 24.3924 12.8789 24.4159 13.1953 24.4159ZM13.1953 22.6463C7.82812 22.6463 3.67969 18.3573 3.67969 13.0135C3.67969 7.65804 7.82812 3.36898 13.1953 3.36898C18.5625 3.36898 22.7109 7.65804 22.7109 13.0135C22.7109 18.3573 18.5625 22.6463 13.1953 22.6463ZM11.1445 11.0799L12.4453 10.2596L8.47266 3.46273L7.125 4.22444ZM15.9141 13.7518L23.8242 13.7518L23.8125 12.2401L15.9141 12.2401ZM12.457 15.7791L11.168 14.9354L7.00781 21.744L8.34375 22.5291ZM13.1719 16.0955C14.8594 16.0955 16.2305 14.7244 16.2305 13.0252C16.2305 11.326 14.8594 9.95491 13.1719 9.95491C11.4727 9.95491 10.1016 11.326 10.1016 13.0252C10.1016 14.7244 11.4727 16.0955 13.1719 16.0955ZM13.1719 14.4432C12.3633 14.4432 11.7539 13.8221 11.7539 13.0252C11.7539 12.2284 12.3633 11.6073 13.1719 11.6073C13.9688 11.6073 14.5781 12.2284 14.5781 13.0252C14.5781 13.8221 13.9688 14.4432 13.1719 14.4432Z" fill="#000000"/>
</svg>
