<?xml version="1.0" encoding="UTF-8"?>

<!--
  - Copyright (c) 2023. Compose Cupertino project and open source contributors.
  -
  -  Licensed under the Apache License, Version 2.0 (the "License");
  -  you may not use this file except in compliance with the License.
  -  You may obtain a copy of the License at
  -
  -      http://www.apache.org/licenses/LICENSE-2.0
  -
  -  Unless required by applicable law or agreed to in writing, software
  -  distributed under the License is distributed on an "AS IS" BASIS,
  -  WITHOUT WARRANTIES OR CONDITIONS OF ANY KIND, either express or implied.
  -  See the License for the specific language governing permissions and
  -  limitations under the License.
  -
  -->

<svg version="1.1" xmlns="http://www.w3.org/2000/svg" xmlns:xlink="http://www.w3.org/1999/xlink" width="22.5352" height="25.8867">
  <path d="M5.10938 24.5625L17.4258 24.5625C19.6289 24.5625 20.8477 23.4023 20.8477 21.1875L20.8477 13.9922L20.9297 13.9922C21.9609 13.7695 22.5352 12.9375 22.5352 11.7422L22.5352 8.66016C22.5352 7.23047 21.7383 6.32812 20.3086 6.32812L17.9414 6.32812C18.5625 5.70703 18.9258 4.86328 18.9258 3.89062C18.9258 1.61719 17.1328 0 14.8594 0C13.2188 0 11.8594 0.902344 11.2617 2.47266C10.6641 0.902344 9.31641 0 7.66406 0C5.40234 0 3.59766 1.61719 3.59766 3.89062C3.59766 4.86328 3.96094 5.70703 4.59375 6.32812L2.22656 6.32812C0.855469 6.32812 0 7.23047 0 8.66016L0 11.7422C0 12.9375 0.5625 13.7695 1.59375 13.9922L1.67578 13.9922L1.67578 21.1875C1.67578 23.4023 2.89453 24.5625 5.10938 24.5625ZM10.2188 22.8047L5.08594 22.8047C4.11328 22.8047 3.5625 22.2539 3.5625 21.2812L3.5625 14.0742L10.2188 14.0742ZM12.3047 22.8047L12.3047 14.0742L18.9609 14.0742L18.9609 21.2812C18.9609 22.2539 18.4102 22.8047 17.4375 22.8047ZM10.2188 12.3047L2.70703 12.3047C2.12109 12.3047 1.88672 12.0586 1.88672 11.4727L1.88672 8.91797C1.88672 8.33203 2.12109 8.09766 2.70703 8.09766L10.2188 8.09766ZM12.3047 12.3047L12.3047 8.09766L19.8398 8.09766C20.4258 8.09766 20.6484 8.33203 20.6484 8.91797L20.6484 11.4727C20.6484 12.0586 20.4258 12.3047 19.8398 12.3047ZM10.3008 6.32812L8.47266 6.32812C6.63281 6.32812 5.55469 5.28516 5.55469 3.99609C5.55469 2.70703 6.49219 1.95703 7.78125 1.95703C9.17578 1.95703 10.3008 3.01172 10.3008 4.74609ZM12.2227 6.32812L12.2227 4.74609C12.2227 3.01172 13.3477 1.95703 14.7422 1.95703C16.0312 1.95703 16.9688 2.70703 16.9688 3.99609C16.9688 5.28516 15.9023 6.32812 14.0508 6.32812Z" fill="#000000"/>
</svg>
