<?xml version="1.0" encoding="UTF-8"?>

<!--
  - Copyright (c) 2023. Compose Cupertino project and open source contributors.
  -
  -  Licensed under the Apache License, Version 2.0 (the "License");
  -  you may not use this file except in compliance with the License.
  -  You may obtain a copy of the License at
  -
  -      http://www.apache.org/licenses/LICENSE-2.0
  -
  -  Unless required by applicable law or agreed to in writing, software
  -  distributed under the License is distributed on an "AS IS" BASIS,
  -  WITHOUT WARRANTIES OR CONDITIONS OF ANY KIND, either express or implied.
  -  See the License for the specific language governing permissions and
  -  limitations under the License.
  -
  -->

<svg version="1.1" xmlns="http://www.w3.org/2000/svg" xmlns:xlink="http://www.w3.org/1999/xlink" width="27.5391" height="20.0273">
  <path d="M0.714844 9.82031L0.714844 11.1094L11.9297 11.1094C11.2383 12.5391 8.98828 14.6484 7.35938 14.8242C6.76172 14.8828 6.42188 15.2578 6.42188 15.8203C6.42188 16.3359 6.83203 16.8164 7.5 16.7227C9.30469 16.4414 12.1992 14.3438 12.9727 11.9297L13.0547 11.9297L13.0547 19.7695L14.4727 19.7695L14.4727 11.9297L14.5664 11.9297C15.3398 14.3438 18.2344 16.4414 20.0391 16.7227C20.707 16.8164 21.1172 16.3359 21.1172 15.8203C21.1172 15.2578 20.7773 14.8828 20.168 14.8242C18.5508 14.6484 16.2891 12.5391 15.6094 11.1094L26.707 11.1094L26.707 9.82031L18.457 9.82031C19.9453 9.15234 20.9766 7.93359 20.9766 6.45703C20.9766 4.74609 19.7227 3.49219 18.0352 3.49219C16.5703 3.49219 15.2461 4.41797 14.4727 5.91797L14.4727 0.210938L13.0547 0.210938L13.0547 5.91797C12.293 4.41797 10.9688 3.49219 9.49219 3.49219C7.81641 3.49219 6.55078 4.74609 6.55078 6.45703C6.55078 7.93359 7.59375 9.15234 9.07031 9.82031ZM12.4922 9.64453C10.1836 9.64453 8.20312 8.0625 8.20312 6.58594C8.20312 5.69531 8.74219 5.15625 9.58594 5.15625C11.3203 5.15625 12.8438 7.08984 12.8438 9.31641L12.8438 9.64453ZM15.0352 9.64453L14.6836 9.64453L14.6836 9.31641C14.6836 7.08984 16.207 5.15625 17.9414 5.15625C18.7969 5.15625 19.3242 5.69531 19.3242 6.58594C19.3242 8.0625 17.3555 9.64453 15.0352 9.64453ZM3.67969 20.0273L23.8594 20.0273C26.3203 20.0273 27.5391 18.8203 27.5391 16.4062L27.5391 3.64453C27.5391 1.23047 26.3203 0.0117188 23.8594 0.0117188L3.67969 0.0117188C1.23047 0.0117188 0 1.23047 0 3.64453L0 16.4062C0 18.8203 1.23047 20.0273 3.67969 20.0273ZM3.70312 18.1406C2.53125 18.1406 1.88672 17.5195 1.88672 16.3008L1.88672 3.75C1.88672 2.53125 2.53125 1.89844 3.70312 1.89844L23.8359 1.89844C24.9844 1.89844 25.6523 2.53125 25.6523 3.75L25.6523 16.3008C25.6523 17.5195 24.9844 18.1406 23.8359 18.1406Z" fill="#000000"/>
</svg>
