<?xml version="1.0" encoding="UTF-8"?>

<!--
  - Copyright (c) 2023. Compose Cupertino project and open source contributors.
  -
  -  Licensed under the Apache License, Version 2.0 (the "License");
  -  you may not use this file except in compliance with the License.
  -  You may obtain a copy of the License at
  -
  -      http://www.apache.org/licenses/LICENSE-2.0
  -
  -  Unless required by applicable law or agreed to in writing, software
  -  distributed under the License is distributed on an "AS IS" BASIS,
  -  WITHOUT WARRANTIES OR CONDITIONS OF ANY KIND, either express or implied.
  -  See the License for the specific language governing permissions and
  -  limitations under the License.
  -
  -->

<svg version="1.1" xmlns="http://www.w3.org/2000/svg" xmlns:xlink="http://www.w3.org/1999/xlink" width="23.9062" height="28.4626">
  <path d="M0 14.2254C0 20.7645 5.42578 26.1785 11.9531 26.1785C18.4922 26.1785 23.9062 20.7645 23.9062 14.2254C23.9062 8.45979 19.6992 3.57307 14.2148 2.49495L14.2148 0.830886C14.2148-0.00114509 13.6406-0.223801 13.0078 0.23323L9.26953 2.84651C8.73047 3.22151 8.71875 3.78401 9.26953 4.17073L12.9961 6.79573C13.6406 7.26448 14.2148 7.04182 14.2148 6.19807L14.2148 4.53401C18.6445 5.54182 21.9023 9.47932 21.9023 14.2254C21.9023 19.7567 17.4844 24.1864 11.9531 24.1864C6.42188 24.1864 1.98047 19.7567 1.99219 14.2254C2.00391 10.8973 3.62109 7.95589 6.11719 6.17464C6.59766 5.81135 6.75 5.26057 6.45703 4.76839C6.16406 4.28792 5.51953 4.15901 5.00391 4.55745C1.99219 6.74885 0 10.2879 0 14.2254Z" fill="#000000"/>
</svg>
