<?xml version="1.0" encoding="UTF-8"?>

<!--
  - Copyright (c) 2023. Compose Cupertino project and open source contributors.
  -
  -  Licensed under the Apache License, Version 2.0 (the "License");
  -  you may not use this file except in compliance with the License.
  -  You may obtain a copy of the License at
  -
  -      http://www.apache.org/licenses/LICENSE-2.0
  -
  -  Unless required by applicable law or agreed to in writing, software
  -  distributed under the License is distributed on an "AS IS" BASIS,
  -  WITHOUT WARRANTIES OR CONDITIONS OF ANY KIND, either express or implied.
  -  See the License for the specific language governing permissions and
  -  limitations under the License.
  -
  -->

<svg version="1.1" xmlns="http://www.w3.org/2000/svg" xmlns:xlink="http://www.w3.org/1999/xlink" width="23.9062" height="28.455">
  <path d="M0 14.2216C0 20.7607 5.42578 26.1748 11.9531 26.1748C18.4922 26.1748 23.9062 20.7607 23.9062 14.2216C23.9062 10.2841 21.9141 6.74507 18.9023 4.55366C18.3867 4.15522 17.7422 4.28413 17.4492 4.7646C17.1562 5.25678 17.3086 5.80757 17.7891 6.17085C20.2852 7.9521 21.9023 10.8935 21.9141 14.2216C21.9258 19.7529 17.4844 24.1826 11.9531 24.1826C6.42188 24.1826 2.00391 19.7529 2.00391 14.2216C2.00391 9.47553 5.26172 5.53803 9.69141 4.53022L9.69141 6.206C9.69141 7.03803 10.2656 7.26069 10.9102 6.80366L14.6484 4.17866C15.1758 3.81538 15.1875 3.25288 14.6484 2.86616L10.9219 0.24116C10.2656-0.22759 9.69141-0.0049341 9.69141 0.838816L9.69141 2.49116C4.20703 3.56928 0 8.456 0 14.2216Z" fill="#000000"/>
</svg>
