<?xml version="1.0" encoding="UTF-8"?>

<!--
  - Copyright (c) 2023. Compose Cupertino project and open source contributors.
  -
  -  Licensed under the Apache License, Version 2.0 (the "License");
  -  you may not use this file except in compliance with the License.
  -  You may obtain a copy of the License at
  -
  -      http://www.apache.org/licenses/LICENSE-2.0
  -
  -  Unless required by applicable law or agreed to in writing, software
  -  distributed under the License is distributed on an "AS IS" BASIS,
  -  WITHOUT WARRANTIES OR CONDITIONS OF ANY KIND, either express or implied.
  -  See the License for the specific language governing permissions and
  -  limitations under the License.
  -
  -->

<svg version="1.1" xmlns="http://www.w3.org/2000/svg" xmlns:xlink="http://www.w3.org/1999/xlink" width="31.8633" height="33.9492">
  <path d="M15.9258 21C16.9336 21.0117 17.9297 20.7539 19.1719 20.1914L30.7148 14.918C31.4766 14.5664 31.8633 13.8867 31.8633 13.1836C31.8633 12.4922 31.4766 11.8125 30.7148 11.4609L19.1719 6.1875C17.9297 5.625 16.9336 5.36719 15.9258 5.37891C14.9297 5.36719 13.9336 5.625 12.6797 6.1875L1.14844 11.4609C0.386719 11.8125 0 12.4922 0 13.1836C0 13.8867 0.386719 14.5664 1.14844 14.918L12.6797 20.1914C13.9336 20.7539 14.9297 21.0117 15.9258 21ZM15.9258 19.1484C15.1523 19.1484 14.3906 18.9492 13.3945 18.4922L2.60156 13.582C2.39062 13.4883 2.29688 13.3477 2.29688 13.1836C2.29688 13.0312 2.39062 12.8906 2.60156 12.7969L13.3945 7.88672C14.3906 7.42969 15.1523 7.23047 15.9258 7.23047C16.7109 7.23047 17.4609 7.42969 18.4688 7.88672L29.2617 12.7969C29.4609 12.8906 29.5664 13.0312 29.5664 13.1836C29.5664 13.3477 29.4609 13.4883 29.2617 13.582L18.4688 18.4922C17.4609 18.9492 16.7109 19.1484 15.9258 19.1484ZM4.57031 21.9961C4.57031 25.5 9.02344 28.4648 15.9258 28.4648C22.8398 28.4648 27.293 25.5 27.293 21.9961L27.293 15.8086L25.4062 15.8086L25.4062 21.9961C25.4062 24.4453 21.7031 26.6953 15.9258 26.6953C10.1602 26.6953 6.45703 24.4453 6.45703 21.9961L6.45703 15.8086L4.57031 15.8086ZM15.9727 14.5195C17.2383 14.5195 18.457 13.9453 18.457 13.1836C18.457 12.4453 17.2383 11.8828 15.9727 11.8828C14.7188 11.8828 13.4766 12.4453 13.4766 13.1836C13.4766 13.9453 14.7188 14.5195 15.9727 14.5195ZM8.84766 17.6133L15.7969 13.9336L15.1523 12.7266L7.32422 16.8047ZM7.32422 29.1094L8.84766 29.1094L8.84766 17.6133L7.32422 16.8633ZM6.39844 29.3438L6.39844 32.4258C6.39844 33.3516 6.99609 33.9492 7.92188 33.9492L8.23828 33.9492C9.16406 33.9492 9.76172 33.3516 9.76172 32.4258L9.76172 29.3438C9.76172 28.418 9.16406 27.8203 8.23828 27.8203L7.92188 27.8203C6.99609 27.8203 6.39844 28.418 6.39844 29.3438Z" fill="#000000"/>
</svg>
