<?xml version="1.0" encoding="UTF-8"?>

<!--
  - Copyright (c) 2023. Compose Cupertino project and open source contributors.
  -
  -  Licensed under the Apache License, Version 2.0 (the "License");
  -  you may not use this file except in compliance with the License.
  -  You may obtain a copy of the License at
  -
  -      http://www.apache.org/licenses/LICENSE-2.0
  -
  -  Unless required by applicable law or agreed to in writing, software
  -  distributed under the License is distributed on an "AS IS" BASIS,
  -  WITHOUT WARRANTIES OR CONDITIONS OF ANY KIND, either express or implied.
  -  See the License for the specific language governing permissions and
  -  limitations under the License.
  -
  -->

<svg version="1.1" xmlns="http://www.w3.org/2000/svg" xmlns:xlink="http://www.w3.org/1999/xlink" width="28.719" height="27.448">
  <path d="M0.712406 24.4174L2.75147 26.4682C3.78272 27.5111 4.96631 27.4408 6.07959 26.2103L18.9116 12.0658L17.7515 10.8939L5.01319 24.9096C4.59131 25.39 4.19287 25.5072 3.63037 24.9447L2.22412 23.5502C1.66162 22.9994 1.79053 22.5892 2.271 22.1557L16.0405 9.19471L14.8687 8.03456L0.9585 21.101C-0.225094 22.2025-0.318844 23.3744 0.712406 24.4174ZM8.41162 2.58534C7.90772 3.07753 7.87256 3.76893 8.15381 4.23768C8.43506 4.67128 8.98584 4.95253 9.75928 4.75331C11.5171 4.34315 13.3452 4.27284 15.0562 5.39784L14.353 7.14393C13.9429 8.14003 14.1538 8.84315 14.7983 9.4994L17.5522 12.2767C18.1382 12.8627 18.6304 12.8861 19.3101 12.7689L20.5874 12.5346L21.3843 13.3432L21.3374 14.0111C21.2905 14.6088 21.4429 15.0658 22.0288 15.64L22.9429 16.5307C23.5171 17.1049 24.2554 17.14 24.8179 16.5775L28.3101 13.0736C28.8726 12.5111 28.8491 11.7963 28.2749 11.2221L27.3491 10.308C26.7749 9.73378 26.3296 9.54628 25.7554 9.59315L25.064 9.65175L24.2905 8.89003L24.5835 7.54237C24.7358 6.86268 24.5483 6.33534 23.8452 5.63221L21.2085 3.00721C17.2007-0.97716 11.8804-0.88341 8.41162 2.58534ZM10.2046 3.03065C13.1226 0.89784 17.0718 1.26112 19.7437 3.933L22.6616 6.82753C22.9429 7.10878 22.9897 7.33143 22.9077 7.74159L22.521 9.52284L24.3257 11.3041L25.5093 11.2338C25.814 11.2221 25.9077 11.2455 26.1421 11.4799L26.8335 12.1713L23.9038 15.101L23.2124 14.4096C22.978 14.1752 22.9429 14.0814 22.9546 13.765L23.0366 12.5932L21.2437 10.8119L19.4155 11.1166C19.0288 11.1986 18.853 11.1635 18.5601 10.8822L16.1577 8.47987C15.853 8.19862 15.8179 7.9994 16.0054 7.55409L17.0601 5.04628C15.1851 3.30018 12.7476 2.55018 10.3101 3.26503C10.1226 3.3119 10.0522 3.15956 10.2046 3.03065Z" fill="#000000"/>
</svg>
