<?xml version="1.0" encoding="UTF-8"?>

<!--
  - Copyright (c) 2023. Compose Cupertino project and open source contributors.
  -
  -  Licensed under the Apache License, Version 2.0 (the "License");
  -  you may not use this file except in compliance with the License.
  -  You may obtain a copy of the License at
  -
  -      http://www.apache.org/licenses/LICENSE-2.0
  -
  -  Unless required by applicable law or agreed to in writing, software
  -  distributed under the License is distributed on an "AS IS" BASIS,
  -  WITHOUT WARRANTIES OR CONDITIONS OF ANY KIND, either express or implied.
  -  See the License for the specific language governing permissions and
  -  limitations under the License.
  -
  -->

<svg version="1.1" xmlns="http://www.w3.org/2000/svg" xmlns:xlink="http://www.w3.org/1999/xlink" width="23.8711" height="25.5352">
  <path d="M23.8711 8.22656C23.8711 4.42969 21.3984 1.25391 18.4102 1.25391L14.6719 1.25391C13.1836 0.46875 11.3789 0 9.36328 0L7.79297 0C6.38672 0 5.16797 0.0820312 4.35938 0.292969C2.78906 0.667969 1.80469 1.76953 1.80469 3.15234C1.80469 3.43359 1.85156 3.70312 1.92188 3.94922C1.14844 4.54688 0.714844 5.39062 0.714844 6.33984C0.714844 6.79688 0.796875 7.24219 0.972656 7.61719C0.445312 8.15625 0.140625 8.94141 0.140625 9.76172C0.140625 10.2891 0.28125 10.8516 0.503906 11.2617C0.1875 11.7188 0 12.3633 0 13.0312C0 14.7305 1.32422 16.0664 3.01172 16.0664L7.28906 16.0664C7.54688 16.0664 7.71094 16.1836 7.71094 16.4062C7.71094 17.625 5.78906 20.4844 5.78906 22.7812C5.78906 24.3633 6.89062 25.4883 8.40234 25.4883C9.51562 25.4883 10.2656 24.9141 10.9922 23.5078C12.375 20.8594 14.0156 18.5039 16.6875 15.2461L18.832 15.2461C21.6211 15.2461 23.8711 12.0938 23.8711 8.22656ZM17.2734 8.28516C17.2734 10.7344 16.7227 12.293 15.1992 14.3438C13.5 16.6055 11.1328 19.3359 9.44531 22.7109C9.01172 23.5547 8.74219 23.7539 8.33203 23.7539C7.85156 23.7539 7.52344 23.4141 7.52344 22.7812C7.52344 20.9414 9.44531 18.1758 9.44531 16.4062C9.44531 15.1172 8.39062 14.332 7.04297 14.332L3.01172 14.332C2.28516 14.332 1.73438 13.7812 1.73438 13.0312C1.73438 12.4922 1.89844 12.1523 2.34375 11.7188C2.55469 11.5312 2.57812 11.2852 2.40234 11.0742C2.03906 10.5352 1.875 10.207 1.875 9.76172C1.875 9.22266 2.13281 8.77734 2.64844 8.37891C2.92969 8.16797 3.04688 7.875 2.87109 7.52344C2.58984 6.99609 2.44922 6.75 2.44922 6.33984C2.44922 5.74219 2.83594 5.27344 3.65625 4.85156C3.91406 4.71094 3.97266 4.5 3.85547 4.24219C3.58594 3.55078 3.55078 3.44531 3.55078 3.15234C3.55078 2.61328 3.9375 2.17969 4.75781 1.96875C5.42578 1.79297 6.49219 1.72266 7.78125 1.72266L9.23438 1.72266C14.0625 1.73438 17.2734 4.47656 17.2734 8.28516ZM22.1367 8.22656C22.1367 11.1328 20.5664 13.5117 18.832 13.5117C18.4922 13.5117 18.1523 13.5117 17.8125 13.5117C18.6445 11.9297 19.0078 10.2891 19.0078 8.32031C19.0078 6.22266 18.2578 4.39453 16.9102 3C17.4023 3 17.9062 3 18.4102 3C20.3906 3 22.1367 5.37891 22.1367 8.22656Z" fill="#000000"/>
</svg>
