<?xml version="1.0" encoding="UTF-8"?>

<!--
  - Copyright (c) 2023. Compose Cupertino project and open source contributors.
  -
  -  Licensed under the Apache License, Version 2.0 (the "License");
  -  you may not use this file except in compliance with the License.
  -  You may obtain a copy of the License at
  -
  -      http://www.apache.org/licenses/LICENSE-2.0
  -
  -  Unless required by applicable law or agreed to in writing, software
  -  distributed under the License is distributed on an "AS IS" BASIS,
  -  WITHOUT WARRANTIES OR CONDITIONS OF ANY KIND, either express or implied.
  -  See the License for the specific language governing permissions and
  -  limitations under the License.
  -
  -->

<svg version="1.1" xmlns="http://www.w3.org/2000/svg" xmlns:xlink="http://www.w3.org/1999/xlink" width="23.8711" height="26.168">
  <path d="M0 17.2617C0 21.0469 2.47266 24.2344 5.46094 24.2344L9.19922 24.2344C10.6875 25.0195 12.4922 25.4766 14.5078 25.4766L16.0781 25.4766C17.4844 25.4766 18.7031 25.3945 19.5117 25.1953C21.082 24.8086 22.0664 23.7188 22.0664 22.3359C22.0664 22.043 22.0195 21.7852 21.9492 21.5273C22.7227 20.9414 23.1562 20.0859 23.1562 19.1484C23.1562 18.6914 23.0625 18.2344 22.8984 17.8711C23.4258 17.332 23.7188 16.5469 23.7188 15.7266C23.7188 15.1992 23.5898 14.6367 23.3672 14.2266C23.6836 13.7695 23.8711 13.125 23.8711 12.4453C23.8711 10.7578 22.5469 9.42188 20.8594 9.42188L16.582 9.42188C16.3242 9.42188 16.1602 9.30469 16.1602 9.08203C16.1602 7.86328 18.082 5.00391 18.082 2.70703C18.082 1.125 16.9805 0 15.4688 0C14.3555 0 13.6055 0.574219 12.8672 1.98047C11.4961 4.61719 9.85547 6.98438 7.18359 10.2422L5.03906 10.2422C2.25 10.2422 0 13.3945 0 17.2617ZM6.59766 17.2031C6.59766 14.7539 7.14844 13.1953 8.67188 11.1445C10.3711 8.87109 12.7266 6.15234 14.4258 2.77734C14.8477 1.92188 15.1289 1.73438 15.5391 1.73438C16.0195 1.73438 16.3477 2.07422 16.3477 2.70703C16.3477 4.53516 14.4258 7.30078 14.4258 9.08203C14.4258 10.3711 15.4805 11.1562 16.8281 11.1562L20.8594 11.1562C21.5859 11.1562 22.1367 11.707 22.1367 12.4453C22.1367 12.9844 21.9609 13.3242 21.5273 13.7695C21.3164 13.957 21.293 14.1914 21.4688 14.4141C21.832 14.9531 21.9844 15.2812 21.9844 15.7266C21.9844 16.2539 21.7383 16.7109 21.2227 17.0977C20.9414 17.3203 20.8242 17.6133 20.9883 17.9648C21.2812 18.4922 21.4219 18.7383 21.4219 19.1484C21.4219 19.7461 21.0352 20.2031 20.2148 20.625C19.957 20.7773 19.8984 20.9883 20.0039 21.2344C20.2852 21.9375 20.3203 22.043 20.3203 22.3359C20.3203 22.875 19.9219 23.3086 19.1016 23.5195C18.4336 23.6836 17.3672 23.7539 16.0898 23.7539L14.6367 23.7539C9.80859 23.7539 6.59766 21.0117 6.59766 17.2031ZM1.73438 17.2617C1.73438 14.3438 3.30469 11.9766 5.03906 11.9766C5.37891 11.9766 5.71875 11.9766 6.05859 11.9766C5.22656 13.5469 4.86328 15.1875 4.86328 17.168C4.86328 19.2656 5.61328 21.0938 6.96094 22.4883C6.45703 22.4883 5.96484 22.4883 5.46094 22.4883C3.48047 22.4883 1.73438 20.0977 1.73438 17.2617Z" fill="#000000"/>
</svg>
