<?xml version="1.0" encoding="UTF-8"?>

<!--
  - Copyright (c) 2023. Compose Cupertino project and open source contributors.
  -
  -  Licensed under the Apache License, Version 2.0 (the "License");
  -  you may not use this file except in compliance with the License.
  -  You may obtain a copy of the License at
  -
  -      http://www.apache.org/licenses/LICENSE-2.0
  -
  -  Unless required by applicable law or agreed to in writing, software
  -  distributed under the License is distributed on an "AS IS" BASIS,
  -  WITHOUT WARRANTIES OR CONDITIONS OF ANY KIND, either express or implied.
  -  See the License for the specific language governing permissions and
  -  limitations under the License.
  -
  -->

<svg version="1.1" xmlns="http://www.w3.org/2000/svg" xmlns:xlink="http://www.w3.org/1999/xlink" width="26.9799" height="33.3164">
 <g>
  <path d="M21.3867 27.9141C24.3047 25.0078 24.7734 21.375 22.7695 17.168L20.1328 11.6016C19.9453 11.2148 19.7227 10.8984 19.4766 10.6523C18.5977 9.77344 17.3203 9.82031 16.4766 10.6758C15.9023 11.2383 15.7266 12.0938 16.1016 13.0312L16.8867 14.8945C16.8984 14.9414 16.9102 14.9883 16.875 15.0234C16.8281 15.0703 16.7812 15.0586 16.7344 15.0117L10.0898 8.36719C9.11719 7.39453 7.91016 7.39453 6.98438 8.32031C6.64453 8.66016 6.45703 9.08203 6.44531 9.52734C5.48438 8.78906 4.41797 8.8125 3.58594 9.64453C2.78906 10.4414 2.76562 11.543 3.45703 12.4805C3.03516 12.4805 2.63672 12.668 2.33203 12.9727C1.46484 13.8281 1.5 15 2.41406 15.9258L3.33984 16.8398C2.88281 16.8281 2.42578 17.0391 2.0625 17.4023C1.20703 18.2578 1.25391 19.4883 2.17969 20.4141L9.30469 27.5391C13.1836 31.418 17.8828 31.418 21.3867 27.9141ZM20.2031 26.8125C17.2617 29.7422 13.5938 29.6484 10.2656 26.3086L3.38672 19.4414C3.03516 19.0898 3.01172 18.6211 3.36328 18.2695C3.70312 17.9297 4.19531 17.9297 4.54688 18.2812L8.77734 22.5234C9.09375 22.8281 9.53906 22.7812 9.80859 22.5117C10.0898 22.2305 10.1367 21.7734 9.83203 21.4688L3.50391 15.1289C3.15234 14.7773 3.12891 14.3086 3.46875 13.9688C3.80859 13.6289 4.30078 13.6289 4.66406 13.9805L10.5703 19.8867C10.875 20.1914 11.332 20.1562 11.6016 19.875C11.8828 19.5938 11.9297 19.1367 11.625 18.832L4.6875 11.8945C4.33594 11.543 4.3125 11.0508 4.66406 10.7109C4.99219 10.3711 5.48438 10.3945 5.84766 10.7461L12.7852 17.6836C13.0664 17.9648 13.5234 17.9531 13.8047 17.6719C14.0977 17.3789 14.1211 16.9219 13.8281 16.6289L7.92188 10.7109C7.57031 10.3594 7.55859 9.87891 7.89844 9.53906C8.25 9.1875 8.71875 9.19922 9.08203 9.5625L17.2383 17.7188C17.6484 18.1289 18.1289 18.1289 18.4805 17.7773C18.7734 17.4844 18.9023 17.0977 18.668 16.5L17.2031 12.6445C17.0039 12.1289 17.1797 11.6953 17.5898 11.5078C18.0234 11.3086 18.4102 11.5078 18.6797 12.0703L21.3984 17.8242C23.2148 21.668 22.5117 24.4922 20.2031 26.8125ZM9.98438 7.26562C9.63281 7.59375 9.45703 8.02734 9.43359 8.47266L10.9102 9.65625C10.5586 9.31641 10.5469 8.82422 10.8984 8.47266C11.2383 8.13281 11.7188 8.15625 12.0703 8.50781L16.0547 12.4922L17.0039 11.2266L13.0781 7.3125C12.1055 6.33984 10.9102 6.33984 9.98438 7.26562ZM24.375 26.8711C27.293 23.9531 27.7617 20.3203 25.7695 16.1133L23.1211 10.5352C22.6406 9.50391 21.832 8.96484 20.8711 8.96484C20.1094 8.96484 18.8086 9.49219 18.8086 11.0273C18.8086 11.1562 18.8086 11.2852 18.832 11.4258L20.2148 11.8125C20.1445 11.6602 20.0977 11.5078 20.0977 11.3086C20.0977 10.9336 20.4141 10.5586 20.918 10.5586C21.2344 10.5586 21.5625 10.7812 21.7383 11.1562L24.3984 16.7695C26.2148 20.6016 25.5234 23.4492 23.1914 25.7461C22.2539 26.6836 21.2344 27.3164 20.1797 27.6211L18.4688 29.4258C20.5781 29.4844 22.6289 28.6172 24.375 26.8711Z" fill="#000000"/>
  <path d="M17.5898 8.35547C17.7773 8.35547 17.9297 8.22656 17.9414 8.01562C18.2812 5.26172 18.4102 5.19141 21.2109 4.72266C21.4453 4.69922 21.5742 4.58203 21.5742 4.38281C21.5742 4.19531 21.4453 4.07812 21.2578 4.04297C18.4336 3.50391 18.2812 3.51562 17.9414 0.761719C17.9297 0.550781 17.7773 0.421875 17.5898 0.421875C17.4141 0.421875 17.2734 0.550781 17.2617 0.75C16.8867 3.55078 16.8047 3.63281 13.9336 4.04297C13.7461 4.06641 13.6172 4.19531 13.6172 4.38281C13.6172 4.57031 13.7461 4.69922 13.9336 4.72266C16.8047 5.28516 16.875 5.27344 17.2617 8.03906C17.2734 8.22656 17.4141 8.35547 17.5898 8.35547ZM9.75 5.19141C9.87891 5.19141 9.98438 5.12109 10.0195 4.96875C10.3359 3.21094 10.3359 3.19922 12.1055 2.87109C12.2578 2.83594 12.3516 2.74219 12.3516 2.60156C12.3516 2.44922 12.2578 2.35547 12.1055 2.32031C10.3359 1.96875 10.3828 1.95703 10.0195 0.234375C9.98438 0.0820312 9.89062 0 9.75 0C9.60938 0 9.50391 0.09375 9.48047 0.234375C9.10547 1.95703 9.16406 1.96875 7.38281 2.32031C7.23047 2.35547 7.13672 2.46094 7.13672 2.60156C7.13672 2.73047 7.23047 2.83594 7.38281 2.87109C9.16406 3.22266 9.14062 3.21094 9.48047 4.96875C9.50391 5.10938 9.60938 5.19141 9.75 5.19141ZM3.36328 31.2656C3.53906 31.2656 3.63281 31.1602 3.65625 30.9961C4.07812 28.6992 4.06641 28.6523 6.46875 28.1953C6.64453 28.1484 6.73828 28.0664 6.73828 27.8906C6.73828 27.7148 6.64453 27.6328 6.46875 27.5977C4.07812 27.1172 4.13672 27.0703 3.65625 24.7852C3.63281 24.6211 3.53906 24.5156 3.36328 24.5156C3.19922 24.5156 3.11719 24.6211 3.07031 24.7852C2.58984 27.0703 2.68359 27.1172 0.269531 27.5977C0.105469 27.6328 0 27.7148 0 27.8906C0 28.0664 0.105469 28.1484 0.269531 28.1953C2.68359 28.6641 2.63672 28.6992 3.07031 30.9961C3.11719 31.1602 3.19922 31.2656 3.36328 31.2656Z" fill="#000000"/>
 </g>
</svg>
