<?xml version="1.0" encoding="UTF-8"?>

<!--
  - Copyright (c) 2023. Compose Cupertino project and open source contributors.
  -
  -  Licensed under the Apache License, Version 2.0 (the "License");
  -  you may not use this file except in compliance with the License.
  -  You may obtain a copy of the License at
  -
  -      http://www.apache.org/licenses/LICENSE-2.0
  -
  -  Unless required by applicable law or agreed to in writing, software
  -  distributed under the License is distributed on an "AS IS" BASIS,
  -  WITHOUT WARRANTIES OR CONDITIONS OF ANY KIND, either express or implied.
  -  See the License for the specific language governing permissions and
  -  limitations under the License.
  -
  -->

<svg version="1.1" xmlns="http://www.w3.org/2000/svg" xmlns:xlink="http://www.w3.org/1999/xlink" width="19.1367" height="26.6836">
  <path d="M8.28516 25.5117C12.3984 25.5117 15.3047 23.2852 16.8633 18.8906L18.9258 13.0898C19.0664 12.6914 19.1367 12.3047 19.1367 11.9531C19.1367 10.7109 18.1992 9.84375 17.0039 9.84375C16.1953 9.84375 15.4688 10.3242 15.0703 11.25L14.3086 13.125C14.2852 13.1719 14.25 13.207 14.2031 13.207C14.1445 13.207 14.1211 13.1602 14.1211 13.1016L14.1211 3.70312C14.1211 2.33203 13.2656 1.46484 11.9531 1.46484C11.4727 1.46484 11.0391 1.64062 10.7109 1.94531C10.5586 0.738281 9.78516 0 8.625 0C7.48828 0 6.69141 0.761719 6.51562 1.92188C6.22266 1.62891 5.80078 1.46484 5.37891 1.46484C4.16016 1.46484 3.35156 2.32031 3.35156 3.62109L3.35156 4.92188C3.03516 4.59375 2.55469 4.41797 2.0625 4.41797C0.84375 4.41797 0 5.30859 0 6.63281L0 16.6992C0 22.1836 3.32812 25.5117 8.28516 25.5117ZM8.22656 23.8945C4.07812 23.8945 1.54688 21.2227 1.54688 16.5117L1.54688 6.79688C1.54688 6.29297 1.86328 5.95312 2.35547 5.95312C2.83594 5.95312 3.1875 6.29297 3.1875 6.79688L3.1875 12.7852C3.1875 13.2188 3.53906 13.5117 3.91406 13.5117C4.3125 13.5117 4.67578 13.2188 4.67578 12.7852L4.67578 3.83203C4.67578 3.32812 4.99219 2.97656 5.47266 2.97656C5.96484 2.97656 6.30469 3.32812 6.30469 3.83203L6.30469 12.1875C6.30469 12.6211 6.65625 12.9141 7.04297 12.9141C7.44141 12.9141 7.79297 12.6211 7.79297 12.1875L7.79297 2.37891C7.79297 1.875 8.13281 1.51172 8.625 1.51172C9.09375 1.51172 9.43359 1.875 9.43359 2.37891L9.43359 12.1875C9.43359 12.5977 9.76172 12.9141 10.1719 12.9141C10.5703 12.9141 10.9219 12.5977 10.9219 12.1875L10.9219 3.83203C10.9219 3.32812 11.2617 2.97656 11.7422 2.97656C12.2227 2.97656 12.5625 3.32812 12.5625 3.83203L12.5625 15.3633C12.5625 15.9492 12.9023 16.2891 13.3945 16.2891C13.8164 16.2891 14.168 16.1016 14.4375 15.5156L16.125 11.7539C16.3477 11.25 16.7812 11.0742 17.1914 11.2266C17.6484 11.3906 17.7891 11.8242 17.5781 12.3984L15.4336 18.3867C14.0039 22.3828 11.4961 23.8945 8.22656 23.8945Z" fill="#000000"/>
</svg>
