<?xml version="1.0" encoding="UTF-8"?>

<!--
  - Copyright (c) 2023. Compose Cupertino project and open source contributors.
  -
  -  Licensed under the Apache License, Version 2.0 (the "License");
  -  you may not use this file except in compliance with the License.
  -  You may obtain a copy of the License at
  -
  -      http://www.apache.org/licenses/LICENSE-2.0
  -
  -  Unless required by applicable law or agreed to in writing, software
  -  distributed under the License is distributed on an "AS IS" BASIS,
  -  WITHOUT WARRANTIES OR CONDITIONS OF ANY KIND, either express or implied.
  -  See the License for the specific language governing permissions and
  -  limitations under the License.
  -
  -->

<svg version="1.1" xmlns="http://www.w3.org/2000/svg" xmlns:xlink="http://www.w3.org/1999/xlink" width="19.1378" height="24.668">
  <path d="M10.8527 24.6562C15.8097 24.6562 19.1378 21.3281 19.1378 15.8438L19.1378 13.2773C19.1378 10.582 17.8605 9 15.6808 8.97656C15.4113 8.10938 14.6964 7.59375 13.7238 7.59375C13.3722 7.59375 13.0324 7.65234 12.6925 7.76953C12.3995 6.82031 11.6261 6.24609 10.6066 6.24609C10.337 6.24609 10.0558 6.28125 9.77454 6.36328L9.77454 2.46094C9.77454 0.984375 8.79017 0 7.40736 0C6.01283 0 5.01673 0.984375 5.01673 2.46094L5.01673 12.2344C5.01673 12.3047 4.99329 12.3398 4.9347 12.3398C4.88783 12.3398 4.85267 12.3164 4.82923 12.2578L4.05579 10.3945C3.65736 9.48047 2.97767 8.98828 2.14564 8.98828C0.997201 8.98828 0.00110737 9.71484 0.00110737 10.9922C-0.0106114 11.3555 0.0714199 11.8242 0.212045 12.2227L2.27454 18.0234C3.83314 22.418 6.72767 24.6562 10.8527 24.6562ZM10.9113 23.0391C7.64173 23.0391 5.13392 21.5273 3.70423 17.5195L1.63001 11.7422C1.57142 11.5664 1.53626 11.4141 1.53626 11.2031C1.53626 10.8047 1.84095 10.4531 2.3097 10.4531C2.70814 10.4531 2.94251 10.6875 3.10658 11.0859L4.71204 14.6484C4.96986 15.2461 5.32142 15.4336 5.74329 15.4336C6.23548 15.4336 6.57533 15.0352 6.57533 14.5078L6.57533 2.35547C6.57533 1.86328 6.92689 1.51172 7.40736 1.51172C7.88783 1.51172 8.21595 1.86328 8.21595 2.35547L8.21595 11.0273C8.21595 11.4375 8.56751 11.7539 8.96595 11.7539C9.37611 11.7539 9.70423 11.4375 9.70423 11.0273L9.70423 7.91016C9.90345 7.81641 10.173 7.74609 10.4074 7.74609C10.9933 7.74609 11.3449 8.13281 11.3449 8.75391L11.3449 11.4727C11.3449 11.9062 11.6964 12.1992 12.0949 12.1992C12.4816 12.1992 12.8331 11.9062 12.8331 11.4727L12.8331 9.25781C13.0324 9.16406 13.3019 9.10547 13.5245 9.10547C14.1105 9.10547 14.462 9.48047 14.462 10.1016L14.462 11.9297C14.462 12.3516 14.8253 12.6445 15.2238 12.6445C15.5988 12.6445 15.9503 12.3516 15.9503 11.9297L15.9503 10.582C16.9933 10.582 17.591 11.6484 17.591 13.5117L17.591 15.6562C17.591 20.3672 15.0597 23.0391 10.9113 23.0391Z" fill="#000000"/>
</svg>
