<?xml version="1.0" encoding="UTF-8"?>

<!--
  - Copyright (c) 2023. Compose Cupertino project and open source contributors.
  -
  -  Licensed under the Apache License, Version 2.0 (the "License");
  -  you may not use this file except in compliance with the License.
  -  You may obtain a copy of the License at
  -
  -      http://www.apache.org/licenses/LICENSE-2.0
  -
  -  Unless required by applicable law or agreed to in writing, software
  -  distributed under the License is distributed on an "AS IS" BASIS,
  -  WITHOUT WARRANTIES OR CONDITIONS OF ANY KIND, either express or implied.
  -  See the License for the specific language governing permissions and
  -  limitations under the License.
  -
  -->

<svg version="1.1" xmlns="http://www.w3.org/2000/svg" xmlns:xlink="http://www.w3.org/1999/xlink" width="26.1551" height="22.8855">
 <g>
  <path d="M20.6953 22.2884C25.3477 20.6009 27.3281 16.3353 25.4531 11.1791L24.5859 8.77673C23.6602 6.23376 21.9141 5.19079 19.8633 5.90563C19.3125 5.19079 18.4688 4.94469 17.5547 5.27282C17.2148 5.40173 16.9219 5.57751 16.6406 5.78844C16.043 5.01501 15.1172 4.73376 14.1562 5.0736C13.8984 5.16735 13.6523 5.30798 13.418 5.47204L12.082 1.81579C11.5781 0.421256 10.3125-0.164681 9.01172 0.304069C7.69922 0.784538 7.11328 2.03844 7.61719 3.43298L10.957 12.6205C10.9805 12.6791 10.9688 12.7259 10.9102 12.7494C10.875 12.7728 10.8281 12.7494 10.793 12.7142L9.42188 11.2142C8.74219 10.4877 7.92188 10.265 7.13672 10.5463C6.07031 10.9447 5.37891 11.9642 5.82422 13.1713C5.92969 13.5111 6.16406 13.9213 6.43359 14.2611L10.3594 19.0072C13.3359 22.5931 16.8047 23.7064 20.6953 22.2884ZM20.1914 20.7533C17.1211 21.8783 14.25 21.3041 11.5312 18.0345L7.60547 13.3119C7.48828 13.1713 7.40625 13.0424 7.33594 12.8431C7.19531 12.4681 7.35938 12.0345 7.80469 11.8705C8.17969 11.7416 8.48438 11.8822 8.77734 12.1986L11.4961 14.9994C11.9414 15.4681 12.3398 15.515 12.7383 15.3744C13.1953 15.2103 13.3828 14.7181 13.1953 14.2142L9.04688 2.80016C8.87109 2.33141 9.08203 1.8861 9.53906 1.72204C9.98438 1.55798 10.418 1.78063 10.582 2.24938L13.5469 10.3939C13.6875 10.7806 14.1211 10.9564 14.5078 10.8158C14.8828 10.6752 15.0938 10.265 14.9531 9.89001L13.8867 6.9486C14.0391 6.79626 14.2734 6.64391 14.4844 6.56188C15.0352 6.36266 15.4922 6.60876 15.7031 7.18298L16.6406 9.74938C16.7812 10.1478 17.2266 10.3002 17.6016 10.1595C17.9531 10.0306 18.1875 9.64391 18.0352 9.23376L17.2734 7.14782C17.4375 6.99548 17.6602 6.84313 17.8828 6.7611C18.4336 6.56188 18.8906 6.80798 19.1016 7.38219L19.7227 9.09313C19.875 9.50329 20.3086 9.65563 20.6836 9.51501C21.0469 9.3861 21.2695 8.98766 21.1289 8.58923L20.6719 7.3236C21.6445 6.97204 22.5703 7.76891 23.2031 9.52673L23.9414 11.5306C25.5469 15.9603 24.0938 19.3353 20.1914 20.7533Z" fill="#000000"/>
  <path d="M5.73047 2.94079C2.28516 5.02673 0 8.92907 0 13.7338C0 14.1556 0.363281 14.5189 0.761719 14.5072C1.17188 14.4955 1.46484 14.1791 1.47656 13.7572C1.58203 9.55016 3.38672 6.24548 6.25781 4.38219Z" fill="#000000"/>
 </g>
</svg>
