<?xml version="1.0" encoding="UTF-8"?>

<!--
  - Copyright (c) 2023. Compose Cupertino project and open source contributors.
  -
  -  Licensed under the Apache License, Version 2.0 (the "License");
  -  you may not use this file except in compliance with the License.
  -  You may obtain a copy of the License at
  -
  -      http://www.apache.org/licenses/LICENSE-2.0
  -
  -  Unless required by applicable law or agreed to in writing, software
  -  distributed under the License is distributed on an "AS IS" BASIS,
  -  WITHOUT WARRANTIES OR CONDITIONS OF ANY KIND, either express or implied.
  -  See the License for the specific language governing permissions and
  -  limitations under the License.
  -
  -->

<svg version="1.1" xmlns="http://www.w3.org/2000/svg" xmlns:xlink="http://www.w3.org/1999/xlink" width="20.4681" height="22.8855">
  <path d="M15.0083 22.2884C19.6607 20.6009 21.6411 16.3353 19.7661 11.1791L18.8989 8.77673C17.9732 6.23376 16.2271 5.19079 14.1763 5.90563C13.6255 5.19079 12.7817 4.94469 11.8677 5.27282C11.5278 5.40173 11.2349 5.57751 10.9536 5.78844C10.356 5.01501 9.43018 4.73376 8.46925 5.0736C8.21143 5.16735 7.96534 5.30798 7.73096 5.47204L6.39503 1.81579C5.89112 0.421256 4.6255-0.164681 3.32471 0.304069C2.01221 0.784538 1.42628 2.03844 1.93018 3.43298L5.27003 12.6205C5.29346 12.6791 5.28175 12.7259 5.22315 12.7494C5.188 12.7728 5.14112 12.7494 5.10596 12.7142L3.73487 11.2142C3.05518 10.4877 2.23487 10.265 1.44971 10.5463C0.383309 10.9447-0.308098 11.9642 0.137215 13.1713C0.242684 13.5111 0.477059 13.9213 0.74659 14.2611L4.67237 19.0072C7.63721 22.5931 11.1177 23.7064 15.0083 22.2884ZM14.5044 20.7533C11.4341 21.8783 8.55128 21.3041 5.84425 18.0345L1.91846 13.3119C1.80128 13.1713 1.71925 13.0424 1.64893 12.8431C1.50831 12.4681 1.67237 12.0345 2.11768 11.8705C2.49268 11.7416 2.78565 11.8822 3.09034 12.1986L5.80909 14.9994C6.2544 15.4681 6.65284 15.515 7.03956 15.3744C7.50831 15.2103 7.69581 14.7181 7.50831 14.2142L3.35987 2.80016C3.18409 2.33141 3.39503 1.8861 3.84034 1.72204C4.29737 1.55798 4.71925 1.78063 4.89503 2.24938L7.85987 10.3939C8.0005 10.7806 8.43409 10.9564 8.82081 10.8158C9.19581 10.6752 9.39503 10.265 9.26612 9.89001L8.188 6.9486C8.35206 6.79626 8.57471 6.64391 8.79737 6.56188C9.34815 6.36266 9.80518 6.60876 10.0161 7.18298L10.9536 9.74938C11.0942 10.1478 11.5278 10.3002 11.9028 10.1595C12.2661 10.0306 12.5005 9.64391 12.3482 9.23376L11.5864 7.14782C11.7505 6.99548 11.9732 6.84313 12.1958 6.7611C12.7466 6.56188 13.2036 6.80798 13.4146 7.38219L14.0357 9.09313C14.188 9.50329 14.6216 9.65563 14.9966 9.51501C15.3599 9.3861 15.5825 8.98766 15.4419 8.58923L14.9732 7.3236C15.9575 6.97204 16.8833 7.76891 17.5161 9.52673L18.2544 11.5306C19.8599 15.9603 18.4067 19.3353 14.5044 20.7533Z" fill="#000000"/>
</svg>
