<?xml version="1.0" encoding="UTF-8"?>

<!--
  - Copyright (c) 2023. Compose Cupertino project and open source contributors.
  -
  -  Licensed under the Apache License, Version 2.0 (the "License");
  -  you may not use this file except in compliance with the License.
  -  You may obtain a copy of the License at
  -
  -      http://www.apache.org/licenses/LICENSE-2.0
  -
  -  Unless required by applicable law or agreed to in writing, software
  -  distributed under the License is distributed on an "AS IS" BASIS,
  -  WITHOUT WARRANTIES OR CONDITIONS OF ANY KIND, either express or implied.
  -  See the License for the specific language governing permissions and
  -  limitations under the License.
  -
  -->

<svg version="1.1" xmlns="http://www.w3.org/2000/svg" xmlns:xlink="http://www.w3.org/1999/xlink" width="22.5357" height="22.8962">
  <path d="M19.9333 20.3133C22.8513 17.3953 23.3201 13.7742 21.3162 9.5555L18.6794 4.00081C18.4919 3.61409 18.2693 3.29768 18.0232 3.05159C17.1443 2.17268 15.8669 2.21956 15.0232 3.06331C14.449 3.63753 14.2732 4.493 14.6482 5.41878L15.4333 7.29378C15.4568 7.34065 15.4568 7.38753 15.4216 7.42268C15.3747 7.45784 15.3279 7.44612 15.281 7.41097L8.63647 0.766435C7.67553-0.206221 6.45678-0.206221 5.531 0.71956C5.19115 1.04768 5.00365 1.48128 4.99194 1.92659C4.031 1.18831 2.96459 1.21175 2.14428 2.03206C1.33569 2.84065 1.31225 3.94222 2.00365 4.87972C1.58178 4.87972 1.18334 5.06722 0.878655 5.3719C0.0231858 6.22737 0.0466233 7.39925 0.960686 8.31331L1.88647 9.23909C1.42944 9.22737 0.972405 9.43831 0.620842 9.78987C-0.246345 10.6571-0.19947 11.8875 0.726311 12.8133L7.85131 19.9383C11.7302 23.8172 16.4294 23.8172 19.9333 20.3133ZM18.7497 19.2117C15.8201 22.1414 12.1404 22.0477 8.81225 18.7078L1.94506 11.8407C1.58178 11.4891 1.57006 11.0086 1.9099 10.6688C2.24975 10.3289 2.74194 10.3289 3.0935 10.6805L7.33569 14.911C7.64037 15.2157 8.08569 15.1805 8.35522 14.911C8.64819 14.6297 8.68334 14.1727 8.37865 13.868L2.05053 7.52815C1.69897 7.17659 1.67553 6.70784 2.01537 6.368C2.35522 6.01643 2.85912 6.01643 3.21069 6.368L9.11694 12.286C9.42162 12.5907 9.87865 12.5438 10.1482 12.2742C10.4294 11.993 10.4763 11.536 10.1716 11.2313L3.23412 4.29378C2.88256 3.94222 2.85912 3.45003 3.21069 3.11018C3.53881 2.77034 4.04272 2.78206 4.39428 3.13362L11.3318 10.0711C11.613 10.3641 12.0701 10.3524 12.3513 10.0711C12.6443 9.77815 12.6677 9.3094 12.3865 9.02815L6.4685 3.11018C6.11694 2.75862 6.10522 2.27815 6.44506 1.92659C6.79662 1.58675 7.27709 1.59847 7.62865 1.95003L15.7849 10.1063C16.1951 10.5282 16.6872 10.5164 17.0271 10.1766C17.3201 9.88362 17.449 9.4969 17.2146 8.88753L15.7497 5.04378C15.5505 4.51643 15.738 4.09456 16.1365 3.90706C16.5818 3.70784 16.9802 3.91878 17.238 4.46956L19.9568 10.2117C21.7732 14.0555 21.0583 16.8914 18.7497 19.2117Z" fill="#000000"/>
</svg>
