<?xml version="1.0" encoding="UTF-8"?>

<!--
  - Copyright (c) 2023. Compose Cupertino project and open source contributors.
  -
  -  Licensed under the Apache License, Version 2.0 (the "License");
  -  you may not use this file except in compliance with the License.
  -  You may obtain a copy of the License at
  -
  -      http://www.apache.org/licenses/LICENSE-2.0
  -
  -  Unless required by applicable law or agreed to in writing, software
  -  distributed under the License is distributed on an "AS IS" BASIS,
  -  WITHOUT WARRANTIES OR CONDITIONS OF ANY KIND, either express or implied.
  -  See the License for the specific language governing permissions and
  -  limitations under the License.
  -
  -->

<svg version="1.1" xmlns="http://www.w3.org/2000/svg" xmlns:xlink="http://www.w3.org/1999/xlink" width="23.3408" height="26.8711">
 <g>
  <path d="M12.4893 25.5117C14.4229 25.5117 16.1104 25.0078 17.4814 24.0117L16.3213 22.8633C15.1963 23.5547 13.8955 23.8828 12.4307 23.8828C8.28223 23.8828 5.75098 21.2227 5.75098 16.5117L5.75098 12.3164L4.2041 10.7695L4.2041 16.6992C4.2041 22.1836 7.53223 25.5117 12.4893 25.5117ZM19.2275 19.3594L20.376 20.5078C20.6221 20.0039 20.8682 19.4648 21.0674 18.8789L23.1299 13.0781C23.2705 12.6914 23.3408 12.3164 23.3408 11.9531C23.3291 10.793 22.5088 9.84375 21.1494 9.84375C20.376 9.84375 19.6729 10.3242 19.2744 11.25L18.5127 13.1133C18.4893 13.1719 18.4541 13.1953 18.4072 13.1953C18.3486 13.1953 18.3252 13.1602 18.3252 13.0898L18.3252 3.69141C18.3252 2.33203 17.4697 1.46484 16.1572 1.46484C15.6768 1.46484 15.2432 1.62891 14.915 1.94531C14.7627 0.738281 13.9893 0 12.8291 0C11.6924 0 10.8955 0.761719 10.7197 1.92188C10.4268 1.61719 10.0049 1.46484 9.58301 1.46484C8.36426 1.46484 7.55566 2.32031 7.55566 3.60938L7.55566 4.92188C7.23926 4.58203 6.75879 4.40625 6.2666 4.40625C5.69238 4.40625 5.21191 4.65234 4.93066 5.0625L6.19629 6.32812L6.19629 6.24609C6.23145 6.05859 6.34863 5.94141 6.55957 5.94141C7.04004 5.94141 7.3916 6.29297 7.3916 6.79688L7.3916 7.52344L8.87988 9.02344L8.87988 3.82031C8.87988 3.32812 9.19629 2.97656 9.67676 2.97656C10.1689 2.97656 10.5088 3.32812 10.5088 3.82031L10.5088 10.6406L11.9971 12.1289L11.9971 2.37891C11.9971 1.875 12.3369 1.51172 12.8291 1.51172C13.2979 1.51172 13.6377 1.875 13.6377 2.37891L13.6377 12.1875C13.6377 12.5977 13.9658 12.9023 14.376 12.9023C14.7744 12.9023 15.126 12.5977 15.126 12.1875L15.126 3.82031C15.126 3.32812 15.4658 2.97656 15.9463 2.97656C16.4268 2.97656 16.7666 3.32812 16.7666 3.82031L16.7666 15.3633C16.7666 15.8906 17.1064 16.2891 17.5986 16.2891C18.0205 16.2891 18.3721 16.1016 18.6416 15.5156L20.2939 11.8359C20.5283 11.2852 20.9385 11.0625 21.3721 11.2148C21.8291 11.3555 21.9814 11.8242 21.7705 12.4219L19.6377 18.3867C19.5088 18.7266 19.3799 19.0547 19.2275 19.3594Z" fill="#000000"/>
  <path d="M21.0908 25.6875C21.4307 26.0273 22.0283 26.0391 22.3682 25.6875C22.708 25.3242 22.7197 24.7617 22.3682 24.4102L1.54395 3.59766C1.19238 3.24609 0.618164 3.24609 0.254883 3.59766C-0.0849609 3.94922-0.0849609 4.53516 0.254883 4.875Z" fill="#000000"/>
 </g>
</svg>
