<?xml version="1.0" encoding="UTF-8"?>

<!--
  - Copyright (c) 2023. Compose Cupertino project and open source contributors.
  -
  -  Licensed under the Apache License, Version 2.0 (the "License");
  -  you may not use this file except in compliance with the License.
  -  You may obtain a copy of the License at
  -
  -      http://www.apache.org/licenses/LICENSE-2.0
  -
  -  Unless required by applicable law or agreed to in writing, software
  -  distributed under the License is distributed on an "AS IS" BASIS,
  -  WITHOUT WARRANTIES OR CONDITIONS OF ANY KIND, either express or implied.
  -  See the License for the specific language governing permissions and
  -  limitations under the License.
  -
  -->

<svg version="1.1" xmlns="http://www.w3.org/2000/svg" xmlns:xlink="http://www.w3.org/1999/xlink" width="23.9062" height="23.918">
 <g>
  <path d="M11.9531 23.9062C18.4922 23.9062 23.9062 18.4805 23.9062 11.9531C23.9062 5.41406 18.4805 0 11.9414 0C5.41406 0 0 5.41406 0 11.9531C0 18.4805 5.42578 23.9062 11.9531 23.9062ZM11.9531 21.9141C6.42188 21.9141 2.00391 17.4844 2.00391 11.9531C2.00391 6.42188 6.41016 1.99219 11.9414 1.99219C17.4727 1.99219 21.9141 6.42188 21.9141 11.9531C21.9141 17.4844 17.4844 21.9141 11.9531 21.9141Z" fill="#000000"/>
  <path d="M5.61328 11.9297C5.61328 14.1328 6.14062 15.832 7.04297 17.3906C7.27734 17.7773 7.72266 17.8945 8.13281 17.6719C8.50781 17.4727 8.625 17.0039 8.41406 16.582C7.64062 15.1641 7.19531 13.8398 7.19531 11.9297C7.19531 8.78906 9.09375 6.71484 11.9531 6.71484C14.8242 6.71484 16.7461 8.80078 16.7461 11.9297C16.7461 13.8281 16.3008 15.1758 15.5039 16.582C15.2812 16.9922 15.4102 17.4609 15.7852 17.6719C16.1836 17.8945 16.6406 17.7773 16.875 17.3906C17.7891 15.7852 18.3281 14.0977 18.3281 11.9297C18.3281 7.86328 15.7617 5.13281 11.9531 5.13281C8.15625 5.13281 5.61328 7.85156 5.61328 11.9297ZM7.6875 17.1328C7.91016 17.9062 8.60156 18.293 9.36328 18.0469C10.1484 17.8359 10.5234 17.1562 10.2891 16.3828L9.44531 13.4883C9.21094 12.7031 8.54297 12.3281 7.76953 12.5625C6.99609 12.7734 6.60938 13.4531 6.84375 14.2148ZM16.2188 17.1328L17.0625 14.2148C17.2969 13.4414 16.9219 12.7734 16.1367 12.5625C15.375 12.3281 14.707 12.7031 14.4727 13.4883L13.6172 16.3945C13.3945 17.1797 13.7578 17.8359 14.543 18.0469C15.3164 18.2812 15.9961 17.9062 16.2188 17.1328Z" fill="#000000"/>
 </g>
</svg>
