<?xml version="1.0" encoding="UTF-8"?>

<!--
  - Copyright (c) 2023. Compose Cupertino project and open source contributors.
  -
  -  Licensed under the Apache License, Version 2.0 (the "License");
  -  you may not use this file except in compliance with the License.
  -  You may obtain a copy of the License at
  -
  -      http://www.apache.org/licenses/LICENSE-2.0
  -
  -  Unless required by applicable law or agreed to in writing, software
  -  distributed under the License is distributed on an "AS IS" BASIS,
  -  WITHOUT WARRANTIES OR CONDITIONS OF ANY KIND, either express or implied.
  -  See the License for the specific language governing permissions and
  -  limitations under the License.
  -
  -->

<svg version="1.1" xmlns="http://www.w3.org/2000/svg" xmlns:xlink="http://www.w3.org/1999/xlink" width="23.8594" height="24.8555">
  <path d="M0 12.832C0 16.3594 1.01953 20.25 2.74219 23.2734C3.03516 23.7773 3.58594 23.918 4.11328 23.625C4.60547 23.3555 4.74609 22.8047 4.44141 22.2539C2.87109 19.3945 1.99219 15.9844 1.99219 12.832C1.99219 6.32812 5.96484 1.99219 11.9297 1.99219C17.8828 1.99219 21.8672 6.32812 21.8672 12.832C21.8672 15.9844 20.9766 19.3945 19.4062 22.2539C19.1016 22.8047 19.2422 23.3555 19.7344 23.625C20.2617 23.918 20.8242 23.7773 21.1055 23.2734C22.8281 20.25 23.8594 16.3594 23.8594 12.832C23.8594 5.12109 19.1016 0 11.9297 0C4.74609 0 0 5.12109 0 12.832ZM3.66797 22.9805C4.05469 24.3281 5.20312 24.9492 6.5625 24.5625C7.91016 24.1758 8.54297 23.0039 8.14453 21.6562L6.46875 15.9375C6.08203 14.6016 4.93359 13.9688 3.57422 14.3555C2.22656 14.7539 1.59375 15.9141 1.99219 17.2734ZM20.1797 22.9805L21.8555 17.2734C22.2539 15.9023 21.6328 14.7539 20.2734 14.3555C18.9141 13.9688 17.7773 14.6016 17.3789 15.9375L15.7031 21.6562C15.3047 23.0156 15.9375 24.1758 17.2852 24.5625C18.6562 24.9492 19.793 24.3281 20.1797 22.9805Z" fill="#000000"/>
</svg>
