<?xml version="1.0" encoding="UTF-8"?>

<!--
  - Copyright (c) 2023. Compose Cupertino project and open source contributors.
  -
  -  Licensed under the Apache License, Version 2.0 (the "License");
  -  you may not use this file except in compliance with the License.
  -  You may obtain a copy of the License at
  -
  -      http://www.apache.org/licenses/LICENSE-2.0
  -
  -  Unless required by applicable law or agreed to in writing, software
  -  distributed under the License is distributed on an "AS IS" BASIS,
  -  WITHOUT WARRANTIES OR CONDITIONS OF ANY KIND, either express or implied.
  -  See the License for the specific language governing permissions and
  -  limitations under the License.
  -
  -->

<svg version="1.1" xmlns="http://www.w3.org/2000/svg" xmlns:xlink="http://www.w3.org/1999/xlink" width="23.2734" height="22.2305">
  <path d="M0 7.79297C0 12.7852 4.18359 17.6953 10.793 21.9141C11.0391 22.0664 11.3906 22.2305 11.6367 22.2305C11.8828 22.2305 12.2344 22.0664 12.4922 21.9141C19.0898 17.6953 23.2734 12.7852 23.2734 7.79297C23.2734 3.64453 20.4258 0.714844 16.6289 0.714844C14.4609 0.714844 12.7031 1.74609 11.6367 3.32812C10.5938 1.75781 8.8125 0.714844 6.64453 0.714844C2.84766 0.714844 0 3.64453 0 7.79297ZM1.88672 7.79297C1.88672 4.67578 3.90234 2.60156 6.62109 2.60156C8.82422 2.60156 10.0898 3.97266 10.8398 5.14453C11.1562 5.61328 11.3555 5.74219 11.6367 5.74219C11.918 5.74219 12.0938 5.60156 12.4336 5.14453C13.2422 3.99609 14.4609 2.60156 16.6523 2.60156C19.3711 2.60156 21.3867 4.67578 21.3867 7.79297C21.3867 12.1523 16.7812 16.8516 11.8828 20.1094C11.7656 20.1914 11.6836 20.25 11.6367 20.25C11.5898 20.25 11.5078 20.1914 11.4023 20.1094C6.49219 16.8516 1.88672 12.1523 1.88672 7.79297Z" fill="#000000"/>
</svg>
