<?xml version="1.0" encoding="UTF-8"?>

<!--
  - Copyright (c) 2023. Compose Cupertino project and open source contributors.
  -
  -  Licensed under the Apache License, Version 2.0 (the "License");
  -  you may not use this file except in compliance with the License.
  -  You may obtain a copy of the License at
  -
  -      http://www.apache.org/licenses/LICENSE-2.0
  -
  -  Unless required by applicable law or agreed to in writing, software
  -  distributed under the License is distributed on an "AS IS" BASIS,
  -  WITHOUT WARRANTIES OR CONDITIONS OF ANY KIND, either express or implied.
  -  See the License for the specific language governing permissions and
  -  limitations under the License.
  -
  -->

<svg version="1.1" xmlns="http://www.w3.org/2000/svg" xmlns:xlink="http://www.w3.org/1999/xlink" width="21.5742" height="21.5977">
 <g>
  <path d="M3.67969 21.5977L17.8945 21.5977C20.3555 21.5977 21.5742 20.3789 21.5742 17.9648L21.5742 3.65625C21.5742 1.24219 20.3555 0.0234375 17.8945 0.0234375L3.67969 0.0234375C1.23047 0.0234375 0 1.23047 0 3.65625L0 17.9648C0 20.3906 1.23047 21.5977 3.67969 21.5977ZM3.70312 19.7109C2.53125 19.7109 1.88672 19.0898 1.88672 17.8711L1.88672 3.75C1.88672 2.53125 2.53125 1.91016 3.70312 1.91016L17.8711 1.91016C19.0312 1.91016 19.6875 2.53125 19.6875 3.75L19.6875 17.8711C19.6875 19.0898 19.0312 19.7109 17.8711 19.7109Z" fill="#000000"/>
  <path d="M5.89453 3.87891C4.93359 3.87891 4.21875 4.62891 4.21875 5.66016C4.21875 7.18359 5.85938 8.51953 7.01953 9.32812C7.13672 9.41016 7.25391 9.46875 7.32422 9.46875C7.40625 9.46875 7.5 9.39844 7.60547 9.32812C8.78906 8.60156 10.3945 7.18359 10.3945 5.66016C10.3945 4.62891 9.67969 3.87891 8.69531 3.87891C8.09766 3.87891 7.59375 4.24219 7.3125 4.78125C7.01953 4.24219 6.53906 3.87891 5.89453 3.87891ZM4.95703 13.1367L16.5 13.1367C16.9102 13.1367 17.2266 12.8203 17.2266 12.4102C17.2266 12.0117 16.9102 11.6953 16.5 11.6953L4.95703 11.6953C4.53516 11.6953 4.21875 12.0117 4.21875 12.4102C4.21875 12.8203 4.53516 13.1367 4.95703 13.1367ZM4.95703 17.1445L13.418 17.1445C13.8281 17.1445 14.1445 16.8281 14.1445 16.4297C14.1445 16.0195 13.8281 15.7031 13.418 15.7031L4.95703 15.7031C4.53516 15.7031 4.21875 16.0195 4.21875 16.4297C4.21875 16.8281 4.53516 17.1445 4.95703 17.1445Z" fill="#000000"/>
 </g>
</svg>
