<?xml version="1.0" encoding="UTF-8"?>

<!--
  - Copyright (c) 2023. Compose Cupertino project and open source contributors.
  -
  -  Licensed under the Apache License, Version 2.0 (the "License");
  -  you may not use this file except in compliance with the License.
  -  You may obtain a copy of the License at
  -
  -      http://www.apache.org/licenses/LICENSE-2.0
  -
  -  Unless required by applicable law or agreed to in writing, software
  -  distributed under the License is distributed on an "AS IS" BASIS,
  -  WITHOUT WARRANTIES OR CONDITIONS OF ANY KIND, either express or implied.
  -  See the License for the specific language governing permissions and
  -  limitations under the License.
  -
  -->

<svg version="1.1" xmlns="http://www.w3.org/2000/svg" xmlns:xlink="http://www.w3.org/1999/xlink" width="17.9648" height="24.2695">
  <path d="M0 3.32812L0 20.9297C0 23.1445 1.10156 24.2578 3.29297 24.2578L14.6836 24.2578C16.875 24.2578 17.9648 23.1445 17.9648 20.9297L17.9648 3.32812C17.9648 1.11328 16.875 0 14.6836 0L3.29297 0C1.10156 0 0 1.11328 0 3.32812ZM1.88672 3.35156C1.88672 2.39062 2.39062 1.88672 3.36328 1.88672L14.6133 1.88672C15.5859 1.88672 16.0781 2.39062 16.0781 3.35156L16.0781 20.9062C16.0781 21.8555 15.5742 22.3711 14.6133 22.3711L3.36328 22.3711C2.39062 22.3711 1.88672 21.8555 1.88672 20.9062ZM8.98828 20.4844C11.6367 20.4844 13.7695 18.3633 13.7695 15.7031C13.7695 13.043 11.6367 10.9336 8.98828 10.9219C6.33984 10.9102 4.20703 13.043 4.20703 15.7031C4.20703 18.3633 6.33984 20.4844 8.98828 20.4844ZM8.98828 17.7305C7.875 17.7305 6.96094 16.8281 6.96094 15.7031C6.96094 14.543 7.83984 13.6641 8.98828 13.6641C10.125 13.6641 11.0156 14.543 11.0156 15.7031C11.0156 16.8281 10.125 17.7305 8.98828 17.7305ZM8.98828 9.08203C10.4531 9.08203 11.6719 7.89844 11.6484 6.42188C11.6367 4.94531 10.4531 3.78516 8.98828 3.77344C7.51172 3.76172 6.32812 4.93359 6.32812 6.42188C6.32812 7.89844 7.51172 9.08203 8.98828 9.08203ZM8.98828 7.78125C8.22656 7.78125 7.62891 7.16016 7.62891 6.42188C7.62891 5.63672 8.22656 5.0625 8.98828 5.0625C9.72656 5.0625 10.3477 5.67188 10.3477 6.42188C10.3477 7.16016 9.73828 7.78125 8.98828 7.78125Z" fill="#000000"/>
</svg>
