<?xml version="1.0" encoding="UTF-8"?>

<!--
  - Copyright (c) 2023. Compose Cupertino project and open source contributors.
  -
  -  Licensed under the Apache License, Version 2.0 (the "License");
  -  you may not use this file except in compliance with the License.
  -  You may obtain a copy of the License at
  -
  -      http://www.apache.org/licenses/LICENSE-2.0
  -
  -  Unless required by applicable law or agreed to in writing, software
  -  distributed under the License is distributed on an "AS IS" BASIS,
  -  WITHOUT WARRANTIES OR CONDITIONS OF ANY KIND, either express or implied.
  -  See the License for the specific language governing permissions and
  -  limitations under the License.
  -
  -->

<svg version="1.1" xmlns="http://www.w3.org/2000/svg" xmlns:xlink="http://www.w3.org/1999/xlink" width="24.2812" height="28.0317">
  <path d="M5.74219 19.9631L9.63281 18.3576C9.92578 18.2404 10.0664 18.135 10.2422 17.9592L21.457 6.82638C22.5586 5.73654 22.5469 4.45919 21.4336 3.33419L18.9727 0.84982C17.8477-0.263462 16.5703-0.286899 15.4688 0.802945L4.24219 11.9358C4.06641 12.0998 3.96094 12.2287 3.84375 12.5217L2.20312 16.4123C1.95703 16.9983 2.01562 17.5842 2.46094 18.0295L4.125 19.7053C4.55859 20.1389 5.14453 20.2209 5.74219 19.9631ZM5.56641 18.1467C5.33203 18.2287 5.15625 18.2287 4.94531 18.0178L4.14844 17.2209C3.9375 17.01 3.9375 16.8225 4.03125 16.6115L5.48438 13.2014L16.6523 2.11544C16.9922 1.79904 17.3906 1.7756 17.707 2.09201L20.1797 4.5881C20.4961 4.91623 20.4727 5.31466 20.1445 5.64279L8.97656 16.7287ZM1.17188 20.549L2.58984 20.549C2.91797 20.549 3.05859 20.4904 3.31641 20.2795L4.41797 19.4358L2.73047 17.7131L0.832031 19.717C0.480469 20.0803 0.65625 20.549 1.17188 20.549ZM4.41797 13.2014L9.21094 18.0178L10.3125 16.9279L5.51953 12.0998ZM14.1445 3.55685L18.9375 8.37326L20.0391 7.29513L15.2461 2.46701ZM0.9375 24.7326L23.332 24.7326C23.8477 24.7326 24.2812 24.299 24.2812 23.7834C24.2812 23.2678 23.8477 22.8459 23.332 22.8459L0.9375 22.8459C0.421875 22.8459 0 23.2678 0 23.7834C0 24.299 0.421875 24.7326 0.9375 24.7326Z" fill="#000000"/>
</svg>
