<?xml version="1.0" encoding="UTF-8"?>

<!--
  - Copyright (c) 2023. Compose Cupertino project and open source contributors.
  -
  -  Licensed under the Apache License, Version 2.0 (the "License");
  -  you may not use this file except in compliance with the License.
  -  You may obtain a copy of the License at
  -
  -      http://www.apache.org/licenses/LICENSE-2.0
  -
  -  Unless required by applicable law or agreed to in writing, software
  -  distributed under the License is distributed on an "AS IS" BASIS,
  -  WITHOUT WARRANTIES OR CONDITIONS OF ANY KIND, either express or implied.
  -  See the License for the specific language governing permissions and
  -  limitations under the License.
  -
  -->

<svg version="1.1" xmlns="http://www.w3.org/2000/svg" xmlns:xlink="http://www.w3.org/1999/xlink" width="27.9727" height="26.5957">
  <path d="M10.6055 23.4053L17.3672 23.4053L17.3672 14.874C17.3672 14.335 17.0156 13.9834 16.4766 13.9834L11.5078 13.9834C10.957 13.9834 10.6055 14.335 10.6055 14.874ZM6.02344 24.6123L21.8789 24.6123C23.543 24.6123 24.5156 23.6631 24.5156 22.0225L24.5156 9.07324L22.6289 7.78418L22.6289 21.542C22.6289 22.3037 22.2188 22.7256 21.4805 22.7256L6.42188 22.7256C5.67188 22.7256 5.26172 22.3037 5.26172 21.542L5.26172 7.7959L3.375 9.07324L3.375 22.0225C3.375 23.6631 4.34766 24.6123 6.02344 24.6123ZM0 11.5693C0 12.0498 0.375 12.5068 1.00781 12.5068C1.33594 12.5068 1.60547 12.3311 1.85156 12.1318L13.582 2.28809C13.8398 2.05371 14.1562 2.05371 14.4141 2.28809L26.1445 12.1318C26.3789 12.3311 26.6484 12.5068 26.9766 12.5068C27.5273 12.5068 27.9727 12.167 27.9727 11.6045C27.9727 11.2529 27.8555 11.0186 27.6094 10.8076L15.4102 0.553711C14.543-0.18457 13.4648-0.18457 12.5859 0.553711L0.375 10.8076C0.117188 11.0186 0 11.2998 0 11.5693ZM21.5742 6.28418L24.5156 8.76855L24.5156 3.35449C24.5156 2.83887 24.1875 2.51074 23.6719 2.51074L22.418 2.51074C21.9141 2.51074 21.5742 2.83887 21.5742 3.35449Z" fill="#000000"/>
</svg>
