<?xml version="1.0" encoding="UTF-8"?>

<!--
  - Copyright (c) 2023. Compose Cupertino project and open source contributors.
  -
  -  Licensed under the Apache License, Version 2.0 (the "License");
  -  you may not use this file except in compliance with the License.
  -  You may obtain a copy of the License at
  -
  -      http://www.apache.org/licenses/LICENSE-2.0
  -
  -  Unless required by applicable law or agreed to in writing, software
  -  distributed under the License is distributed on an "AS IS" BASIS,
  -  WITHOUT WARRANTIES OR CONDITIONS OF ANY KIND, either express or implied.
  -  See the License for the specific language governing permissions and
  -  limitations under the License.
  -
  -->

<svg version="1.1" xmlns="http://www.w3.org/2000/svg" xmlns:xlink="http://www.w3.org/1999/xlink" width="16.3477" height="21.6211">
  <path d="M8.07422 0C5.67188 0 3.48047 0.9375 2.35547 2.95312C2.07422 3.375 1.91016 3.78516 1.89844 4.27734C1.89844 4.83984 2.25 5.26172 2.89453 5.26172C3.31641 5.26172 3.65625 5.08594 3.90234 4.51172C4.58203 2.83594 6.25781 1.96875 8.14453 1.96875C10.5117 1.96875 12.4922 3.15234 12.4922 5.34375C12.4922 6.32812 11.9648 7.44141 10.793 7.94531L13.2773 7.94531C14.168 7.24219 14.6484 6.23438 14.6484 5.20312C14.6484 1.875 11.6484 0 8.07422 0ZM0.75 9.21094L15.5859 9.21094C16.0312 9.21094 16.3477 8.87109 16.3477 8.44922C16.3477 8.00391 16.0312 7.6875 15.5859 7.6875L0.75 7.6875C0.328125 7.6875 0 8.00391 0 8.44922C0 8.87109 0.328125 9.21094 0.75 9.21094ZM0.75 13.3008L15.5859 13.3008C16.0312 13.3008 16.3477 12.9609 16.3477 12.5391C16.3477 12.0938 16.0312 11.7773 15.5859 11.7773L0.75 11.7773C0.328125 11.7773 0 12.0938 0 12.5391C0 12.9609 0.328125 13.3008 0.75 13.3008ZM8.19141 21.6094C11.2617 21.6094 13.5 20.3203 14.543 18.2812C14.8125 17.8594 15 17.4609 15 16.9453C15 16.3711 14.5898 15.9727 14.0156 15.9727C13.4297 15.9727 13.1367 16.2773 12.9258 16.7344C12.1758 18.668 10.5469 19.6406 8.13281 19.6406C5.29688 19.6406 3.49219 18.082 3.49219 16.2305C3.49219 14.9297 4.18359 13.6992 5.91797 13.0078L3.26953 13.0078C2.05078 13.7344 1.32422 14.9648 1.32422 16.3242C1.32422 19.2539 3.98438 21.6094 8.19141 21.6094Z" fill="#000000"/>
</svg>
