<?xml version="1.0" encoding="UTF-8"?>

<!--
  - Copyright (c) 2023. Compose Cupertino project and open source contributors.
  -
  -  Licensed under the Apache License, Version 2.0 (the "License");
  -  you may not use this file except in compliance with the License.
  -  You may obtain a copy of the License at
  -
  -      http://www.apache.org/licenses/LICENSE-2.0
  -
  -  Unless required by applicable law or agreed to in writing, software
  -  distributed under the License is distributed on an "AS IS" BASIS,
  -  WITHOUT WARRANTIES OR CONDITIONS OF ANY KIND, either express or implied.
  -  See the License for the specific language governing permissions and
  -  limitations under the License.
  -
  -->

<svg version="1.1" xmlns="http://www.w3.org/2000/svg" xmlns:xlink="http://www.w3.org/1999/xlink" width="29.4609" height="26.168">
 <g>
  <path d="M17.8477 18.2812L17.8477 20.168L23.707 20.168C27.3047 20.168 29.4609 18 29.4609 15.1641C29.4609 12.7969 28.043 10.8516 25.7578 9.92578C25.7812 4.69922 22.0195 0.925781 17.2266 0.925781C14.0508 0.925781 11.7891 2.625 10.3828 4.67578C7.72266 3.96094 4.35938 6.02344 4.30078 9.31641C1.65234 9.72656 0 11.8945 0 14.6602C0 17.707 2.28516 20.168 6.12891 20.168L11.7188 20.168L11.7188 18.2812L6.11719 18.2812C3.33984 18.2812 1.88672 16.6758 1.88672 14.6602C1.88672 12.4219 3.30469 10.7578 5.78906 10.7578C5.95312 10.7578 6.01172 10.6641 6.01172 10.5117C6.01172 6.91406 8.60156 5.91797 11.0156 6.62109C11.1562 6.66797 11.2383 6.64453 11.3086 6.51562C12.4453 4.48828 14.1914 2.8125 17.2266 2.8125C21.0703 2.8125 23.7305 5.85938 23.9297 9.35156C23.9648 9.87891 23.9297 10.5117 23.8828 11.0625C23.8711 11.2148 23.9297 11.3086 24.0703 11.332C26.2031 11.8008 27.5742 13.1367 27.5742 15.1641C27.5742 16.9688 26.2617 18.2812 23.6953 18.2812Z" fill="#000000"/>
  <path d="M14.7891 26.168C15.293 26.168 15.7148 25.7578 15.7148 25.2656L15.7148 14.2734L15.6445 12.1055L16.4297 12.9375L18.2109 14.707C18.3867 14.8828 18.6211 14.9883 18.8438 14.9883C19.3242 14.9883 19.6992 14.6484 19.6992 14.168C19.6992 13.9219 19.6055 13.7109 19.418 13.5469L15.457 9.84375C15.2109 9.62109 15.0234 9.53906 14.7891 9.53906C14.543 9.53906 14.3555 9.62109 14.1094 9.84375L10.1484 13.5469C9.96094 13.7109 9.86719 13.9219 9.86719 14.168C9.86719 14.6484 10.2188 14.9883 10.7109 14.9883C10.9336 14.9883 11.1797 14.8828 11.3555 14.707L13.1367 12.9375L13.9219 12.1055L13.8516 14.2734L13.8516 25.2656C13.8516 25.7578 14.2852 26.168 14.7891 26.168Z" fill="#000000"/>
 </g>
</svg>
