<?xml version="1.0" encoding="UTF-8"?>

<!--
  - Copyright (c) 2023. Compose Cupertino project and open source contributors.
  -
  -  Licensed under the Apache License, Version 2.0 (the "License");
  -  you may not use this file except in compliance with the License.
  -  You may obtain a copy of the License at
  -
  -      http://www.apache.org/licenses/LICENSE-2.0
  -
  -  Unless required by applicable law or agreed to in writing, software
  -  distributed under the License is distributed on an "AS IS" BASIS,
  -  WITHOUT WARRANTIES OR CONDITIONS OF ANY KIND, either express or implied.
  -  See the License for the specific language governing permissions and
  -  limitations under the License.
  -
  -->

<svg version="1.1" xmlns="http://www.w3.org/2000/svg" xmlns:xlink="http://www.w3.org/1999/xlink" width="29.4609" height="28.0898">
 <g>
  <path d="M17.8477 19.2422L17.8477 21.1289L23.707 21.1289C27.3047 21.1289 29.4609 18.9609 29.4609 16.125C29.4609 13.7578 28.043 11.8125 25.7578 10.8867C25.7812 5.66016 22.0195 1.88672 17.2266 1.88672C14.0508 1.88672 11.7891 3.58594 10.3828 5.63672C7.72266 4.92188 4.35938 6.98438 4.30078 10.2773C1.65234 10.6875 0 12.8555 0 15.6211C0 18.668 2.28516 21.1289 6.12891 21.1289L11.7188 21.1289L11.7188 19.2422L6.11719 19.2422C3.33984 19.2422 1.88672 17.6367 1.88672 15.6211C1.88672 13.3828 3.30469 11.7188 5.78906 11.7188C5.95312 11.7188 6.01172 11.625 6.01172 11.4727C6.01172 7.875 8.60156 6.87891 11.0156 7.58203C11.1562 7.62891 11.2383 7.60547 11.3086 7.47656C12.4453 5.44922 14.1914 3.77344 17.2266 3.77344C21.0703 3.77344 23.7305 6.82031 23.9297 10.3125C23.9648 10.8398 23.9297 11.4727 23.8828 12.0234C23.8711 12.1758 23.9297 12.2695 24.0703 12.293C26.2031 12.7617 27.5742 14.0977 27.5742 16.125C27.5742 17.9297 26.2617 19.2422 23.6953 19.2422Z" fill="#000000"/>
  <path d="M14.7891 28.0898C15.0234 28.0898 15.2109 27.9961 15.457 27.7734L19.418 24.0703C19.6055 23.9062 19.6992 23.707 19.6992 23.4492C19.6992 22.9805 19.3242 22.6289 18.8438 22.6289C18.6211 22.6289 18.3867 22.7344 18.2109 22.9102L16.4297 24.6914L15.6445 25.5117L15.7148 23.7656L15.7148 13.7109C15.7148 13.2188 15.293 12.7969 14.7891 12.7969C14.2852 12.7969 13.8516 13.2188 13.8516 13.7109L13.8516 23.7656L13.9219 25.5234L13.1367 24.6914L11.3555 22.9102C11.1797 22.7344 10.9336 22.6289 10.7109 22.6289C10.2188 22.6289 9.86719 22.9805 9.86719 23.4492C9.86719 23.707 9.96094 23.9062 10.1484 24.0703L14.1094 27.7734C14.3555 27.9961 14.543 28.0898 14.7891 28.0898Z" fill="#000000"/>
 </g>
</svg>
