<?xml version="1.0" encoding="UTF-8"?>

<!--
  - Copyright (c) 2023. Compose Cupertino project and open source contributors.
  -
  -  Licensed under the Apache License, Version 2.0 (the "License");
  -  you may not use this file except in compliance with the License.
  -  You may obtain a copy of the License at
  -
  -      http://www.apache.org/licenses/LICENSE-2.0
  -
  -  Unless required by applicable law or agreed to in writing, software
  -  distributed under the License is distributed on an "AS IS" BASIS,
  -  WITHOUT WARRANTIES OR CONDITIONS OF ANY KIND, either express or implied.
  -  See the License for the specific language governing permissions and
  -  limitations under the License.
  -
  -->

<svg version="1.1" xmlns="http://www.w3.org/2000/svg" xmlns:xlink="http://www.w3.org/1999/xlink" width="30.5508" height="13.9805">
  <path d="M0 6.98438C0 11.2266 2.66016 13.9688 6.5625 13.9688C8.68359 13.9688 10.4414 13.0664 12.375 11.2031L15.2812 8.41406L18.1758 11.2031C20.1211 13.0664 21.8789 13.9688 23.9883 13.9688C27.8906 13.9688 30.5508 11.2266 30.5508 6.98438C30.5508 2.74219 27.8906 0 23.9883 0C21.8789 0 20.1211 0.902344 18.1758 2.76562L15.2812 5.55469L12.375 2.76562C10.4414 0.902344 8.68359 0 6.5625 0C2.66016 0 0 2.74219 0 6.98438ZM2.12109 6.98438C2.12109 4.01953 3.9375 2.12109 6.5625 2.12109C8.0625 2.12109 9.375 2.84766 10.8867 4.26562L13.793 6.98438L10.875 9.70312C9.36328 11.1094 8.0625 11.8477 6.5625 11.8477C3.9375 11.8477 2.12109 9.94922 2.12109 6.98438ZM16.7578 6.98438L19.6641 4.26562C21.1758 2.84766 22.4883 2.12109 23.9883 2.12109C26.625 2.12109 28.4297 4.01953 28.4297 6.98438C28.4297 9.94922 26.625 11.8477 23.9883 11.8477C22.4883 11.8477 21.1875 11.1094 19.6758 9.70312Z" fill="#000000"/>
</svg>
