<?xml version="1.0" encoding="UTF-8"?>

<!--
  - Copyright (c) 2023. Compose Cupertino project and open source contributors.
  -
  -  Licensed under the Apache License, Version 2.0 (the "License");
  -  you may not use this file except in compliance with the License.
  -  You may obtain a copy of the License at
  -
  -      http://www.apache.org/licenses/LICENSE-2.0
  -
  -  Unless required by applicable law or agreed to in writing, software
  -  distributed under the License is distributed on an "AS IS" BASIS,
  -  WITHOUT WARRANTIES OR CONDITIONS OF ANY KIND, either express or implied.
  -  See the License for the specific language governing permissions and
  -  limitations under the License.
  -
  -->

<svg version="1.1" xmlns="http://www.w3.org/2000/svg" xmlns:xlink="http://www.w3.org/1999/xlink" width="9.48047" height="19.6055">
  <path d="M0 17.1914C0 17.7656 0.410156 18.1523 1.03125 18.1523L8.44922 18.1523C9.07031 18.1523 9.48047 17.7656 9.48047 17.1914C9.48047 16.6289 9.07031 16.2422 8.44922 16.2422L6.09375 16.2422L6.09375 7.30078C6.09375 6.66797 5.68359 6.24609 5.07422 6.24609L1.35938 6.24609C0.75 6.24609 0.328125 6.62109 0.328125 7.18359C0.328125 7.76953 0.75 8.15625 1.35938 8.15625L3.92578 8.15625L3.92578 16.2422L1.03125 16.2422C0.410156 16.2422 0 16.6289 0 17.1914ZM2.90625 1.69922C2.90625 2.63672 3.65625 3.38672 4.59375 3.38672C5.54297 3.38672 6.26953 2.63672 6.26953 1.69922C6.26953 0.75 5.54297 0 4.59375 0C3.65625 0 2.90625 0.75 2.90625 1.69922Z" fill="#000000"/>
</svg>
