<?xml version="1.0" encoding="UTF-8"?>

<!--
  - Copyright (c) 2023. Compose Cupertino project and open source contributors.
  -
  -  Licensed under the Apache License, Version 2.0 (the "License");
  -  you may not use this file except in compliance with the License.
  -  You may obtain a copy of the License at
  -
  -      http://www.apache.org/licenses/LICENSE-2.0
  -
  -  Unless required by applicable law or agreed to in writing, software
  -  distributed under the License is distributed on an "AS IS" BASIS,
  -  WITHOUT WARRANTIES OR CONDITIONS OF ANY KIND, either express or implied.
  -  See the License for the specific language governing permissions and
  -  limitations under the License.
  -
  -->

<svg version="1.1" xmlns="http://www.w3.org/2000/svg" xmlns:xlink="http://www.w3.org/1999/xlink" width="23.9062" height="23.918">
 <g>
  <path d="M11.9531 23.9062C18.4922 23.9062 23.9062 18.4805 23.9062 11.9531C23.9062 5.41406 18.4805 0 11.9414 0C5.41406 0 0 5.41406 0 11.9531C0 18.4805 5.42578 23.9062 11.9531 23.9062ZM11.9531 21.9141C6.42188 21.9141 2.00391 17.4844 2.00391 11.9531C2.00391 6.42188 6.41016 1.99219 11.9414 1.99219C17.4727 1.99219 21.9141 6.42188 21.9141 11.9531C21.9141 17.4844 17.4844 21.9141 11.9531 21.9141Z" fill="#000000"/>
  <path d="M9.90234 18.5156L14.6719 18.5156C15.1523 18.5156 15.5273 18.1641 15.5273 17.6836C15.5273 17.2266 15.1523 16.8633 14.6719 16.8633L13.2188 16.8633L13.2188 10.8984C13.2188 10.2656 12.9023 9.84375 12.3047 9.84375L10.1016 9.84375C9.62109 9.84375 9.24609 10.207 9.24609 10.6641C9.24609 11.1445 9.62109 11.4961 10.1016 11.4961L11.3555 11.4961L11.3555 16.8633L9.90234 16.8633C9.42188 16.8633 9.04688 17.2266 9.04688 17.6836C9.04688 18.1641 9.42188 18.5156 9.90234 18.5156ZM11.8477 7.89844C12.7031 7.89844 13.3711 7.21875 13.3711 6.36328C13.3711 5.50781 12.7031 4.82812 11.8477 4.82812C11.0039 4.82812 10.3242 5.50781 10.3242 6.36328C10.3242 7.21875 11.0039 7.89844 11.8477 7.89844Z" fill="#000000"/>
 </g>
</svg>
