<?xml version="1.0" encoding="UTF-8"?>

<!--
  - Copyright (c) 2023. Compose Cupertino project and open source contributors.
  -
  -  Licensed under the Apache License, Version 2.0 (the "License");
  -  you may not use this file except in compliance with the License.
  -  You may obtain a copy of the License at
  -
  -      http://www.apache.org/licenses/LICENSE-2.0
  -
  -  Unless required by applicable law or agreed to in writing, software
  -  distributed under the License is distributed on an "AS IS" BASIS,
  -  WITHOUT WARRANTIES OR CONDITIONS OF ANY KIND, either express or implied.
  -  See the License for the specific language governing permissions and
  -  limitations under the License.
  -
  -->

<svg version="1.1" xmlns="http://www.w3.org/2000/svg" xmlns:xlink="http://www.w3.org/1999/xlink" width="21.5742" height="21.5977">
 <g>
  <path d="M3.67969 21.5977L17.8945 21.5977C20.3555 21.5977 21.5742 20.3789 21.5742 17.9648L21.5742 3.65625C21.5742 1.24219 20.3555 0.0234375 17.8945 0.0234375L3.67969 0.0234375C1.23047 0.0234375 0 1.23047 0 3.65625L0 17.9648C0 20.3906 1.23047 21.5977 3.67969 21.5977ZM3.70312 19.7109C2.53125 19.7109 1.88672 19.0898 1.88672 17.8711L1.88672 3.75C1.88672 2.53125 2.53125 1.91016 3.70312 1.91016L17.8711 1.91016C19.0312 1.91016 19.6875 2.53125 19.6875 3.75L19.6875 17.8711C19.6875 19.0898 19.0312 19.7109 17.8711 19.7109Z" fill="#000000"/>
  <path d="M8.75391 17.3555L13.5234 17.3555C14.0039 17.3555 14.3789 17.0039 14.3789 16.5234C14.3789 16.0664 14.0039 15.7031 13.5234 15.7031L12.0703 15.7031L12.0703 9.73828C12.0703 9.10547 11.7539 8.68359 11.1562 8.68359L8.95312 8.68359C8.47266 8.68359 8.09766 9.04688 8.09766 9.50391C8.09766 9.98438 8.47266 10.3359 8.95312 10.3359L10.207 10.3359L10.207 15.7031L8.75391 15.7031C8.27344 15.7031 7.89844 16.0664 7.89844 16.5234C7.89844 17.0039 8.27344 17.3555 8.75391 17.3555ZM10.6992 6.73828C11.5547 6.73828 12.2227 6.05859 12.2227 5.20312C12.2227 4.34766 11.5547 3.66797 10.6992 3.66797C9.85547 3.66797 9.17578 4.34766 9.17578 5.20312C9.17578 6.05859 9.85547 6.73828 10.6992 6.73828Z" fill="#000000"/>
 </g>
</svg>
