<?xml version="1.0" encoding="UTF-8"?>

<!--
  - Copyright (c) 2023. Compose Cupertino project and open source contributors.
  -
  -  Licensed under the Apache License, Version 2.0 (the "License");
  -  you may not use this file except in compliance with the License.
  -  You may obtain a copy of the License at
  -
  -      http://www.apache.org/licenses/LICENSE-2.0
  -
  -  Unless required by applicable law or agreed to in writing, software
  -  distributed under the License is distributed on an "AS IS" BASIS,
  -  WITHOUT WARRANTIES OR CONDITIONS OF ANY KIND, either express or implied.
  -  See the License for the specific language governing permissions and
  -  limitations under the License.
  -
  -->

<svg version="1.1" xmlns="http://www.w3.org/2000/svg" xmlns:xlink="http://www.w3.org/1999/xlink" width="15.0586" height="24.832">
  <path d="M3.1875 24.8086L11.8711 24.8086C13.7812 24.8086 15.0586 23.5898 15.0586 21.7617L15.0586 3.04688C15.0586 1.21875 13.7812 0 11.8711 0L3.1875 0C1.27734 0 0 1.21875 0 3.04688L0 21.7617C0 23.5898 1.27734 24.8086 3.1875 24.8086ZM3.43359 22.9219C2.4375 22.9219 1.88672 22.3945 1.88672 21.457L1.88672 3.35156C1.88672 2.41406 2.4375 1.88672 3.43359 1.88672L4.93359 1.88672C5.12109 1.88672 5.21484 1.98047 5.21484 2.15625L5.21484 2.42578C5.21484 2.91797 5.54297 3.24609 6.02344 3.24609L9.04688 3.24609C9.53906 3.24609 9.85547 2.91797 9.85547 2.42578L9.85547 2.15625C9.85547 1.98047 9.94922 1.88672 10.1367 1.88672L11.6367 1.88672C12.6211 1.88672 13.1719 2.41406 13.1719 3.35156L13.1719 21.457C13.1719 22.3945 12.6211 22.9219 11.6367 22.9219ZM5.05078 22.0664L10.0312 22.0664C10.3477 22.0664 10.5703 21.8438 10.5703 21.5156C10.5703 21.1875 10.3477 20.9766 10.0312 20.9766L5.05078 20.9766C4.73438 20.9766 4.5 21.1875 4.5 21.5156C4.5 21.8438 4.73438 22.0664 5.05078 22.0664Z" fill="#000000"/>
</svg>
