<?xml version="1.0" encoding="UTF-8"?>

<!--
  - Copyright (c) 2023. Compose Cupertino project and open source contributors.
  -
  -  Licensed under the Apache License, Version 2.0 (the "License");
  -  you may not use this file except in compliance with the License.
  -  You may obtain a copy of the License at
  -
  -      http://www.apache.org/licenses/LICENSE-2.0
  -
  -  Unless required by applicable law or agreed to in writing, software
  -  distributed under the License is distributed on an "AS IS" BASIS,
  -  WITHOUT WARRANTIES OR CONDITIONS OF ANY KIND, either express or implied.
  -  See the License for the specific language governing permissions and
  -  limitations under the License.
  -
  -->

<svg version="1.1" xmlns="http://www.w3.org/2000/svg" xmlns:xlink="http://www.w3.org/1999/xlink" width="15.0586" height="24.832">
  <path d="M0 21.7734C0 23.6016 1.27734 24.8203 3.1875 24.8203L11.8711 24.8203C13.7812 24.8203 15.0586 23.6016 15.0586 21.7734L15.0586 3.04688C15.0586 1.21875 13.7812 0 11.8711 0L3.1875 0C1.27734 0 0 1.21875 0 3.04688ZM1.88672 20.8477L1.88672 3.97266L13.1719 3.97266L13.1719 20.8477ZM7.54688 23.6602C6.98438 23.6602 6.52734 23.2031 6.52734 22.6406C6.52734 22.0898 6.98438 21.6328 7.54688 21.6328C8.09766 21.6328 8.55469 22.0898 8.55469 22.6406C8.55469 23.2031 8.09766 23.6602 7.54688 23.6602ZM5.30859 2.05078C5.30859 1.78125 5.49609 1.60547 5.75391 1.60547L9.31641 1.60547C9.57422 1.60547 9.76172 1.78125 9.76172 2.05078C9.76172 2.32031 9.57422 2.48438 9.31641 2.48438L5.75391 2.48438C5.49609 2.48438 5.30859 2.32031 5.30859 2.05078Z" fill="#000000"/>
</svg>
