<?xml version="1.0" encoding="UTF-8"?>

<!--
  - Copyright (c) 2023. Compose Cupertino project and open source contributors.
  -
  -  Licensed under the Apache License, Version 2.0 (the "License");
  -  you may not use this file except in compliance with the License.
  -  You may obtain a copy of the License at
  -
  -      http://www.apache.org/licenses/LICENSE-2.0
  -
  -  Unless required by applicable law or agreed to in writing, software
  -  distributed under the License is distributed on an "AS IS" BASIS,
  -  WITHOUT WARRANTIES OR CONDITIONS OF ANY KIND, either express or implied.
  -  See the License for the specific language governing permissions and
  -  limitations under the License.
  -
  -->

<svg version="1.1" xmlns="http://www.w3.org/2000/svg" xmlns:xlink="http://www.w3.org/1999/xlink" width="37.4766" height="24.832">
 <g>
  <path d="M14.4023 24.8086L23.0859 24.8086C24.9961 24.8086 26.2734 23.5898 26.2734 21.7617L26.2734 3.04688C26.2734 1.21875 24.9961 0 23.0859 0L14.4023 0C12.4922 0 11.2148 1.21875 11.2148 3.04688L11.2148 21.7617C11.2148 23.5898 12.4922 24.8086 14.4023 24.8086ZM14.6484 22.9219C13.6523 22.9219 13.1016 22.3945 13.1016 21.457L13.1016 3.35156C13.1016 2.41406 13.6523 1.88672 14.6484 1.88672L16.1484 1.88672C16.3359 1.88672 16.4297 1.98047 16.4297 2.15625L16.4297 2.42578C16.4297 2.91797 16.7578 3.24609 17.2383 3.24609L20.2734 3.24609C20.7539 3.24609 21.0703 2.91797 21.0703 2.42578L21.0703 2.15625C21.0703 1.98047 21.1641 1.88672 21.3516 1.88672L22.8516 1.88672C23.8359 1.88672 24.3867 2.41406 24.3867 3.35156L24.3867 21.457C24.3867 22.3945 23.8359 22.9219 22.8516 22.9219ZM16.2656 22.0664L21.2461 22.0664C21.5625 22.0664 21.7852 21.8438 21.7852 21.5156C21.7852 21.1875 21.5625 20.9766 21.2461 20.9766L16.2656 20.9766C15.9492 20.9766 15.7148 21.1875 15.7148 21.5156C15.7148 21.8438 15.9492 22.0664 16.2656 22.0664Z" fill="#000000"/>
  <path d="M7.80469 17.0859C8.17969 16.6641 8.02734 16.1367 7.65234 15.6328C6.94922 14.7539 6.60938 13.6289 6.60938 12.4102C6.60938 11.1914 6.94922 10.0547 7.65234 9.1875C8.02734 8.68359 8.17969 8.15625 7.80469 7.73438C7.41797 7.28906 6.71484 7.28906 6.30469 7.81641C5.28516 9.08203 4.69922 10.6875 4.69922 12.4102C4.69922 14.1328 5.28516 15.7383 6.30469 17.0039C6.71484 17.5312 7.41797 17.5195 7.80469 17.0859ZM29.6719 17.0859C30.0586 17.5195 30.7617 17.5312 31.1719 17.0039C32.1914 15.7383 32.7891 14.1328 32.7891 12.4102C32.7891 10.6875 32.1914 9.08203 31.1719 7.81641C30.7617 7.28906 30.0586 7.28906 29.6719 7.73438C29.2969 8.15625 29.4609 8.68359 29.8242 9.1875C30.5273 10.0547 30.8789 11.1914 30.8789 12.4102C30.8789 13.6289 30.5273 14.7539 29.8242 15.6328C29.4609 16.1367 29.2969 16.6641 29.6719 17.0859Z" fill="#000000"/>
  <path d="M4.52344 20.4258C4.89844 20.0039 4.78125 19.4531 4.35938 18.9727C2.78906 17.2266 1.91016 14.9297 1.91016 12.4102C1.91016 9.89062 2.78906 7.59375 4.35938 5.84766C4.78125 5.36719 4.89844 4.81641 4.52344 4.39453C4.14844 3.94922 3.49219 3.96094 3.04688 4.45312C1.10156 6.5625 0 9.375 0 12.4102C0 15.4453 1.10156 18.2461 3.04688 20.3672C3.49219 20.8594 4.14844 20.8594 4.52344 20.4258ZM32.9531 20.4258C33.3281 20.8594 33.9844 20.8594 34.4414 20.3672C36.3867 18.2461 37.4766 15.4453 37.4766 12.4102C37.4766 9.375 36.3867 6.5625 34.4414 4.45312C33.9844 3.96094 33.3281 3.94922 32.9531 4.39453C32.5781 4.81641 32.6953 5.36719 33.1172 5.84766C34.6875 7.59375 35.5664 9.89062 35.5664 12.4102C35.5664 14.9297 34.6875 17.2266 33.1172 18.9727C32.6953 19.4531 32.5781 20.0039 32.9531 20.4258Z" fill="#000000"/>
 </g>
</svg>
