<?xml version="1.0" encoding="UTF-8"?>

<!--
  - Copyright (c) 2023. Compose Cupertino project and open source contributors.
  -
  -  Licensed under the Apache License, Version 2.0 (the "License");
  -  you may not use this file except in compliance with the License.
  -  You may obtain a copy of the License at
  -
  -      http://www.apache.org/licenses/LICENSE-2.0
  -
  -  Unless required by applicable law or agreed to in writing, software
  -  distributed under the License is distributed on an "AS IS" BASIS,
  -  WITHOUT WARRANTIES OR CONDITIONS OF ANY KIND, either express or implied.
  -  See the License for the specific language governing permissions and
  -  limitations under the License.
  -
  -->

<svg version="1.1" xmlns="http://www.w3.org/2000/svg" xmlns:xlink="http://www.w3.org/1999/xlink" width="29.4961" height="18.5273">
  <path d="M3.67969 18.5156L25.8164 18.5156C28.2539 18.5156 29.4961 17.2969 29.4961 14.8828L29.4961 3.62109C29.4961 1.21875 28.2539 0 25.8164 0L3.67969 0C1.21875 0 0 1.20703 0 3.62109L0 14.8828C0 17.2969 1.21875 18.5156 3.67969 18.5156ZM3.70312 16.6289C2.53125 16.6289 1.88672 15.9961 1.88672 14.7773L1.88672 3.72656C1.88672 2.50781 2.53125 1.88672 3.70312 1.88672L25.7812 1.88672C26.9414 1.88672 27.6094 2.50781 27.6094 3.72656L27.6094 14.7773C27.6094 15.9961 26.9414 16.6289 25.7812 16.6289ZM4.75781 6.52734L5.83594 6.52734C6.16406 6.52734 6.36328 6.32812 6.36328 6.01172L6.36328 4.93359C6.36328 4.60547 6.16406 4.40625 5.83594 4.40625L4.75781 4.40625C4.44141 4.40625 4.24219 4.60547 4.24219 4.93359L4.24219 6.01172C4.24219 6.32812 4.44141 6.52734 4.75781 6.52734ZM8.53125 6.52734L9.60938 6.52734C9.92578 6.52734 10.125 6.32812 10.125 6.01172L10.125 4.93359C10.125 4.60547 9.92578 4.40625 9.60938 4.40625L8.53125 4.40625C8.20312 4.40625 8.00391 4.60547 8.00391 4.93359L8.00391 6.01172C8.00391 6.32812 8.20312 6.52734 8.53125 6.52734ZM12.3047 6.52734L13.3711 6.52734C13.6992 6.52734 13.8984 6.32812 13.8984 6.01172L13.8984 4.93359C13.8984 4.60547 13.6992 4.40625 13.3711 4.40625L12.3047 4.40625C11.9766 4.40625 11.7773 4.60547 11.7773 4.93359L11.7773 6.01172C11.7773 6.32812 11.9766 6.52734 12.3047 6.52734ZM16.0664 6.52734L17.1445 6.52734C17.4727 6.52734 17.6719 6.32812 17.6719 6.01172L17.6719 4.93359C17.6719 4.60547 17.4727 4.40625 17.1445 4.40625L16.0664 4.40625C15.75 4.40625 15.5508 4.60547 15.5508 4.93359L15.5508 6.01172C15.5508 6.32812 15.75 6.52734 16.0664 6.52734ZM19.8398 6.52734L20.918 6.52734C21.2344 6.52734 21.4336 6.32812 21.4336 6.01172L21.4336 4.93359C21.4336 4.60547 21.2344 4.40625 20.918 4.40625L19.8398 4.40625C19.5117 4.40625 19.3125 4.60547 19.3125 4.93359L19.3125 6.01172C19.3125 6.32812 19.5117 6.52734 19.8398 6.52734ZM23.6133 6.52734L24.6797 6.52734C25.0078 6.52734 25.207 6.32812 25.207 6.01172L25.207 4.93359C25.207 4.60547 25.0078 4.40625 24.6797 4.40625L23.6133 4.40625C23.2852 4.40625 23.0859 4.60547 23.0859 4.93359L23.0859 6.01172C23.0859 6.32812 23.2852 6.52734 23.6133 6.52734ZM4.75781 10.3008L5.83594 10.3008C6.16406 10.3008 6.36328 10.1016 6.36328 9.77344L6.36328 8.70703C6.36328 8.37891 6.16406 8.17969 5.83594 8.17969L4.75781 8.17969C4.44141 8.17969 4.24219 8.37891 4.24219 8.70703L4.24219 9.77344C4.24219 10.1016 4.44141 10.3008 4.75781 10.3008ZM8.53125 10.3008L9.60938 10.3008C9.92578 10.3008 10.125 10.1016 10.125 9.77344L10.125 8.70703C10.125 8.37891 9.92578 8.17969 9.60938 8.17969L8.53125 8.17969C8.20312 8.17969 8.00391 8.37891 8.00391 8.70703L8.00391 9.77344C8.00391 10.1016 8.20312 10.3008 8.53125 10.3008ZM12.3047 10.3008L13.3711 10.3008C13.6992 10.3008 13.8984 10.1016 13.8984 9.77344L13.8984 8.70703C13.8984 8.37891 13.6992 8.17969 13.3711 8.17969L12.3047 8.17969C11.9766 8.17969 11.7773 8.37891 11.7773 8.70703L11.7773 9.77344C11.7773 10.1016 11.9766 10.3008 12.3047 10.3008ZM16.0664 10.3008L17.1445 10.3008C17.4727 10.3008 17.6719 10.1016 17.6719 9.77344L17.6719 8.70703C17.6719 8.37891 17.4727 8.17969 17.1445 8.17969L16.0664 8.17969C15.75 8.17969 15.5508 8.37891 15.5508 8.70703L15.5508 9.77344C15.5508 10.1016 15.75 10.3008 16.0664 10.3008ZM19.8398 10.3008L20.918 10.3008C21.2344 10.3008 21.4336 10.1016 21.4336 9.77344L21.4336 8.70703C21.4336 8.37891 21.2344 8.17969 20.918 8.17969L19.8398 8.17969C19.5117 8.17969 19.3125 8.37891 19.3125 8.70703L19.3125 9.77344C19.3125 10.1016 19.5117 10.3008 19.8398 10.3008ZM23.6133 10.3008L24.6797 10.3008C25.0078 10.3008 25.207 10.1016 25.207 9.77344L25.207 8.70703C25.207 8.37891 25.0078 8.17969 24.6797 8.17969L23.6133 8.17969C23.2852 8.17969 23.0859 8.37891 23.0859 8.70703L23.0859 9.77344C23.0859 10.1016 23.2852 10.3008 23.6133 10.3008ZM4.75781 14.0742L5.83594 14.0742C6.16406 14.0742 6.36328 13.875 6.36328 13.5469L6.36328 12.4688C6.36328 12.1523 6.16406 11.9531 5.83594 11.9531L4.75781 11.9531C4.44141 11.9531 4.24219 12.1523 4.24219 12.4688L4.24219 13.5469C4.24219 13.875 4.44141 14.0742 4.75781 14.0742ZM8.64844 14.0742L20.8008 14.0742C21.1992 14.0742 21.4336 13.8398 21.4336 13.4297L21.4336 12.5859C21.4336 12.1875 21.1992 11.9531 20.8008 11.9531L8.64844 11.9531C8.23828 11.9531 8.00391 12.1875 8.00391 12.5859L8.00391 13.4297C8.00391 13.8398 8.23828 14.0742 8.64844 14.0742ZM23.6133 14.0742L24.6797 14.0742C25.0078 14.0742 25.207 13.875 25.207 13.5469L25.207 12.4688C25.207 12.1523 25.0078 11.9531 24.6797 11.9531L23.6133 11.9531C23.2852 11.9531 23.0859 12.1523 23.0859 12.4688L23.0859 13.5469C23.0859 13.875 23.2852 14.0742 23.6133 14.0742Z" fill="#000000"/>
</svg>
