<?xml version="1.0" encoding="UTF-8"?>

<!--
  - Copyright (c) 2023. Compose Cupertino project and open source contributors.
  -
  -  Licensed under the Apache License, Version 2.0 (the "License");
  -  you may not use this file except in compliance with the License.
  -  You may obtain a copy of the License at
  -
  -      http://www.apache.org/licenses/LICENSE-2.0
  -
  -  Unless required by applicable law or agreed to in writing, software
  -  distributed under the License is distributed on an "AS IS" BASIS,
  -  WITHOUT WARRANTIES OR CONDITIONS OF ANY KIND, either express or implied.
  -  See the License for the specific language governing permissions and
  -  limitations under the License.
  -
  -->

<svg version="1.1" xmlns="http://www.w3.org/2000/svg" xmlns:xlink="http://www.w3.org/1999/xlink" width="32.6367" height="19.9805">
 <g>
  <path d="M3.89062 17.2734L5.77734 17.2734L5.77734 3.01172C5.77734 2.26172 6.15234 1.88672 6.90234 1.88672L29.7891 1.88672C29.707 0.644531 28.9453 0 27.6445 0L6.39844 0C4.85156 0 3.89062 0.84375 3.89062 2.48438ZM1.32422 19.0664L21.9141 19.0664C21.5859 18.5391 21.3984 17.918 21.375 17.1914C21.375 16.9219 21.3633 16.6641 21.3633 16.3945L1.32422 16.3945C0.597656 16.3945 0 16.9922 0 17.7305C0 18.4688 0.597656 19.0664 1.32422 19.0664Z" fill="#000000"/>
  <path d="M25.0078 19.2188L30.3516 19.2188C31.8047 19.2188 32.6367 18.4219 32.6367 17.0273L32.6367 5.35547C32.6367 3.96094 31.793 3.15234 30.3516 3.15234L25.0078 3.15234C23.5547 3.15234 22.7227 3.96094 22.7227 5.35547L22.7227 17.0273C22.7227 18.4219 23.5547 19.2188 25.0078 19.2188ZM25.0312 17.6836C24.5156 17.6836 24.2578 17.4023 24.2578 16.875L24.2578 5.50781C24.2578 4.96875 24.5156 4.6875 25.0312 4.6875L26.0977 4.6875C26.1328 4.6875 26.168 4.72266 26.168 4.75781L26.168 4.86328C26.168 5.27344 26.4375 5.54297 26.8477 5.54297L28.5117 5.54297C28.9102 5.54297 29.1914 5.27344 29.1914 4.86328L29.1914 4.75781C29.1914 4.72266 29.2148 4.6875 29.2617 4.6875L30.3164 4.6875C30.832 4.6875 31.1016 4.96875 31.1016 5.50781L31.1016 16.875C31.1016 17.4023 30.832 17.6836 30.3164 17.6836ZM26.0742 17.0859L29.2617 17.0859C29.4961 17.0859 29.6719 16.9219 29.6719 16.6758C29.6719 16.4531 29.4961 16.2773 29.2617 16.2773L26.0742 16.2773C25.8398 16.2773 25.6875 16.4531 25.6875 16.6758C25.6875 16.9336 25.8281 17.0859 26.0742 17.0859Z" fill="#000000"/>
 </g>
</svg>
