<?xml version="1.0" encoding="UTF-8"?>

<!--
  - Copyright (c) 2023. Compose Cupertino project and open source contributors.
  -
  -  Licensed under the Apache License, Version 2.0 (the "License");
  -  you may not use this file except in compliance with the License.
  -  You may obtain a copy of the License at
  -
  -      http://www.apache.org/licenses/LICENSE-2.0
  -
  -  Unless required by applicable law or agreed to in writing, software
  -  distributed under the License is distributed on an "AS IS" BASIS,
  -  WITHOUT WARRANTIES OR CONDITIONS OF ANY KIND, either express or implied.
  -  See the License for the specific language governing permissions and
  -  limitations under the License.
  -
  -->

<svg version="1.1" xmlns="http://www.w3.org/2000/svg" xmlns:xlink="http://www.w3.org/1999/xlink" width="24.832" height="22.2305">
  <path d="M0 5.28516C0 14.0273 5.23828 19.7695 13.3008 19.7695C18.9258 19.7695 22.9102 16.1367 22.9102 11.0039C22.9102 6.07031 18.8906 2.50781 13.3477 2.50781C11.4375 2.50781 9.50391 3.04688 7.35938 3.04688C5.55469 3.04688 3.99609 2.49609 2.70703 1.03125C2.02734 0.234375 0.679688 0.164062 0.351562 1.51172C0.0703125 2.64844 0 4.65234 0 5.28516ZM1.76953 5.28516C1.76953 4.51172 1.78125 3.64453 1.88672 3.01172C1.91016 2.85938 1.99219 2.84766 2.09766 2.94141C3.41016 4.13672 5.47266 4.81641 7.35938 4.81641C8.625 4.81641 9.77344 4.65234 10.8047 4.51172C11.7422 4.38281 12.5625 4.27734 13.3477 4.27734C17.918 4.27734 21.1406 7.07812 21.1406 11.0039C21.1406 15.1406 17.9414 18 13.3008 18C6.23438 18 1.76953 13.0547 1.76953 5.28516ZM6.85547 8.01562C7.59375 10.3008 9.80859 11.2148 12.5742 11.8945C16.5469 12.8438 18.3633 13.6172 19.957 15.6094C21.2578 17.2148 21.5742 19.1484 22.3008 21.4688C22.4766 22.0312 22.8633 22.2305 23.2734 22.2305C24.1406 22.2305 24.832 21.4219 24.832 20.4492C24.832 18.832 22.9922 16.0312 21.7617 14.3555C20.1797 12.2578 17.4727 11.0508 13.1719 10.3594C10.9453 9.98438 8.97656 9.39844 7.62891 7.64062C7.25391 7.13672 6.67969 7.48828 6.85547 8.01562Z" fill="#000000"/>
</svg>
