<?xml version="1.0" encoding="UTF-8"?>

<!--
  - Copyright (c) 2023. Compose Cupertino project and open source contributors.
  -
  -  Licensed under the Apache License, Version 2.0 (the "License");
  -  you may not use this file except in compliance with the License.
  -  You may obtain a copy of the License at
  -
  -      http://www.apache.org/licenses/LICENSE-2.0
  -
  -  Unless required by applicable law or agreed to in writing, software
  -  distributed under the License is distributed on an "AS IS" BASIS,
  -  WITHOUT WARRANTIES OR CONDITIONS OF ANY KIND, either express or implied.
  -  See the License for the specific language governing permissions and
  -  limitations under the License.
  -
  -->

<svg version="1.1" xmlns="http://www.w3.org/2000/svg" xmlns:xlink="http://www.w3.org/1999/xlink" width="28.6641" height="12.7148">
 <g>
  <path d="M4.76953 11.3672L5.89453 11.3672L5.89453 1.35938L4.76953 1.35938ZM22.7695 11.3672L23.8945 11.3672L23.8945 1.35938L22.7695 1.35938ZM14.332 6.90234C17.8594 6.90234 20.4727 4.69922 20.7305 1.35938L19.4766 1.35938C19.2773 4.05469 17.168 5.83594 14.332 5.83594C11.4844 5.83594 9.375 4.05469 9.17578 1.35938L7.92188 1.35938C8.19141 4.69922 10.8047 6.90234 14.332 6.90234Z" fill="#000000"/>
  <path d="M3.17578 12.7148L25.4883 12.7148C27.5859 12.7148 28.6641 11.6367 28.6641 9.5625L28.6641 3.16406C28.6641 1.08984 27.5742 0.0117188 25.4766 0.0117188L3.16406 0.0117188C1.06641 0.0117188 0 1.08984 0 3.16406L0 9.5625C0 11.6367 1.07812 12.7148 3.17578 12.7148ZM3.45703 10.8281C2.46094 10.8281 1.88672 10.2773 1.88672 9.22266L1.88672 3.50391C1.88672 2.44922 2.46094 1.89844 3.46875 1.89844L25.1953 1.89844C26.2031 1.89844 26.7656 2.44922 26.7656 3.50391L26.7656 9.22266C26.7656 10.2773 26.2031 10.8281 25.1836 10.8281ZM14.332 4.10156C15.9258 4.10156 17.0977 3.10547 17.2266 1.59375L11.4375 1.59375C11.5547 3.10547 12.7266 4.10156 14.332 4.10156Z" fill="#000000"/>
 </g>
</svg>
