<?xml version="1.0" encoding="UTF-8"?>

<!--
  - Copyright (c) 2023. Compose Cupertino project and open source contributors.
  -
  -  Licensed under the Apache License, Version 2.0 (the "License");
  -  you may not use this file except in compliance with the License.
  -  You may obtain a copy of the License at
  -
  -      http://www.apache.org/licenses/LICENSE-2.0
  -
  -  Unless required by applicable law or agreed to in writing, software
  -  distributed under the License is distributed on an "AS IS" BASIS,
  -  WITHOUT WARRANTIES OR CONDITIONS OF ANY KIND, either express or implied.
  -  See the License for the specific language governing permissions and
  -  limitations under the License.
  -
  -->

<svg version="1.1" xmlns="http://www.w3.org/2000/svg" xmlns:xlink="http://www.w3.org/1999/xlink" width="23.9062" height="23.918">
  <path d="M11.9531 18.2227C15.4102 18.2227 18.2227 15.4102 18.2227 11.9531C18.2227 8.49609 15.4102 5.68359 11.9531 5.68359C8.49609 5.68359 5.68359 8.49609 5.68359 11.9531C5.68359 15.4102 8.49609 18.2227 11.9531 18.2227ZM11.9531 16.2422C9.58594 16.2422 7.66406 14.3203 7.66406 11.9531C7.66406 9.58594 9.58594 7.66406 11.9531 7.66406C14.3203 7.66406 16.2422 9.58594 16.2422 11.9531C16.2422 14.3203 14.3203 16.2422 11.9531 16.2422ZM2.61328 18.8555L5.13281 21.375L9.78516 16.7227L7.26562 14.2031ZM2.49609 5.03906L7.26562 9.80859L9.78516 7.28906L5.01562 2.51953ZM21.4336 5.0625L18.9141 2.54297L14.168 7.28906L16.6875 9.80859ZM21.3281 18.832L16.6992 14.2031L14.168 16.7344L18.7969 21.3633ZM11.9531 23.9062C18.4922 23.9062 23.9062 18.4805 23.9062 11.9531C23.9062 5.41406 18.4805 0 11.9414 0C5.41406 0 0 5.41406 0 11.9531C0 18.4805 5.42578 23.9062 11.9531 23.9062ZM11.9531 21.9141C6.42188 21.9141 2.00391 17.4844 2.00391 11.9531C2.00391 6.42188 6.41016 1.99219 11.9414 1.99219C17.4727 1.99219 21.9141 6.42188 21.9141 11.9531C21.9141 17.4844 17.4844 21.9141 11.9531 21.9141Z" fill="#000000"/>
</svg>
