<?xml version="1.0" encoding="UTF-8"?>

<!--
  - Copyright (c) 2023. Compose Cupertino project and open source contributors.
  -
  -  Licensed under the Apache License, Version 2.0 (the "License");
  -  you may not use this file except in compliance with the License.
  -  You may obtain a copy of the License at
  -
  -      http://www.apache.org/licenses/LICENSE-2.0
  -
  -  Unless required by applicable law or agreed to in writing, software
  -  distributed under the License is distributed on an "AS IS" BASIS,
  -  WITHOUT WARRANTIES OR CONDITIONS OF ANY KIND, either express or implied.
  -  See the License for the specific language governing permissions and
  -  limitations under the License.
  -
  -->

<svg version="1.1" xmlns="http://www.w3.org/2000/svg" xmlns:xlink="http://www.w3.org/1999/xlink" width="29.4492" height="16.2539">
 <g>
  <path d="M1.03125 15.7734L4.78125 15.7734C5.35547 15.7734 5.83594 15.293 5.83594 14.7305C5.83594 14.1797 5.34375 13.6992 4.78125 13.6992L1.03125 13.6992C0.480469 13.6992 0 14.1797 0 14.7305C0 15.2812 0.480469 15.7734 1.03125 15.7734ZM8.32031 8.34375C8.71875 7.94531 8.70703 7.28906 8.30859 6.89062L5.68359 4.21875C5.28516 3.83203 4.60547 3.83203 4.21875 4.21875C3.82031 4.61719 3.82031 5.27344 4.21875 5.68359L6.85547 8.35547C7.24219 8.75391 7.92188 8.75391 8.32031 8.34375ZM14.7305 5.8125C15.2812 5.8125 15.7617 5.34375 15.7617 4.79297L15.7617 1.04297C15.7617 0.480469 15.2812 0 14.7305 0C14.168 0 13.6875 0.480469 13.6875 1.04297L13.6875 4.79297C13.6875 5.34375 14.168 5.8125 14.7305 5.8125ZM21.1406 8.34375C21.5273 8.75391 22.207 8.75391 22.5938 8.34375L25.2422 5.68359C25.6406 5.27344 25.6406 4.61719 25.2422 4.21875C24.8438 3.82031 24.1641 3.83203 23.7773 4.23047L21.1406 6.89062C20.7305 7.28906 20.7305 7.94531 21.1406 8.34375ZM24.668 15.7734L28.4297 15.7734C28.9805 15.7734 29.4492 15.2812 29.4492 14.7305C29.4492 14.1797 28.9805 13.6992 28.4297 13.6992L24.668 13.6992C24.1055 13.6992 23.625 14.1797 23.625 14.7305C23.625 15.293 24.0938 15.7734 24.668 15.7734Z" fill="#000000"/>
  <path d="M10.2656 15.7852L19.1953 15.7852C19.7695 15.7852 20.25 15.3047 20.25 14.7539C20.25 14.1914 19.7812 13.7109 19.1953 13.7109L10.2656 13.7109C9.67969 13.7109 9.19922 14.1914 9.19922 14.7539C9.19922 15.3047 9.69141 15.7852 10.2656 15.7852Z" fill="#000000"/>
 </g>
</svg>
