<?xml version="1.0" encoding="UTF-8"?>

<!--
  - Copyright (c) 2023. Compose Cupertino project and open source contributors.
  -
  -  Licensed under the Apache License, Version 2.0 (the "License");
  -  you may not use this file except in compliance with the License.
  -  You may obtain a copy of the License at
  -
  -      http://www.apache.org/licenses/LICENSE-2.0
  -
  -  Unless required by applicable law or agreed to in writing, software
  -  distributed under the License is distributed on an "AS IS" BASIS,
  -  WITHOUT WARRANTIES OR CONDITIONS OF ANY KIND, either express or implied.
  -  See the License for the specific language governing permissions and
  -  limitations under the License.
  -
  -->

<svg version="1.1" xmlns="http://www.w3.org/2000/svg" xmlns:xlink="http://www.w3.org/1999/xlink" width="23.9062" height="23.918">
 <g>
  <path d="M11.9531 23.9062C18.4922 23.9062 23.9062 18.4805 23.9062 11.9531C23.9062 5.41406 18.4805 0 11.9414 0C5.41406 0 0 5.41406 0 11.9531C0 18.4805 5.42578 23.9062 11.9531 23.9062ZM11.9531 21.9141C6.42188 21.9141 2.00391 17.4844 2.00391 11.9531C2.00391 6.42188 6.41016 1.99219 11.9414 1.99219C17.4727 1.99219 21.9141 6.42188 21.9141 11.9531C21.9141 17.4844 17.4844 21.9141 11.9531 21.9141Z" fill="#000000"/>
  <path d="M6.22266 17.4727C7.6875 18.9258 9.51562 18.8086 11.2148 17.0977L12.9727 15.3516C14.707 13.6289 14.8477 11.7891 13.3594 10.3125C12.9609 9.90234 12.5039 9.62109 12.1758 9.5625C11.8477 9.79688 11.4492 10.2305 11.2617 10.6406C11.8008 10.7227 12.2109 10.9102 12.4922 11.1797C13.4062 12.1055 13.2656 13.3242 12.0703 14.5078L10.3711 16.207C9.22266 17.3555 8.01562 17.4844 7.08984 16.582C6.17578 15.668 6.28125 14.4492 7.46484 13.3008L8.67188 12.0938C8.48438 11.6484 8.47266 10.9688 8.66016 10.3945L6.57422 12.457C4.875 14.168 4.73438 15.9961 6.22266 17.4727ZM17.2617 6.39844C15.7969 4.94531 13.9688 5.0625 12.2695 6.77344L10.5117 8.50781C8.77734 10.2422 8.63672 12.0703 10.125 13.5469C10.5234 13.9688 10.9805 14.2383 11.3086 14.3086C11.6367 14.0625 12.0352 13.6289 12.2227 13.2305C11.6836 13.1484 11.2734 12.9609 10.9922 12.6797C10.0781 11.7656 10.2188 10.5352 11.4141 9.36328L13.1133 7.66406C14.2617 6.51562 15.4688 6.38672 16.3945 7.28906C17.3086 8.20312 17.2031 9.42188 16.0195 10.5703L14.8125 11.7656C15 12.2227 15.0117 12.8906 14.8242 13.4766L16.9102 11.4023C18.6094 9.70312 18.75 7.875 17.2617 6.39844Z" fill="#000000"/>
 </g>
</svg>
