<?xml version="1.0" encoding="UTF-8"?>

<!--
  - Copyright (c) 2023. Compose Cupertino project and open source contributors.
  -
  -  Licensed under the Apache License, Version 2.0 (the "License");
  -  you may not use this file except in compliance with the License.
  -  You may obtain a copy of the License at
  -
  -      http://www.apache.org/licenses/LICENSE-2.0
  -
  -  Unless required by applicable law or agreed to in writing, software
  -  distributed under the License is distributed on an "AS IS" BASIS,
  -  WITHOUT WARRANTIES OR CONDITIONS OF ANY KIND, either express or implied.
  -  See the License for the specific language governing permissions and
  -  limitations under the License.
  -
  -->

<svg version="1.1" xmlns="http://www.w3.org/2000/svg" xmlns:xlink="http://www.w3.org/1999/xlink" width="24.8525" height="25.1045">
  <path d="M12.5728 7.62451L11.0142 9.20655C12.561 9.33545 13.5688 9.79248 14.3306 10.5542C16.3813 12.605 16.3696 15.5112 14.3423 17.5386L10.5103 21.3589C8.47119 23.398 5.58838 23.4097 3.5376 21.3706C1.48682 19.3081 1.49854 16.4253 3.5376 14.3862L5.83447 12.0894C5.50635 11.3511 5.42432 10.4722 5.55322 9.71045L2.10791 13.144C-0.692869 15.9565-0.716306 19.9409 2.11963 22.7769C4.96729 25.6245 8.95166 25.6011 11.7524 22.8003L15.7603 18.7808C18.5728 15.9683 18.5962 11.9839 15.7485 9.14795C15.0103 8.40967 14.0728 7.88233 12.5728 7.62451ZM12.2798 17.2808L13.8384 15.6987C12.2915 15.5815 11.2837 15.1128 10.522 14.3511C8.47119 12.3003 8.48291 9.39405 10.5103 7.3667L14.3306 3.54639C16.3813 1.50733 19.2642 1.49561 21.3149 3.54639C23.3657 5.59717 23.3423 8.4917 21.3149 10.519L19.0181 12.8159C19.3462 13.5659 19.4165 14.4331 19.2993 15.1948L22.7446 11.7612C25.5454 8.94873 25.5688 4.97608 22.7329 2.12842C19.8853-0.719236 15.9009-0.695799 13.0884 2.1167L9.09229 6.12451C6.27979 8.93701 6.25635 12.9214 9.10401 15.7573C9.84229 16.4956 10.7798 17.023 12.2798 17.2808Z" fill="#000000"/>
</svg>
