<?xml version="1.0" encoding="UTF-8"?>

<!--
  - Copyright (c) 2023. Compose Cupertino project and open source contributors.
  -
  -  Licensed under the Apache License, Version 2.0 (the "License");
  -  you may not use this file except in compliance with the License.
  -  You may obtain a copy of the License at
  -
  -      http://www.apache.org/licenses/LICENSE-2.0
  -
  -  Unless required by applicable law or agreed to in writing, software
  -  distributed under the License is distributed on an "AS IS" BASIS,
  -  WITHOUT WARRANTIES OR CONDITIONS OF ANY KIND, either express or implied.
  -  See the License for the specific language governing permissions and
  -  limitations under the License.
  -
  -->

<svg version="1.1" xmlns="http://www.w3.org/2000/svg" xmlns:xlink="http://www.w3.org/1999/xlink" width="19.7109" height="29.7539">
 <g>
  <path d="M4.91016 12.7617C5.46094 12.7617 5.90625 12.3164 5.90625 11.7656C5.90625 11.2148 5.46094 10.7695 4.91016 10.7695C4.37109 10.7695 3.91406 11.2266 3.91406 11.7656C3.91406 12.3047 4.37109 12.7617 4.91016 12.7617ZM8.03906 12.4922L15.0703 12.4922C15.4688 12.4922 15.7969 12.1641 15.7969 11.7656C15.7969 11.3672 15.4688 11.0273 15.0703 11.0273L8.03906 11.0273C7.64062 11.0273 7.30078 11.3672 7.30078 11.7656C7.30078 12.1641 7.64062 12.4922 8.03906 12.4922ZM3.63281 28.3945L16.0781 28.3945C18.5039 28.3945 19.7109 27.1758 19.7109 24.7148L19.7109 6.94922C19.7109 4.54688 18.5508 3.26953 16.207 3.26953L15.9258 3.26953C15.9375 3.36328 15.9375 3.46875 15.9375 3.5625L15.9375 4.61719C15.9375 4.80469 15.9258 4.99219 15.8906 5.15625L16.1719 5.15625C17.2734 5.15625 17.8242 5.87109 17.8242 6.97266L17.8242 24.6914C17.8242 25.8633 17.2031 26.5078 15.9844 26.5078L3.72656 26.5078C2.50781 26.5078 1.88672 25.8633 1.88672 24.6914L1.88672 6.97266C1.88672 5.87109 2.4375 5.15625 3.53906 5.15625L3.82031 5.15625C3.78516 4.99219 3.77344 4.80469 3.77344 4.61719L3.77344 3.5625C3.77344 3.46875 3.77344 3.36328 3.78516 3.26953L3.50391 3.26953C1.16016 3.26953 0 4.54688 0 6.94922L0 24.7148C0 27.1758 1.20703 28.3945 3.63281 28.3945ZM6.23438 5.95312L13.4766 5.95312C14.1562 5.95312 14.5664 5.51953 14.5664 4.79297L14.5664 3.5625C14.5664 2.83594 14.1562 2.40234 13.4766 2.40234L12.3984 2.40234C12.3164 1.07812 11.2148 0 9.85547 0C8.49609 0 7.39453 1.07812 7.3125 2.40234L6.23438 2.40234C5.55469 2.40234 5.14453 2.83594 5.14453 3.5625L5.14453 4.79297C5.14453 5.51953 5.55469 5.95312 6.23438 5.95312ZM9.85547 3.51562C9.29297 3.51562 8.83594 3.04688 8.83594 2.49609C8.83594 1.92188 9.29297 1.46484 9.85547 1.46484C10.418 1.46484 10.875 1.92188 10.875 2.49609C10.875 3.04688 10.418 3.51562 9.85547 3.51562Z" fill="#000000"/>
  <path d="M4.91016 21.3047C5.46094 21.3047 5.90625 20.8594 5.90625 20.3086C5.90625 19.7578 5.46094 19.3125 4.91016 19.3125C4.37109 19.3125 3.91406 19.7695 3.91406 20.3086C3.91406 20.8477 4.37109 21.3047 4.91016 21.3047ZM8.03906 21.0352L15.0703 21.0352C15.4688 21.0352 15.7969 20.707 15.7969 20.3086C15.7969 19.9102 15.4805 19.582 15.0703 19.582L8.03906 19.582C7.62891 19.582 7.30078 19.9102 7.30078 20.3086C7.30078 20.707 7.64062 21.0352 8.03906 21.0352Z" fill="#000000"/>
  <path d="M4.91016 16.9102C5.46094 16.9102 5.90625 16.4648 5.90625 15.9141C5.90625 15.3633 5.46094 14.9297 4.91016 14.9297C4.35938 14.9297 3.91406 15.375 3.91406 15.9141C3.91406 16.4648 4.35938 16.9102 4.91016 16.9102ZM8.03906 16.6523L15.0703 16.6523C15.4805 16.6523 15.7969 16.3242 15.7969 15.9141C15.7969 15.5156 15.4805 15.1992 15.0703 15.1992L8.03906 15.1992C7.62891 15.1992 7.30078 15.5156 7.30078 15.9141C7.30078 16.3242 7.62891 16.6523 8.03906 16.6523Z" fill="#000000"/>
 </g>
</svg>
