<?xml version="1.0" encoding="UTF-8"?>

<!--
  - Copyright (c) 2023. Compose Cupertino project and open source contributors.
  -
  -  Licensed under the Apache License, Version 2.0 (the "License");
  -  you may not use this file except in compliance with the License.
  -  You may obtain a copy of the License at
  -
  -      http://www.apache.org/licenses/LICENSE-2.0
  -
  -  Unless required by applicable law or agreed to in writing, software
  -  distributed under the License is distributed on an "AS IS" BASIS,
  -  WITHOUT WARRANTIES OR CONDITIONS OF ANY KIND, either express or implied.
  -  See the License for the specific language governing permissions and
  -  limitations under the License.
  -
  -->

<svg version="1.1" xmlns="http://www.w3.org/2000/svg" xmlns:xlink="http://www.w3.org/1999/xlink" width="23.6133" height="20.1914">
 <g>
  <path d="M7.20703 3.96094L22.6641 3.96094C23.1914 3.96094 23.6133 3.55078 23.6133 3.02344C23.6133 2.48438 23.1914 2.07422 22.6641 2.07422L7.20703 2.07422C6.67969 2.07422 6.25781 2.48438 6.25781 3.02344C6.25781 3.55078 6.67969 3.96094 7.20703 3.96094ZM7.20703 11.0508L22.6641 11.0508C23.1914 11.0508 23.6133 10.6289 23.6133 10.1016C23.6133 9.57422 23.1914 9.16406 22.6641 9.16406L7.20703 9.16406C6.67969 9.16406 6.25781 9.57422 6.25781 10.1016C6.25781 10.6289 6.67969 11.0508 7.20703 11.0508ZM7.20703 18.1289L22.6641 18.1289C23.1914 18.1289 23.6133 17.7188 23.6133 17.1914C23.6133 16.6523 23.1914 16.2422 22.6641 16.2422L7.20703 16.2422C6.67969 16.2422 6.25781 16.6523 6.25781 17.1914C6.25781 17.7188 6.67969 18.1289 7.20703 18.1289Z" fill="#000000"/>
  <path d="M2.55469 5.37891C3 5.37891 3.31641 5.12109 3.31641 4.59375L3.31641 0.808594C3.31641 0.316406 2.96484 0 2.44922 0C2.03906 0 1.78125 0.140625 1.48828 0.339844L0.65625 0.914062C0.421875 1.07812 0.292969 1.23047 0.292969 1.47656C0.292969 1.78125 0.527344 1.99219 0.796875 1.99219C0.949219 1.99219 1.01953 1.96875 1.21875 1.82812L1.75781 1.46484L1.78125 1.46484L1.78125 4.59375C1.78125 5.12109 2.08594 5.37891 2.55469 5.37891ZM0.667969 12.4453L3.67969 12.4453C3.99609 12.4453 4.24219 12.2227 4.24219 11.8945C4.24219 11.543 4.00781 11.3203 3.67969 11.3203L2.00391 11.3203L2.00391 11.2852L2.96484 10.5117C3.76172 9.85547 4.07812 9.48047 4.07812 8.78906C4.07812 7.85156 3.29297 7.21875 2.02734 7.21875C0.902344 7.21875 0.09375 7.80469 0.09375 8.55469C0.09375 8.92969 0.339844 9.12891 0.738281 9.12891C1.00781 9.12891 1.18359 9.04688 1.34766 8.77734C1.51172 8.49609 1.72266 8.34375 2.05078 8.34375C2.39062 8.34375 2.63672 8.56641 2.63672 8.89453C2.63672 9.17578 2.49609 9.42188 1.88672 9.90234L0.351562 11.168C0.117188 11.3555 0.0234375 11.5664 0.0234375 11.8242C0.0234375 12.1875 0.28125 12.4453 0.667969 12.4453ZM2.05078 19.7461C3.44531 19.7461 4.26562 19.125 4.26562 18.1406C4.26562 17.4961 3.82031 17.0508 3.01172 16.9805L3.01172 16.9453C3.59766 16.8398 4.06641 16.4414 4.06641 15.7617C4.06641 14.8711 3.19922 14.3789 2.03906 14.3789C1.125 14.3789 0.128906 14.8125 0.128906 15.5859C0.128906 15.9141 0.363281 16.1484 0.726562 16.1484C0.984375 16.1484 1.10156 16.043 1.26562 15.8672C1.53516 15.5742 1.74609 15.4805 2.03906 15.4805C2.40234 15.4805 2.67188 15.6562 2.67188 16.0078C2.67188 16.3359 2.39062 16.5 1.91016 16.5L1.78125 16.5C1.45312 16.5 1.24219 16.6641 1.24219 17.0039C1.24219 17.3203 1.44141 17.5078 1.78125 17.5078L1.93359 17.5078C2.46094 17.5078 2.74219 17.6836 2.74219 18.0469C2.74219 18.3633 2.44922 18.5977 2.05078 18.5977C1.64062 18.5977 1.34766 18.3633 1.125 18.1406C0.984375 18.0117 0.867188 17.918 0.644531 17.918C0.269531 17.918 0 18.1406 0 18.5039C0 19.3125 1.10156 19.7461 2.05078 19.7461Z" fill="#000000"/>
 </g>
</svg>
