<?xml version="1.0" encoding="UTF-8"?>

<!--
  - Copyright (c) 2023. Compose Cupertino project and open source contributors.
  -
  -  Licensed under the Apache License, Version 2.0 (the "License");
  -  you may not use this file except in compliance with the License.
  -  You may obtain a copy of the License at
  -
  -      http://www.apache.org/licenses/LICENSE-2.0
  -
  -  Unless required by applicable law or agreed to in writing, software
  -  distributed under the License is distributed on an "AS IS" BASIS,
  -  WITHOUT WARRANTIES OR CONDITIONS OF ANY KIND, either express or implied.
  -  See the License for the specific language governing permissions and
  -  limitations under the License.
  -
  -->

<svg version="1.1" xmlns="http://www.w3.org/2000/svg" xmlns:xlink="http://www.w3.org/1999/xlink" width="19.7109" height="29.7539">
  <path d="M4.6875 12.4922L15.0234 12.4922C15.4219 12.4922 15.7617 12.1641 15.7617 11.7656C15.7617 11.3672 15.4219 11.0273 15.0234 11.0273L4.6875 11.0273C4.28906 11.0273 3.94922 11.3672 3.94922 11.7656C3.94922 12.1641 4.28906 12.4922 4.6875 12.4922ZM4.6875 16.6523L15.0234 16.6523C15.4336 16.6523 15.7617 16.3242 15.7617 15.9141C15.7617 15.5156 15.4336 15.1992 15.0234 15.1992L4.6875 15.1992C4.27734 15.1992 3.94922 15.5156 3.94922 15.9141C3.94922 16.3242 4.27734 16.6523 4.6875 16.6523ZM4.6875 21.0352L9.89062 21.0352C10.2891 21.0352 10.6172 20.707 10.6172 20.3086C10.6172 19.9102 10.3008 19.582 9.89062 19.582L4.6875 19.582C4.27734 19.582 3.94922 19.9102 3.94922 20.3086C3.94922 20.707 4.28906 21.0352 4.6875 21.0352ZM3.63281 28.3945L16.0781 28.3945C18.5039 28.3945 19.7109 27.1758 19.7109 24.7148L19.7109 6.94922C19.7109 4.54688 18.5508 3.26953 16.207 3.26953L15.9258 3.26953C15.9375 3.36328 15.9375 3.46875 15.9375 3.5625L15.9375 4.61719C15.9375 4.80469 15.9258 4.99219 15.8906 5.15625L16.1719 5.15625C17.2734 5.15625 17.8242 5.87109 17.8242 6.97266L17.8242 24.6914C17.8242 25.8633 17.2031 26.5078 15.9844 26.5078L3.72656 26.5078C2.50781 26.5078 1.88672 25.8633 1.88672 24.6914L1.88672 6.97266C1.88672 5.87109 2.4375 5.15625 3.53906 5.15625L3.82031 5.15625C3.78516 4.99219 3.77344 4.80469 3.77344 4.61719L3.77344 3.5625C3.77344 3.46875 3.77344 3.36328 3.78516 3.26953L3.50391 3.26953C1.16016 3.26953 0 4.54688 0 6.94922L0 24.7148C0 27.1758 1.20703 28.3945 3.63281 28.3945ZM6.23438 5.95312L13.4766 5.95312C14.1562 5.95312 14.5664 5.51953 14.5664 4.79297L14.5664 3.5625C14.5664 2.83594 14.1562 2.40234 13.4766 2.40234L12.3984 2.40234C12.3164 1.07812 11.2148 0 9.85547 0C8.49609 0 7.39453 1.07812 7.3125 2.40234L6.23438 2.40234C5.55469 2.40234 5.14453 2.83594 5.14453 3.5625L5.14453 4.79297C5.14453 5.51953 5.55469 5.95312 6.23438 5.95312ZM9.85547 3.51562C9.29297 3.51562 8.83594 3.04688 8.83594 2.49609C8.83594 1.92188 9.29297 1.46484 9.85547 1.46484C10.418 1.46484 10.875 1.92188 10.875 2.49609C10.875 3.04688 10.418 3.51562 9.85547 3.51562Z" fill="#000000"/>
</svg>
