<?xml version="1.0" encoding="UTF-8"?>

<!--
  - Copyright (c) 2023. Compose Cupertino project and open source contributors.
  -
  -  Licensed under the Apache License, Version 2.0 (the "License");
  -  you may not use this file except in compliance with the License.
  -  You may obtain a copy of the License at
  -
  -      http://www.apache.org/licenses/LICENSE-2.0
  -
  -  Unless required by applicable law or agreed to in writing, software
  -  distributed under the License is distributed on an "AS IS" BASIS,
  -  WITHOUT WARRANTIES OR CONDITIONS OF ANY KIND, either express or implied.
  -  See the License for the specific language governing permissions and
  -  limitations under the License.
  -
  -->

<svg version="1.1" xmlns="http://www.w3.org/2000/svg" xmlns:xlink="http://www.w3.org/1999/xlink" width="29.4609" height="17.1445">
 <g>
  <path d="M6.65625 2.4375L22.6641 2.4375C23.1914 2.4375 23.6133 2.02734 23.6133 1.5C23.6133 0.960938 23.1914 0.550781 22.6641 0.550781L6.65625 0.550781C6.11719 0.550781 5.70703 0.960938 5.70703 1.5C5.70703 2.02734 6.11719 2.4375 6.65625 2.4375ZM9.57422 9.52734L25.5938 9.52734C26.1211 9.52734 26.5312 9.10547 26.5312 8.57812C26.5312 8.05078 26.1211 7.64062 25.5938 7.64062L9.57422 7.64062C9.04688 7.64062 8.63672 8.05078 8.63672 8.57812C8.63672 9.10547 9.04688 9.52734 9.57422 9.52734ZM12.5039 16.6055L28.5234 16.6055C29.0508 16.6055 29.4609 16.1953 29.4609 15.668C29.4609 15.1289 29.0508 14.7188 28.5234 14.7188L12.5039 14.7188C11.9766 14.7188 11.5664 15.1289 11.5664 15.668C11.5664 16.1953 11.9766 16.6055 12.5039 16.6055Z" fill="#000000"/>
  <path d="M1.47656 2.96484C2.29688 2.96484 2.95312 2.30859 2.95312 1.5C2.95312 0.679688 2.29688 0.0234375 1.47656 0.0234375C0.65625 0.0234375 0 0.679688 0 1.5C0 2.30859 0.65625 2.96484 1.47656 2.96484ZM4.40625 10.0547C5.21484 10.0547 5.88281 9.39844 5.88281 8.57812C5.88281 7.75781 5.21484 7.10156 4.40625 7.10156C3.58594 7.10156 2.92969 7.75781 2.92969 8.57812C2.92969 9.39844 3.58594 10.0547 4.40625 10.0547ZM7.32422 17.1445C8.14453 17.1445 8.80078 16.4766 8.80078 15.668C8.80078 14.8477 8.14453 14.1914 7.32422 14.1914C6.51562 14.1914 5.84766 14.8477 5.84766 15.668C5.84766 16.4766 6.51562 17.1445 7.32422 17.1445Z" fill="#000000"/>
 </g>
</svg>
