<?xml version="1.0" encoding="UTF-8"?>

<!--
  - Copyright (c) 2023. Compose Cupertino project and open source contributors.
  -
  -  Licensed under the Apache License, Version 2.0 (the "License");
  -  you may not use this file except in compliance with the License.
  -  You may obtain a copy of the License at
  -
  -      http://www.apache.org/licenses/LICENSE-2.0
  -
  -  Unless required by applicable law or agreed to in writing, software
  -  distributed under the License is distributed on an "AS IS" BASIS,
  -  WITHOUT WARRANTIES OR CONDITIONS OF ANY KIND, either express or implied.
  -  See the License for the specific language governing permissions and
  -  limitations under the License.
  -
  -->

<svg version="1.1" xmlns="http://www.w3.org/2000/svg" xmlns:xlink="http://www.w3.org/1999/xlink" width="23.9062" height="23.918">
 <g>
  <path d="M11.9531 23.9062C18.4922 23.9062 23.9062 18.4805 23.9062 11.9531C23.9062 5.41406 18.4805 0 11.9414 0C5.41406 0 0 5.41406 0 11.9531C0 18.4805 5.42578 23.9062 11.9531 23.9062ZM11.9531 21.9141C6.42188 21.9141 2.00391 17.4844 2.00391 11.9531C2.00391 6.42188 6.41016 1.99219 11.9414 1.99219C17.4727 1.99219 21.9141 6.42188 21.9141 11.9531C21.9141 17.4844 17.4844 21.9141 11.9531 21.9141Z" fill="#000000"/>
  <path d="M9.09375 8.78906L17.8828 8.78906C18.2812 8.78906 18.5977 8.48438 18.5977 8.08594C18.5977 7.67578 18.2812 7.37109 17.8828 7.37109L9.09375 7.37109C8.69531 7.37109 8.39062 7.6875 8.39062 8.08594C8.39062 8.47266 8.70703 8.78906 9.09375 8.78906ZM9.09375 16.5469L17.8828 16.5469C18.2812 16.5469 18.5977 16.2422 18.5977 15.8438C18.5977 15.4336 18.2812 15.1289 17.8828 15.1289L9.09375 15.1289C8.70703 15.1289 8.39062 15.457 8.39062 15.8438C8.39062 16.2422 8.69531 16.5469 9.09375 16.5469ZM9.09375 12.668L17.8828 12.668C18.2812 12.668 18.5977 12.3633 18.5977 11.9648C18.5977 11.5547 18.2812 11.25 17.8828 11.25L9.09375 11.25C8.70703 11.25 8.39062 11.5781 8.39062 11.9648C8.39062 12.3516 8.70703 12.668 9.09375 12.668ZM6.26953 9.09375C6.82031 9.09375 7.27734 8.625 7.27734 8.08594C7.27734 7.52344 6.83203 7.07812 6.26953 7.07812C5.70703 7.07812 5.26172 7.52344 5.26172 8.08594C5.26172 8.63672 5.70703 9.09375 6.26953 9.09375ZM6.26953 12.9727C6.82031 12.9727 7.27734 12.5039 7.27734 11.9648C7.27734 11.4141 6.82031 10.957 6.26953 10.957C5.70703 10.957 5.26172 11.4023 5.26172 11.9648C5.26172 12.5156 5.70703 12.9727 6.26953 12.9727ZM6.26953 16.8516C6.83203 16.8516 7.27734 16.3945 7.27734 15.8438C7.27734 15.293 6.82031 14.8359 6.26953 14.8359C5.70703 14.8359 5.26172 15.2812 5.26172 15.8438C5.26172 16.3945 5.70703 16.8516 6.26953 16.8516Z" fill="#000000"/>
 </g>
</svg>
