<?xml version="1.0" encoding="UTF-8"?>

<!--
  - Copyright (c) 2023. Compose Cupertino project and open source contributors.
  -
  -  Licensed under the Apache License, Version 2.0 (the "License");
  -  you may not use this file except in compliance with the License.
  -  You may obtain a copy of the License at
  -
  -      http://www.apache.org/licenses/LICENSE-2.0
  -
  -  Unless required by applicable law or agreed to in writing, software
  -  distributed under the License is distributed on an "AS IS" BASIS,
  -  WITHOUT WARRANTIES OR CONDITIONS OF ANY KIND, either express or implied.
  -  See the License for the specific language governing permissions and
  -  limitations under the License.
  -
  -->

<svg version="1.1" xmlns="http://www.w3.org/2000/svg" xmlns:xlink="http://www.w3.org/1999/xlink" width="26.0391" height="26.0742">
 <g>
  <path d="M13.0312 17.8945C15.6914 17.8945 17.8359 15.75 17.8359 13.0781C17.8359 10.418 15.6914 8.27344 13.0312 8.27344C10.3594 8.27344 8.21484 10.418 8.21484 13.0781C8.21484 15.7617 10.3477 17.8945 13.0312 17.8945ZM13.0312 15.6914C11.5781 15.6914 10.418 14.5312 10.418 13.0781C10.418 11.6484 11.5898 10.4766 13.0312 10.4766C14.4609 10.4766 15.6328 11.6602 15.6328 13.0781C15.6328 14.5195 14.4727 15.6914 13.0312 15.6914Z" fill="#000000"/>
  <path d="M13.0312 22.5234C18.2578 22.5234 22.4883 18.3047 22.4883 13.0547C22.4883 7.85156 18.2344 3.59766 13.0312 3.59766C7.76953 3.59766 3.5625 7.81641 3.5625 13.0547C3.5625 18.3281 7.75781 22.5234 13.0312 22.5234ZM13.0312 21.375C8.39062 21.375 4.71094 17.6953 4.71094 13.0547C4.71094 8.44922 8.41406 4.74609 13.0312 4.74609C17.6133 4.74609 21.3398 8.47266 21.3398 13.0547C21.3398 17.6719 17.6367 21.375 13.0312 21.375Z" fill="#000000"/>
  <path d="M13.0195 1.25391C13.3594 1.25391 13.6172 0.984375 13.6172 0.65625C13.6172 0.328125 13.3594 0.0351562 13.0195 0.0351562C12.7031 0.0351562 12.4102 0.328125 12.4102 0.65625C12.4102 0.984375 12.7031 1.25391 13.0195 1.25391ZM15.1875 1.44141C15.5039 1.44141 15.7969 1.16016 15.7969 0.84375C15.7969 0.515625 15.5039 0.222656 15.1875 0.222656C14.8359 0.222656 14.5781 0.515625 14.5781 0.84375C14.5781 1.16016 14.8359 1.44141 15.1875 1.44141ZM17.2734 1.99219C17.5781 1.99219 17.8711 1.72266 17.8711 1.40625C17.8711 1.07812 17.5781 0.785156 17.2734 0.785156C16.9219 0.785156 16.6641 1.07812 16.6641 1.40625C16.6641 1.72266 16.9219 1.99219 17.2734 1.99219ZM19.2305 2.91797C19.5469 2.91797 19.8281 2.64844 19.8281 2.32031C19.8281 1.99219 19.5469 1.71094 19.2305 1.71094C18.8906 1.71094 18.6211 1.99219 18.6211 2.32031C18.6211 2.64844 18.8906 2.91797 19.2305 2.91797ZM21 4.16016C21.3281 4.16016 21.6094 3.87891 21.6094 3.57422C21.6094 3.23438 21.3281 2.95312 21 2.95312C20.6719 2.95312 20.4141 3.23438 20.4141 3.57422C20.4141 3.87891 20.6719 4.16016 21 4.16016ZM22.5352 5.68359C22.8633 5.68359 23.1445 5.41406 23.1445 5.09766C23.1445 4.75781 22.8633 4.47656 22.5352 4.47656C22.1953 4.47656 21.9258 4.75781 21.9258 5.09766C21.9258 5.41406 22.1953 5.68359 22.5352 5.68359ZM23.7773 7.46484C24.0938 7.46484 24.375 7.19531 24.375 6.86719C24.375 6.55078 24.0938 6.25781 23.7773 6.25781C23.4375 6.25781 23.1797 6.55078 23.1797 6.86719C23.1797 7.19531 23.4375 7.46484 23.7773 7.46484ZM24.6914 9.43359C25.0078 9.43359 25.2891 9.16406 25.2891 8.83594C25.2891 8.50781 25.0078 8.21484 24.6914 8.21484C24.3398 8.21484 24.082 8.50781 24.082 8.83594C24.082 9.16406 24.3398 9.43359 24.6914 9.43359ZM25.2422 11.5195C25.5586 11.5195 25.8516 11.2383 25.8516 10.9102C25.8516 10.5938 25.5586 10.3008 25.2422 10.3008C24.8906 10.3008 24.6328 10.5938 24.6328 10.9102C24.6328 11.2383 24.8906 11.5195 25.2422 11.5195ZM25.4297 13.6641C25.7461 13.6641 26.0391 13.3828 26.0391 13.0781C26.0391 12.7383 25.7461 12.457 25.4297 12.457C25.0898 12.457 24.8203 12.7383 24.8203 13.0781C24.8203 13.3828 25.0898 13.6641 25.4297 13.6641ZM25.2422 15.8203C25.5586 15.8203 25.8516 15.5273 25.8516 15.1992C25.8516 14.8828 25.5586 14.6016 25.2422 14.6016C24.8906 14.6016 24.6328 14.8828 24.6328 15.1992C24.6328 15.5273 24.8906 15.8203 25.2422 15.8203ZM24.6914 17.8945C25.0078 17.8945 25.2891 17.6133 25.2891 17.2734C25.2891 16.9688 25.0078 16.6758 24.6914 16.6758C24.3398 16.6758 24.082 16.9688 24.082 17.2734C24.082 17.6133 24.3398 17.8945 24.6914 17.8945ZM23.7773 19.8633C24.0938 19.8633 24.375 19.5703 24.375 19.2422C24.375 18.9141 24.0938 18.6445 23.7773 18.6445C23.4375 18.6445 23.1797 18.9141 23.1797 19.2422C23.1797 19.5703 23.4375 19.8633 23.7773 19.8633ZM22.5352 21.6328C22.8633 21.6328 23.1445 21.3516 23.1445 21.0234C23.1445 20.6953 22.8633 20.4258 22.5352 20.4258C22.1953 20.4258 21.9258 20.6953 21.9258 21.0234C21.9258 21.3516 22.1953 21.6328 22.5352 21.6328ZM21 23.168C21.3281 23.168 21.6094 22.8867 21.6094 22.5469C21.6094 22.2305 21.3281 21.9609 21 21.9609C20.6719 21.9609 20.4141 22.2305 20.4141 22.5469C20.4141 22.8867 20.6719 23.168 21 23.168ZM19.2305 24.4102C19.5469 24.4102 19.8281 24.1172 19.8281 23.7891C19.8281 23.4727 19.5469 23.1914 19.2305 23.1914C18.8906 23.1914 18.6211 23.4727 18.6211 23.7891C18.6211 24.1172 18.8906 24.4102 19.2305 24.4102ZM17.2734 25.3359C17.5781 25.3359 17.8711 25.043 17.8711 24.7148C17.8711 24.3867 17.5781 24.1172 17.2734 24.1172C16.9219 24.1172 16.6641 24.3867 16.6641 24.7148C16.6641 25.043 16.9219 25.3359 17.2734 25.3359ZM15.1875 25.8867C15.5039 25.8867 15.7969 25.5938 15.7969 25.2656C15.7969 24.9492 15.5039 24.6797 15.1875 24.6797C14.8359 24.6797 14.5781 24.9492 14.5781 25.2656C14.5781 25.5938 14.8359 25.8867 15.1875 25.8867ZM13.0195 26.0742C13.3594 26.0742 13.6172 25.793 13.6172 25.4531C13.6172 25.1484 13.3594 24.8672 13.0195 24.8672C12.7031 24.8672 12.4102 25.1484 12.4102 25.4531C12.4102 25.793 12.7031 26.0742 13.0195 26.0742ZM10.8516 25.8867C11.1914 25.8867 11.4492 25.5938 11.4492 25.2656C11.4492 24.9492 11.1914 24.6797 10.8516 24.6797C10.5352 24.6797 10.2422 24.9492 10.2422 25.2656C10.2422 25.5938 10.5352 25.8867 10.8516 25.8867ZM8.76562 25.3359C9.10547 25.3359 9.36328 25.043 9.36328 24.7148C9.36328 24.3867 9.10547 24.1172 8.76562 24.1172C8.44922 24.1172 8.16797 24.3867 8.16797 24.7148C8.16797 25.043 8.44922 25.3359 8.76562 25.3359ZM6.80859 24.4102C7.16016 24.4102 7.41797 24.1172 7.41797 23.7891C7.41797 23.4727 7.16016 23.1914 6.80859 23.1914C6.48047 23.1914 6.19922 23.4727 6.19922 23.7891C6.19922 24.1172 6.48047 24.4102 6.80859 24.4102ZM5.02734 23.168C5.36719 23.168 5.63672 22.8867 5.63672 22.5469C5.63672 22.2305 5.36719 21.9609 5.02734 21.9609C4.71094 21.9609 4.41797 22.2305 4.41797 22.5469C4.41797 22.8867 4.71094 23.168 5.02734 23.168ZM3.49219 21.6328C3.83203 21.6328 4.10156 21.3516 4.10156 21.0234C4.10156 20.6953 3.83203 20.4258 3.49219 20.4258C3.17578 20.4258 2.89453 20.6953 2.89453 21.0234C2.89453 21.3516 3.17578 21.6328 3.49219 21.6328ZM2.26172 19.8633C2.58984 19.8633 2.87109 19.5703 2.87109 19.2422C2.87109 18.9141 2.58984 18.6445 2.26172 18.6445C1.93359 18.6445 1.65234 18.9141 1.65234 19.2422C1.65234 19.5703 1.93359 19.8633 2.26172 19.8633ZM1.34766 17.8945C1.69922 17.8945 1.95703 17.6133 1.95703 17.2734C1.95703 16.9688 1.69922 16.6758 1.34766 16.6758C1.01953 16.6758 0.738281 16.9688 0.738281 17.2734C0.738281 17.6133 1.01953 17.8945 1.34766 17.8945ZM0.785156 15.8203C1.13672 15.8203 1.39453 15.5273 1.39453 15.1992C1.39453 14.8828 1.13672 14.6016 0.785156 14.6016C0.46875 14.6016 0.1875 14.8828 0.1875 15.1992C0.1875 15.5273 0.46875 15.8203 0.785156 15.8203ZM0.609375 13.6641C0.949219 13.6641 1.20703 13.3828 1.20703 13.0781C1.20703 12.7383 0.949219 12.457 0.609375 12.457C0.28125 12.457 0 12.7383 0 13.0781C0 13.3828 0.28125 13.6641 0.609375 13.6641ZM0.785156 11.5195C1.13672 11.5195 1.39453 11.2383 1.39453 10.9102C1.39453 10.5938 1.13672 10.3008 0.785156 10.3008C0.46875 10.3008 0.1875 10.5938 0.1875 10.9102C0.1875 11.2383 0.46875 11.5195 0.785156 11.5195ZM1.34766 9.43359C1.69922 9.43359 1.95703 9.16406 1.95703 8.83594C1.95703 8.50781 1.69922 8.21484 1.34766 8.21484C1.01953 8.21484 0.738281 8.50781 0.738281 8.83594C0.738281 9.16406 1.01953 9.43359 1.34766 9.43359ZM2.26172 7.46484C2.58984 7.46484 2.87109 7.19531 2.87109 6.86719C2.87109 6.55078 2.58984 6.25781 2.26172 6.25781C1.93359 6.25781 1.65234 6.55078 1.65234 6.86719C1.65234 7.19531 1.93359 7.46484 2.26172 7.46484ZM3.49219 5.68359C3.83203 5.68359 4.10156 5.41406 4.10156 5.09766C4.10156 4.75781 3.83203 4.47656 3.49219 4.47656C3.17578 4.47656 2.89453 4.75781 2.89453 5.09766C2.89453 5.41406 3.17578 5.68359 3.49219 5.68359ZM5.02734 4.16016C5.36719 4.16016 5.63672 3.87891 5.63672 3.57422C5.63672 3.23438 5.36719 2.95312 5.02734 2.95312C4.71094 2.95312 4.41797 3.23438 4.41797 3.57422C4.41797 3.87891 4.71094 4.16016 5.02734 4.16016ZM6.80859 2.91797C7.16016 2.91797 7.41797 2.64844 7.41797 2.32031C7.41797 1.99219 7.16016 1.71094 6.80859 1.71094C6.48047 1.71094 6.19922 1.99219 6.19922 2.32031C6.19922 2.64844 6.48047 2.91797 6.80859 2.91797ZM8.76562 1.99219C9.10547 1.99219 9.36328 1.72266 9.36328 1.40625C9.36328 1.07812 9.10547 0.785156 8.76562 0.785156C8.44922 0.785156 8.16797 1.07812 8.16797 1.40625C8.16797 1.72266 8.44922 1.99219 8.76562 1.99219ZM10.8516 1.44141C11.1914 1.44141 11.4492 1.16016 11.4492 0.84375C11.4492 0.515625 11.1914 0.222656 10.8516 0.222656C10.5352 0.222656 10.2422 0.515625 10.2422 0.84375C10.2422 1.16016 10.5352 1.44141 10.8516 1.44141Z" fill="#000000"/>
 </g>
</svg>
