<?xml version="1.0" encoding="UTF-8"?>

<!--
  - Copyright (c) 2023. Compose Cupertino project and open source contributors.
  -
  -  Licensed under the Apache License, Version 2.0 (the "License");
  -  you may not use this file except in compliance with the License.
  -  You may obtain a copy of the License at
  -
  -      http://www.apache.org/licenses/LICENSE-2.0
  -
  -  Unless required by applicable law or agreed to in writing, software
  -  distributed under the License is distributed on an "AS IS" BASIS,
  -  WITHOUT WARRANTIES OR CONDITIONS OF ANY KIND, either express or implied.
  -  See the License for the specific language governing permissions and
  -  limitations under the License.
  -
  -->

<svg version="1.1" xmlns="http://www.w3.org/2000/svg" xmlns:xlink="http://www.w3.org/1999/xlink" width="22.2455" height="22.174">
  <path d="M1.00008 8.97176C-0.617106 9.72176-0.171794 11.8897 1.60946 11.9014L10.1524 11.9366C10.2931 11.9366 10.3282 11.9718 10.3282 12.1124L10.3516 20.585C10.3634 22.4366 12.5665 22.7647 13.3516 21.0655L22.0118 2.44442C22.8087 0.710042 21.4493-0.520427 19.7266 0.288167ZM3.03914 10.0733C2.99227 10.0733 2.98055 10.0264 3.03914 10.003L19.879 2.29207C19.961 2.25692 19.9962 2.28035 19.961 2.3741L12.2032 19.2022C12.1915 19.2491 12.1446 19.2374 12.1446 19.1905L12.2032 10.9054C12.2032 10.3897 11.8399 10.0264 11.3126 10.0264Z" fill="#000000"/>
</svg>
