<?xml version="1.0" encoding="UTF-8"?>

<!--
  - Copyright (c) 2023. Compose Cupertino project and open source contributors.
  -
  -  Licensed under the Apache License, Version 2.0 (the "License");
  -  you may not use this file except in compliance with the License.
  -  You may obtain a copy of the License at
  -
  -      http://www.apache.org/licenses/LICENSE-2.0
  -
  -  Unless required by applicable law or agreed to in writing, software
  -  distributed under the License is distributed on an "AS IS" BASIS,
  -  WITHOUT WARRANTIES OR CONDITIONS OF ANY KIND, either express or implied.
  -  See the License for the specific language governing permissions and
  -  limitations under the License.
  -
  -->

<svg version="1.1" xmlns="http://www.w3.org/2000/svg" xmlns:xlink="http://www.w3.org/1999/xlink" width="23.9062" height="23.918">
 <g>
  <path d="M11.9531 23.9062C18.4922 23.9062 23.9062 18.4805 23.9062 11.9531C23.9062 5.41406 18.4805 0 11.9414 0C5.41406 0 0 5.41406 0 11.9531C0 18.4805 5.42578 23.9062 11.9531 23.9062ZM11.9531 21.9141C6.42188 21.9141 2.00391 17.4844 2.00391 11.9531C2.00391 6.42188 6.41016 1.99219 11.9414 1.99219C17.4727 1.99219 21.9141 6.42188 21.9141 11.9531C21.9141 17.4844 17.4844 21.9141 11.9531 21.9141Z" fill="#000000"/>
  <path d="M7.71094 16.5703C7.71094 17.4492 8.09766 17.8594 8.90625 17.8594L14.9766 17.8594C15.7852 17.8594 16.1719 17.4492 16.1719 16.5703L16.1719 11.9062C16.1719 11.0859 15.832 10.6875 15.1406 10.6406L15.1406 9.24609C15.1406 7.08984 13.8516 5.64844 11.9414 5.64844C10.0312 5.64844 8.74219 7.08984 8.74219 9.24609L8.74219 10.6406C8.05078 10.6875 7.71094 11.0859 7.71094 11.9062ZM9.96094 10.6289L9.96094 9.11719C9.96094 7.74609 10.7578 6.83203 11.9414 6.83203C13.125 6.83203 13.9219 7.74609 13.9219 9.11719L13.9219 10.6289Z" fill="#000000"/>
 </g>
</svg>
