<?xml version="1.0" encoding="UTF-8"?>

<!--
  - Copyright (c) 2023. Compose Cupertino project and open source contributors.
  -
  -  Licensed under the Apache License, Version 2.0 (the "License");
  -  you may not use this file except in compliance with the License.
  -  You may obtain a copy of the License at
  -
  -      http://www.apache.org/licenses/LICENSE-2.0
  -
  -  Unless required by applicable law or agreed to in writing, software
  -  distributed under the License is distributed on an "AS IS" BASIS,
  -  WITHOUT WARRANTIES OR CONDITIONS OF ANY KIND, either express or implied.
  -  See the License for the specific language governing permissions and
  -  limitations under the License.
  -
  -->

<svg version="1.1" xmlns="http://www.w3.org/2000/svg" xmlns:xlink="http://www.w3.org/1999/xlink" width="21.9068" height="24.1406">
 <g>
  <path d="M10.7168 2.04492C12.9082 2.04492 14.8184 3.60352 14.8184 6.56836L14.8184 9.61523L10.5645 9.61523L12.3457 11.3848L16.0254 11.3848C16.541 11.3848 16.8223 11.6895 16.8223 12.2637L16.8223 15.8613L18.7207 17.748L18.7207 12.3926C18.7207 10.7754 18.0059 9.84961 16.6699 9.66211L16.6699 6.81445C16.6699 2.4082 13.7871 0.275391 10.7168 0.275391C8.30273 0.275391 6.05273 1.61133 5.19727 4.23633L6.69727 5.74805C7.00195 3.33398 8.72461 2.04492 10.7168 2.04492ZM5.36133 23.2559L16.084 23.2559C16.6348 23.2559 17.1035 23.127 17.4434 22.9043L15.8613 21.3223C15.7676 21.416 15.627 21.4863 15.4629 21.4863L5.41992 21.4863C4.91602 21.4863 4.62305 21.1699 4.62305 20.5957L4.62305 12.2637C4.62305 11.6895 4.91602 11.3848 5.41992 11.3848L5.91211 11.3848L4.3418 9.81445L4.23633 9.81445C3.27539 10.1309 2.72461 11.0215 2.72461 12.3926L2.72461 20.4668C2.72461 22.3184 3.63867 23.2559 5.36133 23.2559Z" fill="#000000"/>
  <path d="M20.3613 23.877C20.7246 24.2285 21.2988 24.2285 21.6387 23.877C21.9902 23.5254 22.002 22.9512 21.6387 22.5996L1.55273 2.51367C1.20117 2.16211 0.615234 2.16211 0.263672 2.51367C-0.0878906 2.86523-0.0878906 3.45117 0.263672 3.79102Z" fill="#000000"/>
 </g>
</svg>
