<?xml version="1.0" encoding="UTF-8"?>

<!--
  - Copyright (c) 2023. Compose Cupertino project and open source contributors.
  -
  -  Licensed under the Apache License, Version 2.0 (the "License");
  -  you may not use this file except in compliance with the License.
  -  You may obtain a copy of the License at
  -
  -      http://www.apache.org/licenses/LICENSE-2.0
  -
  -  Unless required by applicable law or agreed to in writing, software
  -  distributed under the License is distributed on an "AS IS" BASIS,
  -  WITHOUT WARRANTIES OR CONDITIONS OF ANY KIND, either express or implied.
  -  See the License for the specific language governing permissions and
  -  limitations under the License.
  -
  -->

<svg version="1.1" xmlns="http://www.w3.org/2000/svg" xmlns:xlink="http://www.w3.org/1999/xlink" width="20.5195" height="27.4805">
  <path d="M16.5234 4.07812L17.8594 4.07812C18.375 4.07812 18.6328 4.35938 18.6328 4.95703L18.6328 22.8164C18.6328 23.5195 18.5273 23.7773 17.8594 24.0703C15.5273 25.0898 12.2461 25.7461 9.15234 25.7461C7.34766 25.7461 5.61328 25.6289 3.82031 25.3242L3.82031 25.4766C8.77734 25.5469 13.5117 24.1523 15.668 22.5C16.5 21.8672 16.7461 21.4453 16.7461 20.4141L16.7461 1.72266C16.7461 0.5625 16.1602 0 15.1289 0C14.7773 0 14.3555 0.0820312 13.8516 0.246094C10.3125 1.40625 7.07812 2.14453 2.92969 2.14453L1.99219 2.14453C0.726562 2.14453 0 2.88281 0 4.03125L0 24.1406C0 25.0547 0.199219 25.6055 1.06641 26.0273C3.07031 26.8945 6.07031 27.4688 9.15234 27.4688C12.4336 27.4688 16.125 26.9766 18.7734 25.6875C20.1797 25.0195 20.5195 24.3984 20.5195 22.9453L20.5195 4.95703C20.5195 3.05859 19.6758 2.19141 17.8477 2.19141L16.5234 2.19141ZM1.88672 23.2617L1.88672 4.53516C1.88672 4.20703 2.0625 4.00781 2.36719 4.00781L3.01172 4.00781C7.11328 4.00781 10.9453 3.1875 14.2148 2.15625C14.6133 2.02734 14.8594 2.13281 14.8594 2.49609L14.8594 20.0039C14.8594 20.6367 14.7773 20.8945 14.1797 21.2812C11.7422 22.9102 7.79297 23.918 2.29688 23.6836C2.00391 23.6719 1.88672 23.543 1.88672 23.2617ZM4.27734 7.10156L4.27734 10.9453C4.27734 11.1328 4.40625 11.2148 4.55859 11.2148C7.3125 11.2148 10.1016 10.7227 12.2109 9.87891C12.3164 9.83203 12.375 9.72656 12.375 9.62109L12.375 5.61328C12.375 5.34375 12.1289 5.28516 12 5.34375C9.57422 6.22266 7.20703 6.69141 4.55859 6.79688C4.39453 6.80859 4.27734 6.9375 4.27734 7.10156Z" fill="#000000"/>
</svg>
