<?xml version="1.0" encoding="UTF-8"?>

<!--
  - Copyright (c) 2023. Compose Cupertino project and open source contributors.
  -
  -  Licensed under the Apache License, Version 2.0 (the "License");
  -  you may not use this file except in compliance with the License.
  -  You may obtain a copy of the License at
  -
  -      http://www.apache.org/licenses/LICENSE-2.0
  -
  -  Unless required by applicable law or agreed to in writing, software
  -  distributed under the License is distributed on an "AS IS" BASIS,
  -  WITHOUT WARRANTIES OR CONDITIONS OF ANY KIND, either express or implied.
  -  See the License for the specific language governing permissions and
  -  limitations under the License.
  -
  -->

<svg version="1.1" xmlns="http://www.w3.org/2000/svg" xmlns:xlink="http://www.w3.org/1999/xlink" width="24.5508" height="25.9805">
  <path d="M4.91016 12.9727L12.3516 12.9727C12.7969 12.9727 13.1484 12.6094 13.1484 12.1641C13.1484 11.7188 12.7969 11.3555 12.3516 11.3555L4.91016 11.3555C4.44141 11.3555 4.10156 11.7188 4.10156 12.1641C4.10156 12.6094 4.44141 12.9727 4.91016 12.9727ZM4.91016 16.043L10.2188 16.043C10.6641 16.043 11.0273 15.6914 11.0273 15.2461C11.0273 14.7891 10.6641 14.4375 10.2188 14.4375L4.91016 14.4375C4.44141 14.4375 4.10156 14.7891 4.10156 15.2461C4.10156 15.6914 4.44141 16.043 4.91016 16.043ZM17.6836 16.3594C19.1953 16.3594 20.4258 15.1289 20.4258 13.5938C20.4258 12.0586 19.1953 10.8281 17.6836 10.8281C16.1484 10.8281 14.9062 12.0586 14.9062 13.5938C14.9062 15.1289 16.1484 16.3594 17.6836 16.3594ZM3.67969 25.9453L20.8711 25.9453C23.3086 25.9453 24.5508 24.7266 24.5508 22.3125L24.5508 10.2773C24.5508 7.86328 23.3086 6.64453 20.8711 6.64453L3.67969 6.64453C1.21875 6.64453 0 7.86328 0 10.2773L0 22.3125C0 24.7266 1.21875 25.9453 3.67969 25.9453ZM3.70312 24.0586C2.53125 24.0586 1.88672 23.4258 1.88672 22.207L1.88672 10.3828C1.88672 9.16406 2.53125 8.53125 3.70312 8.53125L20.8359 8.53125C21.9961 8.53125 22.6641 9.16406 22.6641 10.3828L22.6641 22.207C22.6641 23.4258 21.9961 24.0586 20.8359 24.0586ZM2.47266 4.75781L22.0898 4.75781C21.9141 3.69141 21.4102 3.10547 20.2383 3.10547L4.32422 3.10547C3.15234 3.10547 2.64844 3.69141 2.47266 4.75781ZM4.88672 1.51172L19.6758 1.51172C19.6055 0.515625 19.043 0 17.9531 0L6.59766 0C5.51953 0 4.95703 0.515625 4.88672 1.51172Z" fill="#000000"/>
</svg>
