<?xml version="1.0" encoding="UTF-8"?>

<!--
  - Copyright (c) 2023. Compose Cupertino project and open source contributors.
  -
  -  Licensed under the Apache License, Version 2.0 (the "License");
  -  you may not use this file except in compliance with the License.
  -  You may obtain a copy of the License at
  -
  -      http://www.apache.org/licenses/LICENSE-2.0
  -
  -  Unless required by applicable law or agreed to in writing, software
  -  distributed under the License is distributed on an "AS IS" BASIS,
  -  WITHOUT WARRANTIES OR CONDITIONS OF ANY KIND, either express or implied.
  -  See the License for the specific language governing permissions and
  -  limitations under the License.
  -
  -->

<svg version="1.1" xmlns="http://www.w3.org/2000/svg" xmlns:xlink="http://www.w3.org/1999/xlink" width="24.375" height="23.1211">
  <path d="M1.32422 22.6641C1.61719 22.6641 1.92188 22.5586 2.29688 22.3477L8.26172 19.1367L14.7422 22.7695C15.1641 23.0039 15.6211 23.1211 16.0547 23.1211C16.4648 23.1211 16.875 23.0156 17.2266 22.8164L23.3555 19.3359C24.0586 18.9492 24.375 18.3867 24.375 17.6016L24.375 1.81641C24.375 0.949219 23.8945 0.46875 23.0508 0.46875C22.7578 0.46875 22.4531 0.5625 22.0664 0.773438L15.8555 4.23047L9.49219 0.328125C9.12891 0.117188 8.71875 0 8.30859 0C7.88672 0 7.46484 0.117188 7.10156 0.328125L1.00781 3.79688C0.316406 4.19531 0 4.75781 0 5.54297L0 21.3047C0 22.1719 0.480469 22.6641 1.32422 22.6641ZM7.5 17.2734L2.21484 20.1797C2.15625 20.2031 2.09766 20.2383 2.03906 20.2383C1.94531 20.2383 1.88672 20.168 1.88672 20.0508L1.88672 6C1.88672 5.71875 1.99219 5.51953 2.27344 5.35547L7.07812 2.54297C7.23047 2.46094 7.35938 2.39062 7.5 2.30859ZM9.38672 17.4609L9.38672 2.55469C9.50391 2.625 9.64453 2.69531 9.76172 2.76562L14.9883 5.95312L14.9883 20.6016C14.8242 20.5078 14.6484 20.4258 14.4727 20.332ZM16.875 20.8125L16.875 5.83594L22.1602 2.95312C22.2188 2.91797 22.2773 2.89453 22.3242 2.89453C22.4297 2.89453 22.4883 2.96484 22.4883 3.08203L22.4883 17.1328C22.4883 17.4258 22.3711 17.625 22.1016 17.7891L17.4023 20.5195C17.2266 20.625 17.0508 20.7305 16.875 20.8125Z" fill="#000000"/>
</svg>
