<?xml version="1.0" encoding="UTF-8"?>

<!--
  - Copyright (c) 2023. Compose Cupertino project and open source contributors.
  -
  -  Licensed under the Apache License, Version 2.0 (the "License");
  -  you may not use this file except in compliance with the License.
  -  You may obtain a copy of the License at
  -
  -      http://www.apache.org/licenses/LICENSE-2.0
  -
  -  Unless required by applicable law or agreed to in writing, software
  -  distributed under the License is distributed on an "AS IS" BASIS,
  -  WITHOUT WARRANTIES OR CONDITIONS OF ANY KIND, either express or implied.
  -  See the License for the specific language governing permissions and
  -  limitations under the License.
  -
  -->

<svg version="1.1" xmlns="http://www.w3.org/2000/svg" xmlns:xlink="http://www.w3.org/1999/xlink" width="8.80078" height="25.7461">
  <path d="M3.14062 4.66406C2.33203 4.66406 1.62891 3.96094 1.62891 3.14062C1.62891 2.33203 2.33203 1.64062 3.14062 1.64062C3.96094 1.64062 4.64062 2.33203 4.64062 3.14062C4.64062 3.96094 3.96094 4.66406 3.14062 4.66406Z M0 4.41797C0 6.48047 1.39453 8.20312 3.30469 8.68359L3.30469 19.5586C3.30469 23.0156 3.92578 24.9023 4.39453 24.9023C4.875 24.9023 5.48438 23.0273 5.48438 19.5586L5.48438 8.68359C7.39453 8.21484 8.80078 6.48047 8.80078 4.41797C8.80078 1.99219 6.84375 0 4.39453 0C1.95703 0 0 1.99219 0 4.41797Z" fill="#000000"/>
</svg>
