<?xml version="1.0" encoding="UTF-8"?>

<!--
  - Copyright (c) 2023. Compose Cupertino project and open source contributors.
  -
  -  Licensed under the Apache License, Version 2.0 (the "License");
  -  you may not use this file except in compliance with the License.
  -  You may obtain a copy of the License at
  -
  -      http://www.apache.org/licenses/LICENSE-2.0
  -
  -  Unless required by applicable law or agreed to in writing, software
  -  distributed under the License is distributed on an "AS IS" BASIS,
  -  WITHOUT WARRANTIES OR CONDITIONS OF ANY KIND, either express or implied.
  -  See the License for the specific language governing permissions and
  -  limitations under the License.
  -
  -->

<svg version="1.1" xmlns="http://www.w3.org/2000/svg" xmlns:xlink="http://www.w3.org/1999/xlink" width="22.2539" height="25.7461">
 <g>
  <path d="M11.1328 25.7344C18.1992 25.7344 22.2539 23.2969 22.2539 20.7188C22.2539 17.625 17.3438 15.7383 14.1211 15.7031L14.1211 17.4141C16.3828 17.4492 19.8867 18.6797 19.8867 20.4375C19.8867 22.4531 16.1719 23.8828 11.1328 23.8828C6.07031 23.8828 2.37891 22.4766 2.37891 20.4375C2.37891 18.6797 5.87109 17.4492 8.13281 17.4141L8.13281 15.7031C4.91016 15.7383 0 17.625 0 20.7188C0 23.2969 4.06641 25.7344 11.1328 25.7344Z" fill="#000000"/>
  <path d="M6.72656 4.41797C6.72656 6.48047 8.12109 8.20312 10.0312 8.68359L10.0312 16.1016C10.0312 19.5586 10.6523 21.4453 11.1211 21.4453C11.6016 21.4453 12.2109 19.5703 12.2109 16.1016L12.2109 8.68359C14.1211 8.21484 15.5273 6.48047 15.5273 4.41797C15.5273 1.99219 13.5703 0 11.1211 0C8.68359 0 6.72656 1.99219 6.72656 4.41797Z M9.86719 4.66406C9.07031 4.66406 8.36719 3.96094 8.36719 3.14062C8.36719 2.33203 9.07031 1.64062 9.86719 1.64062C10.6992 1.64062 11.3789 2.33203 11.3789 3.14062C11.3789 3.96094 10.6992 4.66406 9.86719 4.66406Z"/>
 </g>
</svg>
