<?xml version="1.0" encoding="UTF-8"?>

<!--
  - Copyright (c) 2023. Compose Cupertino project and open source contributors.
  -
  -  Licensed under the Apache License, Version 2.0 (the "License");
  -  you may not use this file except in compliance with the License.
  -  You may obtain a copy of the License at
  -
  -      http://www.apache.org/licenses/LICENSE-2.0
  -
  -  Unless required by applicable law or agreed to in writing, software
  -  distributed under the License is distributed on an "AS IS" BASIS,
  -  WITHOUT WARRANTIES OR CONDITIONS OF ANY KIND, either express or implied.
  -  See the License for the specific language governing permissions and
  -  limitations under the License.
  -
  -->

<svg version="1.1" xmlns="http://www.w3.org/2000/svg" xmlns:xlink="http://www.w3.org/1999/xlink" width="22.2812" height="26.8945">
  <path d="M4.86081 15.6211L6.11472 14.3203L1.94285 6.12891L3.82956 3.23438L8.77488 12.9844L10.6968 12.668L4.96628 1.99219L17.3061 1.99219L11.5757 12.668L13.4975 12.9844L18.4428 3.23438L20.3413 6.12891L16.1577 14.3203L17.4116 15.6211L22.1225 6.77344C22.3452 6.38672 22.3335 5.94141 22.0874 5.57812L18.9116 0.714844C18.6655 0.375 18.3725 0.222656 17.9155 0.222656L4.36863 0.222656C3.89988 0.222656 3.60691 0.375 3.37253 0.714844L0.185033 5.57812C-0.0493421 5.94141-0.0610609 6.38672 0.149877 6.77344ZM6.79441 7.37109L15.4897 7.37109L15.4897 5.60156L6.79441 5.60156ZM11.1421 26.8945C15.3843 26.8945 18.8178 23.4609 18.8178 19.2188C18.8178 14.9648 15.3843 11.5312 11.1421 11.5312C6.88816 11.5312 3.45456 14.9648 3.45456 19.2188C3.45456 23.4609 6.88816 26.8945 11.1421 26.8945ZM11.1421 25.125C7.87253 25.125 5.2241 22.4883 5.2241 19.2188C5.2241 15.9492 7.86081 13.3008 11.1421 13.3008C14.3999 13.3008 17.0483 15.9375 17.0483 19.2188C17.0483 22.4766 14.4116 25.125 11.1421 25.125ZM9.07956 22.9219L11.1538 21.4102L13.2046 22.9219C13.6499 23.2383 14.0952 22.9102 13.9311 22.418L13.0991 19.9688L15.1968 18.4688C15.5835 18.1992 15.478 17.6367 14.9272 17.6367L12.3608 17.6602L11.5757 15.1992C11.4233 14.707 10.8608 14.707 10.7085 15.1992L9.92331 17.6602L7.35691 17.6367C6.81785 17.6367 6.68894 18.1875 7.0991 18.4805L9.19675 19.9688L8.36472 22.418C8.20066 22.9102 8.64597 23.2383 9.07956 22.9219Z" fill="#000000"/>
</svg>
