<?xml version="1.0" encoding="UTF-8"?>

<!--
  - Copyright (c) 2023. Compose Cupertino project and open source contributors.
  -
  -  Licensed under the Apache License, Version 2.0 (the "License");
  -  you may not use this file except in compliance with the License.
  -  You may obtain a copy of the License at
  -
  -      http://www.apache.org/licenses/LICENSE-2.0
  -
  -  Unless required by applicable law or agreed to in writing, software
  -  distributed under the License is distributed on an "AS IS" BASIS,
  -  WITHOUT WARRANTIES OR CONDITIONS OF ANY KIND, either express or implied.
  -  See the License for the specific language governing permissions and
  -  limitations under the License.
  -
  -->

<svg version="1.1" xmlns="http://www.w3.org/2000/svg" xmlns:xlink="http://www.w3.org/1999/xlink" width="26.0977" height="24.7852">
  <path d="M0 12.3281C0 15.3867 1.69922 17.0625 4.91016 17.0625L8.97656 17.0625C13.0312 17.5312 17.2852 18.8672 20.9648 21.1289L20.9648 19.043C17.3789 16.8398 13.2422 15.6328 8.90625 15.1758L4.91016 15.1758C2.76562 15.1758 1.88672 14.3438 1.88672 12.3281L1.88672 10.6055C1.88672 8.57812 2.76562 7.75781 4.91016 7.75781L8.80078 7.75781C13.2188 7.3125 17.4492 6.05859 20.9648 3.87891L20.9648 1.80469C17.4375 4.05469 12.7266 5.47266 9.04688 5.87109L4.91016 5.87109C1.69922 5.87109 0 7.52344 0 10.6055ZM10.8984 16.9102L9.11719 16.9102L10.1016 21.9023C10.1953 22.4297 9.92578 22.7695 9.55078 22.8984C9.15234 23.0391 8.63672 22.9102 8.36719 22.3477L5.71875 16.6875L3.79688 16.6875L6.50391 22.6875C7.46484 24.832 9.12891 24.9609 10.2656 24.6094C11.4141 24.2461 12.1172 23.1797 11.8125 21.6211ZM7.39453 6.76172L7.39453 16.1719L9.29297 16.1719L9.29297 6.76172ZM20.2969 19.957C20.2969 21.6914 21.4688 22.8516 23.1914 22.8516C24.9375 22.8516 26.0977 21.6914 26.0977 19.957L26.0977 2.89453C26.0977 1.16016 24.9375 0 23.1914 0C21.4688 0 20.2969 1.16016 20.2969 2.89453ZM22.1953 19.957L22.1953 2.89453C22.1953 2.28516 22.582 1.88672 23.1914 1.88672C23.8008 1.88672 24.2109 2.28516 24.2109 2.89453L24.2109 19.957C24.2109 20.5664 23.8008 20.9648 23.1914 20.9648C22.582 20.9648 22.1953 20.5664 22.1953 19.957Z" fill="#000000"/>
</svg>
