<?xml version="1.0" encoding="UTF-8"?>

<!--
  - Copyright (c) 2023. Compose Cupertino project and open source contributors.
  -
  -  Licensed under the Apache License, Version 2.0 (the "License");
  -  you may not use this file except in compliance with the License.
  -  You may obtain a copy of the License at
  -
  -      http://www.apache.org/licenses/LICENSE-2.0
  -
  -  Unless required by applicable law or agreed to in writing, software
  -  distributed under the License is distributed on an "AS IS" BASIS,
  -  WITHOUT WARRANTIES OR CONDITIONS OF ANY KIND, either express or implied.
  -  See the License for the specific language governing permissions and
  -  limitations under the License.
  -
  -->

<svg version="1.1" xmlns="http://www.w3.org/2000/svg" xmlns:xlink="http://www.w3.org/1999/xlink" width="26.6367" height="23.918">
  <path d="M11.7305 15.7969C11.7305 16.3359 12.3281 16.5703 12.832 16.2656L19.1133 12.5625C19.5703 12.2812 19.5586 11.6367 19.1133 11.3789L12.832 7.65234C12.3633 7.37109 11.7305 7.59375 11.7305 8.12109ZM0 9.30469C0 9.53906 0.0703125 9.76172 0.210938 9.9375L2.68359 12.9727C3.04688 13.4414 3.35156 13.6055 3.82031 13.6055C4.125 13.6055 4.35938 13.5234 4.65234 13.3125L7.71094 11.0508C7.96875 10.8633 8.10938 10.582 8.10938 10.2773C8.10938 9.72656 7.67578 9.32812 7.18359 9.32812C6.96094 9.32812 6.76172 9.38672 6.58594 9.52734L4.78125 10.9453C5.27344 5.89453 9.48047 1.99219 14.6719 1.99219C20.2031 1.99219 24.6328 6.42188 24.6445 11.9531C24.6562 17.4844 20.2148 21.9141 14.6836 21.9141C11.0273 21.9141 8.42578 19.9805 7.14844 18.4922C6.90234 18.1875 6.58594 18.0703 6.30469 18.0703C5.8125 18.0703 5.36719 18.4453 5.36719 18.9844C5.36719 19.2539 5.47266 19.5469 5.73047 19.8516C7.01953 21.3281 10.1953 23.9062 14.6836 23.9062C21.2227 23.9062 26.6367 18.4805 26.6367 11.9531C26.6367 5.41406 21.1992 0 14.6719 0C8.69531 0 3.65625 4.53516 2.85938 10.3125L1.76953 8.82422C1.58203 8.55469 1.3125 8.37891 0.960938 8.37891C0.421875 8.37891 0 8.76562 0 9.30469Z" fill="#000000"/>
</svg>
