<?xml version="1.0" encoding="UTF-8"?>

<!--
  - Copyright (c) 2023. Compose Cupertino project and open source contributors.
  -
  -  Licensed under the Apache License, Version 2.0 (the "License");
  -  you may not use this file except in compliance with the License.
  -  You may obtain a copy of the License at
  -
  -      http://www.apache.org/licenses/LICENSE-2.0
  -
  -  Unless required by applicable law or agreed to in writing, software
  -  distributed under the License is distributed on an "AS IS" BASIS,
  -  WITHOUT WARRANTIES OR CONDITIONS OF ANY KIND, either express or implied.
  -  See the License for the specific language governing permissions and
  -  limitations under the License.
  -
  -->

<svg version="1.1" xmlns="http://www.w3.org/2000/svg" xmlns:xlink="http://www.w3.org/1999/xlink" width="19.9321" height="26.7539">
 <g>
  <path d="M1.40332 12.3867C1.40332 16.9805 4.43848 20.2031 8.90332 20.5781L8.90332 23.3086L4.55566 23.3086C4.06348 23.3086 3.66504 23.707 3.66504 24.1992C3.66504 24.6914 4.06348 25.0781 4.55566 25.0781L15.0205 25.0781C15.5127 25.0781 15.9111 24.6914 15.9111 24.1992C15.9111 23.707 15.5127 23.3086 15.0205 23.3086L10.6729 23.3086L10.6729 20.5781C11.9971 20.4727 13.1807 20.1094 14.2119 19.5352L12.9463 18.2812C12.0439 18.7148 10.9893 18.9609 9.79395 18.9609C5.77441 18.9609 3.17285 16.3125 3.17285 12.3164L3.17285 10.0078C3.17285 9.51562 2.78613 9.12891 2.28223 9.12891C1.79004 9.12891 1.40332 9.51562 1.40332 10.0078ZM15.9932 14.8008L17.3643 16.1719C17.8916 15.0703 18.1729 13.793 18.1729 12.3867L18.1729 10.0078C18.1729 9.51562 17.7861 9.12891 17.2939 9.12891C16.8018 9.12891 16.4033 9.51562 16.4033 10.0078L16.4033 12.3164C16.4033 13.2188 16.2627 14.0508 15.9932 14.8008ZM9.79395 16.5586C10.2393 16.5586 10.6494 16.4883 11.0244 16.3594L9.23145 14.5547C9.1377 14.6016 9.03223 14.6133 8.92676 14.6133C8.23535 14.4609 7.74316 13.9102 7.5791 13.1953L7.56738 12.9023L5.52832 10.8633L5.52832 11.9648C5.52832 14.6602 7.2627 16.5586 9.79395 16.5586ZM14.0479 4.59375C14.0479 1.88672 12.3135 0 9.79395 0C7.47363 0 5.83301 1.59375 5.5752 3.9375L5.5752 4.40625L7.29785 6.11719L7.29785 4.59375C7.29785 2.85938 8.29395 1.74609 9.79395 1.74609C11.2939 1.74609 12.2783 2.85938 12.2783 4.59375L12.2783 10.8164C12.2783 10.9102 12.2783 11.0039 12.2666 11.0859L13.9775 12.7969C14.0244 12.5273 14.0479 12.2461 14.0479 11.9648Z" fill="#000000"/>
  <path d="M18.3955 21.7383C18.7471 22.0898 19.3213 22.0898 19.6729 21.7383C20.0127 21.375 20.0244 20.8125 19.6729 20.4609L1.54395 2.34375C1.19238 2.00391 0.606445 1.99219 0.254883 2.34375C-0.0849609 2.69531-0.0849609 3.28125 0.254883 3.62109Z" fill="#000000"/>
 </g>
</svg>
