<?xml version="1.0" encoding="UTF-8"?>

<!--
  - Copyright (c) 2023. Compose Cupertino project and open source contributors.
  -
  -  Licensed under the Apache License, Version 2.0 (the "License");
  -  you may not use this file except in compliance with the License.
  -  You may obtain a copy of the License at
  -
  -      http://www.apache.org/licenses/LICENSE-2.0
  -
  -  Unless required by applicable law or agreed to in writing, software
  -  distributed under the License is distributed on an "AS IS" BASIS,
  -  WITHOUT WARRANTIES OR CONDITIONS OF ANY KIND, either express or implied.
  -  See the License for the specific language governing permissions and
  -  limitations under the License.
  -
  -->

<svg version="1.1" xmlns="http://www.w3.org/2000/svg" xmlns:xlink="http://www.w3.org/1999/xlink" width="23.5781" height="23.7539">
  <path d="M18.4102 15.9141C11.9531 15.9141 7.94531 12.0234 7.94531 5.77734C7.94531 3.99609 8.23828 2.42578 8.67188 1.58203C8.84766 1.24219 8.88281 1.07812 8.88281 0.84375C8.88281 0.457031 8.51953 0 8.02734 0C7.93359 0 7.71094 0.0351562 7.38281 0.164062C3.04688 1.92188 0 6.49219 0 11.4141C0 18.5273 5.16797 23.707 12.2812 23.707C17.3789 23.707 21.5156 21.0352 23.4141 16.6523C23.5547 16.3477 23.5781 16.0898 23.5781 15.9609C23.5781 15.4805 23.168 15.1523 22.8047 15.1523C22.6172 15.1523 22.4766 15.1641 22.1953 15.2695C21.2461 15.6562 19.8164 15.9141 18.4102 15.9141ZM1.83984 11.332C1.83984 7.6875 3.73828 4.21875 6.77344 2.30859C6.39844 3.39844 6.19922 4.60547 6.19922 5.94141C6.19922 13.2656 10.6641 17.625 18.1406 17.625C19.3477 17.625 20.3672 17.4844 21.3398 17.1445C19.5586 20.0859 16.125 21.8789 12.3516 21.8789C6.26953 21.8789 1.83984 17.4492 1.83984 11.332Z" fill="#000000"/>
</svg>
