<?xml version="1.0" encoding="UTF-8"?>

<!--
  - Copyright (c) 2023. Compose Cupertino project and open source contributors.
  -
  -  Licensed under the Apache License, Version 2.0 (the "License");
  -  you may not use this file except in compliance with the License.
  -  You may obtain a copy of the License at
  -
  -      http://www.apache.org/licenses/LICENSE-2.0
  -
  -  Unless required by applicable law or agreed to in writing, software
  -  distributed under the License is distributed on an "AS IS" BASIS,
  -  WITHOUT WARRANTIES OR CONDITIONS OF ANY KIND, either express or implied.
  -  See the License for the specific language governing permissions and
  -  limitations under the License.
  -
  -->

<svg version="1.1" xmlns="http://www.w3.org/2000/svg" xmlns:xlink="http://www.w3.org/1999/xlink" width="22.5469" height="27.416">
  <path d="M1.75781 9.88184L20.7891 9.88184C22.4062 9.88184 22.5586 8.07715 21.5859 7.35059L12.9023 0.694336C11.6719-0.231445 10.875-0.231445 9.64453 0.694336L0.960938 7.35059C-0.0117188 8.07715 0.140625 9.88184 1.75781 9.88184ZM3.63281 8.13574C3.35156 8.13574 3.26953 7.80762 3.49219 7.63184L10.5586 2.21777C10.9453 1.9248 11.6016 1.93652 11.9766 2.21777L19.0547 7.63184C19.2773 7.80762 19.1953 8.13574 18.9141 8.13574ZM0.996094 14.7217L21.5508 14.7217C22.0898 14.7217 22.5469 14.2529 22.5469 13.7021C22.5469 13.1514 22.0898 12.6709 21.5508 12.6709L0.996094 12.6709C0.457031 12.6709 0 13.1514 0 13.7021C0 14.2529 0.457031 14.7217 0.996094 14.7217ZM1.75781 17.5225C0.140625 17.5225-0.0117188 19.3154 0.960938 20.0537L9.64453 26.71C10.875 27.6357 11.6719 27.6357 12.9023 26.71L21.5859 20.0537C22.5586 19.3154 22.4062 17.5225 20.7891 17.5225ZM3.63281 19.2686L18.9141 19.2686C19.1953 19.2686 19.2773 19.585 19.0547 19.7725L11.9766 25.1865C11.6016 25.4678 10.9453 25.4795 10.5586 25.1865L3.49219 19.7725C3.26953 19.585 3.35156 19.2686 3.63281 19.2686Z" fill="#000000"/>
</svg>
