<?xml version="1.0" encoding="UTF-8"?>

<!--
  - Copyright (c) 2023. Compose Cupertino project and open source contributors.
  -
  -  Licensed under the Apache License, Version 2.0 (the "License");
  -  you may not use this file except in compliance with the License.
  -  You may obtain a copy of the License at
  -
  -      http://www.apache.org/licenses/LICENSE-2.0
  -
  -  Unless required by applicable law or agreed to in writing, software
  -  distributed under the License is distributed on an "AS IS" BASIS,
  -  WITHOUT WARRANTIES OR CONDITIONS OF ANY KIND, either express or implied.
  -  See the License for the specific language governing permissions and
  -  limitations under the License.
  -
  -->

<svg version="1.1" xmlns="http://www.w3.org/2000/svg" xmlns:xlink="http://www.w3.org/1999/xlink" width="15.5918" height="15.6182">
  <path d="M0.303239 15.315C0.701676 15.7251 1.39308 15.7134 1.79152 15.315L7.79152 9.30324L13.8032 15.315C14.2017 15.7134 14.8814 15.7251 15.2798 15.315C15.7017 14.9048 15.69 14.2251 15.2798 13.8267L9.2798 7.81496L15.2798 1.81496C15.69 1.41652 15.7017 0.725114 15.2798 0.326676C14.8814-0.0834802 14.2017-0.0717614 13.8032 0.326676L7.79152 6.33839L1.79152 0.326676C1.39308-0.0717614 0.701676-0.0834802 0.303239 0.326676C-0.106918 0.725114-0.0951989 1.41652 0.303239 1.81496L6.31496 7.81496L0.303239 13.8267C-0.0951989 14.2251-0.106918 14.9048 0.303239 15.315Z" fill="#000000"/>
</svg>
