<?xml version="1.0" encoding="UTF-8"?>

<!--
  - Copyright (c) 2023. Compose Cupertino project and open source contributors.
  -
  -  Licensed under the Apache License, Version 2.0 (the "License");
  -  you may not use this file except in compliance with the License.
  -  You may obtain a copy of the License at
  -
  -      http://www.apache.org/licenses/LICENSE-2.0
  -
  -  Unless required by applicable law or agreed to in writing, software
  -  distributed under the License is distributed on an "AS IS" BASIS,
  -  WITHOUT WARRANTIES OR CONDITIONS OF ANY KIND, either express or implied.
  -  See the License for the specific language governing permissions and
  -  limitations under the License.
  -
  -->

<svg version="1.1" xmlns="http://www.w3.org/2000/svg" xmlns:xlink="http://www.w3.org/1999/xlink" width="23.2652" height="24.7228">
  <path d="M11.9391 23.8165C12.5367 23.8165 13.0055 23.3477 13.0055 22.7618L13.0055 14.0665L16.5094 10.8321C17.8453 11.0079 19.2516 10.4571 20.482 9.22663L14.0367 2.7696C12.7945 4.00006 12.2789 5.38288 12.4664 6.73053L1.56797 18.461C1.12266 18.9415 1.05235 19.6094 1.60313 20.1602L0.103129 22.0938C-0.0374965 22.2813-0.0492152 22.5508 0.161722 22.7618L0.501566 23.1133C0.700785 23.3126 0.970316 23.3243 1.18125 23.1602L3.11485 21.6485C3.64219 22.1993 4.32188 22.129 4.79063 21.6837L10.8727 16.0587L10.8727 22.7618C10.8727 23.3477 11.3414 23.8165 11.9391 23.8165ZM2.775 19.4219L13.1109 8.45319C13.3102 8.79303 13.5445 9.10944 13.8375 9.42585C14.1188 9.71881 14.4469 9.98835 14.7516 10.1758L3.85313 20.5001ZM15.2086 1.586L21.6656 8.04303C23.7281 6.00397 23.8102 3.39069 21.8297 1.42194C19.8609-0.523373 17.2711-0.476498 15.2086 1.586Z" fill="#000000"/>
</svg>
