<?xml version="1.0" encoding="UTF-8"?>

<!--
  - Copyright (c) 2023. Compose Cupertino project and open source contributors.
  -
  -  Licensed under the Apache License, Version 2.0 (the "License");
  -  you may not use this file except in compliance with the License.
  -  You may obtain a copy of the License at
  -
  -      http://www.apache.org/licenses/LICENSE-2.0
  -
  -  Unless required by applicable law or agreed to in writing, software
  -  distributed under the License is distributed on an "AS IS" BASIS,
  -  WITHOUT WARRANTIES OR CONDITIONS OF ANY KIND, either express or implied.
  -  See the License for the specific language governing permissions and
  -  limitations under the License.
  -
  -->

<svg version="1.1" xmlns="http://www.w3.org/2000/svg" xmlns:xlink="http://www.w3.org/1999/xlink" width="23.8945" height="24.082">
 <g>
  <path d="M23.8945 5.87109L23.8945 1.46484C23.8945 0.84375 23.3906 0.445312 22.793 0.5625L16.7695 1.875C16.0195 2.03906 15.6094 2.44922 15.6094 3.10547L15.6328 16.1367C15.6914 16.7109 15.4219 17.0859 14.9062 17.1914L13.043 17.5781C10.6992 18.0703 9.59766 19.2656 9.59766 21.0352C9.59766 22.8281 10.9805 24.082 12.9258 24.082C14.6484 24.082 17.2266 22.8164 17.2266 19.4062L17.2266 8.68359C17.2266 8.0625 17.3438 7.93359 17.8945 7.81641L23.25 6.64453C23.6484 6.5625 23.8945 6.25781 23.8945 5.87109Z" fill="#000000"/>
  <path d="M0.796875 6.42188L11.2734 6.42188C11.707 6.42188 12.0703 6.05859 12.0703 5.625C12.0703 5.19141 11.707 4.83984 11.2734 4.83984L0.796875 4.83984C0.351562 4.83984 0 5.19141 0 5.625C0 6.05859 0.351562 6.42188 0.796875 6.42188ZM0.796875 10.5938L11.2734 10.5938C11.7188 10.5938 12.0703 10.2305 12.0703 9.78516C12.0703 9.35156 11.707 9.01172 11.2734 9.01172L0.796875 9.01172C0.351562 9.01172 0 9.35156 0 9.78516C0 10.2305 0.339844 10.5938 0.796875 10.5938ZM0.796875 14.7656L11.2734 14.7656C11.7188 14.7656 12.0703 14.4141 12.0703 13.9688C12.0703 13.5352 11.707 13.1836 11.2734 13.1836L0.796875 13.1836C0.351562 13.1836 0 13.5352 0 13.9688C0 14.4141 0.339844 14.7656 0.796875 14.7656Z" fill="#000000"/>
 </g>
</svg>
