<?xml version="1.0" encoding="UTF-8"?>

<!--
  - Copyright (c) 2023. Compose Cupertino project and open source contributors.
  -
  -  Licensed under the Apache License, Version 2.0 (the "License");
  -  you may not use this file except in compliance with the License.
  -  You may obtain a copy of the License at
  -
  -      http://www.apache.org/licenses/LICENSE-2.0
  -
  -  Unless required by applicable law or agreed to in writing, software
  -  distributed under the License is distributed on an "AS IS" BASIS,
  -  WITHOUT WARRANTIES OR CONDITIONS OF ANY KIND, either express or implied.
  -  See the License for the specific language governing permissions and
  -  limitations under the License.
  -
  -->

<svg version="1.1" xmlns="http://www.w3.org/2000/svg" xmlns:xlink="http://www.w3.org/1999/xlink" width="26.9766" height="23.3789">
  <path d="M0 20.2969C0 22.1016 1.39453 23.3555 3.33984 23.3555C5.07422 23.3555 7.65234 22.0781 7.65234 18.6562L7.65234 6.76172C7.65234 6.33984 7.30078 5.97656 6.86719 5.97656C6.43359 5.97656 6.07031 6.33984 6.07031 6.76172L6.07031 15.375C6.07031 15.9492 5.84766 16.3359 5.33203 16.4297L3.46875 16.8164C1.10156 17.3203 0 18.5039 0 20.2969ZM10.6406 14.3203C10.6406 16.1133 12.0352 17.3789 13.9805 17.3789C15.7148 17.3789 18.293 16.1016 18.293 12.668L18.293 0.785156C18.293 0.351562 17.9414 0 17.5078 0C17.0742 0 16.7109 0.351562 16.7109 0.785156L16.7109 9.39844C16.7109 9.97266 16.4883 10.3477 15.9727 10.4531L14.1094 10.8398C11.7422 11.332 10.6406 12.5273 10.6406 14.3203ZM19.3242 20.2969C19.3242 22.1016 20.707 23.3555 22.6641 23.3555C24.3867 23.3555 26.9766 22.0781 26.9766 18.6562L26.9766 6.76172C26.9766 6.33984 26.6133 5.97656 26.1914 5.97656C25.7578 5.97656 25.3945 6.33984 25.3945 6.76172L25.3945 15.375C25.3945 15.9609 25.1602 16.3359 24.6562 16.4297L22.7812 16.8281C20.4258 17.3203 19.3242 18.5156 19.3242 20.2969Z" fill="#000000"/>
</svg>
