<?xml version="1.0" encoding="UTF-8"?>

<!--
  - Copyright (c) 2023. Compose Cupertino project and open source contributors.
  -
  -  Licensed under the Apache License, Version 2.0 (the "License");
  -  you may not use this file except in compliance with the License.
  -  You may obtain a copy of the License at
  -
  -      http://www.apache.org/licenses/LICENSE-2.0
  -
  -  Unless required by applicable law or agreed to in writing, software
  -  distributed under the License is distributed on an "AS IS" BASIS,
  -  WITHOUT WARRANTIES OR CONDITIONS OF ANY KIND, either express or implied.
  -  See the License for the specific language governing permissions and
  -  limitations under the License.
  -
  -->

<svg version="1.1" xmlns="http://www.w3.org/2000/svg" xmlns:xlink="http://www.w3.org/1999/xlink" width="14.2969" height="24.082">
  <path d="M14.2969 5.87109L14.2969 1.46484C14.2969 0.84375 13.793 0.445312 13.1953 0.5625L7.17188 1.875C6.42188 2.03906 6.01172 2.44922 6.01172 3.10547L6.03516 16.1367C6.09375 16.7109 5.82422 17.0859 5.30859 17.1914L3.44531 17.5781C1.10156 18.0703 0 19.2656 0 21.0352C0 22.8281 1.38281 24.082 3.32812 24.082C5.05078 24.082 7.62891 22.8164 7.62891 19.4062L7.62891 8.68359C7.62891 8.0625 7.74609 7.93359 8.29688 7.81641L13.6523 6.64453C14.0508 6.5625 14.2969 6.25781 14.2969 5.87109Z" fill="#000000"/>
</svg>
