<?xml version="1.0" encoding="UTF-8"?>

<!--
  - Copyright (c) 2023. Compose Cupertino project and open source contributors.
  -
  -  Licensed under the Apache License, Version 2.0 (the "License");
  -  you may not use this file except in compliance with the License.
  -  You may obtain a copy of the License at
  -
  -      http://www.apache.org/licenses/LICENSE-2.0
  -
  -  Unless required by applicable law or agreed to in writing, software
  -  distributed under the License is distributed on an "AS IS" BASIS,
  -  WITHOUT WARRANTIES OR CONDITIONS OF ANY KIND, either express or implied.
  -  See the License for the specific language governing permissions and
  -  limitations under the License.
  -
  -->

<svg version="1.1" xmlns="http://www.w3.org/2000/svg" xmlns:xlink="http://www.w3.org/1999/xlink" width="23.9062" height="23.918">
  <path d="M1.88672 6.98438C4.78125 10.0664 8.85938 11.8477 13.1953 11.8359C16.6172 11.8242 19.8633 10.6875 22.5117 8.60156L21.8438 7.28906C19.4297 9.30469 16.3945 10.4062 13.1953 10.418C9.04688 10.4297 5.16797 8.625 2.54297 5.53125ZM0.632812 13.6758C6.72656 18.8789 15.4453 19.8516 22.4766 16.1719L22.4414 14.5664C15.6094 18.5156 6.87891 17.5312 0.984375 12.082ZM6.44531 21.7266L8.12109 22.1133C7.33594 20.2266 6.91406 18.2344 6.87891 16.1836C6.55078 10.3594 9.05859 4.80469 13.5352 1.13672L12.0352 0.550781C7.59375 4.48828 5.14453 10.2188 5.46094 16.207C5.48438 18.082 5.82422 19.9336 6.44531 21.7266ZM14.168 22.8867L15.4922 22.3008C13.3008 19.207 12.1055 15.5391 12.1055 11.707C12.1055 8.07422 13.1602 4.60547 15.1406 1.65234L13.7578 1.16016C11.7539 4.30078 10.6875 7.94531 10.6875 11.707C10.6875 15.75 11.9062 19.6055 14.168 22.8867ZM21.0703 18.5273L22.0195 17.4492C18.082 15.1875 15.6211 11.0508 15.5625 6.45703C15.5391 4.81641 15.832 3.1875 16.418 1.6875L15.0469 1.30078C14.4258 2.94141 14.1211 4.67578 14.1445 6.46875C14.2031 11.4492 16.8398 15.9961 21.0703 18.5273ZM6.86719 11.6953C7.86328 11.6953 8.68359 10.8633 8.68359 9.85547C8.68359 8.84766 7.86328 8.02734 6.86719 8.02734C5.84766 8.02734 5.02734 8.84766 5.02734 9.85547C5.02734 10.8633 5.84766 11.6953 6.86719 11.6953ZM15.8438 12.668C16.8281 12.668 17.6367 11.8594 17.6367 10.8516C17.6367 9.86719 16.8281 9.05859 15.8438 9.05859C14.8359 9.05859 14.0273 9.86719 14.0273 10.8516C14.0273 11.8594 14.8359 12.668 15.8438 12.668ZM12.3516 19.4414C13.3594 19.4414 14.168 18.6328 14.168 17.6133C14.168 16.6055 13.3594 15.7852 12.3516 15.7852C11.332 15.7852 10.5117 16.6055 10.5117 17.6133C10.5117 18.6328 11.332 19.4414 12.3516 19.4414ZM11.9531 23.9062C18.4922 23.9062 23.9062 18.4805 23.9062 11.9531C23.9062 5.41406 18.4805 0 11.9414 0C5.41406 0 0 5.41406 0 11.9531C0 18.4805 5.42578 23.9062 11.9531 23.9062ZM11.9531 22.3125C6.29297 22.3125 1.59375 17.6133 1.59375 11.9531C1.59375 6.29297 6.28125 1.59375 11.9414 1.59375C17.6016 1.59375 22.3125 6.29297 22.3125 11.9531C22.3125 17.6133 17.6133 22.3125 11.9531 22.3125Z" fill="#000000"/>
</svg>
