<?xml version="1.0" encoding="UTF-8"?>

<!--
  - Copyright (c) 2023. Compose Cupertino project and open source contributors.
  -
  -  Licensed under the Apache License, Version 2.0 (the "License");
  -  you may not use this file except in compliance with the License.
  -  You may obtain a copy of the License at
  -
  -      http://www.apache.org/licenses/LICENSE-2.0
  -
  -  Unless required by applicable law or agreed to in writing, software
  -  distributed under the License is distributed on an "AS IS" BASIS,
  -  WITHOUT WARRANTIES OR CONDITIONS OF ANY KIND, either express or implied.
  -  See the License for the specific language governing permissions and
  -  limitations under the License.
  -
  -->

<svg version="1.1" xmlns="http://www.w3.org/2000/svg" xmlns:xlink="http://www.w3.org/1999/xlink" width="26.6484" height="25.1367">
  <path d="M0 21.5859C0 23.918 1.16016 25.125 3.53906 25.125L22.9688 25.125C25.4297 25.125 26.6484 23.918 26.6484 21.5039L26.6484 3.63281C26.6484 1.21875 25.4297 0 22.9688 0L8.84766 0C6.39844 0 5.16797 1.21875 5.16797 3.63281L5.16797 9.22266L2.36719 9.22266C0.878906 9.22266 0 10.0312 0 11.4258ZM1.88672 21.5859L1.88672 11.7891C1.88672 11.3555 2.14453 11.1094 2.57812 11.1094L5.16797 11.1094L5.16797 21.5859C5.16797 22.5586 4.45312 23.2383 3.53906 23.2383C2.61328 23.2383 1.88672 22.5234 1.88672 21.5859ZM6.65625 23.2383C6.91406 22.7344 7.05469 22.1484 7.05469 21.4688L7.05469 3.73828C7.05469 2.51953 7.71094 1.88672 8.88281 1.88672L22.9336 1.88672C24.1055 1.88672 24.7617 2.51953 24.7617 3.73828L24.7617 21.3984C24.7617 22.6172 24.1055 23.2383 22.9336 23.2383ZM10.1016 6.98438L21.7383 6.98438C22.1484 6.98438 22.4648 6.65625 22.4648 6.24609C22.4648 5.84766 22.1484 5.54297 21.7383 5.54297L10.1016 5.54297C9.67969 5.54297 9.36328 5.84766 9.36328 6.24609C9.36328 6.65625 9.67969 6.98438 10.1016 6.98438ZM10.1016 11.1094L21.7383 11.1094C22.1484 11.1094 22.4648 10.793 22.4648 10.3945C22.4648 9.98438 22.1484 9.66797 21.7383 9.66797L10.1016 9.66797C9.67969 9.66797 9.36328 9.98438 9.36328 10.3945C9.36328 10.793 9.67969 11.1094 10.1016 11.1094ZM10.793 19.4648L13.8281 19.4648C14.7188 19.4648 15.2578 18.9258 15.2578 18.0352L15.2578 15.2461C15.2578 14.3438 14.7188 13.8047 13.8281 13.8047L10.793 13.8047C9.89062 13.8047 9.35156 14.3438 9.35156 15.2461L9.35156 18.0352C9.35156 18.9258 9.89062 19.4648 10.793 19.4648ZM17.3672 15.2461L21.7266 15.2461C22.1484 15.2461 22.4531 14.9414 22.4531 14.543C22.4531 14.1211 22.1484 13.8047 21.7266 13.8047L17.3672 13.8047C16.9453 13.8047 16.6406 14.1211 16.6406 14.543C16.6406 14.9414 16.9453 15.2461 17.3672 15.2461ZM17.3672 19.4648L21.7266 19.4648C22.1484 19.4648 22.4531 19.1602 22.4531 18.7617C22.4531 18.3516 22.1484 18.0234 21.7266 18.0234L17.3672 18.0234C16.9453 18.0234 16.6406 18.3516 16.6406 18.7617C16.6406 19.1602 16.9453 19.4648 17.3672 19.4648Z" fill="#000000"/>
</svg>
