<?xml version="1.0" encoding="UTF-8"?>

<!--
  - Copyright (c) 2023. Compose Cupertino project and open source contributors.
  -
  -  Licensed under the Apache License, Version 2.0 (the "License");
  -  you may not use this file except in compliance with the License.
  -  You may obtain a copy of the License at
  -
  -      http://www.apache.org/licenses/LICENSE-2.0
  -
  -  Unless required by applicable law or agreed to in writing, software
  -  distributed under the License is distributed on an "AS IS" BASIS,
  -  WITHOUT WARRANTIES OR CONDITIONS OF ANY KIND, either express or implied.
  -  See the License for the specific language governing permissions and
  -  limitations under the License.
  -
  -->

<svg version="1.1" xmlns="http://www.w3.org/2000/svg" xmlns:xlink="http://www.w3.org/1999/xlink" width="23.3555" height="21.5977">
 <g>
  <path d="M3.67969 21.5977L19.6875 21.5977C22.1367 21.5977 23.3555 20.3789 23.3555 17.9648L23.3555 3.65625C23.3555 1.24219 22.1367 0.0234375 19.6875 0.0234375L3.67969 0.0234375C1.23047 0.0234375 0 1.23047 0 3.65625L0 17.9648C0 20.3906 1.23047 21.5977 3.67969 21.5977ZM3.50391 19.7109C2.46094 19.7109 1.88672 19.1602 1.88672 18.0703L1.88672 7.01953C1.88672 5.94141 2.46094 5.37891 3.50391 5.37891L19.8398 5.37891C20.8828 5.37891 21.4688 5.94141 21.4688 7.01953L21.4688 18.0703C21.4688 19.1602 20.8828 19.7109 19.8398 19.7109Z" fill="#000000"/>
  <path d="M5.54297 9.73828L17.8477 9.73828C18.2578 9.73828 18.5742 9.41016 18.5742 9C18.5742 8.60156 18.2578 8.29688 17.8477 8.29688L5.54297 8.29688C5.10938 8.29688 4.80469 8.60156 4.80469 9C4.80469 9.41016 5.10938 9.73828 5.54297 9.73828ZM5.54297 13.2656L17.8477 13.2656C18.2578 13.2656 18.5742 12.9609 18.5742 12.5625C18.5742 12.1406 18.2578 11.8242 17.8477 11.8242L5.54297 11.8242C5.10938 11.8242 4.80469 12.1406 4.80469 12.5625C4.80469 12.9609 5.10938 13.2656 5.54297 13.2656ZM5.54297 16.793L13.3594 16.793C13.7695 16.793 14.0859 16.4883 14.0859 16.0898C14.0859 15.6797 13.7695 15.3516 13.3594 15.3516L5.54297 15.3516C5.10938 15.3516 4.80469 15.6797 4.80469 16.0898C4.80469 16.4883 5.10938 16.793 5.54297 16.793Z" fill="#000000"/>
 </g>
</svg>
