<?xml version="1.0" encoding="UTF-8"?>

<!--
  - Copyright (c) 2023. Compose Cupertino project and open source contributors.
  -
  -  Licensed under the Apache License, Version 2.0 (the "License");
  -  you may not use this file except in compliance with the License.
  -  You may obtain a copy of the License at
  -
  -      http://www.apache.org/licenses/LICENSE-2.0
  -
  -  Unless required by applicable law or agreed to in writing, software
  -  distributed under the License is distributed on an "AS IS" BASIS,
  -  WITHOUT WARRANTIES OR CONDITIONS OF ANY KIND, either express or implied.
  -  See the License for the specific language governing permissions and
  -  limitations under the License.
  -
  -->

<svg version="1.1" xmlns="http://www.w3.org/2000/svg" xmlns:xlink="http://www.w3.org/1999/xlink" width="21.0117" height="22.8867">
  <path d="M4.30078 22.8867C4.86328 22.8867 5.27344 22.582 5.39062 22.0078L9.5625 1.33594C9.58594 1.26562 9.60938 1.11328 9.60938 0.960938C9.60938 0.386719 9.1875 0.0585938 8.625 0.0585938C7.96875 0.0585938 7.66406 0.421875 7.55859 0.972656L3.38672 21.6211C3.36328 21.7383 3.33984 21.8789 3.33984 21.9961C3.33984 22.5703 3.73828 22.8867 4.30078 22.8867ZM11.918 22.8867C12.4922 22.8867 12.8906 22.582 13.0078 22.0078L17.1914 1.33594C17.2031 1.26562 17.2266 1.11328 17.2266 0.960938C17.2266 0.386719 16.8047 0.0585938 16.2539 0.0585938C15.5859 0.0585938 15.293 0.421875 15.1875 0.972656L11.0039 21.6211C10.9805 21.7383 10.9688 21.8789 10.9688 21.9961C10.9688 22.5703 11.3672 22.8867 11.918 22.8867ZM2.46094 8.09766L19.9219 8.09766C20.5664 8.09766 21.0117 7.62891 21.0117 6.99609C21.0117 6.48047 20.6602 6.05859 20.1328 6.05859L2.67188 6.05859C2.03906 6.05859 1.58203 6.55078 1.58203 7.19531C1.58203 7.72266 1.94531 8.09766 2.46094 8.09766ZM0.878906 16.3242L18.3398 16.3242C18.9727 16.3242 19.4297 15.8555 19.4297 15.2227C19.4297 14.707 19.0664 14.2852 18.5508 14.2852L1.08984 14.2852C0.445312 14.2852 0 14.7773 0 15.4219C0 15.9492 0.351562 16.3242 0.878906 16.3242Z" fill="#000000"/>
</svg>
