<?xml version="1.0" encoding="UTF-8"?>

<!--
  - Copyright (c) 2023. Compose Cupertino project and open source contributors.
  -
  -  Licensed under the Apache License, Version 2.0 (the "License");
  -  you may not use this file except in compliance with the License.
  -  You may obtain a copy of the License at
  -
  -      http://www.apache.org/licenses/LICENSE-2.0
  -
  -  Unless required by applicable law or agreed to in writing, software
  -  distributed under the License is distributed on an "AS IS" BASIS,
  -  WITHOUT WARRANTIES OR CONDITIONS OF ANY KIND, either express or implied.
  -  See the License for the specific language governing permissions and
  -  limitations under the License.
  -
  -->

<svg version="1.1" xmlns="http://www.w3.org/2000/svg" xmlns:xlink="http://www.w3.org/1999/xlink" width="23.9062" height="23.918">
  <path d="M11.9648 17.3672C14.9414 17.3555 17.3555 14.9414 17.3555 11.9531C17.3555 9.01172 14.9297 6.58594 11.9766 6.58594C9.01172 6.58594 6.5625 9.01172 6.5625 11.9531C6.5625 14.9414 8.98828 17.3789 11.9648 17.3672ZM11.9648 16.1719C9.64453 16.1719 7.75781 14.2969 7.75781 11.9531C7.75781 9.67969 9.65625 7.78125 11.9648 7.78125C14.2734 7.78125 16.1602 9.66797 16.1602 11.9531C16.1602 14.2734 14.2852 16.1719 11.9648 16.1719ZM11.9648 14.8242C13.5234 14.8242 14.8125 13.5352 14.8125 11.9648C14.8125 10.418 13.5234 9.12891 11.9648 9.12891C10.3945 9.12891 9.10547 10.418 9.10547 11.9766C9.10547 13.5352 10.3945 14.8242 11.9648 14.8242ZM11.9648 13.5234C11.0977 13.5117 10.418 12.832 10.418 11.9648C10.418 11.1445 11.0977 10.4297 11.9766 10.4297C12.8086 10.4297 13.5 11.1328 13.5 11.9648C13.5 12.832 12.8086 13.5352 11.9648 13.5234ZM7.64062 13.9453L7.37109 12.9727L0.878906 15.082L1.19531 16.043ZM8.30859 15.3516L7.67578 14.5547L2.40234 18.4336L3.01172 19.2539ZM10.9805 16.7695L10.0547 16.3594L7.95703 22.8047L8.91797 23.1328ZM12.9492 7.27734L13.9219 7.57031L15.9609 1.28906L15 0.960938ZM15.5742 8.77734L16.207 9.5625L21.5156 5.63672L20.9062 4.83984ZM16.2891 10.1367L16.6406 11.0742L23.0391 9.01172L22.7227 8.03906ZM11.9531 23.9062C18.4922 23.9062 23.9062 18.4805 23.9062 11.9531C23.9062 5.41406 18.4805 0 11.9414 0C5.41406 0 0 5.41406 0 11.9531C0 18.4805 5.42578 23.9062 11.9531 23.9062ZM11.9531 21.9141C6.42188 21.9141 2.00391 17.4844 2.00391 11.9531C2.00391 6.42188 6.41016 1.99219 11.9414 1.99219C17.4727 1.99219 21.9141 6.42188 21.9141 11.9531C21.9141 17.4844 17.4844 21.9141 11.9531 21.9141Z" fill="#000000"/>
</svg>
