<?xml version="1.0" encoding="UTF-8"?>

<!--
  - Copyright (c) 2023. Compose Cupertino project and open source contributors.
  -
  -  Licensed under the Apache License, Version 2.0 (the "License");
  -  you may not use this file except in compliance with the License.
  -  You may obtain a copy of the License at
  -
  -      http://www.apache.org/licenses/LICENSE-2.0
  -
  -  Unless required by applicable law or agreed to in writing, software
  -  distributed under the License is distributed on an "AS IS" BASIS,
  -  WITHOUT WARRANTIES OR CONDITIONS OF ANY KIND, either express or implied.
  -  See the License for the specific language governing permissions and
  -  limitations under the License.
  -
  -->

<svg version="1.1" xmlns="http://www.w3.org/2000/svg" xmlns:xlink="http://www.w3.org/1999/xlink" width="23.9297" height="21.4805">
  <path d="M6.75 0L1.10156 0C0.480469 0 0 0.457031 0 1.05469C0 1.65234 0.480469 2.12109 1.10156 2.12109L6.25781 2.12109C6.67969 2.12109 6.98438 2.30859 7.16016 2.69531L14.8828 20.0391C15.3164 21.0234 16.0312 21.4805 17.1094 21.4805L22.8281 21.4805C23.4375 21.4805 23.9297 21.0117 23.9297 20.4258C23.9297 19.8398 23.4375 19.3594 22.8281 19.3594L17.6367 19.3594C17.168 19.3594 16.875 19.1836 16.6875 18.7969L9 1.46484C8.60156 0.550781 7.75781 0 6.75 0ZM22.8281 0L15.2461 0C14.625 0 14.1445 0.445312 14.1445 1.04297C14.1445 1.64062 14.625 2.09766 15.2461 2.09766L22.8281 2.09766C23.4492 2.09766 23.918 1.64062 23.918 1.04297C23.918 0.445312 23.4492 0 22.8281 0Z" fill="#000000"/>
</svg>
