<?xml version="1.0" encoding="UTF-8"?>

<!--
  - Copyright (c) 2023. Compose Cupertino project and open source contributors.
  -
  -  Licensed under the Apache License, Version 2.0 (the "License");
  -  you may not use this file except in compliance with the License.
  -  You may obtain a copy of the License at
  -
  -      http://www.apache.org/licenses/LICENSE-2.0
  -
  -  Unless required by applicable law or agreed to in writing, software
  -  distributed under the License is distributed on an "AS IS" BASIS,
  -  WITHOUT WARRANTIES OR CONDITIONS OF ANY KIND, either express or implied.
  -  See the License for the specific language governing permissions and
  -  limitations under the License.
  -
  -->

<svg version="1.1" xmlns="http://www.w3.org/2000/svg" xmlns:xlink="http://www.w3.org/1999/xlink" width="24.9261" height="27.8939">
  <path d="M1.47811 26.4098C3.43514 28.3669 5.7203 28.3903 7.64217 26.4684C9.06014 25.0505 10.5484 21.7106 11.65 20.3981L14.1461 22.9059C15.0601 23.8317 16.1617 23.8317 17.0523 22.9411L18.564 21.4176C19.4547 20.5153 19.4547 19.4489 18.5289 18.5231L9.37655 9.35905C8.45077 8.43327 7.37264 8.42155 6.4703 9.32389L4.95858 10.8473C4.06795 11.738 4.05624 12.8278 4.98202 13.7536L7.48983 16.2497C6.18905 17.3512 2.8492 18.8278 1.43124 20.2458C-0.49064 22.1676-0.478921 24.4645 1.47811 26.4098ZM6.58749 11.8903L7.5367 10.9645C7.84139 10.6598 8.16952 10.6481 8.4742 10.9528L16.9469 19.4137C17.2398 19.7184 17.2398 20.0465 16.9234 20.363L16.0094 21.2887C15.7047 21.6169 15.3531 21.6286 15.0484 21.3005L12.2476 18.488C11.814 18.0544 11.2515 18.1012 10.7594 18.5817C9.8453 19.484 8.23983 23.3395 6.37655 25.1911C5.25155 26.3278 3.89217 26.3278 2.7203 25.1676C1.57186 24.0075 1.56014 22.6364 2.69686 21.5114C4.56014 19.6598 8.41561 18.0544 9.31795 17.1403C9.7867 16.6364 9.8453 16.0739 9.4117 15.652L6.58749 12.8395C6.2828 12.5348 6.2828 12.195 6.58749 11.8903ZM4.51327 24.8512C5.31014 24.8512 5.95467 24.195 5.95467 23.3981C5.95467 22.6012 5.31014 21.9567 4.51327 21.9567C3.71639 21.9567 3.06014 22.6012 3.06014 23.3981C3.06014 24.195 3.71639 24.8512 4.51327 24.8512ZM18.4 19.6833L23.9664 14.1169C25.2672 12.8161 25.2437 11.2575 23.9078 9.92155L14.7086 0.710612C13.4781-0.519857 11.3453-0.0393881 10.9117 1.87077C9.82186 6.60514 9.77499 7.16764 7.98202 9.67546L9.32967 11.0231C11.3805 8.33952 11.5328 7.02702 12.6578 2.84342C12.8101 2.24577 13.3023 2.09342 13.7008 2.48014L22.4781 11.2458C23.0172 11.7848 23.0172 12.4411 22.5133 12.945L17.0875 18.3708ZM16.5484 13.0036C17.1695 13.6247 20.5914 11.7262 21.775 10.238L19.1969 7.67155C18.9742 9.74577 17.8961 11.2458 16.5836 12.5583C16.4312 12.7106 16.443 12.8981 16.5484 13.0036Z" fill="#000000"/>
</svg>
