<?xml version="1.0" encoding="UTF-8"?>

<!--
  - Copyright (c) 2023. Compose Cupertino project and open source contributors.
  -
  -  Licensed under the Apache License, Version 2.0 (the "License");
  -  you may not use this file except in compliance with the License.
  -  You may obtain a copy of the License at
  -
  -      http://www.apache.org/licenses/LICENSE-2.0
  -
  -  Unless required by applicable law or agreed to in writing, software
  -  distributed under the License is distributed on an "AS IS" BASIS,
  -  WITHOUT WARRANTIES OR CONDITIONS OF ANY KIND, either express or implied.
  -  See the License for the specific language governing permissions and
  -  limitations under the License.
  -
  -->

<svg version="1.1" xmlns="http://www.w3.org/2000/svg" xmlns:xlink="http://www.w3.org/1999/xlink" width="28.2305" height="23.707">
 <g>
  <path d="M15.1641 23.4727C20.0977 23.4727 23.3906 21.7266 23.3906 19.1484C23.3906 16.8398 21.4219 16.3242 21.4219 14.9648C21.4219 13.0898 28.2305 12.7148 28.2305 7.89844C28.2305 3.14062 23.3203 0 16.0312 0C6.45703 0 0 4.78125 0 11.9414C0 18.832 6.12891 23.4727 15.1641 23.4727ZM15.1641 21.4688C7.23047 21.4688 2.00391 17.6484 2.00391 11.9414C2.00391 5.96484 7.55859 2.00391 16.0312 2.00391C22.1836 2.00391 26.2266 4.39453 26.2266 7.89844C26.2266 11.9883 19.3711 11.4375 19.3711 14.9766C19.3711 16.9805 21.3867 17.6133 21.3867 18.9961C21.3867 20.4844 18.9375 21.4688 15.1641 21.4688ZM14.2031 18.7031C15.9844 18.7031 17.4492 17.2383 17.4492 15.4453C17.4492 13.6758 15.9844 12.2109 14.2031 12.2109C12.4219 12.2109 10.957 13.6758 10.957 15.4453C10.957 17.2383 12.4219 18.7031 14.2031 18.7031ZM14.2031 17.3438C13.1602 17.3438 12.3164 16.5 12.3164 15.4453C12.3164 14.2852 13.207 13.5938 14.1797 13.582C15.1758 13.5703 16.0898 14.25 16.0898 15.4453C16.0898 16.5 15.2578 17.3438 14.2031 17.3438Z" fill="#000000"/>
  <path d="M5.91797 13.5469C6.99609 13.5469 7.86328 12.6562 7.86328 11.5781C7.86328 10.5 6.99609 9.63281 5.91797 9.63281C4.85156 9.63281 3.97266 10.5 3.97266 11.5781C3.97266 12.6562 4.85156 13.5469 5.91797 13.5469Z" fill="#000000"/>
  <path d="M10.1953 9.79688C11.5547 9.79688 12.6562 8.70703 12.6562 7.32422C12.6562 5.97656 11.543 4.89844 10.1953 4.89844C8.82422 4.89844 7.72266 5.97656 7.72266 7.32422C7.72266 8.70703 8.82422 9.79688 10.1953 9.79688Z" fill="#000000"/>
  <path d="M16.1367 7.89844C17.2383 7.89844 18.1055 7.01953 18.1055 5.91797C18.1055 4.82812 17.2383 3.94922 16.1367 3.94922C15.0586 3.94922 14.1562 4.82812 14.1562 5.91797C14.1562 7.01953 15.0586 7.89844 16.1367 7.89844Z" fill="#000000"/>
  <path d="M21.4922 8.64844C22.3711 8.64844 23.0742 7.93359 23.0742 7.04297C23.0742 6.16406 22.3711 5.44922 21.4922 5.44922C20.6016 5.44922 19.875 6.16406 19.875 7.04297C19.875 7.93359 20.6016 8.64844 21.4922 8.64844Z" fill="#000000"/>
 </g>
</svg>
