<?xml version="1.0" encoding="UTF-8"?>

<!--
  - Copyright (c) 2023. Compose Cupertino project and open source contributors.
  -
  -  Licensed under the Apache License, Version 2.0 (the "License");
  -  you may not use this file except in compliance with the License.
  -  You may obtain a copy of the License at
  -
  -      http://www.apache.org/licenses/LICENSE-2.0
  -
  -  Unless required by applicable law or agreed to in writing, software
  -  distributed under the License is distributed on an "AS IS" BASIS,
  -  WITHOUT WARRANTIES OR CONDITIONS OF ANY KIND, either express or implied.
  -  See the License for the specific language governing permissions and
  -  limitations under the License.
  -
  -->

<svg version="1.1" xmlns="http://www.w3.org/2000/svg" xmlns:xlink="http://www.w3.org/1999/xlink" width="23.9062" height="23.918">
 <g>
  <path d="M11.9531 23.9062C18.4922 23.9062 23.9062 18.4805 23.9062 11.9531C23.9062 5.41406 18.4805 0 11.9414 0C5.41406 0 0 5.41406 0 11.9531C0 18.4805 5.42578 23.9062 11.9531 23.9062ZM11.9531 21.9141C6.42188 21.9141 2.00391 17.4844 2.00391 11.9531C2.00391 6.42188 6.41016 1.99219 11.9414 1.99219C17.4727 1.99219 21.9141 6.42188 21.9141 11.9531C21.9141 17.4844 17.4844 21.9141 11.9531 21.9141Z" fill="#000000"/>
  <path d="M6.76172 17.8477C8.42578 19.4766 10.6992 19.418 12.3047 17.8242L17.0977 13.043C17.332 12.8086 17.3555 12.3516 17.0977 12.1172C16.8516 11.8711 16.4062 11.8711 16.1602 12.1289L11.4258 16.8516C10.3359 17.9531 8.78906 17.9531 7.73438 16.9102C6.64453 15.8438 6.67969 14.3086 7.76953 13.1953L14.2266 6.73828C14.918 6.04688 15.8906 6.01172 16.5117 6.62109C17.1445 7.25391 17.0859 8.19141 16.3828 8.89453L10.0781 15.1992C9.86719 15.4336 9.60938 15.4219 9.39844 15.2344C9.17578 15.0469 9.1875 14.7539 9.41016 14.543L13.8164 10.1367C14.0859 9.86719 14.1094 9.49219 13.8398 9.23438C13.5703 8.96484 13.1953 8.97656 12.9258 9.24609L8.51953 13.6641C7.80469 14.3789 7.76953 15.4922 8.44922 16.1836C9.14062 16.8867 10.207 16.8633 10.9453 16.125L17.2852 9.78516C18.5273 8.54297 18.5742 6.85547 17.4141 5.69531C16.2305 4.53516 14.543 4.55859 13.3008 5.80078L6.79688 12.293C5.19141 13.8984 5.19141 16.3008 6.76172 17.8477Z" fill="#000000"/>
 </g>
</svg>
