<?xml version="1.0" encoding="UTF-8"?>

<!--
  - Copyright (c) 2023. Compose Cupertino project and open source contributors.
  -
  -  Licensed under the Apache License, Version 2.0 (the "License");
  -  you may not use this file except in compliance with the License.
  -  You may obtain a copy of the License at
  -
  -      http://www.apache.org/licenses/LICENSE-2.0
  -
  -  Unless required by applicable law or agreed to in writing, software
  -  distributed under the License is distributed on an "AS IS" BASIS,
  -  WITHOUT WARRANTIES OR CONDITIONS OF ANY KIND, either express or implied.
  -  See the License for the specific language governing permissions and
  -  limitations under the License.
  -
  -->

<svg version="1.1" xmlns="http://www.w3.org/2000/svg" xmlns:xlink="http://www.w3.org/1999/xlink" width="22.3366" height="25.4423">
  <path d="M19.0991 13.4301L10.4858 22.0434C8.24753 24.2934 5.23581 24.0708 3.31393 22.1255C1.38034 20.2036 1.15768 17.2153 3.39597 14.9653L15.1499 3.22312C16.4975 1.87546 18.478 1.68796 19.7671 2.9653C21.0444 4.26608 20.8569 6.23483 19.521 7.58249L8.03659 19.0669C7.46237 19.6645 6.75925 19.4887 6.36081 19.0903C5.96237 18.6801 5.79831 18.0005 6.37253 17.4028L14.3999 9.3989C14.7514 9.03562 14.7749 8.51999 14.435 8.18015C14.0952 7.85202 13.5796 7.87546 13.228 8.22702L5.17722 16.2778C3.9819 17.4731 4.02878 19.3012 5.08347 20.3559C6.2319 21.5044 7.96628 21.4809 9.17331 20.2739L20.7046 8.74265C22.896 6.55124 22.8022 3.66843 20.8921 1.75827C19.0288-0.105009 16.0991-0.245634 13.9077 1.94577L2.09518 13.77C-0.799347 16.6645-0.576691 20.8012 2.03659 23.4145C4.64987 26.0161 8.78659 26.2387 11.6811 23.3559L20.353 14.6841C20.6928 14.3442 20.6928 13.7231 20.3413 13.4067C20.0014 13.0434 19.4507 13.0903 19.0991 13.4301Z" fill="#000000"/>
</svg>
