<?xml version="1.0" encoding="UTF-8"?>

<!--
  - Copyright (c) 2023. Compose Cupertino project and open source contributors.
  -
  -  Licensed under the Apache License, Version 2.0 (the "License");
  -  you may not use this file except in compliance with the License.
  -  You may obtain a copy of the License at
  -
  -      http://www.apache.org/licenses/LICENSE-2.0
  -
  -  Unless required by applicable law or agreed to in writing, software
  -  distributed under the License is distributed on an "AS IS" BASIS,
  -  WITHOUT WARRANTIES OR CONDITIONS OF ANY KIND, either express or implied.
  -  See the License for the specific language governing permissions and
  -  limitations under the License.
  -
  -->

<svg version="1.1" xmlns="http://www.w3.org/2000/svg" xmlns:xlink="http://www.w3.org/1999/xlink" width="24.5508" height="25.9102">
  <path d="M14.6719 25.9102C15.5156 25.9102 16.1133 25.1836 16.5469 24.0586L24.2227 4.00781C24.4336 3.46875 24.5508 2.98828 24.5508 2.58984C24.5508 1.82812 24.082 1.35938 23.3203 1.35938C22.9219 1.35938 22.4414 1.47656 21.9023 1.6875L1.74609 9.41016C0.761719 9.78516 0 10.3828 0 11.2383C0 12.3164 0.820312 12.6797 1.94531 13.0195L10.4062 15.5039L12.8672 23.8594C13.2188 25.043 13.582 25.9102 14.6719 25.9102ZM10.9336 13.7227L2.84766 11.25C2.66016 11.1914 2.60156 11.1445 2.60156 11.0625C2.60156 10.9805 2.64844 10.9219 2.82422 10.8516L18.668 4.85156C19.6055 4.5 20.5078 4.03125 21.375 3.63281C20.6016 4.26562 19.6406 5.01562 18.9961 5.66016ZM14.8594 23.332C14.7656 23.332 14.7188 23.25 14.6602 23.0625L12.1875 14.9766L20.25 6.91406C20.8828 6.28125 21.668 5.29688 22.2891 4.5C21.8906 5.39062 21.4102 6.29297 21.0586 7.24219L15.0586 23.0859C14.9883 23.2617 14.9414 23.332 14.8594 23.332Z" fill="#000000"/>
</svg>
