<?xml version="1.0" encoding="UTF-8"?>

<!--
  - Copyright (c) 2023. Compose Cupertino project and open source contributors.
  -
  -  Licensed under the Apache License, Version 2.0 (the "License");
  -  you may not use this file except in compliance with the License.
  -  You may obtain a copy of the License at
  -
  -      http://www.apache.org/licenses/LICENSE-2.0
  -
  -  Unless required by applicable law or agreed to in writing, software
  -  distributed under the License is distributed on an "AS IS" BASIS,
  -  WITHOUT WARRANTIES OR CONDITIONS OF ANY KIND, either express or implied.
  -  See the License for the specific language governing permissions and
  -  limitations under the License.
  -
  -->

<svg version="1.1" xmlns="http://www.w3.org/2000/svg" xmlns:xlink="http://www.w3.org/1999/xlink" width="18.1055" height="22.1367">
  <path d="M0 6.12891C0 9.65625 2.48438 11.9883 6.25781 11.9883L8.15625 11.9883L8.15625 21.0586C8.15625 21.7148 8.56641 22.1367 9.23438 22.1367C9.89062 22.1367 10.3242 21.7148 10.3242 21.0586L10.3242 2.44922L12.8672 2.44922L12.8672 21.0586C12.8672 21.7148 13.2773 22.1367 13.9336 22.1367C14.6016 22.1367 15.0352 21.7148 15.0352 21.0586L15.0352 2.44922L17.0156 2.44922C17.6836 2.44922 18.1055 2.00391 18.1055 1.34766C18.1055 0.691406 17.6836 0.28125 17.0156 0.28125L6.19922 0.28125C2.46094 0.28125 0 2.60156 0 6.12891Z" fill="#000000"/>
</svg>
