<?xml version="1.0" encoding="UTF-8"?>

<!--
  - Copyright (c) 2023. Compose Cupertino project and open source contributors.
  -
  -  Licensed under the Apache License, Version 2.0 (the "License");
  -  you may not use this file except in compliance with the License.
  -  You may obtain a copy of the License at
  -
  -      http://www.apache.org/licenses/LICENSE-2.0
  -
  -  Unless required by applicable law or agreed to in writing, software
  -  distributed under the License is distributed on an "AS IS" BASIS,
  -  WITHOUT WARRANTIES OR CONDITIONS OF ANY KIND, either express or implied.
  -  See the License for the specific language governing permissions and
  -  limitations under the License.
  -
  -->

<svg version="1.1" xmlns="http://www.w3.org/2000/svg" xmlns:xlink="http://www.w3.org/1999/xlink" width="9.75" height="19.3711">
  <path d="M0.996094 19.3711C1.55859 19.3711 2.00391 18.9492 2.00391 18.3984L2.00391 0.996094C2.00391 0.445312 1.55859 0.0117188 0.996094 0.0117188C0.445312 0.0117188 0 0.445312 0 0.996094L0 18.3984C0 18.9492 0.445312 19.3711 0.996094 19.3711ZM8.74219 19.3711C9.29297 19.3711 9.75 18.9492 9.75 18.3984L9.75 0.996094C9.75 0.445312 9.29297 0.0117188 8.74219 0.0117188C8.19141 0.0117188 7.74609 0.445312 7.74609 0.996094L7.74609 18.3984C7.74609 18.9492 8.19141 19.3711 8.74219 19.3711Z" fill="#000000"/>
</svg>
