<?xml version="1.0" encoding="UTF-8"?>

<!--
  - Copyright (c) 2023. Compose Cupertino project and open source contributors.
  -
  -  Licensed under the Apache License, Version 2.0 (the "License");
  -  you may not use this file except in compliance with the License.
  -  You may obtain a copy of the License at
  -
  -      http://www.apache.org/licenses/LICENSE-2.0
  -
  -  Unless required by applicable law or agreed to in writing, software
  -  distributed under the License is distributed on an "AS IS" BASIS,
  -  WITHOUT WARRANTIES OR CONDITIONS OF ANY KIND, either express or implied.
  -  See the License for the specific language governing permissions and
  -  limitations under the License.
  -
  -->

<svg version="1.1" xmlns="http://www.w3.org/2000/svg" xmlns:xlink="http://www.w3.org/1999/xlink" width="23.9062" height="23.918">
 <g>
  <path d="M11.9531 23.9062C18.4922 23.9062 23.9062 18.4805 23.9062 11.9531C23.9062 5.41406 18.4805 0 11.9414 0C5.41406 0 0 5.41406 0 11.9531C0 18.4805 5.42578 23.9062 11.9531 23.9062ZM11.9531 21.9141C6.42188 21.9141 2.00391 17.4844 2.00391 11.9531C2.00391 6.42188 6.41016 1.99219 11.9414 1.99219C17.4727 1.99219 21.9141 6.42188 21.9141 11.9531C21.9141 17.4844 17.4844 21.9141 11.9531 21.9141Z" fill="#000000"/>
  <path d="M8.63672 16.5234L9.78516 16.5234C10.3711 16.5234 10.6406 16.207 10.6406 15.75L10.6406 8.13281C10.6406 7.6875 10.3711 7.37109 9.78516 7.37109L8.63672 7.37109C8.0625 7.37109 7.79297 7.6875 7.79297 8.13281L7.79297 15.75C7.79297 16.207 8.0625 16.5234 8.63672 16.5234ZM14.1211 16.5234L15.2695 16.5234C15.832 16.5234 16.1016 16.207 16.1016 15.75L16.1016 8.13281C16.1016 7.6875 15.832 7.37109 15.2695 7.37109L14.1211 7.37109C13.5352 7.37109 13.2656 7.6875 13.2656 8.13281L13.2656 15.75C13.2656 16.207 13.5352 16.5234 14.1211 16.5234Z" fill="#000000"/>
 </g>
</svg>
