<?xml version="1.0" encoding="UTF-8"?>

<!--
  - Copyright (c) 2023. Compose Cupertino project and open source contributors.
  -
  -  Licensed under the Apache License, Version 2.0 (the "License");
  -  you may not use this file except in compliance with the License.
  -  You may obtain a copy of the License at
  -
  -      http://www.apache.org/licenses/LICENSE-2.0
  -
  -  Unless required by applicable law or agreed to in writing, software
  -  distributed under the License is distributed on an "AS IS" BASIS,
  -  WITHOUT WARRANTIES OR CONDITIONS OF ANY KIND, either express or implied.
  -  See the License for the specific language governing permissions and
  -  limitations under the License.
  -
  -->

<svg version="1.1" xmlns="http://www.w3.org/2000/svg" xmlns:xlink="http://www.w3.org/1999/xlink" width="25.3359" height="24.8789">
  <path d="M8.13281 24.8203C9.30469 24.8203 10.1133 24.5391 10.7812 24.2578C11.4727 23.9648 12 23.6602 12.6562 23.6602C13.3008 23.6602 13.8281 23.9648 14.5312 24.2578C15.1992 24.5391 15.9961 24.8203 17.168 24.8203C19.6992 24.8203 21.6211 22.9922 21.6211 20.5898C21.6211 18.2109 20.2734 17.0977 19.0898 16.1484C18.4688 15.668 17.918 15.2344 17.6016 14.6953C17.2969 14.1914 17.0508 13.6289 16.8047 13.0664C16.043 11.2969 15.2227 9.46875 12.6562 9.46875C10.0781 9.46875 9.26953 11.2969 8.50781 13.0547C8.25 13.6289 8.01562 14.1797 7.72266 14.6719C7.39453 15.2109 6.83203 15.668 6.22266 16.1484C5.03906 17.0977 3.69141 18.2227 3.69141 20.5898C3.69141 22.9922 5.61328 24.8203 8.13281 24.8203ZM8.13281 23.1211C6.53906 23.1211 5.39062 22.0664 5.39062 20.5898C5.39062 17.8477 7.65234 18.082 9.09375 15.6211C10.1602 13.8164 10.5234 11.168 12.6562 11.168C14.7891 11.168 15.1406 13.8164 16.2188 15.6445C17.6602 18.082 19.9219 17.8477 19.9219 20.5898C19.9219 22.0664 18.7734 23.1211 17.168 23.1211C15.5391 23.1211 14.4727 21.9727 12.6562 21.9727C10.8398 21.9727 9.77344 23.1211 8.13281 23.1211ZM0 11.2031C0 13.8633 1.24219 15.6445 3.14062 15.6445C5.02734 15.6445 6.29297 13.8633 6.29297 11.2031C6.29297 8.54297 5.02734 6.76172 3.14062 6.76172C1.24219 6.76172 0 8.54297 0 11.2031ZM1.62891 11.2031C1.62891 9.51562 2.22656 8.39062 3.14062 8.39062C4.05469 8.39062 4.66406 9.51562 4.66406 11.2031C4.66406 12.8906 4.05469 14.0156 3.14062 14.0156C2.22656 14.0156 1.62891 12.8906 1.62891 11.2031ZM5.69531 4.42969C5.69531 7.10156 6.94922 8.85938 8.83594 8.85938C10.7344 8.85938 11.9883 7.07812 11.9883 4.42969C11.9883 1.76953 10.7344 0 8.83594 0C6.94922 0 5.69531 1.76953 5.69531 4.42969ZM7.32422 4.42969C7.32422 2.75391 7.92188 1.62891 8.83594 1.62891C9.75 1.62891 10.3594 2.75391 10.3594 4.42969C10.3594 6.11719 9.75 7.23047 8.83594 7.23047C7.92188 7.23047 7.32422 6.11719 7.32422 4.42969ZM13.3477 4.42969C13.3477 7.07812 14.6016 8.85938 16.5 8.85938C18.3867 8.85938 19.6406 7.10156 19.6406 4.42969C19.6406 1.76953 18.3867 0 16.5 0C14.6016 0 13.3477 1.76953 13.3477 4.42969ZM14.9766 4.42969C14.9766 2.75391 15.5859 1.62891 16.5 1.62891C17.4141 1.62891 18.0117 2.75391 18.0117 4.42969C18.0117 6.11719 17.4141 7.23047 16.5 7.23047C15.5859 7.23047 14.9766 6.11719 14.9766 4.42969ZM19.043 11.2031C19.043 13.8633 20.3086 15.6445 22.1953 15.6445C24.0938 15.6445 25.3359 13.8633 25.3359 11.2031C25.3359 8.54297 24.0938 6.76172 22.1953 6.76172C20.3086 6.76172 19.043 8.54297 19.043 11.2031ZM20.6719 11.2031C20.6719 9.51562 21.2812 8.39062 22.1953 8.39062C23.1094 8.39062 23.707 9.51562 23.707 11.2031C23.707 12.8906 23.1094 14.0156 22.1953 14.0156C21.2812 14.0156 20.6719 12.8906 20.6719 11.2031Z" fill="#000000"/>
</svg>
