<?xml version="1.0" encoding="UTF-8"?>

<!--
  - Copyright (c) 2023. Compose Cupertino project and open source contributors.
  -
  -  Licensed under the Apache License, Version 2.0 (the "License");
  -  you may not use this file except in compliance with the License.
  -  You may obtain a copy of the License at
  -
  -      http://www.apache.org/licenses/LICENSE-2.0
  -
  -  Unless required by applicable law or agreed to in writing, software
  -  distributed under the License is distributed on an "AS IS" BASIS,
  -  WITHOUT WARRANTIES OR CONDITIONS OF ANY KIND, either express or implied.
  -  See the License for the specific language governing permissions and
  -  limitations under the License.
  -
  -->

<svg version="1.1" xmlns="http://www.w3.org/2000/svg" xmlns:xlink="http://www.w3.org/1999/xlink" width="23.9062" height="23.918">
  <path d="M0 11.9531C0 18.4805 5.42578 23.9062 11.9531 23.9062C18.4922 23.9062 23.9062 18.4805 23.9062 11.9531C23.9062 5.41406 18.4805 0 11.9414 0C5.41406 0 0 5.41406 0 11.9531ZM2.00391 11.9531C2.00391 6.42188 6.41016 1.99219 11.9414 1.99219C17.4727 1.99219 21.9023 6.42188 21.9141 11.9531C21.9258 15.5039 20.0859 18.6094 17.3086 20.3672L15.8438 13.4883C15.7383 12.9258 15.293 12.5156 14.7539 12.4805L14.6719 12.4805L12.7266 6.63281C12.4688 5.87109 11.4492 5.87109 11.1914 6.63281L9.24609 12.4805L9.16406 12.4805C8.63672 12.5156 8.17969 12.9258 8.07422 13.4766L6.62109 20.3672C3.83203 18.6094 2.00391 15.5156 2.00391 11.9531ZM8.01562 21.1055L9.51562 13.9922L14.4141 13.9922L15.9141 21.1055C14.6953 21.6211 13.3594 21.9141 11.9531 21.9141C10.5469 21.9141 9.21094 21.6328 8.01562 21.1055Z" fill="#000000"/>
</svg>
