<?xml version="1.0" encoding="UTF-8"?>

<!--
  - Copyright (c) 2023. Compose Cupertino project and open source contributors.
  -
  -  Licensed under the Apache License, Version 2.0 (the "License");
  -  you may not use this file except in compliance with the License.
  -  You may obtain a copy of the License at
  -
  -      http://www.apache.org/licenses/LICENSE-2.0
  -
  -  Unless required by applicable law or agreed to in writing, software
  -  distributed under the License is distributed on an "AS IS" BASIS,
  -  WITHOUT WARRANTIES OR CONDITIONS OF ANY KIND, either express or implied.
  -  See the License for the specific language governing permissions and
  -  limitations under the License.
  -
  -->

<svg version="1.1" xmlns="http://www.w3.org/2000/svg" xmlns:xlink="http://www.w3.org/1999/xlink" width="21.4102" height="22.4065">
  <path d="M4.05469 10.9279C6.57422 10.9279 8.09766 8.85365 8.09766 5.54896C8.09766 2.24428 6.5625 0.205213 4.05469 0.205213C1.53516 0.205213 0 2.25599 0 5.54896C0 8.86537 1.52344 10.9279 4.05469 10.9279ZM4.05469 9.28724C2.69531 9.28724 1.88672 7.91615 1.88672 5.54896C1.88672 3.21693 2.70703 1.83412 4.05469 1.83412C5.40234 1.83412 6.21094 3.20521 6.21094 5.54896C6.21094 7.91615 5.41406 9.28724 4.05469 9.28724ZM17.3672 22.2013C19.8867 22.2013 21.4102 20.1271 21.4102 16.8341C21.4102 13.5177 19.875 11.4787 17.3672 11.4787C14.8477 11.4787 13.3125 13.5294 13.3125 16.8341C13.3125 20.1388 14.8359 22.2013 17.3672 22.2013ZM17.3672 20.5724C16.0078 20.5724 15.1992 19.1896 15.1992 16.8341C15.1992 14.4904 16.0195 13.1193 17.3672 13.1193C18.7148 13.1193 19.5234 14.4787 19.5234 16.8341C19.5234 19.1896 18.7266 20.5724 17.3672 20.5724ZM3.21094 22.2482C3.64453 22.4943 4.27734 22.4591 4.65234 21.9201L18.4219 1.56459C18.832 0.978651 18.5859 0.380995 18.1523 0.123182C17.7422-0.0994741 17.168-0.0525991 16.7578 0.533338L2.98828 20.8302C2.56641 21.4279 2.77734 21.9904 3.21094 22.2482Z" fill="#000000"/>
</svg>
