<?xml version="1.0" encoding="UTF-8"?>

<!--
  - Copyright (c) 2023. Compose Cupertino project and open source contributors.
  -
  -  Licensed under the Apache License, Version 2.0 (the "License");
  -  you may not use this file except in compliance with the License.
  -  You may obtain a copy of the License at
  -
  -      http://www.apache.org/licenses/LICENSE-2.0
  -
  -  Unless required by applicable law or agreed to in writing, software
  -  distributed under the License is distributed on an "AS IS" BASIS,
  -  WITHOUT WARRANTIES OR CONDITIONS OF ANY KIND, either express or implied.
  -  See the License for the specific language governing permissions and
  -  limitations under the License.
  -
  -->

<svg version="1.1" xmlns="http://www.w3.org/2000/svg" xmlns:xlink="http://www.w3.org/1999/xlink" width="23.9062" height="23.918">
 <g>
  <rect height="23.918" opacity="0" width="23.9062" x="0" y="0"/>
  <path d="M11.9531 23.9062C18.4922 23.9062 23.9062 18.4805 23.9062 11.9531C23.9062 5.41406 18.4805 0 11.9414 0C5.41406 0 0 5.41406 0 11.9531C0 18.4805 5.42578 23.9062 11.9531 23.9062ZM11.9531 21.9141C6.42188 21.9141 2.00391 17.4844 2.00391 11.9531C2.00391 6.42188 6.41016 1.99219 11.9414 1.99219C17.4727 1.99219 21.9141 6.42188 21.9141 11.9531C21.9141 17.4844 17.4844 21.9141 11.9531 21.9141ZM19.9688 19.6758L19.9336 19.5469C19.3594 17.8242 16.2656 15.9375 11.9531 15.9375C7.65234 15.9375 4.55859 17.8242 3.97266 19.5352L3.9375 19.6758C6.04688 21.7617 9.66797 22.9805 11.9531 22.9805C14.25 22.9805 17.8359 21.7734 19.9688 19.6758ZM11.9531 13.9453C14.2148 13.9688 15.9727 12.0469 15.9727 9.52734C15.9727 7.16016 14.2031 5.20312 11.9531 5.20312C9.70312 5.20312 7.92188 7.16016 7.93359 9.52734C7.94531 12.0469 9.70312 13.9219 11.9531 13.9453Z" fill="#000000"/>
 </g>
</svg>
