<?xml version="1.0" encoding="UTF-8"?>

<!--
  - Copyright (c) 2023. Compose Cupertino project and open source contributors.
  -
  -  Licensed under the Apache License, Version 2.0 (the "License");
  -  you may not use this file except in compliance with the License.
  -  You may obtain a copy of the License at
  -
  -      http://www.apache.org/licenses/LICENSE-2.0
  -
  -  Unless required by applicable law or agreed to in writing, software
  -  distributed under the License is distributed on an "AS IS" BASIS,
  -  WITHOUT WARRANTIES OR CONDITIONS OF ANY KIND, either express or implied.
  -  See the License for the specific language governing permissions and
  -  limitations under the License.
  -
  -->

<svg version="1.1" xmlns="http://www.w3.org/2000/svg" xmlns:xlink="http://www.w3.org/1999/xlink" width="23.9062" height="23.918">
 <g>
  <path d="M11.9531 23.9062C18.4922 23.9062 23.9062 18.4805 23.9062 11.9531C23.9062 5.41406 18.4805 0 11.9414 0C5.41406 0 0 5.41406 0 11.9531C0 18.4805 5.42578 23.9062 11.9531 23.9062ZM11.9531 21.9141C6.42188 21.9141 2.00391 17.4844 2.00391 11.9531C2.00391 6.42188 6.41016 1.99219 11.9414 1.99219C17.4727 1.99219 21.9141 6.42188 21.9141 11.9531C21.9141 17.4844 17.4844 21.9141 11.9531 21.9141Z" fill="#000000"/>
  <path d="M6.58594 17.8945L17.2969 17.8945C17.7656 17.8945 17.9883 17.5781 17.9883 17.1562C17.9883 15.8672 16.0547 12.5391 11.9414 12.5391C7.82812 12.5391 5.89453 15.8672 5.89453 17.1562C5.89453 17.5781 6.11719 17.8945 6.58594 17.8945ZM11.9414 11.5898C13.6055 11.6016 14.9531 10.1719 14.9531 8.29688C14.9531 6.53906 13.6055 5.08594 11.9414 5.08594C10.2773 5.08594 8.92969 6.53906 8.92969 8.29688C8.92969 10.1719 10.2773 11.5781 11.9414 11.5898Z" fill="#000000"/>
 </g>
</svg>
