<?xml version="1.0" encoding="UTF-8"?>

<!--
  - Copyright (c) 2023. Compose Cupertino project and open source contributors.
  -
  -  Licensed under the Apache License, Version 2.0 (the "License");
  -  you may not use this file except in compliance with the License.
  -  You may obtain a copy of the License at
  -
  -      http://www.apache.org/licenses/LICENSE-2.0
  -
  -  Unless required by applicable law or agreed to in writing, software
  -  distributed under the License is distributed on an "AS IS" BASIS,
  -  WITHOUT WARRANTIES OR CONDITIONS OF ANY KIND, either express or implied.
  -  See the License for the specific language governing permissions and
  -  limitations under the License.
  -
  -->

<svg version="1.1" xmlns="http://www.w3.org/2000/svg" xmlns:xlink="http://www.w3.org/1999/xlink" width="26.918" height="27.3644">
 <g>
  <path d="M2.88281 24.7271L17.6016 24.7271C19.5469 24.7271 20.4727 24.1412 20.4727 22.8521C20.4727 19.7818 16.6055 15.3404 10.2422 15.3404C3.87891 15.3404 0 19.7818 0 22.8521C0 24.1412 0.925781 24.7271 2.88281 24.7271ZM2.32031 22.9576C2.01562 22.9576 1.88672 22.8755 1.88672 22.6294C1.88672 20.7076 4.86328 17.1099 10.2422 17.1099C15.6211 17.1099 18.5859 20.7076 18.5859 22.6294C18.5859 22.8755 18.4688 22.9576 18.1641 22.9576ZM10.2422 13.7232C13.0312 13.7232 15.3047 11.2388 15.3047 8.21538C15.3047 5.2271 13.0547 2.85991 10.2422 2.85991C7.46484 2.85991 5.17969 5.26226 5.17969 8.23882C5.19141 11.2505 7.46484 13.7232 10.2422 13.7232ZM10.2422 11.9537C8.53125 11.9537 7.06641 10.313 7.06641 8.23882C7.06641 6.19976 8.50781 4.62944 10.2422 4.62944C12 4.62944 13.418 6.17632 13.418 8.21538C13.418 10.2896 11.9766 11.9537 10.2422 11.9537Z" fill="#000000"/>
  <path d="M18.9141 13.2076C19.3008 13.4771 19.8633 13.3951 20.168 12.938C21.0703 11.7544 21.6094 10.0084 21.6094 8.21538C21.6094 6.42241 21.0703 4.68804 20.168 3.49273C19.8633 3.03569 19.3008 2.95366 18.9141 3.22319C18.4336 3.55132 18.3633 4.13726 18.7266 4.61773C19.418 5.55523 19.793 6.85601 19.793 8.21538C19.793 9.57476 19.4062 10.8638 18.7266 11.813C18.375 12.3052 18.4336 12.8677 18.9141 13.2076Z" fill="#000000"/>
  <path d="M23.25 16.2662C23.6836 16.5591 24.2227 16.4537 24.5391 16.0084C26.0391 13.9459 26.918 11.1099 26.918 8.21538C26.918 5.32085 26.0508 2.46148 24.5391 0.422413C24.2227-0.0228998 23.6836-0.128369 23.25 0.1646C22.8281 0.457569 22.7461 1.00835 23.0977 1.48882C24.375 3.29351 25.1016 5.71929 25.1016 8.21538C25.1016 10.7115 24.3516 13.1255 23.0977 14.9419C22.7578 15.4224 22.8281 15.9732 23.25 16.2662Z" fill="#000000"/>
 </g>
</svg>
