<?xml version="1.0" encoding="UTF-8"?>

<!--
  - Copyright (c) 2023. Compose Cupertino project and open source contributors.
  -
  -  Licensed under the Apache License, Version 2.0 (the "License");
  -  you may not use this file except in compliance with the License.
  -  You may obtain a copy of the License at
  -
  -      http://www.apache.org/licenses/LICENSE-2.0
  -
  -  Unless required by applicable law or agreed to in writing, software
  -  distributed under the License is distributed on an "AS IS" BASIS,
  -  WITHOUT WARRANTIES OR CONDITIONS OF ANY KIND, either express or implied.
  -  See the License for the specific language governing permissions and
  -  limitations under the License.
  -
  -->

<svg version="1.1" xmlns="http://www.w3.org/2000/svg" xmlns:xlink="http://www.w3.org/1999/xlink" width="27.7969" height="22.1836">
 <g>
  <path d="M0.960938 1.61719C1.3125 1.61719 1.61719 1.3125 1.61719 0.960938C1.61719 0.597656 1.3125 0.304688 0.960938 0.304688C0.597656 0.304688 0.304688 0.597656 0.304688 0.960938C0.304688 1.3125 0.597656 1.61719 0.960938 1.61719ZM4.65234 1.61719C5.01562 1.61719 5.30859 1.3125 5.30859 0.960938C5.30859 0.597656 5.01562 0.304688 4.65234 0.304688C4.28906 0.304688 3.99609 0.597656 3.99609 0.960938C3.99609 1.3125 4.28906 1.61719 4.65234 1.61719ZM8.34375 1.61719C8.70703 1.61719 9 1.3125 9 0.960938C9 0.597656 8.70703 0.304688 8.34375 0.304688C7.99219 0.304688 7.6875 0.597656 7.6875 0.960938C7.6875 1.3125 7.99219 1.61719 8.34375 1.61719ZM12.0469 1.91016C12.5625 1.91016 12.9961 1.47656 12.9961 0.960938C12.9961 0.433594 12.5625 0 12.0469 0C11.5195 0 11.0859 0.433594 11.0859 0.960938C11.0859 1.47656 11.5195 1.91016 12.0469 1.91016ZM15.7383 1.91016C16.2539 1.91016 16.6875 1.47656 16.6875 0.960938C16.6875 0.433594 16.2539 0 15.7383 0C15.2109 0 14.7773 0.433594 14.7773 0.960938C14.7773 1.47656 15.2109 1.91016 15.7383 1.91016ZM19.4414 1.61719C19.8047 1.61719 20.0977 1.3125 20.0977 0.960938C20.0977 0.597656 19.8047 0.304688 19.4414 0.304688C19.0898 0.304688 18.7852 0.597656 18.7852 0.960938C18.7852 1.3125 19.0898 1.61719 19.4414 1.61719ZM23.1445 1.61719C23.4961 1.61719 23.8008 1.3125 23.8008 0.960938C23.8008 0.597656 23.4961 0.304688 23.1445 0.304688C22.7812 0.304688 22.4766 0.597656 22.4766 0.960938C22.4766 1.3125 22.7812 1.61719 23.1445 1.61719ZM26.8359 1.61719C27.1875 1.61719 27.4922 1.3125 27.4922 0.960938C27.4922 0.597656 27.1875 0.304688 26.8359 0.304688C26.4727 0.304688 26.1797 0.597656 26.1797 0.960938C26.1797 1.3125 26.4727 1.61719 26.8359 1.61719ZM0.960938 5.66016C1.3125 5.66016 1.61719 5.35547 1.61719 4.99219C1.61719 4.64062 1.3125 4.33594 0.960938 4.33594C0.597656 4.33594 0.304688 4.64062 0.304688 4.99219C0.304688 5.35547 0.597656 5.66016 0.960938 5.66016ZM4.65234 5.95312C5.17969 5.95312 5.61328 5.51953 5.61328 4.99219C5.61328 4.47656 5.17969 4.04297 4.65234 4.04297C4.125 4.04297 3.69141 4.47656 3.69141 4.99219C3.69141 5.51953 4.125 5.95312 4.65234 5.95312ZM8.34375 5.95312C8.49609 5.95312 8.64844 5.90625 8.77734 5.84766C8.92969 5.55469 9.10547 5.26172 9.30469 4.99219C9.30469 4.47656 8.87109 4.04297 8.34375 4.04297C7.82812 4.04297 7.39453 4.47656 7.39453 4.99219C7.39453 5.51953 7.82812 5.95312 8.34375 5.95312ZM19.4414 5.95312C19.9688 5.95312 20.4023 5.51953 20.4023 4.99219C20.4023 4.47656 19.9688 4.04297 19.4414 4.04297C18.9492 4.04297 18.5508 4.41797 18.4922 4.88672C18.7266 5.20312 18.9375 5.53125 19.1133 5.89453C19.2188 5.94141 19.3242 5.95312 19.4414 5.95312ZM23.1445 5.95312C23.6602 5.95312 24.0938 5.51953 24.0938 4.99219C24.0938 4.47656 23.6602 4.04297 23.1445 4.04297C22.6172 4.04297 22.1836 4.47656 22.1836 4.99219C22.1836 5.51953 22.6172 5.95312 23.1445 5.95312ZM26.8359 5.66016C27.1875 5.66016 27.4922 5.35547 27.4922 4.99219C27.4922 4.64062 27.1875 4.33594 26.8359 4.33594C26.4727 4.33594 26.1797 4.64062 26.1797 4.99219C26.1797 5.35547 26.4727 5.66016 26.8359 5.66016ZM0.960938 9.99609C1.47656 9.99609 1.91016 9.5625 1.91016 9.03516C1.91016 8.50781 1.47656 8.07422 0.960938 8.07422C0.433594 8.07422 0 8.50781 0 9.03516C0 9.5625 0.433594 9.99609 0.960938 9.99609ZM4.65234 10.2891C5.34375 10.2891 5.90625 9.72656 5.90625 9.03516C5.90625 8.34375 5.34375 7.78125 4.65234 7.78125C3.96094 7.78125 3.39844 8.34375 3.39844 9.03516C3.39844 9.72656 3.96094 10.2891 4.65234 10.2891ZM7.08984 9.03516C7.08984 9.70312 7.62891 10.2656 8.28516 10.2891C8.15625 9.79688 8.09766 9.26953 8.09766 8.73047C8.09766 8.40234 8.12109 8.09766 8.16797 7.79297C7.55859 7.88672 7.08984 8.40234 7.08984 9.03516ZM20.707 9.03516C20.707 8.4375 20.2734 7.93359 19.6992 7.80469C19.7461 8.09766 19.7578 8.39062 19.7578 8.70703C19.7578 9.25781 19.6992 9.78516 19.5703 10.2891C20.1914 10.2188 20.707 9.67969 20.707 9.03516ZM23.1445 10.2891C23.8242 10.2891 24.3984 9.72656 24.3984 9.03516C24.3984 8.34375 23.8242 7.78125 23.1445 7.78125C22.4531 7.78125 21.8789 8.34375 21.8789 9.03516C21.8789 9.72656 22.4531 10.2891 23.1445 10.2891ZM26.8359 9.99609C27.3633 9.99609 27.7969 9.5625 27.7969 9.03516C27.7969 8.50781 27.3633 8.07422 26.8359 8.07422C26.3086 8.07422 25.875 8.50781 25.875 9.03516C25.875 9.5625 26.3086 9.99609 26.8359 9.99609ZM0.960938 14.0273C1.47656 14.0273 1.91016 13.5938 1.91016 13.0781C1.91016 12.5508 1.47656 12.1172 0.960938 12.1172C0.433594 12.1172 0 12.5508 0 13.0781C0 13.5938 0.433594 14.0273 0.960938 14.0273ZM4.65234 14.332C5.34375 14.332 5.90625 13.7578 5.90625 13.0781C5.90625 12.3867 5.34375 11.8125 4.65234 11.8125C3.96094 11.8125 3.39844 12.3867 3.39844 13.0781C3.39844 13.7578 3.96094 14.332 4.65234 14.332ZM7.80469 14.2148C8.34375 13.8633 8.94141 13.582 9.57422 13.3242C9.72656 12.5508 9.14062 11.8125 8.34375 11.8125C7.66406 11.8125 7.08984 12.3867 7.08984 13.0781C7.08984 13.5703 7.39453 14.0039 7.80469 14.2148ZM20.0273 14.1797C20.4141 13.9688 20.707 13.5469 20.707 13.0781C20.707 12.3867 20.1328 11.8125 19.4414 11.8125C18.6562 11.8125 18.0703 12.5391 18.2227 13.3125C18.8672 13.5469 19.4648 13.8516 20.0273 14.1797ZM23.1445 14.332C23.8242 14.332 24.3984 13.7578 24.3984 13.0781C24.3984 12.3867 23.8242 11.8125 23.1445 11.8125C22.4531 11.8125 21.8789 12.3867 21.8789 13.0781C21.8789 13.7578 22.4531 14.332 23.1445 14.332ZM26.8359 14.0273C27.3633 14.0273 27.7969 13.5938 27.7969 13.0781C27.7969 12.5508 27.3633 12.1172 26.8359 12.1172C26.3086 12.1172 25.875 12.5508 25.875 13.0781C25.875 13.5938 26.3086 14.0273 26.8359 14.0273ZM0.960938 17.7656C1.3125 17.7656 1.61719 17.4727 1.61719 17.1094C1.61719 16.7578 1.3125 16.4531 0.960938 16.4531C0.597656 16.4531 0.304688 16.7578 0.304688 17.1094C0.304688 17.4727 0.597656 17.7656 0.960938 17.7656ZM4.24219 17.9648C4.51172 17.4258 4.86328 16.8867 5.26172 16.3828C5.09766 16.2422 4.88672 16.1602 4.65234 16.1602C4.125 16.1602 3.69141 16.5938 3.69141 17.1094C3.69141 17.4844 3.91406 17.8125 4.24219 17.9648ZM23.6016 17.9531C23.8828 17.7891 24.0938 17.4727 24.0938 17.1094C24.0938 16.5938 23.6602 16.1602 23.1445 16.1602C22.9102 16.1602 22.7227 16.2305 22.5586 16.3477C22.9805 16.8633 23.3203 17.4023 23.6016 17.9531ZM26.8359 17.7656C27.1875 17.7656 27.4922 17.4727 27.4922 17.1094C27.4922 16.7578 27.1875 16.4531 26.8359 16.4531C26.4727 16.4531 26.1797 16.7578 26.1797 17.1094C26.1797 17.4727 26.4727 17.7656 26.8359 17.7656ZM0.960938 21.8086C1.3125 21.8086 1.61719 21.5156 1.61719 21.1523C1.61719 20.7891 1.3125 20.4961 0.960938 20.4961C0.597656 20.4961 0.304688 20.7891 0.304688 21.1523C0.304688 21.5156 0.597656 21.8086 0.960938 21.8086ZM26.8359 21.8086C27.1875 21.8086 27.4922 21.5156 27.4922 21.1523C27.4922 20.7891 27.1875 20.4961 26.8359 20.4961C26.4727 20.4961 26.1797 20.7891 26.1797 21.1523C26.1797 21.5156 26.4727 21.8086 26.8359 21.8086Z" fill="#000000"/>
  <path d="M13.9219 13.1602C16.0664 13.1602 17.9648 11.2031 17.9648 8.70703C17.9648 6.21094 16.0664 4.39453 13.9219 4.39453C11.7891 4.39453 9.89062 6.25781 9.89062 8.73047C9.89062 11.2031 11.7891 13.1602 13.9219 13.1602ZM7.92188 22.0312L19.9219 22.0312C21.6562 22.0312 22.1836 21.5391 22.1836 20.6719C22.1836 18.1406 19.0312 14.6484 13.9219 14.6484C8.82422 14.6484 5.67188 18.1406 5.67188 20.6719C5.67188 21.5391 6.1875 22.0312 7.92188 22.0312Z" fill="#000000"/>
 </g>
</svg>
