<?xml version="1.0" encoding="UTF-8"?>

<!--
  - Copyright (c) 2023. Compose Cupertino project and open source contributors.
  -
  -  Licensed under the Apache License, Version 2.0 (the "License");
  -  you may not use this file except in compliance with the License.
  -  You may obtain a copy of the License at
  -
  -      http://www.apache.org/licenses/LICENSE-2.0
  -
  -  Unless required by applicable law or agreed to in writing, software
  -  distributed under the License is distributed on an "AS IS" BASIS,
  -  WITHOUT WARRANTIES OR CONDITIONS OF ANY KIND, either express or implied.
  -  See the License for the specific language governing permissions and
  -  limitations under the License.
  -
  -->

<svg version="1.1" xmlns="http://www.w3.org/2000/svg" xmlns:xlink="http://www.w3.org/1999/xlink" width="27.6328" height="21.5742">
 <g>
  <path d="M3.67969 21.5742L23.9531 21.5742C26.4141 21.5742 27.6328 20.3672 27.6328 17.9531L27.6328 3.63281C27.6328 1.21875 26.4141 0 23.9531 0L3.67969 0C1.23047 0 0 1.21875 0 3.63281L0 17.9531C0 20.3672 1.23047 21.5742 3.67969 21.5742ZM3.70312 19.6875C2.53125 19.6875 1.88672 19.0664 1.88672 17.8477L1.88672 3.73828C1.88672 2.51953 2.53125 1.88672 3.70312 1.88672L23.9297 1.88672C25.0898 1.88672 25.7461 2.51953 25.7461 3.73828L25.7461 17.8477C25.7461 19.0664 25.0898 19.6875 23.9297 19.6875Z" fill="#000000"/>
  <path d="M16.582 6.92578L22.9805 6.92578C23.3906 6.92578 23.707 6.60938 23.707 6.19922C23.707 5.80078 23.3906 5.48438 22.9805 5.48438L16.582 5.48438C16.1602 5.48438 15.8438 5.80078 15.8438 6.19922C15.8438 6.60938 16.1602 6.92578 16.582 6.92578ZM16.582 11.5195L22.9805 11.5195C23.3906 11.5195 23.707 11.1914 23.707 10.7812C23.707 10.3828 23.3906 10.0781 22.9805 10.0781L16.582 10.0781C16.1602 10.0781 15.8438 10.3828 15.8438 10.7812C15.8438 11.1914 16.1602 11.5195 16.582 11.5195ZM16.582 16.1016L22.9805 16.1016C23.3906 16.1016 23.707 15.7969 23.707 15.3984C23.707 14.9883 23.3906 14.6602 22.9805 14.6602L16.582 14.6602C16.1602 14.6602 15.8438 14.9883 15.8438 15.3984C15.8438 15.7969 16.1602 16.1016 16.582 16.1016ZM4.37109 16.1016L13.5234 16.1016C13.9102 16.1016 14.0977 15.8438 14.0977 15.4922C14.0977 14.3906 12.4453 11.5547 8.94141 11.5547C5.4375 11.5547 3.79688 14.3906 3.79688 15.4922C3.79688 15.8438 3.98438 16.1016 4.37109 16.1016ZM8.94141 10.7344C10.3711 10.7461 11.5078 9.53906 11.5078 7.93359C11.5078 6.43359 10.3711 5.19141 8.94141 5.19141C7.52344 5.19141 6.375 6.43359 6.375 7.93359C6.375 9.53906 7.52344 10.7344 8.94141 10.7344Z" fill="#000000"/>
 </g>
</svg>
