<?xml version="1.0" encoding="UTF-8"?>

<!--
  - Copyright (c) 2023. Compose Cupertino project and open source contributors.
  -
  -  Licensed under the Apache License, Version 2.0 (the "License");
  -  you may not use this file except in compliance with the License.
  -  You may obtain a copy of the License at
  -
  -      http://www.apache.org/licenses/LICENSE-2.0
  -
  -  Unless required by applicable law or agreed to in writing, software
  -  distributed under the License is distributed on an "AS IS" BASIS,
  -  WITHOUT WARRANTIES OR CONDITIONS OF ANY KIND, either express or implied.
  -  See the License for the specific language governing permissions and
  -  limitations under the License.
  -
  -->

<svg version="1.1" xmlns="http://www.w3.org/2000/svg" xmlns:xlink="http://www.w3.org/1999/xlink" width="23.9062" height="23.918">
 <g>
  <path d="M11.9531 23.9062C18.4922 23.9062 23.9062 18.4805 23.9062 11.9531C23.9062 5.41406 18.4805 0 11.9414 0C5.41406 0 0 5.41406 0 11.9531C0 18.4805 5.42578 23.9062 11.9531 23.9062ZM11.9531 21.9141C6.42188 21.9141 2.00391 17.4844 2.00391 11.9531C2.00391 6.42188 6.41016 1.99219 11.9414 1.99219C17.4727 1.99219 21.9141 6.42188 21.9141 11.9531C21.9141 17.4844 17.4844 21.9141 11.9531 21.9141Z" fill="#000000"/>
  <path d="M9.09375 14.6953C11.8242 17.4375 15.3047 19.1719 17.3672 17.1211C17.4492 17.0391 17.5078 16.9688 17.5664 16.8867C18.1055 16.2891 18.2461 15.5039 17.5664 14.9766C17.0273 14.5898 16.4531 14.1797 15.4805 13.5117C14.8008 13.0312 14.3555 13.1484 13.8281 13.6758L13.3594 14.1328C13.2305 14.2617 12.9961 14.25 12.8438 14.1562C12.4219 13.9102 11.7422 13.3594 11.0859 12.7031C10.4414 12.0586 9.86719 11.332 9.63281 10.9453C9.55078 10.8164 9.50391 10.6055 9.65625 10.4531L10.1133 9.96094C10.6406 9.41016 10.7578 8.98828 10.2656 8.29688L8.82422 6.25781C8.33203 5.56641 7.61719 5.70703 6.83203 6.28125C6.77344 6.32812 6.72656 6.375 6.67969 6.42188C4.60547 8.48438 6.36328 11.9648 9.09375 14.6953Z" fill="#000000"/>
 </g>
</svg>
