<?xml version="1.0" encoding="UTF-8"?>

<!--
  - Copyright (c) 2023. Compose Cupertino project and open source contributors.
  -
  -  Licensed under the Apache License, Version 2.0 (the "License");
  -  you may not use this file except in compliance with the License.
  -  You may obtain a copy of the License at
  -
  -      http://www.apache.org/licenses/LICENSE-2.0
  -
  -  Unless required by applicable law or agreed to in writing, software
  -  distributed under the License is distributed on an "AS IS" BASIS,
  -  WITHOUT WARRANTIES OR CONDITIONS OF ANY KIND, either express or implied.
  -  See the License for the specific language governing permissions and
  -  limitations under the License.
  -
  -->

<svg version="1.1" xmlns="http://www.w3.org/2000/svg" xmlns:xlink="http://www.w3.org/1999/xlink" width="24.8936" height="26.7832">
 <g>
  <path d="M17.0391 24.8818C19.0781 24.8818 20.4258 24.3311 21.6211 22.9951C21.7148 22.9014 21.7969 22.7959 21.8906 22.7021C22.5938 21.917 22.9219 21.1436 22.9219 20.4053C22.9219 19.5615 22.4297 18.7764 21.3867 18.0498L17.9766 15.6826C16.9219 14.9561 15.6914 14.874 14.707 15.8467L13.8047 16.749C13.5352 17.0186 13.3008 17.0303 13.0312 16.8662C12.4102 16.4678 11.1328 15.3545 10.2656 14.4873C9.35156 13.585 8.46094 12.5771 8.00391 11.8389C7.83984 11.5693 7.86328 11.3467 8.13281 11.0771L9.02344 10.1748C10.0078 9.19043 9.92578 7.94824 9.19922 6.90527L6.82031 3.49512C6.10547 2.45215 5.32031 1.97168 4.47656 1.95996C3.73828 1.94824 2.96484 2.28809 2.17969 2.99121C2.07422 3.08496 1.98047 3.16699 1.875 3.24902C0.550781 4.44434 0 5.79199 0 7.81934C0 11.1709 2.0625 15.249 5.84766 19.0342C9.60938 22.7959 13.6992 24.8818 17.0391 24.8818ZM17.0508 23.0771C14.0625 23.1357 10.2305 20.8389 7.19531 17.8154C4.13672 14.7686 1.73438 10.8076 1.79297 7.81934C1.81641 6.53027 2.26172 5.41699 3.1875 4.62012C3.25781 4.5498 3.32812 4.49121 3.41016 4.43262C3.75 4.12793 4.13672 3.96387 4.46484 3.96387C4.81641 3.96387 5.12109 4.09277 5.34375 4.44434L7.61719 7.85449C7.86328 8.21777 7.88672 8.62793 7.52344 8.99121L6.49219 10.0225C5.67188 10.8311 5.74219 11.8154 6.32812 12.6006C6.99609 13.5029 8.15625 14.8154 9.04688 15.7061C9.94922 16.6084 11.3672 17.874 12.2695 18.5537C13.0547 19.1396 14.0508 19.1982 14.8594 18.3896L15.8906 17.3584C16.2539 16.9951 16.6523 17.0186 17.0156 17.2529L20.4258 19.5264C20.7773 19.7607 20.918 20.0537 20.918 20.4053C20.918 20.7451 20.7539 21.1201 20.4375 21.4717C20.3789 21.5537 20.332 21.6123 20.2617 21.6943C19.4531 22.6084 18.3398 23.0537 17.0508 23.0771Z" fill="#000000"/>
  <path d="M12.75 12.1318C13.3828 12.7646 14.3906 12.7646 15.0234 12.1318C15.6445 11.499 15.6445 10.4912 15.0234 9.88184C14.3906 9.2373 13.3828 9.2373 12.75 9.8584C12.1172 10.4912 12.1172 11.499 12.75 12.1318ZM13.9102 5.63965C13.5352 6.00293 13.5352 6.6123 13.9102 6.97559L17.9062 10.9834C18.2695 11.3467 18.8789 11.3467 19.2422 10.9834C19.6055 10.6201 19.6055 10.0107 19.2422 9.64746L15.2344 5.63965C14.8711 5.27637 14.2617 5.27637 13.9102 5.63965ZM18.1289 6.77637C18.7617 7.37402 19.7695 7.38574 20.3906 6.75293C21.0117 6.13184 21.0117 5.12402 20.3906 4.50293C19.7695 3.87012 18.75 3.87012 18.1289 4.49121C17.4961 5.12402 17.4961 6.12012 18.1289 6.77637ZM19.2891 0.272461C18.9258 0.635742 18.9258 1.2334 19.2891 1.6084L23.2734 5.60449C23.6484 5.97949 24.2578 5.97949 24.6211 5.60449C24.9844 5.24121 24.9844 4.64355 24.6211 4.28027L20.625 0.272461C20.25-0.0908203 19.6406-0.0908203 19.2891 0.272461Z" fill="#000000"/>
 </g>
</svg>
