<?xml version="1.0" encoding="UTF-8"?>

<!--
  - Copyright (c) 2023. Compose Cupertino project and open source contributors.
  -
  -  Licensed under the Apache License, Version 2.0 (the "License");
  -  you may not use this file except in compliance with the License.
  -  You may obtain a copy of the License at
  -
  -      http://www.apache.org/licenses/LICENSE-2.0
  -
  -  Unless required by applicable law or agreed to in writing, software
  -  distributed under the License is distributed on an "AS IS" BASIS,
  -  WITHOUT WARRANTIES OR CONDITIONS OF ANY KIND, either express or implied.
  -  See the License for the specific language governing permissions and
  -  limitations under the License.
  -
  -->

<svg version="1.1" xmlns="http://www.w3.org/2000/svg" xmlns:xlink="http://www.w3.org/1999/xlink" width="22.9219" height="22.9805">
  <path d="M17.0391 22.9805C19.0898 22.9805 20.4375 22.4297 21.6211 21.0938C21.7148 21 21.8086 20.8945 21.8906 20.8008C22.5938 20.0156 22.9219 19.2422 22.9219 18.5039C22.9219 17.6602 22.4297 16.875 21.3867 16.1484L17.9766 13.7812C16.9219 13.0547 15.6914 12.9727 14.707 13.9453L13.8047 14.8477C13.5352 15.1172 13.3008 15.1289 13.043 14.9648C12.4102 14.5664 11.1328 13.4531 10.2656 12.5859C9.35156 11.6836 8.47266 10.6758 8.00391 9.9375C7.85156 9.66797 7.86328 9.44531 8.13281 9.17578L9.02344 8.27344C10.0078 7.28906 9.92578 6.04688 9.19922 5.00391L6.83203 1.59375C6.10547 0.550781 5.32031 0.0703125 4.47656 0.0585938C3.73828 0.046875 2.96484 0.386719 2.17969 1.08984C2.07422 1.18359 1.98047 1.26562 1.88672 1.34766C0.550781 2.54297 0 3.89062 0 5.91797C0 9.26953 2.0625 13.3477 5.84766 17.1328C9.60938 20.8945 13.6992 22.9805 17.0391 22.9805ZM17.0508 21.1758C14.0625 21.2344 10.2305 18.9375 7.19531 15.9141C4.13672 12.8672 1.73438 8.90625 1.79297 5.91797C1.81641 4.62891 2.27344 3.51562 3.1875 2.71875C3.26953 2.64844 3.32812 2.58984 3.41016 2.53125C3.76172 2.22656 4.13672 2.0625 4.47656 2.0625C4.81641 2.0625 5.12109 2.19141 5.34375 2.54297L7.61719 5.95312C7.86328 6.31641 7.88672 6.72656 7.52344 7.08984L6.49219 8.12109C5.68359 8.92969 5.74219 9.91406 6.32812 10.6992C6.99609 11.6016 8.15625 12.9141 9.05859 13.8047C9.94922 14.707 11.3672 15.9727 12.2812 16.6523C13.0664 17.2383 14.0508 17.2969 14.8594 16.4883L15.8906 15.457C16.2539 15.0938 16.6523 15.1172 17.0273 15.3516L20.4375 17.625C20.7891 17.8594 20.918 18.1523 20.918 18.5039C20.918 18.8438 20.7539 19.2188 20.4492 19.5703C20.3789 19.6523 20.332 19.7109 20.2617 19.793C19.4648 20.707 18.3516 21.1523 17.0508 21.1758Z" fill="#000000"/>
</svg>
