<?xml version="1.0" encoding="UTF-8"?>

<!--
  - Copyright (c) 2023. Compose Cupertino project and open source contributors.
  -
  -  Licensed under the Apache License, Version 2.0 (the "License");
  -  you may not use this file except in compliance with the License.
  -  You may obtain a copy of the License at
  -
  -      http://www.apache.org/licenses/LICENSE-2.0
  -
  -  Unless required by applicable law or agreed to in writing, software
  -  distributed under the License is distributed on an "AS IS" BASIS,
  -  WITHOUT WARRANTIES OR CONDITIONS OF ANY KIND, either express or implied.
  -  See the License for the specific language governing permissions and
  -  limitations under the License.
  -
  -->

<svg version="1.1" xmlns="http://www.w3.org/2000/svg" xmlns:xlink="http://www.w3.org/1999/xlink" width="24.7266" height="23.8242">
 <g>
  <path d="M17.0391 23.4023C19.0781 23.4023 20.4258 22.8516 21.6211 21.5156C21.7148 21.4219 21.7969 21.3164 21.8906 21.2227C22.5938 20.4375 22.9219 19.6641 22.9219 18.9258C22.9219 18.082 22.4297 17.2969 21.3867 16.5703L17.9766 14.2031C16.9219 13.4766 15.6914 13.3945 14.707 14.3672L13.8047 15.2695C13.5352 15.5391 13.3008 15.5508 13.0312 15.3867C12.4102 14.9883 11.1328 13.875 10.2656 13.0078C9.35156 12.1055 8.46094 11.0977 8.00391 10.3594C7.83984 10.0898 7.86328 9.86719 8.13281 9.59766L9.02344 8.69531C10.0078 7.71094 9.92578 6.46875 9.19922 5.42578L6.82031 2.01562C6.10547 0.972656 5.32031 0.492188 4.47656 0.480469C3.73828 0.46875 2.96484 0.808594 2.17969 1.51172C2.07422 1.60547 1.98047 1.6875 1.875 1.76953C0.550781 2.96484 0 4.3125 0 6.33984C0 9.69141 2.0625 13.7695 5.84766 17.5547C9.60938 21.3164 13.6992 23.4023 17.0391 23.4023ZM17.0508 21.5977C14.0625 21.6562 10.2305 19.3594 7.19531 16.3359C4.13672 13.2891 1.73438 9.32812 1.79297 6.33984C1.81641 5.05078 2.26172 3.9375 3.1875 3.14062C3.25781 3.07031 3.32812 3.01172 3.41016 2.95312C3.75 2.64844 4.13672 2.48438 4.46484 2.48438C4.81641 2.48438 5.12109 2.61328 5.34375 2.96484L7.61719 6.375C7.86328 6.73828 7.88672 7.14844 7.52344 7.51172L6.49219 8.54297C5.67188 9.35156 5.74219 10.3359 6.32812 11.1211C6.99609 12.0234 8.15625 13.3359 9.04688 14.2266C9.94922 15.1289 11.3672 16.3945 12.2695 17.0742C13.0547 17.6602 14.0508 17.7188 14.8594 16.9102L15.8906 15.8789C16.2539 15.5156 16.6523 15.5391 17.0156 15.7734L20.4258 18.0469C20.7773 18.2812 20.918 18.5742 20.918 18.9258C20.918 19.2656 20.7539 19.6406 20.4375 19.9922C20.3789 20.0742 20.332 20.1328 20.2617 20.2148C19.4531 21.1289 18.3398 21.5742 17.0508 21.5977Z" fill="#000000"/>
  <path d="M13.0664 7.07812C13.4531 7.07812 13.7344 6.78516 13.7344 6.43359L13.7344 4.64062C13.7344 4.27734 13.4531 3.98438 13.0664 3.98438C12.7031 3.98438 12.4219 4.27734 12.4219 4.64062L12.4219 6.43359C12.4219 6.78516 12.7031 7.07812 13.0664 7.07812Z" fill="#000000"/>
  <path d="M15.8203 9.04688C16.1953 9.04688 16.4883 8.75391 16.4883 8.37891L16.4883 2.68359C16.4883 2.32031 16.1953 2.02734 15.8203 2.02734C15.457 2.02734 15.1641 2.32031 15.1641 2.68359L15.1641 8.37891C15.1641 8.75391 15.457 9.04688 15.8203 9.04688Z" fill="#000000"/>
  <path d="M18.5742 11.0742C18.9492 11.0742 19.2305 10.7812 19.2305 10.418L19.2305 0.679688C19.2305 0.292969 18.9492 0 18.5742 0C18.1992 0 17.918 0.292969 17.918 0.679688L17.918 10.418C17.918 10.793 18.1875 11.0742 18.5742 11.0742Z" fill="#000000"/>
  <path d="M21.3047 9.90234C21.6914 9.90234 21.9844 9.62109 21.9844 9.24609L21.9844 1.81641C21.9844 1.45312 21.6914 1.17188 21.3047 1.17188C20.9531 1.17188 20.6602 1.45312 20.6602 1.81641L20.6602 9.24609C20.6602 9.62109 20.9531 9.90234 21.3047 9.90234Z" fill="#000000"/>
  <path d="M24.0703 7.69922C24.457 7.69922 24.7266 7.41797 24.7266 7.03125L24.7266 4.03125C24.7266 3.65625 24.457 3.36328 24.0703 3.36328C23.6953 3.36328 23.4141 3.66797 23.4141 4.03125L23.4141 7.03125C23.4141 7.40625 23.6953 7.69922 24.0703 7.69922Z" fill="#000000"/>
 </g>
</svg>
