<?xml version="1.0" encoding="UTF-8"?>

<!--
  - Copyright (c) 2023. Compose Cupertino project and open source contributors.
  -
  -  Licensed under the Apache License, Version 2.0 (the "License");
  -  you may not use this file except in compliance with the License.
  -  You may obtain a copy of the License at
  -
  -      http://www.apache.org/licenses/LICENSE-2.0
  -
  -  Unless required by applicable law or agreed to in writing, software
  -  distributed under the License is distributed on an "AS IS" BASIS,
  -  WITHOUT WARRANTIES OR CONDITIONS OF ANY KIND, either express or implied.
  -  See the License for the specific language governing permissions and
  -  limitations under the License.
  -
  -->

<svg version="1.1" xmlns="http://www.w3.org/2000/svg" xmlns:xlink="http://www.w3.org/1999/xlink" width="23.0391" height="23.0273">
 <g>
  <path d="M17.0391 23.0039C19.0898 23.0039 20.4375 22.4531 21.6211 21.1172C21.7148 21.0234 21.8086 20.918 21.8906 20.8242C22.5938 20.0391 22.9219 19.2656 22.9219 18.5273C22.9219 17.6836 22.4297 16.8984 21.3867 16.1719L17.9766 13.8047C16.9219 13.0781 15.6914 12.9961 14.707 13.9688L13.8047 14.8711C13.5352 15.1406 13.3008 15.1523 13.043 14.9883C12.4102 14.5898 11.1328 13.4766 10.2656 12.6094C9.35156 11.707 8.47266 10.6992 8.00391 9.96094C7.85156 9.69141 7.86328 9.46875 8.13281 9.19922L9.02344 8.29688C10.0078 7.3125 9.92578 6.07031 9.19922 5.02734L6.83203 1.61719C6.10547 0.574219 5.32031 0.09375 4.47656 0.0820312C3.73828 0.0703125 2.96484 0.410156 2.17969 1.11328C2.07422 1.20703 1.98047 1.28906 1.88672 1.37109C0.550781 2.56641 0 3.91406 0 5.94141C0 9.29297 2.0625 13.3711 5.84766 17.1562C9.60938 20.918 13.6992 23.0039 17.0391 23.0039ZM17.0508 21.1992C14.0625 21.2578 10.2305 18.9609 7.19531 15.9375C4.13672 12.8906 1.73438 8.92969 1.79297 5.94141C1.81641 4.65234 2.27344 3.53906 3.1875 2.74219C3.26953 2.67188 3.32812 2.61328 3.41016 2.55469C3.76172 2.25 4.13672 2.08594 4.47656 2.08594C4.81641 2.08594 5.12109 2.21484 5.34375 2.56641L7.61719 5.97656C7.86328 6.33984 7.88672 6.75 7.52344 7.11328L6.49219 8.14453C5.68359 8.95312 5.74219 9.9375 6.32812 10.7227C6.99609 11.625 8.15625 12.9375 9.05859 13.8281C9.94922 14.7305 11.3672 15.9961 12.2812 16.6758C13.0664 17.2617 14.0508 17.3203 14.8594 16.5117L15.8906 15.4805C16.2539 15.1172 16.6523 15.1406 17.0273 15.375L20.4375 17.6484C20.7891 17.8828 20.918 18.1758 20.918 18.5273C20.918 18.8672 20.7539 19.2422 20.4492 19.5938C20.3789 19.6758 20.332 19.7344 20.2617 19.8164C19.4648 20.7305 18.3516 21.1758 17.0508 21.1992Z" fill="#000000"/>
  <path d="M22.1719 0C21.9258 0 21.7383 0.0820312 21.5625 0.257812L16.5117 5.32031L14.7188 7.26562L14.9062 3.83203L14.9062 2.08594C14.9062 1.62891 14.5664 1.27734 14.1094 1.25391C13.6406 1.23047 13.2305 1.60547 13.2305 2.08594L13.2305 8.87109C13.2305 9.49219 13.5352 9.80859 14.1562 9.80859L20.9648 9.80859C21.4453 9.80859 21.832 9.41016 21.8086 8.92969C21.7852 8.47266 21.4219 8.13281 20.9648 8.13281L19.1953 8.13281L15.75 8.32031L17.7188 6.52734L22.7578 1.46484C22.957 1.27734 23.0391 1.06641 23.0391 0.820312C23.0391 0.363281 22.6641 0 22.1719 0Z" fill="#000000"/>
 </g>
</svg>
