<?xml version="1.0" encoding="UTF-8"?>

<!--
  - Copyright (c) 2023. Compose Cupertino project and open source contributors.
  -
  -  Licensed under the Apache License, Version 2.0 (the "License");
  -  you may not use this file except in compliance with the License.
  -  You may obtain a copy of the License at
  -
  -      http://www.apache.org/licenses/LICENSE-2.0
  -
  -  Unless required by applicable law or agreed to in writing, software
  -  distributed under the License is distributed on an "AS IS" BASIS,
  -  WITHOUT WARRANTIES OR CONDITIONS OF ANY KIND, either express or implied.
  -  See the License for the specific language governing permissions and
  -  limitations under the License.
  -
  -->

<svg version="1.1" xmlns="http://www.w3.org/2000/svg" xmlns:xlink="http://www.w3.org/1999/xlink" width="24.5508" height="25.9805">
  <path d="M3.84375 25.6172L20.7305 25.6172C22.9336 25.6172 24.0938 24.4922 24.0938 22.2891L24.0938 21.4805L18.2461 15.9492C17.7539 15.4922 17.1445 15.2695 16.5352 15.2695C15.9141 15.2695 15.3633 15.4688 14.8359 15.9375L9.73828 20.4375L7.69922 18.6211C7.21875 18.1875 6.71484 17.9648 6.17578 17.9648C5.67188 17.9648 5.20312 18.1992 4.72266 18.6094L0.46875 22.2891C0.46875 24.4922 1.64062 25.6172 3.84375 25.6172ZM8.82422 16.2305C10.3008 16.2305 11.5078 15 11.5078 13.5352C11.5078 12.0703 10.3008 10.8633 8.82422 10.8633C7.34766 10.8633 6.15234 12.0703 6.15234 13.5352C6.15234 15 7.34766 16.2305 8.82422 16.2305ZM3.67969 25.9453L20.8711 25.9453C23.3086 25.9453 24.5508 24.7266 24.5508 22.3125L24.5508 10.2773C24.5508 7.86328 23.3086 6.64453 20.8711 6.64453L3.67969 6.64453C1.21875 6.64453 0 7.86328 0 10.2773L0 22.3125C0 24.7266 1.21875 25.9453 3.67969 25.9453ZM3.70312 24.0586C2.53125 24.0586 1.88672 23.4258 1.88672 22.207L1.88672 10.3828C1.88672 9.16406 2.53125 8.53125 3.70312 8.53125L20.8359 8.53125C21.9961 8.53125 22.6641 9.16406 22.6641 10.3828L22.6641 22.207C22.6641 23.4258 21.9961 24.0586 20.8359 24.0586ZM2.47266 4.75781L22.0898 4.75781C21.9141 3.69141 21.4102 3.10547 20.2383 3.10547L4.32422 3.10547C3.15234 3.10547 2.64844 3.69141 2.47266 4.75781ZM4.88672 1.51172L19.6758 1.51172C19.6055 0.515625 19.043 0 17.9531 0L6.59766 0C5.51953 0 4.95703 0.515625 4.88672 1.51172Z" fill="#000000"/>
</svg>
