<?xml version="1.0" encoding="UTF-8"?>

<!--
  - Copyright (c) 2023. Compose Cupertino project and open source contributors.
  -
  -  Licensed under the Apache License, Version 2.0 (the "License");
  -  you may not use this file except in compliance with the License.
  -  You may obtain a copy of the License at
  -
  -      http://www.apache.org/licenses/LICENSE-2.0
  -
  -  Unless required by applicable law or agreed to in writing, software
  -  distributed under the License is distributed on an "AS IS" BASIS,
  -  WITHOUT WARRANTIES OR CONDITIONS OF ANY KIND, either express or implied.
  -  See the License for the specific language governing permissions and
  -  limitations under the License.
  -
  -->

<svg version="1.1" xmlns="http://www.w3.org/2000/svg" xmlns:xlink="http://www.w3.org/1999/xlink" width="29.2969" height="24.2227">
  <path d="M27.9492 16.6875L20.9766 10.1484C20.4609 9.66797 19.8516 9.43359 19.207 9.43359C18.5742 9.43359 17.9883 9.65625 17.4492 10.1367L11.4258 15.5156L11.9414 15.5156L9.04688 12.9023C8.56641 12.457 8.02734 12.2344 7.47656 12.2344C6.9375 12.2344 6.43359 12.457 5.96484 12.8906L1.48828 16.9336C1.48828 18.5039 2.09766 19.3008 3.30469 19.3008L25.6172 19.3008C27.1055 19.3008 27.9492 18.3633 27.9492 16.6875ZM9.55078 10.2891C11.0508 10.2891 12.293 9.04688 12.293 7.5C12.293 6 11.0508 4.74609 9.55078 4.74609C8.02734 4.74609 6.77344 6 6.77344 7.5C6.77344 9.04688 8.02734 10.2891 9.55078 10.2891ZM3.01172 20.25L26.2852 20.25C28.2656 20.25 29.2969 19.2305 29.2969 17.2383L29.2969 3.80859C29.2969 1.82812 28.2656 0.808594 26.2852 0.808594L3.01172 0.808594C1.03125 0.808594 0 1.82812 0 3.80859L0 17.2383C0 19.2305 1.03125 20.25 3.01172 20.25ZM3.04688 18.3633C2.27344 18.3633 1.88672 17.9766 1.88672 17.2148L1.88672 3.84375C1.88672 3.07031 2.27344 2.69531 3.04688 2.69531L26.25 2.69531C27.0234 2.69531 27.4102 3.07031 27.4102 3.84375L27.4102 17.2148C27.4102 17.9766 27.0234 18.3633 26.25 18.3633ZM8.75391 24.2227L20.543 24.2227C21.0586 24.2227 21.4922 23.8008 21.4922 23.2734C21.4922 22.7461 21.0586 22.3242 20.543 22.3242L8.75391 22.3242C8.23828 22.3242 7.80469 22.7461 7.80469 23.2734C7.80469 23.8008 8.23828 24.2227 8.75391 24.2227Z" fill="#000000"/>
</svg>
