<?xml version="1.0" encoding="UTF-8"?>

<!--
  - Copyright (c) 2023. Compose Cupertino project and open source contributors.
  -
  -  Licensed under the Apache License, Version 2.0 (the "License");
  -  you may not use this file except in compliance with the License.
  -  You may obtain a copy of the License at
  -
  -      http://www.apache.org/licenses/LICENSE-2.0
  -
  -  Unless required by applicable law or agreed to in writing, software
  -  distributed under the License is distributed on an "AS IS" BASIS,
  -  WITHOUT WARRANTIES OR CONDITIONS OF ANY KIND, either express or implied.
  -  See the License for the specific language governing permissions and
  -  limitations under the License.
  -
  -->

<svg version="1.1" xmlns="http://www.w3.org/2000/svg" xmlns:xlink="http://www.w3.org/1999/xlink" width="23.1655" height="23.1907">
  <path d="M1.83204 21.3277C4.31642 23.8004 7.79688 23.8238 10.5508 21.0699L21.0859 10.5348C23.8281 7.79259 23.8047 4.31212 21.332 1.82775C18.8477-0.644907 15.3672-0.656626 12.625 2.08556L2.08985 12.609C-0.664053 15.3629-0.640616 18.8434 1.83204 21.3277ZM3.07423 20.0973C1.3047 18.3395 1.52735 15.8785 3.43751 13.9449L13.9492 3.43322C15.8477 1.52306 18.3203 1.31212 20.1016 3.06994C21.8711 4.81603 21.6719 7.28869 19.7266 9.22228L9.22657 19.734C7.32813 21.6324 4.84376 21.8551 3.07423 20.0973ZM7.51563 8.75353L14.4414 15.6793L15.6953 14.4254L8.75782 7.49962Z" fill="#000000"/>
</svg>
