<?xml version="1.0" encoding="UTF-8"?>

<!--
  - Copyright (c) 2023. Compose Cupertino project and open source contributors.
  -
  -  Licensed under the Apache License, Version 2.0 (the "License");
  -  you may not use this file except in compliance with the License.
  -  You may obtain a copy of the License at
  -
  -      http://www.apache.org/licenses/LICENSE-2.0
  -
  -  Unless required by applicable law or agreed to in writing, software
  -  distributed under the License is distributed on an "AS IS" BASIS,
  -  WITHOUT WARRANTIES OR CONDITIONS OF ANY KIND, either express or implied.
  -  See the License for the specific language governing permissions and
  -  limitations under the License.
  -
  -->

<svg version="1.1" xmlns="http://www.w3.org/2000/svg" xmlns:xlink="http://www.w3.org/1999/xlink" width="18.1992" height="28.043">
  <path d="M9.10547 28.043C9.38672 28.043 10.1367 26.5547 10.1367 24.7617L10.1367 18.3281L8.0625 18.3281L8.0625 24.7617C8.0625 26.5547 8.8125 28.043 9.10547 28.043ZM1.72266 19.2891L16.4766 19.2891C17.5312 19.2891 18.1992 18.6328 18.1992 17.6367C18.1992 14.1914 14.3555 10.7109 9.10547 10.7109C3.84375 10.7109 0 14.1914 0 17.6367C0 18.6328 0.667969 19.2891 1.72266 19.2891ZM2.19141 17.5195C1.92188 17.5195 1.80469 17.3672 1.85156 17.0508C2.10938 14.9414 4.80469 12.4219 9.10547 12.4219C13.3945 12.4219 16.0898 14.9414 16.3477 17.0508C16.3945 17.3672 16.2773 17.5195 16.0078 17.5195ZM1.48828 1.96875C1.48828 2.30859 1.62891 2.70703 1.93359 3.10547C2.53125 3.90234 3.94922 5.00391 5.42578 5.97656L4.99219 12.1641L6.86719 12.1641L7.30078 5.10938C7.3125 4.94531 7.28906 4.88672 7.17188 4.82812C5.41406 3.92578 4.05469 2.85938 3.96094 2.625C3.86719 2.47266 3.96094 2.37891 4.08984 2.37891L14.1094 2.37891C14.2383 2.37891 14.332 2.47266 14.2383 2.625C14.1445 2.85938 12.7852 3.92578 11.0273 4.82812C10.9219 4.88672 10.8867 4.94531 10.9102 5.10938L11.332 12.1641L13.207 12.1641L12.7734 5.97656C14.2617 5.00391 15.668 3.90234 16.2656 3.10547C16.582 2.70703 16.7227 2.30859 16.7227 1.96875C16.7227 1.25391 16.1719 0.726562 15.3516 0.726562L2.85938 0.726562C2.02734 0.726562 1.48828 1.25391 1.48828 1.96875Z" fill="#000000"/>
</svg>
