<?xml version="1.0" encoding="UTF-8"?>

<!--
  - Copyright (c) 2023. Compose Cupertino project and open source contributors.
  -
  -  Licensed under the Apache License, Version 2.0 (the "License");
  -  you may not use this file except in compliance with the License.
  -  You may obtain a copy of the License at
  -
  -      http://www.apache.org/licenses/LICENSE-2.0
  -
  -  Unless required by applicable law or agreed to in writing, software
  -  distributed under the License is distributed on an "AS IS" BASIS,
  -  WITHOUT WARRANTIES OR CONDITIONS OF ANY KIND, either express or implied.
  -  See the License for the specific language governing permissions and
  -  limitations under the License.
  -
  -->

<svg version="1.1" xmlns="http://www.w3.org/2000/svg" xmlns:xlink="http://www.w3.org/1999/xlink" width="22.9878" height="28.043">
 <g>
  <path d="M2.85645 17.6367C2.85645 18.6328 3.52441 19.2891 4.5791 19.2891L10.9189 19.2891L10.9189 24.7617C10.9189 26.5547 11.6689 28.043 11.9619 28.043C12.2432 28.043 12.9932 26.5547 12.9932 24.7617L12.9932 19.4297L13.6611 19.4297L11.751 17.5195L5.04785 17.5195C4.77832 17.5195 4.66113 17.3672 4.70801 17.0508C4.84863 15.7383 5.9502 14.3438 7.68457 13.4531L6.4541 12.2227C4.23926 13.5234 2.85645 15.5742 2.85645 17.6367ZM4.34473 1.96875C4.34473 2.30859 4.48535 2.70703 4.79004 3.10547C5.3877 3.90234 6.80566 5.00391 8.28223 5.97656L8.18848 7.26562L9.92285 9L10.1572 5.10938C10.1689 4.94531 10.1455 4.88672 10.0283 4.82812C8.27051 3.92578 6.91113 2.85938 6.81738 2.625C6.72363 2.47266 6.81738 2.37891 6.94629 2.37891L16.9658 2.37891C17.0947 2.37891 17.1885 2.47266 17.0947 2.625C17.001 2.85938 15.6416 3.92578 13.8838 4.82812C13.7783 4.88672 13.7432 4.94531 13.7666 5.10938L14.1182 10.9219C13.4268 10.7812 12.7119 10.7109 11.9619 10.7109L11.6455 10.7109L13.4619 12.5508C16.708 12.8789 19.0869 15.5273 19.0869 17.4023C19.0869 17.4609 19.0869 17.5195 19.0869 17.5781L20.3525 19.0312C20.7393 18.7969 21.0557 18.3164 21.0557 17.6367C21.0557 15.1641 19.0752 12.668 16.0166 11.4727L15.6299 5.97656C17.1182 5.00391 18.5244 3.90234 19.1221 3.10547C19.4385 2.70703 19.5791 2.30859 19.5791 1.96875C19.5791 1.25391 19.0283 0.726562 18.208 0.726562L5.71582 0.726562C4.88379 0.726562 4.34473 1.25391 4.34473 1.96875Z" fill="#000000"/>
  <path d="M0.254883 3.96094L21.4424 25.125C21.8057 25.4766 22.3799 25.4766 22.7197 25.125C23.0713 24.7734 23.083 24.1992 22.7197 23.8477L1.54395 2.68359C1.19238 2.33203 0.606445 2.32031 0.254883 2.68359C-0.0849609 3.02344-0.0849609 3.60938 0.254883 3.96094Z" fill="#000000"/>
 </g>
</svg>
