<?xml version="1.0" encoding="UTF-8"?>

<!--
  - Copyright (c) 2023. Compose Cupertino project and open source contributors.
  -
  -  Licensed under the Apache License, Version 2.0 (the "License");
  -  you may not use this file except in compliance with the License.
  -  You may obtain a copy of the License at
  -
  -      http://www.apache.org/licenses/LICENSE-2.0
  -
  -  Unless required by applicable law or agreed to in writing, software
  -  distributed under the License is distributed on an "AS IS" BASIS,
  -  WITHOUT WARRANTIES OR CONDITIONS OF ANY KIND, either express or implied.
  -  See the License for the specific language governing permissions and
  -  limitations under the License.
  -
  -->

<svg version="1.1" xmlns="http://www.w3.org/2000/svg" xmlns:xlink="http://www.w3.org/1999/xlink" width="30.3633" height="24.5742">
 <g>
  <path d="M3.67969 19.1484L12.3516 19.1484L12.3516 17.2617L3.70312 17.2617C2.53125 17.2617 1.88672 16.6289 1.88672 15.4102L1.88672 3.76172C1.88672 2.54297 2.53125 1.91016 3.70312 1.91016L20.7422 1.91016C21.9023 1.91016 22.5586 2.54297 22.5586 3.76172L22.5586 10.5469L24.4453 10.5469L24.4453 3.65625C24.4453 1.24219 23.2148 0.0234375 20.7773 0.0234375L3.67969 0.0234375C1.21875 0.0234375 0 1.24219 0 3.65625L0 15.5156C0 17.9297 1.21875 19.1484 3.67969 19.1484Z" fill="#000000"/>
  <path d="M15.1758 24.5742L26.6953 24.5742C29.1328 24.5742 30.3633 23.3555 30.3633 20.9414L30.3633 13.3477C30.3633 10.9336 29.1328 9.71484 26.6953 9.71484L15.1758 9.71484C12.7266 9.71484 11.4961 10.9219 11.4961 13.3477L11.4961 20.9414C11.4961 23.3555 12.7266 24.5742 15.1758 24.5742ZM15.1992 22.6875C14.0273 22.6875 13.3828 22.0547 13.3828 20.8359L13.3828 13.4414C13.3828 12.2227 14.0273 11.6016 15.1992 11.6016L26.6602 11.6016C27.8203 11.6016 28.4766 12.2227 28.4766 13.4414L28.4766 20.8359C28.4766 22.0547 27.8203 22.6875 26.6602 22.6875Z" fill="#000000"/>
 </g>
</svg>
