<?xml version="1.0" encoding="UTF-8"?>

<!--
  - Copyright (c) 2023. Compose Cupertino project and open source contributors.
  -
  -  Licensed under the Apache License, Version 2.0 (the "License");
  -  you may not use this file except in compliance with the License.
  -  You may obtain a copy of the License at
  -
  -      http://www.apache.org/licenses/LICENSE-2.0
  -
  -  Unless required by applicable law or agreed to in writing, software
  -  distributed under the License is distributed on an "AS IS" BASIS,
  -  WITHOUT WARRANTIES OR CONDITIONS OF ANY KIND, either express or implied.
  -  See the License for the specific language governing permissions and
  -  limitations under the License.
  -
  -->

<svg version="1.1" xmlns="http://www.w3.org/2000/svg" xmlns:xlink="http://www.w3.org/1999/xlink" width="30.3633" height="24.5742">
 <g>
  <path d="M3.67969 19.1484L12.3516 19.1484L12.3516 17.2617L3.70312 17.2617C2.53125 17.2617 1.88672 16.6289 1.88672 15.4102L1.88672 3.76172C1.88672 2.54297 2.53125 1.91016 3.70312 1.91016L20.7422 1.91016C21.9023 1.91016 22.5586 2.54297 22.5586 3.76172L22.5586 10.5469L24.4453 10.5469L24.4453 3.65625C24.4453 1.24219 23.2148 0.0234375 20.7773 0.0234375L3.67969 0.0234375C1.21875 0.0234375 0 1.24219 0 3.65625L0 15.5156C0 17.9297 1.21875 19.1484 3.67969 19.1484Z" fill="#000000"/>
  <path d="M15.1758 24.5742L26.6953 24.5742C29.1328 24.5742 30.3633 23.3555 30.3633 20.9414L30.3633 13.3477C30.3633 10.9336 29.1328 9.71484 26.6953 9.71484L15.1758 9.71484C12.7266 9.71484 11.4961 10.9219 11.4961 13.3477L11.4961 20.9414C11.4961 23.3555 12.7266 24.5742 15.1758 24.5742ZM4.47656 8.82422C4.52344 9.17578 4.98047 9.57422 5.4375 9.11719L6.73828 7.82812L8.64844 9.75C8.92969 10.0312 9.39844 10.0312 9.67969 9.75C9.96094 9.46875 9.96094 9 9.67969 8.71875L7.75781 6.79688L9.04688 5.49609C9.50391 5.05078 9.11719 4.59375 8.75391 4.54688L4.52344 3.89062C4.3125 3.85547 4.125 3.92578 3.98438 4.05469C3.85547 4.18359 3.78516 4.38281 3.82031 4.58203Z" fill="#000000"/>
 </g>
</svg>
