<?xml version="1.0" encoding="UTF-8"?>

<!--
  - Copyright (c) 2023. Compose Cupertino project and open source contributors.
  -
  -  Licensed under the Apache License, Version 2.0 (the "License");
  -  you may not use this file except in compliance with the License.
  -  You may obtain a copy of the License at
  -
  -      http://www.apache.org/licenses/LICENSE-2.0
  -
  -  Unless required by applicable law or agreed to in writing, software
  -  distributed under the License is distributed on an "AS IS" BASIS,
  -  WITHOUT WARRANTIES OR CONDITIONS OF ANY KIND, either express or implied.
  -  See the License for the specific language governing permissions and
  -  limitations under the License.
  -
  -->

<svg version="1.1" xmlns="http://www.w3.org/2000/svg" xmlns:xlink="http://www.w3.org/1999/xlink" width="17.7188" height="19.8633">
  <path d="M1.40625 19.8633C1.875 19.8633 2.27344 19.6758 2.74219 19.4062L16.4062 11.5078C17.3789 10.9336 17.7188 10.5586 17.7188 9.9375C17.7188 9.31641 17.3789 8.94141 16.4062 8.37891L2.74219 0.46875C2.27344 0.199219 1.875 0.0234375 1.40625 0.0234375C0.539062 0.0234375 0 0.679688 0 1.69922L0 18.1758C0 19.1953 0.539062 19.8633 1.40625 19.8633ZM2.00391 17.625C1.93359 17.625 1.88672 17.5781 1.88672 17.4844L1.88672 2.39062C1.88672 2.29688 1.93359 2.25 2.00391 2.25C2.05078 2.25 2.09766 2.27344 2.14453 2.30859L15.1172 9.80859C15.1758 9.84375 15.2227 9.87891 15.2227 9.9375C15.2227 9.99609 15.1758 10.043 15.1172 10.0664L2.14453 17.5781C2.09766 17.6016 2.05078 17.625 2.00391 17.625Z" fill="#000000"/>
</svg>
