<?xml version="1.0" encoding="UTF-8"?>

<!--
  - Copyright (c) 2023. Compose Cupertino project and open source contributors.
  -
  -  Licensed under the Apache License, Version 2.0 (the "License");
  -  you may not use this file except in compliance with the License.
  -  You may obtain a copy of the License at
  -
  -      http://www.apache.org/licenses/LICENSE-2.0
  -
  -  Unless required by applicable law or agreed to in writing, software
  -  distributed under the License is distributed on an "AS IS" BASIS,
  -  WITHOUT WARRANTIES OR CONDITIONS OF ANY KIND, either express or implied.
  -  See the License for the specific language governing permissions and
  -  limitations under the License.
  -
  -->

<svg version="1.1" xmlns="http://www.w3.org/2000/svg" xmlns:xlink="http://www.w3.org/1999/xlink" width="25.8281" height="25.7461">
 <g>
  <path d="M7.20703 25.7461C7.78125 25.7461 8.17969 25.4414 8.89453 24.8086L12.9375 21.2109L20.4609 21.2109C23.9531 21.2109 25.8281 19.2773 25.8281 15.8438L25.8281 6.86719C25.8281 3.43359 23.9531 1.5 20.4609 1.5L5.36719 1.5C1.875 1.5 0 3.42188 0 6.86719L0 15.8438C0 19.2891 1.875 21.2109 5.36719 21.2109L5.92969 21.2109L5.92969 24.2578C5.92969 25.1602 6.38672 25.7461 7.20703 25.7461ZM7.6875 23.6016L7.6875 20.2031C7.6875 19.5703 7.44141 19.3242 6.80859 19.3242L5.36719 19.3242C3 19.3242 1.88672 18.1172 1.88672 15.832L1.88672 6.86719C1.88672 4.58203 3 3.38672 5.36719 3.38672L20.4609 3.38672C22.8164 3.38672 23.9414 4.58203 23.9414 6.86719L23.9414 15.832C23.9414 18.1172 22.8164 19.3242 20.4609 19.3242L12.8672 19.3242C12.2109 19.3242 11.8828 19.418 11.4375 19.875Z" fill="#000000"/>
  <path d="M7.48828 11.3555C7.48828 11.9297 7.89844 12.3164 8.49609 12.3164L11.9414 12.3164L11.9414 15.7734C11.9414 16.3594 12.3398 16.7695 12.9023 16.7695C13.5 16.7695 13.8984 16.3711 13.8984 15.7734L13.8984 12.3164L17.3555 12.3164C17.9414 12.3164 18.3516 11.9297 18.3516 11.3555C18.3516 10.7695 17.9531 10.3594 17.3555 10.3594L13.8984 10.3594L13.8984 6.91406C13.8984 6.31641 13.5 5.90625 12.9023 5.90625C12.3398 5.90625 11.9414 6.31641 11.9414 6.91406L11.9414 10.3594L8.49609 10.3594C7.89844 10.3594 7.48828 10.7695 7.48828 11.3555Z" fill="#000000"/>
 </g>
</svg>
