<?xml version="1.0" encoding="UTF-8"?>

<!--
  - Copyright (c) 2023. Compose Cupertino project and open source contributors.
  -
  -  Licensed under the Apache License, Version 2.0 (the "License");
  -  you may not use this file except in compliance with the License.
  -  You may obtain a copy of the License at
  -
  -      http://www.apache.org/licenses/LICENSE-2.0
  -
  -  Unless required by applicable law or agreed to in writing, software
  -  distributed under the License is distributed on an "AS IS" BASIS,
  -  WITHOUT WARRANTIES OR CONDITIONS OF ANY KIND, either express or implied.
  -  See the License for the specific language governing permissions and
  -  limitations under the License.
  -
  -->

<svg version="1.1" xmlns="http://www.w3.org/2000/svg" xmlns:xlink="http://www.w3.org/1999/xlink" width="22.8984" height="23.1211">
  <path d="M0 9.35156C0 14.5078 4.19531 18.7031 9.35156 18.7031C11.3906 18.7031 13.2539 18.0469 14.7891 16.9453L20.5547 22.7227C20.8242 22.9922 21.1758 23.1211 21.5508 23.1211C22.3477 23.1211 22.8984 22.5234 22.8984 21.7383C22.8984 21.3633 22.7578 21.0234 22.5117 20.7773L16.7812 15.0117C17.9883 13.4414 18.7031 11.4844 18.7031 9.35156C18.7031 4.19531 14.5078 0 9.35156 0C4.19531 0 0 4.19531 0 9.35156ZM2.00391 9.35156C2.00391 5.29688 5.29688 2.00391 9.35156 2.00391C13.4062 2.00391 16.6992 5.29688 16.6992 9.35156C16.6992 13.4062 13.4062 16.6992 9.35156 16.6992C5.29688 16.6992 2.00391 13.4062 2.00391 9.35156ZM5.48438 9.35156C5.48438 9.83203 5.85938 10.207 6.33984 10.207L8.49609 10.207L8.49609 12.3633C8.49609 12.8438 8.87109 13.2188 9.35156 13.2188C9.83203 13.2188 10.2188 12.8438 10.2188 12.3633L10.2188 10.207L12.3633 10.207C12.8438 10.207 13.2188 9.83203 13.2188 9.35156C13.2188 8.87109 12.8438 8.48438 12.3633 8.48438L10.2188 8.48438L10.2188 6.33984C10.2188 5.85938 9.83203 5.48438 9.35156 5.48438C8.87109 5.48438 8.49609 5.85938 8.49609 6.33984L8.49609 8.48438L6.33984 8.48438C5.85938 8.48438 5.48438 8.87109 5.48438 9.35156Z" fill="#000000"/>
</svg>
