<?xml version="1.0" encoding="UTF-8"?>

<svg version="1.1" xmlns="http://www.w3.org/2000/svg" xmlns:xlink="http://www.w3.org/1999/xlink" width="19.3359" height="19.3477">
  <path d="M0 9.66797C0 10.2422 0.480469 10.7109 1.04297 10.7109L8.625 10.7109L8.625 18.293C8.625 18.8555 9.09375 19.3359 9.66797 19.3359C10.2422 19.3359 10.7227 18.8555 10.7227 18.293L10.7227 10.7109L18.293 10.7109C18.8555 10.7109 19.3359 10.2422 19.3359 9.66797C19.3359 9.09375 18.8555 8.61328 18.293 8.61328L10.7227 8.61328L10.7227 1.04297C10.7227 0.480469 10.2422 0 9.66797 0C9.09375 0 8.625 0.480469 8.625 1.04297L8.625 8.61328L1.04297 8.61328C0.480469 8.61328 0 9.09375 0 9.66797Z"/>
</svg>
