<?xml version="1.0" encoding="UTF-8"?>

<!--
  - Copyright (c) 2023. Compose Cupertino project and open source contributors.
  -
  -  Licensed under the Apache License, Version 2.0 (the "License");
  -  you may not use this file except in compliance with the License.
  -  You may obtain a copy of the License at
  -
  -      http://www.apache.org/licenses/LICENSE-2.0
  -
  -  Unless required by applicable law or agreed to in writing, software
  -  distributed under the License is distributed on an "AS IS" BASIS,
  -  WITHOUT WARRANTIES OR CONDITIONS OF ANY KIND, either express or implied.
  -  See the License for the specific language governing permissions and
  -  limitations under the License.
  -
  -->

<svg version="1.1" xmlns="http://www.w3.org/2000/svg" xmlns:xlink="http://www.w3.org/1999/xlink" width="23.9062" height="23.918">
 <g>
  <rect height="23.918" opacity="0" width="23.9062" x="0" y="0"/>
  <path d="M11.9531 23.9062C18.4922 23.9062 23.9062 18.4805 23.9062 11.9531C23.9062 5.41406 18.4805 0 11.9414 0C5.41406 0 0 5.41406 0 11.9531C0 18.4805 5.42578 23.9062 11.9531 23.9062ZM11.9531 21.9141C6.42188 21.9141 2.00391 17.4844 2.00391 11.9531C2.00391 6.42188 6.41016 1.99219 11.9414 1.99219C17.4727 1.99219 21.9141 6.42188 21.9141 11.9531C21.9141 17.4844 17.4844 21.9141 11.9531 21.9141Z"/>
  <path d="M6.51562 11.9531C6.51562 12.5273 6.91406 12.9141 7.51172 12.9141L10.957 12.9141L10.957 16.3711C10.957 16.957 11.3555 17.3672 11.9297 17.3672C12.5156 17.3672 12.9258 16.9688 12.9258 16.3711L12.9258 12.9141L16.3828 12.9141C16.9688 12.9141 17.3789 12.5273 17.3789 11.9531C17.3789 11.3672 16.9688 10.957 16.3828 10.957L12.9258 10.957L12.9258 7.51172C12.9258 6.91406 12.5156 6.50391 11.9297 6.50391C11.3555 6.50391 10.957 6.91406 10.957 7.51172L10.957 10.957L7.51172 10.957C6.91406 10.957 6.51562 11.3672 6.51562 11.9531Z"/>
 </g>
</svg>
