<?xml version="1.0" encoding="UTF-8"?>

<!--
  - Copyright (c) 2023. Compose Cupertino project and open source contributors.
  -
  -  Licensed under the Apache License, Version 2.0 (the "License");
  -  you may not use this file except in compliance with the License.
  -  You may obtain a copy of the License at
  -
  -      http://www.apache.org/licenses/LICENSE-2.0
  -
  -  Unless required by applicable law or agreed to in writing, software
  -  distributed under the License is distributed on an "AS IS" BASIS,
  -  WITHOUT WARRANTIES OR CONDITIONS OF ANY KIND, either express or implied.
  -  See the License for the specific language governing permissions and
  -  limitations under the License.
  -
  -->

<svg version="1.1" xmlns="http://www.w3.org/2000/svg" xmlns:xlink="http://www.w3.org/1999/xlink" width="21.4551" height="29.6602">
  <path d="M2.16605 9.80859L2.8809 8.22656C2.28324 8.05078 1.84965 7.47656 1.84965 6.78516C1.84965 5.68359 3.04496 4.94531 4.31059 5.34375C4.14652 4.14844 5.36527 3.25781 6.56059 3.84375C6.1973 2.47266 7.06449 1.69922 8.03715 1.69922C8.98637 1.69922 9.9473 2.42578 9.7598 3.82031C10.5215 3.31641 11.7989 3.42188 12.4434 3.91406C12.7481 3.21094 13.3809 2.80078 14.1192 2.80078C15.1739 2.80078 15.7246 3.64453 15.6895 4.81641C17.1426 4.58203 18.1856 5.23828 18.1856 6.59766C18.1856 7.33594 17.6231 8.00391 16.9082 8.21484L17.8575 9.69141C19.0411 9.11719 19.8614 7.88672 19.8614 6.48047C19.8614 4.46484 18.5723 3.04688 16.709 3C16.2168 1.86328 15.3145 1.10156 14.0371 1.10156C13.2403 1.10156 12.502 1.38281 11.9395 1.89844C11.6465 1.81641 11.2481 1.79297 10.9082 1.86328C10.4043 0.726562 9.29105 0 8.03715 0C6.37309 0 5.28324 1.01953 5.0723 2.03906C4.18168 1.95703 3.43168 2.77734 3.43168 3.57422C1.63871 3.51562 0.173867 4.99219 0.173867 6.78516C0.173867 8.14453 0.99418 9.32812 2.16605 9.80859ZM5.40043 27.7617L12.7246 27.7617L12.6543 26.0156L8.96293 26.0156L7.62699 11.3555C7.48637 9.83203 8.43559 8.83594 10.0176 8.83594C11.5996 8.83594 12.5489 9.83203 12.4082 11.3555L11.2832 23.7656L13.0879 22.9688L14.1309 11.4258C14.2481 10.125 15.1036 9.43359 16.1465 9.43359C17.4239 9.43359 18.5489 10.3711 18.2442 11.9414L16.6739 20.0859L18.42 20.168L19.9551 12.0352C20.459 9.42188 18.5137 7.6875 16.1465 7.6875C15.0918 7.6875 14.1661 8.10938 13.5098 8.87109C12.8536 7.79297 11.5879 7.08984 10.0176 7.08984C8.4473 7.08984 7.18168 7.79297 6.52543 8.87109C5.86918 8.10938 4.9434 7.6875 3.88871 7.6875C1.52152 7.6875-0.423789 9.42188 0.0801172 12.0352L2.55277 25.125C2.86918 26.8125 3.72465 27.7617 5.40043 27.7617ZM5.45902 26.0156C4.81449 26.0156 4.43949 25.6875 4.3223 25.043L1.79105 11.9414C1.48637 10.3711 2.61137 9.43359 3.88871 9.43359C4.93168 9.43359 5.78715 10.125 5.89262 11.4258L7.21684 26.0156ZM16.4161 29.6367C17.5528 29.6367 18.6075 28.9922 19.0996 28.0078C20.4942 27.6797 21.4551 26.4492 21.4551 25.0195C21.4551 23.7305 20.6582 22.6406 19.5801 22.0898C19.5098 20.4023 18.127 19.2773 16.4161 19.2773C14.7286 19.2773 13.3692 20.3555 13.2637 21.9727C11.8575 22.2891 10.8145 23.543 10.8145 25.0078C10.8145 26.6602 12.0801 27.9727 13.6856 28.1133C14.2246 29.0156 15.2676 29.6367 16.4161 29.6367ZM16.4161 28.125C15.5137 28.125 14.6817 27.5625 14.7286 26.5078C13.5332 26.8828 12.3145 26.2617 12.3145 25.0078C12.3145 23.7305 13.3223 23.0156 14.7989 23.2617C14.4121 22.1719 14.9864 20.7891 16.4161 20.7891C17.7989 20.7891 18.4551 22.1133 18.0801 23.3438C19.17 23.2266 19.9082 23.9297 19.9082 25.0781C19.9082 26.0859 19.1934 26.6836 18.0215 26.5781C18.0567 27.4805 17.2481 28.125 16.4161 28.125Z" fill="#000000"/>
</svg>
