<?xml version="1.0" encoding="UTF-8"?>

<!--
  - Copyright (c) 2023. Compose Cupertino project and open source contributors.
  -
  -  Licensed under the Apache License, Version 2.0 (the "License");
  -  you may not use this file except in compliance with the License.
  -  You may obtain a copy of the License at
  -
  -      http://www.apache.org/licenses/LICENSE-2.0
  -
  -  Unless required by applicable law or agreed to in writing, software
  -  distributed under the License is distributed on an "AS IS" BASIS,
  -  WITHOUT WARRANTIES OR CONDITIONS OF ANY KIND, either express or implied.
  -  See the License for the specific language governing permissions and
  -  limitations under the License.
  -
  -->

<svg version="1.1" xmlns="http://www.w3.org/2000/svg" xmlns:xlink="http://www.w3.org/1999/xlink" width="23.9062" height="23.918">
 <g>
  <path d="M11.9531 23.9062C18.4922 23.9062 23.9062 18.4805 23.9062 11.9531C23.9062 5.41406 18.4805 0 11.9414 0C5.41406 0 0 5.41406 0 11.9531C0 18.4805 5.42578 23.9062 11.9531 23.9062ZM11.9531 21.9141C6.42188 21.9141 2.00391 17.4844 2.00391 11.9531C2.00391 6.42188 6.41016 1.99219 11.9414 1.99219C17.4727 1.99219 21.9141 6.42188 21.9141 11.9531C21.9141 17.4844 17.4844 21.9141 11.9531 21.9141Z" fill="#000000"/>
  <path d="M11.9531 18.0703C15.3047 18.0703 18.0938 15.2812 18.0938 11.9414C18.0938 10.2656 17.3438 8.58984 16.0898 7.44141C15.2812 6.69141 14.1914 7.83984 15.0117 8.61328C15.9375 9.46875 16.4648 10.6523 16.4766 11.9414C16.4766 14.4609 14.4727 16.4648 11.9531 16.4648C9.43359 16.4648 7.44141 14.4609 7.44141 11.9414C7.44141 10.6523 7.95703 9.46875 8.89453 8.60156C9.71484 7.82812 8.625 6.67969 7.82812 7.44141C6.5625 8.57812 5.8125 10.2422 5.8125 11.9414C5.8125 15.2812 8.60156 18.0703 11.9531 18.0703ZM11.9531 12.2109C12.4102 12.2109 12.7383 11.8711 12.7383 11.4023L12.7383 6.28125C12.7383 5.8125 12.4102 5.48438 11.9531 5.48438C11.4961 5.48438 11.1797 5.8125 11.1797 6.28125L11.1797 11.4023C11.1797 11.8711 11.4961 12.2109 11.9531 12.2109Z" fill="#000000"/>
 </g>
</svg>
