<?xml version="1.0" encoding="UTF-8"?>

<!--
  - Copyright (c) 2023. Compose Cupertino project and open source contributors.
  -
  -  Licensed under the Apache License, Version 2.0 (the "License");
  -  you may not use this file except in compliance with the License.
  -  You may obtain a copy of the License at
  -
  -      http://www.apache.org/licenses/LICENSE-2.0
  -
  -  Unless required by applicable law or agreed to in writing, software
  -  distributed under the License is distributed on an "AS IS" BASIS,
  -  WITHOUT WARRANTIES OR CONDITIONS OF ANY KIND, either express or implied.
  -  See the License for the specific language governing permissions and
  -  limitations under the License.
  -
  -->

<svg version="1.1" xmlns="http://www.w3.org/2000/svg" xmlns:xlink="http://www.w3.org/1999/xlink" width="23.9062" height="25.2773">
  <path d="M11.9531 24.5859C18.4922 24.5859 23.9062 19.1602 23.9062 12.6328C23.9062 9.03516 22.2656 5.91797 20.0156 3.86719C18.9844 2.92969 17.6602 4.32422 18.6797 5.29688C20.6719 7.11328 21.9023 9.71484 21.9141 12.6328C21.9258 18.1641 17.4844 22.5938 11.9531 22.5938C6.42188 22.5938 2.00391 18.1641 2.00391 12.6328C2.01562 9.69141 3.24609 7.10156 5.22656 5.28516C6.25781 4.30078 4.92188 2.91797 3.89062 3.85547C1.62891 5.90625 0 9.03516 0 12.6328C0 19.1602 5.42578 24.5859 11.9531 24.5859ZM11.9531 12.5156C12.5156 12.5156 12.9023 12.1055 12.9023 11.5195L12.9023 0.996094C12.9023 0.398438 12.5156 0 11.9531 0C11.3906 0 11.0156 0.398438 11.0156 0.996094L11.0156 11.5195C11.0156 12.1055 11.3906 12.5156 11.9531 12.5156Z" fill="#000000"/>
</svg>
