<?xml version="1.0" encoding="UTF-8"?>

<!--
  - Copyright (c) 2023. Compose Cupertino project and open source contributors.
  -
  -  Licensed under the Apache License, Version 2.0 (the "License");
  -  you may not use this file except in compliance with the License.
  -  You may obtain a copy of the License at
  -
  -      http://www.apache.org/licenses/LICENSE-2.0
  -
  -  Unless required by applicable law or agreed to in writing, software
  -  distributed under the License is distributed on an "AS IS" BASIS,
  -  WITHOUT WARRANTIES OR CONDITIONS OF ANY KIND, either express or implied.
  -  See the License for the specific language governing permissions and
  -  limitations under the License.
  -
  -->

<svg version="1.1" xmlns="http://www.w3.org/2000/svg" xmlns:xlink="http://www.w3.org/1999/xlink" width="26.4727" height="25.6289">
  <path d="M3.49219 22.1484L5.8125 22.1484L5.8125 20.3789L3.46875 20.3789C2.42578 20.3789 1.89844 19.8398 1.89844 18.8086L1.89844 7.65234C1.89844 6.62109 2.42578 6.08203 3.46875 6.08203L23.0156 6.08203C24.0469 6.08203 24.5859 6.62109 24.5859 7.65234L24.5859 18.8086C24.5859 19.8398 24.0469 20.3789 23.0156 20.3789L20.8242 20.3789L20.8242 22.1484L22.9922 22.1484C25.2656 22.1484 26.4727 21 26.4727 18.7148L26.4727 7.74609C26.4727 5.47266 25.2656 4.3125 22.9922 4.3125L3.49219 4.3125C1.32422 4.3125 0 5.47266 0 7.74609L0 18.7148C0 21 1.20703 22.1484 3.49219 22.1484ZM6.96094 25.6289L19.5117 25.6289C21 25.6289 21.75 24.9492 21.75 23.3906L21.75 13.8281C21.75 12.2695 21 11.5898 19.5117 11.5898L6.96094 11.5898C5.54297 11.5898 4.72266 12.2695 4.72266 13.8281L4.72266 23.3906C4.72266 24.9492 5.47266 25.6289 6.96094 25.6289ZM7.54688 23.8594C6.92578 23.8594 6.60938 23.5547 6.60938 22.9219L6.60938 14.2852C6.60938 13.6523 6.92578 13.3594 7.54688 13.3594L18.9375 13.3594C19.5703 13.3594 19.8633 13.6523 19.8633 14.2852L19.8633 22.9219C19.8633 23.5547 19.5703 23.8594 18.9375 23.8594ZM4.64062 5.36719L6.45703 5.36719L6.45703 3.5625C6.45703 2.57812 6.96094 2.09766 7.93359 2.09766L18.5391 2.09766C19.5234 2.09766 20.0156 2.57812 20.0156 3.5625L20.0156 5.34375L21.832 5.34375L21.832 3.69141C21.832 1.40625 20.6953 0.386719 18.5156 0.386719L7.95703 0.386719C5.89453 0.386719 4.64062 1.40625 4.64062 3.69141ZM9.17578 17.2852L17.332 17.2852C17.7422 17.2852 18.0469 16.9688 18.0469 16.5469C18.0469 16.1484 17.7422 15.8438 17.332 15.8438L9.17578 15.8438C8.75391 15.8438 8.4375 16.1484 8.4375 16.5469C8.4375 16.9688 8.75391 17.2852 9.17578 17.2852ZM9.17578 21.375L17.332 21.375C17.7422 21.375 18.0469 21.0586 18.0469 20.6602C18.0469 20.25 17.7422 19.9336 17.332 19.9336L9.17578 19.9336C8.75391 19.9336 8.4375 20.25 8.4375 20.6602C8.4375 21.0586 8.75391 21.375 9.17578 21.375ZM18.9141 8.85938C18.9141 9.67969 19.5938 10.3242 20.3906 10.3242C21.1758 10.3242 21.8438 9.67969 21.8438 8.85938C21.8438 8.08594 21.1758 7.40625 20.3906 7.40625C19.5938 7.40625 18.9141 8.08594 18.9141 8.85938Z" fill="#000000"/>
</svg>
