<?xml version="1.0" encoding="UTF-8"?>

<!--
  - Copyright (c) 2023. Compose Cupertino project and open source contributors.
  -
  -  Licensed under the Apache License, Version 2.0 (the "License");
  -  you may not use this file except in compliance with the License.
  -  You may obtain a copy of the License at
  -
  -      http://www.apache.org/licenses/LICENSE-2.0
  -
  -  Unless required by applicable law or agreed to in writing, software
  -  distributed under the License is distributed on an "AS IS" BASIS,
  -  WITHOUT WARRANTIES OR CONDITIONS OF ANY KIND, either express or implied.
  -  See the License for the specific language governing permissions and
  -  limitations under the License.
  -
  -->

<svg version="1.1" xmlns="http://www.w3.org/2000/svg" xmlns:xlink="http://www.w3.org/1999/xlink" width="34.5" height="22.6992">
  <path d="M10.6992 22.6523L14.5898 22.6523C15.5625 22.6523 16.1836 22.0078 16.1836 21.1992C16.1836 20.7539 15.9961 20.2969 15.5742 19.8398C15.0586 19.2773 14.7422 18.6211 14.7422 17.9414C14.7422 16.582 15.7148 15.4688 17.25 15.4688C18.7852 15.4688 19.7578 16.582 19.7578 17.9414C19.7578 18.6211 19.4297 19.2773 18.9141 19.8398C18.5039 20.2969 18.3164 20.7539 18.3164 21.1992C18.3164 22.0078 18.9375 22.6523 19.9102 22.6523L23.7891 22.6523C26.1445 22.6523 27.375 21.4453 27.375 19.125L27.375 14.9883C27.375 14.8008 27.5039 14.707 27.7148 14.8594C28.4648 15.3867 29.3203 15.7617 30.293 15.7617C32.5078 15.7617 34.5 13.9805 34.5 11.3672C34.5 8.76562 32.5078 6.98438 30.293 6.98438C29.3203 6.98438 28.4648 7.35938 27.7148 7.88672C27.5039 8.03906 27.375 7.94531 27.375 7.75781L27.375 3.52734C27.375 1.20703 26.1445 0 23.7891 0L19.9102 0C18.9375 0 18.3164 0.644531 18.3164 1.45312C18.3164 1.89844 18.5039 2.35547 18.9141 2.8125C19.4297 3.38672 19.7578 4.03125 19.7578 4.72266C19.7578 6.05859 18.7617 7.18359 17.25 7.18359C15.7383 7.18359 14.7422 6.05859 14.7422 4.72266C14.7422 4.03125 15.0586 3.38672 15.5742 2.8125C15.9961 2.35547 16.1836 1.89844 16.1836 1.45312C16.1836 0.644531 15.5625 0 14.5898 0L10.6992 0C8.35547 0 7.125 1.20703 7.125 3.52734L7.125 7.75781C7.125 7.94531 6.99609 8.03906 6.78516 7.88672C6.03516 7.35938 5.17969 6.98438 4.19531 6.98438C1.99219 6.98438 0 8.76562 0 11.3672C0 13.9805 1.99219 15.7617 4.19531 15.7617C5.17969 15.7617 6.03516 15.3867 6.78516 14.8594C6.99609 14.707 7.125 14.8008 7.125 14.9883L7.125 19.125C7.125 21.4453 8.35547 22.6523 10.6992 22.6523ZM10.7344 20.7656C9.65625 20.7656 9.01172 20.1562 9.01172 19.0312L9.01172 14.0391C9.01172 13.0547 8.36719 12.4336 7.55859 12.4336C7.11328 12.4336 6.65625 12.6211 6.19922 13.043C5.625 13.5586 4.98047 13.8867 4.28906 13.8867C2.95312 13.8867 1.82812 12.8906 1.82812 11.3672C1.82812 9.85547 2.95312 8.85938 4.28906 8.85938C4.98047 8.85938 5.625 9.1875 6.19922 9.70312C6.65625 10.125 7.11328 10.3125 7.55859 10.3125C8.36719 10.3125 9.01172 9.69141 9.01172 8.70703L9.01172 3.62109C9.01172 2.50781 9.65625 1.88672 10.7344 1.88672L13.4297 1.88672C13.9805 1.88672 13.8047 2.16797 13.6641 2.39062C13.207 3.10547 12.8672 3.89062 12.8672 4.81641C12.8672 7.01953 14.6367 9.01172 17.25 9.01172C19.8633 9.01172 21.6328 7.01953 21.6328 4.81641C21.6328 3.89062 21.293 3.10547 20.8359 2.39062C20.6953 2.16797 20.5195 1.88672 21.0703 1.88672L23.7656 1.88672C24.8438 1.88672 25.4883 2.50781 25.4883 3.62109L25.4883 8.70703C25.4883 9.69141 26.1328 10.3125 26.9414 10.3125C27.3867 10.3125 27.8438 10.125 28.3008 9.70312C28.8633 9.1875 29.5195 8.85938 30.1992 8.85938C31.5469 8.85938 32.6719 9.85547 32.6719 11.3672C32.6719 12.8906 31.5469 13.8867 30.1992 13.8867C29.5195 13.8867 28.8633 13.5586 28.3008 13.043C27.8438 12.6211 27.3867 12.4336 26.9414 12.4336C26.1328 12.4336 25.4883 13.0547 25.4883 14.0391L25.4883 19.0312C25.4883 20.1562 24.8438 20.7656 23.7656 20.7656L21.0703 20.7656C20.5195 20.7656 20.6953 20.4844 20.8359 20.2617C21.293 19.5469 21.6328 18.7617 21.6328 17.8477C21.6328 15.6094 19.8867 13.6406 17.25 13.6406C14.6133 13.6406 12.8672 15.6094 12.8672 17.8477C12.8672 18.7617 13.207 19.5469 13.6641 20.2617C13.8047 20.4844 13.9805 20.7656 13.4297 20.7656Z" fill="#000000"/>
</svg>
