<?xml version="1.0" encoding="UTF-8"?>

<!--
  - Copyright (c) 2023. Compose Cupertino project and open source contributors.
  -
  -  Licensed under the Apache License, Version 2.0 (the "License");
  -  you may not use this file except in compliance with the License.
  -  You may obtain a copy of the License at
  -
  -      http://www.apache.org/licenses/LICENSE-2.0
  -
  -  Unless required by applicable law or agreed to in writing, software
  -  distributed under the License is distributed on an "AS IS" BASIS,
  -  WITHOUT WARRANTIES OR CONDITIONS OF ANY KIND, either express or implied.
  -  See the License for the specific language governing permissions and
  -  limitations under the License.
  -
  -->

<svg version="1.1" xmlns="http://www.w3.org/2000/svg" xmlns:xlink="http://www.w3.org/1999/xlink" width="28.6875" height="22.6992">
  <path d="M0 19.125C0 21.4453 1.23047 22.6523 3.58594 22.6523L17.9883 22.6523C20.332 22.6523 21.5625 21.4453 21.5625 19.125L21.5625 14.9883C21.5625 14.8008 21.6914 14.707 21.9141 14.8594C22.6523 15.3867 23.5078 15.7617 24.4922 15.7617C26.707 15.7617 28.6875 13.9805 28.6875 11.3672C28.6875 8.76562 26.707 6.98438 24.4922 6.98438C23.5078 6.98438 22.6523 7.35938 21.9141 7.88672C21.6914 8.03906 21.5625 7.94531 21.5625 7.75781L21.5625 3.52734C21.5625 1.20703 20.332 0 17.9883 0L3.58594 0C1.23047 0 0 1.20703 0 3.52734L0 8.70703C0 9.69141 0.644531 10.2773 1.45312 10.2773C1.89844 10.2773 2.35547 10.0898 2.8125 9.66797C3.38672 9.15234 4.03125 8.83594 4.72266 8.83594C6.05859 8.83594 7.18359 9.83203 7.18359 11.3438C7.18359 12.8555 6.05859 13.8516 4.72266 13.8516C4.03125 13.8516 3.38672 13.5234 2.8125 13.0078C2.35547 12.5977 1.89844 12.4102 1.45312 12.4102C0.644531 12.4102 0 12.9961 0 13.9688ZM1.88672 19.0312L1.88672 15.1289C1.88672 14.5781 2.16797 14.7891 2.39062 14.9297C3.10547 15.3867 3.89062 15.7266 4.81641 15.7266C7.01953 15.7266 9.01172 13.957 9.01172 11.3438C9.01172 8.73047 7.01953 6.96094 4.81641 6.96094C3.89062 6.96094 3.10547 7.30078 2.39062 7.75781C2.16797 7.89844 1.88672 8.10938 1.88672 7.55859L1.88672 3.62109C1.88672 2.50781 2.53125 1.88672 3.62109 1.88672L17.9531 1.88672C19.043 1.88672 19.6758 2.50781 19.6758 3.62109L19.6758 8.70703C19.6758 9.69141 20.3203 10.3125 21.1289 10.3125C21.5742 10.3125 22.0312 10.125 22.4883 9.70312C23.0625 9.1875 23.707 8.85938 24.3984 8.85938C25.7344 8.85938 26.8594 9.85547 26.8594 11.3672C26.8594 12.8906 25.7344 13.8867 24.3984 13.8867C23.707 13.8867 23.0625 13.5586 22.4883 13.043C22.0312 12.6211 21.5742 12.4336 21.1289 12.4336C20.3203 12.4336 19.6758 13.0547 19.6758 14.0391L19.6758 19.0312C19.6758 20.1562 19.043 20.7656 17.9531 20.7656L3.62109 20.7656C2.53125 20.7656 1.88672 20.1562 1.88672 19.0312Z" fill="#000000"/>
</svg>
