<?xml version="1.0" encoding="UTF-8"?>

<!--
  - Copyright (c) 2023. Compose Cupertino project and open source contributors.
  -
  -  Licensed under the Apache License, Version 2.0 (the "License");
  -  you may not use this file except in compliance with the License.
  -  You may obtain a copy of the License at
  -
  -      http://www.apache.org/licenses/LICENSE-2.0
  -
  -  Unless required by applicable law or agreed to in writing, software
  -  distributed under the License is distributed on an "AS IS" BASIS,
  -  WITHOUT WARRANTIES OR CONDITIONS OF ANY KIND, either express or implied.
  -  See the License for the specific language governing permissions and
  -  limitations under the License.
  -
  -->

<svg version="1.1" xmlns="http://www.w3.org/2000/svg" xmlns:xlink="http://www.w3.org/1999/xlink" width="22.9453" height="22.957">
 <g>
  <path d="M0.9375 7.47656C1.55859 7.47656 1.88672 7.125 1.88672 6.51562L1.88672 3.75C1.88672 2.53125 2.53125 1.91016 3.70312 1.91016L6.53906 1.91016C7.16016 1.91016 7.5 1.57031 7.5 0.960938C7.5 0.351562 7.16016 0.0234375 6.53906 0.0234375L3.67969 0.0234375C1.23047 0.0234375 0 1.23047 0 3.64453L0 6.51562C0 7.125 0.339844 7.47656 0.9375 7.47656ZM21.9961 7.47656C22.6172 7.47656 22.9453 7.125 22.9453 6.51562L22.9453 3.64453C22.9453 1.23047 21.7148 0.0234375 19.2656 0.0234375L16.3945 0.0234375C15.7852 0.0234375 15.4453 0.351562 15.4453 0.960938C15.4453 1.57031 15.7852 1.91016 16.3945 1.91016L19.2305 1.91016C20.3906 1.91016 21.0586 2.53125 21.0586 3.75L21.0586 6.51562C21.0586 7.125 21.3984 7.47656 21.9961 7.47656ZM3.67969 22.957L6.53906 22.957C7.16016 22.957 7.5 22.6172 7.5 22.0195C7.5 21.4102 7.16016 21.0703 6.53906 21.0703L3.70312 21.0703C2.53125 21.0703 1.88672 20.4492 1.88672 19.2305L1.88672 16.4648C1.88672 15.8438 1.54688 15.5039 0.9375 15.5039C0.328125 15.5039 0 15.8438 0 16.4648L0 19.3242C0 21.75 1.23047 22.957 3.67969 22.957ZM16.3945 22.957L19.2656 22.957C21.7148 22.957 22.9453 21.7383 22.9453 19.3242L22.9453 16.4648C22.9453 15.8438 22.6055 15.5039 21.9961 15.5039C21.3867 15.5039 21.0586 15.8438 21.0586 16.4648L21.0586 19.2305C21.0586 20.4492 20.3906 21.0703 19.2305 21.0703L16.3945 21.0703C15.7852 21.0703 15.4453 21.4102 15.4453 22.0195C15.4453 22.6172 15.7852 22.957 16.3945 22.957Z" fill="#000000"/>
  <path d="M6.36328 17.1094L10.4414 17.1094C10.7344 17.1094 10.957 16.8867 10.957 16.5938L10.957 12.5156C10.957 12.2227 10.7344 12 10.4414 12L6.36328 12C6.07031 12 5.84766 12.2227 5.84766 12.5156L5.84766 16.5938C5.84766 16.8867 6.07031 17.1094 6.36328 17.1094ZM6.86719 16.0898L6.86719 13.0195L9.9375 13.0195L9.9375 16.0898ZM7.75781 15.1875L9.04688 15.1875L9.04688 13.9102L7.75781 13.9102ZM6.36328 10.9805L10.4414 10.9805C10.7344 10.9805 10.957 10.7578 10.957 10.4766L10.957 6.38672C10.957 6.10547 10.7344 5.87109 10.4414 5.87109L6.36328 5.87109C6.07031 5.87109 5.84766 6.10547 5.84766 6.38672L5.84766 10.4766C5.84766 10.7578 6.07031 10.9805 6.36328 10.9805ZM6.86719 9.96094L6.86719 6.89062L9.9375 6.89062L9.9375 9.96094ZM7.75781 9.07031L9.04688 9.07031L9.04688 7.78125L7.75781 7.78125ZM12.4805 10.9805L16.5586 10.9805C16.8516 10.9805 17.0742 10.7578 17.0742 10.4766L17.0742 6.38672C17.0742 6.10547 16.8516 5.87109 16.5586 5.87109L12.4805 5.87109C12.1875 5.87109 11.9648 6.10547 11.9648 6.38672L11.9648 10.4766C11.9648 10.7578 12.1875 10.9805 12.4805 10.9805ZM12.9844 9.96094L12.9844 6.89062L16.0547 6.89062L16.0547 9.96094ZM13.8867 9.07031L15.1641 9.07031L15.1641 7.78125L13.8867 7.78125ZM12.1172 16.957L13.3945 16.957L13.3945 15.6797L12.1172 15.6797ZM15.6445 16.957L16.9219 16.957L16.9219 15.6797L15.6445 15.6797ZM13.875 15.1875L15.1641 15.1875L15.1641 13.9102L13.875 13.9102ZM12.1172 13.418L13.3945 13.418L13.3945 12.1406L12.1172 12.1406ZM15.6445 13.418L16.9219 13.418L16.9219 12.1406L15.6445 12.1406Z" fill="#000000"/>
 </g>
</svg>
