<?xml version="1.0" encoding="UTF-8"?>

<!--
  - Copyright (c) 2023. Compose Cupertino project and open source contributors.
  -
  -  Licensed under the Apache License, Version 2.0 (the "License");
  -  you may not use this file except in compliance with the License.
  -  You may obtain a copy of the License at
  -
  -      http://www.apache.org/licenses/LICENSE-2.0
  -
  -  Unless required by applicable law or agreed to in writing, software
  -  distributed under the License is distributed on an "AS IS" BASIS,
  -  WITHOUT WARRANTIES OR CONDITIONS OF ANY KIND, either express or implied.
  -  See the License for the specific language governing permissions and
  -  limitations under the License.
  -
  -->

<svg version="1.1" xmlns="http://www.w3.org/2000/svg" xmlns:xlink="http://www.w3.org/1999/xlink" width="21.5742" height="21.5977">
  <path d="M2.23828 9.84375L7.58203 9.84375C9.07031 9.84375 9.82031 9.09375 9.82031 7.54688L9.82031 2.30859C9.82031 0.761719 9.07031 0.0234375 7.58203 0.0234375L2.23828 0.0234375C0.75 0.0234375 0 0.761719 0 2.30859L0 7.54688C0 9.09375 0.75 9.84375 2.23828 9.84375ZM2.26172 8.19141C1.85156 8.19141 1.65234 7.98047 1.65234 7.54688L1.65234 2.30859C1.65234 1.88672 1.85156 1.67578 2.26172 1.67578L7.54688 1.67578C7.95703 1.67578 8.16797 1.88672 8.16797 2.30859L8.16797 7.54688C8.16797 7.98047 7.95703 8.19141 7.54688 8.19141ZM3.90234 6.16406L5.90625 6.16406C6.07031 6.16406 6.14062 6.09375 6.14062 5.89453L6.14062 3.94922C6.14062 3.76172 6.07031 3.69141 5.90625 3.69141L3.90234 3.69141C3.72656 3.69141 3.66797 3.76172 3.66797 3.94922L3.66797 5.89453C3.66797 6.09375 3.72656 6.16406 3.90234 6.16406ZM14.0039 9.84375L19.3359 9.84375C20.8242 9.84375 21.5742 9.09375 21.5742 7.54688L21.5742 2.30859C21.5742 0.761719 20.8242 0.0234375 19.3359 0.0234375L14.0039 0.0234375C12.5039 0.0234375 11.7539 0.761719 11.7539 2.30859L11.7539 7.54688C11.7539 9.09375 12.5039 9.84375 14.0039 9.84375ZM14.0273 8.19141C13.6055 8.19141 13.4062 7.98047 13.4062 7.54688L13.4062 2.30859C13.4062 1.88672 13.6055 1.67578 14.0273 1.67578L19.3125 1.67578C19.7227 1.67578 19.9219 1.88672 19.9219 2.30859L19.9219 7.54688C19.9219 7.98047 19.7227 8.19141 19.3125 8.19141ZM15.7266 6.16406L17.7305 6.16406C17.9062 6.16406 17.9766 6.09375 17.9766 5.89453L17.9766 3.94922C17.9766 3.76172 17.9062 3.69141 17.7305 3.69141L15.7266 3.69141C15.5625 3.69141 15.5039 3.76172 15.5039 3.94922L15.5039 5.89453C15.5039 6.09375 15.5625 6.16406 15.7266 6.16406ZM2.23828 21.5977L7.58203 21.5977C9.07031 21.5977 9.82031 20.8594 9.82031 19.3125L9.82031 14.0625C9.82031 12.5273 9.07031 11.7773 7.58203 11.7773L2.23828 11.7773C0.75 11.7773 0 12.5273 0 14.0625L0 19.3125C0 20.8594 0.75 21.5977 2.23828 21.5977ZM2.26172 19.9453C1.85156 19.9453 1.65234 19.7344 1.65234 19.3125L1.65234 14.0742C1.65234 13.6406 1.85156 13.4297 2.26172 13.4297L7.54688 13.4297C7.95703 13.4297 8.16797 13.6406 8.16797 14.0742L8.16797 19.3125C8.16797 19.7344 7.95703 19.9453 7.54688 19.9453ZM3.90234 17.9297L5.90625 17.9297C6.07031 17.9297 6.14062 17.8594 6.14062 17.6484L6.14062 15.7148C6.14062 15.5273 6.07031 15.457 5.90625 15.457L3.90234 15.457C3.72656 15.457 3.66797 15.5273 3.66797 15.7148L3.66797 17.6484C3.66797 17.8594 3.72656 17.9297 3.90234 17.9297ZM12.5508 14.8125L14.5547 14.8125C14.7188 14.8125 14.7891 14.7422 14.7891 14.543L14.7891 12.5977C14.7891 12.4102 14.7188 12.3398 14.5547 12.3398L12.5508 12.3398C12.375 12.3398 12.3164 12.4102 12.3164 12.5977L12.3164 14.543C12.3164 14.7422 12.375 14.8125 12.5508 14.8125ZM18.7734 14.8125L20.7773 14.8125C20.9414 14.8125 21.0117 14.7422 21.0117 14.543L21.0117 12.5977C21.0117 12.4102 20.9414 12.3398 20.7773 12.3398L18.7734 12.3398C18.5977 12.3398 18.5391 12.4102 18.5391 12.5977L18.5391 14.543C18.5391 14.7422 18.5977 14.8125 18.7734 14.8125ZM15.6914 17.9297L17.6953 17.9297C17.8594 17.9297 17.9297 17.8594 17.9297 17.6484L17.9297 15.7148C17.9297 15.5273 17.8594 15.457 17.6953 15.457L15.6914 15.457C15.5156 15.457 15.457 15.5273 15.457 15.7148L15.457 17.6484C15.457 17.8594 15.5156 17.9297 15.6914 17.9297ZM12.5508 21.0352L14.5547 21.0352C14.7188 21.0352 14.7891 20.9648 14.7891 20.7656L14.7891 18.8203C14.7891 18.6328 14.7188 18.5625 14.5547 18.5625L12.5508 18.5625C12.375 18.5625 12.3164 18.6328 12.3164 18.8203L12.3164 20.7656C12.3164 20.9648 12.375 21.0352 12.5508 21.0352ZM18.7734 21.0352L20.7773 21.0352C20.9414 21.0352 21.0117 20.9648 21.0117 20.7656L21.0117 18.8203C21.0117 18.6328 20.9414 18.5625 20.7773 18.5625L18.7734 18.5625C18.5977 18.5625 18.5391 18.6328 18.5391 18.8203L18.5391 20.7656C18.5391 20.9648 18.5977 21.0352 18.7734 21.0352Z" fill="#000000"/>
</svg>
