<?xml version="1.0" encoding="UTF-8"?>

<!--
  - Copyright (c) 2023. Compose Cupertino project and open source contributors.
  -
  -  Licensed under the Apache License, Version 2.0 (the "License");
  -  you may not use this file except in compliance with the License.
  -  You may obtain a copy of the License at
  -
  -      http://www.apache.org/licenses/LICENSE-2.0
  -
  -  Unless required by applicable law or agreed to in writing, software
  -  distributed under the License is distributed on an "AS IS" BASIS,
  -  WITHOUT WARRANTIES OR CONDITIONS OF ANY KIND, either express or implied.
  -  See the License for the specific language governing permissions and
  -  limitations under the License.
  -
  -->

<svg version="1.1" xmlns="http://www.w3.org/2000/svg" xmlns:xlink="http://www.w3.org/1999/xlink" width="21.6094" height="21.5273">
 <g>
  <path d="M20.2383 1.40625C19.043 0.210938 17.3555 0.0234375 15.3516 0.0234375L6.22266 0.0234375C4.25391 0.0234375 2.56641 0.210938 1.37109 1.40625C0.175781 2.60156 0 4.27734 0 6.23438L0 15.2812C0 17.2852 0.175781 18.9492 1.37109 20.1445C2.56641 21.3398 4.25391 21.5273 6.24609 21.5273L15.3516 21.5273C17.3555 21.5273 19.043 21.3398 20.2383 20.1445C21.4336 18.9492 21.6094 17.2852 21.6094 15.2812L21.6094 6.26953C21.6094 4.26562 21.4336 2.58984 20.2383 1.40625ZM19.7227 5.94141L19.7227 15.5977C19.7227 16.8164 19.5703 18.0586 18.8555 18.7734C18.1523 19.4766 16.8867 19.6406 15.6797 19.6406L5.92969 19.6406C4.72266 19.6406 3.45703 19.4766 2.74219 18.7734C2.03906 18.0586 1.88672 16.8164 1.88672 15.5977L1.88672 5.97656C1.88672 4.74609 2.03906 3.48047 2.74219 2.77734C3.45703 2.0625 4.73438 1.91016 5.96484 1.91016L15.6797 1.91016C16.8867 1.91016 18.1523 2.07422 18.8555 2.77734C19.5703 3.49219 19.7227 4.73438 19.7227 5.94141Z" fill="#000000"/>
  <path d="M10.582 13.1836C11.168 13.1836 11.5195 12.8086 11.5195 12.3516C11.5195 12.3047 11.5195 12.2461 11.5195 12.2109C11.5195 11.5547 11.9062 11.1328 12.7148 10.5938C13.8516 9.84375 14.6602 9.16406 14.6602 7.75781C14.6602 5.8125 12.9375 4.75781 10.9453 4.75781C8.92969 4.75781 7.60547 5.71875 7.27734 6.79688C7.21875 6.98438 7.18359 7.17188 7.18359 7.37109C7.18359 7.89844 7.59375 8.17969 7.99219 8.17969C8.39062 8.17969 8.63672 7.99219 8.84766 7.71094L9.05859 7.42969C9.46875 6.75 10.0898 6.35156 10.8633 6.35156C11.9297 6.35156 12.6328 6.96094 12.6328 7.85156C12.6328 8.64844 12.1289 9.03516 11.1094 9.75C10.2656 10.3359 9.64453 10.957 9.64453 12.1055C9.64453 12.1523 9.64453 12.2109 9.64453 12.2578C9.64453 12.8672 9.97266 13.1836 10.582 13.1836ZM10.5469 16.6758C11.2266 16.6758 11.8125 16.1367 11.8125 15.457C11.8125 14.7773 11.2383 14.2383 10.5469 14.2383C9.85547 14.2383 9.28125 14.7891 9.28125 15.457C9.28125 16.125 9.86719 16.6758 10.5469 16.6758Z" fill="#000000"/>
 </g>
</svg>
