<?xml version="1.0" encoding="UTF-8"?>

<!--
  - Copyright (c) 2023. Compose Cupertino project and open source contributors.
  -
  -  Licensed under the Apache License, Version 2.0 (the "License");
  -  you may not use this file except in compliance with the License.
  -  You may obtain a copy of the License at
  -
  -      http://www.apache.org/licenses/LICENSE-2.0
  -
  -  Unless required by applicable law or agreed to in writing, software
  -  distributed under the License is distributed on an "AS IS" BASIS,
  -  WITHOUT WARRANTIES OR CONDITIONS OF ANY KIND, either express or implied.
  -  See the License for the specific language governing permissions and
  -  limitations under the License.
  -
  -->

<svg version="1.1" xmlns="http://www.w3.org/2000/svg" xmlns:xlink="http://www.w3.org/1999/xlink" width="26.6133" height="21.5977">
 <g>
  <path d="M3.67969 21.4453L23.2852 21.4453C25.3828 21.4453 26.6133 20.2266 26.6133 17.8125L26.6133 5.77734C26.6133 3.36328 25.3711 2.14453 22.9336 2.14453L11.6836 2.14453C10.8867 2.14453 10.4062 1.95703 9.82031 1.45312L9.10547 0.867188C8.33203 0.210938 7.73438 0 6.57422 0L3.23438 0C1.18359 0 0 1.17188 0 3.52734L0 17.8125C0 20.2383 1.23047 21.4453 3.67969 21.4453ZM3.70312 19.5586C2.53125 19.5586 1.88672 18.9375 1.88672 17.7188L1.88672 3.63281C1.88672 2.47266 2.49609 1.875 3.62109 1.875L6.09375 1.875C6.86719 1.875 7.33594 2.07422 7.93359 2.57812L8.64844 3.17578C9.41016 3.80859 10.0312 4.03125 11.1914 4.03125L22.8984 4.03125C24.0586 4.03125 24.7266 4.66406 24.7266 5.88281L24.7266 17.7305C24.7266 18.9375 24.0586 19.5586 22.8984 19.5586Z" fill="#000000"/>
  <path d="M13.1016 13.9805C13.6523 13.9805 13.9805 13.6289 13.9805 13.207C13.9805 13.1602 13.9805 13.1133 13.9805 13.0664C13.9805 12.457 14.332 12.082 15.0938 11.5781C16.1484 10.875 16.8984 10.2422 16.8984 8.94141C16.8984 7.13672 15.293 6.16406 13.4414 6.16406C11.5781 6.16406 10.3477 7.04297 10.043 8.03906C9.98438 8.22656 9.94922 8.39062 9.94922 8.57812C9.94922 9.07031 10.3359 9.32812 10.6992 9.32812C11.0742 9.32812 11.3086 9.16406 11.5078 8.89453L11.6953 8.63672C12.082 8.00391 12.6562 7.64062 13.3711 7.64062C14.3672 7.64062 15.0117 8.20312 15.0117 9.02344C15.0117 9.76172 14.5547 10.125 13.5938 10.793C12.8203 11.332 12.2344 11.9062 12.2344 12.9727C12.2344 13.0195 12.2344 13.0664 12.2344 13.1133C12.2344 13.6875 12.5508 13.9805 13.1016 13.9805ZM13.0781 17.2266C13.7109 17.2266 14.25 16.7227 14.25 16.0898C14.25 15.457 13.7227 14.9648 13.0781 14.9648C12.4453 14.9648 11.9062 15.4688 11.9062 16.0898C11.9062 16.7109 12.457 17.2266 13.0781 17.2266Z" fill="#000000"/>
 </g>
</svg>
