<?xml version="1.0" encoding="UTF-8"?>

<!--
  - Copyright (c) 2023. Compose Cupertino project and open source contributors.
  -
  -  Licensed under the Apache License, Version 2.0 (the "License");
  -  you may not use this file except in compliance with the License.
  -  You may obtain a copy of the License at
  -
  -      http://www.apache.org/licenses/LICENSE-2.0
  -
  -  Unless required by applicable law or agreed to in writing, software
  -  distributed under the License is distributed on an "AS IS" BASIS,
  -  WITHOUT WARRANTIES OR CONDITIONS OF ANY KIND, either express or implied.
  -  See the License for the specific language governing permissions and
  -  limitations under the License.
  -
  -->

<svg version="1.1" xmlns="http://www.w3.org/2000/svg" xmlns:xlink="http://www.w3.org/1999/xlink" width="21.5742" height="21.5977">
  <path d="M3.67969 21.5977L17.8945 21.5977C20.3555 21.5977 21.5742 20.3789 21.5742 17.9648L21.5742 3.65625C21.5742 1.24219 20.3555 0.0234375 17.8945 0.0234375L3.67969 0.0234375C1.23047 0.0234375 0 1.23047 0 3.65625L0 17.9648C0 20.3906 1.23047 21.5977 3.67969 21.5977ZM3.70312 19.7109C2.53125 19.7109 1.88672 19.0898 1.88672 17.8711L1.88672 3.75C1.88672 2.53125 2.53125 1.91016 3.70312 1.91016L17.8711 1.91016C19.0312 1.91016 19.6875 2.53125 19.6875 3.75L19.6875 17.8711C19.6875 19.0898 19.0312 19.7109 17.8711 19.7109Z M10.5586 13.2188C11.1562 13.2188 11.5078 12.8438 11.5078 12.3867C11.5078 12.3398 11.5078 12.2812 11.5078 12.2461C11.5078 11.5898 11.8945 11.168 12.7031 10.6289C13.8398 9.87891 14.6484 9.19922 14.6484 7.79297C14.6484 5.84766 12.9141 4.79297 10.9219 4.79297C8.91797 4.79297 7.59375 5.75391 7.26562 6.83203C7.20703 7.01953 7.17188 7.20703 7.17188 7.40625C7.17188 7.93359 7.58203 8.21484 7.96875 8.21484C8.37891 8.21484 8.625 8.02734 8.83594 7.74609L9.04688 7.46484C9.45703 6.78516 10.0781 6.38672 10.8516 6.38672C11.918 6.38672 12.6094 6.99609 12.6094 7.88672C12.6094 8.68359 12.1172 9.07031 11.0977 9.78516C10.2539 10.3711 9.62109 10.9922 9.62109 12.1406C9.62109 12.1875 9.62109 12.2461 9.62109 12.293C9.62109 12.9023 9.96094 13.2188 10.5586 13.2188ZM10.5352 16.7109C11.2148 16.7109 11.8008 16.1719 11.8008 15.4922C11.8008 14.8125 11.2266 14.2734 10.5352 14.2734C9.84375 14.2734 9.26953 14.8242 9.26953 15.4922C9.26953 16.1602 9.85547 16.7109 10.5352 16.7109Z" fill="#000000"/>
</svg>
