<?xml version="1.0" encoding="UTF-8"?>

<!--
  - Copyright (c) 2023. Compose Cupertino project and open source contributors.
  -
  -  Licensed under the Apache License, Version 2.0 (the "License");
  -  you may not use this file except in compliance with the License.
  -  You may obtain a copy of the License at
  -
  -      http://www.apache.org/licenses/LICENSE-2.0
  -
  -  Unless required by applicable law or agreed to in writing, software
  -  distributed under the License is distributed on an "AS IS" BASIS,
  -  WITHOUT WARRANTIES OR CONDITIONS OF ANY KIND, either express or implied.
  -  See the License for the specific language governing permissions and
  -  limitations under the License.
  -
  -->

<svg version="1.1" xmlns="http://www.w3.org/2000/svg" xmlns:xlink="http://www.w3.org/1999/xlink" width="12.7383" height="22.4414">
  <path d="M5.80078 16.0312C6.62109 16.0312 6.99609 15.4688 6.99609 14.7188C6.99609 14.5898 6.99609 14.4492 6.99609 14.3203C7.01953 12.7734 7.57031 12.1289 9.44531 10.8398C11.4609 9.48047 12.7383 7.91016 12.7383 5.64844C12.7383 2.13281 9.87891 0.117188 6.31641 0.117188C3.66797 0.117188 1.34766 1.37109 0.351562 3.63281C0.105469 4.18359 0 4.72266 0 5.16797C0 5.83594 0.386719 6.30469 1.10156 6.30469C1.69922 6.30469 2.09766 5.95312 2.27344 5.37891C2.87109 3.15234 4.34766 2.30859 6.23438 2.30859C8.51953 2.30859 10.3125 3.59766 10.3125 5.63672C10.3125 7.3125 9.26953 8.25 7.76953 9.30469C5.92969 10.582 4.58203 11.9531 4.58203 14.0156C4.58203 14.2617 4.58203 14.5078 4.58203 14.7539C4.58203 15.5039 4.99219 16.0312 5.80078 16.0312ZM5.80078 22.4414C6.73828 22.4414 7.47656 21.6914 7.47656 20.7773C7.47656 19.8516 6.73828 19.1133 5.80078 19.1133C4.88672 19.1133 4.13672 19.8516 4.13672 20.7773C4.13672 21.6914 4.88672 22.4414 5.80078 22.4414Z" fill="#000000"/>
</svg>
