<?xml version="1.0" encoding="UTF-8"?>

<!--
  - Copyright (c) 2023. Compose Cupertino project and open source contributors.
  -
  -  Licensed under the Apache License, Version 2.0 (the "License");
  -  you may not use this file except in compliance with the License.
  -  You may obtain a copy of the License at
  -
  -      http://www.apache.org/licenses/LICENSE-2.0
  -
  -  Unless required by applicable law or agreed to in writing, software
  -  distributed under the License is distributed on an "AS IS" BASIS,
  -  WITHOUT WARRANTIES OR CONDITIONS OF ANY KIND, either express or implied.
  -  See the License for the specific language governing permissions and
  -  limitations under the License.
  -
  -->

<svg version="1.1" xmlns="http://www.w3.org/2000/svg" xmlns:xlink="http://www.w3.org/1999/xlink" width="23.9062" height="23.918">
 <g>
  <path d="M11.9531 23.9062C18.4922 23.9062 23.9062 18.4805 23.9062 11.9531C23.9062 5.41406 18.4805 0 11.9414 0C5.41406 0 0 5.41406 0 11.9531C0 18.4805 5.42578 23.9062 11.9531 23.9062ZM11.9531 21.9141C6.42188 21.9141 2.00391 17.4844 2.00391 11.9531C2.00391 6.42188 6.41016 1.99219 11.9414 1.99219C17.4727 1.99219 21.9141 6.42188 21.9141 11.9531C21.9141 17.4844 17.4844 21.9141 11.9531 21.9141Z" fill="#000000"/>
  <path d="M11.707 14.3789C12.293 14.3789 12.6562 14.0039 12.6562 13.5469C12.6562 13.5 12.6562 13.4414 12.6562 13.4062C12.6562 12.75 13.0312 12.3281 13.8516 11.7891C14.9883 11.0391 15.7969 10.3594 15.7969 8.95312C15.7969 7.00781 14.0625 5.95312 12.0703 5.95312C10.0547 5.95312 8.73047 6.91406 8.41406 7.99219C8.35547 8.17969 8.32031 8.36719 8.32031 8.56641C8.32031 9.09375 8.73047 9.375 9.11719 9.375C9.51562 9.375 9.77344 9.1875 9.98438 8.90625L10.1953 8.625C10.6055 7.94531 11.2148 7.54688 12 7.54688C13.0664 7.54688 13.7578 8.15625 13.7578 9.04688C13.7578 9.84375 13.2656 10.2305 12.2461 10.9453C11.4023 11.5312 10.7695 12.1523 10.7695 13.3008C10.7695 13.3477 10.7695 13.4062 10.7695 13.4531C10.7695 14.0625 11.1094 14.3789 11.707 14.3789ZM11.6836 17.8711C12.3633 17.8711 12.9492 17.332 12.9492 16.6523C12.9492 15.9727 12.375 15.4336 11.6836 15.4336C10.9922 15.4336 10.418 15.9844 10.418 16.6523C10.418 17.3203 11.0039 17.8711 11.6836 17.8711Z" fill="#000000"/>
 </g>
</svg>
