<?xml version="1.0" encoding="UTF-8"?>

<!--
  - Copyright (c) 2023. Compose Cupertino project and open source contributors.
  -
  -  Licensed under the Apache License, Version 2.0 (the "License");
  -  you may not use this file except in compliance with the License.
  -  You may obtain a copy of the License at
  -
  -      http://www.apache.org/licenses/LICENSE-2.0
  -
  -  Unless required by applicable law or agreed to in writing, software
  -  distributed under the License is distributed on an "AS IS" BASIS,
  -  WITHOUT WARRANTIES OR CONDITIONS OF ANY KIND, either express or implied.
  -  See the License for the specific language governing permissions and
  -  limitations under the License.
  -
  -->

<svg version="1.1" xmlns="http://www.w3.org/2000/svg" xmlns:xlink="http://www.w3.org/1999/xlink" width="25.793" height="16.2539">
  <path d="M11.7188 10.6172C11.7188 7.5 9.41016 5.01562 6.43359 5.01562C5.03906 5.01562 3.71484 5.56641 2.74219 6.64453L2.42578 6.64453C3.10547 4.42969 5.16797 2.57812 7.73438 1.81641C8.09766 1.69922 8.36719 1.59375 8.53125 1.45312C8.71875 1.30078 8.82422 1.11328 8.82422 0.84375C8.82422 0.351562 8.44922 0.0117188 7.89844 0.0117188C7.53516 0.0117188 7.25391 0.0820312 6.75 0.246094C5.13281 0.773438 3.67969 1.69922 2.55469 2.88281C0.972656 4.52344 0 6.71484 0 9.31641C0 13.7109 2.78906 16.2539 6.05859 16.2539C9.28125 16.2539 11.7188 13.793 11.7188 10.6172ZM25.793 10.6172C25.793 7.5 23.4727 5.01562 20.5078 5.01562C19.1133 5.01562 17.7773 5.56641 16.8164 6.64453L16.5 6.64453C17.1797 4.42969 19.2422 2.57812 21.7969 1.81641C22.1602 1.69922 22.4414 1.59375 22.6055 1.45312C22.793 1.30078 22.8867 1.11328 22.8867 0.84375C22.8867 0.351562 22.5234 0.0117188 21.9727 0.0117188C21.5977 0.0117188 21.3281 0.0820312 20.8125 0.246094C19.207 0.773438 17.7422 1.69922 16.6172 2.88281C15.0469 4.52344 14.0742 6.71484 14.0742 9.31641C14.0742 13.7109 16.8633 16.2539 20.1328 16.2539C23.3555 16.2539 25.793 13.793 25.793 10.6172Z" fill="#000000"/>
</svg>
