<?xml version="1.0" encoding="UTF-8"?>

<!--
  - Copyright (c) 2023. Compose Cupertino project and open source contributors.
  -
  -  Licensed under the Apache License, Version 2.0 (the "License");
  -  you may not use this file except in compliance with the License.
  -  You may obtain a copy of the License at
  -
  -      http://www.apache.org/licenses/LICENSE-2.0
  -
  -  Unless required by applicable law or agreed to in writing, software
  -  distributed under the License is distributed on an "AS IS" BASIS,
  -  WITHOUT WARRANTIES OR CONDITIONS OF ANY KIND, either express or implied.
  -  See the License for the specific language governing permissions and
  -  limitations under the License.
  -
  -->

<svg version="1.1" xmlns="http://www.w3.org/2000/svg" xmlns:xlink="http://www.w3.org/1999/xlink" width="25.4414" height="25.5352">
 <g>
  <path d="M13.7461 1.01953C13.7461 0.46875 13.2773 0 12.7148 0C12.1641 0 11.6953 0.46875 11.6953 1.01953L11.6953 4.62891C11.6953 5.19141 12.1641 5.66016 12.7148 5.66016C13.2773 5.66016 13.7461 5.19141 13.7461 4.62891Z" fill="#000000"/>
  <path d="M17.6836 6.31641C17.2852 6.70312 17.2852 7.35938 17.6836 7.75781C18.0703 8.14453 18.7383 8.14453 19.1367 7.75781L21.6797 5.20312C22.0781 4.80469 22.0781 4.14844 21.6797 3.75C21.293 3.36328 20.6367 3.36328 20.25 3.75Z" fill="#000000"/>
  <path d="M24.4102 13.7344C24.9727 13.7344 25.4414 13.2656 25.4414 12.7148C25.4414 12.1641 24.9727 11.6953 24.4102 11.6953L20.8008 11.6953C20.25 11.6953 19.7812 12.1641 19.7812 12.7148C19.7812 13.2656 20.25 13.7344 20.8008 13.7344Z" fill="#000000"/>
  <path d="M19.1367 17.6719C18.7383 17.2852 18.0703 17.2852 17.6836 17.6719C17.2852 18.0703 17.2852 18.7266 17.6836 19.1133L20.25 21.6797C20.6367 22.0664 21.293 22.0547 21.6797 21.6797C22.0781 21.293 22.0781 20.625 21.6797 20.2266Z" fill="#000000"/>
  <path d="M13.7461 20.8008C13.7461 20.2383 13.2773 19.7695 12.7148 19.7695C12.1641 19.7695 11.6953 20.2383 11.6953 20.8008L11.6953 24.4102C11.6953 24.9609 12.1641 25.4297 12.7148 25.4297C13.2773 25.4297 13.7461 24.9609 13.7461 24.4102Z" fill="#000000"/>
  <path d="M3.75 20.2266C3.36328 20.6133 3.36328 21.2812 3.73828 21.668C4.125 22.0547 4.79297 22.0664 5.19141 21.6797L7.74609 19.125C8.13281 18.7383 8.13281 18.082 7.74609 17.6953C7.37109 17.2969 6.69141 17.2969 6.30469 17.6953Z" fill="#000000"/>
  <path d="M1.01953 11.6953C0.46875 11.6953 0 12.1641 0 12.7148C0 13.2656 0.46875 13.7344 1.01953 13.7344L4.65234 13.7344C5.20312 13.7344 5.67188 13.2656 5.67188 12.7148C5.67188 12.1641 5.20312 11.6953 4.65234 11.6953Z" fill="#000000"/>
  <path d="M6.1875 7.64062C6.57422 8.02734 7.23047 8.02734 7.62891 7.64062C8.01562 7.24219 8.01562 6.58594 7.62891 6.19922L5.08594 3.64453C4.69922 3.25781 4.04297 3.24609 3.64453 3.63281C3.25781 4.01953 3.25781 4.67578 3.64453 5.07422Z" fill="#000000"/>
 </g>
</svg>
