<?xml version="1.0" encoding="UTF-8"?>

<!--
  - Copyright (c) 2023. Compose Cupertino project and open source contributors.
  -
  -  Licensed under the Apache License, Version 2.0 (the "License");
  -  you may not use this file except in compliance with the License.
  -  You may obtain a copy of the License at
  -
  -      http://www.apache.org/licenses/LICENSE-2.0
  -
  -  Unless required by applicable law or agreed to in writing, software
  -  distributed under the License is distributed on an "AS IS" BASIS,
  -  WITHOUT WARRANTIES OR CONDITIONS OF ANY KIND, either express or implied.
  -  See the License for the specific language governing permissions and
  -  limitations under the License.
  -
  -->

<svg version="1.1" xmlns="http://www.w3.org/2000/svg" xmlns:xlink="http://www.w3.org/1999/xlink" width="34.8398" height="15.293">
  <path d="M0 7.64062C0 11.8594 3.42188 15.2812 7.64062 15.2812L27.1992 15.2812C31.4297 15.2812 34.8398 11.8594 34.8398 7.64062C34.8398 3.41016 31.4297 0 27.1992 0C22.9805 0 19.5586 3.42188 19.5586 7.64062C19.5586 9.90234 20.5664 11.9297 22.1953 13.2773L12.6445 13.2773C14.2734 11.9297 15.2812 9.90234 15.2812 7.64062C15.2812 3.41016 11.8594 0 7.64062 0C3.41016 0 0 3.42188 0 7.64062ZM2.00391 7.62891C2.00391 4.52344 4.53516 1.99219 7.65234 1.99219C10.7578 1.99219 13.2773 4.52344 13.2773 7.62891C13.2773 10.7461 10.7578 13.2773 7.65234 13.2773C4.53516 13.2773 2.00391 10.7461 2.00391 7.62891ZM21.5625 7.62891C21.5625 4.52344 24.082 1.99219 27.1875 1.99219C30.3047 1.99219 32.8359 4.52344 32.8359 7.62891C32.8359 10.7461 30.3047 13.2773 27.1875 13.2773C24.082 13.2773 21.5625 10.7461 21.5625 7.62891Z" fill="#000000"/>
</svg>
