<?xml version="1.0" encoding="UTF-8"?>

<!--
  - Copyright (c) 2023. Compose Cupertino project and open source contributors.
  -
  -  Licensed under the Apache License, Version 2.0 (the "License");
  -  you may not use this file except in compliance with the License.
  -  You may obtain a copy of the License at
  -
  -      http://www.apache.org/licenses/LICENSE-2.0
  -
  -  Unless required by applicable law or agreed to in writing, software
  -  distributed under the License is distributed on an "AS IS" BASIS,
  -  WITHOUT WARRANTIES OR CONDITIONS OF ANY KIND, either express or implied.
  -  See the License for the specific language governing permissions and
  -  limitations under the License.
  -
  -->

<svg version="1.1" xmlns="http://www.w3.org/2000/svg" xmlns:xlink="http://www.w3.org/1999/xlink" width="21.375" height="26.9648">
  <path d="M3.67969 18.9141L17.6953 18.9141C20.1445 18.9141 21.375 17.6953 21.375 15.293L21.375 5.00391C21.375 2.58984 20.1445 1.37109 17.6953 1.37109L3.67969 1.37109C1.21875 1.37109 0 2.58984 0 5.00391L0 15.293C0 17.6953 1.21875 18.9141 3.67969 18.9141ZM3.70312 17.0273C2.55469 17.0273 1.88672 16.4062 1.88672 15.1875L1.88672 5.10938C1.88672 3.89062 2.55469 3.25781 3.70312 3.25781L17.6602 3.25781C18.8203 3.25781 19.4883 3.89062 19.4883 5.10938L19.4883 15.1875C19.4883 16.4062 18.8203 17.0273 17.6602 17.0273ZM9.73828 24.3047L11.625 24.3047L11.625 17.707L9.73828 17.707ZM0.9375 25.2422L20.4258 25.2422C20.9414 25.2422 21.375 24.8203 21.375 24.3047C21.375 23.7773 20.9414 23.3555 20.4258 23.3555L0.9375 23.3555C0.421875 23.3555 0 23.7773 0 24.3047C0 24.8203 0.421875 25.2422 0.9375 25.2422ZM10.6875 26.9648C12.1406 26.9648 13.3359 25.7695 13.3359 24.3164C13.3359 22.8633 12.1406 21.668 10.6875 21.668C9.23438 21.668 8.03906 22.8633 8.03906 24.3164C8.03906 25.7695 9.23438 26.9648 10.6875 26.9648Z" fill="#000000"/>
</svg>
