<?xml version="1.0" encoding="UTF-8"?>

<!--
  - Copyright (c) 2023. Compose Cupertino project and open source contributors.
  -
  -  Licensed under the Apache License, Version 2.0 (the "License");
  -  you may not use this file except in compliance with the License.
  -  You may obtain a copy of the License at
  -
  -      http://www.apache.org/licenses/LICENSE-2.0
  -
  -  Unless required by applicable law or agreed to in writing, software
  -  distributed under the License is distributed on an "AS IS" BASIS,
  -  WITHOUT WARRANTIES OR CONDITIONS OF ANY KIND, either express or implied.
  -  See the License for the specific language governing permissions and
  -  limitations under the License.
  -
  -->

<svg version="1.1" xmlns="http://www.w3.org/2000/svg" xmlns:xlink="http://www.w3.org/1999/xlink" width="29.2998" height="22.7695">
 <g>
  <path d="M7.03273 3.67969L7.03273 19.0898C7.03273 21.5508 8.25148 22.7695 10.6655 22.7695L18.6343 22.7695C21.0366 22.7695 22.2554 21.5508 22.2554 19.0898L22.2554 3.67969C22.2554 1.21875 21.0484 0 18.6343 0L10.6655 0C8.25148 0 7.03273 1.21875 7.03273 3.67969ZM8.91944 3.70312C8.91944 2.53125 9.55226 1.88672 10.771 1.88672L18.5288 1.88672C19.7476 1.88672 20.3687 2.53125 20.3687 3.70312L20.3687 19.0664C20.3687 20.2148 19.7476 20.8828 18.5288 20.8828L10.771 20.8828C9.55226 20.8828 8.91944 20.2148 8.91944 19.0664Z" fill="#000000"/>
  <path d="M25.5952 14.4023L28.8648 12.2344C29.4507 11.8359 29.439 10.9922 28.8648 10.6055L25.5952 8.39062C24.8452 7.875 24.0601 8.15625 24.0601 9.07031L24.0601 13.7461C24.0601 14.625 24.8804 14.8828 25.5952 14.4023ZM3.7046 14.4023C4.41944 14.8828 5.23976 14.625 5.23976 13.7461L5.23976 9.07031C5.23976 8.15625 4.4546 7.875 3.7046 8.39062L0.43507 10.6055C-0.139149 10.9922-0.150868 11.8359 0.43507 12.2344Z" fill="#000000"/>
 </g>
</svg>
