<?xml version="1.0" encoding="UTF-8"?>

<!--
  - Copyright (c) 2023. Compose Cupertino project and open source contributors.
  -
  -  Licensed under the Apache License, Version 2.0 (the "License");
  -  you may not use this file except in compliance with the License.
  -  You may obtain a copy of the License at
  -
  -      http://www.apache.org/licenses/LICENSE-2.0
  -
  -  Unless required by applicable law or agreed to in writing, software
  -  distributed under the License is distributed on an "AS IS" BASIS,
  -  WITHOUT WARRANTIES OR CONDITIONS OF ANY KIND, either express or implied.
  -  See the License for the specific language governing permissions and
  -  limitations under the License.
  -
  -->

<svg version="1.1" xmlns="http://www.w3.org/2000/svg" xmlns:xlink="http://www.w3.org/1999/xlink" width="22.1719" height="29.4142">
 <g>
  <path d="M3.67969 22.377L18.4922 22.377C20.9531 22.377 22.1719 21.1582 22.1719 18.7442L22.1719 10.67C22.1719 8.2559 20.9531 7.03715 18.4922 7.03715L3.67969 7.03715C1.21875 7.03715 0 8.24418 0 10.67L0 18.7442C0 21.17 1.21875 22.377 3.67969 22.377ZM3.70312 20.4903C2.53125 20.4903 1.88672 19.8575 1.88672 18.6504L1.88672 10.7637C1.88672 9.54497 2.53125 8.92387 3.70312 8.92387L18.4688 8.92387C19.6289 8.92387 20.2852 9.54497 20.2852 10.7637L20.2852 18.6504C20.2852 19.8575 19.6289 20.4903 18.4688 20.4903Z" fill="#000000"/>
  <path d="M14.1094 3.69731L11.9297 0.439497C11.543-0.158159 10.6992-0.134722 10.3125 0.439497L8.09766 3.69731C7.58203 4.44731 7.86328 5.24418 8.76562 5.24418L13.4414 5.24418C14.3203 5.24418 14.5898 4.42387 14.1094 3.69731ZM14.1094 25.7051C14.5898 24.9903 14.3203 24.17 13.4414 24.17L8.76562 24.17C7.86328 24.17 7.58203 24.9551 8.09766 25.7051L10.3125 28.9747C10.6992 29.5489 11.543 29.5606 11.9297 28.9747Z" fill="#000000"/>
 </g>
</svg>
