<?xml version="1.0" encoding="UTF-8"?>

<!--
  - Copyright (c) 2023. Compose Cupertino project and open source contributors.
  -
  -  Licensed under the Apache License, Version 2.0 (the "License");
  -  you may not use this file except in compliance with the License.
  -  You may obtain a copy of the License at
  -
  -      http://www.apache.org/licenses/LICENSE-2.0
  -
  -  Unless required by applicable law or agreed to in writing, software
  -  distributed under the License is distributed on an "AS IS" BASIS,
  -  WITHOUT WARRANTIES OR CONDITIONS OF ANY KIND, either express or implied.
  -  See the License for the specific language governing permissions and
  -  limitations under the License.
  -
  -->

<svg version="1.1" xmlns="http://www.w3.org/2000/svg" xmlns:xlink="http://www.w3.org/1999/xlink" width="27.1992" height="25.1367">
 <g>
  <path d="M3.63281 25.125L16.0781 25.125C18.5039 25.125 19.7109 23.9062 19.7109 21.457L19.7109 16.0195L17.8242 16.0195L17.8242 21.4219C17.8242 22.5938 17.2031 23.2383 15.9844 23.2383L3.72656 23.2383C2.50781 23.2383 1.88672 22.5938 1.88672 21.4219L1.88672 3.71484C1.88672 2.54297 2.50781 1.88672 3.72656 1.88672L15.9844 1.88672C17.2031 1.88672 17.8242 2.54297 17.8242 3.71484L17.8242 9.10547L19.7109 9.10547L19.7109 3.67969C19.7109 1.24219 18.5039 0 16.0781 0L3.63281 0C1.20703 0 0 1.24219 0 3.67969L0 21.457C0 23.9062 1.20703 25.125 3.63281 25.125Z" fill="#000000"/>
  <path d="M10.8398 13.4883L22.875 13.4883L24.6328 13.418L23.8008 14.2148L21.9141 15.9844C21.7266 16.1484 21.6328 16.3945 21.6328 16.6172C21.6328 17.1094 21.9727 17.4727 22.4531 17.4727C22.6992 17.4727 22.8867 17.3789 23.0742 17.2031L26.8945 13.2422C27.1289 13.0078 27.1992 12.7969 27.1992 12.5625C27.1992 12.3164 27.1289 12.1172 26.8945 11.8828L23.0742 7.92188C22.8867 7.74609 22.6992 7.64062 22.4531 7.64062C21.9727 7.64062 21.6328 7.99219 21.6328 8.48438C21.6328 8.71875 21.7266 8.96484 21.9141 9.12891L23.8008 10.9102L24.6328 11.707L22.875 11.625L10.8398 11.625C10.3477 11.625 9.9375 12.0586 9.9375 12.5625C9.9375 13.0664 10.3477 13.4883 10.8398 13.4883Z" fill="#000000"/>
 </g>
</svg>
