<?xml version="1.0" encoding="UTF-8"?>

<!--
  - Copyright (c) 2023. Compose Cupertino project and open source contributors.
  -
  -  Licensed under the Apache License, Version 2.0 (the "License");
  -  you may not use this file except in compliance with the License.
  -  You may obtain a copy of the License at
  -
  -      http://www.apache.org/licenses/LICENSE-2.0
  -
  -  Unless required by applicable law or agreed to in writing, software
  -  distributed under the License is distributed on an "AS IS" BASIS,
  -  WITHOUT WARRANTIES OR CONDITIONS OF ANY KIND, either express or implied.
  -  See the License for the specific language governing permissions and
  -  limitations under the License.
  -
  -->

<svg version="1.1" xmlns="http://www.w3.org/2000/svg" xmlns:xlink="http://www.w3.org/1999/xlink" width="25.0195" height="20.918">
  <path d="M0.996094 10.8867C1.55859 10.8867 1.99219 10.4531 1.99219 9.89062L1.99219 8.77734C1.99219 6.76172 3.36328 5.44922 5.48438 5.44922L14.625 5.44922L14.625 8.20312C14.625 8.67188 14.9062 8.94141 15.3867 8.94141C15.5977 8.94141 15.8203 8.85938 15.9844 8.71875L20.4141 5.05078C20.7891 4.74609 20.8125 4.26562 20.4141 3.9375L15.9844 0.257812C15.8203 0.117188 15.5977 0.046875 15.3867 0.046875C14.9062 0.046875 14.625 0.304688 14.625 0.785156L14.625 3.50391L5.67188 3.50391C2.23828 3.50391 0 5.46094 0 8.63672L0 9.89062C0 10.4531 0.421875 10.8867 0.996094 10.8867ZM24.0234 10.0547C23.4492 10.0547 23.0273 10.4766 23.0273 11.0508L23.0273 12.1641C23.0273 14.1797 21.6562 15.4805 19.5234 15.4805L10.3828 15.4805L10.3828 12.7617C10.3828 12.2812 10.1133 12.0234 9.63281 12.0234C9.41016 12.0234 9.19922 12.0938 9.02344 12.2344L4.59375 15.9023C4.21875 16.2305 4.20703 16.6992 4.59375 17.0156L9.02344 20.6953C9.19922 20.8359 9.41016 20.918 9.63281 20.918C10.1133 20.918 10.3828 20.6484 10.3828 20.1797L10.3828 17.4375L19.3359 17.4375C22.7812 17.4375 25.0195 15.4805 25.0195 12.3047L25.0195 11.0508C25.0195 10.4766 24.5859 10.0547 24.0234 10.0547Z" fill="#000000"/>
</svg>
