<?xml version="1.0" encoding="UTF-8"?>

<!--
  - Copyright (c) 2023. Compose Cupertino project and open source contributors.
  -
  -  Licensed under the Apache License, Version 2.0 (the "License");
  -  you may not use this file except in compliance with the License.
  -  You may obtain a copy of the License at
  -
  -      http://www.apache.org/licenses/LICENSE-2.0
  -
  -  Unless required by applicable law or agreed to in writing, software
  -  distributed under the License is distributed on an "AS IS" BASIS,
  -  WITHOUT WARRANTIES OR CONDITIONS OF ANY KIND, either express or implied.
  -  See the License for the specific language governing permissions and
  -  limitations under the License.
  -
  -->

<svg version="1.1" xmlns="http://www.w3.org/2000/svg" xmlns:xlink="http://www.w3.org/1999/xlink" width="23.9062" height="23.918">
  <path d="M7.08984 12.3398C7.08984 16.6758 8.39062 20.9648 10.9805 23.6719L12.457 22.8633C10.1484 20.3672 8.96484 16.3828 8.96484 12.3398C8.96484 8.05078 10.1953 3.78516 12.457 1.04297L10.9688 0.246094C8.4375 3.17578 7.08984 7.75781 7.08984 12.3398ZM11.5312 16.2656C16.1016 16.2656 20.6836 14.9297 23.6133 12.3867L22.8281 10.8984C20.0859 13.1719 15.8203 14.3906 11.5312 14.3906C7.47656 14.3906 3.49219 13.207 0.996094 10.8984L0.199219 12.375C2.89453 14.9648 7.18359 16.2656 11.5312 16.2656ZM11.9531 23.9062C18.4922 23.9062 23.9062 18.4805 23.9062 11.9531C23.9062 5.41406 18.4805 0 11.9414 0C5.41406 0 0 5.41406 0 11.9531C0 18.4805 5.42578 23.9062 11.9531 23.9062ZM11.9531 21.9141C6.42188 21.9141 2.00391 17.4844 2.00391 11.9531C2.00391 6.42188 6.41016 1.99219 11.9414 1.99219C17.4727 1.99219 21.9141 6.42188 21.9141 11.9531C21.9141 17.4844 17.4844 21.9141 11.9531 21.9141Z" fill="#000000"/>
</svg>
