<?xml version="1.0" encoding="UTF-8"?>

<!--
  - Copyright (c) 2023. Compose Cupertino project and open source contributors.
  -
  -  Licensed under the Apache License, Version 2.0 (the "License");
  -  you may not use this file except in compliance with the License.
  -  You may obtain a copy of the License at
  -
  -      http://www.apache.org/licenses/LICENSE-2.0
  -
  -  Unless required by applicable law or agreed to in writing, software
  -  distributed under the License is distributed on an "AS IS" BASIS,
  -  WITHOUT WARRANTIES OR CONDITIONS OF ANY KIND, either express or implied.
  -  See the License for the specific language governing permissions and
  -  limitations under the License.
  -
  -->

<svg version="1.1" xmlns="http://www.w3.org/2000/svg" xmlns:xlink="http://www.w3.org/1999/xlink" width="28.6641" height="12.7148">
  <path d="M28.6641 3.16406C28.6641 1.08984 27.5742 0.0117188 25.4766 0.0117188L3.16406 0.0117188C1.06641 0.0117188 0 1.08984 0 3.16406L0 9.5625C0 11.6367 1.07812 12.7148 3.17578 12.7148L25.4883 12.7148C27.5859 12.7148 28.6641 11.6367 28.6641 9.5625ZM26.7656 3.50391L26.7656 9.22266C26.7656 10.2773 26.2031 10.8281 25.1836 10.8281L3.45703 10.8281C2.46094 10.8281 1.88672 10.2773 1.88672 9.22266L1.88672 3.50391C1.88672 2.44922 2.46094 1.89844 3.46875 1.89844L25.1953 1.89844C26.2031 1.89844 26.7656 2.44922 26.7656 3.50391ZM4.47656 1.24219L3.52734 1.24219L3.52734 7.41797C3.52734 7.6875 3.73828 7.88672 4.00781 7.88672C4.28906 7.88672 4.47656 7.67578 4.47656 7.40625ZM6.55078 1.24219L5.60156 1.24219L5.60156 5.35547C5.60156 5.63672 5.8125 5.82422 6.07031 5.82422C6.36328 5.82422 6.55078 5.625 6.55078 5.34375ZM8.61328 1.24219L7.65234 1.24219L7.65234 5.35547C7.65234 5.63672 7.875 5.82422 8.13281 5.82422C8.41406 5.82422 8.61328 5.625 8.61328 5.34375ZM10.6641 1.24219L9.71484 1.24219L9.71484 5.35547C9.71484 5.63672 9.92578 5.82422 10.1953 5.82422C10.4766 5.82422 10.6641 5.625 10.6641 5.34375ZM12.7383 1.24219L11.7891 1.24219L11.7891 5.35547C11.7891 5.63672 12 5.82422 12.2578 5.82422C12.5508 5.82422 12.7383 5.625 12.7383 5.34375ZM14.8125 1.24219L13.8633 1.24219L13.8633 7.41797C13.8633 7.6875 14.0742 7.88672 14.332 7.88672C14.625 7.88672 14.8125 7.67578 14.8125 7.40625ZM16.875 1.24219L15.9258 1.24219L15.9258 5.35547C15.9258 5.63672 16.1367 5.82422 16.3945 5.82422C16.6758 5.82422 16.875 5.625 16.875 5.34375ZM18.9375 1.24219L17.9883 1.24219L17.9883 5.35547C17.9883 5.63672 18.1992 5.82422 18.4688 5.82422C18.75 5.82422 18.9375 5.625 18.9375 5.34375ZM21 1.24219L20.0508 1.24219L20.0508 5.35547C20.0508 5.63672 20.2617 5.82422 20.5195 5.82422C20.8125 5.82422 21 5.625 21 5.34375ZM23.0742 1.24219L22.125 1.24219L22.125 5.35547C22.125 5.63672 22.3359 5.82422 22.5938 5.82422C22.875 5.82422 23.0742 5.625 23.0742 5.34375ZM25.1367 1.24219L24.1875 1.24219L24.1875 7.41797C24.1875 7.6875 24.3984 7.88672 24.668 7.88672C24.9492 7.88672 25.1367 7.67578 25.1367 7.40625Z" fill="#000000"/>
</svg>
