<?xml version="1.0" encoding="UTF-8"?>

<!--
  - Copyright (c) 2023. Compose Cupertino project and open source contributors.
  -
  -  Licensed under the Apache License, Version 2.0 (the "License");
  -  you may not use this file except in compliance with the License.
  -  You may obtain a copy of the License at
  -
  -      http://www.apache.org/licenses/LICENSE-2.0
  -
  -  Unless required by applicable law or agreed to in writing, software
  -  distributed under the License is distributed on an "AS IS" BASIS,
  -  WITHOUT WARRANTIES OR CONDITIONS OF ANY KIND, either express or implied.
  -  See the License for the specific language governing permissions and
  -  limitations under the License.
  -
  -->

<svg version="1.1" xmlns="http://www.w3.org/2000/svg" xmlns:xlink="http://www.w3.org/1999/xlink" width="23.1718" height="24.7852">
  <path d="M0.171838 20.918C-0.437537 23.3555 0.593713 24.7617 2.94918 24.7617L20.2226 24.7617C22.5781 24.7617 23.6093 23.3555 23 20.918L20.4101 10.4531C19.9765 8.73047 18.7343 7.73438 16.9882 7.73438L6.18356 7.73438C4.43746 7.73438 3.18356 8.73047 2.76168 10.4531ZM1.99996 21.0352L4.51949 11.1094C4.77731 10.1016 5.35153 9.62109 6.32418 9.62109L16.8476 9.62109C17.8203 9.62109 18.3945 10.1016 18.6523 11.1094L21.1718 21.0352C21.4882 22.2422 21.0195 22.875 19.9765 22.875L3.18356 22.875C2.15231 22.875 1.68356 22.2422 1.99996 21.0352ZM10.6367 9.10547L12.5234 9.10547L12.5234 5.76562L10.6367 5.76562ZM11.5859 6.67969C13.4023 6.67969 14.9375 5.16797 14.9375 3.35156C14.9375 1.52344 13.4023 0 11.5859 0C9.75778 0 8.23434 1.52344 8.23434 3.35156C8.23434 5.17969 9.76949 6.67969 11.5859 6.67969ZM11.5859 5.05078C10.6601 5.05078 9.87496 4.27734 9.87496 3.35156C9.87496 2.42578 10.6484 1.62891 11.5859 1.62891C12.5117 1.62891 13.2968 2.42578 13.2968 3.35156C13.2968 4.27734 12.5234 5.05078 11.5859 5.05078Z" fill="#000000"/>
</svg>
