<?xml version="1.0" encoding="UTF-8"?>

<!--
  - Copyright (c) 2023. Compose Cupertino project and open source contributors.
  -
  -  Licensed under the Apache License, Version 2.0 (the "License");
  -  you may not use this file except in compliance with the License.
  -  You may obtain a copy of the License at
  -
  -      http://www.apache.org/licenses/LICENSE-2.0
  -
  -  Unless required by applicable law or agreed to in writing, software
  -  distributed under the License is distributed on an "AS IS" BASIS,
  -  WITHOUT WARRANTIES OR CONDITIONS OF ANY KIND, either express or implied.
  -  See the License for the specific language governing permissions and
  -  limitations under the License.
  -
  -->

<svg version="1.1" xmlns="http://www.w3.org/2000/svg" xmlns:xlink="http://www.w3.org/1999/xlink" width="30.0352" height="23.4961">
  <path d="M4.71094 23.4961C7.33594 23.4961 9.44531 21.3867 9.44531 18.7383C9.44531 17.7656 9.49219 17.3789 10.207 16.9922L30.0352 6.45703C29.5547 4.69922 27.6445 4.39453 24.7266 5.4375L14.7188 9.03516C13.3125 9.53906 12.7031 10.2305 12.3281 11.5312L12.0938 12.3867C11.918 12.9961 11.6484 13.3008 10.7227 13.7695L8.90625 14.7305C8.61328 14.8828 8.44922 14.9297 8.22656 14.9297C7.24219 14.9297 6.89062 14.0156 4.71094 14.0156C2.09766 14.0156 0 16.125 0 18.7383C0 21.375 2.09766 23.4961 4.71094 23.4961ZM4.71094 21.5742C3.16406 21.5742 1.92188 20.3203 1.92188 18.7383C1.92188 17.1914 3.16406 15.9258 4.71094 15.9258C6.28125 15.9258 7.53516 17.1914 7.53516 18.7383C7.53516 20.3203 6.28125 21.5742 4.71094 21.5742ZM14.9766 12.4336C14.4609 12.4336 14.0039 12 14.0039 11.4609C14.0039 10.8984 14.4609 10.4766 14.9766 10.4766C15.5273 10.4766 15.9844 10.8984 15.9844 11.4609C15.9844 12 15.5273 12.4336 14.9766 12.4336ZM4.71094 10.1602C6.90234 10.1602 7.25391 9.25781 8.22656 9.25781C8.44922 9.25781 8.61328 9.30469 8.90625 9.44531L10.8867 10.5C11.1328 10.6289 11.332 10.7461 11.4844 10.8516L11.5547 10.8516C11.8242 9.86719 12.2695 9.23438 13.0078 8.76562L13.0078 8.69531L10.3477 7.27734C9.51562 6.83203 9.44531 6.46875 9.44531 5.42578C9.44531 2.77734 7.33594 0.667969 4.71094 0.667969C2.09766 0.667969 0 2.78906 0 5.42578C0 8.05078 2.09766 10.1602 4.71094 10.1602ZM4.71094 8.25C3.16406 8.25 1.92188 6.97266 1.92188 5.42578C1.92188 3.84375 3.16406 2.58984 4.71094 2.58984C6.28125 2.58984 7.53516 3.84375 7.53516 5.42578C7.53516 6.97266 6.28125 8.25 4.71094 8.25ZM24.7266 18.7617C27.668 19.8516 29.5547 19.5 30.0352 17.6953L20.4961 12.6562L15.6562 15.1992L15.6562 15.3398Z" fill="#000000"/>
</svg>
