<?xml version="1.0" encoding="UTF-8"?>

<!--
  - Copyright (c) 2023. Compose Cupertino project and open source contributors.
  -
  -  Licensed under the Apache License, Version 2.0 (the "License");
  -  you may not use this file except in compliance with the License.
  -  You may obtain a copy of the License at
  -
  -      http://www.apache.org/licenses/LICENSE-2.0
  -
  -  Unless required by applicable law or agreed to in writing, software
  -  distributed under the License is distributed on an "AS IS" BASIS,
  -  WITHOUT WARRANTIES OR CONDITIONS OF ANY KIND, either express or implied.
  -  See the License for the specific language governing permissions and
  -  limitations under the License.
  -
  -->

<svg version="1.1" xmlns="http://www.w3.org/2000/svg" xmlns:xlink="http://www.w3.org/1999/xlink" width="28.5" height="28.5117">
  <path d="M14.25 25.3477C20.3438 25.3477 25.3125 20.3672 25.3125 14.2617C25.3125 8.15625 20.3438 3.17578 14.25 3.17578C8.15625 3.17578 3.1875 8.15625 3.1875 14.2617C3.1875 20.3672 8.15625 25.3477 14.25 25.3477ZM14.25 23.4375C9.16406 23.4375 5.15625 19.3945 5.15625 14.2617C5.15625 9.12891 9.16406 5.08594 14.25 5.08594C19.3359 5.08594 23.3438 9.12891 23.3438 14.2617C23.3438 19.3945 19.3359 23.4375 14.25 23.4375ZM14.25 28.5117C14.7188 28.5117 15.082 28.1367 15.082 27.668L15.082 19.7344C15.082 19.2656 14.7188 18.9023 14.25 18.9023C13.7812 18.9023 13.4062 19.2656 13.4062 19.7344L13.4062 27.668C13.4062 28.1367 13.7812 28.5117 14.25 28.5117ZM0.84375 15.1055L8.77734 15.1055C9.24609 15.1055 9.62109 14.7305 9.62109 14.2617C9.62109 13.793 9.24609 13.4297 8.77734 13.4297L0.84375 13.4297C0.375 13.4297 0 13.793 0 14.2617C0 14.7305 0.375 15.1055 0.84375 15.1055ZM14.25 9.63281C14.7188 9.63281 15.082 9.25781 15.082 8.78906L15.082 0.855469C15.082 0.386719 14.7188 0.0117188 14.25 0.0117188C13.7812 0.0117188 13.4062 0.386719 13.4062 0.855469L13.4062 8.78906C13.4062 9.25781 13.7812 9.63281 14.25 9.63281ZM19.7227 15.1055L27.6562 15.1055C28.125 15.1055 28.5 14.7305 28.5 14.2617C28.5 13.793 28.125 13.4297 27.6562 13.4297L19.7227 13.4297C19.2539 13.4297 18.8789 13.793 18.8789 14.2617C18.8789 14.7305 19.2539 15.1055 19.7227 15.1055Z" fill="#000000"/>
</svg>
