<?xml version="1.0" encoding="UTF-8"?>

<!--
  - Copyright (c) 2023. Compose Cupertino project and open source contributors.
  -
  -  Licensed under the Apache License, Version 2.0 (the "License");
  -  you may not use this file except in compliance with the License.
  -  You may obtain a copy of the License at
  -
  -      http://www.apache.org/licenses/LICENSE-2.0
  -
  -  Unless required by applicable law or agreed to in writing, software
  -  distributed under the License is distributed on an "AS IS" BASIS,
  -  WITHOUT WARRANTIES OR CONDITIONS OF ANY KIND, either express or implied.
  -  See the License for the specific language governing permissions and
  -  limitations under the License.
  -
  -->

<svg version="1.1" xmlns="http://www.w3.org/2000/svg" xmlns:xlink="http://www.w3.org/1999/xlink" width="23.8372" height="21.9896">
  <path d="M0.259296 14.1413C0.622577 14.5046 1.16164 14.4929 1.5132 14.1413L3.5757 12.0788C10.771 4.88348 14.8609 0.69989 16.3023 2.12958C17.3101 3.13739 14.8374 5.98505 11.7905 9.5827C8.61476 13.3327 5.11086 17.2233 7.48976 19.614C9.55226 21.6882 12.8921 19.0397 15.9976 16.028C18.353 13.7429 20.1812 11.9733 20.8023 12.5827C21.3296 13.11 20.5796 14.153 19.689 15.6882C18.564 17.6335 17.1343 19.7194 18.4937 21.0788C19.5366 22.1218 21.3062 21.5124 23.4859 19.2741C23.9312 18.8405 23.9429 18.3015 23.5796 17.9382C23.2163 17.5866 22.689 17.5983 22.3257 17.9499C20.6265 19.5319 19.8999 19.9655 19.6187 19.6843C19.2905 19.3561 19.7593 18.653 21.0132 16.5905C22.5952 14.0007 23.1695 12.4538 22.0913 11.3757C20.6148 9.88739 18.4234 11.235 14.732 14.7507C11.1109 18.1843 9.50539 19.11 8.74367 18.36C7.81789 17.4577 9.03664 15.4186 13.1148 10.7311C17.6851 5.4577 19.4546 2.77411 17.5445 0.875672C15.189-1.46808 12.564 0.582703 2.33351 10.8249L0.259296 12.8874C-0.0922665 13.239-0.0805478 13.778 0.259296 14.1413Z" fill="#000000"/>
</svg>
