<?xml version="1.0" encoding="UTF-8"?>

<!--
  - Copyright (c) 2023. Compose Cupertino project and open source contributors.
  -
  -  Licensed under the Apache License, Version 2.0 (the "License");
  -  you may not use this file except in compliance with the License.
  -  You may obtain a copy of the License at
  -
  -      http://www.apache.org/licenses/LICENSE-2.0
  -
  -  Unless required by applicable law or agreed to in writing, software
  -  distributed under the License is distributed on an "AS IS" BASIS,
  -  WITHOUT WARRANTIES OR CONDITIONS OF ANY KIND, either express or implied.
  -  See the License for the specific language governing permissions and
  -  limitations under the License.
  -
  -->

<svg version="1.1" xmlns="http://www.w3.org/2000/svg" xmlns:xlink="http://www.w3.org/1999/xlink" width="24.8565" height="23.7473">
  <path d="M0.514576 15.0787C1.12395 15.6881 2.35442 15.8404 3.30364 14.985C3.62004 14.7037 4.27629 14.0006 5.5302 12.7467C11.5185 6.67636 15.4677 2.69199 16.3115 3.45371C16.9911 4.05136 14.9169 6.98105 12.9482 9.6998C9.25676 14.8443 6.31536 18.4068 8.49504 20.5865C10.2411 22.3326 12.9599 20.5748 17.1435 16.9068C19.499 14.8326 21.2685 13.1568 21.7841 13.6842C22.1708 14.0592 21.5732 15.0553 20.6943 16.5787C19.5575 18.524 18.1396 20.61 19.499 21.9693C20.4365 22.8951 22.2529 22.4967 24.4911 20.3053C24.8896 19.9068 24.9833 19.4615 24.6669 19.1451C24.3622 18.8521 23.9404 18.899 23.624 19.192C21.995 20.7857 20.9286 21.2896 20.6591 21.0084C20.3427 20.7037 20.9169 19.6607 22.1122 17.5631C23.624 14.9146 24.4325 13.2506 23.1552 12.0084C21.4443 10.3443 19.4169 12.1256 15.6669 15.4185C12.1396 18.524 11.1083 19.0279 10.663 18.5943C10.0654 17.985 10.9794 16.9068 14.9286 11.3873C18.62 6.21933 20.7646 2.99667 18.7607 1.06308C16.0302-1.59708 12.5146 0.500581 2.88176 10.0279C1.60442 11.2935 0.901295 11.9615 0.620045 12.2662C-0.282299 13.2623-0.0947992 14.4693 0.514576 15.0787Z" fill="#000000"/>
</svg>
