<?xml version="1.0" encoding="UTF-8"?>

<!--
  - Copyright (c) 2023. Compose Cupertino project and open source contributors.
  -
  -  Licensed under the Apache License, Version 2.0 (the "License");
  -  you may not use this file except in compliance with the License.
  -  You may obtain a copy of the License at
  -
  -      http://www.apache.org/licenses/LICENSE-2.0
  -
  -  Unless required by applicable law or agreed to in writing, software
  -  distributed under the License is distributed on an "AS IS" BASIS,
  -  WITHOUT WARRANTIES OR CONDITIONS OF ANY KIND, either express or implied.
  -  See the License for the specific language governing permissions and
  -  limitations under the License.
  -
  -->

<svg version="1.1" xmlns="http://www.w3.org/2000/svg" xmlns:xlink="http://www.w3.org/1999/xlink" width="24.9961" height="24.9023">
  <path d="M0 5.67188C0 6.375 0.46875 6.83203 1.19531 6.83203L4.24219 6.83203L4.24219 21.2109C4.24219 23.6719 5.44922 24.8906 7.91016 24.8906L21.3047 24.8906C23.5312 24.8906 24.9961 23.3672 24.9961 21.0586L24.9961 17.8711C24.9961 17.168 24.5273 16.7109 23.8008 16.7109L22.8281 16.7109L22.8281 3.67969C22.8281 1.23047 21.6094 0 19.1953 0L3.07031 0C1.24219 0 0 1.24219 0 3.19922ZM6.12891 21.2227L6.12891 3.19922C6.12891 2.71875 6.08203 2.27344 5.98828 1.88672L19.0898 1.88672C20.3086 1.88672 20.9414 2.53125 20.9414 3.70312L20.9414 16.7109L10.875 16.7109C10.1484 16.7109 9.66797 17.168 9.66797 17.8711L9.66797 21.2227C9.66797 22.2891 8.92969 23.0039 7.91016 23.0039C6.86719 23.0039 6.12891 22.2539 6.12891 21.2227ZM1.88672 4.94531L1.88672 3.19922C1.88672 2.37891 2.39062 1.88672 3.07031 1.88672C3.77344 1.88672 4.24219 2.37891 4.24219 3.19922L4.24219 4.94531ZM11.0977 23.0039C11.3906 22.4883 11.5547 21.8555 11.5547 21.0938L11.5547 18.5977L23.1094 18.5977L23.1094 21.0586C23.1094 22.2188 22.3828 23.0039 21.3047 23.0039ZM9.50391 10.9336L13.7109 10.9336C14.1328 10.9336 14.4375 10.6289 14.4375 10.2305C14.4375 9.82031 14.1328 9.49219 13.7109 9.49219L9.50391 9.49219C9.08203 9.49219 8.76562 9.82031 8.76562 10.2305C8.76562 10.6289 9.08203 10.9336 9.50391 10.9336ZM9.50391 6.84375L17.5664 6.84375C17.9883 6.84375 18.293 6.52734 18.293 6.11719C18.293 5.71875 17.9883 5.40234 17.5664 5.40234L9.50391 5.40234C9.08203 5.40234 8.76562 5.71875 8.76562 6.11719C8.76562 6.52734 9.08203 6.84375 9.50391 6.84375Z" fill="#000000"/>
</svg>
