<?xml version="1.0" encoding="UTF-8"?>

<!--
  - Copyright (c) 2023. Compose Cupertino project and open source contributors.
  -
  -  Licensed under the Apache License, Version 2.0 (the "License");
  -  you may not use this file except in compliance with the License.
  -  You may obtain a copy of the License at
  -
  -      http://www.apache.org/licenses/LICENSE-2.0
  -
  -  Unless required by applicable law or agreed to in writing, software
  -  distributed under the License is distributed on an "AS IS" BASIS,
  -  WITHOUT WARRANTIES OR CONDITIONS OF ANY KIND, either express or implied.
  -  See the License for the specific language governing permissions and
  -  limitations under the License.
  -
  -->

<svg version="1.1" xmlns="http://www.w3.org/2000/svg" xmlns:xlink="http://www.w3.org/1999/xlink" width="27.6328" height="21.5742">
  <path d="M21.6211 5.77734C22.4297 5.75391 23.1094 5.08594 23.1094 4.27734C23.1094 3.45703 22.4297 2.76562 21.6211 2.76562C20.8242 2.76562 20.1328 3.45703 20.1328 4.27734C20.1328 5.08594 20.8242 5.78906 21.6211 5.77734ZM21.6211 12.2695C22.4297 12.2461 23.1094 11.5781 23.1094 10.7695C23.1094 9.94922 22.4297 9.25781 21.6211 9.25781C20.8242 9.25781 20.1328 9.94922 20.1328 10.7695C20.1328 11.5781 20.8242 12.2812 21.6211 12.2695ZM21.6211 18.7617C22.4297 18.7383 23.1094 18.0703 23.1094 17.2617C23.1094 16.4414 22.4297 15.75 21.6211 15.75C20.8242 15.75 20.1328 16.4414 20.1328 17.2617C20.1328 18.0703 20.8242 18.7734 21.6211 18.7617ZM26.6133 8.42578L26.6133 6.65625L1.05469 6.65625L1.05469 8.42578ZM26.6133 14.9414L26.6133 13.1719L1.05469 13.1719L1.05469 14.9414ZM3.67969 21.5742L23.9531 21.5742C26.4141 21.5742 27.6328 20.3672 27.6328 17.9531L27.6328 3.63281C27.6328 1.21875 26.4141 0 23.9531 0L3.67969 0C1.23047 0 0 1.21875 0 3.63281L0 17.9531C0 20.3672 1.23047 21.5742 3.67969 21.5742ZM3.70312 19.6875C2.53125 19.6875 1.88672 19.0664 1.88672 17.8477L1.88672 3.73828C1.88672 2.51953 2.53125 1.88672 3.70312 1.88672L23.9297 1.88672C25.0898 1.88672 25.7461 2.51953 25.7461 3.73828L25.7461 17.8477C25.7461 19.0664 25.0898 19.6875 23.9297 19.6875Z" fill="#000000"/>
</svg>
