<?xml version="1.0" encoding="UTF-8"?>

<!--
  - Copyright (c) 2023. Compose Cupertino project and open source contributors.
  -
  -  Licensed under the Apache License, Version 2.0 (the "License");
  -  you may not use this file except in compliance with the License.
  -  You may obtain a copy of the License at
  -
  -      http://www.apache.org/licenses/LICENSE-2.0
  -
  -  Unless required by applicable law or agreed to in writing, software
  -  distributed under the License is distributed on an "AS IS" BASIS,
  -  WITHOUT WARRANTIES OR CONDITIONS OF ANY KIND, either express or implied.
  -  See the License for the specific language governing permissions and
  -  limitations under the License.
  -
  -->

<svg version="1.1" xmlns="http://www.w3.org/2000/svg" xmlns:xlink="http://www.w3.org/1999/xlink" width="34.957" height="27.0469">
 <g>
  <path d="M0.949219 23.2324C1.46484 23.2324 1.88672 22.834 1.88672 22.2949C1.88672 16.7988 4.32422 11.9238 8.07422 8.8418L6.75 7.49414C2.64844 10.9277 0 16.2949 0 22.2949C0 22.834 0.421875 23.2324 0.949219 23.2324ZM33.9961 23.2324C34.5234 23.2324 34.957 22.834 34.957 22.2949C34.957 11.959 27.0938 3.49805 17.4727 3.49805C15.0586 3.49805 12.7617 4.02539 10.6758 4.99805L12.1172 6.43945C13.7812 5.77148 15.5859 5.39648 17.4727 5.39648C26.0625 5.39648 33.0703 12.9902 33.0703 22.2949C33.0703 22.834 33.4805 23.2324 33.9961 23.2324ZM6.375 23.2324C6.89062 23.2324 7.34766 22.834 7.34766 22.3066C7.34766 18.4512 9.28125 14.9941 12.293 13.0488C12.1875 12.9316 12.0703 12.8145 11.9648 12.7207L10.957 11.7012C7.59375 13.9863 5.4375 17.959 5.4375 22.3066C5.4375 22.834 5.84766 23.2324 6.375 23.2324ZM29.0977 23.0801C29.3555 22.9277 29.5312 22.6348 29.5312 22.3066C29.5312 17.3848 26.8125 12.9434 22.6758 10.8574C22.7461 11.5371 22.6992 12.2402 22.5234 12.9316C25.4414 14.748 27.375 17.959 27.5977 21.5801ZM19.9336 14.2676C20.6602 13.5762 21.1172 12.5449 21.1172 11.373C21.1172 9.1582 19.4062 7.49414 17.4961 7.49414C16.3594 7.49414 15.3281 8.0918 14.6836 9.00586ZM11.5781 23.5137L22.7578 23.5137L16.1133 16.8691C12.293 17.3965 9.98438 20.1621 9.98438 22.2598C9.98438 23.0449 10.582 23.5137 11.5781 23.5137Z" fill="#000000"/>
  <path d="M27.9609 26.7832C28.3125 27.1348 28.8984 27.1348 29.2383 26.7832C29.5781 26.4316 29.5898 25.8691 29.2383 25.5059L7.34766 3.60352C6.98438 3.24023 6.42188 3.24023 6.05859 3.60352C5.71875 3.94336 5.71875 4.5293 6.05859 4.88086Z" fill="#000000"/>
 </g>
</svg>
