<?xml version="1.0" encoding="UTF-8"?>

<!--
  - Copyright (c) 2023. Compose Cupertino project and open source contributors.
  -
  -  Licensed under the Apache License, Version 2.0 (the "License");
  -  you may not use this file except in compliance with the License.
  -  You may obtain a copy of the License at
  -
  -      http://www.apache.org/licenses/LICENSE-2.0
  -
  -  Unless required by applicable law or agreed to in writing, software
  -  distributed under the License is distributed on an "AS IS" BASIS,
  -  WITHOUT WARRANTIES OR CONDITIONS OF ANY KIND, either express or implied.
  -  See the License for the specific language governing permissions and
  -  limitations under the License.
  -
  -->

<svg version="1.1" xmlns="http://www.w3.org/2000/svg" xmlns:xlink="http://www.w3.org/1999/xlink" width="34.957" height="20.6367">
 <g>
  <path d="M17.4961 11.8594C19.4297 11.8594 21.1172 10.125 21.1172 7.875C21.1172 5.64844 19.4062 3.98438 17.4961 3.98438C15.5508 3.98438 13.8633 5.68359 13.875 7.89844C13.875 10.125 15.5508 11.8594 17.4961 11.8594ZM11.5781 20.0156L23.3906 20.0156C24.375 20.0156 24.9961 19.5469 24.9961 18.7617C24.9961 16.418 22.1016 13.2422 17.4961 13.2422C12.8672 13.2422 9.98438 16.418 9.98438 18.7617C9.98438 19.5469 10.582 20.0156 11.5781 20.0156Z" fill="#000000"/>
  <path d="M6.375 19.7344C6.89062 19.7344 7.34766 19.3242 7.34766 18.8086C7.34766 14.8828 9.33984 11.3438 12.4688 9.41016C12.2812 8.70703 12.2344 8.05078 12.3398 7.33594C8.17969 9.39844 5.4375 13.8633 5.4375 18.8086C5.4375 19.3242 5.84766 19.7344 6.375 19.7344ZM28.582 19.7344C29.0977 19.7344 29.5312 19.3242 29.5312 18.8086C29.5312 13.875 26.8125 9.44531 22.6758 7.35938C22.7461 8.03906 22.6992 8.74219 22.5234 9.43359C25.6289 11.3672 27.6211 14.8945 27.6211 18.8086C27.6211 19.3242 28.0664 19.7344 28.582 19.7344Z" fill="#000000"/>
  <path d="M0.949219 19.7344C1.46484 19.7344 1.88672 19.3242 1.88672 18.7969C1.88672 9.48047 8.87109 1.88672 17.4727 1.88672C26.0625 1.88672 33.0703 9.48047 33.0703 18.7969C33.0703 19.3242 33.4805 19.7344 33.9961 19.7344C34.5234 19.7344 34.957 19.3242 34.957 18.7969C34.957 8.44922 27.0938 0 17.4727 0C7.83984 0 0 8.44922 0 18.7969C0 19.3242 0.421875 19.7344 0.949219 19.7344Z" fill="#000000"/>
 </g>
</svg>
