<?xml version="1.0" encoding="UTF-8"?>

<!--
  - Copyright (c) 2023. Compose Cupertino project and open source contributors.
  -
  -  Licensed under the Apache License, Version 2.0 (the "License");
  -  you may not use this file except in compliance with the License.
  -  You may obtain a copy of the License at
  -
  -      http://www.apache.org/licenses/LICENSE-2.0
  -
  -  Unless required by applicable law or agreed to in writing, software
  -  distributed under the License is distributed on an "AS IS" BASIS,
  -  WITHOUT WARRANTIES OR CONDITIONS OF ANY KIND, either express or implied.
  -  See the License for the specific language governing permissions and
  -  limitations under the License.
  -
  -->

<svg version="1.1" xmlns="http://www.w3.org/2000/svg" xmlns:xlink="http://www.w3.org/1999/xlink" width="23.9062" height="23.918">
 <g>
  <path d="M11.9531 23.9062C18.4922 23.9062 23.9062 18.4805 23.9062 11.9531C23.9062 5.41406 18.4805 0 11.9414 0C5.41406 0 0 5.41406 0 11.9531C0 18.4805 5.42578 23.9062 11.9531 23.9062ZM11.9531 21.9141C6.42188 21.9141 2.00391 17.4844 2.00391 11.9531C2.00391 6.42188 6.41016 1.99219 11.9414 1.99219C17.4727 1.99219 21.9141 6.42188 21.9141 11.9531C21.9141 17.4844 17.4844 21.9141 11.9531 21.9141Z" fill="#000000"/>
  <path d="M11.0273 7.03125C11.5078 6.55078 11.5195 5.82422 11.0391 5.35547C10.5938 4.88672 9.84375 4.85156 9.36328 5.29688C9.30469 5.39062 7.55859 7.04297 6.58594 8.12109C5.69531 9.08203 5.26172 10.3242 5.34375 11.5898C5.42578 12.9141 6.04688 14.1328 7.08984 15.0234C7.92188 15.75 9.02344 16.1133 10.125 16.1133C11.2734 16.1133 12.3984 15.7383 13.2539 14.9414C13.875 14.4023 14.5781 13.6406 14.6016 13.6289C15.0469 13.1367 15.0117 12.3867 14.543 11.9531C14.0625 11.4844 13.3008 11.5195 12.8672 12.0117C12.8438 12.0117 12.2227 12.7148 11.6719 13.1953C10.7812 13.9805 9.36328 13.8516 8.625 13.2422C8.08594 12.75 7.78125 12.1289 7.73438 11.4609C7.67578 10.8164 7.91016 10.207 8.34375 9.73828C9.24609 8.70703 11.0039 7.04297 11.0273 7.03125ZM12.8672 17.1211C12.3867 17.6016 12.375 18.3398 12.8438 18.7969C13.3008 19.2773 14.0391 19.3125 14.5195 18.8672C14.6016 18.7734 16.3359 17.1094 17.3086 16.0312C18.1875 15.082 18.6211 13.8516 18.5508 12.5625C18.4688 11.25 17.8477 10.0195 16.8281 9.14062C15.9609 8.40234 14.8711 8.05078 13.7578 8.05078C12.6094 8.05078 11.5078 8.42578 10.6289 9.21094C10.0078 9.75 9.30469 10.5117 9.29297 10.5352C8.83594 11.0391 8.87109 11.7891 9.35156 12.2109C9.83203 12.668 10.5938 12.6445 11.0273 12.1641C11.0391 12.1406 11.6719 11.4258 12.2227 10.9688C13.1016 10.1719 14.5195 10.3242 15.2578 10.9219C15.7969 11.4141 16.1133 12.0234 16.1484 12.7148C16.2188 13.3477 15.9727 13.957 15.5391 14.4492C14.6484 15.457 12.8789 17.1094 12.8672 17.1211Z" fill="#000000"/>
 </g>
</svg>
