<?xml version="1.0" encoding="UTF-8"?>

<!--
  - Copyright (c) 2023. Compose Cupertino project and open source contributors.
  -
  -  Licensed under the Apache License, Version 2.0 (the "License");
  -  you may not use this file except in compliance with the License.
  -  You may obtain a copy of the License at
  -
  -      http://www.apache.org/licenses/LICENSE-2.0
  -
  -  Unless required by applicable law or agreed to in writing, software
  -  distributed under the License is distributed on an "AS IS" BASIS,
  -  WITHOUT WARRANTIES OR CONDITIONS OF ANY KIND, either express or implied.
  -  See the License for the specific language governing permissions and
  -  limitations under the License.
  -
  -->

<svg version="1.1" xmlns="http://www.w3.org/2000/svg" xmlns:xlink="http://www.w3.org/1999/xlink" width="26.9297" height="21.2461">
  <path d="M0 16.6406C0 17.2266 0.433594 17.6133 1.07812 17.6133L3.75 17.6133C5.69531 17.6133 6.80859 17.0625 8.22656 15.4219L15.3281 7.13672C16.3359 5.96484 17.1797 5.53125 18.4688 5.53125L20.8594 5.53125L20.8594 8.17969C20.8594 8.64844 21.1289 8.91797 21.6094 8.91797C21.832 8.91797 22.043 8.83594 22.2188 8.69531L26.6484 5.02734C27.0234 4.72266 27.0234 4.24219 26.6484 3.91406L22.2188 0.234375C22.043 0.09375 21.832 0.0234375 21.6094 0.0234375C21.1289 0.0234375 20.8594 0.28125 20.8594 0.75L20.8594 3.57422L18.4102 3.57422C16.4531 3.57422 15.3281 4.125 13.9219 5.76562L6.83203 14.0508C5.8125 15.2344 5.00391 15.668 3.80859 15.668L1.07812 15.668C0.445312 15.668 0 16.0547 0 16.6406ZM0 4.55859C0 5.13281 0.445312 5.53125 1.07812 5.53125L3.80859 5.53125C5.01562 5.53125 5.82422 5.96484 6.83203 7.14844L13.9219 15.4336C15.3281 17.0625 16.4531 17.6133 18.4102 17.6133L20.8594 17.6133L20.8594 20.5195C20.8594 20.9883 21.1289 21.2461 21.6094 21.2461C21.832 21.2461 22.043 21.1758 22.2188 21.0352L26.6484 17.3672C27.0234 17.0508 27.0234 16.582 26.6484 16.2539L22.2188 12.5742C22.043 12.4336 21.832 12.3516 21.6094 12.3516C21.1289 12.3516 20.8594 12.6211 20.8594 13.0898L20.8594 15.668L18.4688 15.668C17.1797 15.668 16.3359 15.2344 15.3281 14.0508L8.22656 5.76562C6.80859 4.13672 5.69531 3.58594 3.75 3.58594L1.07812 3.58594C0.433594 3.58594 0 3.97266 0 4.55859Z" fill="#000000"/>
</svg>
