<?xml version="1.0" encoding="UTF-8"?>

<!--
  - Copyright (c) 2023. Compose Cupertino project and open source contributors.
  -
  -  Licensed under the Apache License, Version 2.0 (the "License");
  -  you may not use this file except in compliance with the License.
  -  You may obtain a copy of the License at
  -
  -      http://www.apache.org/licenses/LICENSE-2.0
  -
  -  Unless required by applicable law or agreed to in writing, software
  -  distributed under the License is distributed on an "AS IS" BASIS,
  -  WITHOUT WARRANTIES OR CONDITIONS OF ANY KIND, either express or implied.
  -  See the License for the specific language governing permissions and
  -  limitations under the License.
  -
  -->

<svg version="1.1" xmlns="http://www.w3.org/2000/svg" xmlns:xlink="http://www.w3.org/1999/xlink" width="27.6328" height="21.5977">
  <path d="M3.67969 21.5977L23.9531 21.5977C26.4141 21.5977 27.6328 20.3789 27.6328 17.9648L27.6328 3.65625C27.6328 1.24219 26.4141 0.0234375 23.9531 0.0234375L3.67969 0.0234375C1.23047 0.0234375 0 1.23047 0 3.65625L0 17.9648C0 20.3906 1.23047 21.5977 3.67969 21.5977ZM3.70312 19.7109C2.53125 19.7109 1.88672 19.0898 1.88672 17.8711L1.88672 3.75C1.88672 2.53125 2.53125 1.91016 3.70312 1.91016L23.9297 1.91016C25.0898 1.91016 25.7461 2.53125 25.7461 3.75L25.7461 17.8711C25.7461 19.0898 25.0898 19.7109 23.9297 19.7109ZM8.92969 20.0742L10.7695 20.0742L10.7695 1.55859L8.92969 1.55859ZM6.67969 6.25781C7.03125 6.25781 7.34766 5.94141 7.34766 5.60156C7.34766 5.25 7.03125 4.94531 6.67969 4.94531L4.16016 4.94531C3.80859 4.94531 3.50391 5.25 3.50391 5.60156C3.50391 5.94141 3.80859 6.25781 4.16016 6.25781ZM6.67969 9.29297C7.03125 9.29297 7.34766 8.97656 7.34766 8.625C7.34766 8.27344 7.03125 7.98047 6.67969 7.98047L4.16016 7.98047C3.80859 7.98047 3.50391 8.27344 3.50391 8.625C3.50391 8.97656 3.80859 9.29297 4.16016 9.29297ZM6.67969 12.3164C7.03125 12.3164 7.34766 12.0234 7.34766 11.6719C7.34766 11.3203 7.03125 11.0156 6.67969 11.0156L4.16016 11.0156C3.80859 11.0156 3.50391 11.3203 3.50391 11.6719C3.50391 12.0234 3.80859 12.3164 4.16016 12.3164Z" fill="#000000"/>
</svg>
