<?xml version="1.0" encoding="UTF-8"?>

<!--
  - Copyright (c) 2023. Compose Cupertino project and open source contributors.
  -
  -  Licensed under the Apache License, Version 2.0 (the "License");
  -  you may not use this file except in compliance with the License.
  -  You may obtain a copy of the License at
  -
  -      http://www.apache.org/licenses/LICENSE-2.0
  -
  -  Unless required by applicable law or agreed to in writing, software
  -  distributed under the License is distributed on an "AS IS" BASIS,
  -  WITHOUT WARRANTIES OR CONDITIONS OF ANY KIND, either express or implied.
  -  See the License for the specific language governing permissions and
  -  limitations under the License.
  -
  -->

<svg version="1.1" xmlns="http://www.w3.org/2000/svg" xmlns:xlink="http://www.w3.org/1999/xlink" width="27.6328" height="21.5977">
  <path d="M3.67969 21.5977L23.9531 21.5977C26.4141 21.5977 27.6328 20.3789 27.6328 17.9648L27.6328 3.65625C27.6328 1.24219 26.4141 0.0234375 23.9531 0.0234375L3.67969 0.0234375C1.23047 0.0234375 0 1.23047 0 3.65625L0 17.9648C0 20.3906 1.23047 21.5977 3.67969 21.5977ZM3.70312 19.7109C2.53125 19.7109 1.88672 19.0898 1.88672 17.8711L1.88672 3.75C1.88672 2.53125 2.53125 1.91016 3.70312 1.91016L23.9297 1.91016C25.0898 1.91016 25.7461 2.53125 25.7461 3.75L25.7461 17.8711C25.7461 19.0898 25.0898 19.7109 23.9297 19.7109ZM16.8984 20.0742L18.7383 20.0742L18.7383 1.55859L16.8984 1.55859ZM20.9883 6.25781L23.4961 6.25781C23.8594 6.25781 24.1641 5.94141 24.1641 5.60156C24.1641 5.25 23.8594 4.94531 23.4961 4.94531L20.9883 4.94531C20.6367 4.94531 20.3203 5.25 20.3203 5.60156C20.3203 5.94141 20.6367 6.25781 20.9883 6.25781ZM20.9883 9.29297L23.4961 9.29297C23.8594 9.29297 24.1641 8.97656 24.1641 8.625C24.1641 8.27344 23.8594 7.98047 23.4961 7.98047L20.9883 7.98047C20.6367 7.98047 20.3203 8.27344 20.3203 8.625C20.3203 8.97656 20.6367 9.29297 20.9883 9.29297ZM20.9883 12.3164L23.4961 12.3164C23.8594 12.3164 24.1641 12.0234 24.1641 11.6719C24.1641 11.3203 23.8594 11.0156 23.4961 11.0156L20.9883 11.0156C20.6367 11.0156 20.3203 11.3203 20.3203 11.6719C20.3203 12.0234 20.6367 12.3164 20.9883 12.3164Z" fill="#000000"/>
</svg>
