<?xml version="1.0" encoding="UTF-8"?>

<!--
  - Copyright (c) 2023. Compose Cupertino project and open source contributors.
  -
  -  Licensed under the Apache License, Version 2.0 (the "License");
  -  you may not use this file except in compliance with the License.
  -  You may obtain a copy of the License at
  -
  -      http://www.apache.org/licenses/LICENSE-2.0
  -
  -  Unless required by applicable law or agreed to in writing, software
  -  distributed under the License is distributed on an "AS IS" BASIS,
  -  WITHOUT WARRANTIES OR CONDITIONS OF ANY KIND, either express or implied.
  -  See the License for the specific language governing permissions and
  -  limitations under the License.
  -
  -->

<svg version="1.1" xmlns="http://www.w3.org/2000/svg" xmlns:xlink="http://www.w3.org/1999/xlink" width="27.7852" height="25.9102">
  <path d="M0 17.6367C0 19.0781 1.18359 20.2617 2.625 20.2617C3.64453 20.2617 4.54688 19.6523 4.96875 18.7852L22.6406 23.9531C22.9219 25.0781 23.9531 25.9102 25.1719 25.9102C26.6016 25.9102 27.7852 24.7383 27.7852 23.2969C27.7852 22.207 27.1055 21.2695 26.168 20.8828L25.6641 9.07031C26.6719 8.71875 27.3984 7.75781 27.3984 6.62109C27.3984 5.17969 26.2266 4.00781 24.7969 4.00781C23.8359 4.00781 23.0039 4.52344 22.5352 5.27344L12.7734 2.60156C12.7383 1.18359 11.5781 0.0351562 10.1719 0.0351562C8.73047 0.0351562 7.54688 1.21875 7.54688 2.66016C7.54688 3.43359 7.88672 4.125 8.42578 4.61719L2.98828 15.0703C2.85938 15.0352 2.74219 15.0234 2.625 15.0234C1.18359 15.0234 0 16.1953 0 17.6367ZM4.52344 15.8555L9.97266 5.23828C10.8867 5.35547 11.7656 4.92188 12.2344 4.19531L22.2305 6.9375C22.3125 7.95703 23.0508 8.83594 24.0234 9.12891L24.4336 20.7773C23.6602 21 23.0273 21.5742 22.7461 22.3125L5.15625 17.1445C5.08594 16.6406 4.875 16.2305 4.52344 15.8555Z" fill="#000000"/>
</svg>
