<?xml version="1.0" encoding="UTF-8"?>

<!--
  - Copyright (c) 2023. Compose Cupertino project and open source contributors.
  -
  -  Licensed under the Apache License, Version 2.0 (the "License");
  -  you may not use this file except in compliance with the License.
  -  You may obtain a copy of the License at
  -
  -      http://www.apache.org/licenses/LICENSE-2.0
  -
  -  Unless required by applicable law or agreed to in writing, software
  -  distributed under the License is distributed on an "AS IS" BASIS,
  -  WITHOUT WARRANTIES OR CONDITIONS OF ANY KIND, either express or implied.
  -  See the License for the specific language governing permissions and
  -  limitations under the License.
  -
  -->

<svg version="1.1" xmlns="http://www.w3.org/2000/svg" xmlns:xlink="http://www.w3.org/1999/xlink" width="23.6133" height="19.9805">
  <path d="M16.0078 19.9805C17.5547 19.9805 18.8203 18.7148 18.8203 17.168C18.8203 15.6211 17.5547 14.3555 16.0078 14.3555C14.4609 14.3555 13.1836 15.6211 13.1836 17.168C13.1836 18.7148 14.4609 19.9805 16.0078 19.9805ZM16.0078 18.5391C15.2344 18.5391 14.6367 17.9297 14.6367 17.168C14.6367 16.3828 15.2344 15.7969 16.0078 15.7969C16.7812 15.7969 17.3789 16.3828 17.3789 17.168C17.3789 17.9297 16.7812 18.5391 16.0078 18.5391ZM14.1445 16.2188L0.9375 16.2188C0.410156 16.2188 0 16.6406 0 17.168C0 17.6953 0.410156 18.1055 0.9375 18.1055L14.1445 18.1055ZM22.7109 16.2188L18.0469 16.2188L18.0469 18.1055L22.7109 18.1055C23.1914 18.1055 23.6133 17.6953 23.6133 17.168C23.6133 16.6406 23.1914 16.2188 22.7109 16.2188ZM7.73438 12.832C9.28125 12.832 10.5469 11.5547 10.5469 10.0078C10.5469 8.46094 9.28125 7.19531 7.73438 7.19531C6.1875 7.19531 4.92188 8.46094 4.92188 10.0078C4.92188 11.5547 6.1875 12.832 7.73438 12.832ZM7.73438 11.3789C6.97266 11.3789 6.36328 10.7695 6.36328 10.0078C6.36328 9.23438 6.97266 8.63672 7.73438 8.63672C8.50781 8.63672 9.10547 9.23438 9.10547 10.0078C9.10547 10.7695 8.50781 11.3789 7.73438 11.3789ZM0.890625 9.05859C0.410156 9.05859 0 9.48047 0 10.0078C0 10.5352 0.410156 10.9453 0.890625 10.9453L5.71875 10.9453L5.71875 9.05859ZM22.6641 9.05859L9.59766 9.05859L9.59766 10.9453L22.6641 10.9453C23.1914 10.9453 23.6133 10.5352 23.6133 10.0078C23.6133 9.48047 23.1914 9.05859 22.6641 9.05859ZM16.0078 5.66016C17.5547 5.66016 18.8203 4.39453 18.8203 2.84766C18.8203 1.30078 17.5547 0.0234375 16.0078 0.0234375C14.4609 0.0234375 13.1836 1.30078 13.1836 2.84766C13.1836 4.39453 14.4609 5.66016 16.0078 5.66016ZM16.0078 4.21875C15.2344 4.21875 14.6367 3.60938 14.6367 2.83594C14.6367 2.0625 15.2344 1.46484 16.0078 1.46484C16.7812 1.46484 17.3789 2.0625 17.3789 2.83594C17.3789 3.60938 16.7812 4.21875 16.0078 4.21875ZM14.2031 1.91016L0.9375 1.91016C0.410156 1.91016 0 2.32031 0 2.84766C0 3.375 0.410156 3.79688 0.9375 3.79688L14.2031 3.79688ZM22.7109 1.91016L17.8828 1.91016L17.8828 3.79688L22.7109 3.79688C23.1914 3.79688 23.6133 3.375 23.6133 2.84766C23.6133 2.32031 23.1914 1.91016 22.7109 1.91016Z" fill="#000000"/>
</svg>
