<?xml version="1.0" encoding="UTF-8"?>

<!--
  - Copyright (c) 2023. Compose Cupertino project and open source contributors.
  -
  -  Licensed under the Apache License, Version 2.0 (the "License");
  -  you may not use this file except in compliance with the License.
  -  You may obtain a copy of the License at
  -
  -      http://www.apache.org/licenses/LICENSE-2.0
  -
  -  Unless required by applicable law or agreed to in writing, software
  -  distributed under the License is distributed on an "AS IS" BASIS,
  -  WITHOUT WARRANTIES OR CONDITIONS OF ANY KIND, either express or implied.
  -  See the License for the specific language governing permissions and
  -  limitations under the License.
  -
  -->

<svg version="1.1" xmlns="http://www.w3.org/2000/svg" xmlns:xlink="http://www.w3.org/1999/xlink" width="21.4453" height="21.7617">
  <path d="M0 13.6055C0 15.1523 1.26562 16.418 2.8125 16.418C4.35938 16.418 5.63672 15.1523 5.63672 13.6055C5.63672 12.0586 4.35938 10.793 2.8125 10.793C1.26562 10.793 0 12.0586 0 13.6055ZM1.44141 13.6055C1.44141 12.832 2.05078 12.2344 2.82422 12.2344C3.59766 12.2344 4.19531 12.832 4.19531 13.6055C4.19531 14.3789 3.59766 14.9766 2.82422 14.9766C2.05078 14.9766 1.44141 14.3789 1.44141 13.6055ZM2.82422 0C2.29688 0 1.875 0.421875 1.875 0.949219L1.875 11.7422L3.76172 11.7422L3.76172 0.949219C3.76172 0.421875 3.35156 0 2.82422 0ZM2.82422 20.625C3.35156 20.625 3.76172 20.2031 3.76172 19.7227L3.76172 15.6445L1.875 15.6445L1.875 19.7227C1.875 20.2031 2.29688 20.625 2.82422 20.625ZM7.89844 6.83203C7.89844 8.37891 9.17578 9.64453 10.7227 9.64453C12.2695 9.64453 13.5352 8.37891 13.5352 6.83203C13.5352 5.28516 12.2695 4.01953 10.7227 4.01953C9.17578 4.01953 7.89844 5.28516 7.89844 6.83203ZM9.35156 6.83203C9.35156 6.07031 9.96094 5.46094 10.7227 5.46094C11.4961 5.46094 12.0938 6.07031 12.0938 6.83203C12.0938 7.60547 11.4961 8.20312 10.7227 8.20312C9.96094 8.20312 9.35156 7.60547 9.35156 6.83203ZM10.7227 0C10.1953 0 9.78516 0.421875 9.78516 0.902344L9.78516 4.81641L11.6719 4.81641L11.6719 0.902344C11.6719 0.421875 11.25 0 10.7227 0ZM10.7227 20.625C11.25 20.625 11.6719 20.2031 11.6719 19.6758L11.6719 8.69531L9.78516 8.69531L9.78516 19.6758C9.78516 20.2031 10.1953 20.625 10.7227 20.625ZM15.8203 13.6055C15.8203 15.1523 17.0859 16.418 18.6328 16.418C20.1797 16.418 21.4453 15.1523 21.4453 13.6055C21.4453 12.0586 20.1797 10.793 18.6328 10.793C17.0859 10.793 15.8203 12.0586 15.8203 13.6055ZM17.2617 13.6055C17.2617 12.832 17.8711 12.2344 18.6328 12.2344C19.418 12.2344 20.0039 12.832 20.0039 13.6055C20.0039 14.3789 19.418 14.9766 18.6328 14.9766C17.8711 14.9766 17.2617 14.3789 17.2617 13.6055ZM18.6328 0C18.1055 0 17.6836 0.421875 17.6836 0.949219L17.6836 11.8008L19.5703 11.8008L19.5703 0.949219C19.5703 0.421875 19.1602 0 18.6328 0ZM18.6328 20.625C19.1602 20.625 19.5703 20.2031 19.5703 19.7227L19.5703 15.4805L17.6836 15.4805L17.6836 19.7227C17.6836 20.2031 18.1055 20.625 18.6328 20.625Z" fill="#000000"/>
</svg>
