<?xml version="1.0" encoding="UTF-8"?>

<!--
  - Copyright (c) 2023. Compose Cupertino project and open source contributors.
  -
  -  Licensed under the Apache License, Version 2.0 (the "License");
  -  you may not use this file except in compliance with the License.
  -  You may obtain a copy of the License at
  -
  -      http://www.apache.org/licenses/LICENSE-2.0
  -
  -  Unless required by applicable law or agreed to in writing, software
  -  distributed under the License is distributed on an "AS IS" BASIS,
  -  WITHOUT WARRANTIES OR CONDITIONS OF ANY KIND, either express or implied.
  -  See the License for the specific language governing permissions and
  -  limitations under the License.
  -
  -->

<svg version="1.1" xmlns="http://www.w3.org/2000/svg" xmlns:xlink="http://www.w3.org/1999/xlink" width="20.7596" height="23.707">
  <path d="M10.3824 23.6953C10.898 23.6953 11.2027 23.332 11.2027 22.8281L11.2027 20.2852L13.2183 21.4336C13.6519 21.668 14.0972 21.6328 14.3433 21.1992C14.5543 20.8359 14.4254 20.3789 13.98 20.1328L11.2027 18.5508L11.2027 17.0625L10.9683 12.8789L14.4957 15.1641L15.7965 15.9023L15.773 19.1016C15.7613 19.6055 16.0894 19.9688 16.4996 19.9688C17.0035 19.9688 17.2613 19.5938 17.2613 19.1016L17.273 16.7578L19.4879 18.0469C19.9449 18.3164 20.3785 18.1992 20.6246 17.7773C20.8707 17.332 20.7418 16.875 20.3082 16.6289L18.0933 15.3516L20.109 14.168C20.5308 13.9102 20.7183 13.5117 20.4722 13.0898C20.2379 12.7148 19.7925 12.6094 19.359 12.8672L16.605 14.4844L15.3043 13.7461L11.5191 11.8477L15.316 9.94922L16.5933 9.19922L19.3472 10.8164C19.7808 11.0742 20.2613 10.9688 20.484 10.6055C20.7183 10.1836 20.5308 9.77344 20.109 9.51562L18.0933 8.34375L20.3082 7.06641C20.7535 6.80859 20.8824 6.36328 20.6363 5.91797C20.3902 5.49609 19.9332 5.37891 19.4996 5.64844L17.273 6.91406L17.2496 4.58203C17.2496 4.07812 17.0035 3.72656 16.5113 3.72656C16.0777 3.72656 15.7613 4.07812 15.773 4.58203L15.7847 7.76953L14.4957 8.51953L10.9683 10.8164L11.2027 6.62109L11.2027 5.13281L13.98 3.5625C14.4254 3.30469 14.5543 2.85938 14.3433 2.48438C14.0972 2.0625 13.6519 2.01562 13.2183 2.26172L11.2027 3.41016L11.2027 0.855469C11.2027 0.351562 10.898 0 10.3824 0C9.8902 0 9.5738 0.351562 9.5738 0.855469L9.5738 3.41016L7.52302 2.26172C7.08942 2.01562 6.66755 2.0625 6.40974 2.48438C6.1988 2.85938 6.33942 3.30469 6.78474 3.55078L9.5738 5.13281L9.5738 6.62109L9.79645 10.8164L6.26911 8.51953L4.96833 7.76953L4.99177 4.58203C5.00349 4.07812 4.68708 3.72656 4.2652 3.72656C3.7613 3.72656 3.50349 4.08984 3.50349 4.58203L3.49177 6.91406L1.2652 5.64844C0.84333 5.39062 0.362861 5.49609 0.128486 5.91797C-0.129326 6.36328 0.0112986 6.82031 0.456611 7.06641L2.65974 8.34375L0.65583 9.51562C0.233955 9.77344 0.0464548 10.1484 0.28083 10.6055C0.491767 10.9805 0.972236 11.0742 1.41755 10.8164L4.15974 9.21094L5.4488 9.94922L9.23395 11.8477L5.4488 13.7461L4.15974 14.4961L1.40583 12.8672C0.972236 12.6094 0.503486 12.7148 0.304267 13.0781C0.0581736 13.5352 0.233955 13.9102 0.65583 14.168L2.67145 15.3516L0.456611 16.6289C0.0230173 16.875-0.117608 17.3438 0.128486 17.7656C0.386299 18.2109 0.84333 18.3047 1.2652 18.0469L3.49177 16.7812L3.50349 19.1016C3.50349 19.5938 3.7613 19.9688 4.25349 19.9688C4.67536 19.9688 5.00349 19.6055 4.99177 19.1016L4.98005 15.9023L6.26911 15.1758L9.79645 12.8789L9.5738 17.0625L9.5738 18.5508L6.78474 20.1328C6.33942 20.3789 6.1988 20.8359 6.40974 21.1992C6.66755 21.6328 7.08942 21.668 7.52302 21.4336L9.5738 20.2734L9.5738 22.8281C9.5738 23.332 9.8902 23.6953 10.3824 23.6953Z" fill="#000000"/>
</svg>
