<?xml version="1.0" encoding="UTF-8"?>

<!--
  - Copyright (c) 2023. Compose Cupertino project and open source contributors.
  -
  -  Licensed under the Apache License, Version 2.0 (the "License");
  -  you may not use this file except in compliance with the License.
  -  You may obtain a copy of the License at
  -
  -      http://www.apache.org/licenses/LICENSE-2.0
  -
  -  Unless required by applicable law or agreed to in writing, software
  -  distributed under the License is distributed on an "AS IS" BASIS,
  -  WITHOUT WARRANTIES OR CONDITIONS OF ANY KIND, either express or implied.
  -  See the License for the specific language governing permissions and
  -  limitations under the License.
  -
  -->

<svg version="1.1" xmlns="http://www.w3.org/2000/svg" xmlns:xlink="http://www.w3.org/1999/xlink" width="23.9062" height="23.918">
  <path d="M11.9531 7.25391L7.38281 10.7695L9.21094 16.3945L14.6953 16.3945L16.5234 10.7695ZM16.0664 1.875L11.9414 0.527344L7.80469 1.875L11.9414 5.20312ZM11.3086 0.925781L11.3086 8.68359L12.6094 8.68359L12.6094 0.925781ZM20.1328 4.82812L18.5977 9.90234L23.2148 12.4922L22.3711 7.62891ZM22.8047 8.89453L22.3125 7.69922L15.1172 10.6055L15.6094 11.8125ZM14.6484 22.6523L18.5625 20.9531L21.2344 17.5664L15.8438 17.4844ZM18.9844 20.4727L14.2148 14.3438L13.1719 15.1406L17.9531 21.2578ZM9.24609 22.6055L8.05078 17.4375L2.66016 17.5195L5.33203 20.9062ZM4.91016 20.4258L5.94141 21.2109L10.7227 15.0938L9.67969 14.2969ZM3.77344 4.82812L1.53516 7.62891L0.691406 12.4922L5.30859 9.90234ZM1.10156 8.89453L8.29688 11.8125L8.78906 10.6055L1.59375 7.69922ZM11.9531 23.9062C18.4922 23.9062 23.9062 18.4805 23.9062 11.9531C23.9062 5.41406 18.4805 0 11.9414 0C5.41406 0 0 5.41406 0 11.9531C0 18.4805 5.42578 23.9062 11.9531 23.9062ZM11.9531 22.3125C6.29297 22.3125 1.59375 17.6133 1.59375 11.9531C1.59375 6.29297 6.28125 1.59375 11.9414 1.59375C17.6016 1.59375 22.3125 6.29297 22.3125 11.9531C22.3125 17.6133 17.6133 22.3125 11.9531 22.3125Z" fill="#000000"/>
</svg>
