<?xml version="1.0" encoding="UTF-8"?>

<!--
  - Copyright (c) 2023. Compose Cupertino project and open source contributors.
  -
  -  Licensed under the Apache License, Version 2.0 (the "License");
  -  you may not use this file except in compliance with the License.
  -  You may obtain a copy of the License at
  -
  -      http://www.apache.org/licenses/LICENSE-2.0
  -
  -  Unless required by applicable law or agreed to in writing, software
  -  distributed under the License is distributed on an "AS IS" BASIS,
  -  WITHOUT WARRANTIES OR CONDITIONS OF ANY KIND, either express or implied.
  -  See the License for the specific language governing permissions and
  -  limitations under the License.
  -
  -->

<svg version="1.1" xmlns="http://www.w3.org/2000/svg" xmlns:xlink="http://www.w3.org/1999/xlink" width="28.6172" height="14.9414">
  <path d="M0 12.4336C0 13.9805 0.867188 14.9414 2.50781 14.9414L26.1094 14.9414C27.75 14.9414 28.6172 13.9805 28.6172 12.4336L28.6172 8.39062C28.6172 7.85156 28.1836 7.41797 27.6445 7.41797C27.0938 7.41797 26.6602 7.85156 26.6602 8.39062L26.6602 12.3867C26.6602 12.8203 26.3438 13.125 25.9219 13.125L2.69531 13.125C2.26172 13.125 1.95703 12.832 1.95703 12.3867L1.95703 8.39062C1.95703 7.85156 1.52344 7.41797 0.972656 7.41797C0.433594 7.41797 0 7.85156 0 8.39062Z" fill="#000000"/>
</svg>
