<?xml version="1.0" encoding="UTF-8"?>

<!--
  - Copyright (c) 2023. Compose Cupertino project and open source contributors.
  -
  -  Licensed under the Apache License, Version 2.0 (the "License");
  -  you may not use this file except in compliance with the License.
  -  You may obtain a copy of the License at
  -
  -      http://www.apache.org/licenses/LICENSE-2.0
  -
  -  Unless required by applicable law or agreed to in writing, software
  -  distributed under the License is distributed on an "AS IS" BASIS,
  -  WITHOUT WARRANTIES OR CONDITIONS OF ANY KIND, either express or implied.
  -  See the License for the specific language governing permissions and
  -  limitations under the License.
  -
  -->

<svg version="1.1" xmlns="http://www.w3.org/2000/svg" xmlns:xlink="http://www.w3.org/1999/xlink" width="21.6797" height="28.8867">
  <path d="M12.457 26.7305C12.7617 26.7305 12.9844 26.5078 13.043 26.1914C13.875 19.7812 14.7773 18.7969 21.1289 18.0938C21.457 18.0586 21.6797 17.8242 21.6797 17.5078C21.6797 17.2031 21.457 16.9688 21.1289 16.9336C14.7773 16.2305 13.875 15.2461 13.043 8.82422C12.9844 8.50781 12.7617 8.29688 12.457 8.29688C12.1523 8.29688 11.9297 8.50781 11.8828 8.82422C11.0508 15.2461 10.1367 16.2305 3.79688 16.9336C3.45703 16.9688 3.23438 17.2031 3.23438 17.5078C3.23438 17.8242 3.45703 18.0586 3.79688 18.0938C10.125 18.9258 11.0039 19.7812 11.8828 26.1914C11.9297 26.5078 12.1523 26.7305 12.457 26.7305ZM4.51172 13.7695C4.73438 13.7695 4.88672 13.6172 4.91016 13.4062C5.33203 10.2773 5.4375 10.2773 8.67188 9.65625C8.87109 9.62109 9.02344 9.48047 9.02344 9.25781C9.02344 9.04688 8.87109 8.89453 8.67188 8.87109C5.4375 8.41406 5.32031 8.30859 4.91016 5.13281C4.88672 4.91016 4.73438 4.75781 4.51172 4.75781C4.30078 4.75781 4.14844 4.91016 4.11328 5.14453C3.73828 8.27344 3.5625 8.26172 0.351562 8.87109C0.152344 8.90625 0 9.04688 0 9.25781C0 9.49219 0.152344 9.62109 0.398438 9.65625C3.58594 10.1719 3.73828 10.2539 4.11328 13.3828C4.14844 13.6172 4.30078 13.7695 4.51172 13.7695ZM10.1836 5.70703C10.3359 5.70703 10.418 5.61328 10.4414 5.47266C10.793 3.57422 10.7578 3.48047 12.7969 3.11719C12.9375 3.08203 13.0312 3 13.0312 2.84766C13.0312 2.70703 12.9375 2.61328 12.7969 2.58984C10.7578 2.22656 10.793 2.13281 10.4414 0.234375C10.418 0.09375 10.3359 0 10.1836 0C10.0312 0 9.94922 0.09375 9.92578 0.234375C9.57422 2.13281 9.60938 2.22656 7.57031 2.58984C7.41797 2.61328 7.33594 2.70703 7.33594 2.84766C7.33594 3 7.41797 3.08203 7.57031 3.11719C9.60938 3.48047 9.57422 3.57422 9.92578 5.47266C9.94922 5.61328 10.0312 5.70703 10.1836 5.70703Z" fill="#000000"/>
</svg>
