<?xml version="1.0" encoding="UTF-8"?>

<!--
  - Copyright (c) 2023. Compose Cupertino project and open source contributors.
  -
  -  Licensed under the Apache License, Version 2.0 (the "License");
  -  you may not use this file except in compliance with the License.
  -  You may obtain a copy of the License at
  -
  -      http://www.apache.org/licenses/LICENSE-2.0
  -
  -  Unless required by applicable law or agreed to in writing, software
  -  distributed under the License is distributed on an "AS IS" BASIS,
  -  WITHOUT WARRANTIES OR CONDITIONS OF ANY KIND, either express or implied.
  -  See the License for the specific language governing permissions and
  -  limitations under the License.
  -
  -->

<svg version="1.1" xmlns="http://www.w3.org/2000/svg" xmlns:xlink="http://www.w3.org/1999/xlink" width="14.1914" height="20.6836">
  <path d="M2.39062 15.1055L5.74219 15.1055C5.84766 15.1055 5.94141 15.1406 6.02344 15.2109L11.3086 19.9453C11.8711 20.4492 12.3047 20.6836 12.8672 20.6836C13.6289 20.6836 14.1914 20.1328 14.1914 19.3711L14.1914 1.39453C14.1914 0.632812 13.6289 0.0117188 12.8438 0.0117188C12.2812 0.0117188 11.9297 0.269531 11.3086 0.820312L6.02344 5.50781C5.94141 5.57812 5.84766 5.61328 5.74219 5.61328L2.39062 5.61328C0.796875 5.61328 0 6.42188 0 8.12109L0 12.6094C0 14.3086 0.796875 15.1055 2.39062 15.1055ZM2.47266 13.3945C2.02734 13.3945 1.82812 13.1953 1.82812 12.7617L1.82812 7.96875C1.82812 7.52344 2.02734 7.32422 2.47266 7.32422L6.22266 7.32422C6.52734 7.32422 6.75 7.26562 7.01953 7.01953L12.0117 2.48438C12.0703 2.42578 12.1406 2.39062 12.2109 2.39062C12.293 2.39062 12.3633 2.44922 12.3633 2.55469L12.3633 18.1289C12.3633 18.2344 12.293 18.3047 12.2109 18.3047C12.1523 18.3047 12.082 18.2695 12.0234 18.2109L7.01953 13.6992C6.75 13.4648 6.52734 13.3945 6.22266 13.3945Z" fill="#000000"/>
</svg>
