<?xml version="1.0" encoding="UTF-8"?>

<!--
  - Copyright (c) 2023. Compose Cupertino project and open source contributors.
  -
  -  Licensed under the Apache License, Version 2.0 (the "License");
  -  you may not use this file except in compliance with the License.
  -  You may obtain a copy of the License at
  -
  -      http://www.apache.org/licenses/LICENSE-2.0
  -
  -  Unless required by applicable law or agreed to in writing, software
  -  distributed under the License is distributed on an "AS IS" BASIS,
  -  WITHOUT WARRANTIES OR CONDITIONS OF ANY KIND, either express or implied.
  -  See the License for the specific language governing permissions and
  -  limitations under the License.
  -
  -->

<svg version="1.1" xmlns="http://www.w3.org/2000/svg" xmlns:xlink="http://www.w3.org/1999/xlink" width="26.1562" height="20.6836">
 <g>
  <path d="M2.37891 15.1055L5.74219 15.1055C5.84766 15.1055 5.94141 15.1406 6.02344 15.2109L11.3086 19.9453C11.8711 20.4492 12.3047 20.6836 12.8672 20.6836C13.6172 20.6836 14.1914 20.1328 14.1914 19.3711L14.1914 1.39453C14.1914 0.632812 13.6172 0.0117188 12.8438 0.0117188C12.2812 0.0117188 11.918 0.269531 11.3086 0.820312L6.02344 5.50781C5.94141 5.57812 5.84766 5.61328 5.74219 5.61328L2.37891 5.61328C0.785156 5.61328 0 6.42188 0 8.12109L0 12.6094C0 14.3086 0.796875 15.1055 2.37891 15.1055ZM2.46094 13.3945C2.02734 13.3945 1.82812 13.1953 1.82812 12.7617L1.82812 7.96875C1.82812 7.52344 2.02734 7.32422 2.46094 7.32422L6.21094 7.32422C6.51562 7.32422 6.75 7.26562 7.01953 7.01953L12.0117 2.48438C12.0703 2.42578 12.1289 2.39062 12.2109 2.39062C12.293 2.39062 12.3633 2.44922 12.3633 2.55469L12.3633 18.1289C12.3633 18.2344 12.293 18.3047 12.2109 18.3047C12.1523 18.3047 12.082 18.2695 12.0117 18.2109L7.01953 13.6992C6.75 13.4648 6.51562 13.3945 6.21094 13.3945Z" fill="#000000"/>
  <path d="M18.1523 15.3281C18.5391 15.5977 19.0898 15.5156 19.4062 15.0586C20.3086 13.875 20.8477 12.1289 20.8477 10.3359C20.8477 8.54297 20.3086 6.80859 19.4062 5.61328C19.0898 5.15625 18.5391 5.0625 18.1523 5.34375C17.6719 5.67188 17.6016 6.25781 17.9648 6.73828C18.6445 7.67578 19.0312 8.97656 19.0312 10.3359C19.0312 11.6953 18.6328 12.9844 17.9648 13.9336C17.6133 14.4258 17.6719 14.9883 18.1523 15.3281Z" fill="#000000"/>
  <path d="M22.4883 18.3867C22.9219 18.6797 23.4609 18.5742 23.7773 18.1289C25.2773 16.0664 26.1562 13.2305 26.1562 10.3359C26.1562 7.44141 25.2891 4.58203 23.7773 2.54297C23.4609 2.09766 22.9219 1.99219 22.4883 2.28516C22.0547 2.57812 21.9844 3.12891 22.3242 3.60938C23.6016 5.41406 24.3398 7.83984 24.3398 10.3359C24.3398 12.832 23.5781 15.2344 22.3242 17.0625C21.9961 17.543 22.0547 18.0938 22.4883 18.3867Z" fill="#000000"/>
 </g>
</svg>
