<?xml version="1.0" encoding="UTF-8"?>

<!--
  - Copyright (c) 2023. Compose Cupertino project and open source contributors.
  -
  -  Licensed under the Apache License, Version 2.0 (the "License");
  -  you may not use this file except in compliance with the License.
  -  You may obtain a copy of the License at
  -
  -      http://www.apache.org/licenses/LICENSE-2.0
  -
  -  Unless required by applicable law or agreed to in writing, software
  -  distributed under the License is distributed on an "AS IS" BASIS,
  -  WITHOUT WARRANTIES OR CONDITIONS OF ANY KIND, either express or implied.
  -  See the License for the specific language governing permissions and
  -  limitations under the License.
  -
  -->

<svg version="1.1" xmlns="http://www.w3.org/2000/svg" xmlns:xlink="http://www.w3.org/1999/xlink" width="23.9062" height="23.918">
 <g>
  <path d="M11.9531 23.9062C18.4922 23.9062 23.9062 18.4805 23.9062 11.9531C23.9062 5.41406 18.4805 0 11.9414 0C5.41406 0 0 5.41406 0 11.9531C0 18.4805 5.42578 23.9062 11.9531 23.9062ZM11.9531 21.9141C6.42188 21.9141 2.00391 17.4844 2.00391 11.9531C2.00391 6.42188 6.41016 1.99219 11.9414 1.99219C17.4727 1.99219 21.9141 6.42188 21.9141 11.9531C21.9141 17.4844 17.4844 21.9141 11.9531 21.9141Z" fill="#000000"/>
  <path d="M7.20703 17.8242C7.83984 17.8242 8.35547 17.2969 8.35547 16.6641C8.35547 16.0312 7.83984 15.5156 7.20703 15.5156C6.57422 15.5156 6.05859 16.0312 6.05859 16.6641C6.05859 17.2969 6.57422 17.8242 7.20703 17.8242ZM5.19141 13.1016C5.83594 13.1016 6.35156 12.5859 6.35156 11.9531C6.35156 11.3203 5.83594 10.8047 5.19141 10.8047C4.57031 10.8047 4.04297 11.3203 4.04297 11.9531C4.04297 12.5859 4.57031 13.1016 5.19141 13.1016ZM7.18359 8.39062C7.81641 8.39062 8.33203 7.86328 8.33203 7.24219C8.33203 6.59766 7.81641 6.09375 7.18359 6.09375C6.55078 6.09375 6.03516 6.59766 6.03516 7.24219C6.03516 7.86328 6.55078 8.39062 7.18359 8.39062ZM11.9414 6.32812C12.5625 6.32812 13.0898 5.80078 13.0898 5.17969C13.0898 4.53516 12.5625 4.01953 11.9414 4.01953C11.3086 4.01953 10.793 4.53516 10.793 5.17969C10.793 5.80078 11.3086 6.32812 11.9414 6.32812ZM18.6914 13.1016C19.3125 13.1016 19.8398 12.5859 19.8398 11.9531C19.8398 11.3203 19.3125 10.8047 18.6914 10.8047C18.0469 10.8047 17.543 11.3203 17.543 11.9531C17.543 12.5859 18.0469 13.1016 18.6914 13.1016ZM16.6758 17.8242C17.3086 17.8242 17.8242 17.2969 17.8242 16.6641C17.8242 16.0312 17.3086 15.5156 16.6758 15.5156C16.043 15.5156 15.5273 16.0312 15.5273 16.6641C15.5273 17.2969 16.043 17.8242 16.6758 17.8242ZM10.0781 13.7578C11.0273 14.6836 12.3281 14.4727 13.1133 13.3711L17.6953 6.97266C18.1172 6.38672 17.4961 5.77734 16.9102 6.1875L10.4531 10.7109C9.33984 11.4844 9.14062 12.7969 10.0781 13.7578Z" fill="#000000"/>
 </g>
</svg>
