<?xml version="1.0" encoding="UTF-8"?>

<!--
  - Copyright (c) 2023. Compose Cupertino project and open source contributors.
  -
  -  Licensed under the Apache License, Version 2.0 (the "License");
  -  you may not use this file except in compliance with the License.
  -  You may obtain a copy of the License at
  -
  -      http://www.apache.org/licenses/LICENSE-2.0
  -
  -  Unless required by applicable law or agreed to in writing, software
  -  distributed under the License is distributed on an "AS IS" BASIS,
  -  WITHOUT WARRANTIES OR CONDITIONS OF ANY KIND, either express or implied.
  -  See the License for the specific language governing permissions and
  -  limitations under the License.
  -
  -->

<svg version="1.1" xmlns="http://www.w3.org/2000/svg" xmlns:xlink="http://www.w3.org/1999/xlink" width="23.1211" height="26.7348">
 <g>
  <path d="M17.5078 18.9045L20.2969 20.51C21.9492 21.4592 23.1211 20.8264 23.1211 18.8576L23.1211 8.24043C23.1211 7.02168 22.7227 6.33028 21.6797 5.7209L12.293 0.295121C11.1328-0.361129 9.65625 0.0607459 9.65625 1.72481L9.65625 5.42793L11.5664 6.37715L11.5664 2.36934C11.5664 2.25215 11.6484 2.19356 11.7656 2.26387L20.6953 7.42012C21.0703 7.64278 21.2109 7.80684 21.2109 8.31075L21.2109 18.5764C21.2109 18.6936 21.1406 18.7287 21.0352 18.6701L17.5078 16.6311Z" fill="#000000"/>
  <path d="M12.4336 21.3654L15.6211 23.217C17.2734 24.1545 18.4453 23.5217 18.4453 21.5647L18.4453 10.9357C18.4453 9.72871 18.0586 9.03731 17.0039 8.41621L7.61719 3.00215C6.45703 2.33418 4.98047 2.76778 4.98047 4.42012L4.98047 8.46309L6.89062 9.45918L6.89062 5.06465C6.89062 4.95918 6.98438 4.88887 7.08984 4.95918L16.0195 10.1154C16.3945 10.3381 16.5352 10.5022 16.5352 11.0061L16.5352 21.2717C16.5352 21.3889 16.4648 21.424 16.3594 21.3654L12.4336 19.1037Z" fill="#000000"/>
  <path d="M13.4648 13.8654C13.4648 12.6584 13.0664 11.967 12.0234 11.3576L2.63672 5.93184C1.47656 5.27559 0 5.69746 0 7.34981L0 18.2717C0 19.5139 0.316406 20.1818 1.46484 20.8381L10.6406 26.1467C12.293 27.0959 13.4648 26.4514 13.4648 24.4943ZM11.0391 13.0451C11.4141 13.2678 11.5547 13.4318 11.5547 13.9357L11.5547 24.2014C11.5547 24.3186 11.4844 24.3654 11.3789 24.3068L2.41406 19.1272C2.01562 18.8928 1.91016 18.7053 1.91016 18.2365L1.91016 7.99434C1.91016 7.88887 1.99219 7.83028 2.10938 7.88887Z" fill="#000000"/>
 </g>
</svg>
