<?xml version="1.0" encoding="UTF-8"?>

<!--
  - Copyright (c) 2023. Compose Cupertino project and open source contributors.
  -
  -  Licensed under the Apache License, Version 2.0 (the "License");
  -  you may not use this file except in compliance with the License.
  -  You may obtain a copy of the License at
  -
  -      http://www.apache.org/licenses/LICENSE-2.0
  -
  -  Unless required by applicable law or agreed to in writing, software
  -  distributed under the License is distributed on an "AS IS" BASIS,
  -  WITHOUT WARRANTIES OR CONDITIONS OF ANY KIND, either express or implied.
  -  See the License for the specific language governing permissions and
  -  limitations under the License.
  -
  -->

<svg version="1.1" xmlns="http://www.w3.org/2000/svg" xmlns:xlink="http://www.w3.org/1999/xlink" width="23.1211" height="26.7348">
 <g>
  <path d="M5.61328 18.9045L5.61328 16.6311L2.08594 18.6701C1.98047 18.7287 1.91016 18.6936 1.91016 18.5764L1.91016 8.31075C1.91016 7.80684 2.05078 7.64278 2.42578 7.42012L11.3555 2.26387C11.4727 2.19356 11.5547 2.25215 11.5547 2.36934L11.5547 6.37715L13.4648 5.42793L13.4648 1.72481C13.4648 0.0607459 11.9883-0.361129 10.8281 0.295121L1.44141 5.7209C0.398438 6.33028 0 7.02168 0 8.24043L0 18.8576C0 20.8264 1.18359 21.4592 2.82422 20.51Z" fill="#000000"/>
  <path d="M10.6875 21.3654L10.6875 19.1037L6.76172 21.3654C6.65625 21.424 6.58594 21.3889 6.58594 21.2717L6.58594 11.0061C6.58594 10.5022 6.72656 10.3381 7.10156 10.1154L16.0312 4.95918C16.1484 4.88887 16.2305 4.95918 16.2305 5.06465L16.2305 9.45918L18.1406 8.46309L18.1406 4.42012C18.1406 2.76778 16.6641 2.33418 15.5039 3.00215L6.11719 8.41621C5.0625 9.03731 4.67578 9.72871 4.67578 10.9357L4.67578 21.5647C4.67578 23.5217 5.84766 24.1545 7.5 23.217Z" fill="#000000"/>
  <path d="M9.65625 13.8654L9.65625 24.4943C9.65625 26.4514 10.8398 27.0959 12.4805 26.1467L21.6562 20.8381C22.8047 20.1818 23.1211 19.5139 23.1211 18.2717L23.1211 7.34981C23.1211 5.69746 21.6445 5.27559 20.4844 5.93184L11.0977 11.3576C10.0547 11.967 9.65625 12.6584 9.65625 13.8654ZM12.082 13.0451L21.0117 7.88887C21.1289 7.83028 21.2109 7.88887 21.2109 7.99434L21.2109 18.2365C21.2109 18.7053 21.1172 18.8928 20.7188 19.1272L11.7422 24.3068C11.6367 24.3654 11.5664 24.3186 11.5664 24.2014L11.5664 13.9357C11.5664 13.4318 11.707 13.2678 12.082 13.0451Z" fill="#000000"/>
 </g>
</svg>
