<?xml version="1.0" encoding="UTF-8"?>

<!--
  - Copyright (c) 2023. Compose Cupertino project and open source contributors.
  -
  -  Licensed under the Apache License, Version 2.0 (the "License");
  -  you may not use this file except in compliance with the License.
  -  You may obtain a copy of the License at
  -
  -      http://www.apache.org/licenses/LICENSE-2.0
  -
  -  Unless required by applicable law or agreed to in writing, software
  -  distributed under the License is distributed on an "AS IS" BASIS,
  -  WITHOUT WARRANTIES OR CONDITIONS OF ANY KIND, either express or implied.
  -  See the License for the specific language governing permissions and
  -  limitations under the License.
  -
  -->

<svg version="1.1" xmlns="http://www.w3.org/2000/svg" xmlns:xlink="http://www.w3.org/1999/xlink" width="22.9688" height="24.7852">
  <path d="M11.0977 24.7852L11.8594 24.7852C13.7695 24.7852 14.6953 23.9414 14.6953 22.1602L14.6953 17.9297L18.3398 20.0508C18.8906 20.3672 19.3945 20.5195 19.8516 20.5195C20.6953 20.5195 21.4102 19.9922 22.0312 18.9258L22.418 18.2578C22.7812 17.625 22.9688 17.0508 22.9688 16.5352C22.9688 15.7148 22.4883 15.0352 21.5508 14.4961L17.8945 12.3867L21.5391 10.2773C22.4883 9.73828 22.957 9.05859 22.957 8.23828C22.957 7.73438 22.7695 7.16016 22.4062 6.52734L22.0312 5.87109C21.3984 4.79297 20.6836 4.26562 19.8281 4.26562C19.3711 4.26562 18.8789 4.41797 18.3281 4.73438L14.6953 6.83203L14.6953 2.625C14.6953 0.84375 13.7695 0 11.8594 0L11.0977 0C9.1875 0 8.27344 0.84375 8.27344 2.625L8.27344 6.83203L4.64062 4.73438C4.10156 4.41797 3.59766 4.26562 3.14062 4.26562C2.28516 4.26562 1.57031 4.79297 0.9375 5.87109L0.5625 6.52734C0.199219 7.16016 0.0117188 7.73438 0.0117188 8.23828C0.0117188 9.05859 0.492188 9.73828 1.42969 10.2773L5.07422 12.3867L1.42969 14.4961C0.480469 15.0352 0 15.7148 0 16.5352C0 17.0508 0.1875 17.625 0.550781 18.2578L0.9375 18.9258C1.55859 19.9922 2.27344 20.5195 3.11719 20.5195C3.57422 20.5195 4.08984 20.3672 4.62891 20.0508L8.27344 17.9297L8.27344 22.1602C8.27344 23.9414 9.1875 24.7852 11.0977 24.7852ZM11.4141 23.0273C10.4531 23.0273 10.1367 22.7461 10.1367 21.8203L10.1367 15.1992C10.1367 15.0234 10.0312 14.9062 9.87891 14.9062C9.83203 14.9062 9.78516 14.918 9.72656 14.9531L3.99609 18.2695C3.69141 18.4453 3.44531 18.5273 3.22266 18.5273C2.87109 18.5273 2.61328 18.2812 2.32031 17.7656L2.23828 17.6484C2.05078 17.3086 1.94531 17.0391 1.94531 16.8047C1.94531 16.4648 2.15625 16.207 2.64844 15.9375L8.47266 12.5625C8.57812 12.5039 8.63672 12.4102 8.63672 12.3164C8.63672 12.2109 8.57812 12.1172 8.46094 12.0586L2.66016 8.84766C2.17969 8.56641 1.95703 8.30859 1.95703 7.96875C1.95703 7.74609 2.05078 7.47656 2.23828 7.13672L2.32031 7.00781C2.61328 6.48047 2.88281 6.24609 3.23438 6.24609C3.45703 6.24609 3.70312 6.32812 4.00781 6.50391L9.70312 9.80859C9.76172 9.84375 9.80859 9.85547 9.86719 9.85547C10.0312 9.85547 10.1367 9.73828 10.1367 9.55078L10.1367 2.96484C10.1367 2.03906 10.4531 1.75781 11.4141 1.75781L11.5547 1.75781C12.5156 1.75781 12.832 2.03906 12.832 2.96484L12.832 9.55078C12.832 9.72656 12.9375 9.85547 13.0898 9.85547C13.1484 9.85547 13.1953 9.84375 13.2539 9.80859L18.9727 6.50391C19.2773 6.32812 19.5234 6.24609 19.7344 6.24609C20.0859 6.24609 20.3555 6.48047 20.6602 7.00781L20.7305 7.13672C20.918 7.47656 21.0234 7.74609 21.0234 7.96875C21.0234 8.30859 20.8008 8.56641 20.3203 8.84766L14.5195 12.0586C14.4023 12.1172 14.332 12.2109 14.332 12.3164C14.332 12.4102 14.4023 12.4922 14.5078 12.5625L20.332 15.9375C20.8125 16.207 21.0352 16.4648 21.0352 16.8047C21.0352 17.0391 20.918 17.3086 20.7305 17.6484L20.6602 17.7656C20.3555 18.2812 20.0977 18.5273 19.7461 18.5273C19.5234 18.5273 19.2773 18.4336 18.9844 18.2695L13.2422 14.9531C13.1836 14.918 13.1484 14.9062 13.0898 14.9062C12.9375 14.9062 12.832 15.0234 12.832 15.1992L12.832 21.8203C12.832 22.7461 12.5156 23.0273 11.5547 23.0273Z" fill="#000000"/>
</svg>
