<?xml version="1.0" encoding="UTF-8"?>

<!--
  - Copyright (c) 2023. Compose Cupertino project and open source contributors.
  -
  -  Licensed under the Apache License, Version 2.0 (the "License");
  -  you may not use this file except in compliance with the License.
  -  You may obtain a copy of the License at
  -
  -      http://www.apache.org/licenses/LICENSE-2.0
  -
  -  Unless required by applicable law or agreed to in writing, software
  -  distributed under the License is distributed on an "AS IS" BASIS,
  -  WITHOUT WARRANTIES OR CONDITIONS OF ANY KIND, either express or implied.
  -  See the License for the specific language governing permissions and
  -  limitations under the License.
  -
  -->

<svg version="1.1" xmlns="http://www.w3.org/2000/svg" xmlns:xlink="http://www.w3.org/1999/xlink" width="26.0251" height="26.543">
 <g>
  <path d="M4.99331 24.6562C5.47378 25.0312 6.08316 24.9023 6.80972 24.375L13.0089 19.8164L19.2199 24.375C19.9464 24.9023 20.5324 25.0195 21.0363 24.6562C21.1769 24.5508 21.2824 24.4102 21.4582 24.1523L13.6066 18.0117C13.2316 17.7188 12.798 17.7188 12.423 18.0117L6.78628 22.3125C6.73941 22.3477 6.70425 22.3711 6.68081 22.3359C6.65738 22.3125 6.6691 22.3008 6.68081 22.2305L9.01285 15.5273C9.17691 15.0703 9.08316 14.707 8.673 14.4258L2.83706 10.3945C2.77847 10.3594 2.76675 10.3359 2.77847 10.3008C2.79019 10.2656 2.81363 10.2656 2.88394 10.2656L7.68863 10.3477L5.93081 8.60156L1.70035 8.57812C0.798001 8.56641 0.24722 8.84766 0.0597201 9.41016C-0.139499 9.99609 0.165189 10.5352 0.891751 11.0508L7.14956 15.5508L4.70035 22.8398C4.40738 23.6953 4.51285 24.293 4.99331 24.6562ZM19.2082 15.3164L25.1378 11.0508C25.8644 10.5352 26.1574 9.99609 25.9699 9.41016C25.7824 8.84766 25.2316 8.56641 24.3293 8.57812L16.6535 8.625L14.3214 1.30078C14.0402 0.433594 13.6183 0 13.0089 0C12.4113 0 11.9894 0.433594 11.7082 1.30078L10.1261 6.26953L11.5207 7.66406L12.9503 2.94141C12.9621 2.87109 12.9855 2.84766 13.0089 2.84766C13.0441 2.84766 13.0675 2.87109 13.0793 2.94141L15.1183 9.72656C15.2707 10.207 15.5753 10.4062 16.0558 10.3945L23.1457 10.2656C23.216 10.2656 23.2394 10.2656 23.2511 10.3008C23.2628 10.3359 23.2394 10.3594 23.1925 10.3945L17.9191 14.0391Z" fill="#000000"/>
  <path d="M23.1457 23.7773C23.4972 24.1289 24.0832 24.1289 24.423 23.7773C24.7628 23.4141 24.7746 22.8516 24.423 22.5L5.45035 3.58594C5.09878 3.23438 4.51285 3.22266 4.16128 3.58594C3.82144 3.92578 3.82144 4.51172 4.16128 4.86328Z" fill="#000000"/>
 </g>
</svg>
