<?xml version="1.0" encoding="UTF-8"?>

<!--
  - Copyright (c) 2023. Compose Cupertino project and open source contributors.
  -
  -  Licensed under the Apache License, Version 2.0 (the "License");
  -  you may not use this file except in compliance with the License.
  -  You may obtain a copy of the License at
  -
  -      http://www.apache.org/licenses/LICENSE-2.0
  -
  -  Unless required by applicable law or agreed to in writing, software
  -  distributed under the License is distributed on an "AS IS" BASIS,
  -  WITHOUT WARRANTIES OR CONDITIONS OF ANY KIND, either express or implied.
  -  See the License for the specific language governing permissions and
  -  limitations under the License.
  -
  -->

<svg version="1.1" xmlns="http://www.w3.org/2000/svg" xmlns:xlink="http://www.w3.org/1999/xlink" width="31.3594" height="25.7461">
 <g>
  <path d="M0 5.14453C0 9.9375 4.33594 17.0391 8.40234 17.0391L8.92969 17.0391C12.9961 17.0391 17.332 9.9375 17.332 5.14453C17.332 2.55469 16.0547 1.23047 13.582 1.23047L12.3398 1.23047L12.3398 3.11719L13.6758 3.11719C14.8594 3.11719 15.4453 3.82031 15.4453 5.12109C15.4453 8.83594 12 15.1523 8.66016 15.1523C5.32031 15.1523 1.88672 8.83594 1.88672 5.12109C1.88672 3.82031 2.47266 3.11719 3.64453 3.11719L4.98047 3.11719L4.98047 1.23047L3.73828 1.23047C1.27734 1.23047 0 2.55469 0 5.14453ZM13.6523 25.7461C17.2148 25.7461 19.0664 22.9102 20.0508 17.1914C20.8008 12.9258 21.832 11.5898 23.543 11.5898C25.5117 11.5898 26.4609 13.582 26.6367 17.6602L28.5234 17.6602C28.1719 12.3633 26.707 9.70312 23.543 9.70312C20.6836 9.70312 19.1367 11.6484 18.1992 16.7695C17.3672 21.375 16.3242 23.8594 13.5352 23.8594C11.0039 23.8594 9.57422 21.1172 9.58594 16.2773L7.69922 16.2773C7.6875 22.3594 9.84375 25.7461 13.6523 25.7461Z" fill="#000000"/>
  <path d="M5.56641 3.92578C6.52734 3.92578 7.32422 3.12891 7.32422 2.15625C7.32422 1.18359 6.52734 0.386719 5.56641 0.386719C4.59375 0.386719 3.79688 1.18359 3.79688 2.15625C3.79688 3.12891 4.59375 3.92578 5.56641 3.92578ZM11.7422 3.92578C12.7148 3.92578 13.5117 3.12891 13.5117 2.15625C13.5117 1.18359 12.7148 0.386719 11.7422 0.386719C10.7812 0.386719 9.98438 1.18359 9.98438 2.15625C9.98438 3.12891 10.7812 3.92578 11.7422 3.92578ZM27.6562 24.1875C29.6953 24.1875 31.3594 22.5352 31.3594 20.4727C31.3594 18.4336 29.6953 16.7812 27.6562 16.7695C25.6055 16.7578 23.9414 18.4336 23.9414 20.4727C23.9414 22.5352 25.6055 24.1875 27.6562 24.1875ZM27.6562 22.5352C26.5195 22.5352 25.582 21.6094 25.582 20.4727C25.582 19.3242 26.5195 18.4102 27.6562 18.4102C28.793 18.4102 29.7188 19.3242 29.7188 20.4727C29.7188 21.6094 28.793 22.5352 27.6562 22.5352Z" fill="#000000"/>
 </g>
</svg>
