<?xml version="1.0" encoding="UTF-8"?>

<!--
  - Copyright (c) 2023. Compose Cupertino project and open source contributors.
  -
  -  Licensed under the Apache License, Version 2.0 (the "License");
  -  you may not use this file except in compliance with the License.
  -  You may obtain a copy of the License at
  -
  -      http://www.apache.org/licenses/LICENSE-2.0
  -
  -  Unless required by applicable law or agreed to in writing, software
  -  distributed under the License is distributed on an "AS IS" BASIS,
  -  WITHOUT WARRANTIES OR CONDITIONS OF ANY KIND, either express or implied.
  -  See the License for the specific language governing permissions and
  -  limitations under the License.
  -
  -->

<svg version="1.1" xmlns="http://www.w3.org/2000/svg" xmlns:xlink="http://www.w3.org/1999/xlink" width="19.0898" height="19.1133">
  <path d="M0 16.5117C0 18.1406 0.984375 19.1016 2.625 19.1016L16.4648 19.1016C18.1172 19.1016 19.0898 18.1406 19.0898 16.5117L19.0898 2.58984C19.0898 0.960938 18.1172 0 16.4648 0L2.625 0C0.984375 0 0 0.960938 0 2.58984ZM1.88672 16.0664L1.88672 3.03516C1.88672 2.32031 2.30859 1.88672 3.01172 1.88672L16.0781 1.88672C16.793 1.88672 17.2031 2.32031 17.2031 3.03516L17.2031 16.0664C17.2031 16.7812 16.793 17.2148 16.0781 17.2148L3.01172 17.2148C2.30859 17.2148 1.88672 16.7812 1.88672 16.0664Z" fill="#000000"/>
</svg>
