<?xml version="1.0" encoding="UTF-8"?>

<!--
  - Copyright (c) 2023. Compose Cupertino project and open source contributors.
  -
  -  Licensed under the Apache License, Version 2.0 (the "License");
  -  you may not use this file except in compliance with the License.
  -  You may obtain a copy of the License at
  -
  -      http://www.apache.org/licenses/LICENSE-2.0
  -
  -  Unless required by applicable law or agreed to in writing, software
  -  distributed under the License is distributed on an "AS IS" BASIS,
  -  WITHOUT WARRANTIES OR CONDITIONS OF ANY KIND, either express or implied.
  -  See the License for the specific language governing permissions and
  -  limitations under the License.
  -
  -->

<svg version="1.1" xmlns="http://www.w3.org/2000/svg" xmlns:xlink="http://www.w3.org/1999/xlink" width="26.0039" height="23.332">
  <path d="M0 14.9062C1.96875 18.1172 7.11328 23.0625 14.0391 23.0625C18.457 23.0625 19.6641 21.0117 22.2305 21.0117C24.3633 21.0117 25.207 22.4414 25.5352 23.0039C25.6289 23.1797 25.7812 23.2969 25.8867 22.957C25.9453 22.7109 26.0039 22.3828 26.0039 21.9844C26.0039 20.8594 25.6641 18.7148 23.7891 16.3594C24.1992 15.1992 24.2461 13.9219 24.2461 13.1719C24.2461 9.76172 22.3242 3.83203 15.9609 0C17.2852 1.875 19.0664 4.71094 19.0664 8.66016C19.0664 10.0898 18.668 11.6602 18.3516 12.4453C14.8945 10.4414 8.28516 4.93359 5.63672 2.12109C7.75781 5.37891 10.2773 8.33203 13.0664 11.4258C9.31641 9.05859 5.82422 6.39844 2.56641 3.48047C5.68359 8.01562 9.63281 12.4805 14.8359 16.6875C13.3477 17.5078 11.8125 18.1641 9.19922 18.1641C6.01172 18.1641 2.12109 16.6172 0 14.9062Z" fill="#000000"/>
</svg>
