<?xml version="1.0" encoding="UTF-8"?>

<!--
  - Copyright (c) 2023. Compose Cupertino project and open source contributors.
  -
  -  Licensed under the Apache License, Version 2.0 (the "License");
  -  you may not use this file except in compliance with the License.
  -  You may obtain a copy of the License at
  -
  -      http://www.apache.org/licenses/LICENSE-2.0
  -
  -  Unless required by applicable law or agreed to in writing, software
  -  distributed under the License is distributed on an "AS IS" BASIS,
  -  WITHOUT WARRANTIES OR CONDITIONS OF ANY KIND, either express or implied.
  -  See the License for the specific language governing permissions and
  -  limitations under the License.
  -
  -->

<svg version="1.1" xmlns="http://www.w3.org/2000/svg" xmlns:xlink="http://www.w3.org/1999/xlink" width="26.1826" height="27.3604">
  <path d="M13.8194 26.0962L25.2451 14.647C26.124 13.7681 26.1826 13.2642 26.1826 12.0337L26.1826 7.58057C26.1826 6.33838 25.8897 5.95166 24.999 5.06104L22.3037 2.36573C21.4248 1.48682 21.0381 1.18213 19.7959 1.18213L15.3311 1.18213C14.1006 1.18213 13.6084 1.24073 12.7295 2.11963L1.26857 13.5571C-0.407211 15.2329-0.442368 16.9673 1.28029 18.6782L8.69826 26.0845C10.4209 27.7954 12.1436 27.772 13.8194 26.0962ZM12.5537 24.6782C11.71 25.522 10.8194 25.5337 9.96388 24.6665L2.68654 17.4009C1.83107 16.5454 1.84279 15.6431 2.67482 14.811L14.0537 3.45557C14.2881 3.2212 14.5342 3.06885 14.9326 3.06885L19.8662 3.06885C20.2295 3.06885 20.4756 3.20948 20.7217 3.45557L23.9209 6.64307C24.167 6.88916 24.2959 7.13526 24.2959 7.49854L24.2959 12.4439C24.2959 12.8306 24.1553 13.0767 23.9209 13.311ZM18.4248 10.5571C19.3389 10.5571 20.0303 9.84229 20.0303 8.95166C20.0303 8.04932 19.3389 7.3462 18.4248 7.3462C17.499 7.3462 16.8194 8.04932 16.8194 8.95166C16.8194 9.84229 17.499 10.5571 18.4248 10.5571Z" fill="#000000"/>
</svg>
