<?xml version="1.0" encoding="UTF-8"?>

<!--
  - Copyright (c) 2023. Compose Cupertino project and open source contributors.
  -
  -  Licensed under the Apache License, Version 2.0 (the "License");
  -  you may not use this file except in compliance with the License.
  -  You may obtain a copy of the License at
  -
  -      http://www.apache.org/licenses/LICENSE-2.0
  -
  -  Unless required by applicable law or agreed to in writing, software
  -  distributed under the License is distributed on an "AS IS" BASIS,
  -  WITHOUT WARRANTIES OR CONDITIONS OF ANY KIND, either express or implied.
  -  See the License for the specific language governing permissions and
  -  limitations under the License.
  -
  -->

<svg version="1.1" xmlns="http://www.w3.org/2000/svg" xmlns:xlink="http://www.w3.org/1999/xlink" width="23.9062" height="23.918">
 <g>
  <path d="M11.9648 14.9883C13.6289 14.9883 15 13.6289 15 11.9414C15 10.2773 13.6289 8.91797 11.9648 8.91797C10.2891 8.91797 8.91797 10.2773 8.91797 11.9414C8.91797 13.6289 10.2891 14.9883 11.9648 14.9883Z" fill="#000000"/>
  <path d="M11.9531 19.3828C16.0195 19.3828 19.3828 16.0078 19.3828 11.9531C19.3828 7.88672 16.0078 4.51172 11.9531 4.51172C7.88672 4.51172 4.52344 7.88672 4.52344 11.9531C4.52344 16.0078 7.89844 19.3828 11.9531 19.3828ZM11.9531 17.4961C8.94141 17.4961 6.41016 14.9648 6.41016 11.9531C6.41016 8.91797 8.92969 6.39844 11.9531 6.39844C14.9648 6.39844 17.4961 8.92969 17.4961 11.9531C17.4961 14.9766 14.9766 17.4961 11.9531 17.4961Z" fill="#000000"/>
  <path d="M11.9531 23.9062C18.4922 23.9062 23.9062 18.4805 23.9062 11.9531C23.9062 5.41406 18.4805 0 11.9414 0C5.41406 0 0 5.41406 0 11.9531C0 18.4805 5.42578 23.9062 11.9531 23.9062ZM11.9531 21.9141C6.42188 21.9141 2.00391 17.4844 2.00391 11.9531C2.00391 6.42188 6.41016 1.99219 11.9414 1.99219C17.4727 1.99219 21.9023 6.42188 21.9141 11.9531C21.9258 17.4844 17.4844 21.9141 11.9531 21.9141Z" fill="#000000"/>
 </g>
</svg>
