<?xml version="1.0" encoding="UTF-8"?>

<!--
  - Copyright (c) 2023. Compose Cupertino project and open source contributors.
  -
  -  Licensed under the Apache License, Version 2.0 (the "License");
  -  you may not use this file except in compliance with the License.
  -  You may obtain a copy of the License at
  -
  -      http://www.apache.org/licenses/LICENSE-2.0
  -
  -  Unless required by applicable law or agreed to in writing, software
  -  distributed under the License is distributed on an "AS IS" BASIS,
  -  WITHOUT WARRANTIES OR CONDITIONS OF ANY KIND, either express or implied.
  -  See the License for the specific language governing permissions and
  -  limitations under the License.
  -
  -->

<svg version="1.1" xmlns="http://www.w3.org/2000/svg" xmlns:xlink="http://www.w3.org/1999/xlink" width="25.1943" height="25.9512">
  <path d="M23.2646 2.72754C20.3936-0.143555 15.4014 0.231445 12.0615 3.55957C10.1279 5.50488 9.31934 7.91895 9.2959 10.2979C9.24902 13.8252 8.90918 15.8643 5.66309 19.1104L6.88184 20.3174C10.1162 17.0947 12.1436 16.8135 15.6709 16.6963C18.085 16.626 20.4639 15.876 22.4209 13.9189C25.7607 10.5791 26.1357 5.58691 23.2646 2.72754ZM22.0107 3.96973C24.3193 6.29004 24.0498 9.80566 21.1787 12.665C18.2842 15.5479 14.7686 15.8291 12.4717 13.5205C10.1514 11.2236 10.4209 7.69629 13.3154 4.81348C16.1865 1.94238 19.7139 1.67285 22.0107 3.96973ZM11.2178 14.7744C11.5459 15.126 11.9443 15.4072 12.3545 15.665C11.2061 15.8643 10.1279 16.251 8.96777 17.0244C9.74121 15.876 10.1279 14.7861 10.3154 13.6377C10.5615 14.0479 10.8662 14.4346 11.2178 14.7744ZM0.413086 24.7705L1.18652 25.5557C1.7373 26.083 2.53418 26.083 3.07324 25.5557L7.6084 21.0088C8.15918 20.458 8.15918 19.6611 7.6084 19.1221L6.83496 18.3369C6.2959 17.7979 5.4873 17.7979 4.94824 18.3369L0.413086 22.8955C-0.137695 23.4229-0.137695 24.2197 0.413086 24.7705ZM10.21 10.1572L10.7959 10.7432L19.2451 2.29395L18.6592 1.69629ZM10.8662 12.8525L11.4404 13.4385L21.9287 2.96191L21.3662 2.36426ZM12.542 14.54L13.1396 15.126L23.6279 4.6377L23.042 4.04004ZM15.249 15.1963L15.8232 15.7939L24.2842 7.33301L23.6865 6.74707ZM17.792 2.02441L23.8857 8.10645L24.4717 7.52051L18.3779 1.43848ZM15.1436 2.5752L23.3936 10.8486L24.0029 10.251L15.7295 1.98926ZM13.4326 4.02832L21.9287 12.5479L22.5381 11.9502L14.0186 3.43066ZM11.9443 5.5166L20.4404 14.0361L21.0381 13.4385L12.5303 4.91895ZM10.4912 7.22754L18.7529 15.501L19.3389 14.915L11.0654 6.65332ZM9.91699 9.85254L16.0459 15.9932L16.6436 15.3955L10.5029 9.2666Z" fill="#000000"/>
</svg>
