<?xml version="1.0" encoding="UTF-8"?>

<!--
  - Copyright (c) 2023. Compose Cupertino project and open source contributors.
  -
  -  Licensed under the Apache License, Version 2.0 (the "License");
  -  you may not use this file except in compliance with the License.
  -  You may obtain a copy of the License at
  -
  -      http://www.apache.org/licenses/LICENSE-2.0
  -
  -  Unless required by applicable law or agreed to in writing, software
  -  distributed under the License is distributed on an "AS IS" BASIS,
  -  WITHOUT WARRANTIES OR CONDITIONS OF ANY KIND, either express or implied.
  -  See the License for the specific language governing permissions and
  -  limitations under the License.
  -
  -->

<svg version="1.1" xmlns="http://www.w3.org/2000/svg" xmlns:xlink="http://www.w3.org/1999/xlink" width="25.8281" height="25.7461">
 <g>
  <path d="M7.20703 25.7461C7.78125 25.7461 8.17969 25.4414 8.89453 24.8086L12.9375 21.2109L20.4609 21.2109C23.9531 21.2109 25.8281 19.2773 25.8281 15.8438L25.8281 6.86719C25.8281 3.43359 23.9531 1.5 20.4609 1.5L5.36719 1.5C1.875 1.5 0 3.42188 0 6.86719L0 15.8438C0 19.2891 1.875 21.2109 5.36719 21.2109L5.92969 21.2109L5.92969 24.2578C5.92969 25.1602 6.38672 25.7461 7.20703 25.7461ZM7.6875 23.6016L7.6875 20.2031C7.6875 19.5703 7.44141 19.3242 6.80859 19.3242L5.36719 19.3242C3 19.3242 1.88672 18.1172 1.88672 15.832L1.88672 6.86719C1.88672 4.58203 3 3.38672 5.36719 3.38672L20.4609 3.38672C22.8164 3.38672 23.9414 4.58203 23.9414 6.86719L23.9414 15.832C23.9414 18.1172 22.8164 19.3242 20.4609 19.3242L12.8672 19.3242C12.2109 19.3242 11.8828 19.418 11.4375 19.875Z" fill="#000000"/>
  <path d="M6.87891 8.12109L18.8086 8.12109C19.1836 8.12109 19.4766 7.82812 19.4766 7.44141C19.4766 7.07812 19.1836 6.77344 18.8086 6.77344L6.87891 6.77344C6.50391 6.77344 6.19922 7.07812 6.19922 7.44141C6.19922 7.82812 6.50391 8.12109 6.87891 8.12109ZM6.87891 11.9414L18.8086 11.9414C19.1836 11.9414 19.4766 11.6367 19.4766 11.25C19.4766 10.8867 19.1836 10.582 18.8086 10.582L6.87891 10.582C6.50391 10.582 6.19922 10.8867 6.19922 11.25C6.19922 11.6367 6.50391 11.9414 6.87891 11.9414ZM6.87891 15.75L14.6367 15.75C15.0117 15.75 15.3047 15.457 15.3047 15.082C15.3047 14.6953 15.0117 14.3906 14.6367 14.3906L6.87891 14.3906C6.50391 14.3906 6.19922 14.6953 6.19922 15.082C6.19922 15.457 6.50391 15.75 6.87891 15.75Z" fill="#000000"/>
 </g>
</svg>
