<?xml version="1.0" encoding="UTF-8"?>

<!--
  - Copyright (c) 2023. Compose Cupertino project and open source contributors.
  -
  -  Licensed under the Apache License, Version 2.0 (the "License");
  -  you may not use this file except in compliance with the License.
  -  You may obtain a copy of the License at
  -
  -      http://www.apache.org/licenses/LICENSE-2.0
  -
  -  Unless required by applicable law or agreed to in writing, software
  -  distributed under the License is distributed on an "AS IS" BASIS,
  -  WITHOUT WARRANTIES OR CONDITIONS OF ANY KIND, either express or implied.
  -  See the License for the specific language governing permissions and
  -  limitations under the License.
  -
  -->

<svg version="1.1" xmlns="http://www.w3.org/2000/svg" xmlns:xlink="http://www.w3.org/1999/xlink" width="22.8984" height="23.1211">
  <path d="M0 9.35156C0 14.5078 4.19531 18.7031 9.35156 18.7031C11.3906 18.7031 13.2539 18.0469 14.7891 16.9453L20.5547 22.7227C20.8242 22.9922 21.1758 23.1211 21.5508 23.1211C22.3477 23.1211 22.8984 22.5234 22.8984 21.7383C22.8984 21.3633 22.7578 21.0234 22.5117 20.7773L16.7812 15.0117C17.9883 13.4414 18.7031 11.4844 18.7031 9.35156C18.7031 4.19531 14.5078 0 9.35156 0C4.19531 0 0 4.19531 0 9.35156ZM2.00391 9.35156C2.00391 5.29688 5.29688 2.00391 9.35156 2.00391C13.4062 2.00391 16.6992 5.29688 16.6992 9.35156C16.6992 13.4062 13.4062 16.6992 9.35156 16.6992C5.29688 16.6992 2.00391 13.4062 2.00391 9.35156ZM5.66016 8.60156L13.0898 8.60156C13.5469 8.60156 13.8984 8.23828 13.8984 7.78125C13.8984 7.32422 13.5469 6.96094 13.0898 6.96094L5.66016 6.96094C5.19141 6.96094 4.83984 7.32422 4.83984 7.78125C4.83984 8.23828 5.19141 8.60156 5.66016 8.60156ZM5.66016 11.7305L11.0508 11.7305C11.5078 11.7305 11.8828 11.3789 11.8828 10.9219C11.8828 10.4648 11.5078 10.0898 11.0508 10.0898L5.66016 10.0898C5.19141 10.0898 4.83984 10.4648 4.83984 10.9219C4.83984 11.3789 5.19141 11.7305 5.66016 11.7305Z" fill="#000000"/>
</svg>
