<?xml version="1.0" encoding="UTF-8"?>

<!--
  - Copyright (c) 2023. Compose Cupertino project and open source contributors.
  -
  -  Licensed under the Apache License, Version 2.0 (the "License");
  -  you may not use this file except in compliance with the License.
  -  You may obtain a copy of the License at
  -
  -      http://www.apache.org/licenses/LICENSE-2.0
  -
  -  Unless required by applicable law or agreed to in writing, software
  -  distributed under the License is distributed on an "AS IS" BASIS,
  -  WITHOUT WARRANTIES OR CONDITIONS OF ANY KIND, either express or implied.
  -  See the License for the specific language governing permissions and
  -  limitations under the License.
  -
  -->

<svg version="1.1" xmlns="http://www.w3.org/2000/svg" xmlns:xlink="http://www.w3.org/1999/xlink" width="39.5694" height="27.0532">
 <g>
  <path d="M25.4192 25.9192C31.1848 27.4543 35.5676 24.7825 37.1848 18.759L39.3879 10.5676C39.9739 8.35278 39.1418 6.91137 36.8801 6.302L25.2786 3.19653C23.0286 2.59887 21.6106 3.40746 21.0012 5.64575L20.0403 9.16137L20.8371 13.6848L22.8411 6.21996C23.1223 5.177 23.7786 4.79028 24.8098 5.07153L36.3645 8.15356C37.4075 8.43481 37.7707 9.10278 37.4895 10.1692L35.3098 18.2786C34.0207 23.1418 30.5286 25.2747 25.8996 24.0559C22.3137 23.0715 20.2981 20.6223 20.3098 17.2122L18.7161 20.1067C19.6067 22.9661 21.927 24.97 25.4192 25.9192ZM25.0442 13.5442C25.9114 13.7903 26.802 13.2747 27.0481 12.3957C27.2825 11.5168 26.7668 10.6145 25.8762 10.3684C25.0207 10.134 24.1184 10.6614 23.8723 11.5403C23.6496 12.4192 24.1653 13.3098 25.0442 13.5442ZM31.9231 15.384C32.7903 15.6067 33.6809 15.0911 33.927 14.2122C34.1614 13.3332 33.6457 12.4426 32.7668 12.2082C31.8879 11.9622 30.9973 12.4895 30.7746 13.3567C30.5286 14.2356 31.0442 15.1379 31.9231 15.384ZM26.9895 19.8723C28.2903 20.2122 29.3332 20.7981 30.552 21.8997C31.009 22.3332 31.6184 22.052 31.5832 21.4309C31.5129 19.3684 29.9778 17.6575 27.7278 17.0715C25.4778 16.4622 23.2981 17.1887 22.1965 18.9231C21.8684 19.427 22.2551 19.9895 22.8762 19.8489C24.4348 19.509 25.7004 19.509 26.9895 19.8723Z" fill="#000000"/>
  <path d="M14.1575 22.8957C19.9465 21.3254 22.384 16.8606 20.7786 10.8137L18.5754 2.61059C17.9778 0.395745 16.5364-0.412848 14.2864 0.196527L2.67308 3.27856C0.411366 3.87621-0.408947 5.29418 0.18871 7.54418L2.3684 15.7473C3.97387 21.7707 8.35668 24.4309 14.1575 22.8957ZM13.6536 21.0325C9.04808 22.2395 5.5559 20.095 4.25512 15.2434L2.07543 7.12231C1.79418 6.07934 2.16918 5.42309 3.20043 5.13012L14.7551 2.03637C15.7864 1.75512 16.4661 2.15356 16.7356 3.20825L18.9036 11.3293C20.2043 16.1926 18.259 19.802 13.6536 21.0325ZM13.0207 18.6301C15.4934 17.9504 17.0754 16.0754 17.1575 13.7551C17.1692 13.1575 16.6653 12.9348 16.1614 13.3215C14.5676 14.4465 12.8801 14.8918 12.0832 15.1145C11.2746 15.3254 9.59887 15.7942 7.63012 15.6067C7.00902 15.5247 6.66918 15.9817 6.9973 16.4622C8.23949 18.4543 10.5364 19.2747 13.0207 18.6301ZM7.29027 11.1653C8.13402 10.9426 8.54418 11.3293 8.89574 11.2473C9.14183 11.1887 9.25902 10.8606 9.14183 10.4387C8.88402 9.39575 7.77074 8.76293 6.73949 9.06762C5.6848 9.32543 5.04027 10.427 5.33324 11.4465C5.46215 11.8801 5.71996 12.1028 5.96605 12.0442C6.31762 11.9387 6.45824 11.3879 7.29027 11.1653ZM14.2278 9.27856C15.0715 9.0559 15.47 9.45434 15.8332 9.37231C16.0911 9.302 16.1965 8.97387 16.0793 8.552C15.8215 7.50903 14.72 6.88793 13.6887 7.19262C12.6223 7.45043 11.9778 8.54028 12.2707 9.55981C12.3996 9.9934 12.6457 10.2278 12.9036 10.1575C13.2551 10.052 13.3957 9.50121 14.2278 9.27856Z" fill="#000000"/>
 </g>
</svg>
