<?xml version="1.0" encoding="UTF-8"?>

<!--
  - Copyright (c) 2023. Compose Cupertino project and open source contributors.
  -
  -  Licensed under the Apache License, Version 2.0 (the "License");
  -  you may not use this file except in compliance with the License.
  -  You may obtain a copy of the License at
  -
  -      http://www.apache.org/licenses/LICENSE-2.0
  -
  -  Unless required by applicable law or agreed to in writing, software
  -  distributed under the License is distributed on an "AS IS" BASIS,
  -  WITHOUT WARRANTIES OR CONDITIONS OF ANY KIND, either express or implied.
  -  See the License for the specific language governing permissions and
  -  limitations under the License.
  -
  -->

<svg version="1.1" xmlns="http://www.w3.org/2000/svg" xmlns:xlink="http://www.w3.org/1999/xlink" width="23.9062" height="23.918">
 <g>
  <path d="M11.9531 23.9062C18.4922 23.9062 23.9062 18.4805 23.9062 11.9531C23.9062 5.41406 18.5039 0 11.9648 0C11.3438 0 11.0391 0.375 11.0391 0.984375L11.0391 5.51953C11.0391 6.03516 11.3906 6.43359 11.8945 6.43359C12.4102 6.43359 12.7617 6.03516 12.7617 5.51953L12.7617 0.960938L11.9414 1.99219C17.4961 1.99219 21.9023 6.42188 21.9023 11.9531C21.9023 17.4844 17.4844 21.9141 11.9531 21.9141C6.42188 21.9141 1.98047 17.4844 1.99219 11.9531C2.00391 9.48047 2.88281 7.24219 4.35938 5.51953C4.71094 5.0625 4.73438 4.51172 4.34766 4.10156C3.96094 3.69141 3.31641 3.72656 2.88281 4.24219C1.10156 6.32812 0 9.03516 0 11.9531C0 18.4805 5.42578 23.9062 11.9531 23.9062Z" fill="#000000"/>
  <path d="M13.8281 13.6406C14.7539 12.668 14.5664 11.3672 13.4531 10.5938L7.25391 6.25781C6.66797 5.84766 6.05859 6.46875 6.46875 7.04297L10.793 13.2422C11.5781 14.3555 12.8789 14.5547 13.8281 13.6406Z" fill="#000000"/>
 </g>
</svg>
