<?xml version="1.0" encoding="UTF-8"?>

<!--
  - Copyright (c) 2023. Compose Cupertino project and open source contributors.
  -
  -  Licensed under the Apache License, Version 2.0 (the "License");
  -  you may not use this file except in compliance with the License.
  -  You may obtain a copy of the License at
  -
  -      http://www.apache.org/licenses/LICENSE-2.0
  -
  -  Unless required by applicable law or agreed to in writing, software
  -  distributed under the License is distributed on an "AS IS" BASIS,
  -  WITHOUT WARRANTIES OR CONDITIONS OF ANY KIND, either express or implied.
  -  See the License for the specific language governing permissions and
  -  limitations under the License.
  -
  -->

<svg version="1.1" xmlns="http://www.w3.org/2000/svg" xmlns:xlink="http://www.w3.org/1999/xlink" width="25.8219" height="25.418">
 <g>
  <path d="M10.6782 24.7266C11.604 24.0586 12.7524 22.5234 13.1977 21.0234C13.2798 20.7656 13.2212 20.332 12.8462 20.2031C12.4477 20.0625 12.1079 20.2617 12.0024 20.5664C11.4048 22.1367 10.6665 23.0625 9.88134 23.6719C9.58837 23.9062 9.50634 24.293 9.70556 24.5977C9.89306 24.9258 10.3501 24.9727 10.6782 24.7266ZM13.8657 18.293C14.1938 16.7109 14.0649 14.6836 13.4907 12.9258C13.3384 12.4922 12.9985 12.3047 12.6352 12.4219C12.2954 12.5391 12.0845 12.8555 12.2134 13.2656C12.7524 14.9648 12.8462 16.6406 12.5767 18.1172C12.5063 18.4688 12.647 18.8086 13.0571 18.8672C13.4321 18.9375 13.7837 18.7148 13.8657 18.293Z" fill="#000000"/>
  <path d="M7.93603 23.7891C9.8579 22.2422 10.9126 19.7812 10.9009 17.0508C10.8892 14.9883 10.1509 13.7109 10.1509 12.5859C10.1509 11.1094 11.1938 10.125 12.7173 10.125C15.061 10.125 15.8227 12.7969 15.8931 15.9609C15.9985 19.6172 14.6743 22.7109 12.9399 24.2344C12.6587 24.4688 12.6001 24.832 12.7876 25.125C13.0102 25.4414 13.4673 25.5 13.772 25.2188C15.6001 23.5547 17.147 19.8984 17.1235 15.8672C17.1118 11.9297 15.9985 8.8125 12.7173 8.8125C10.5376 8.8125 8.86181 10.2656 8.86181 12.4688C8.86181 13.793 9.56493 15.4219 9.57665 17.0508C9.58837 19.3711 8.72118 21.457 7.11571 22.7578C6.79931 23.0156 6.75243 23.3906 6.95165 23.6836C7.19775 24.0234 7.61962 24.0586 7.93603 23.7891Z" fill="#000000"/>
  <path d="M5.47509 22.2422C6.34228 21.7969 7.52587 20.2734 7.854 19.0664C7.94775 18.7383 7.7954 18.3398 7.43212 18.2227C7.104 18.1055 6.75243 18.3047 6.62353 18.6797C6.30712 19.7109 5.75634 20.4844 4.88915 21.0703C4.46728 21.3633 4.40868 21.7266 4.53759 21.9961C4.67821 22.2891 5.05321 22.4531 5.47509 22.2422ZM17.2056 9.38672C18.3423 11.0391 18.9048 13.3242 18.9048 16.0898C18.9048 19.043 18.0845 21.832 16.8071 23.4258C16.5962 23.707 16.5727 24.1055 16.8306 24.3633C17.1118 24.6211 17.5923 24.6094 17.8267 24.293C19.2563 22.3594 20.1938 19.2891 20.1938 16.043C20.1938 12.4922 19.4321 10.3828 18.3657 8.68359C18.1196 8.30859 17.7095 8.19141 17.3813 8.36719C17.0415 8.55469 16.936 8.98828 17.2056 9.38672Z" fill="#000000"/>
  <path d="M7.9829 15.8906C7.68993 15.0938 7.20946 14.0859 7.20946 12.7266C7.20946 9.60938 9.63525 7.18359 12.7524 7.18359C13.9477 7.18359 14.3227 7.3125 15.3657 7.81641C15.729 7.98047 16.0571 7.875 16.186 7.61719C16.3618 7.28906 16.2681 6.89062 15.8696 6.65625C15.0962 6.19922 13.9126 5.85938 12.7524 5.85938C8.90868 5.85938 5.88525 8.88281 5.88525 12.7266C5.88525 14.2031 6.28368 15.3984 6.69384 16.3945C6.8579 16.7812 7.20946 16.9688 7.63134 16.793C7.9829 16.6523 8.11181 16.2773 7.9829 15.8906Z" fill="#000000"/>
  <path d="M2.70946 20.0625C2.93212 20.3672 3.37743 20.4492 3.70556 20.168C4.54931 19.4531 4.97118 18.3047 4.97118 17.1094C4.97118 15.4922 4.26806 14.6719 4.26806 12.6562C4.26806 8.0625 8.08837 4.24219 12.6821 4.24219C18.2251 4.24219 21.7993 8.77734 21.811 15.4688C21.811 18.082 21.3774 19.9336 20.9438 21C20.7915 21.3633 20.9321 21.75 21.2368 21.9141C21.5649 22.0547 22.022 21.9375 22.1626 21.5508C22.6196 20.3086 23.1235 18.2695 23.1235 15.457C23.1235 7.99219 19.0102 2.92969 12.6821 2.92969C7.36181 2.92969 2.95556 7.34766 2.95556 12.6562C2.95556 14.5781 3.68212 15.8789 3.69384 17.0977C3.69384 17.8945 3.40087 18.6562 2.85009 19.1367C2.56884 19.3711 2.52196 19.793 2.70946 20.0625Z" fill="#000000"/>
  <path d="M1.35009 16.6641C1.68993 16.5586 1.854 16.207 1.76025 15.8086C1.46728 14.625 1.2915 13.3711 1.35009 11.7305C1.36181 11.2969 1.12743 11.0625 0.775871 11.0391C0.31884 11.0039 0.072746 11.2852 0.0375897 11.6484C-0.067879 12.9727 0.0375897 14.5547 0.494621 16.1836C0.611808 16.582 0.986808 16.7812 1.35009 16.6641ZM0.834465 9.67969C1.17431 9.80859 1.6079 9.65625 1.77196 9.21094C3.65868 3.9375 8.1704 1.3125 12.7524 1.3125C14.8384 1.3125 16.479 1.73438 17.8735 2.53125C18.272 2.76562 18.7173 2.76562 18.8931 2.37891C19.0806 1.96875 18.8696 1.71094 18.5767 1.52344C16.7954 0.410156 14.9907 0 12.7524 0C7.45556 0 2.65087 2.82422 0.494621 8.56641C0.271965 9.15234 0.494621 9.5625 0.834465 9.67969ZM25.2095 13.9336C25.5845 13.9336 25.854 13.6289 25.8188 13.2188C25.2915 8.44922 23.7212 5.4375 21.0142 3.07031C20.6743 2.76562 20.2642 2.85938 20.0649 3.09375C19.8423 3.33984 19.8188 3.72656 20.1704 4.04297C22.479 6.19922 24.1548 8.98828 24.5532 13.2422C24.6001 13.6289 24.8345 13.9336 25.2095 13.9336Z" fill="#000000"/>
 </g>
</svg>
