<?xml version="1.0" encoding="UTF-8"?>

<!--
  - Copyright (c) 2023. Compose Cupertino project and open source contributors.
  -
  -  Licensed under the Apache License, Version 2.0 (the "License");
  -  you may not use this file except in compliance with the License.
  -  You may obtain a copy of the License at
  -
  -      http://www.apache.org/licenses/LICENSE-2.0
  -
  -  Unless required by applicable law or agreed to in writing, software
  -  distributed under the License is distributed on an "AS IS" BASIS,
  -  WITHOUT WARRANTIES OR CONDITIONS OF ANY KIND, either express or implied.
  -  See the License for the specific language governing permissions and
  -  limitations under the License.
  -
  -->

<svg version="1.1" xmlns="http://www.w3.org/2000/svg" xmlns:xlink="http://www.w3.org/1999/xlink" width="22.6861" height="28.1836">
 <g>
  <path d="M19.8369 18.375L20.4111 6.29297L21.8174 6.29297C22.2979 6.29297 22.6846 5.88281 22.6846 5.40234C22.6846 4.92188 22.2979 4.52344 21.8174 4.52344L16.4619 4.52344L16.4619 2.76562C16.4619 1.07812 15.3252 0 13.5205 0L9.1377 0C7.33301 0 6.20801 1.07812 6.20801 2.76562L6.20801 4.27734L5.75098 4.27734L7.7666 6.29297L18.5361 6.29297L18.0557 16.5938ZM8.08301 4.52344L8.08301 2.88281C8.08301 2.21484 8.56348 1.74609 9.27832 1.74609L13.3916 1.74609C14.1064 1.74609 14.5986 2.21484 14.5986 2.88281L14.5986 4.52344ZM5.97363 26.0977L16.7197 26.0977C17.9736 26.0977 18.8643 25.4883 19.2979 24.5273L19.3096 24.2695L17.7744 22.7344L17.7627 23.1211C17.751 23.8008 17.2354 24.3281 16.5322 24.3281L6.1377 24.3281C5.46973 24.3281 4.96582 23.8242 4.93066 23.1328L4.25098 9.19922L2.3291 7.27734L3.09082 23.3438C3.17285 25.0195 4.27441 26.0977 5.97363 26.0977ZM12.1025 10.6289L12.1025 9.10547C12.1025 8.69531 11.7861 8.41406 11.3408 8.41406C11.1299 8.41406 10.9072 8.49609 10.7666 8.66016L10.7666 9.29297ZM15.7588 14.2852L15.9111 9.10547C15.9229 8.69531 15.6182 8.41406 15.1729 8.41406C14.7627 8.41406 14.458 8.68359 14.4463 9.10547L14.3408 12.8672ZM7.87207 22.3242C8.31738 22.3242 8.61035 22.043 8.59863 21.6328L8.35254 13.3242L6.86426 11.8242L7.13379 21.6328C7.14551 22.0547 7.43848 22.3242 7.87207 22.3242ZM11.3408 22.3242C11.7861 22.3242 12.1025 22.043 12.1025 21.6328L12.1025 17.0625L10.5908 15.5625L10.5908 21.6328C10.5908 22.0547 10.8955 22.3242 11.3408 22.3242ZM14.8213 22.3242C15.2432 22.3242 15.5361 22.0547 15.5479 21.6328L15.583 20.5547L14.165 19.1367L14.0947 21.6328C14.083 22.043 14.376 22.3242 14.8213 22.3242Z"  />
  <path d="M21.1494 24.1758C21.501 24.5273 22.0752 24.5273 22.4268 24.1758C22.7666 23.8125 22.7783 23.25 22.4268 22.8984L1.54395 2.00391C1.19238 1.65234 0.606445 1.65234 0.254883 2.00391C-0.0849609 2.34375-0.0849609 2.94141 0.254883 3.28125Z"  />
 </g>
</svg>
