<?xml version="1.0" encoding="UTF-8"?>

<!--
  - Copyright (c) 2023. Compose Cupertino project and open source contributors.
  -
  -  Licensed under the Apache License, Version 2.0 (the "License");
  -  you may not use this file except in compliance with the License.
  -  You may obtain a copy of the License at
  -
  -      http://www.apache.org/licenses/LICENSE-2.0
  -
  -  Unless required by applicable law or agreed to in writing, software
  -  distributed under the License is distributed on an "AS IS" BASIS,
  -  WITHOUT WARRANTIES OR CONDITIONS OF ANY KIND, either express or implied.
  -  See the License for the specific language governing permissions and
  -  limitations under the License.
  -
  -->

<svg version="1.1" xmlns="http://www.w3.org/2000/svg" xmlns:xlink="http://www.w3.org/1999/xlink" width="22.6875" height="28.1836">
  <path d="M6.19922 5.35547L8.0625 5.35547L8.0625 2.84766C8.0625 2.17969 8.53125 1.74609 9.23438 1.74609L13.4297 1.74609C14.1328 1.74609 14.6016 2.17969 14.6016 2.84766L14.6016 5.35547L16.4648 5.35547L16.4648 2.73047C16.4648 1.03125 15.3633 0 13.5586 0L9.10547 0C7.30078 0 6.19922 1.03125 6.19922 2.73047ZM0.878906 6.29297L21.8203 6.29297C22.3008 6.29297 22.6875 5.88281 22.6875 5.40234C22.6875 4.92188 22.3008 4.52344 21.8203 4.52344L0.878906 4.52344C0.410156 4.52344 0 4.92188 0 5.40234C0 5.89453 0.410156 6.29297 0.878906 6.29297ZM5.97656 26.0977L16.7227 26.0977C18.3984 26.0977 19.5234 25.0078 19.6055 23.332L20.4258 6.07031L18.5391 6.07031L17.7539 23.1328C17.7305 23.8359 17.2266 24.3281 16.5352 24.3281L6.14062 24.3281C5.47266 24.3281 4.96875 23.8242 4.93359 23.1328L4.10156 6.07031L2.26172 6.07031L3.09375 23.3438C3.17578 25.0195 4.27734 26.0977 5.97656 26.0977ZM7.875 22.3242C8.32031 22.3242 8.61328 22.043 8.60156 21.6328L8.23828 9.09375C8.22656 8.68359 7.93359 8.41406 7.51172 8.41406C7.06641 8.41406 6.77344 8.69531 6.78516 9.10547L7.13672 21.6328C7.14844 22.0547 7.44141 22.3242 7.875 22.3242ZM11.3438 22.3242C11.7891 22.3242 12.1055 22.043 12.1055 21.6328L12.1055 9.10547C12.1055 8.69531 11.7891 8.41406 11.3438 8.41406C10.8984 8.41406 10.5938 8.69531 10.5938 9.10547L10.5938 21.6328C10.5938 22.043 10.8984 22.3242 11.3438 22.3242ZM14.8242 22.3242C15.2461 22.3242 15.5391 22.0547 15.5508 21.6328L15.9023 9.10547C15.9141 8.69531 15.6211 8.41406 15.1758 8.41406C14.7539 8.41406 14.4609 8.68359 14.4492 9.10547L14.0977 21.6328C14.0859 22.043 14.3789 22.3242 14.8242 22.3242Z" fill="#000000"/>
</svg>
