<?xml version="1.0" encoding="UTF-8"?>

<!--
  - Copyright (c) 2023. Compose Cupertino project and open source contributors.
  -
  -  Licensed under the Apache License, Version 2.0 (the "License");
  -  you may not use this file except in compliance with the License.
  -  You may obtain a copy of the License at
  -
  -      http://www.apache.org/licenses/LICENSE-2.0
  -
  -  Unless required by applicable law or agreed to in writing, software
  -  distributed under the License is distributed on an "AS IS" BASIS,
  -  WITHOUT WARRANTIES OR CONDITIONS OF ANY KIND, either express or implied.
  -  See the License for the specific language governing permissions and
  -  limitations under the License.
  -
  -->

<svg version="1.1" xmlns="http://www.w3.org/2000/svg" xmlns:xlink="http://www.w3.org/1999/xlink" width="30.9801" height="25.6992">
  <path d="M9.54047 25.6992L21.4467 25.6992C23.4623 25.6992 24.728 24.4453 24.7631 22.4414L24.9155 11.0039L27.7163 11.6484C28.8413 11.9062 29.5678 11.4375 29.8608 10.2773L30.892 6.11719C31.185 4.96875 30.7397 4.17188 29.6616 3.71484L21.5053 0.234375C20.8959-0.0351562 20.4858-0.0117188 19.9819 0.222656C18.4584 0.949219 17.2163 1.32422 15.4936 1.32422C13.7592 1.32422 12.5288 0.949219 10.9936 0.222656C10.5014-0.0117188 10.0795-0.0351562 9.47016 0.234375L1.32563 3.71484C0.235787 4.17188-0.197807 4.96875 0.0834434 6.11719L1.12641 10.2773C1.40766 11.4375 2.13422 11.9062 3.27094 11.6484L6.07172 11.0039L6.22407 22.4414C6.24751 24.4453 7.51313 25.6992 9.54047 25.6992ZM9.56391 23.8945C8.61469 23.8945 8.04047 23.3086 8.02876 22.3477L7.86469 9.28125C7.86469 9 7.64204 8.80078 7.32563 8.87109L3.22407 9.78516C3.00141 9.83203 2.84907 9.73828 2.80219 9.55078L1.87641 5.85938C1.8061 5.56641 1.88813 5.46094 2.12251 5.36719L10.5483 1.76953C12.1186 2.60156 13.642 3.02344 15.4936 3.02344C17.3452 3.02344 18.8569 2.60156 20.4389 1.76953L28.8647 5.36719C29.0873 5.46094 29.1811 5.56641 29.1108 5.85938L28.1733 9.55078C28.1264 9.73828 27.9858 9.83203 27.7631 9.78516L23.6616 8.87109C23.3334 8.80078 23.1225 9 23.1225 9.28125L22.9584 22.3477C22.9467 23.3086 22.3725 23.8945 21.4233 23.8945ZM15.4936 6.53906C18.2592 6.53906 20.7084 4.57031 21.2241 1.85156L19.5131 1.10156C19.267 3.17578 17.5092 4.73438 15.4936 4.73438C13.4663 4.73438 11.7202 3.17578 11.4741 1.10156L9.76313 1.85156C10.267 4.57031 12.7163 6.53906 15.4936 6.53906Z" fill="#000000"/>
</svg>
