<?xml version="1.0" encoding="UTF-8"?>

<!--
  - Copyright (c) 2023. Compose Cupertino project and open source contributors.
  -
  -  Licensed under the Apache License, Version 2.0 (the "License");
  -  you may not use this file except in compliance with the License.
  -  You may obtain a copy of the License at
  -
  -      http://www.apache.org/licenses/LICENSE-2.0
  -
  -  Unless required by applicable law or agreed to in writing, software
  -  distributed under the License is distributed on an "AS IS" BASIS,
  -  WITHOUT WARRANTIES OR CONDITIONS OF ANY KIND, either express or implied.
  -  See the License for the specific language governing permissions and
  -  limitations under the License.
  -
  -->

<svg version="1.1" xmlns="http://www.w3.org/2000/svg" xmlns:xlink="http://www.w3.org/1999/xlink" width="30.7471" height="25.0078">
 <g>
  <path d="M6.3252 22.1309L18.7822 22.1309L17.0244 20.3613L6.65332 20.3613C4.73145 20.3613 3.6416 19.3652 3.6416 17.3379L3.6416 7.07227L1.75488 5.17383C1.75488 5.70117 1.75488 6.20508 1.75488 6.73242L1.75488 17.6074C1.75488 20.4668 3.46582 22.1309 6.3252 22.1309ZM18.5713 2.86523L6.06738 2.86523L7.8252 4.62305L18.2432 4.62305C20.1533 4.62305 21.2549 5.61914 21.2549 7.6582L21.2549 17.2441C21.2549 17.5254 21.2197 17.7246 21.1494 17.9473L22.79 19.5879C23.0127 19.0605 23.1416 18.4043 23.1416 17.7598L23.1416 7.37695C23.1416 4.5293 21.4307 2.86523 18.5713 2.86523ZM22.8604 9.22852L22.8604 11.4551L28.4502 6.83789C28.5557 6.75586 28.626 6.69727 28.7314 6.69727C28.8721 6.69727 28.9307 6.81445 28.9307 6.97852L28.9307 18.0176C28.9307 18.1816 28.8721 18.2871 28.7314 18.2871C28.626 18.2871 28.5557 18.2285 28.4502 18.1582L22.8604 13.541L22.8604 15.7676L27.5713 19.752C28.04 20.1387 28.5557 20.4082 29.0361 20.4082C30.0674 20.4082 30.7471 19.6465 30.7471 18.5566L30.7471 6.43945C30.7471 5.34961 30.0674 4.58789 29.0361 4.58789C28.5557 4.58789 28.04 4.85742 27.5713 5.24414Z" fill="#000000"/>
  <path d="M23.4111 24.7441C23.7627 25.0957 24.3486 25.0957 24.6885 24.7441C25.0283 24.3809 25.04 23.8184 24.6885 23.4668L1.54395 0.333984C1.19238-0.0175781 0.606445-0.0292969 0.254883 0.333984C-0.0849609 0.673828-0.0849609 1.27148 0.254883 1.61133Z" fill="#000000"/>
 </g>
</svg>
