<?xml version="1.0" encoding="UTF-8"?>

<!--
  - Copyright (c) 2023. Compose Cupertino project and open source contributors.
  -
  -  Licensed under the Apache License, Version 2.0 (the "License");
  -  you may not use this file except in compliance with the License.
  -  You may obtain a copy of the License at
  -
  -      http://www.apache.org/licenses/LICENSE-2.0
  -
  -  Unless required by applicable law or agreed to in writing, software
  -  distributed under the License is distributed on an "AS IS" BASIS,
  -  WITHOUT WARRANTIES OR CONDITIONS OF ANY KIND, either express or implied.
  -  See the License for the specific language governing permissions and
  -  limitations under the License.
  -
  -->

<svg version="1.1" xmlns="http://www.w3.org/2000/svg" xmlns:xlink="http://www.w3.org/1999/xlink" width="23.9062" height="23.918">
 <g>
  <path d="M11.9531 23.9062C18.4922 23.9062 23.9062 18.4805 23.9062 11.9531C23.9062 5.41406 18.4805 0 11.9414 0C5.41406 0 0 5.41406 0 11.9531C0 18.4805 5.42578 23.9062 11.9531 23.9062ZM11.9531 21.9141C6.42188 21.9141 2.00391 17.4844 2.00391 11.9531C2.00391 6.42188 6.41016 1.99219 11.9414 1.99219C17.4727 1.99219 21.9141 6.42188 21.9141 11.9531C21.9141 17.4844 17.4844 21.9141 11.9531 21.9141Z" fill="#000000"/>
  <path d="M7.03125 16.6875L13.2305 16.6875C14.4023 16.6875 15.0938 16.0078 15.0938 14.8477L15.0938 9.08203C15.0938 7.92188 14.4609 7.25391 13.2891 7.25391L7.03125 7.25391C5.91797 7.25391 5.16797 7.92188 5.16797 9.08203L5.16797 14.8477C5.16797 16.0078 5.87109 16.6875 7.03125 16.6875ZM15.75 13.5703L18.0352 15.5039C18.2461 15.6797 18.4688 15.7969 18.6797 15.7969C19.1367 15.7969 19.4297 15.4688 19.4297 14.9766L19.4297 8.94141C19.4297 8.46094 19.1367 8.13281 18.6797 8.13281C18.4688 8.13281 18.2344 8.25 18.0352 8.41406L15.75 10.3594Z" fill="#000000"/>
 </g>
</svg>
