<?xml version="1.0" encoding="UTF-8"?>

<!--
  - Copyright (c) 2023. Compose Cupertino project and open source contributors.
  -
  -  Licensed under the Apache License, Version 2.0 (the "License");
  -  you may not use this file except in compliance with the License.
  -  You may obtain a copy of the License at
  -
  -      http://www.apache.org/licenses/LICENSE-2.0
  -
  -  Unless required by applicable law or agreed to in writing, software
  -  distributed under the License is distributed on an "AS IS" BASIS,
  -  WITHOUT WARRANTIES OR CONDITIONS OF ANY KIND, either express or implied.
  -  See the License for the specific language governing permissions and
  -  limitations under the License.
  -
  -->

<svg version="1.1" xmlns="http://www.w3.org/2000/svg" xmlns:xlink="http://www.w3.org/1999/xlink" width="19.7109" height="25.1367">
  <path d="M3.63281 25.125L16.0781 25.125C18.4922 25.125 19.7109 23.8945 19.7109 21.457L19.7109 3.67969C19.7109 1.23047 18.5039 0 16.0781 0L12.5977 0C12.1992 0 11.9414 0.28125 11.9414 0.703125C11.9414 1.92188 11.0977 2.77734 9.85547 2.77734C8.61328 2.77734 7.75781 1.92188 7.75781 0.703125C7.75781 0.28125 7.5 0 7.10156 0L3.63281 0C1.20703 0 0 1.23047 0 3.67969L0 21.457C0 23.8945 1.21875 25.125 3.63281 25.125ZM3.72656 23.2383C2.50781 23.2383 1.88672 22.582 1.88672 21.4219L1.88672 3.71484C1.88672 2.54297 2.50781 1.88672 3.72656 1.88672L7.06641 1.88672L5.97656 1.21875C6.1875 3.26953 7.71094 4.60547 9.85547 4.60547C12 4.60547 13.5234 3.26953 13.7461 1.21875L12.6445 1.88672L15.9844 1.88672C17.2031 1.88672 17.8242 2.54297 17.8242 3.71484L17.8242 21.4219C17.8242 22.582 17.2031 23.2383 15.9844 23.2383ZM5.41406 8.73047L14.3086 8.73047C14.7188 8.73047 15.0234 8.41406 15.0234 7.99219C15.0234 7.59375 14.7188 7.27734 14.3086 7.27734L5.41406 7.27734C4.99219 7.27734 4.6875 7.59375 4.6875 7.99219C4.6875 8.41406 4.99219 8.73047 5.41406 8.73047ZM5.41406 12.8906L9.62109 12.8906C10.043 12.8906 10.3477 12.5742 10.3477 12.1758C10.3477 11.7656 10.043 11.4492 9.62109 11.4492L5.41406 11.4492C4.99219 11.4492 4.6875 11.7656 4.6875 12.1758C4.6875 12.5742 4.99219 12.8906 5.41406 12.8906Z" fill="#000000"/>
</svg>
