<?xml version="1.0" encoding="UTF-8"?>

<!--
  - Copyright (c) 2023. Compose Cupertino project and open source contributors.
  -
  -  Licensed under the Apache License, Version 2.0 (the "License");
  -  you may not use this file except in compliance with the License.
  -  You may obtain a copy of the License at
  -
  -      http://www.apache.org/licenses/LICENSE-2.0
  -
  -  Unless required by applicable law or agreed to in writing, software
  -  distributed under the License is distributed on an "AS IS" BASIS,
  -  WITHOUT WARRANTIES OR CONDITIONS OF ANY KIND, either express or implied.
  -  See the License for the specific language governing permissions and
  -  limitations under the License.
  -
  -->

<svg version="1.1" xmlns="http://www.w3.org/2000/svg" xmlns:xlink="http://www.w3.org/1999/xlink" width="25.5088" height="23.543">
 <g>
  <path d="M23.3438 23.1094C23.8359 23.6133 24.6797 23.6133 25.1484 23.1094C25.6289 22.5938 25.6289 21.7969 25.1484 21.3047L14.0039 10.125C13.5117 9.63281 12.668 9.63281 12.1992 10.125C11.707 10.6406 11.7188 11.4492 12.1992 11.9414ZM23.7539 22.3008L16.5234 15.0586L17.1094 14.4961L24.3398 21.7383C24.5508 21.9375 24.5977 22.1719 24.4102 22.3828C24.1992 22.5586 23.9766 22.5234 23.7539 22.3008Z" fill="#000000"/>
  <path d="M8.89453 23.2969C9.10547 23.2969 9.25781 23.1445 9.29297 22.9219C9.66797 19.793 9.82031 19.7109 13.0078 19.1953C13.2539 19.1484 13.4062 19.0312 13.4062 18.7969C13.4062 18.5742 13.2539 18.4336 13.0547 18.3984C9.84375 17.7891 9.66797 17.8008 9.29297 14.6719C9.25781 14.4492 9.10547 14.2969 8.89453 14.2969C8.67188 14.2969 8.51953 14.4492 8.49609 14.6602C8.08594 17.8359 7.98047 17.9414 4.73438 18.3984C4.53516 18.4219 4.38281 18.5742 4.38281 18.7969C4.38281 19.0195 4.53516 19.1484 4.73438 19.1953C7.98047 19.8164 8.07422 19.8164 8.49609 22.9453C8.51953 23.1445 8.67188 23.2969 8.89453 23.2969ZM3.32812 13.0898C3.49219 13.0898 3.58594 12.9727 3.62109 12.8203C4.01953 10.5938 4.03125 10.4531 6.38672 10.0547C6.53906 10.0195 6.65625 9.92578 6.65625 9.76172C6.65625 9.59766 6.53906 9.49219 6.38672 9.46875C4.03125 9.05859 4.01953 8.91797 3.62109 6.69141C3.58594 6.53906 3.49219 6.43359 3.32812 6.43359C3.16406 6.43359 3.07031 6.53906 3.03516 6.69141C2.63672 8.91797 2.625 9.05859 0.269531 9.46875C0.117188 9.49219 0 9.59766 0 9.76172C0 9.92578 0.117188 10.0195 0.269531 10.0547C2.625 10.4531 2.63672 10.5938 3.03516 12.8203C3.07031 12.9727 3.16406 13.0898 3.32812 13.0898ZM9.75 5.58984C9.89062 5.58984 9.96094 5.50781 9.98438 5.37891C10.3828 3.50391 10.3594 3.43359 12.3281 3.03516C12.457 3.01172 12.5508 2.92969 12.5508 2.80078C12.5508 2.66016 12.457 2.57812 12.3281 2.55469C10.3594 2.15625 10.3828 2.08594 9.98438 0.222656C9.96094 0.09375 9.89062 0 9.75 0C9.60938 0 9.53906 0.09375 9.51562 0.222656C9.11719 2.08594 9.14062 2.15625 7.17188 2.55469C7.04297 2.57812 6.94922 2.66016 6.94922 2.80078C6.94922 2.92969 7.04297 3.01172 7.17188 3.03516C9.14062 3.43359 9.11719 3.50391 9.51562 5.37891C9.53906 5.50781 9.60938 5.58984 9.75 5.58984ZM19.4297 9.72656C19.5938 9.72656 19.6875 9.62109 19.7227 9.46875C20.1211 7.24219 20.1328 7.10156 22.4883 6.69141C22.6523 6.66797 22.7578 6.5625 22.7578 6.39844C22.7578 6.23438 22.6523 6.14062 22.4883 6.10547C20.1328 5.70703 20.1211 5.56641 19.7227 3.33984C19.6875 3.1875 19.5938 3.07031 19.4297 3.07031C19.2656 3.07031 19.1719 3.1875 19.1367 3.33984C18.7383 5.56641 18.7266 5.70703 16.3711 6.10547C16.2188 6.14062 16.1016 6.23438 16.1016 6.39844C16.1016 6.5625 16.2188 6.66797 16.3711 6.69141C18.7266 7.10156 18.7383 7.24219 19.1367 9.46875C19.1719 9.62109 19.2656 9.72656 19.4297 9.72656Z" fill="#000000"/>
 </g>
</svg>
