<?xml version="1.0" encoding="UTF-8"?>

<!--
  - Copyright (c) 2023. Compose Cupertino project and open source contributors.
  -
  -  Licensed under the Apache License, Version 2.0 (the "License");
  -  you may not use this file except in compliance with the License.
  -  You may obtain a copy of the License at
  -
  -      http://www.apache.org/licenses/LICENSE-2.0
  -
  -  Unless required by applicable law or agreed to in writing, software
  -  distributed under the License is distributed on an "AS IS" BASIS,
  -  WITHOUT WARRANTIES OR CONDITIONS OF ANY KIND, either express or implied.
  -  See the License for the specific language governing permissions and
  -  limitations under the License.
  -
  -->

<svg version="1.1" xmlns="http://www.w3.org/2000/svg" xmlns:xlink="http://www.w3.org/1999/xlink" width="25.2305" height="24.9492">
 <g>
  <path d="M0.9375 15.1992C1.47656 15.1992 1.88672 14.7773 1.88672 14.25L1.88672 10.6992C1.88672 10.1719 1.47656 9.73828 0.9375 9.73828C0.398438 9.73828 0 10.1719 0 10.6992L0 14.25C0 14.7773 0.398438 15.1992 0.9375 15.1992Z" fill="#000000"/>
  <path d="M4.875 19.9922C5.41406 19.9922 5.83594 19.5703 5.83594 19.043L5.83594 5.90625C5.83594 5.37891 5.41406 4.94531 4.875 4.94531C4.34766 4.94531 3.94922 5.37891 3.94922 5.90625L3.94922 19.043C3.94922 19.5703 4.34766 19.9922 4.875 19.9922Z" fill="#000000"/>
  <path d="M8.8125 24.7148C9.36328 24.7148 9.77344 24.293 9.77344 23.7656L9.77344 1.18359C9.77344 0.65625 9.36328 0.234375 8.8125 0.234375C8.28516 0.234375 7.88672 0.65625 7.88672 1.18359L7.88672 23.7656C7.88672 24.293 8.28516 24.7148 8.8125 24.7148Z" fill="#000000"/>
  <path d="M12.7734 18.5625C13.3008 18.5625 13.7109 18.1523 13.7109 17.625L13.7109 7.32422C13.7109 6.79688 13.3008 6.375 12.7734 6.375C12.2227 6.375 11.8242 6.79688 11.8242 7.32422L11.8242 17.625C11.8242 18.1523 12.2227 18.5625 12.7734 18.5625Z" fill="#000000"/>
  <path d="M15.7734 15.0938C16.3359 14.7773 17.0742 14.7422 17.6602 15.0117L17.6602 3.77344C17.6602 3.25781 17.2383 2.82422 16.7109 2.82422C16.1719 2.82422 15.7734 3.25781 15.7734 3.77344Z" fill="#000000"/>
  <path d="M17.7305 24.9492L23.6953 24.9492C24.0703 24.9492 24.3164 24.6914 24.3164 24.3164C24.3164 23.9414 24.0703 23.6836 23.6953 23.6836L21.3398 23.6836L21.3398 22.5117C23.6719 22.2305 25.2305 20.4609 25.2305 18.082L25.2305 17.0508C25.2305 16.7227 24.9492 16.4297 24.6211 16.4297C24.2812 16.4297 23.9883 16.7227 23.9883 17.0508L23.9883 18.082C23.9883 20.0039 22.6406 21.3516 20.707 21.3516C18.7617 21.3516 17.4258 20.0039 17.4258 18.082L17.4258 17.0508C17.4258 16.7227 17.1328 16.4297 16.793 16.4297C16.4648 16.4297 16.1836 16.7227 16.1836 17.0508L16.1836 18.082C16.1836 20.4609 17.7422 22.2422 20.0742 22.5117L20.0742 23.6836L17.7305 23.6836C17.3555 23.6836 17.0859 23.9414 17.0859 24.3164C17.0859 24.6914 17.3555 24.9492 17.7305 24.9492ZM20.707 20.168C21.8555 20.168 22.6523 19.2773 22.6523 18.0938L22.6523 13.4883C22.6523 12.3047 21.8555 11.4258 20.707 11.4258C19.5586 11.4258 18.7617 12.3047 18.7617 13.4883L18.7617 18.0938C18.7617 19.2773 19.5586 20.168 20.707 20.168Z" fill="#000000"/>
 </g>
</svg>
