<?xml version="1.0" encoding="UTF-8"?>

<!--
  - Copyright (c) 2023. Compose Cupertino project and open source contributors.
  -
  -  Licensed under the Apache License, Version 2.0 (the "License");
  -  you may not use this file except in compliance with the License.
  -  You may obtain a copy of the License at
  -
  -      http://www.apache.org/licenses/LICENSE-2.0
  -
  -  Unless required by applicable law or agreed to in writing, software
  -  distributed under the License is distributed on an "AS IS" BASIS,
  -  WITHOUT WARRANTIES OR CONDITIONS OF ANY KIND, either express or implied.
  -  See the License for the specific language governing permissions and
  -  limitations under the License.
  -
  -->

<svg version="1.1" xmlns="http://www.w3.org/2000/svg" xmlns:xlink="http://www.w3.org/1999/xlink" width="27.5977" height="24.4805">
 <g>
  <path d="M0.925781 14.9648C1.47656 14.9648 1.88672 14.543 1.88672 14.0156L1.88672 10.4648C1.88672 9.9375 1.47656 9.50391 0.925781 9.50391C0.398438 9.50391 0 9.9375 0 10.4648L0 14.0156C0 14.543 0.398438 14.9648 0.925781 14.9648Z" fill="#000000"/>
  <path d="M4.875 19.7578C5.41406 19.7578 5.82422 19.3359 5.82422 18.8086L5.82422 5.67188C5.82422 5.14453 5.41406 4.71094 4.875 4.71094C4.34766 4.71094 3.9375 5.14453 3.9375 5.67188L3.9375 18.8086C3.9375 19.3359 4.34766 19.7578 4.875 19.7578Z" fill="#000000"/>
  <path d="M8.8125 24.4805C9.35156 24.4805 9.77344 24.0586 9.77344 23.5312L9.77344 0.949219C9.77344 0.421875 9.35156 0 8.8125 0C8.28516 0 7.88672 0.421875 7.88672 0.949219L7.88672 23.5312C7.88672 24.0586 8.28516 24.4805 8.8125 24.4805Z" fill="#000000"/>
  <path d="M12.7617 18.3281C13.3008 18.3281 13.7109 17.918 13.7109 17.3906L13.7109 7.08984C13.7109 6.5625 13.3008 6.14062 12.7617 6.14062C12.2227 6.14062 11.8242 6.5625 11.8242 7.08984L11.8242 17.3906C11.8242 17.918 12.2227 18.3281 12.7617 18.3281Z" fill="#000000"/>
  <path d="M15.7617 13.125C16.2891 12.5039 16.9219 11.9883 17.6484 11.6367L17.6484 3.53906C17.6484 3.02344 17.2383 2.58984 16.7109 2.58984C16.1602 2.58984 15.7617 3.02344 15.7617 3.53906Z" fill="#000000"/>
  <path d="M19.7109 11.0156C20.3438 10.9336 20.9648 10.9453 21.5977 11.0625L21.5977 9.44531C21.5977 8.92969 21.1758 8.49609 20.6484 8.49609C20.1094 8.49609 19.7109 8.92969 19.7109 9.44531Z" fill="#000000"/>
  <path d="M20.4609 21.9258C23.0742 21.9258 25.1953 19.8047 25.1953 17.1914C25.1953 14.5898 23.0742 12.4688 20.4609 12.4688C17.8711 12.4688 15.7383 14.6016 15.7383 17.1914C15.7383 19.793 17.8711 21.9258 20.4609 21.9258ZM20.4609 20.3555C18.7383 20.3555 17.3086 18.9258 17.3086 17.1914C17.3086 15.4805 18.7383 14.0508 20.4609 14.0508C22.1953 14.0508 23.6133 15.4688 23.6133 17.1914C23.6133 18.9258 22.1953 20.3555 20.4609 20.3555ZM26.6484 24.4102C27.1992 24.4102 27.5977 24 27.5977 23.4258C27.5977 23.168 27.457 22.9219 27.2695 22.7227L23.7188 19.1484L22.2422 20.4844L25.8398 24.0586C26.0742 24.293 26.3203 24.4102 26.6484 24.4102Z" fill="#000000"/>
 </g>
</svg>
