<?xml version="1.0" encoding="UTF-8"?>

<!--
  - Copyright (c) 2023. Compose Cupertino project and open source contributors.
  -
  -  Licensed under the Apache License, Version 2.0 (the "License");
  -  you may not use this file except in compliance with the License.
  -  You may obtain a copy of the License at
  -
  -      http://www.apache.org/licenses/LICENSE-2.0
  -
  -  Unless required by applicable law or agreed to in writing, software
  -  distributed under the License is distributed on an "AS IS" BASIS,
  -  WITHOUT WARRANTIES OR CONDITIONS OF ANY KIND, either express or implied.
  -  See the License for the specific language governing permissions and
  -  limitations under the License.
  -
  -->

<svg version="1.1" xmlns="http://www.w3.org/2000/svg" xmlns:xlink="http://www.w3.org/1999/xlink" width="33.457" height="22.3711">
 <g>
  <path d="M3.25781 22.3359L30.1992 22.3359C32.2031 22.3359 33.457 21.1055 33.457 19.125L33.457 15.3867C33.457 13.4062 32.2031 12.1758 30.1992 12.1758L3.25781 12.1758C1.25391 12.1758 0 13.4062 0 15.3867L0 19.125C0 21.1055 1.25391 22.3359 3.25781 22.3359ZM3.25781 20.4492C2.41406 20.4492 1.88672 19.9453 1.88672 19.125L1.88672 15.3867C1.88672 14.5664 2.41406 14.0625 3.25781 14.0625L30.1992 14.0625C31.043 14.0625 31.5703 14.5664 31.5703 15.3867L31.5703 19.125C31.5703 19.9453 31.043 20.4492 30.1992 20.4492ZM4.81641 17.5898L8.78906 17.5898C9.26953 17.5898 9.62109 17.25 9.62109 16.7695C9.62109 16.2891 9.26953 15.9375 8.78906 15.9375L4.81641 15.9375C4.33594 15.9375 3.99609 16.2891 3.99609 16.7695C3.99609 17.25 4.33594 17.5898 4.81641 17.5898ZM14.7305 18.7734C15.5508 18.7734 16.2422 18.082 16.2422 17.2383C16.2422 16.418 15.5508 15.7266 14.7305 15.7266C13.8867 15.7266 13.1953 16.418 13.1953 17.2383C13.1953 18.082 13.8867 18.7734 14.7305 18.7734ZM19.1602 18.7734C19.9805 18.7734 20.6719 18.082 20.6719 17.2383C20.6719 16.418 19.9805 15.7266 19.1602 15.7266C18.3164 15.7266 17.625 16.418 17.625 17.2383C17.625 18.082 18.3164 18.7734 19.1602 18.7734ZM23.5898 18.7734C24.4102 18.7734 25.1016 18.082 25.1016 17.2383C25.1016 16.418 24.4102 15.7266 23.5898 15.7266C22.7461 15.7266 22.0547 16.418 22.0547 17.2383C22.0547 18.082 22.7461 18.7734 23.5898 18.7734ZM28.0195 18.7734C28.8516 18.7734 29.543 18.082 29.543 17.25C29.543 16.418 28.8516 15.7266 28.0195 15.7266C27.1758 15.7266 26.4844 16.418 26.4844 17.25C26.4844 18.082 27.1758 18.7734 28.0195 18.7734Z" fill="#000000"/>
  <path d="M16.7109 7.33594C15.4922 7.33594 14.2734 7.69922 13.4531 8.32031C13.0898 8.57812 12.9844 9.07031 13.2305 9.43359C13.5234 9.83203 14.0156 9.90234 14.4375 9.60938C15.0117 9.17578 15.8555 8.92969 16.7109 8.92969C17.6016 8.92969 18.4453 9.17578 18.9961 9.60938C19.418 9.91406 19.9219 9.84375 20.2148 9.43359C20.4492 9.07031 20.3438 8.58984 19.9922 8.32031C19.125 7.69922 17.9062 7.33594 16.7109 7.33594Z" fill="#000000"/>
  <path d="M16.7227 3.66797C14.7773 3.66797 12.8789 4.24219 11.4141 5.28516C11.0391 5.56641 10.9453 6.03516 11.2148 6.41016C11.4609 6.76172 11.9531 6.84375 12.3633 6.5625C13.5117 5.74219 15.0938 5.26172 16.7227 5.26172C18.3633 5.26172 19.9453 5.74219 21.0938 6.5625C21.5039 6.84375 21.9961 6.76172 22.2422 6.41016C22.5117 6.03516 22.418 5.56641 22.0312 5.28516C20.6133 4.24219 18.7148 3.66797 16.7227 3.66797Z" fill="#000000"/>
  <path d="M16.7109 0C14.0273 0 11.4141 0.796875 9.36328 2.22656C8.97656 2.51953 8.88281 3 9.12891 3.36328C9.41016 3.73828 9.89062 3.79688 10.2773 3.51562C12.0469 2.28516 14.3555 1.57031 16.7109 1.57031C19.1016 1.57031 21.3867 2.27344 23.1562 3.51562C23.543 3.79688 24.0234 3.73828 24.293 3.36328C24.5625 2.98828 24.4688 2.50781 24.0703 2.22656C21.9961 0.796875 19.3945 0 16.7109 0Z" fill="#000000"/>
 </g>
</svg>
