<?xml version="1.0" encoding="UTF-8"?>

<!--
  - Copyright (c) 2023. Compose Cupertino project and open source contributors.
  -
  -  Licensed under the Apache License, Version 2.0 (the "License");
  -  you may not use this file except in compliance with the License.
  -  You may obtain a copy of the License at
  -
  -      http://www.apache.org/licenses/LICENSE-2.0
  -
  -  Unless required by applicable law or agreed to in writing, software
  -  distributed under the License is distributed on an "AS IS" BASIS,
  -  WITHOUT WARRANTIES OR CONDITIONS OF ANY KIND, either express or implied.
  -  See the License for the specific language governing permissions and
  -  limitations under the License.
  -
  -->

<svg version="1.1" xmlns="http://www.w3.org/2000/svg" xmlns:xlink="http://www.w3.org/1999/xlink" width="26.9843" height="19.4883">
 <g>
  <path d="M13.4901 19.4883C13.7479 19.4883 13.9705 19.3711 14.4276 18.9258L17.2869 16.1836C17.4627 16.0078 17.5096 15.75 17.3455 15.5391C16.5838 14.5547 15.1424 13.6992 13.4901 13.6992C11.7908 13.6992 10.3494 14.5898 9.58772 15.6094C9.47053 15.7969 9.51741 16.0078 9.70491 16.1836L12.5526 18.9258C13.0096 19.3594 13.2323 19.4883 13.4901 19.4883Z" fill="#000000"/>
  <path d="M6.6346 13.1133C6.89241 13.3594 7.20882 13.3242 7.44319 13.0664C8.84944 11.5078 11.1463 10.3711 13.4901 10.3828C15.8573 10.3711 18.1541 11.543 19.5838 13.1016C19.7948 13.3477 20.0877 13.3359 20.3455 13.1016L22.1619 11.2969C22.3494 11.1094 22.3729 10.8516 22.1971 10.6406C20.4276 8.47266 17.1463 6.84375 13.4901 6.84375C9.83382 6.84375 6.55257 8.47266 4.78303 10.6406C4.60725 10.8516 4.61897 11.0859 4.81819 11.2969Z" fill="#000000"/>
  <path d="M1.77132 8.21484C2.00569 8.4375 2.33382 8.4375 2.55647 8.20312C5.43928 5.14453 9.23616 3.52734 13.4901 3.52734C17.7674 3.52734 21.5877 5.15625 24.4471 8.21484C24.658 8.42578 24.9744 8.41406 25.2088 8.19141L26.826 6.57422C27.0369 6.36328 27.0252 6.10547 26.8612 5.90625C24.1073 2.50781 18.9276 0.0117188 13.4901 0.0117188C8.06428 0.0117188 2.86116 2.50781 0.118972 5.90625C-0.0450907 6.10547-0.0450907 6.36328 0.154128 6.57422Z" fill="#000000"/>
 </g>
</svg>
