<?xml version="1.0" encoding="UTF-8"?>

<!--
  - Copyright (c) 2023. Compose Cupertino project and open source contributors.
  -
  -  Licensed under the Apache License, Version 2.0 (the "License");
  -  you may not use this file except in compliance with the License.
  -  You may obtain a copy of the License at
  -
  -      http://www.apache.org/licenses/LICENSE-2.0
  -
  -  Unless required by applicable law or agreed to in writing, software
  -  distributed under the License is distributed on an "AS IS" BASIS,
  -  WITHOUT WARRANTIES OR CONDITIONS OF ANY KIND, either express or implied.
  -  See the License for the specific language governing permissions and
  -  limitations under the License.
  -
  -->

<svg version="1.1" xmlns="http://www.w3.org/2000/svg" xmlns:xlink="http://www.w3.org/1999/xlink" width="26.986" height="25.1016">
 <g>
  <path d="M5.04085 4.9043C3.0721 5.91211 1.36116 7.22461 0.118972 8.71289C-0.0450907 8.91211-0.0450907 9.16992 0.154128 9.38086L1.78303 10.998C2.00569 11.2207 2.33382 11.2207 2.55647 10.9863C4.03303 9.42773 5.70882 8.24414 7.61897 7.48242ZM12.9862 6.38086C13.1619 6.3457 13.3494 6.33398 13.5252 6.33398C17.908 6.4043 21.5643 8.08008 24.4471 11.0215C24.6698 11.2324 24.9862 11.2207 25.2088 10.998L26.826 9.38086C27.0369 9.16992 27.0252 8.91211 26.8729 8.71289C24.0487 5.36133 18.9276 2.81836 13.4901 2.81836C12.3065 2.81836 11.1346 2.93555 9.81038 3.20508ZM10.2674 10.1074C7.98225 10.7285 6.03694 11.959 4.78303 13.4473C4.61897 13.6582 4.63069 13.9043 4.82991 14.1035L6.64632 15.9082C6.89241 16.1426 7.20882 16.1191 7.44319 15.8613C8.83772 14.3145 11.0526 13.2363 13.3494 13.2012ZM21.4354 14.8301L22.1619 14.1035C22.3729 13.8926 22.3729 13.6582 22.2088 13.4473C21.0252 11.9824 18.9627 10.6816 16.7362 10.1309ZM13.5018 16.5059C11.826 16.5059 10.3612 17.3965 9.61116 18.416C9.49397 18.6035 9.54085 18.8145 9.71663 18.9902L12.5643 21.7324C13.0213 22.1777 13.244 22.2949 13.5018 22.2949C13.7596 22.2949 13.9823 22.166 14.451 21.7324L17.2869 18.9902C17.4744 18.8145 17.5213 18.5566 17.3573 18.3457C16.5838 17.3613 15.1541 16.5059 13.5018 16.5059Z" fill="#000000"/>
  <path d="M23.369 21.252C23.7205 21.6035 24.3065 21.6035 24.6463 21.252C24.9862 20.8887 24.9979 20.3262 24.6463 19.9746L4.9471 0.263672C4.59553-0.0878906 4.0096-0.0878906 3.65803 0.263672C3.30647 0.603516 3.30647 1.21289 3.65803 1.54102Z" fill="#000000"/>
 </g>
</svg>
