<?xml version="1.0" encoding="UTF-8"?>

<!--
  - Copyright (c) 2023. Compose Cupertino project and open source contributors.
  -
  -  Licensed under the Apache License, Version 2.0 (the "License");
  -  you may not use this file except in compliance with the License.
  -  You may obtain a copy of the License at
  -
  -      http://www.apache.org/licenses/LICENSE-2.0
  -
  -  Unless required by applicable law or agreed to in writing, software
  -  distributed under the License is distributed on an "AS IS" BASIS,
  -  WITHOUT WARRANTIES OR CONDITIONS OF ANY KIND, either express or implied.
  -  See the License for the specific language governing permissions and
  -  limitations under the License.
  -
  -->

<svg version="1.1" xmlns="http://www.w3.org/2000/svg" xmlns:xlink="http://www.w3.org/1999/xlink" width="26.9843" height="22.1133">
 <g>
  <path d="M10.5838 1.55859C6.29475 2.27344 2.41585 4.39453 0.118972 7.21875C-0.0450907 7.40625-0.0450907 7.67578 0.154128 7.88672L1.77132 9.52734C2.00569 9.75 2.33382 9.75 2.55647 9.51562C4.77132 7.16016 7.54866 5.66016 10.6307 5.12109ZM16.3846 1.57031L16.3494 5.13281C19.4315 5.64844 22.1854 7.17188 24.4471 9.52734C24.658 9.73828 24.9744 9.72656 25.2088 9.50391L26.826 7.88672C27.0369 7.67578 27.0252 7.40625 26.8612 7.21875C24.5408 4.41797 20.7205 2.23828 16.3846 1.57031ZM16.3377 8.50781L16.3026 12.2461C17.5916 12.7148 18.7401 13.4883 19.5955 14.4141C19.8065 14.6484 20.0994 14.6367 20.3573 14.4023L22.1619 12.6094C22.3494 12.4102 22.3729 12.1523 22.1971 11.9531C20.8963 10.3711 18.7869 9.04688 16.3377 8.50781ZM10.6658 8.50781C8.21663 9.08203 6.13069 10.3359 4.79475 11.9531C4.61897 12.1523 4.63069 12.3984 4.82991 12.6094L6.64632 14.4258C6.90413 14.6719 7.22053 14.6367 7.45491 14.3672C8.28694 13.4414 9.42366 12.6914 10.701 12.2227Z" fill="#000000"/>
  <path d="M13.4901 20.8008C14.4862 20.8008 15.2713 19.9922 15.2713 19.0078C15.2713 18.0117 14.4862 17.2266 13.4901 17.2266C12.5057 17.2266 11.7088 18.0117 11.7088 19.0078C11.7088 19.9922 12.5057 20.8008 13.4901 20.8008ZM13.5018 15.1523C14.1229 15.1523 14.5448 14.7422 14.5565 14.0977C14.5916 9.78516 14.6268 5.44922 14.6619 1.125C14.6619 0.457031 14.1229 0 13.4901 0C12.8573 0 12.3182 0.457031 12.3182 1.125C12.3651 5.44922 12.4002 9.78516 12.4471 14.0977C12.4588 14.7422 12.8807 15.1523 13.5018 15.1523Z" fill="#000000"/>
 </g>
</svg>
