<?xml version="1.0" encoding="UTF-8"?>

<!--
  - Copyright (c) 2023. Compose Cupertino project and open source contributors.
  -
  -  Licensed under the Apache License, Version 2.0 (the "License");
  -  you may not use this file except in compliance with the License.
  -  You may obtain a copy of the License at
  -
  -      http://www.apache.org/licenses/LICENSE-2.0
  -
  -  Unless required by applicable law or agreed to in writing, software
  -  distributed under the License is distributed on an "AS IS" BASIS,
  -  WITHOUT WARRANTIES OR CONDITIONS OF ANY KIND, either express or implied.
  -  See the License for the specific language governing permissions and
  -  limitations under the License.
  -
  -->

<svg version="1.1" xmlns="http://www.w3.org/2000/svg" xmlns:xlink="http://www.w3.org/1999/xlink" width="24.0572" height="20.8008">
  <path d="M1.06505 7.05469C2.75255 6.51562 4.49865 6.23438 6.16271 6.23438C8.31896 6.23438 9.90099 6.58594 11.9401 6.58594C14.0494 6.58594 15.3619 5.15625 15.3619 3.29297C15.3619 1.38281 13.8971 0.0117188 12.0924 0.0117188C10.7565 0.0117188 9.58459 0.855469 9.0924 1.96875C8.9049 2.35547 8.97521 2.80078 9.38537 3.01172C9.76037 3.19922 10.2174 3.08203 10.4635 2.61328C10.7213 2.01562 11.3541 1.54688 12.0924 1.54688C13.0651 1.54688 13.8268 2.22656 13.8268 3.29297C13.8268 4.35938 13.0885 5.0625 11.9401 5.0625C9.99474 5.0625 8.38927 4.71094 6.16271 4.71094C4.25255 4.71094 2.31896 5.05078 0.596304 5.60156C0.104117 5.74219-0.0833834 6.16406 0.0338041 6.5625C0.150992 6.97266 0.53771 7.20703 1.06505 7.05469ZM19.3932 12.5391C22.1236 12.5391 24.0572 10.8047 24.0572 8.37891C24.0572 5.98828 22.2174 4.25391 19.9322 4.25391C17.8111 4.25391 16.2408 5.73047 15.9596 7.66406C15.8893 8.15625 16.1588 8.54297 16.5807 8.60156C17.0143 8.66016 17.3893 8.39062 17.483 7.83984C17.6822 6.60938 18.7018 5.77734 19.9322 5.77734C21.3619 5.77734 22.5221 6.84375 22.5221 8.37891C22.5221 9.9375 21.2916 11.0156 19.3932 11.0156C15.819 11.0156 11.9635 8.97656 7.27599 8.97656C4.86193 8.97656 2.6588 9.36328 0.596304 10.0898C0.115835 10.2656-0.0833834 10.6758 0.0338041 11.0742C0.150992 11.4844 0.549429 11.7305 1.06505 11.5547C2.97521 10.8281 4.9674 10.5117 7.27599 10.5117C11.9518 10.5117 15.444 12.5391 19.3932 12.5391ZM11.9518 20.8008C13.7565 20.8008 15.151 19.4648 15.151 17.5547C15.151 14.7891 12.3268 13.2422 7.12365 13.2422C4.94396 13.2422 2.58849 13.6641 0.596304 14.3438C0.115835 14.5195-0.0833834 14.9297 0.0338041 15.3281C0.150992 15.7383 0.549429 15.9844 1.06505 15.8086C2.92834 15.1406 5.01427 14.7773 7.12365 14.7773C11.3776 14.7773 13.6276 15.8438 13.6276 17.5547C13.6276 18.6211 12.8776 19.2773 11.9518 19.2773C11.026 19.2773 10.4635 18.6562 10.2994 17.6719C10.2291 17.2383 9.91271 16.875 9.4088 16.9102C8.88146 16.9453 8.67052 17.3906 8.74084 17.8711C8.95177 19.5 10.1588 20.8008 11.9518 20.8008Z" fill="#000000"/>
</svg>
