<?xml version="1.0" encoding="UTF-8"?>

<!--
  - Copyright (c) 2023. Compose Cupertino project and open source contributors.
  -
  -  Licensed under the Apache License, Version 2.0 (the "License");
  -  you may not use this file except in compliance with the License.
  -  You may obtain a copy of the License at
  -
  -      http://www.apache.org/licenses/LICENSE-2.0
  -
  -  Unless required by applicable law or agreed to in writing, software
  -  distributed under the License is distributed on an "AS IS" BASIS,
  -  WITHOUT WARRANTIES OR CONDITIONS OF ANY KIND, either express or implied.
  -  See the License for the specific language governing permissions and
  -  limitations under the License.
  -
  -->

<svg version="1.1" xmlns="http://www.w3.org/2000/svg" xmlns:xlink="http://www.w3.org/1999/xlink" width="17.1328" height="27.9258">
  <path d="M8.55469 17.2266C13.6992 17.2266 17.1328 14.168 17.1328 9.52734C17.1328 7.11328 16.1133 3.9375 14.6367 1.67578C13.9453 0.597656 11.707 0 8.56641 0C5.40234 0 3.17578 0.597656 2.47266 1.67578C0.996094 3.9375 0 7.11328 0 9.52734C0 14.168 3.41016 17.2266 8.55469 17.2266ZM8.55469 15.457C4.37109 15.457 1.76953 13.1719 1.76953 9.52734C1.76953 7.78125 2.37891 5.51953 3.38672 3.62109C4.40625 4.17188 6.25781 4.48828 8.56641 4.48828C10.8516 4.48828 12.7031 4.17188 13.7227 3.62109C14.7422 5.51953 15.3633 7.78125 15.3633 9.52734C15.3633 13.1719 12.7383 15.457 8.55469 15.457ZM8.56641 2.83594C6.21094 2.83594 4.10156 2.50781 4.10156 2.23828C4.10156 1.99219 6.24609 1.66406 8.56641 1.66406C10.875 1.66406 13.0312 1.99219 13.0312 2.23828C13.0312 2.50781 10.8984 2.83594 8.56641 2.83594ZM8.55469 25.0781C9.03516 25.0781 9.44531 24.668 9.44531 24.1992L9.44531 16.3008L7.6875 16.3008L7.6875 24.1992C7.6875 24.6797 8.08594 25.0781 8.55469 25.0781ZM8.55469 27.9141C12.7969 27.9023 15.3633 26.8594 15.3633 25.0547C15.3633 23.2617 12.7969 22.207 8.55469 22.207C4.32422 22.207 1.76953 23.2617 1.76953 25.0547C1.76953 26.8594 4.3125 27.9023 8.55469 27.9141ZM8.55469 26.1914C5.56641 26.1914 3.65625 25.7109 3.65625 25.0547C3.65625 24.4102 5.57812 23.918 8.55469 23.918C11.543 23.918 13.4766 24.4102 13.4766 25.0547C13.4766 25.7109 11.543 26.1914 8.55469 26.1914Z" fill="#000000"/>
</svg>
