<?xml version="1.0" encoding="UTF-8"?>

<!--
  - Copyright (c) 2023. Compose Cupertino project and open source contributors.
  -
  -  Licensed under the Apache License, Version 2.0 (the "License");
  -  you may not use this file except in compliance with the License.
  -  You may obtain a copy of the License at
  -
  -      http://www.apache.org/licenses/LICENSE-2.0
  -
  -  Unless required by applicable law or agreed to in writing, software
  -  distributed under the License is distributed on an "AS IS" BASIS,
  -  WITHOUT WARRANTIES OR CONDITIONS OF ANY KIND, either express or implied.
  -  See the License for the specific language governing permissions and
  -  limitations under the License.
  -
  -->

<svg version="1.1" xmlns="http://www.w3.org/2000/svg" xmlns:xlink="http://www.w3.org/1999/xlink" width="27.8449" height="28.292">
 <g>
  <path d="M8.93412 16.7652L10.0591 15.6636L2.28959 7.85891C1.43412 7.00344 1.44584 6.11282 2.28959 5.25735L3.94193 3.59329C4.77396 2.74954 5.68802 2.76126 6.54349 3.60501L14.9107 11.9605L16.0826 10.9175L7.77396 2.55032C6.12162 0.909694 4.36381 0.909694 2.75834 2.51516L1.19974 4.07376C-0.405726 5.67922-0.405726 7.43704 1.2349 9.07766ZM8.1724 11.5503C8.34818 11.7261 8.62943 11.7261 8.79349 11.5503C8.95756 11.3863 8.96927 11.1167 8.79349 10.9409L4.41068 6.55813C4.25834 6.41751 3.96537 6.39407 3.78959 6.55813C3.62552 6.74563 3.61381 7.02688 3.78959 7.19094ZM9.61381 10.1206C9.77787 10.2964 10.0826 10.273 10.2349 10.1206C10.4107 9.92141 10.4107 9.65188 10.2466 9.48782L5.86381 5.11672C5.68802 4.94094 5.40677 4.95266 5.25443 5.11672C5.07865 5.29251 5.09037 5.56204 5.25443 5.7261ZM24.6958 28.0972L26.7935 25.9995C27.0396 25.7417 27.0044 25.3667 26.7701 25.0034L24.3208 21.3472C24.0747 20.9839 23.6997 20.7261 23.2779 20.6675L22.2232 20.5034L16.5396 14.8198L15.4497 16.0738L21.5435 22.1441L22.856 22.3667L25.0943 25.3433L24.0279 26.4097L21.063 24.1714L20.8286 22.8589L14.7935 16.812L13.6919 18.0542L19.188 23.5386L19.3521 24.5933C19.4107 25.0152 19.6802 25.3902 20.0318 25.6245L23.6997 28.1089C24.0747 28.355 24.438 28.355 24.6958 28.0972Z" fill="#000000"/>
  <path d="M1.83256 26.7144C3.87162 28.73 6.60209 28.7534 8.60599 26.7378C11.1841 24.1363 10.7154 21.1831 18.9888 12.9448L17.9693 11.9136C8.94584 20.9722 10.3169 22.6597 7.41068 25.5659C6.1099 26.8784 4.35209 26.8902 2.99271 25.5542C1.64506 24.1831 1.66849 22.437 2.95756 21.1363C5.88724 18.2183 7.57474 19.6011 16.6216 10.5777L15.6021 9.55813C7.36381 17.8316 4.41068 17.3628 1.80912 19.9292C-0.218226 21.9331-0.194789 24.6753 1.83256 26.7144ZM5.1724 24.8511C5.96927 24.8511 6.62552 24.1948 6.62552 23.398C6.62552 22.6011 5.96927 21.9566 5.1724 21.9566C4.37552 21.9566 3.73099 22.6011 3.73099 23.398C3.73099 24.1948 4.37552 24.8511 5.1724 24.8511ZM16.4107 12.1245C19.0943 14.8081 23.3716 14.9019 25.9732 12.312C28.0826 10.2027 28.4458 6.87454 26.8755 4.17922L25.7388 5.32766C26.7232 7.34329 26.3951 9.68704 24.8716 11.2222C22.8911 13.2027 19.6099 13.1089 17.5122 11.0347C15.4263 8.94876 15.3443 5.64407 17.3365 3.67532C18.8599 2.15188 21.2388 1.82376 23.1958 2.81985L24.3443 1.67141C21.6724 0.112819 18.356 0.464381 16.2466 2.58547C13.6568 5.1636 13.7388 9.44094 16.4107 12.1245ZM19.9615 6.86282L21.6958 8.58547C22.563 9.45266 23.6763 9.4761 24.4966 8.64407L26.9576 6.17141L25.9263 5.15188L23.688 7.36672C23.3716 7.68313 22.9732 7.70657 22.6333 7.36672L21.2036 5.92532C20.8638 5.57376 20.8286 5.1636 21.1451 4.84719L23.4068 2.60891L22.3404 1.57766L19.9029 4.02688C19.0357 4.88235 19.0591 5.98391 19.9615 6.86282Z" fill="#000000"/>
 </g>
</svg>
