<?xml version="1.0" encoding="UTF-8"?>

<!--
  - Copyright (c) 2023. Compose Cupertino project and open source contributors.
  -
  -  Licensed under the Apache License, Version 2.0 (the "License");
  -  you may not use this file except in compliance with the License.
  -  You may obtain a copy of the License at
  -
  -      http://www.apache.org/licenses/LICENSE-2.0
  -
  -  Unless required by applicable law or agreed to in writing, software
  -  distributed under the License is distributed on an "AS IS" BASIS,
  -  WITHOUT WARRANTIES OR CONDITIONS OF ANY KIND, either express or implied.
  -  See the License for the specific language governing permissions and
  -  limitations under the License.
  -
  -->

<svg version="1.1" xmlns="http://www.w3.org/2000/svg" xmlns:xlink="http://www.w3.org/1999/xlink" width="23.9062" height="23.918">
 <g>
  <path d="M11.9531 23.9062C18.4922 23.9062 23.9062 18.4805 23.9062 11.9531C23.9062 5.41406 18.4805 0 11.9414 0C5.41406 0 0 5.41406 0 11.9531C0 18.4805 5.42578 23.9062 11.9531 23.9062ZM11.9531 21.9141C6.42188 21.9141 2.00391 17.4844 2.00391 11.9531C2.00391 6.42188 6.41016 1.99219 11.9414 1.99219C17.4727 1.99219 21.9141 6.42188 21.9141 11.9531C21.9141 17.4844 17.4844 21.9141 11.9531 21.9141Z" fill="#000000"/>
  <path d="M7.94531 16.9102C8.21484 16.9102 8.44922 16.8047 8.625 16.6172L11.9414 13.2891L15.2812 16.6172C15.457 16.793 15.6797 16.9102 15.9492 16.9102C16.4648 16.9102 16.8867 16.4883 16.8867 15.9609C16.8867 15.6914 16.793 15.4805 16.6055 15.293L13.2773 11.9648L16.6172 8.61328C16.8164 8.41406 16.8984 8.21484 16.8984 7.95703C16.8984 7.44141 16.4766 7.01953 15.9609 7.01953C15.7148 7.01953 15.5156 7.11328 15.3164 7.3125L11.9414 10.6523L8.60156 7.32422C8.42578 7.13672 8.21484 7.04297 7.94531 7.04297C7.42969 7.04297 7.00781 7.45312 7.00781 7.96875C7.00781 8.22656 7.11328 8.44922 7.28906 8.625L10.6172 11.9648L7.28906 15.3047C7.11328 15.4805 7.00781 15.7031 7.00781 15.9609C7.00781 16.4883 7.42969 16.9102 7.94531 16.9102Z" fill="#000000"/>
 </g>
</svg>
