<?xml version="1.0" encoding="UTF-8"?>

<!--
  - Copyright (c) 2023. Compose Cupertino project and open source contributors.
  -
  -  Licensed under the Apache License, Version 2.0 (the "License");
  -  you may not use this file except in compliance with the License.
  -  You may obtain a copy of the License at
  -
  -      http://www.apache.org/licenses/LICENSE-2.0
  -
  -  Unless required by applicable law or agreed to in writing, software
  -  distributed under the License is distributed on an "AS IS" BASIS,
  -  WITHOUT WARRANTIES OR CONDITIONS OF ANY KIND, either express or implied.
  -  See the License for the specific language governing permissions and
  -  limitations under the License.
  -
  -->

<svg version="1.1" xmlns="http://www.w3.org/2000/svg" xmlns:xlink="http://www.w3.org/1999/xlink" width="26.6104" height="26.6338">
 <g>
  <path d="M6.20948 23.4712L8.74073 23.4712C8.98682 23.4712 9.1626 23.5415 9.33838 23.7173L11.1431 25.5103C12.6196 26.9985 13.9907 26.9868 15.4673 25.5103L17.272 23.7173C17.4478 23.5415 17.6235 23.4712 17.8696 23.4712L20.4009 23.4712C22.4985 23.4712 23.4712 22.5103 23.4712 20.4009L23.4712 17.8696C23.4712 17.6235 23.5415 17.4595 23.7173 17.272L25.4985 15.4673C26.9868 13.9907 26.9751 12.6314 25.4985 11.1431L23.7173 9.33838C23.5415 9.1626 23.4712 8.98682 23.4712 8.75245L23.4712 6.20948C23.4712 4.12354 22.5103 3.13916 20.4009 3.13916L17.8696 3.13916C17.6235 3.13916 17.4478 3.08057 17.272 2.90479L15.4673 1.11182C13.9907-0.376461 12.6196-0.364742 11.1431 1.11182L9.33838 2.90479C9.1626 3.08057 8.98682 3.13916 8.74073 3.13916L6.20948 3.13916C4.11182 3.13916 3.13916 4.1001 3.13916 6.20948L3.13916 8.75245C3.13916 8.98682 3.08057 9.1626 2.90479 9.33838L1.11182 11.1431C-0.376461 12.6314-0.364742 13.9907 1.11182 15.4673L2.90479 17.272C3.08057 17.4595 3.13916 17.6235 3.13916 17.8696L3.13916 20.4009C3.13916 22.4985 4.11182 23.4712 6.20948 23.4712ZM6.20948 21.6079C5.16651 21.6079 5.00245 21.4439 5.00245 20.4009L5.00245 17.2485C5.00245 16.897 4.89698 16.6274 4.63916 16.3696L2.42432 14.1665C1.68604 13.4165 1.68604 13.2056 2.42432 12.4556L4.63916 10.2524C4.89698 9.99463 5.00245 9.7251 5.00245 9.36182L5.00245 6.20948C5.00245 5.15479 5.15479 5.00245 6.20948 5.00245L9.36182 5.00245C9.7251 5.00245 9.99463 4.9087 10.2524 4.63916L12.4556 2.42432C13.2056 1.68604 13.4165 1.68604 14.1548 2.42432L16.3696 4.63916C16.6157 4.9087 16.897 5.00245 17.2485 5.00245L20.4009 5.00245C21.4439 5.00245 21.6079 5.16651 21.6079 6.20948L21.6079 9.36182C21.6079 9.7251 21.7251 9.99463 21.9829 10.2524L24.1978 12.4556C24.936 13.2056 24.936 13.4165 24.1978 14.1665L21.9829 16.3696C21.7251 16.6274 21.6079 16.897 21.6079 17.2485L21.6079 20.4009C21.6079 21.4439 21.4439 21.6079 20.4009 21.6079L17.2485 21.6079C16.897 21.6079 16.6157 21.7134 16.3696 21.9829L14.1548 24.1978C13.4165 24.936 13.2056 24.936 12.4556 24.1978L10.2524 21.9829C9.99463 21.7134 9.7251 21.6079 9.36182 21.6079Z" fill="#000000"/>
  <path d="M9.31495 18.2681C9.58448 18.2681 9.81885 18.1626 9.99463 17.9751L13.311 14.647L16.6509 17.9751C16.8267 18.1509 17.0493 18.2681 17.3189 18.2681C17.8345 18.2681 18.2564 17.8345 18.2564 17.3189C18.2564 17.0493 18.1626 16.8384 17.9751 16.6509L14.647 13.3228L17.9868 9.9712C18.186 9.77198 18.2681 9.57276 18.2681 9.31495C18.2681 8.7876 17.8462 8.37745 17.3306 8.37745C17.0845 8.37745 16.8853 8.4712 16.686 8.67041L13.311 12.0103L9.9712 8.68213C9.79541 8.49463 9.58448 8.40088 9.31495 8.40088C8.79932 8.40088 8.37745 8.79932 8.37745 9.32666C8.37745 9.58448 8.48291 9.80713 8.6587 9.98291L11.9868 13.3228L8.6587 16.6626C8.48291 16.8384 8.37745 17.061 8.37745 17.3189C8.37745 17.8345 8.79932 18.2681 9.31495 18.2681Z" fill="#000000"/>
 </g>
</svg>
