<?xml version="1.0" encoding="UTF-8"?>

<!--
  - Copyright (c) 2023. Compose Cupertino project and open source contributors.
  -
  -  Licensed under the Apache License, Version 2.0 (the "License");
  -  you may not use this file except in compliance with the License.
  -  You may obtain a copy of the License at
  -
  -      http://www.apache.org/licenses/LICENSE-2.0
  -
  -  Unless required by applicable law or agreed to in writing, software
  -  distributed under the License is distributed on an "AS IS" BASIS,
  -  WITHOUT WARRANTIES OR CONDITIONS OF ANY KIND, either express or implied.
  -  See the License for the specific language governing permissions and
  -  limitations under the License.
  -
  -->

<svg version="1.1" xmlns="http://www.w3.org/2000/svg" xmlns:xlink="http://www.w3.org/1999/xlink" width="29.4609" height="22.2773">
 <g>
  <path d="M23.1562 20.3672C26.6953 20.3672 29.4609 17.7773 29.4609 14.5547C29.4609 12.0938 28.043 9.96094 25.7578 9C25.7812 3.77344 22.0195 0 17.2266 0C14.0508 0 11.7891 1.69922 10.3828 3.75C7.5 2.90625 4.35938 5.09766 4.30078 8.37891C1.65234 8.80078 0 11.168 0 14.0273C0 17.4727 3.01172 20.3672 7.01953 20.3672ZM23.1562 18.4805L7.01953 18.4805C4.06641 18.4805 1.88672 16.418 1.88672 14.0273C1.88672 11.6836 3.30469 9.82031 5.78906 9.82031C5.95312 9.82031 6.01172 9.73828 6.01172 9.58594C6.01172 5.97656 8.61328 4.91016 11.0156 5.69531C11.1562 5.74219 11.2383 5.70703 11.3086 5.57812C12.4453 3.55078 14.1914 1.88672 17.2266 1.88672C21.0703 1.88672 23.7305 4.93359 23.9297 8.41406C23.9648 8.95312 23.9297 9.58594 23.8828 10.1367C23.8711 10.2891 23.9297 10.3711 24.0703 10.4062C26.2031 10.875 27.5742 12.4336 27.5742 14.5547C27.5742 16.7344 25.6523 18.4805 23.1562 18.4805Z" fill="#000000"/>
  <path d="M12.4805 15.0938L14.7305 12.8438L16.9805 15.0938C17.332 15.4336 17.8125 15.3633 18.1289 15.0703C18.4336 14.7656 18.5039 14.2734 18.1641 13.9336L15.9023 11.6719L18.1641 9.41016C18.5039 9.07031 18.4336 8.58984 18.1289 8.27344C17.8359 7.96875 17.332 7.89844 16.9805 8.25L14.7305 10.5L12.4805 8.25C12.1406 7.91016 11.6484 7.98047 11.3438 8.27344C11.0273 8.57812 10.9688 9.07031 11.3086 9.41016L13.5586 11.6719L11.3086 13.9336C10.9688 14.2734 11.0391 14.7539 11.332 15.0586C11.6367 15.375 12.1406 15.4336 12.4805 15.0938Z" fill="#000000"/>
 </g>
</svg>
