<?xml version="1.0" encoding="UTF-8"?>

<!--
  - Copyright (c) 2023. Compose Cupertino project and open source contributors.
  -
  -  Licensed under the Apache License, Version 2.0 (the "License");
  -  you may not use this file except in compliance with the License.
  -  You may obtain a copy of the License at
  -
  -      http://www.apache.org/licenses/LICENSE-2.0
  -
  -  Unless required by applicable law or agreed to in writing, software
  -  distributed under the License is distributed on an "AS IS" BASIS,
  -  WITHOUT WARRANTIES OR CONDITIONS OF ANY KIND, either express or implied.
  -  See the License for the specific language governing permissions and
  -  limitations under the License.
  -
  -->

<svg version="1.1" xmlns="http://www.w3.org/2000/svg" xmlns:xlink="http://www.w3.org/1999/xlink" width="18.583" height="18.5948">
  <path d="M0.303239 18.2915C0.713395 18.69 1.39308 18.69 1.79152 18.2915L9.29152 10.7915L16.7915 18.2915C17.19 18.69 17.8814 18.7017 18.2798 18.2915C18.6782 17.8814 18.6782 17.2134 18.2798 16.815L10.7798 9.30324L18.2798 1.80324C18.6782 1.4048 18.69 0.725114 18.2798 0.326676C17.8696-0.0834802 17.19-0.0834802 16.7915 0.326676L9.29152 7.82668L1.79152 0.326676C1.39308-0.0834802 0.701676-0.0951989 0.303239 0.326676C-0.0951989 0.736832-0.0951989 1.4048 0.303239 1.80324L7.80324 9.30324L0.303239 16.815C-0.0951989 17.2134-0.106918 17.8931 0.303239 18.2915Z" fill="#000000"/>
</svg>
