<?xml version="1.0" encoding="UTF-8"?>

<!--
  - Copyright (c) 2023. Compose Cupertino project and open source contributors.
  -
  -  Licensed under the Apache License, Version 2.0 (the "License");
  -  you may not use this file except in compliance with the License.
  -  You may obtain a copy of the License at
  -
  -      http://www.apache.org/licenses/LICENSE-2.0
  -
  -  Unless required by applicable law or agreed to in writing, software
  -  distributed under the License is distributed on an "AS IS" BASIS,
  -  WITHOUT WARRANTIES OR CONDITIONS OF ANY KIND, either express or implied.
  -  See the License for the specific language governing permissions and
  -  limitations under the License.
  -
  -->

<svg version="1.1" xmlns="http://www.w3.org/2000/svg" xmlns:xlink="http://www.w3.org/1999/xlink" width="28.1133" height="21.5977">
 <g>
  <path d="M7.89844 21.5977L20.2031 21.5977C22.5117 21.5977 23.5312 20.5195 23.8828 18.2227L25.7695 5.47266L23.8828 5.58984L22.0078 18.1992C21.832 19.3594 21.2109 19.8281 20.1797 19.8281L7.93359 19.8281C6.87891 19.8281 6.26953 19.3594 6.10547 18.1992L4.23047 5.58984L2.34375 5.47266L4.23047 18.2227C4.57031 20.5312 5.60156 21.5977 7.89844 21.5977ZM2.22656 6.46875L25.8867 6.46875C27.3281 6.46875 28.1133 5.56641 28.1133 4.13672L28.1133 2.35547C28.1133 0.925781 27.3281 0.0234375 25.8867 0.0234375L2.22656 0.0234375C0.855469 0.0234375 0 0.925781 0 2.35547L0 4.13672C0 5.56641 0.785156 6.46875 2.22656 6.46875ZM2.70703 4.69922C2.12109 4.69922 1.88672 4.45312 1.88672 3.86719L1.88672 2.625C1.88672 2.03906 2.12109 1.79297 2.70703 1.79297L25.418 1.79297C26.0039 1.79297 26.2266 2.03906 26.2266 2.625L26.2266 3.86719C26.2266 4.45312 26.0039 4.69922 25.418 4.69922Z" fill="#000000"/>
  <path d="M10.6641 17.3789C10.8984 17.3789 11.1094 17.2617 11.2852 17.0977L14.0508 14.3203L16.8281 17.0977C16.9922 17.25 17.2031 17.3789 17.4609 17.3789C17.9531 17.3789 18.3633 16.957 18.3633 16.4648C18.3633 16.1953 18.2461 16.0078 18.082 15.832L15.3281 13.0664L18.0938 10.2656C18.2695 10.0781 18.375 9.90234 18.375 9.65625C18.375 9.15234 17.9766 8.75391 17.4609 8.75391C17.2383 8.75391 17.0391 8.84766 16.8516 9.03516L14.0508 11.8125L11.2734 9.04688C11.0859 8.87109 10.8984 8.77734 10.6641 8.77734C10.1602 8.77734 9.75 9.16406 9.75 9.65625C9.75 9.91406 9.86719 10.1133 10.0312 10.2773L12.7852 13.0664L10.0312 15.8438C9.86719 16.0078 9.75 16.207 9.75 16.4648C9.75 16.957 10.1602 17.3789 10.6641 17.3789Z" fill="#000000"/>
 </g>
</svg>
