<?xml version="1.0" encoding="UTF-8"?>

<!--
  - Copyright (c) 2023. Compose Cupertino project and open source contributors.
  -
  -  Licensed under the Apache License, Version 2.0 (the "License");
  -  you may not use this file except in compliance with the License.
  -  You may obtain a copy of the License at
  -
  -      http://www.apache.org/licenses/LICENSE-2.0
  -
  -  Unless required by applicable law or agreed to in writing, software
  -  distributed under the License is distributed on an "AS IS" BASIS,
  -  WITHOUT WARRANTIES OR CONDITIONS OF ANY KIND, either express or implied.
  -  See the License for the specific language governing permissions and
  -  limitations under the License.
  -
  -->

<svg version="1.1" xmlns="http://www.w3.org/2000/svg" xmlns:xlink="http://www.w3.org/1999/xlink" width="21.6094" height="21.5273">
 <g>
  <path d="M20.2383 1.40625C19.043 0.210938 17.3555 0.0234375 15.3516 0.0234375L6.22266 0.0234375C4.25391 0.0234375 2.56641 0.210938 1.37109 1.40625C0.175781 2.60156 0 4.27734 0 6.23438L0 15.2812C0 17.2852 0.175781 18.9492 1.37109 20.1445C2.56641 21.3398 4.25391 21.5273 6.24609 21.5273L15.3516 21.5273C17.3555 21.5273 19.043 21.3398 20.2383 20.1445C21.4336 18.9492 21.6094 17.2852 21.6094 15.2812L21.6094 6.26953C21.6094 4.26562 21.4336 2.58984 20.2383 1.40625ZM19.7227 5.94141L19.7227 15.5977C19.7227 16.8164 19.5703 18.0586 18.8555 18.7734C18.1523 19.4766 16.8867 19.6406 15.6797 19.6406L5.92969 19.6406C4.72266 19.6406 3.45703 19.4766 2.74219 18.7734C2.03906 18.0586 1.88672 16.8164 1.88672 15.5977L1.88672 5.97656C1.88672 4.74609 2.03906 3.48047 2.74219 2.77734C3.45703 2.0625 4.73438 1.91016 5.96484 1.91016L15.6797 1.91016C16.8867 1.91016 18.1523 2.07422 18.8555 2.77734C19.5703 3.49219 19.7227 4.73438 19.7227 5.94141Z" fill="#000000"/>
  <path d="M6.82031 15.7148C7.07812 15.7148 7.3125 15.6094 7.48828 15.4219L10.8047 12.0938L14.1445 15.4219C14.3203 15.5977 14.543 15.7148 14.8125 15.7148C15.3398 15.7148 15.7617 15.293 15.7617 14.7656C15.7617 14.4961 15.6562 14.2852 15.4688 14.0977L12.1406 10.7695L15.4805 7.41797C15.6797 7.21875 15.7734 7.01953 15.7734 6.76172C15.7734 6.24609 15.3516 5.82422 14.8242 5.82422C14.5781 5.82422 14.3789 5.91797 14.1797 6.11719L10.8047 9.45703L7.46484 6.12891C7.28906 5.94141 7.07812 5.84766 6.82031 5.84766C6.29297 5.84766 5.87109 6.25781 5.87109 6.77344C5.87109 7.03125 5.97656 7.25391 6.16406 7.42969L9.49219 10.7695L6.16406 14.1094C5.97656 14.2852 5.87109 14.5078 5.87109 14.7656C5.87109 15.293 6.29297 15.7148 6.82031 15.7148Z" fill="#000000"/>
 </g>
</svg>
