<?xml version="1.0" encoding="UTF-8"?>

<!--
  - Copyright (c) 2023. Compose Cupertino project and open source contributors.
  -
  -  Licensed under the Apache License, Version 2.0 (the "License");
  -  you may not use this file except in compliance with the License.
  -  You may obtain a copy of the License at
  -
  -      http://www.apache.org/licenses/LICENSE-2.0
  -
  -  Unless required by applicable law or agreed to in writing, software
  -  distributed under the License is distributed on an "AS IS" BASIS,
  -  WITHOUT WARRANTIES OR CONDITIONS OF ANY KIND, either express or implied.
  -  See the License for the specific language governing permissions and
  -  limitations under the License.
  -
  -->

<svg version="1.1" xmlns="http://www.w3.org/2000/svg" xmlns:xlink="http://www.w3.org/1999/xlink" width="16.0781" height="21.7148">
  <path d="M8.03906 21.7031C8.69531 21.7031 9.14062 21.2344 9.14062 20.5664L9.14062 12.5273L15.8438 1.72266C16.0195 1.45312 16.0781 1.24219 16.0781 0.984375C16.0781 0.421875 15.6094 0 14.9883 0C14.5664 0 14.2383 0.175781 14.0039 0.585938L8.08594 10.5L8.00391 10.5L2.08594 0.585938C1.83984 0.175781 1.51172 0 1.08984 0C0.480469 0 0 0.421875 0 0.984375C0 1.24219 0.0703125 1.45312 0.234375 1.72266L6.94922 12.5273L6.94922 20.5664C6.94922 21.2344 7.39453 21.7031 8.03906 21.7031ZM2.41406 12.7969L13.7695 12.7969C14.2148 12.7969 14.5078 12.4688 14.5078 12.0352C14.5078 11.6016 14.2148 11.2734 13.7695 11.2734L2.41406 11.2734C1.96875 11.2734 1.67578 11.6016 1.67578 12.0352C1.67578 12.4688 1.96875 12.7969 2.41406 12.7969ZM2.41406 16.8164L13.7695 16.8164C14.2148 16.8164 14.5078 16.4883 14.5078 16.0547C14.5078 15.6211 14.2266 15.2812 13.7695 15.2812L2.41406 15.2812C1.96875 15.2812 1.67578 15.6211 1.67578 16.0547C1.67578 16.4766 1.96875 16.8164 2.41406 16.8164Z" fill="#000000"/>
</svg>
