<?xml version="1.0" encoding="UTF-8"?>

<!--
  - Copyright (c) 2023. Compose Cupertino project and open source contributors.
  -
  -  Licensed under the Apache License, Version 2.0 (the "License");
  -  you may not use this file except in compliance with the License.
  -  You may obtain a copy of the License at
  -
  -      http://www.apache.org/licenses/LICENSE-2.0
  -
  -  Unless required by applicable law or agreed to in writing, software
  -  distributed under the License is distributed on an "AS IS" BASIS,
  -  WITHOUT WARRANTIES OR CONDITIONS OF ANY KIND, either express or implied.
  -  See the License for the specific language governing permissions and
  -  limitations under the License.
  -
  -->

<svg version="1.1" xmlns="http://www.w3.org/2000/svg" xmlns:xlink="http://www.w3.org/1999/xlink" width="19.8398" height="24.5273">
  <path d="M4.60547 24.5039L9.35156 24.5039C9.84375 24.5039 10.1367 24.2344 10.1367 23.7656C10.1367 23.3086 9.84375 23.0508 9.35156 23.0508L5.63672 23.0508L5.63672 23.0039L9.52734 18.2578C9.90234 17.8008 10.0195 17.5195 10.0195 17.1914C10.0195 16.6172 9.64453 16.3008 9.01172 16.3008L4.3125 16.3008C3.80859 16.3008 3.52734 16.582 3.52734 17.0391C3.52734 17.5078 3.80859 17.7656 4.3125 17.7656L8.07422 17.7656L8.07422 17.8125L4.00781 22.7344C3.71484 23.0859 3.63281 23.2734 3.63281 23.6133C3.63281 24.1289 4.00781 24.5039 4.60547 24.5039ZM13.0664 18L18.9844 18C19.5234 18 19.8398 17.707 19.8398 17.2031C19.8398 16.7109 19.5234 16.4297 18.9844 16.4297L14.168 16.4297L14.168 16.3828L19.1836 10.3359C19.582 9.85547 19.7109 9.58594 19.7109 9.25781C19.7109 8.625 19.3008 8.23828 18.5508 8.23828L12.7852 8.23828C12.2461 8.23828 11.9414 8.53125 11.9414 9.02344C11.9414 9.52734 12.2461 9.80859 12.7852 9.80859L17.5898 9.80859L17.5898 9.85547L12.4336 16.0898C12.1289 16.4531 12.0117 16.6875 12.0117 17.0156C12.0117 17.6016 12.4219 18 13.0664 18ZM1.16016 11.6953L8.61328 11.6953C9.17578 11.6953 9.49219 11.3906 9.49219 10.8633C9.49219 10.3594 9.17578 10.0664 8.61328 10.0664L2.35547 10.0664L2.35547 10.0195L8.91797 2.10938C9.29297 1.65234 9.38672 1.39453 9.38672 1.04297C9.38672 0.398438 8.94141 0 8.16797 0L0.878906 0C0.328125 0 0 0.292969 0 0.808594C0 1.32422 0.328125 1.62891 0.878906 1.62891L7.13672 1.62891L7.13672 1.66406L0.421875 9.78516C0.152344 10.1016 0.0820312 10.3359 0.0820312 10.6758C0.0820312 11.2852 0.503906 11.6953 1.16016 11.6953Z" fill="#000000"/>
</svg>
