<?xml version="1.0" encoding="UTF-8"?>

<svg version="1.1" xmlns="http://www.w3.org/2000/svg" xmlns:xlink="http://www.w3.org/1999/xlink" width="18.1055" height="22.1367">
  <path d="M0 6.12891C0 9.65625 2.48438 11.9883 6.25781 11.9883L8.15625 11.9883L8.15625 21.0586C8.15625 21.7148 8.56641 22.1367 9.23438 22.1367C9.89062 22.1367 10.3242 21.7148 10.3242 21.0586L10.3242 2.44922L12.8672 2.44922L12.8672 21.0586C12.8672 21.7148 13.2773 22.1367 13.9336 22.1367C14.6016 22.1367 15.0352 21.7148 15.0352 21.0586L15.0352 2.44922L17.0156 2.44922C17.6836 2.44922 18.1055 2.00391 18.1055 1.34766C18.1055 0.691406 17.6836 0.28125 17.0156 0.28125L6.19922 0.28125C2.46094 0.28125 0 2.60156 0 6.12891Z" fill="#000000"/>
</svg>
